<?xml version="1.0" encoding="utf-8"?>
<!-- Generator: Adobe Illustrator 16.0.0, SVG Export Plug-In . SVG Version: 6.00 Build 0)  -->
<!DOCTYPE svg PUBLIC "-//W3C//DTD SVG 1.1//EN" "http://www.w3.org/Graphics/SVG/1.1/DTD/svg11.dtd">
<svg version="1.1" id="Layer_1" xmlns="http://www.w3.org/2000/svg" xmlns:xlink="http://www.w3.org/1999/xlink" x="0px" y="0px"
	 width="400px" height="330px" viewBox="0 0 400 330" enable-background="new 0 0 400 330" xml:space="preserve">
<g>
	<path fill="#231F20" d="M16.536,236.223h-2.52l-0.359-20.883h2.951c2.16,11.879,8.209,18.074,17.426,18.074
		c7.85,0,12.168-3.961,12.168-10.299c0-3.023-1.15-5.4-3.168-6.838c-2.52-1.801-6.553-2.523-11.809-3.961
		c-11.521-3.1-17.064-5.977-17.064-15.484c0-8.926,5.977-14.686,15.336-14.686c5.258,0,9.867,1.725,13.465,5.039l2.809-4.322h2.664
		l0.793,18.725h-2.809c-2.736-10.732-8.424-16.131-16.922-16.131c-6.336,0-9.936,3.17-9.936,8.713c0,6.914,5.4,7.705,14.977,10.08
		c5.184,1.297,9.506,2.377,12.818,5.4c2.807,2.592,4.391,6.48,4.391,11.088c0,10.012-6.336,15.914-17.855,15.914
		c-5.619,0-10.875-2.018-14.33-5.398L16.536,236.223z"/>
	<path fill="#231F20" d="M52.466,205.186v-2.881c5.902-0.43,9.287-5.545,9.646-14.902h3.025v14.617h10.369v3.166h-10.73v20.813
		c0,4.102,0.793,6.117,4.248,6.117c3.961,0,5.762-3.166,5.977-9.791h2.664c0,0.287,0,0.648,0,0.938
		c0,8.713-3.959,13.318-11.23,13.318c-6.48,0-8.211-3.166-8.211-9.938v-21.457H52.466z"/>
	<path fill="#231F20" d="M95.81,200.867c9.506,0,16.129,7.129,16.129,17.855c0,10.73-6.695,17.787-16.129,17.787
		c-9.432,0-16.201-7.057-16.201-17.787C79.608,207.996,86.306,200.867,95.81,200.867z M95.737,233.557
		c6.338,0,8.857-4.682,8.857-14.834c0-10.15-2.52-14.902-8.785-14.902c-6.264,0-8.785,4.752-8.785,14.902
		C87.024,228.805,89.618,233.557,95.737,233.557z"/>
	<path fill="#231F20" d="M113.665,232.332l3.094-0.145c2.018-0.072,2.377-0.576,2.377-2.662v-21.891
		c0-2.377-0.863-2.881-3.959-2.881c-0.648,0-1.369,0.074-2.16,0.074v-2.809l12.313-0.865v6.914c3.24-4.756,6.84-6.914,11.809-6.914
		c6.84,0,10.873,4.104,10.873,11.52v16.852c0,2.086,0.432,2.59,2.377,2.662l3.096,0.145v3.023h-17.426v-3.023l3.096-0.145
		c1.873-0.072,2.377-0.576,2.377-2.662v-17.139c0-4.318-2.377-6.768-6.623-6.768c-6.049,0-9.219,4.031-9.219,12.023v11.883
		c0,2.016,0.289,2.59,2.377,2.662l3.023,0.145v3.023h-17.424V232.332z"/>
	<path fill="#231F20" d="M157.007,208.139c-0.504-1.078-1.08-1.945-1.656-2.303c-0.863-0.578-2.16-0.793-3.889-0.793v-3.023h16.777
		v3.023c-0.719,0-1.295,0-1.799,0c-2.09,0-2.881,0.215-2.881,1.512c0,0.43,0.287,1.15,0.719,2.23l7.635,17.57l7.199-17.279
		c0.143-0.434,0.361-0.867,0.361-1.584c0-2.02-1.441-2.377-5.041-2.449v-3.023h13.896v3.023c-2.664,0-4.248,1.223-5.4,3.887
		l-12.17,28.301c-3.742,8.713-7.703,13.105-13.969,13.105c-4.246,0-6.625-2.16-6.625-5.547c0-2.375,1.801-4.248,4.322-4.248
		c2.303,0,3.744,1.369,3.744,3.527c0,1.225-0.576,1.803-0.576,2.088c0,0.508,0.432,0.795,1.295,0.795
		c2.305,0,5.904-3.818,9.002-11.307l0.504-1.15L157.007,208.139z"/>
	<path fill="#231F20" d="M201.284,231.975h3.744c2.883,0,3.816-0.65,3.816-3.457v-38.309c0-2.807-0.934-3.457-3.816-3.457h-3.744
		v-3.385h27.217c10.227,0,15.557,4.465,15.557,12.676c0,6.189-4.033,10.297-12.1,12.025c9.938,1.295,14.762,5.686,14.762,13.318
		c0,8.713-6.77,13.969-19.08,13.969h-26.355V231.975z M216.548,206.844h5.762c9.291,0,13.393-2.162,13.393-10.154
		c0-7.271-3.24-10.08-11.016-10.08h-4.535c-2.953,0-3.604,0.719-3.604,3.166V206.844z M216.548,228.588
		c0,2.666,0.721,3.387,3.961,3.387h5.115c8.566,0,12.311-3.025,12.311-10.805c0-8.209-4.535-11.158-14.902-11.158h-6.484V228.588z"
		/>
	<path fill="#231F20" d="M263.423,232.188l4.391,0.145v3.023h-18.938v-3.023l3.385-0.145c2.016-0.072,2.377-0.646,2.377-2.662
		v-21.891c0-2.52-0.936-2.807-4.322-2.807c-0.646,0-1.365,0-2.158,0v-2.809l12.529-0.865v10.154
		c2.232-6.844,5.904-10.371,10.512-10.371c3.891,0,6.551,2.666,6.551,6.123c0,2.66-1.799,4.463-4.174,4.463
		c-2.664,0-4.25-1.656-4.25-4.105c0-1.295,0.504-2.449,1.439-3.094c-0.141,0-0.287,0-0.432,0c-4.537,0-9.289,6.838-9.289,17.496
		v7.705C261.044,231.541,261.407,232.115,263.423,232.188z"/>
	<path fill="#231F20" d="M294.812,200.867c9.506,0,16.131,7.129,16.131,17.855c0,10.73-6.697,17.787-16.131,17.787
		c-9.432,0-16.201-7.057-16.201-17.787C278.61,207.996,285.308,200.867,294.812,200.867z M294.741,233.557
		c6.338,0,8.857-4.682,8.857-14.834c0-10.15-2.52-14.902-8.787-14.902c-6.264,0-8.783,4.752-8.783,14.902
		C286.028,228.805,288.622,233.557,294.741,233.557z"/>
	<path fill="#231F20" d="M330.378,200.867c9.506,0,16.131,7.129,16.131,17.855c0,10.73-6.697,17.787-16.131,17.787
		c-9.432,0-16.201-7.057-16.201-17.787C314.177,207.996,320.874,200.867,330.378,200.867z M330.308,233.557
		c6.338,0,8.857-4.682,8.857-14.834c0-10.15-2.52-14.902-8.787-14.902c-6.264,0-8.783,4.752-8.783,14.902
		C321.595,228.805,324.188,233.557,330.308,233.557z"/>
	<path fill="#231F20" d="M346.649,232.332l3.24-0.145c2.018-0.072,2.449-0.646,2.449-2.662v-40.975c0-2.373-0.861-2.877-3.961-2.877
		c-0.574,0-1.295,0.07-2.086,0.07v-2.807l12.6-0.867v35.645l11.09-10.15c0.504-0.504,0.863-1.225,0.863-1.588
		c0-0.934-1.15-1.223-3.67-1.223h-2.307v-2.734h18.434v2.734c-0.143,0-0.289,0-0.43,0c-4.682,0-7.488,2.23-11.162,5.617
		l-3.674,3.383l11.305,15.051c1.803,2.449,3.818,3.383,7.129,3.527v3.023h-18.578v-3.023l2.16-0.145
		c1.658-0.072,2.52-0.213,2.52-1.08c0-0.574-0.287-0.936-0.645-1.439l-8.643-11.664l-4.393,3.887v7.635
		c0,2.086,0.432,2.59,2.447,2.662l3.17,0.145v3.023h-17.859V232.332z"/>
	<path fill="#AC162C" d="M63.661,255.367v3.385h-3.742c-2.881,0-3.816,0.721-3.816,3.457v29.092c0,9.145,4.535,13.318,14.4,13.318
		c6.48,0,10.801-2.303,12.818-6.693c0.936-2.02,1.078-5.33,1.078-10.012v-22.682c0-4.393-0.936-6.48-5.184-6.48h-3.168v-3.385
		h19.801v3.385h-2.664c-4.105,0-5.256,1.875-5.256,6.48v22.969c0,14.115-5.186,20.379-19.947,20.379
		c-13.031,0-19.656-5.83-19.656-17.354v-29.018c0-2.736-0.793-3.457-3.816-3.457h-4.178v-3.385H63.661z"/>
	<path fill="#AC162C" d="M92.39,304.332l3.096-0.145c2.016-0.072,2.375-0.576,2.375-2.662v-21.891c0-2.377-0.863-2.881-3.959-2.881
		c-0.65,0-1.369,0.074-2.162,0.074v-2.809l12.314-0.865v6.914c3.24-4.756,6.842-6.914,11.811-6.914
		c6.838,0,10.871,4.104,10.871,11.52v16.852c0,2.086,0.432,2.59,2.375,2.662l3.098,0.145v3.023h-17.426v-3.023l3.098-0.145
		c1.871-0.072,2.375-0.576,2.375-2.662v-17.139c0-4.318-2.375-6.768-6.625-6.768c-6.047,0-9.215,4.031-9.215,12.023v11.883
		c0,2.016,0.285,2.59,2.375,2.662l3.023,0.145v3.023H92.39V304.332z"/>
	<path fill="#AC162C" d="M133.501,304.332l3.457-0.145c2.016-0.072,2.447-0.646,2.447-2.662v-21.891
		c0-2.377-0.865-2.881-3.959-2.881c-0.578,0-1.297,0.074-2.09,0.074v-2.809l12.602-0.865v28.371c0,2.086,0.432,2.59,2.449,2.662
		l3.168,0.145v3.023h-18.074V304.332z M146.821,259.543c0,2.379-1.943,4.248-4.32,4.248c-2.375,0-4.248-2.016-4.248-4.248
		c0-2.303,1.943-4.248,4.248-4.248S146.821,257.17,146.821,259.543z"/>
	<path fill="#AC162C" d="M167.917,308.51l-12.457-28.588c-0.936-2.232-1.943-2.879-4.682-2.879c-0.215,0-0.359,0-0.504,0v-3.023
		h16.131v3.023c-3.025,0.072-4.32,0.289-4.32,1.654c0,0.434,0.287,1.154,0.791,2.307l7.777,17.93l6.408-16.563
		c0.432-1.154,0.721-2.09,0.721-2.879c0-1.516-1.367-2.449-3.961-2.449c-0.215,0-0.504,0-0.793,0v-3.023h13.971v3.023
		c-3.24,0.072-4.754,1.654-6.121,5.041l-10.729,26.426H167.917z"/>
	<path fill="#AC162C" d="M193.548,292.666c0,7.635,3.887,12.025,9.576,12.025c4.969,0,8.783-2.592,11.449-7.777l2.52,1.441
		c-3.17,6.768-8.279,10.154-15.193,10.154c-9.074,0-15.625-6.984-15.625-17.787c0-10.727,6.48-17.855,15.625-17.855
		c9.287,0,15.193,6.406,15.193,17.063c0,0.434,0,0.867,0,1.297h-23.475C193.618,291.73,193.548,292.162,193.548,292.666z
		 M207.085,288.131c1.869,0,2.52-0.434,2.52-2.303c0-6.555-2.736-10.084-7.633-10.084c-5.473,0-8.137,4.107-8.281,12.387H207.085z"
		/>
	<path fill="#AC162C" d="M233.29,304.188l4.393,0.145v3.023h-18.938v-3.023l3.387-0.145c2.016-0.072,2.373-0.646,2.373-2.662
		v-21.891c0-2.52-0.934-2.807-4.318-2.807c-0.65,0-1.369,0-2.162,0v-2.809l12.531-0.865v10.154
		c2.23-6.844,5.902-10.371,10.514-10.371c3.889,0,6.551,2.666,6.551,6.123c0,2.66-1.799,4.463-4.178,4.463
		c-2.664,0-4.248-1.656-4.248-4.105c0-1.295,0.504-2.449,1.441-3.094c-0.143,0-0.287,0-0.434,0c-4.535,0-9.287,6.838-9.287,17.496
		v7.705C230.915,303.541,231.274,304.115,233.29,304.188z"/>
	<path fill="#AC162C" d="M252.298,294.178c1.803,7.418,6.051,11.309,11.811,11.309c4.605,0,7.559-2.379,7.559-5.977
		c0-3.818-2.877-4.611-7.559-5.545c-8.713-1.803-13.969-3.314-13.969-11.307c0-5.977,4.031-9.721,10.008-9.721
		c3.457,0,6.119,0.65,9.072,2.807l2.09-2.52h2.232v11.953h-2.232c-2.016-6.264-5.619-9.434-10.729-9.434
		c-4.033,0-6.553,2.232-6.553,4.969c0,4.248,3.096,4.756,9,5.906c8.498,1.658,12.887,3.6,12.887,10.799
		c0,6.914-4.535,11.234-12.023,11.234c-3.383,0-6.41-1.08-9.434-3.529l-2.375,3.314h-2.377v-14.26H252.298z"/>
	<path fill="#AC162C" d="M278.288,304.332l3.457-0.145c2.016-0.072,2.449-0.646,2.449-2.662v-21.891
		c0-2.377-0.867-2.881-3.961-2.881c-0.576,0-1.295,0.074-2.088,0.074v-2.809l12.6-0.865v28.371c0,2.086,0.434,2.59,2.449,2.662
		l3.17,0.145v3.023h-18.076V304.332z M291.61,259.543c0,2.379-1.943,4.248-4.322,4.248c-2.373,0-4.248-2.016-4.248-4.248
		c0-2.303,1.945-4.248,4.248-4.248C289.595,255.295,291.61,257.17,291.61,259.543z"/>
	<path fill="#AC162C" d="M295.642,277.186v-2.881c5.902-0.43,9.289-5.545,9.646-14.902h3.023v14.617h10.371v3.166h-10.729v20.813
		c0,4.102,0.791,6.117,4.248,6.117c3.961,0,5.76-3.166,5.977-9.791h2.662c0,0.287,0,0.648,0,0.938
		c0,8.713-3.957,13.318-11.23,13.318c-6.48,0-8.211-3.166-8.211-9.938v-21.457H295.642z"/>
	<path fill="#AC162C" d="M326.528,280.139c-0.504-1.078-1.082-1.945-1.658-2.303c-0.861-0.578-2.158-0.793-3.889-0.793v-3.023
		h16.779v3.023c-0.721,0-1.295,0-1.799,0c-2.092,0-2.883,0.215-2.883,1.512c0,0.43,0.287,1.15,0.721,2.23l7.635,17.57l7.199-17.279
		c0.143-0.434,0.359-0.867,0.359-1.584c0-2.02-1.441-2.377-5.039-2.449v-3.023h13.895v3.023c-2.662,0-4.246,1.223-5.398,3.887
		l-12.17,28.301c-3.744,8.713-7.705,13.105-13.969,13.105c-4.248,0-6.627-2.16-6.627-5.547c0-2.375,1.801-4.248,4.324-4.248
		c2.303,0,3.744,1.369,3.744,3.527c0,1.225-0.576,1.803-0.576,2.088c0,0.508,0.43,0.795,1.293,0.795
		c2.307,0,5.904-3.818,9.004-11.307l0.504-1.15L326.528,280.139z"/>
</g>
<path fill="#FFFFFF" d="M260.821,29.025c-33.873-20.68-87.25-19.439-121.512,0v54.217c-0.41,29.203,18.393,56.398,43.828,68.963
	c5.602,2.756,10.785,4.67,16.934,6.111c6.145-1.441,11.326-3.355,16.926-6.111c25.426-12.557,44.238-39.76,43.818-68.963
	L260.821,29.025z"/>
<g>
	<g>
		<path fill="#AC162C" d="M241.157,133.641L215.581,14.727c-1.072-0.109-2.154-0.172-3.229-0.256l21.486,126.42
			C236.429,138.637,238.872,136.211,241.157,133.641z"/>
		<path fill="#AC162C" d="M260.698,87.576l-29.525-70.264c-1.131-0.262-2.273-0.48-3.416-0.705l31.295,82.959
			C259.95,95.648,260.493,91.637,260.698,87.576z"/>
		<path fill="#AC162C" d="M216.997,152.199c1.93-0.955,3.809-2.021,5.66-3.137l-14.66-134.922c-1.156-0.055-2.313-0.047-3.477-0.076
			l8.893,139.793C214.599,153.332,215.782,152.797,216.997,152.199z"/>
		<path fill="#AC162C" d="M254.356,113.371l-31.113-97.615c-1.088-0.178-2.184-0.314-3.273-0.465l29.488,107.248
			C251.29,119.594,252.931,116.533,254.356,113.371z"/>
		<path fill="#AC162C" d="M260.825,29.018c-7.475-4.559-15.924-7.992-24.875-10.459l24.865,52.086L260.825,29.018z"/>
	</g>
	<g>
		<path fill="#AC162C" d="M139.31,29.018v54.221c-0.416,29.203,18.391,56.402,43.824,68.961c5.6,2.76,10.789,4.67,16.932,6.111
			V13.977C178.255,14.154,156.401,19.316,139.31,29.018z M176.862,78.57l3.396,10.426l-8.869-6.445l-8.85,6.445l3.389-10.426
			l-8.818-6.422h10.902l3.377-10.363l3.398,10.363h10.887L176.862,78.57z"/>
	</g>
</g>
</svg>
