<?xml version="1.0" encoding="utf-8"?>
<!-- Generator: Adobe Illustrator 16.0.0, SVG Export Plug-In . SVG Version: 6.00 Build 0)  -->
<!DOCTYPE svg PUBLIC "-//W3C//DTD SVG 1.1//EN" "http://www.w3.org/Graphics/SVG/1.1/DTD/svg11.dtd">
<svg version="1.1"
	 id="BD__x3C__x3E__District_locator_map" xmlns:rdf="http://www.w3.org/1999/02/22-rdf-syntax-ns#" xmlns:cc="http://creativecommons.org/ns#" xmlns:dc="http://purl.org/dc/elements/1.1/" xmlns:svg="http://www.w3.org/2000/svg"
	 xmlns="http://www.w3.org/2000/svg" xmlns:xlink="http://www.w3.org/1999/xlink" x="0px" y="0px" width="1558.924px"
	 height="2152.232px" viewBox="0 0 1558.924 2152.232" enable-background="new 0 0 1558.924 2152.232" xml:space="preserve">
<g id="g5728">
	<polyline id="rect2713_1_" fill="#F7D3AA" points="1554.691,2154.479 19.261,2154.479 19.261,4.873 1568.919,2.221 	"/>
	<polygon id="rect2263" fill="#9EC7F3" points="1049.748,1096.54 775.694,1398.452 287.235,980.977 561.289,679.064 	"/>
	
		<linearGradient id="rect2261_1_" gradientUnits="userSpaceOnUse" x1="-4143.5" y1="4389.8408" x2="-2609.8447" y2="4389.8408" gradientTransform="matrix(1 0 0 -1 4145 6082.8359)">
		<stop  offset="0" style="stop-color:#FFFFFF"/>
		<stop  offset="1" style="stop-color:#000000"/>
	</linearGradient>
	
		<rect id="rect2261" x="2" y="1231.733" fill="#9EC7F3" stroke="url(#rect2261_1_)" stroke-opacity="0.0627" width="1532.655" height="922.522"/>
	
		<rect id="rect2205" x="450.799" y="1145.491" fill="#FBFED1" stroke="#FFFF00" stroke-width="3.0012" stroke-opacity="0.0627" width="177.787" height="185.869"/>
	
		<rect id="rect2203" x="524.903" y="417.318" fill="#FBFED1" stroke="#FFFF00" stroke-width="3.0012" stroke-opacity="0.0627" width="67.143" height="124.285"/>
	
		<rect id="rect2201" x="930.617" y="588.747" fill="#FBFED1" stroke="#FFFF00" stroke-width="3.0012" stroke-opacity="0.0627" width="162.856" height="307.146"/>
	<rect id="rect2197" x="260.873" y="533.29" fill="#9EC7F3" width="462.344" height="635.202"/>
	<path id="path1881" fill="#FFFFD0" stroke="#646464" stroke-width="2" d="M1419.268,2144.104c-1.313-5.254,0.646-7.354-4-12
		c-6.256-6.256,1.066-7,6-7C1423.104,2125.104,1419.415,2143.735,1419.268,2144.104z"/>
	<path id="path1921" fill="#FEFEE9" stroke="#646464" stroke-width="0.5" d="M371.268,1793.104c0-2.467-7.858-2.563-6-10
		C365.646,1781.595,375.52,1782.476,371.268,1793.104z"/>
	<rect id="rect2269" y="1642.571" fill="#F7D3AA" width="88.344" height="159.143"/>
	
		<rect id="rect2271" x="147.914" y="1658.77" fill="#CA936A" stroke="#FFFF00" stroke-width="3.0012" stroke-opacity="0.0627" width="88.571" height="137.143"/>
	
		<rect id="rect2265" x="1" y="3.082" fill="#F7D3AA" stroke="#FFFF00" stroke-width="3.6635" stroke-opacity="0.0627" width="335.906" height="1654.95"/>
	<rect id="rect6157" x="1012.046" y="1168.747" fill="#F7D3AA" width="525.714" height="194.285"/>
	
		<rect id="rect6159" x="1462.381" y="1156.864" fill="#F7D3AA" stroke="#CB9369" stroke-width="3.458" stroke-opacity="0" width="99.543" height="996.688"/>
	<path id="path2259" fill="#F7D3AA" stroke="#CB9369" stroke-width="0.9878" stroke-opacity="0" d="M329.586,1723.296
		c0,9.064,0,43.316,0,64.65c0,14.897-23.655-10.679-23.655-28.285c0-26.357-7.885-44.299-7.885-8.082
		c0,25.021,0.214,36.592,11.828,48.49c3.658,3.75-36.162,3.344-43.368-4.041c-3.961-4.062-3.076-53.021-3.938-56.572
		c-4.416-18.104,3.991-40.209,0-56.568c-7.496-30.731-15.771,8.563-15.771,24.246c0,23.515,3.942,34.438,3.942,56.568
		c0,20.896,4.36,34.655,0,52.53c-5.89,24.146-47.862-6.344-51.253-8.082c-24.438-12.521-35.369-7.965-15.771,12.123
		c10.595,10.859-32.771-1.264-43.368-12.123c-11.601-11.891-2.186-47.612,0-56.571c4.841-19.849,0-47.894,0-68.691
		c0-3.803-31.519-8.037-15.771,24.246c8.989,18.426-2.118,46.615-11.827,56.568c-12.959,13.28,6.995,30.502,11.827,40.407
		c11.363,23.293-6.918,39.418-15.77,48.49c-17.916,18.359-53.601-16.938-59.138-28.285c-6.051-12.404-22.356,16.84-35.483,20.203
		c-17.5,4.482-3.942-32.897-3.942-44.449"/>
	<path id="path2172" fill="none" stroke="#000000" d="M40.346,249.917L40.346,249.917z"/>
	<path id="path2170" fill="none" stroke="#000000" d="M345.36,151.058L345.36,151.058z"/>
	<path id="path2173" fill="none" stroke="#000000" d="M351.714,142.298v-7.508h-3.813L351.714,142.298z"/>
	<path id="path3149" fill="none" stroke="#000000" d="M504.223,367.547L504.223,367.547z"/>
	<path id="path3150" fill="none" stroke="#000000" d="M323.754,644.102L323.754,644.102z"/>
	<path id="path3166" fill="none" stroke="#000000" d="M120.411,784.257L120.411,784.257z"/>
	<path id="path3173" fill="none" stroke="#000000" d="M286.898,909.395L286.898,909.395z"/>
	<path id="path3175" fill="none" stroke="#000000" d="M300.878,900.635L300.878,900.635z"/>
	<g id="g5219" transform="matrix(2.5417852,0,0,2.5027642,-20.817184,-25.22581)">
		<g id="g4167">
			<path id="path3168" fill="#FFFFD0" stroke="#D0C0A0" d="M54.063,326.435l1.5-3.5l-3.5-4.5l0.5-6.5l-3-3.5l0.5-4l10-3l6-3l-0.5-4
				l9.5,0.5l1.5-1.5l-1.5-2.5l-2.5,1.5l-3.5-2l6.5-3.5l7.5,2.5l0.5,4l3,1l3-3.5l2.5,2l-0.5,5.5l4.5,2l11-6l-0.5-1l5.5,2l3,2.5l4-0.5
				l3.5,3.5l4-1.5v5l0.5,2.5l4,2h2.5v3l-1,2.5l-5.5,0.5l-3,2.5h2l3,3l-4.5,3.5l0.5,2.5l0,0l0.5,13.5l-5,3.5l-1,1.5l0,0l2.5,5l4-1
				l0.5,3l1,2.5l1.5,1.5l-6.5,2.5l-2,2l2.5,2l-3,1.5l2,1.5l-2,1.5l5.5,1l1,2l-4,1l-0.5,2h-5l-7-3l-4.5-4l-2-1l-3.5-1v-2l4-1
				l0.5-10.5l-3.5-7.5l-4-0.5l-2,3l-7.5-0.5l-4.5-2.5l-3.5,3l-4.5-2.5l-4.5-4.5l-2,0.5l-0.5-2.5l-4.5-1l-5-2.5L54.063,326.435z"/>
			<g id="g4150">
				<g id="g3158">
					<g id="g3153">
						<path id="path4167" fill="#FFFFD0" stroke="#D0C0A0" d="M108.563,62.935l2.5-2.5l2.5,0.5l2.5,2l-2,5.5l3,1l2.5,3l3-0.5
							l-0.5-3.5l-2.5-1.5l3-3.5l5.5,0.5l2.5,3.5l2,2.5l1.5,2.5l1-1.5h4.5l1,1l3-1.5v3.5l0.5,6l3.5,2.5l3.5,2l1,2.5l-0.5,3l-1,7.5
							l1.5,5l1,5.5l4,3.5l4.5,3l3.5,3l-1.5,4l-1.5,3.5l-1.5,2l-3-3.5l-5,4.5l0.5,5.5l-4-4l-2.5,5l-8-2l-5.5,1.5l2,5l-2.5,3l-1.5,2.5
							l-4.5-0.5l-4-3.5h-2.5v-5.5l-4-1v-12l-2-2.5l-2-3.5l-5.5-1.5l0.5-2.5l-1.5-1v-4l-0.5-1.5l2-2.5l-1.5,2.5l3-4.5l3-1.5v-8.5
							l1.5-3v-2l-0.5-7l1.5-3l-5.5-6V62.935z"/>
						<path id="path2169" fill="#FFFFD0" stroke="#D0C0A0" stroke-linecap="round" stroke-linejoin="round" d="M54.063,41.435
							l-1-3.5l-1-2.5l2.5-3.5l2-4.5l2-6l4-6l1,6.5l0.5,3.5l4,4l4-1l1,3.5l4,1l0.5,3l4,1.5l0.5,2l4,1l2.5-3l1.5,4l2,2.5l3,2l1,2
							l2.5-1l1.5,1.5l-1.5,3.5l1.5,1.5l2,1.5v1l4-0.5v2l1,2v2.5l2.5,2l-0.5,4.5l2,3.5l2.5,3.5l-1,3.5v5v4.5l-1.5,4l1,5l-2.5,3.5
							l-3.5,5l-4-1l-5.5-0.5l-2-4l-2.5-2l3-5.5l-2-4l-2.5-3l-4-1.5l-2-2l-1.5-3l-2.5,1c0,0-0.625-0.5-2-1c-1.375-0.5-3.5-1-3.5-1
							l-2.5-1l-2.5,2l-4-1l-3.5-1.5l-3,2l-0.5,2.5c0,0-1.625-0.25-3.5-1c-1.875-0.75-4-2-4-2l-1-1.5l3.5-2l2-2.5l-1.5-3v-7l5.5-0.5
							l2-2l2-3l4.5-1.5l1-3.5l2.5,4l2.5-1.5l2-3.5l-2-2.5l-2-3v-3.5l-3.5-3l-4.5,1l-2.5-4l-2.5,2l-3-0.5L54.063,41.435z"/>
						<path id="path2192" fill="#FFFFD0" stroke="#D0C0A0" d="M27.563,136.935l-2.5-4.5l-3-4l2-4.5l-5-1l1.5-8l3.5-2.5l-0.5-3l2-4
							l6-4l2-5.5l-4.5-2.5l2.5-4.5l1-4.5l5.5-2v-5l7.5,1l5.5-1.5l7.5,5l1.5-4l5.104-1.072l4.396,1.572l4-0.5l10,2.5l4,4.5l3.5,1.5
							l5,6l-3.5,5l1,3.5l-2.5,2.5l-1,4h-3.5l-2.5-4l-1.5,3h-3l-1.5,5.5l2,2l-2.5,0.5l-3,5l-1,3l-1.5,3l2,2.5l-3,0.5h-2v-2.5
							l-6.5,0.5v4h-2.5l-0.5,5l3,1.5l-2,2v4.5l2.5,1.5l3,2.5l-0.5,3.5l-3.5,0.5l-3-3l-2.5-1.5v-2l-3.5-3.5h-3l-1-3.5l-5.5-3l0.5-2.5
							l-0.5-1.5l-4.5,1.5l-3,2.5l-2.5-3L27.563,136.935z"/>
						<path id="path2175" fill="#FFFFD0" stroke="#D0C0A0" d="M142.563,64.436l-1.5-4l-4,3l-2-3l3-2.5l-1.5-2.5l-2.5-0.5l-1.5,1.5
							l-5-2.5l-1-4.5l5-7.5l4.5-1.5v3l1.5,1l4.5,1.5l3,3l6.5-0.5l1.5,3.5l-3,0.5l2.5,3l-2.5,3h6l2,3.5l-0.5,1.5h-3l-3-3v4.5l2.5,3
							l4,4.5l0.5,3l-1.5,1.5l4.5,9l8,1.5l4,4l0.5,3l-2,1l0.5,1l3.5,0.5l4,2l3.5,4l6.5,1.5l3-5.5l2,0.5l0.5,2.5l2.5,1l2,2l2-1.5
							l-1,9.5l4,0.5l5.5,6l1-0.5v3h4.5l0.5,1.5l-4.5,6l-2.5,0.5l0.5,6l-5.5,4l-1.5-0.5l-0.5-4.5l-1.5,0.5l-1,2.5l-4-0.5l-3-1l-0.5,1
							l-10-6c0,0,2.5-3,0-3.5c-2.5-0.5-5-2-5-2v-3.5l-3,0.5l-4.5-3.5l-5-2l-3-3.5l-6.412-2.12l-3.088-4.88l-2.5-11.5l1.5-7.5v-3
							l-8-5l0.5-10l4-1.5l-2.5-3.5L142.563,64.436z"/>
						<path id="path2174" fill="#FFFFD0" stroke="#D0C0A0" d="M93.563,99.935l-2.5,2.5l-1,4l-3.5,1l-3-4.5l-1,3.5h-3.5l-1.5,5.5
							l2.5,1.5v1.5l-3-0.5l-4.5,10l1.5,2.5l-1,1.5l-4,0.5l-0.5-3l-1.5,1l-5.5-1l1,5l-2.5-1l-0.5,4.5l2.5,1.5l-1.5,3.5l0.5,3.5l5,4v4
							l2,1.5l-0.5,4.5l-2,1v4l3,2h4.5v4l3.5,2.5l1.5,3.5l6,0.5l3.5-1l1,2.5l4.5,0.5v2l7,1l2-2l2.5-1.5c0,0,6,2.5,4.5,0.5
							s-1.5-5.5-1.5-5.5l3,3l3-3v5l2.5,1l2,4.5l-2,5l-2.5,1.5l3,1.5l0.5,4l6.5,6.5l1.5-2.5l1.5,2v2l12.5,1l1.5,2l-0.5,3.5l5.5,3l5-1
							l2.5,4l7-1l15,3.5l4-2v-3.5l-4-4.5l-0.5-4.5l-5.5-4.5l1-2l-1.5-1h-2.5l-0.5-3h-4.5l-3-3.5l1.5-1l-5-3l-3.5-14l-2-5l-7.5-1.5
							l-3.5-8l-7-4.5l-1-7l-5.5-1.5l-2-2l-3-0.5l1.5-5.5h-5l-0.5-12l-4-7l-4.5-1l-1.5-4v-4.5l-8.5-1.5L93.563,99.935z"/>
						<path id="path2176" fill="#FFFFD0" stroke="#D0C0A0" d="M175.063,205.935v-4l-6.5-4.5l1.5-2.5l-4-1v-2l-5-0.5l-4-3.5l2.5-0.5
							l-6.5-3.5l-4-18.5l-8-2l-3.5-8l-6-3.5l-2-8l5-5l-1.5-5l5.5-1.5l8.5,1.5l1.5-4l5,4l-0.5-6l5-5l2,4l6-9l7.5,5h3.5v3.5l5.5,2
							l2,4.5l8,5l1-2l6,3l1.5,1.5l-0.5,1.5l4.5,1l1.5,2l-4.5,2l4,1.5l1.5,2v3.5l-1.5,1v2.5l3,1.5l0.5,1.5l-2,1.5l-4,3l1.5,2.5
							l-2.5,1.5l-1.5-2.5l-3-1l-0.5,1.5l-4-0.5l-2,2.5l5,4.5l-0.5,3.5l3,2l-3.5,4.5l-3.5,0.5l-3.5,4l-5,9.5v1l1.5,2.5l-2.5,1l5.5,4
							H175.063z"/>
						<path id="path3151" fill="#FFFFD0" stroke="#D0C0A0" d="M207.063,153.436v-3.5l-4.5-4l4.5-0.5l-3-3h-3.5l-1.5-4.5l3.5-3v3.5
							l2.5,2l4.5-4l0.5-6.5l6.5-5.5l-0.5-2l-4.5-0.5v-3.5l-2,1.5l-5-7h-4l1.5-9h7l1,2l-0.5,2.5l3,3l1-2l2.5-1v-2.5l-2.5-0.5
							l-0.5-4.5l5.5-4h4.5v-2.5l-1.5-1l-0.5-4l-1.5,0.5l-1,2l-1,1.5l-2-1l2-3.5l-1-2l-1-2v-2.5h2l3-3.5l1-2.5l-0.5-3l1.5-1.5h4.5
							l3,2.5l-2,2l-0.5,2.5l-0.5,1l1.5,3l2-1.5h5.5l1.5,4.5l5,8.5l-2,1v3l3,1l2.5,7.5h5l-5,4.5l5,1.5l3.5,1.5v1.5l-2.5,2.5l-4.5,4
							l0.5,5.5l-2.5,3.5l2,3.5l2,3.5l-3,3v3l2.5,0.5l-1,4l4.5,3.5v13l-2.5,5l-0.5,8l-1,4.5l-1.5,1.5l-0.5,5.5l-2.5-1.5l-3.5-2v3
							l2,1.5l-4.5,3.5l-2-0.5v-2l-1,1l-4-0.5v-2.5l2-1l-2-0.5v-2.5l1.5-4l-6-1.5l3.5-1.5l-2-3v-2l-4.5-4h-3.5l-1,2.5l-1.5-4l-6-3
							l-2-5.5l-2.5-2.5V153.436z"/>
						<path id="path2177" fill="#FFFFD0" stroke="#D0C0A0" d="M166.063,213.936l8.5,3l4-2l1-3.5l-4-5.5l11.5,0.5l-4.5-4.5l3.5-0.5
							l-2.5-4l7-11l2.5-3l2.5,1l4-5.5l-3.5-2l0.5-4.5l-4.5-3.5l1.5-2.5l4-1.5l4,1l0.5,4l4-2l-2.5-3.5l6-3.5l4,5.5l3.5,2.5l2,4.5
							l1.5-3h3l4,3.5v2l2.5,2.5l-5,2.5l7.5,1.5l-1.5,1.5v4.5l1,1l-1.5,0.5v2.5l4,0.5l2-2v2.5l1.5,1v8l2.5,5.5l0.5,3.5l-3.5,5
							l-2.5-0.5l-3.5,3l-0.5,4.5l-3.5,5l-3,3.5v2.5l1.5,2.5l2,0.5l-2.5,1.5l-1,3l-1-2l-5.5-0.5l-4.5,1.5l-1,2.5h-2.5l-1-2l-7.5-1.5
							l-2-2.5l-1.5-0.5l-1.5,2l-2.5-1.5l-1.5-0.5l-1,2l-4-0.5l-1.5-5h-2l-1.5-1.5l-5.5-0.5l-2,2.5l-3-2.5v-1.5l-4-5.5h-1.5l-2-2.5
							l-1-2.5L166.063,213.936z"/>
						<path id="path3152" fill="#FFFFD0" stroke="#D0C0A0" d="M140.563,264.436l-0.5-9l1-1l0.5-11l-3-3h-2.5l-1,2h-2l-2-4v-2.5
							l1.5-0.5l0.5-7.5l-3-0.5l1.5-1l-2-4l2.5-2.5l-0.5-3.5l1-7l6-2l2,0.5l4.5,3.5l5.5-1l2.5,3.5l7-1l5.5,2l-2,4l2.5,4l2.5,2l3.5,5
							l-0.5,1.5l4.5,3v2l-3,2.5l-2,1l2,3l-3,1l1,2l-3-1.5l-2.5,7h-2v4l1.5,1.5l-0.5,2l-2.5-0.5v-1.5h-5.5l-0.5-3.5l-3.5-1.5l-0.5,7
							h-1.5l0.5,2l3,2v1.5l-4.5,3l-1.5,1l-2.5-2l-2.5,3v-2h-2.5v2l-1-1.5h-3.5v-3L140.563,264.436z"/>
						<path id="path2179" fill="#FFFFD0" stroke="#D0C0A0" d="M135.563,268.435v-3.5l5-0.5l-1-9l2-0.5l-0.5-10.5l-3-5h-1l-2,2.5
							l-2.5,0.5l-2.5-4.5v-2h2l1.5-8h-5.5l3-1l-3-4l2-2.5l-4-0.5h-2l-6.5-4l-1.5,3.5l-3.5,2.5h-1l-2.5-3l-2.5,1.5l-6-3.5l-3.5-1
							l-1,2l-9.5-0.5l-2.5,5h-2.5v-3l-1.5-1.5l-1.5,2l-2-2.5h-3l-2.5-2l-1,2l-3.5,1.5l0,0l-0.5,4l4,2v1.5l-3.5,1.5v7l1,1.5l-2.5-0.5
							l-0.5,4.5l2.5,2l-2,2.5l-2.5,1.5v3l-2.5,0.5v2h3.5l3,3l0.5,5.5h1.5v-2l0.5-2h2l3.5,3.5v2l-3.5,6l-2.5,1l-4,0.5l-0.5,1.5
							l-4.5-1l-1.5,3l3.5,2l2-1h6l-2,3l2.5,1l5,0.5l1.5,3l-2.5,0.5l-2.5-1h-2l-0.5,1.5l3.5,1l3,1.5l0.5,1.5l2.5,1.5l5.5,1.5v3.5
							l2.5,1l3-4l2.5,3.5l-0.5,5.5l2,2l0.5-1h2.5l3-1.5l7-5h2l0.5,2l3.5-0.5l0,0l2.5,3l1-1h3.5l3,3.5l0.5-1l3-0.5l1.5,2v5l2.5,2
							l2.5,0.5l5.5,0.5v3l1,1h2l0.5-1.5v2h3l1,3l2-2.5l1.5,0.5l3.5-3v-5l-1.5-1v-3.5l4-6l1.5-2.5l-0.5-4.5l1-4l-2.5,2l-5.5,0.5
							l0.5-4.5l-3.5-6h-1l-4,4l-1.5-0.5l-4.5,4l-0.5-11l-2-1L135.563,268.435z"/>
						<path id="path2180" fill="#FFFFD0" stroke="#D0C0A0" d="M75.563,285.936l-3-2.5l-3.5-1l0.5-2l7,1.5l-1.5-3h-4.5l-4.5-2l2.5-3
							l-4.5-1l-2,2l-4-2l1-3.5l4,1.5l1-2l5.5,0.5l1.5-2l4-6.5l-5-5l-1.5,4.5l-3,0.5l1-5l-3-3.5l-3-0.5l-1.5,3.5l-6-0.5l-1,4h-1.5
							l-0.5,2h3.5v2.5l-2,3l-1-3l0,0l-2.5,2.5l-1-2.5l-3-2l-1.5,3l1.5-5l-5-3.5l0.5-3l-3.5-0.5l-0.5,1.5h-4l-4,2.5l-0.5,2.5l2.5,2.5
							l1,7l-9,6l1,4l-3-0.5l-1.5,1.5l-0.5,4l-0.5,3.5l-0.5,2.5l-2.5-0.5l-2.5,1.5l1.5,1.5l2.5,2l-0.5,2l5.5,3.5l-0.5,3l3,3l-1.5,4.5
							l2,4l2.5,3h3.5l3,3l2,2.5l3.5-0.5l12.5,4h5v-2.5h-0.5l-2.5-4v-7l-2.5-3v-4.5l6-3l4-0.5l0,0l5.5-3.5l-0.5-4h10.5l1-1l-2-1.5
							l-2,1l-3.5-2L75.563,285.936z"/>
					</g>
					<path id="path2184" fill="#FFFFD0" stroke="#D0C0A0" d="M135.063,283.436l-0.5-10.5l-2-1.5l4-3.5h3l1.5,3.5l0.5-3.5h1.5v3
						l3.5-4.5l2.5,2.5l6-5l-5-5l2.5,1l0.5-7.5l3,1.5l0.5,3l5.5,0.5v2h4l-0.5-3l-2.5-1.5v-3l2.5,0.5l3-8l3.5,2l-1.5-3h3.5l-2.5-3.5
						l5-3l0.5-3.5l-2-0.5l2-2l5.5,1l3.5,2l1,4.5l4.5,1l1-2.5l4.5,2.5l1.5-3l4,4l6,1l2.5,2.5h2l1.5-3.5l8.5-1l1.5,2.5l1.5,0.5l-1.5,4
						h2l1,3.5l-2,3l2,1.5l-1,2.5l2,3l0.5,3.5l-2.5,0.5v4.5l4,4.5h3.5l1.5,2.5l-1,1.5h-7l-1,1.5v3h-1v3.5l-5,7l-3.5-3.5l-2.5,1.5
						l-2-2v2.5l-2,2l-0.5,4l2,1l-1,2.5l0.5,1l3-0.5l3,2.5l-2,2.5l3.5,2l-2,2.5h-3l-0.5,2l-3-1l-2-3l-0.5,2.5h-3l-1.5-2l-4,2
						l-3.5,0.5l-4-2.5l-10,0.5v-2.5l-2.5-3.5h-1.5l-3-3l-4-0.5l-2,1.5l1,4l-0.5,1.5l-5.5-4.5v-2l2-1.5l-1-2.5l-3,2.5l-1.5-1.5
						l-2.5,5.5l-3.5-7l2.5-3l-0.5-7.5l-2.5,2.5l-5-0.5l0.5-2.5l-4.5-7.5l-3.5,4l-1.5-2L135.063,283.436z"/>
				</g>
				<path id="path3179" fill="#FFFFD0" stroke="#D0C0A0" d="M122.063,372.935v-2.5l5-0.5l-1-2.5l-6.5-1l2-2l-2-1l3-1.5l-2-3l8-3
					l-2.5-4v-3l-5,0.5l-2-5l6.5-4.5l-1-16l5-3.5l-3.5-3.5h-3l4.5-3l5,1l2-4l-0.5-2h3.5l-0.5,2.5l3,2.5l4,0.5l3.5,0.5l4.5-3l0.5-5.5
					h-2v-4.5l4-5l3.5,6l2-5l2,1l3-3l1.5,2l-3,3.5l6,4.5l0.5-2l-2-2.5l2.5-2.5l4.5,1l3,2.5l3,2.5l1.5,3.5l1.5,1.5l-8.5,11.5l-5,6
					l3,1.5l1,3l2.5,1.5l0.5,9.5l-4,4v2.5l-2.5-0.5l-4.5,9l-3.5,2h-3l-1.5,3.5l-4.5,3.5l-9,2l-2-2l-1.5-0.5l-2,3.5v3.5l-6-0.5l-5-1.5
					l-2,2.5L122.063,372.935z"/>
			</g>
		</g>
		<path id="path4248" fill="#FFFFD0" stroke="#D0C0A0" d="M177.063,341.436v-7.5l-2.5-2v-2l-3.5-3l13.5-16.5l-1-2h9l3.5,3h3.5
			l4.5-2.5l4,2l1-3.5l2,4l3.5,1v-2.5h2.5l2.5-2l-4-2.5l2-2l-3.5-3l-3,0.5l-1-0.5l2.5-2.5l-2.5-1.5l1.5-5.5v-3.5l2.5,2.5l3-1l3,3
			l6.5-7l-1-3l1-5l6,0.5l2,2.5l1.5,1.5l1-2h1.5l2.5,2.5l1.5,0.5l0.5,3l-3,0.5l-0.5,1.5l3,2.5v7.5l-1,4h-3l2.5,3l0.5,3.5l-2.5,1.5
			l-0.5,3l-2-0.5l-2.5,3l2.5,3.5v4l-3.5,2.5l-1.5,2.5l7,7.5l-3,3l0.5,2l3.5,2.5l2.5,4l-1,14.5l1.5,2l-1.5,1.5v2l1.5,0.5l2,2v1.5
			l1.5,1.5l-0.5,6l-3.5,7l-6.5,2.5h-3.5l-4-5l-6-4.5h-4.5l-6.5-5.5l-5-1l-0.5-2.5l2.5-1l0.5-3.5l-2-1l1.5-1v-2l-2-2.5l-1.5,1l-4.5,1
			l-1.5-1v-3.5l2-1c0,0,0-3-2-3c-2,0-2.5,0-2.5,0l-1.5,2.5h-1l-1-3v-4l-4.5-3l-4-1L177.063,341.436z"/>
	</g>
	<path id="path5240" fill="#FFFFD0" stroke="#D0C0A0" d="M333.922,910.646v-8.76l5.083-8.76l6.354,6.257l25.417-5.006l12.709-10.015
		l2.542-10.012l7.625,2.504l11.438-6.259l7.625-22.523l7.626,3.757l1.271-10.014l10.167-10.012l26.688,6.258l8.896,3.754v12.518
		l3.813,7.509l8.896-5.006l7.626,2.503l-5.084,3.754v10.012l5.084,3.755h11.438l5.084-6.259l5.083,8.761l-7.625,6.258h6.354v7.512
		l-7.626,3.755l2.542,8.76l11.438,1.252l16.521,13.768l11.438-1.25l16.521,13.766l8.896,12.514l-12.709,2.503v7.511l-5.083,1.25
		l1.271,11.266l6.354,7.509l10.167-2.502l5.084,15.019h-5.084l-10.167-11.265l3.813,15.021l15.251,2.502l11.438,7.51l-11.438,3.754
		l-6.354,3.755l-15.251-1.252l-15.25-6.257l-17.793,5.006l-11.438,5.005l-30.503-18.771l-5.084-12.515l-15.25-16.27h-6.354
		l5.083,12.515l-6.354,7.509l-13.979-2.504l-8.896-12.514l-12.709-13.771l-5.082-2.504h-17.791l-7.625-5.007h-13.98l-7.625-1.251
		l-10.167,8.762v-6.259l-10.167-3.755l-5.083-10.012l2.542-16.271L333.922,910.646L333.922,910.646z"/>
	<path id="path4161" fill="none" stroke="#000000" d="M572.85,1029.528L572.85,1029.528z"/>
	<g id="g7076" transform="matrix(2.5417852,0,0,2.5027642,-20.817184,-25.22581)">
		<path id="path3188" fill="#FFFFD0" stroke="#D0C0A0" stroke-width="2" d="M98.563,364.436h5.5l5,4.5l7,4l5.5,0.5l5.5,1l2-3.5
			l4,2.5h6.5l3,5.5l-1,4.5l1.5,4.5l2,0.5l2.5,0.5v3l4.5,2l1.5,4l2-2.5l2.5,1.5l3,3.5l7-0.5l-5-4.5l6-1.5l5.5,4l-4,1.5l0.5,3l4.5,3.5
			l3,2l3-0.5l2,1l-0.5,4.5l-0.5,7l-3.5,4l1,2.5h-3.5l-6-4l-1.5-0.5l-1,3h-4.5l-2.5,3.5l-3-1l-4,3.5l-0.5-4.5h-3l0.5-3l-3.5-1l-0.5,2
			l2.5,3.5l-3.5,1l-0.293,3.384l-3.707,1.616v-6.5l-0.5-4.5l-2-2.5l-2,1.5l-2.5,3.5l-2.5-6l-4-1l2.5-3l-4.5-1l-3.5-2.5l2-2v-2
			l-3,0.5l-2-1.5l3.5-2l-1.5-4l-2-2.5l-3.5,2l-1.5-5l-1.5-2h-1.5v4l-5.5-6l-2-2.5l-0.5-3l3.5-1l-4.5-2.5l3-1.5l-6-4.5
			L98.563,364.436z"/>
		<path id="path4163" fill="#FFFFD0" stroke="#D0C0A0" stroke-width="2" d="M182.563,414.936v-6.5l-2.5-2l3-1.5l7,0.5l4,0.5l2.5,3
			v3.5l1,3.5l7.5,4.5l-2-5.5l4-0.5l1,2.5l2.5,1.5l7-4.5l2.5,1.5l-0.5,2.5l2.5,3v-4l11-0.5l5.5,1l3.5,4.5l0.5,5.5l-4.5-3.5l-3.5-4.5
			h-12l-0.5,2h10l5,3.5l6.5,5l2.5,2l2,1l-2.5,1l-0.5,2.5h-5l-0.5,2.5l-3.5-1v7l4,2.5l-1,2.5h-3.5l-1-2.5l-1,2.5l-5-0.499l-1-6
			l-6,5.5h-2.5l-1-4.5h-2l-1,2l-5-2.5l-1,2l3,1.999l-3,1.501l-2-0.5v-2.5l-4-0.499l-2-5.5l-5-3.5l-0.5-3l-7-0.5l-1,1.5l-6-5.5l-1-3
			l-1.5-3l3.5-3.5V414.936z"/>
		<path id="path5134" fill="#FFFFD0" stroke="#D0C0A0" stroke-width="2" d="M106.063,391.936l6,6.5l0.5-5l3,3v3l1.5,2l3-3l3.5,5.5
			l-4.5,3l3,2.5l3-1l1,2l-3.5,1.5v1l-0.5,3l-2.5-1.5l-2,3l0.5,4.5l-4.5,0.5l0.125,9.5l-4.125,4.375l-3.875,0.625l-2.625,2l-2-0.5
			l-6.5,5.5l-1,1.5l-7.25,0.375l0.75-5.375l-3.5-1l-1-2l2.5-1.5l1-3.5l-2.5-1l0.5-5.5l2.5-2.5l-3.5-5l2.5,1l3-3v-1l-1.5-1.5l0.5-5.5
			l-1-1l3-1.5l2.5,1v3l1.726-2.205l3.024-0.17l5.25-5.625l3.25-0.375l1.125-3l-0.875-4.125L106.063,391.936z"/>
		<path id="path6105" fill="#FFFFD0" stroke="#D0C0A0" stroke-width="2" d="M92.563,445.436l8.5-6.5l2.5,0.5l2-2.5l4.177-0.914
			l3.47-4.147l0.353-9.439l3.97-0.561l-0.97-4.439l3-2.5l2.5,2l1.03-4.531l2.47,2.53l5.768,0.5l-3.268,3.001l4,1.5l1.061,2.323
			l2.939,3.677l1-2.5l2.5-2.5l2,2.5l0.561,11.353l-0.061,6.647l-1.5,5.5l-1.291,1.739l-3.209,0.762v1.5l2,1.5l-0.5,2.5l-5.5-1l-3,1
			l2.341,0.574l1.659,3.427l-0.5,7l-2.5,1l2.912,1.674l1.088,2.326l-5.384,4.207l-4.616,0.177l-0.5,4.616h-3.5l-2.853-2.263
			l-3.147,1.263h-4.5l-1.5-1.5v-6l1.5-4.5l3,1l-0.384-3.323l1.177-2.97l-1.293-1.324l-2.5-0.384l2.177,2.146l-3.677,2.854l-2-1.999
			l0.5-2l-1.738-1.616l-3.787-1.899l-6.475-4.985l1.5-3.5L92.563,445.436z"/>
	</g>
	<path id="path7082" fill="#FFFFD0" stroke="#D0C0A0" stroke-width="2" d="M255.126,1170.936l15.25,3.754l7.625-5.004l5.083,6.256
		l10.167,1.252l1.271-13.767l8.896,1.252l16.521-10.012l-1.271-6.262l-10.167-6.256l5.083-2.502l2.542-17.521l-3.813-6.262
		l-6.354-3.754l7.625-3.754l15.251,6.256l1.271-6.256l-5.082-6.259l-1.271-3.754h7.625l10.167-17.521l-1.271-20.021l8.896-3.754
		l3.813-8.762h6.354v-5.008l-6.354-7.509l1.271-5.006l7.625,3.755v6.257l7.625,2.502l1.271,7.514h5.085l5.083-7.514l8.896,3.759
		l6.354-8.763h11.438l3.813-7.51l15.251,10.669l10.167,1.845l1.271,5.009l17.793,15.019l1.271,7.508l-2.542,3.756h-3.813
		l-2.542,5.006l3.813,3.758l1.271,5.004l-3.813,1.252v7.508l5.083,2.504l-1.271,2.502h-6.354l-6.354,10.015l1.271,13.768
		l-1.271,13.765l-3.813,6.26l-5.084,5.008l-6.354-1.252l-7.625,15.018l-1.271,8.761l5.083,1.25l-5.083,3.754v6.26l-6.355,6.258
		l-5.083-5.006l-2.542,3.754l3.813,10.013l-8.896,3.756l-21.604,3.754l-6.354-15.018h-10.167l-5.084-11.265l7.625-5.006
		l-12.709-5.008l-5.083-3.754l-3.813,3.754l7.625,10.014h-12.709l-10.166,5.006l7.625,7.511l7.625,3.754l-10.168,1.252
		l-16.521-5.006l-3.813,1.252l7.625,5.004l-3.813,8.76l-3.813,6.258l-1.271,6.258h-21.606l-12.708-6.258v8.764l-12.709-1.252
		l-2.542-6.26l-10.167-1.252l-6.354-3.754v-6.258l-7.625-5.006v-6.256l2.542-5.006l10.167-2.502l-1.271-6.261L255.126,1170.936
		L255.126,1170.936z"/>
	<path id="path8053" fill="#FFFFD0" stroke="#D0C0A0" stroke-width="2" d="M422.884,1175.939l-6.354-3.754v-6.258l8.896-15.02
		l6.354,1.25l10.167-12.515v-15.016l-1.271-12.519l3.813-10.012h8.896l2.542-3.754l-6.354-1.252v-8.76h3.813v-5.008l-5.084-5.008
		l1.271-5.005l6.354,2.503l2.541-5.006l-1.271-7.509l1.271-3.754l16.522,1.252l2.541,6.257l12.709,10.011l3.813,12.517l5.083,6.258
		v8.76l5.084,6.258l5.083,2.502v5.007h-6.354l-5.083,3.756l1.271,3.756H518.2l10.167,6.258l2.542,8.76h3.813v13.767l8.896,13.77
		l2.542,7.508l-11.438-7.508l-5.083,5.004l6.354,2.504v16.269h-15.251l-6.354,11.266l-6.354,2.504l-8.896-11.264l-5.083,2.504
		l-7.626,10.01l-5.083,2.505h-2.542l-6.354-7.509l-3.813,1.25l-7.626-8.76h-1.271l-2.542,2.504h-6.354l-6.354-5.008l-1.271-7.51
		l-7.625,1.25L422.884,1175.939L422.884,1175.939z"/>
	<path id="path2204" fill="#FFFFD0" stroke="#D0C0A0" stroke-width="2" d="M307.233,1218.487l10.167-17.521l-10.167-8.76h7.625
		l12.709,6.258h13.979l-16.521-12.52l6.354-5.004l17.792,1.25l-8.896-10.011l3.813-6.258l2.542,5.006l15.25,5.006l-6.354,5.007
		l3.813,10.014l11.438,1.252l5.084,15.016l15.25-2.502l16.521-3.754l-5.083-10.016l1.271-5.006l6.354,5.006l7.625-6.256
		l-2.542-7.511l5.084-2.502l16.521,11.263l6.354-1.25l1.271,6.256l7.626,7.51l6.354,1.252l3.813-5.008l6.354,8.764l11.438,3.754
		l-3.813,6.258l6.354,3.755l-3.813,3.754l1.271,15.018l-3.813,5.01l2.542,11.263l-11.438,1.252v3.754l6.354,2.502l1.271,5.006
		l-3.813,1.252l1.271,8.762l11.438-7.512h3.813l-1.271,12.518l7.626,2.504v2.502h11.438l2.542,3.754l-2.542,8.761l7.625,12.518
		c0,0,6.354,8.76,1.271,8.76c-5.084,0-7.626,0-7.626,0l-8.896-2.502l-3.813-3.754l-6.354-15.021l-3.813-3.754l-8.896,6.258
		l2.541,8.76l-7.625,11.266l-16.521,7.509l-1.271,6.258l5.083,6.256l-1.271,16.271l-1.271,5.006l-13.979-6.259v-6.256l-5.084-1.252
		l-1.271,3.754l-11.438,10.013l-7.625-1.252l-11.438,6.258h-7.625l0,0l-8.896-6.258l-1.271,1.252l-5.083-3.754l-1.271-6.259
		l7.625-1.252l-8.896-11.262l7.625,1.25l1.271-3.756l-5.083-8.76l-10.167-6.258l-1.271,7.508h-19.699l-8.261-6.256l-6.354-3.754l0,0
		l5.083,11.887l-5.083,5.008l-19.063-2.504l-5.084-5.631l-6.354,3.754h-5.083l3.813-7.508l-15.251-6.259l2.542-22.524l7.625-2.502
		l-3.813-6.258v-6.257l-5.083-3.754l10.167-16.271l12.709-5.006l-1.271-10.011l12.709-8.76l5.084,3.754l3.813-7.512l-5.083-2.502
		l-1.271-6.258l-11.438,8.762l-6.354-3.756L307.233,1218.487L307.233,1218.487z"/>
	<path id="path2205" fill="#FFFFD0" stroke="#D0C0A0" stroke-width="2" d="M480.074,1218.487l-6.354-8.761l10.167-1.252
		l10.168-10.012l3.813-3.754l7.625,11.264l8.896-3.754l6.354-8.76h13.979l3.813,10.01h10.168l1.271,2.504l-8.896,10.011l3.813,7.51
		h13.98l6.354,7.512v5.006l-3.813,6.257l3.813,1.252l8.896-6.259l10.167,1.252l-1.271,8.761l-3.813,8.76l-5.084,10.016h-6.354
		l-10.166-2.506l16.521,13.768l5.084,7.509l5.084,12.516l13.979,8.762v6.259l-3.813,1.252l-11.438,2.502l-29.229-11.267
		l-10.167,11.267l-16.521-8.763l-5.084,7.511h-3.813l-13.979-16.271l5.082-7.508l-3.813-7.508l-12.709-1.252l-6.354-6.257
		l2.541-10.014l-5.084-1.252l-11.438,11.266l2.542-10.014l-1.271-7.51l-7.625-2.504l13.979-2.502l-2.542-11.263l5.084-5.006
		L480.074,1218.487L480.074,1218.487z"/>
	<path id="path2206" fill="#FFFFD0" stroke="#D0C0A0" stroke-width="2" d="M333.922,1317.347l8.896,11.263l-6.354,7.51l-7.625-5.006
		l-10.167,1.252l-5.083-5.006l-11.438,6.256l2.542,10.012l7.625,8.764l3.813-6.26l5.083,2.506l-1.271,6.256l5.083,2.504
		l-1.271,7.509l-7.625,7.508l5.083,5.01l-5.083,1.25l-1.271,11.265l-7.625-3.754l2.542,11.262l10.167,13.768l-11.438,21.271
		l12.709,8.76l-2.542,7.51l-2.542,10.014l11.438,8.761l-2.542,11.262l7.625,12.518l1.271,13.767l5.083,3.754l-11.438,3.756
		l1.271,7.508l5.083,3.754l-5.083,21.273l12.708,1.252l2.542,10.012l-10.167-2.504v6.258l7.625,8.762l7.625,1.252v11.263l8.896,7.51
		l1.271,16.271l11.438-2.505l-8.896,12.519h-11.438l-1.271,10.01l3.813,12.516l11.438,20.021l-3.813,2.502l-1.271,30.033
		l8.896,11.262l1.271,16.27l1.271,8.765l15.251,7.508l11.438-5.006l7.625,15.018l-2.542,6.261l7.625,7.508l-5.083,11.264
		l-11.438,12.514l15.25,6.261l15.251-3.756l-2.542-6.259h8.896l1.271-7.51l-6.354-3.754l5.084-7.51v-25.025l-5.084-2.504
		l10.807-8.76l8.262-23.775l7.626-7.508l-3.813-11.266l-10.166-18.771l-10.168-20.021l-3.813-8.76l8.896-8.76H411.45l12.709-17.521
		l6.354-13.768l5.084-31.283l-12.709-20.021v-6.258l7.625-6.259l-12.709-8.762l1.271-23.772l11.438-6.261l-11.438-21.27
		l1.271-28.783l7.625-8.758l6.354,11.262l7.625-10.012l-2.541-6.256l-7.626-1.252l-5.083-5.006l5.083-10.015l2.542,5.006
		l6.354,2.507l2.543-8.765l6.354-3.754l-1.271-6.258l-11.438-18.771l-12.709-6.26l-6.354-11.264l-2.543-3.756l-10.166,7.51
		l-8.896,1.25l-7.625-7.508l-3.813,2.504l-5.084-11.265l7.625-2.502l-11.438-11.266l10.167,2.504l-5.083-15.021l-7.625-5.004
		l-1.271,8.761h-20.337L333.922,1317.347L333.922,1317.347z"/>
	<path id="path2208" fill="#F7D3AA" stroke="#646464" stroke-width="0.5" d="M355.527,1684.001l-11.438,5.006l2.542,10.012
		l7.625,11.263l-6.354,21.272l1.271,7.51l10.167,2.502l11.438,16.269l10.167,1.252l3.813-7.508l-1.271-7.511l-5.084-6.256
		l-8.896-1.252l-8.896-7.508l1.271-21.273L355.527,1684.001L355.527,1684.001z"/>
	<path id="path3186" fill="#FFFFD0" stroke="#D0C0A0" stroke-width="2" d="M447.667,1406.819l-4.448,1.877l-1.901,9.387
		l-6.354-3.129l-2.542-6.884l-6.988,11.263l5.087,5.633l8.261,0.625l3.177,7.512l-7.625,10.013l-6.354-10.638l-8.266,7.509
		l-0.636,26.903l12.073,23.773l-12.073,6.256l-1.271,23.149l12.071,9.388l-6.989,4.379l-0.636,6.887l13.345,21.271l-5.72,30.032
		l-17.792,31.91l20.971-0.625l-8.263,8.761l22.241,46.926l5.083,12.52l8.261,2.502l0.637,8.135l-13.346,2.502l-10.167,16.896
		l5.722,5.006l3.813,11.262h5.719l1.906,10.013l3.813,12.518l15.89,1.252l9.528-14.396l5.084-3.129l5.086-9.385l-2.541-5.633
		l-3.183-7.51l-12.071-7.511l9.529-5.006l17.157-17.52l1.271-13.771l0.638-15.643h5.084l8.896-32.535l0.639-25.652l-5.723-23.772
		l17.157-16.896l3.813-8.135l5.72-1.25l7.626-12.516v-15.646l-11.438-33.162l-6.354-3.129v-15.016l-8.896-18.771l-2.541-21.271
		l5.083-11.894l10.168-10.01l6.354-21.896l5.084-4.381l4.447,3.129l9.53-9.39l4.445-8.76l-1.905-10.01l-3.813-3.756v-8.135
		l13.345-0.627l8.262-6.884l5.084-26.278l-29.229-10.013l-12.709,11.265l-14.615-8.761l-6.354,8.136l-6.354,3.756l-14.612-1.877
		l-5.722-3.756l-10.167-19.396l-9.532,3.754l3.182,10.012l-9.531,11.267l-15.887,7.51l-1.905,5.004l5.083,5.634l-1.271,24.399
		l-14.61-6.883l1.271-6.258l-5.719-2.505l-0.636,4.382l-11.438,10.012l-8.261-1.25l8.896,15.016l12.709,5.634l9.53,16.27
		L447.667,1406.819L447.667,1406.819z"/>
	<path id="path4157" fill="#FFFFD0" stroke="#D0C0A0" stroke-width="0.75" d="M435.593,1736.561l-2.541,22.522l13.979,8.762
		l3.813-13.77L435.593,1736.561L435.593,1736.561z"/>
	<path id="path5128" fill="#FFFFD0" stroke="#D0C0A0" stroke-width="2" d="M495.735,1090.349l8.088,1.771l0.896,6.193l5.395,2.653
		l8.088-4.424l-8.986-5.313l3.599-4.425l13.479,5.313l1.797-5.313l4.493,0.886l2.696,10.616l7.188,0.886l14.382-14.152l2.692,15.041
		l12.581,1.771l2.696-7.078l3.595,6.192l8.088,0.886l3.595-6.191l-10.779-5.311v-20.354l8.981,3.537l1.798-6.189h12.581l0.898-6.193
		h2.692l7.188,1.771l2.696,7.079l26.062,5.311l8.986,10.618h7.188l4.492,10.617l27.858,4.424l16.176,11.504l8.088,14.158
		l0.898,16.813h-7.189l-0.896,13.271l-7.188,6.191l9.886,6.193l-4.492,11.506l-5.396,16.813l-6.29-2.652l-9.886-6.192l-4.493,12.389
		l-4.493-0.887l-0.896-6.188h-5.395l-6.291-9.732l-8.089-0.885l6.29,7.963l-7.188,0.885l-9.89,6.193l-0.896-9.732h-8.088
		l-5.396,4.424l-4.49-7.078l-8.09-0.885l-15.273,15.041l-20.67,0.887l-1.799,5.313l8.09,4.424l-0.897,4.424l-2.693,4.428
		l-11.686,9.73h-8.986l-4.49-5.312H545.16l-4.493-7.965l8.987-9.729l-11.684-2.654l-2.695-9.732v-16.813l-6.291-4.427l5.394-5.313
		l14.377,10.619l-5.392-9.732l-9.887-15.043l0.896-12.389h-2.692l-4.493-7.965l-7.188-6.191l-21.564-0.887l-0.896-3.539l5.395-4.426
		h6.287l0.899-3.539l-9.887-8.848L495.735,1090.349L495.735,1090.349z"/>
	<path id="path6099" fill="#FFFFD0" stroke="#D0C0A0" stroke-width="2" d="M598.182,1312.448l0.898-5.312l-12.581-7.078
		l-6.291-15.928l-17.973-17.697l12.581,0.886l7.188-17.697l1.797-9.729l-8.981-3.539l-10.784,7.964l-1.797-1.771l2.691-7.965v-4.424
		h5.396l16.176-10.617l1.797-7.965l-8.982-5.312l1.798-6.192l17.073,0.887l17.071-14.156l8.088,0.886l6.291,5.313l5.396-4.428
		l6.291,0.887l1.797,9.732l8.088-5.31l9.886-0.889l-5.393-9.729l5.393,0.885l7.188,10.619h4.493l2.692,7.078h3.599l3.595,13.271
		l-4.493,15.043l-11.683,6.191c0,0,3.595,7.965,0,7.965c-3.6,0-11.688,0-11.688,0l-5.392,19.467l10.783,6.193l4.492-7.964
		l6.291-3.538l11.684,7.077l4.493,4.425l9.886-8.849l11.683,6.191l-4.491,3.539l-0.896,8.852l11.684,3.537l-4.49,1.771v11.504
		h-9.889l-3.595,7.965l-10.784,4.424v7.965l-3.595,0.887v4.427l-7.188,5.309l-3.596,14.158l-3.595,5.311l-0.897,3.539l-8.982,1.771
		h-12.587l-1.799,9.729h-2.694l-9.886-6.192l-14.379,0.887l-12.582-7.078l-1.798-6.191l8.089-7.08l-13.479-8.852L598.182,1312.448
		L598.182,1312.448z"/>
	<path id="path7070" fill="#F07568" stroke="#E0584E" stroke-width="2" d="M583.805,1316.872l14.379-5.31l-1.799,15.929
		l14.379,5.313l-8.981,8.849l1.797,8.852l12.581,8.85l16.176-5.313l10.784,12.393l1.797,24.771l-12.581,5.313l-7.188,3.541
		l-1.801,12.388h17.977l3.595,3.538v19.47l7.189,17.696l-5.396,8.849l7.189,23.01l-14.379-7.08l-10.784-5.311l-3.594,3.539
		l19.77,14.157v5.31h-5.392l-8.986,10.616v23.009l-10.784,17.696l-3.595,10.617l-1.797,21.234l10.782,15.93l3.596,19.467
		l-14.378,19.468l5.392,12.393l-1.797,23.006l7.189,19.468v10.618h-7.189v10.617l-25.163,15.928l-8.983-7.077l-21.565-1.771
		l-12.581,3.539l23.364,17.694l-5.396,10.617H547.86l-14.378-3.539l8.983,17.697l-12.582,3.539l-14.379-5.313l5.396-12.39
		l-10.783-15.928v-14.156l-1.798-14.158l3.595-28.313l-3.595-15.928l8.986-24.775l1.798-30.086l-7.189-26.545l21.568-17.697
		l12.58-8.85l3.596-28.314l-14.379-28.313l-5.396-5.312v-12.389l-8.983-17.697l-3.597-23.006l16.179-26.545l7.188-21.236h10.784
		l12.581-14.156v-12.391l-7.188-5.312v-10.616l19.771,1.771l5.394-14.158L583.805,1316.872L583.805,1316.872z"/>
	<path id="path8041" fill="#FFFFD0" stroke="#D0C0A0" stroke-width="2" d="M549.973,555.255l17.793-18.771l-1.271-11.264
		l8.896-10.012l8.896,1.252l7.626-10.015l-1.271-12.515l-6.354-11.263v-21.272l12.709-8.761l-6.354-3.754v-8.762l13.979,10.013
		l-3.813,20.021l7.625,7.512l-1.271,10.011l8.896,6.257h8.896l6.354-8.759l11.438,2.502l7.625-1.251v18.771l-2.542,2.503
		l-7.625-5.007l-3.813,17.521l-7.627,7.509l3.813,8.761l10.167-1.252l-1.271,6.257l-5.082,6.257l-1.271,10.016l11.438,8.759
		l-1.271,7.509l-8.896,5.007l1.271,5.005h-6.354v6.26l6.354,12.516l1.271,7.509l7.627-1.251l6.354,7.508l-2.542,7.511l8.896,3.756
		l29.229,7.508l2.542,8.761l16.521-13.766l24.146,11.262l-1.271,15.02l-11.438,12.516l-8.896-1.251H689.77l-11.438,2.503
		l-19.063,22.523l-6.354-8.762l-2.542-3.756l-8.896-3.754v7.51l-10.169,6.257l-5.081-3.755l-3.813,7.512l3.813,7.509l7.625,5.006
		l-2.544,5.007l-3.813-1.261l-5.083,11.263h-6.354v8.761l-7.625,2.504v13.768l-6.354,2.503l-10.167-1.251v-11.265l-7.625-6.259
		l10.167-1.253l3.813-26.275l-10.168-11.266l7.625-1.252l1.271-8.76l-11.438-7.509l-5.084-1.251l-2.541,5.006l-7.63-8.761h3.813
		l2.541-6.258l-1.271-6.259l-8.896,1.252l-10.167-11.264l-1.271-10.012l6.354-1.252l-1.271-11.265l-5.08-6.259l1.271-6.258
		l-5.084-5.005l5.084-5.006v-11.267h-8.896l7.625-8.762l-6.354-3.755l3.813-8.76L549.973,555.255L549.973,555.255z"/>
	<path id="path2215" fill="#FFFFD0" stroke="#D0C0A0" stroke-width="2" d="M594.455,938.178l10.167-16.271l-1.271-15.018
		l-5.084-11.265l-7.625-2.504v-5.007l3.813-3.755l-3.813-5.006l2.541-15.017l1.271-22.524l-17.793-18.771l8.896-11.267
		l-17.793-16.269l11.438-12.517l2.542-15.02l-8.896-7.508l8.896-6.257l3.813,2.502l6.354-10.015l11.438,3.755l1.271-6.257
		l5.083-8.761l3.813-6.257l2.541-6.258l5.084-3.756l6.354-8.763l6.354,1.253v-5.007l-8.896-7.508l-1.271-6.258l1.271-6.258
		l3.813,5.006l12.709-7.511l1.271-7.51l7.626,3.756l10.167,13.769l15.251-22.524l12.709-5.006l7.625,3.754l1.271,11.266h11.438
		v21.271L719,717.913v6.258l-6.354,8.763l-1.271,7.509l8.896,20.021l26.688,16.27l-6.354,2.503l-3.813,8.761l11.438,20.021
		l1.271,8.761l-3.813,6.257l8.896,22.523l8.896,3.755l6.354,2.502l2.542,3.757l-10.168,5.004v11.266l-7.625,2.504l-6.354,5.007
		l-5.084,13.765l1.271,18.771l-8.896,1.253l-5.084-5.008l-1.271,6.259h-3.813l1.271,8.761l-13.979,13.769l-10.172,6.258h-3.813
		l-11.438-7.511l-7.625,7.511h-3.813l-7.626-5.008v8.762l-6.354,6.258l-2.543-10.012l-5.082-2.504l-11.438,12.516l-7.625,2.503
		l-6.354,6.257l-3.813-7.509l-5.084,8.761h-7.625l-7.625-6.258l-2.542,3.754l-5.084-7.508L594.455,938.178L594.455,938.178z"/>
	<path id="path3189" fill="#FFFFD0" stroke="#D0C0A0" stroke-width="2" d="M593.184,939.429l-20.334,6.257l-12.709,1.252
		l1.271,12.515l11.438,13.77l15.25,13.766l1.271,7.509l5.084,6.26l-1.271,12.516l13.979,18.771l15.251,10.015l15.251,3.756
		l6.354,7.508H630.04l10.168,10.012l6.354-3.755l6.354,12.517l22.876,6.26l7.625-6.26v-13.768l16.521-2.503l11.438-5.006
		l29.229,5.006l-7.625-21.271l12.709-13.768l-25.418-5.005l-8.896-11.264l-6.354-13.77l-8.896-5.005l-6.354-16.269l-12.709-6.26
		l10.168-8.762l-24.146-1.251l-2.542-10.011l-6.354-2.503L641.479,953.2l-3.813-2.503l-8.896,10.014l-3.813-6.26l-5.083,11.266
		l-7.626-2.504l-6.354-5.006l-3.813,5.006l-5.084-7.51L593.184,939.429L593.184,939.429z"/>
	<path id="path4160" fill="#FFFFD0" stroke="#D0C0A0" stroke-width="2" d="M675.792,1078.333l6.354-7.509v-12.515l21.604-2.503
		l7.625-5.006l27.96,6.258l-6.354-22.524l12.709-11.264l-21.604-6.257l-6.354-1.251l-12.709-23.775l-10.166-5.007l-3.813-16.268
		l-13.979-8.764l10.168-7.508l-21.604-2.504l1.271-6.257v-7.509l10.168,7.509l11.438-8.762l15.251,7.51l11.438-5.005l7.625,12.514
		l10.168-5.006l10.167-2.503l3.813,6.257l6.354-18.771l11.438,17.521l-10.167,8.761l8.896,2.502l19.063,2.503l1.271,23.775
		l10.167-2.503l6.354,6.257h8.896l6.354-5.004h6.354l1.271,10.011v8.763l-2.541,7.51l11.438,32.533l5.084,5.008l-5.084,2.503
		l-21.605,10.012l8.896,15.018l-3.813,13.768l-11.438-10.012l-3.813,6.258l-3.813,16.269l-8.896-2.502l5.084-15.019l-11.438-6.256
		l-6.354-7.512l-19.063-3.755l-7.626,11.263l-1.271,6.26l-1.271,17.521l-6.354,7.512l-8.896-5.008l-1.271,10.012l-3.813,6.258
		l-12.709-6.258l-1.271-11.264l-3.813-12.515l-10.167-6.258L675.792,1078.333L675.792,1078.333z"/>
	<path id="path5131" fill="#FFFFD0" stroke="#D0C0A0" stroke-width="2" d="M812.063,1293.866l-17.977,5.313l-10.781,7.078
		l-3.598,8.851l-12.271-9.152l-9.296-12.084l5.394-10.615l7.188-10.617l-10.781-10.619l-8.986-15.928l-12.581-8.852l-5.394-23.008
		l16.177-12.388l12.582-23.008l10.782-15.928l17.975,1.77l16.176,12.39l7.188,12.389h14.38h12.581l5.393,12.391l1.8,12.39
		l5.394,19.467l-7.188,15.93l-10.563,8.025l6.881,10.707l-23.274,6.043L812.063,1293.866L812.063,1293.866z"/>
	<path id="path6102" fill="#FFFFD0" stroke="#D0C0A0" stroke-width="2" d="M708.835,1142.153l16.521,1.25l10.168,8.76l11.438,5.008
		l25.418,7.51l-5.084,8.761l-17.792,28.782l-16.521,11.263l3.813,22.524l15.25,11.263l7.626,17.52l12.709,8.764l-13.979,18.771
		l10.167,8.76l3.813,7.512l-6.354,5.007h-13.98l-15.25-3.755l1.271-16.271l1.271-15.018l-6.354-2.502l-3.813,6.256h-16.521
		l-10.167-6.256v-5.007l6.354-2.508l-11.438-7.508l-10.167,8.76l-12.709-10.01h-7.625l-7.626,10.01l-11.438-7.508l7.625-18.771
		l15.251,1.252l-2.542-7.512l11.438-6.258l3.813-16.268l-6.354-11.267l6.354-12.516l17.792,7.51l6.355-26.277l-5.084-10.014
		l6.354-5.006L708.835,1142.153L708.835,1142.153z"/>
	<path id="path7073" fill="#FFFFD0" stroke="#D0C0A0" stroke-width="2" d="M833.383,1272.298l-10.168,1.469l-6.354,11.752
		l5.083,10.283l13.979-1.473l10.168,11.752l5.083-7.347l-2.542-13.221l-5.083-8.813L833.383,1272.298L833.383,1272.298z"/>
	<path id="path2229" fill="#FFFFD0" stroke="#D0C0A0" stroke-width="2" d="M706.293,941.932l20.335-17.521l-2.542-10.011h5.083
		v-7.508l7.626,7.508l7.625-1.251l-1.271-21.273l3.813-13.766l17.792-7.509l-2.541-11.263l11.438-5.007l-3.813-3.757l7.625-2.503
		l8.896-1.251l3.813-7.509l7.626,8.761l7.625-1.252l5.084,3.757l3.813-21.271l12.709-1.253l3.813,5.007l15.251,6.257v6.258
		l10.167,10.015h11.438l2.542-3.757h10.167l13.979,8.762l7.625,3.755l-7.625,5.006l1.271,11.263l5.084,10.015l-3.813,8.76
		l-1.271,7.51l7.625,7.508l-13.979,2.503l-5.083-5.006l-3.813,3.754l5.084,2.504l2.542,23.775l-6.354,15.018l-6.354,1.255
		l3.813,6.258l-7.625,12.514l-10.168,7.508l-6.354-5.005l-12.709-15.017l-1.271,6.257l-7.625-1.253l-10.167,21.271l-6.354-5.005
		l-5.084,3.755L801.613,992l-7.625-7.511l-10.168,2.503v-25.029h-17.791l-10.168-3.754l8.896-10.013l-6.354-10.011l-3.813-1.252
		l-7.625,13.766l-3.813-7.509l-10.166,5.006l-8.896,5.006L706.293,941.932L706.293,941.932z"/>
	<path id="path3201" fill="#FFFFD0" stroke="#D0C0A0" stroke-width="2" d="M689.771,644.104l-1.271-8.76l-20.335-5.006
		l-17.792-6.258l2.542-7.512l-6.354-7.508l-6.354,1.25l-1.271-7.508l-6.354-8.76l-3.813-10.015l8.896,1.251v-6.258l7.625-5.006
		l1.271-6.257l-8.896-7.508l-2.542-8.763l6.354-7.51l1.271-10.012l-10.168,1.251l-3.813-7.508l10.166-7.512l2.544-17.521
		l5.084,6.257l5.081-5.006V485.17l8.896,7.508l12.709,7.509l6.354,3.755l16.521,6.257l13.979,3.754l19.063,2.504l13.979,6.26h8.896
		l3.813,6.257v11.264l1.271,13.768l-2.542,8.761l15.251,7.509l-5.084,8.761l-12.709-2.503l-8.896,12.516l7.627,6.259l-5.084,7.509
		l3.813,10.012l8.896,5.006l-5.084,2.504l-7.625-2.504l1.271,6.26l6.354,5.006l-6.354,12.516l-16.521-1.252l-10.166-5.007
		l-13.979-6.257L689.771,644.104L689.771,644.104z"/>
	<path id="path4172" fill="#FFFFD0" stroke="#D0C0A0" stroke-width="2" d="M766.025,850.581l-11.438-5.006l-10.167-21.271
		l5.084-5.006V806.78l-12.709-18.771l2.542-8.762l8.896-2.502L729.17,766.73l-7.625-7.508l-10.167-17.521l1.271-7.51l7.626-8.761
		v-6.257l-11.438-16.271l1.271-21.271l-11.438-1.251l-3.813-10.013l12.709-2.505l11.438,2.505l11.438-13.768v-12.516l6.354-3.755
		l8.896,2.504l8.896-11.267l-8.896-6.258v-7.508l7.626,2.503l7.625-1.252l-10.167-5.006l-5.084-11.263l5.084-7.512l-6.354-6.258
		l8.896-12.514l12.709,5.006l5.083-10.013l-10.167-3.755l-5.083-6.258v-6.259v-25.024l-1.271-5.008l6.354-1.25l6.354,5.006h11.438
		l3.813,7.511l26.688,5.005l12.709-5.005l15.251-6.259l16.521,2.502l6.354-3.756l10.167,5.009l8.896-7.511l6.354,3.756l-2.542,6.259
		l-6.354,17.52l-1.271,10.014l-6.354,5.007l10.167,11.263l-1.271,7.509l-8.896,1.251l-5.084,7.509l-2.542,10.015l-5.083,1.252
		l-5.084-13.769l-3.813,5.006l-7.625-2.504l-3.813,2.504l10.168,7.511l2.541,10.012l-2.541,7.509h2.541l6.354,12.515h8.896
		l-1.271,13.77l6.354,5.005l-3.813,5.006h8.896l8.896,7.509l12.709,2.503l5.084-3.754l11.438,3.754l-2.542,7.511l-6.354-1.252
		l2.542,8.762l5.084,2.503l2.542,2.503l-6.354,7.509l-1.271,12.514l10.167,8.763l8.896,5.007l2.542,16.269l7.625-5.005l1.271,5.005
		l10.167,6.258l2.541,5.006l-7.625,12.517l-8.896,8.761l-8.896-3.754l-5.084-8.762l-7.625,15.019l-5.084-10.012l-7.625,13.766
		l-10.167,1.254l-8.896-7.511h-11.438l-3.813,10.013l11.438,8.761l12.709,7.511l-1.271,16.269l-6.354,5.006l-1.271,11.267
		l6.354,13.766l3.813,7.51l-8.896-2.504l-11.438,5.006h-12.709l-10.167-7.51l1.271-7.508l-17.793-6.258l-1.271-5.007l-12.709-1.252
		l-5.083,20.021l-5.084-2.503l-6.354,2.503l-7.625-8.761l-3.813,7.51L766.025,850.581L766.025,850.581z"/>
	<path id="path5143" fill="#FFFFD0" stroke="#D0C0A0" stroke-width="2" d="M900.74,865.598l-13.98-12.516l-3.813-13.768
		l-2.542-7.509l-1.271-10.012l8.896-5.008l1.271-16.271l-25.418-17.521l3.813-5.007v-6.258l10.167,1.25l10.168,8.763l8.896-1.253
		l8.896-12.514l6.354,6.258l5.084-12.516l10.166,8.76l11.438-5.006l8.896-12.515l6.354-10.014l27.96-5.005l-17.793,2.503
		l13.979-2.503h16.521l8.896,2.503l12.709-8.762l12.709,2.503l5.084,8.761l13.979-8.761l7.625-6.258h13.979l-2.541,10.014
		l11.438,12.517v8.76l-3.813,6.257l-1.271,3.754l-17.793,10.015l10.168,2.503l2.541-3.755l8.896,2.505l5.084,10.011l-1.271,6.257
		l-8.896,5.006l12.709,8.762l2.541,7.509l-8.896,1.254l-3.813,5.005l6.354,5.006v5.006v2.502l-8.896,2.504l-15.252,1.252
		l-3.813,6.258l7.625,3.755l2.542,5.007l-6.354,3.755l-15.25,3.754l-15.252,3.755l-3.813,10.012l-16.521-1.252l-12.709,12.518v3.755
		l7.625,8.761l10.169,2.502l2.541,8.76l-2.541,6.26l-6.354,5.007c0,0,7.625,3.755-1.271,6.257
		c-8.896,2.504-11.438,3.755-11.438,3.755l-6.354-6.257l-3.813-8.762l-11.438,1.252l-7.625-8.763H952.84l-1.271-10.012l7.626-6.257
		l-15.251-3.755l-3.813-10.014l-8.896-1.252l-6.354-12.515l-7.625-7.509l-3.813,1.251l-2.541,2.504L900.74,865.598L900.74,865.598z"
		/>
	<path id="path6116" fill="#FFFFD0" stroke="#D0C0A0" stroke-width="2" d="M947.764,747.968l-10.168-3.754l-1.271-8.764
		l-8.896,3.757l-2.546-12.518l-11.438-6.257l-6.354-8.76l-1.271-12.518l8.896-8.761l-11.438-6.257v-7.509l5.084,1.252l5.084-7.511
		l-13.979-5.007l-2.541,5.007h-12.709l-8.896-8.763h-11.44l5.084-6.257l-5.084-5.005v-12.517l-8.896-1.25l-5.084-13.77h-3.813
		l1.271-5.005l-1.271-11.264l-11.438-7.509h13.979l2.541-6.259l5.084,15.02h6.354l2.543-11.264l3.813-6.258h6.354l5.084-10.014
		L868.964,569l7.625-3.756l-2.542-7.509l5.084-8.761l6.354-15.019l10.167,1.252l3.813,3.755l21.605-13.769l7.625,11.266l33.044,1.25
		l3.813-3.754l10.171,5.007l16.521-13.769l1.271,6.259l-3.813,1.25l-1.271,23.773l5.084,5.007l-2.541,2.504l-7.627,1.25
		l-2.541,6.259l10.168,2.505l-5.084,6.257l-1.271,12.514l6.354,11.266v17.521l15.25,3.754l10.168,10.012l24.146,1.253l6.354,10.013
		v11.264l5.084,10.011l5.084-10.011l6.354-1.252l5.084,8.76l-3.813,10.013l-8.896,2.506v12.524l6.354,3.754l7.625,1.251
		l10.168,3.756l5.084,6.26l3.813,5.005l-7.625,8.761l-10.168,7.509l-13.979,1.251l-21.604,13.769l-3.813-6.258l-15.25-3.756
		l-11.438,7.512l-8.896-1.254l-17.791,1.254h-15.25L947.764,747.968L947.764,747.968z"/>
	<path id="path2226" fill="none" stroke="#000000" d="M1078.665,754.225L1078.665,754.225z"/>
	<path id="path2228" fill="#FFFFD0" stroke="#D0C0A0" stroke-width="2" d="M1069.77,737.956v-10.011l17.791-15.018l-7.625-12.514
		l-16.521-5.01l-8.896-5.006l2.541-11.263l7.625-3.754l3.813-8.764l-5.084-8.761l-3.813-2.502l-8.896,12.515l-5.084-8.761
		l1.271-10.012l-7.625-11.263l-21.604-2.503l-8.896-11.266l-17.793-2.504v-16.269l-5.084-11.266V580.27l6.354-6.257l-12.709-3.754
		l2.542-5.006l12.709-1.251l-6.354-7.512l2.541-23.773l2.541-6.258l20.336-3.754h13.979l17.792,3.754l34.313-6.258l31.771,16.271
		l5.083-6.257l15.251,5.005l16.521,10.013H1160l5.084-5.006l8.896,2.502l19.063-10.012v10.012l6.354,1.252l3.813,7.509l19.063-5.006
		l7.625,1.251l-2.541,7.509l10.166,8.764l1.271,11.263l-6.354,7.509v3.754l13.979,13.77l-1.271,5.006l-3.813,1.251v3.754
		l7.625,3.756v10.011l-7.625,15.021v3.754l7.625,10.012l-12.709,2.503l-6.354,7.509l7.625,16.271l-7.625,2.502l7.625,11.264
		l-11.438,22.523l-19.063-2.503l-1.271,6.257l3.813,3.756l-5.082,3.754l-5.084-6.257h-10.168l-16.521-3.755l-5.084,5.006
		l5.084,5.006l-8.896,7.508l-17.793-13.766l-1.271-7.509l-10.167-1.251l-11.438,10.012l-11.438,6.257l1.271,10.014l-2.541,6.259
		l-7.627-5.009l-11.438,10.015l-10.167,2.502L1069.77,737.956L1069.77,737.956z"/>
	<path id="path2230" fill="#FFFFD0" stroke="#D0C0A0" stroke-width="2" d="M1224.816,715.432l13.979-23.775l-8.896-11.264
		l7.625-1.25l-6.354-17.521l8.896-7.511h10.168l-10.168-12.515l8.896-15.019l1.271-12.517l-10.168-6.258l6.354-6.257l-12.709-15.021
		v-5.006l5.083-5.006v-12.511l-10.167-8.762l1.271-6.259l-7.625-6.258l3.813-6.257h3.813l11.438,3.754l7.626-8.76l38.126,1.251
		l22.876-3.754l8.896,7.509l7.627-10.013h20.334l13.979,5.007l11.438,13.767l5.084-1.253l5.084,3.755l5.084-2.502l8.896,5.004v6.259
		l6.354,1.252l15.25,7.511l10.168,2.503l3.813-3.756h5.084v10.013l13.979,3.756l12.709,7.508l-2.541,7.508l5.084,11.267
		l11.438,3.755l-5.084,6.258l11.438,1.25l5.084,7.509l-1.271,18.771h-5.084l-5.083-2.503l-7.626,7.508l-15.25-1.251l-21.604-3.754
		l-12.709,3.754l-10.168,6.258l8.896,10.011l-1.271,8.763l-11.438,21.271h-8.896l-19.063,2.503l-5.084-10.011h-6.354l-1.271,8.76
		l-5.083,16.271l-12.709,10.011l-6.354,2.504l-15.25,3.754l-6.354-5.006l-7.625,5.006l-8.896-1.251l-3.813-6.257l-8.896,5.006
		l-6.354-6.258l-7.625,8.76l-10.167,13.766l-20.335,1.254l-3.813-8.762l-12.709-1.252l5.084-7.508L1224.816,715.432
		L1224.816,715.432z"/>
	<path id="path3203" fill="#FFFFD0" stroke="#D0C0A0" stroke-width="2" d="M1057.059,859.341l7.625-2.503l-5.082-7.512l-5.084-2.503
		l2.541-7.509l15.252,1.252l8.896-3.756v-8.76l-5.084-6.257l8.896-2.504l-1.271-7.511l-8.896-10.012l5.082-6.257l1.271-8.76
		l-2.542-5.007l-6.354-3.756l-7.625,3.756l-8.896-3.756l17.792-6.258l6.354-17.521l12.709-8.762l8.896-8.763l8.896,10.015
		l3.813-7.511l-3.813-8.761l8.896-12.515l16.521-5.007h6.354l8.896,7.511l10.166,15.017l6.354-10.011v-3.755l6.354-5.005
		l5.084,2.502l20.334-2.502l5.084,11.262l6.354-2.502l-5.084-6.257v-6.259l16.521,2.504l15.25,3.755l-7.625,11.262l12.709,1.252
		l2.541,6.259l-8.896,10.013l-8.896-6.258l-7.625-1.253l-3.813,2.503l7.626,12.517l7.625,5.006h-7.625l-8.896,6.257l-2.541,20.021
		l-2.543,36.291l7.627,21.271l-7.627,21.273l-5.082,3.754v3.755l6.354,5.005v5.006l-5.084,2.504v26.277l-16.521,10.012
		l-17.793,2.504l-11.438-8.761h-13.979l-12.707-6.257h-11.438l-2.542,7.508l7.626,10.012l-2.542,8.762l-6.354,8.762l-3.813,12.514
		l-19.063-5.005v-8.76l3.813-2.505l-2.542-10.012l-10.167-21.271l12.709-3.755l-10.167-5.006v-15.021l13.979,3.754v-7.509
		l-11.438-5.005l17.792-12.515v-7.511l-11.438-2.504l-11.438,20.021l-10.167-7.509L1057.059,859.341L1057.059,859.341z"/>
	<path id="path4174" fill="#FFFFD0" stroke="#D0C0A0" stroke-width="2" d="M1208.296,868.102l8.896-23.776l-8.896-20.021
		l6.354-57.563l7.625-5.006l13.979,1.252l-10.168-5.006l-12.709-15.018l6.355-3.755l8.896,1.252l8.896,8.76l7.625-10.012
		l19.063,1.252l20.334-25.027l6.354,6.258l7.625-3.754l3.813,6.257l12.709,1.251l5.084-5.005l5.083,5.005l17.793-3.754
		l17.792-10.012l6.354-26.278h6.354l3.813,10.012l17.793-3.755h12.709l-2.541,8.763l-3.813,8.761l-8.896,16.269l-3.813,22.524
		l-19.063,12.515l-2.541,22.524l6.354,8.76v7.509l-8.896,17.521h-16.521l-25.418-3.754l-10.166,2.502l10.166,8.762l2.543,10.012
		l-6.354,2.502l-2.541-6.257l-1.271-5.005l-7.625-1.252l-8.896,8.76l5.084,5.006v27.527l-6.354,7.508l-2.541,25.027h-8.896
		l-6.354-13.767l-10.168-8.763l5.084-5.006l-10.168,2.502h-11.438l-3.813-7.508l-7.625,1.251h1.271v23.772l5.084,7.513l-6.354,5.005
		l-6.354-2.502l-3.813-6.257l-11.438-7.513L1208.296,868.102L1208.296,868.102z"/>
	<path id="path2231" fill="#FFFFD0" stroke="#D0C0A0" stroke-width="2" d="M861.342,985.73l12.709-11.264l5.084-7.508l-5.084-8.764
		h7.626l5.083-13.767v-13.77l-2.542-12.515l-6.354-3.754l5.083-3.754l6.354,7.508l11.438-2.502h3.813l-7.625-8.76l3.813-16.271
		l-3.813-8.761V869.34l5.083-5.006l7.625,1.25l8.896-7.511l11.438,18.771l8.896,3.754l6.354,10.012l12.709,5.007l1.271,3.755
		l-7.626,3.756l6.354,7.509l-8.896,2.503l13.979-1.252l7.625,8.76l11.438-3.754l2.542,12.515l7.625,3.754l-2.542,3.758
		l-7.625,12.515l3.813,11.263l-6.354,2.503l-7.625,20.021l-5.084,3.754l-2.542,6.258l-1.271,2.503l-16.521-1.251l-8.896,3.754
		h-7.625v-2.503l-8.896-1.251l-3.813,2.502l-1.271,16.271l-7.625,12.515l-11.438-10.012l-1.271-6.257l-2.542,8.76l-10.167-2.503
		l-3.813-3.755l7.625-3.756l-3.813-8.762l-8.896,3.756l-2.541,6.258l-3.813-7.51l8.896-12.515L861.342,985.73L861.342,985.73z"/>
	<path id="path3204" fill="none" stroke="#000000" d="M818.132,1097.104L818.132,1097.104z"/>
	<path id="path3206" fill="#FFFFD0" stroke="#D0C0A0" stroke-width="2" d="M818.132,1077.081l-11.438-17.521l29.229-10.011
		l-15.25-36.29l3.813-8.76v-11.267l8.896-23.772l7.625,2.503l1.271-6.257l15.25,18.771l17.793,7.509l-8.896,8.76l2.542,7.512
		l13.979-8.764l5.084,6.261l-8.896,8.76l12.709,3.756l15.251,5.005l-1.271,5.006l-3.813,11.267l-8.896,7.508l-2.542,11.264
		l-8.896-2.503h-6.354l-2.542,8.76v12.515l-16.521,7.512l-6.354,6.258l-6.354,7.508l-10.167-1.252v-7.508l-8.896,6.258l-7.625-6.258
		L818.132,1077.081L818.132,1077.081z"/>
	<path id="path4177" fill="#FFFFD0" stroke="#D0C0A0" stroke-width="2" d="M927.43,1059.563l-15.252-6.258v-3.754l-12.709-10.012
		l3.813-10.015l11.438-13.766l1.271-17.521l8.896-5.006l3.813,5.006h11.438l3.813-3.755l21.604,2.503v-8.76l7.625-2.503
		l5.084-21.272l10.166-2.503l-6.354-11.263l11.438-16.271l13.98-6.257l-1.271-5.006l7.629-7.509l-2.545-12.515l-7.625-1.251
		l-7.625-13.77l10.168-12.506l17.793,2.504l6.354-10.012l21.604-7.509l21.604,6.257l11.438,7.51l13.979-20.022l10.167,2.507v7.508
		l-16.521,11.264l10.166,6.257v6.261l-12.707-3.758l-1.271,15.021l7.625,5.006l-8.896,2.503l6.354,20.021l6.354,8.76v3.754
		l-5.084,2.504v10.011v3.755l-13.979,6.257l5.083,12.519l-10.167,2.503l-7.625,15.017l7.625,8.764l1.271,6.258l-6.354,5.005
		l-2.541,10.012l5.083,10.014l-7.625,10.013l-5.084-3.754h-8.896l-6.354,5.006l1.271,15.017l6.354,2.503l3.813-5.006l3.813,2.504
		v16.271h-5.083l-8.896-7.51l-2.543,3.754l-10.166-10.012v-10.014h-5.084l-1.271-5.005l-10.167-2.503l6.354-5.006l-13.979-11.266
		l-20.335-1.252l-8.896,7.51h-15.25l-6.354,1.253l2.542,10.012l-11.438,2.503l-13.979-10.012l-7.626,5.006l1.271,3.755l3.813,3.754
		L927.43,1059.563L927.43,1059.563z"/>
	<path id="path2235" fill="#FFFFD0" stroke="#D0C0A0" stroke-width="2" d="M723.994,1125.741l5.393-19.468l10.783,5.312l7.189-8.85
		v-15.929l8.985-19.466l17.975,5.31l17.973,12.388l-5.392,17.697l10.783,1.771l5.393-19.473l21.566,14.158l17.975,3.538l3.595,8.851
		l7.188,5.313v12.39l-1.797,10.618l-8.986,14.156l-3.595,14.158l-12.581-14.158h-23.365l-17.975-5.313h-14.377l-16.181-3.539
		L723.994,1125.741L723.994,1125.741z"/>
	<path id="path3207" fill="#FFFFD0" stroke="#D0C0A0" stroke-width="2" d="M794.09,1155.827l32.354,7.078l-3.598,17.698
		L794.09,1155.827z"/>
	<path id="path2237" fill="#FFFFD0" stroke="#D0C0A0" stroke-width="2" d="M849.357,1102.294l2.69,5.75l4.493,7.521l2.247,13.717
		l17.522-7.521l16.625-4.428l-7.642-14.154l-8.088-13.719l-16.177,0.889L849.357,1102.294L849.357,1102.294z"/>
	<path id="path3208" fill="#FFFFD0" stroke="#646464" stroke-width="0.5" d="M882.158,1074.863l-1.35,11.944l7.64,9.734l2.247,5.752
		l4.94-0.889l6.737-10.177l7.643-12.832l-3.599-9.291l0.449-10.617l-7.271-8.546l-7.563,14.298l-12.132-3.099l-0.449,9.291
		L882.158,1074.863z"/>
	<path id="path4179" fill="#FFFFD0" stroke="#D0C0A0" stroke-width="2" d="M901.029,1104.063l11.229-20.352l4.048-6.195
		l-5.396-8.849l1.797-15.043l14.379,6.19l6.29-9.291l-3.146-5.311l-0.898-3.98l5.842-3.541l14.828,9.734l11.232-3.102l-1.352-9.291
		l6.739-1.771l14.827,0.438l8.088-7.521l19.32,1.327l-3.146-0.885l11.232,6.189l6.738,5.751l-5.395,4.426l9.438,3.101l1.798,4.425
		h4.94l-0.896,9.733l10.334,9.729l2.247,4.429l-0.449,11.504l3.146,7.52l10.337,10.619l-0.448,7.078l6.289,2.213l-3.146,2.654
		l0.448,5.309l13.029,10.178l6.739,21.683l6.736,21.68l1.135,7.453l-1.581,5.377l0.896,4.424l8.984,4.867l-3.596,3.096l-0.447,3.982
		l3.146,6.637l2.695,3.539l-0.896,4.426l1.798,34.066l4.49,5.752l4.941,9.731l-1.348,11.062l-9.887,5.752l-12.582-6.637
		l-10.781,0.442l-16.178-2.215l-8.09-5.311l-8.088-0.443l-9.438,5.314l-3.146-2.214h-8.985l-11.684-5.752l-5.842-10.178
		l-0.448,0.887l-7.188-0.44l-4.941-7.08l8.537-2.211l5.393-7.521l-0.896-15.483l5.842-9.732l-6.738-6.188l-1.35-9.734l-8.09-9.73
		l-3.595-7.967l-13.479-9.729l-1.798-8.853l-9.438-6.188l-3.596-17.257l-17.974-4.866l-13.03,11.063l-4.941-3.1l-4.94,10.176h-5.394
		l-12.133-6.637v-8.406h-0.449l-5.842-6.188l-8.537-8.406l7.189-3.98l-0.449-8.403L901.029,1104.063L901.029,1104.063z"/>
	<path id="path5150" fill="#FFFFD0" stroke="#D0C0A0" stroke-width="2" d="M867.696,1299.827l-12.709-21.271l-5.083-12.516
		l6.354-17.521l8.896-15.017l11.438-12.518l3.813-12.515l-5.083-10.012v-8.764l-8.896-5.006l-8.896-2.502v-8.761l-7.625-3.754
		l6.354-12.518l2.541-12.515l1.271-10.012l12.709-3.754l8.896-3.756l7.625-1.252l13.979,12.516l1.271,8.761l13.979,6.256
		l6.354-8.759l5.084,5.005l12.708-16.269l21.605,6.258l2.542,16.269l11.438,7.512l1.271,11.265l12.709,11.262l11.438,15.016
		l-1.271,8.764l10.167,8.761l-7.625,7.51l1.271,16.271l-3.813,8.762h-8.896l-5.083,2.502l-7.626-5.006l-13.979,1.252l-6.354-10.013
		h-6.354l-7.625,3.755l-3.813,12.514l-2.541,8.76l-17.793,6.26h-6.354l-12.709,7.511h-2.541l-3.813-7.511h-3.813l-3.813,5.006
		l-1.271,12.517v6.256l-7.626,8.762L867.696,1299.827L867.696,1299.827z"/>
	<path id="path6121" fill="#FFFFD0" stroke="#D0C0A0" stroke-width="2" d="M877.863,1302.329l3.813,12.518l16.521,6.259l2.542,10.01
		l5.083,10.012l16.521,13.77l6.354,23.771l11.438,26.279l5.083,20.022l22.878,22.521l7.625,13.768l17.791,6.26l20.336-15.021
		l-3.813-17.521l-13.979-22.522l1.271-7.51l-20.335-30.033l-1.271-20.021l12.709-6.26l3.813-15.018v-21.271l-12.709-8.764
		l-15.251-6.256l-1.271-5.006l10.166-3.754l-5.082-8.761l6.354,1.252l12.709-28.782l-7.625-3.755h-12.71l-5.084-10.012
		l-13.979,2.504l-7.625,25.025l-20.339,6.256l-2.541-2.502l-16.521,8.76l-5.084-7.508h-3.813l-3.813,3.754v23.775L877.863,1302.329
		L877.863,1302.329z"/>
	<path id="path2242" fill="#FFFFD0" stroke="#D0C0A0" stroke-width="2" d="M632.581,1601.409l-2.541-18.771l-7.626-10.012
		l1.271-18.771l10.166-17.519l-2.541-11.268v-17.521l8.896-10.012h5.083l-6.354-6.258l-15.25-23.773l17.791,10.011l11.438,10.012
		l-1.271-11.262l-5.084-13.769l6.354-8.762l-6.354-17.521v-18.771l-5.084-5.006l-17.791-2.504l-1.271-13.765l20.335-7.512v-21.271
		l-1.271-5.005l2.543-3.756l1.271-8.762l19.063,2.506l6.354-8.764h1.271l8.896,11.266l-1.271,12.515h6.354l7.625,11.264h7.626
		l2.542,7.51l19.063,3.756l8.896,2.502l-1.271,6.259l-5.084,1.252v6.256l-8.896,6.258l-2.542,10.01l-13.979,8.765l7.625,7.51v10.01
		l-12.709,2.504v25.027l20.334,3.754l2.543,2.502l-2.543,6.258l-12.709,12.519l-7.625-6.261l-6.354,3.757l-7.626-3.757l1.271,15.021
		l-7.625,11.262l1.271,10.012l7.625-3.754l2.542,15.021l-3.813,7.51l-3.813,17.521l-8.896,16.271l-8.896,1.25l-15.251,16.271
		h-12.708V1601.409L632.581,1601.409z"/>
	<path id="path3218" fill="#FFFFD0" stroke="#D0C0A0" stroke-width="2" d="M683.417,1527.579l-6.354,5.006l-2.541-10.012
		l8.896-11.265l-3.813-18.77l7.625,7.508l8.896-5.006l5.084,5.006l15.25-10.012l1.271-7.512l-20.334-6.256l-1.271-23.773
		l12.709-3.758v-8.76l-8.896-10.013l13.98-7.508l1.271-10.014l11.438-6.259l-1.271-3.754l6.354-2.504l1.271-6.256l-8.896-5.006
		l8.896-7.512l5.084-2.504l2.541,7.512h7.625l5.084-2.506l10.172,11.268l-3.813,5.004l-1.271,6.258l2.541,3.754h7.625l3.813,6.259
		l21.604,3.754l1.271,5.006l-6.354,1.252l-3.813,6.258l13.979,2.504l1.271,6.259l-11.438,2.502c0,0,2.544,7.508-2.541,7.508
		c-5.086,0-10.17-5.004-10.17-5.004l-3.813,5.004l-7.626-1.25l-3.813,7.51l-2.541,7.51l-8.896,3.754l-13.979,8.761l-8.896,6.258
		l-1.271,8.76l-2.543,15.021l-10.166,6.258l-5.084,11.262l-6.354,7.512L683.417,1527.579L683.417,1527.579z"/>
	<path id="path4189" fill="#FFFFD0" stroke="#D0C0A0" stroke-width="2" d="M726.628,1481.276l16.521-8.761l16.521-7.508l5.083-13.77
		h7.626l2.542-3.754l15.25,3.754l2.542-8.761h8.896l-1.271-7.508l-15.25-2.502l3.813-7.512l6.354,1.25l-1.271-6.256l-20.336-2.504
		l-5.082-6.257l-10.168-1.252l1.271-7.508l5.083-3.754l-11.438-13.77h-8.896l-5.083-6.259l-16.521,10.013l-20.334-3.754
		l-1.271-5.007h-5.084l-7.625-12.514h-8.896l1.271-12.518l-7.625-10.013v-15.016l11.438-12.518l1.271-6.259l11.438-6.258
		l2.541-6.256l11.438-1.252v-15.021l15.251,1.252l5.083-7.51l6.354,2.504l-1.271,30.033l17.792,7.508l10.167-2.504l6.354-3.754
		l7.627,5.006l3.813-8.76l15.251-7.51l17.792,3.756l17.793,10.012l12.709,11.262l15.25,6.259l15.251,6.26l11.438,10.012
		l7.625,17.521l-7.625,8.762l-12.709,6.258l-21.605,15.018l-11.438,11.265l-1.271,8.762l-15.251,2.504l8.896,13.765l-3.813,10.014
		l1.271,11.264l5.084,7.511l-15.252,1.25l-13.979,7.51v8.76l-2.542,8.765l-8.896-2.505l-7.625-1.252l-16.521-7.512l-8.896,5.006
		l-1.271,6.263l-15.251,6.256l-1.271-11.267L726.628,1481.276L726.628,1481.276z"/>
	<path id="path2245" fill="#FFFFD0" stroke="#D0C0A0" stroke-width="2" d="M729.387,1479.688l17.978,1.771l-1.797,8.853
		l17.973-5.312v-3.541l10.784-7.076l12.581,5.31l-3.599,14.157l-12.578,1.771l-12.58,17.697l5.392,14.157l-3.595,10.619
		l-17.977,3.537l-7.188,12.389l-1.798,14.156l5.393,7.078l16.181-15.928l8.981-3.541l7.188,3.541l30.556,1.771l1.797,12.387
		l-17.974,17.697l-5.396,10.619l12.581,7.074v10.619l-12.581,21.235l-10.782,12.39v26.545l-17.975,21.236l1.797,19.467
		l-16.176,5.313l-14.378,8.849l-16.176-3.539l-12.581-10.619l-23.365-5.309l5.393-8.849l-7.188-8.854c0,0-7.188-19.468,1.798-19.468
		s21.566-7.078,21.566-7.078l-12.58-5.311l-12.581-1.771l1.797-17.696l8.987-10.615l-5.396-8.853l-5.393,12.39l-8.985,1.771
		l-1.798,12.388l5.393,5.313l-8.982,10.615l-14.379-23.008l-3.599-17.693v-24.775l0,0l17.978-8.85l8.983-10.619l7.188,3.541
		l12.582-26.547l5.392-14.158l-3.595-15.926l17.973,1.77l12.582-15.928l10.783-7.08l1.798-14.155L729.387,1479.688L729.387,1479.688
		z"/>
	<path id="path3216" fill="#FFFFD0" stroke="#D0C0A0" stroke-width="2" d="M786.9,1626.573l3.595-17.693l-12.581-7.078
		l19.771-21.235l5.392-5.312l-3.595-14.158l-26.961,1.771l-8.985-5.312l-25.162,14.156l-3.595-8.85l1.797-17.697l23.365-5.311
		l3.595-10.617l-7.188-15.928l14.383-15.929l10.779-1.771l5.396-14.158l16.176,1.771l5.396-15.929l25.159-7.078l1.8-12.393
		l12.582,12.393l10.779,14.156L857,1492.071l14.379,5.313l8.986,28.313l-12.581,7.078v15.928L857,1569.938l-7.188,19.468
		l-3.599,10.619l3.599,24.774l-32.354,10.617L786.9,1626.573z"/>
	<path id="path4187" fill="#FFFFD0" stroke="#D0C0A0" stroke-width="2" d="M792.292,1635.423l17.974,8.849l8.986,8.85l1.797,14.158
		l-5.392,15.928l-8.986,12.391l-19.771-8.852l-5.396,12.391l-5.392,17.695l-12.581,5.313l3.595-19.467l7.188-14.158v-15.928
		l7.188-14.158L792.292,1635.423L792.292,1635.423z"/>
	<path id="path4190" fill="#FFFFD0" stroke="#D0C0A0" stroke-width="2" d="M828.238,1644.271l16.176-10.617l5.393,10.617
		l-1.797,12.389l-10.781,12.393l-8.985,8.849v-19.468L828.238,1644.271L828.238,1644.271z"/>
	<path id="path4192" fill="#FFFFD0" stroke="#D0C0A0" stroke-width="2" d="M848.009,1674.355l-16.176,15.929l-5.392,15.928
		l14.377,7.078l10.784-12.39l-3.599-12.389L848.009,1674.355L848.009,1674.355z"/>
	<path id="path5169" fill="#FFFFD0" stroke="#D0C0A0" stroke-width="2" d="M853.4,1612.417l16.177-17.695l14.378-21.235
		l1.798-31.854l-1.798-23.008l-7.189-19.469l-7.188-19.468v-19.467l-12.581-10.619l-12.582-14.155l1.798-15.929l10.784-17.696
		l16.176-8.851l7.188-8.852l25.163-1.771l5.392,19.468l10.784,38.936l17.973,21.234l12.581,15.928l7.189,10.617l-1.797,19.471
		l-5.396,5.311v23.006l-7.188,15.929l-3.597,12.393l-3.597,15.926v15.929v12.391l-12.581,8.852l-7.188,14.156l-21.567,7.078
		l-1.797,10.617l-10.784,5.313l-14.378,8.849c0,0-5.394-1.771-5.394-8.849c0-7.08-5.396-15.93-5.396-15.93l8.986-12.391
		L853.4,1612.417L853.4,1612.417z"/>
	<path id="path5171" fill="#FFFFD0" stroke="#D0C0A0" stroke-width="2" d="M864.184,1686.743l8.983-12.387l10.784,14.155
		l-7.188,7.08L864.184,1686.743z"/>
	<path id="path5173" fill="#FFFFD0" stroke="#D0C0A0" stroke-width="2" d="M981.01,1529.239l-7.188,23.006l-8.987,26.547v24.775
		l17.974,19.467v-23.006v-23.009l8.986-23.006l1.798-12.389L981.01,1529.239L981.01,1529.239z"/>
	<path id="path5175" fill="#FFFFD0" stroke="#D0C0A0" stroke-width="2" d="M891.145,1660.198l-5.396,14.157h17.976L891.145,1660.198
		z"/>
	<path id="path6152" fill="#FFFFD0" stroke="#D0C0A0" stroke-width="2" d="M978.266,1352.386l10.166-12.518l5.084-20.021
		l-10.168-12.516l-17.791-12.516l2.541-12.515l15.25-27.531l20.336,7.511l20.334,17.521l20.334-7.51l12.709,2.504l27.959,7.508
		l2.541,10.013l-2.541,12.516v10.014l-7.625,22.521l22.875-2.502h12.709l-10.166,15.021v12.515l5.084,17.521l-15.252-7.512
		l-15.25,5.008l-27.959-2.504l-15.252-10.012l-7.625,10.012c0,0-7.625,7.51-17.795,2.504
		C998.598,1372.407,980.807,1354.888,978.266,1352.386L978.266,1352.386z"/>
	<path id="path6154" fill="#FFFFD0" stroke="#D0C0A0" stroke-width="2" d="M1003.682,1407.446h27.959l12.709,15.02l10.168,17.521
		l-7.625,15.021l-17.793,7.509l-12.709-2.505l-2.541-22.522L1003.682,1407.446L1003.682,1407.446z"/>
	<path id="path6156" fill="#FFFFD0" stroke="#D0C0A0" stroke-width="2" d="M1046.893,1392.431l33.043,2.502l15.25,12.515
		l-2.541,15.021l-22.877-10.012L1046.893,1392.431L1046.893,1392.431z"/>
	<path id="path6158" fill="#FFFFD0" stroke="#D0C0A0" stroke-width="2" d="M1092.645,1467.513l-25.418-7.51v-20.021v-12.515
		l20.334,10.012l7.627,12.515L1092.645,1467.513z"/>
	<path id="path6160" fill="#FFFFD0" stroke="#D0C0A0" stroke-width="2" d="M998.598,1480.026l33.043,2.502l10.168,22.524
		l2.541,20.021l10.172,12.518l-2.541,27.529l-5.084,27.526l-17.793,12.519l-15.25,17.52l-7.631-2.502l2.545-25.026l2.541-27.527
		l2.545-25.027l-2.545-25.026L998.598,1480.026z"/>
	<path id="path7138" fill="#FFFFD0" stroke="#D0C0A0" stroke-width="2" d="M1108.619,1375.271l-7.189-10.616l1.803-10.619
		l10.779-19.467l-12.582,1.77l-16.176-3.535l-5.392,5.31l3.595-14.158l-1.797-12.387l3.594-10.619l-5.392-21.232l19.771,5.309
		l10.784-8.848l10.784,3.539l7.188-7.078l-5.395-15.928l-3.595-10.619v-10.619l3.595-14.156l1.797-12.389l16.179,3.539
		l10.781,17.693l10.784,21.235l3.596,15.928v14.158l12.582,17.697l-1.798,12.389l14.378,5.313l-19.771,1.77l1.798,19.467h-14.379
		l-10.784,7.078l-5.392,15.931l-12.582,17.694v12.39l-7.188-3.537v-8.853L1108.619,1375.271L1108.619,1375.271z"/>
	<path id="path2436" fill="#FFFFD0" stroke="#D0C0A0" stroke-width="2" d="M1096.038,1387.661l16.176,5.313l3.595,12.39
		l-5.392,1.771L1096.038,1387.661L1096.038,1387.661z"/>
	<path id="path2438" fill="#FFFFD0" stroke="#D0C0A0" stroke-width="2" d="M1106.822,1423.056l10.783,19.468l7.188,10.619v7.077
		l-3.594,1.771l-3.596,17.697l5.393,19.467l16.176,17.697l10.784,5.313v10.613l1.797,3.539h14.379l8.986-10.615l3.595-10.617
		v-10.616l-3.595-10.619l-28.757-47.783l-1.798-10.617L1106.822,1423.056z"/>
	<path id="path2440" fill="#FFFFD0" stroke="#D0C0A0" stroke-width="2" d="M1261.391,1580.563l-10.783-7.078l-3.596-21.236
		l-1.797-19.469v-7.078l-12.585-19.467l-8.981-24.775l-14.379-12.389l-10.783-15.929l-7.189-14.157v-5.31l-7.188-8.854l-8.986-7.076
		l-26.96-19.469l5.396-8.851l-12.581-12.389l1.798-10.617l5.392-21.236l17.975-7.077h7.188l1.798-17.697h14.378l12.582,3.539
		l7.188-8.851l21.564-5.309l10.782,5.309l3.597,10.619l-7.188,12.39l8.986,12.389l8.983,17.695l8.985,15.93l7.188,12.391v-14.157
		h14.377l7.188,5.311v15.93l12.582,1.771l3.594,17.697l1.801,19.467l5.394,14.158l-1.799,12.389l12.582,8.853l3.596-8.853
		l1.797-8.85l-5.393-7.078l1.797-15.928l14.379-5.313l14.379,15.93l12.581,30.087l3.595,21.233l-12.58,23.008l19.771,14.156
		l-3.598,14.156l-1.797,8.85l5.395,21.236l1.797,8.85v8.853l5.395,8.848l-3.596,10.619l3.596,17.697l10.782,21.233l-5.396,10.617
		l-5.393,7.078l5.393,12.391l-12.578,3.537l-10.783-3.537l3.595-10.616h-16.177l-10.782,10.616l-19.771,3.537l-10.783,10.617
		l-17.977,10.619l-3.596-14.156l8.986-12.389l-14.38-12.389v-15.929l-10.782-14.157l-3.597-24.775l-8.983-8.85L1261.391,1580.563
		L1261.391,1580.563z"/>
	<path id="path4385" fill="none" stroke="#000000" d="M1308.696,1417.458L1308.696,1417.458z"/>
	<path id="path4387" fill="none" stroke="#000000" d="M1290.904,1402.439L1290.904,1402.439z"/>
	<path id="path4391" fill="#FFFFD0" stroke="#D0C0A0" stroke-width="2" d="M1308.696,1414.954l17.792-22.521v-17.521l7.626-25.023
		l35.585-25.026l-10.167-47.554l25.417-12.516l-5.083-22.522l-12.709-32.535l5.084-20.021l-17.793-17.521l25.418-30.033
		l-30.501-67.572l-15.251,2.504l-17.793-30.032h-7.625l-10.167,10.012l10.167,42.546l5.083,27.531l-7.625,10.01v15.021l-15.25-5.007
		l-17.793,15.017l-17.793,30.033l-7.625,22.521l12.709,22.525l2.232,31.649l-3.132,8.09l-9.271,0.306v7.508l-20.335,25.027
		l15.251,12.514l-5.083,10.014l2.541,10.013l15.251,32.535l15.251,20.021l2.542-10.012l17.792,2.502l2.542,15.018L1308.696,1414.954
		L1308.696,1414.954z"/>
	<path id="path7308" fill="#FFFFD0" stroke="#D0C0A0" stroke-width="2" d="M1397.659,1712.782l-10.168,12.518l-17.792-7.512
		l-5.084-10.012l-15.25-22.523l7.625-10.012h12.709l5.083,10.012l17.793,2.506v-10.014l7.625-20.021l-7.625-12.516l-5.084-25.025
		l-2.542-12.518l-5.083-25.022l-5.084-17.521l5.084-25.023l15.251,5.007l15.25-7.511h25.418l15.251,10.013l22.876,12.514
		l12.709,27.531l12.709,35.037l-5.084,10.012l15.251,32.535l15.251,42.547l2.542,12.518l-2.542,27.527v17.521l-2.542,20.021
		l2.542,25.027l7.625,27.528l2.542,27.527l2.542,22.524l12.709,22.523l-12.709,5.004l-12.709,15.021l-7.625-5.007l-2.542-12.516
		l-7.625-17.52l2.541-10.013l-7.625-2.502l-7.625,5.005l-12.709,2.504l-15.251-5.006l-2.542-10.013l-10.167-25.026l-7.625-5.006
		l-10.167,12.514l-5.084,10.014l-10.167-2.502l-12.709,22.521l-7.625,2.504l-7.626,10.012l2.542,20.021l-7.625,17.52l-2.542-25.025
		l-7.625-20.021l-2.542-10.012l15.251-17.521l10.167,10.015l7.625-15.021l-10.167-20.02l-10.167-17.521l5.084-10.014l-12.709-12.515
		l-5.084-15.02l-7.625-20.021l12.709-12.514h20.334v-15.02h12.709v-7.509L1397.659,1712.782L1397.659,1712.782z"/>
	<path id="path8279" fill="none" stroke="#000000" d="M1326.489,1477.521l-10.168-10.01"/>
	<path id="path8281" fill="#FFFFD0" stroke="#D0C0A0" stroke-width="2" d="M1311.238,1439.98l-5.084-25.026l12.709-15.019
		l10.167-17.52l2.542-30.033l38.127-27.529l-2.542-15.018l-5.083-27.529l22.876-17.521l-5.084-20.021l-7.625-32.534v-17.521
		l-17.793-25.023l22.876-30.032l-10.167-25.025l-17.792-45.052l5.083-7.509l20.335-20.021h12.709l7.625,12.517l5.084,20.021
		l5.083-17.521l5.084-10.012l12.709,5.006l-7.626,17.521l5.084,17.521l5.084,12.517l5.083,45.049l12.709,17.521l7.625,15.017
		l-5.083,10.016l7.625,7.508l2.542,10.013l-17.793,12.514l2.542,20.021l2.542,17.52l2.542,12.518l10.167,12.515l-7.626,40.037
		l10.168,20.021l20.334,10.012l-5.084,12.515l7.626,30.032l15.25,15.017l2.542,20.021l5.084,25.025l-7.626,5.008l7.626,25.025
		l5.083,30.031l5.084,25.026v15.019l5.083,20.021l5.084,20.021v22.522l-12.709-5.008l7.625,27.529l10.168,40.045l7.625,25.026
		l-10.167,17.521l-5.084-12.517l-7.625-22.522l-7.626-25.025l-12.708-25.026l2.541-7.508l-5.083-20.023l-10.167-35.035
		l-10.168-10.014l-25.417-17.521l-33.044-7.512l-22.876,10.014l-15.251-12.516l-10.167-15.018l7.625-20.021l-2.541-20.021
		L1356.99,1455l-15.251-22.523l-7.625,2.505l-10.167,15.018l7.625,20.021l-5.084,10.012l-10.167-12.515L1311.238,1439.98
		L1311.238,1439.98z"/>
	
		<path id="path11192" fill="none" stroke="#A08070" stroke-width="7" stroke-opacity="0.9922" stroke-dasharray="25,6.25,3.125,6.25" d="
		M405.87,1789.388l-8.987-14.155l12.581-12.39l-7.188-12.389l-1.798-19.472h-19.771l-8.985-24.772l-7.188-15.93l-3.595-31.854
		l-14.378-28.313l1.797-17.693l19.771-7.08l-7.188-14.156l-8.986-17.696l-10.784-8.851l-8.981-21.235v-15.929l-1.8-12.389
		l7.188-12.391l-8.986-23.007l-14.377-19.469l8.986-15.926l-14.378-12.393l10.784-15.929l-12.581-21.235L325,1362.88l-12.581-8.85
		l-8.987-14.158l1.797-8.85l-16.176-14.156l3.595-23.008l3.594-10.617l-7.189-12.391l16.176-14.154l10.784-10.619l17.974-12.391
		l-7.189-7.076l-10.784,7.076l-8.985-8.851l-10.784-3.539l-21.567-8.85l-1.797,10.615h-8.987l-16.176-7.076l-5.392-10.617
		l-7.189-10.619l12.573-14.147l7.189-12.39l1.797-21.235h8.986l-7.189-14.158l-25.163-17.693l-10.784-12.393l-7.189-10.617h-12.581
		v-14.155l-10.784-3.538l8.986-14.158l-10.784-5.313l10.784-15.928l-7.189-10.618l12.582-8.849l-3.595-24.775l5.392-7.08
		l10.784,8.854l19.771-12.389l12.581-7.078l-3.595-15.932l-5.392-17.692l7.189-14.158l-14.378-10.618l-5.392-28.313l5.392-8.854
		l8.986-8.849v-15.932l-7.189-15.929l-5.392-8.85l-10.784,8.85l-21.568,1.771l-10.784-8.853l-7.189,7.078l-25.162-21.232
		l-25.163-10.618l-21.568-19.467l-28.757-8.853L64.38,782.41l-8.987-12.393L35.62,752.331l1.797-8.853l-7.186-12.385l-12.582-12.389
		l-7.189-15.93l8.986-7.08l3.595-21.232l12.581-3.539v-7.079l21.568-17.696l-1.797-15.929l-12.581-8.849l16.176-12.391l10.784,1.771
		l10.784-5.313v14.158l10.784,10.618l14.378,8.849l10.784-8.849l-8.987-3.539l5.392-14.157h17.973l7.189-14.156l3.595-10.617
		l8.987-3.539l-8.987-10.617l8.987-12.392l-3.595-14.155l8.987-7.078l-5.392-8.852l12.581-14.156l17.973,8.851l10.784,5.311
		l7.188-8.851h16.176l19.771-5.311l21.568,10.618l10.784,3.539l12.581-14.157l21.568,15.929l10.784-1.771v-10.618l7.188-19.468
		l14.379-5.312l1.798-10.618l-25.162-3.537h-8.987l-3.594-12.391l-5.393,7.077l-16.176-15.924l-5.392-17.696l5.392-15.927
		l-8.987-12.39v-14.158l-7.189,7.078l-7.189-8.85v15.93h-7.189l-12.582,8.849H218.95l-3.595-8.849l-10.784,3.538l-5.393-7.077
		l-14.378,3.539l-5.392-3.539l-14.378-14.158l1.797-8.849l-14.378-1.77l-7.189-12.388l3.595-3.54v-14.154h-12.581l-12.582-14.158
		l-3.594-8.849l-10.784-1.771l-5.392-12.388l-14.379-5.309V301.05l-17.973,12.388l-7.189-7.079l-8.987,8.849l-7.189-3.54
		L33.828,295.74l3.594-10.618l-7.188-5.309v-17.697l10.784-5.309v-12.388l17.973-12.388l3.595-10.618l-7.189-10.618l7.189-23.006
		l12.581-3.54l3.595-12.388h10.784l17.973-5.31l14.379-10.618l-8.987-10.619l8.987-17.697h10.784l14.378-15.927l8.987-8.849
		l8.986,7.079l8.987-3.539l-8.987-10.619l-1.797-14.158l-5.392-8.849l-14.379,3.54l-7.188-7.079l-8.987-3.539l-7.189,12.388
		l-7.189-3.539l-1.797-15.928l12.579-14.155V30.286l17.97-19.467l3.595,19.467v14.158h17.973l1.797,10.618l10.784-1.77
		l-1.797,10.618h12.581l5.392,8.849l12.581-7.079l3.595,12.388l17.973,15.928l8.986-1.77l1.797,19.467l16.176-1.77v12.388v5.309
		h16.176l3.595,8.849l-1.797,10.619l17.973,12.388l1.797-12.388l3.595-14.158l14.378,3.54l10.783,19.467l12.582-5.31l14.379,3.54
		l5.396-8.849l-7.189-8.849l-7.188-7.079l-10.784,3.539l-1.797-8.848l3.595-7.079l-5.392-7.079l-5.393,5.31l-16.176-7.079
		l-5.392-15.927l14.378-12.388L321.4,72.76l7.188,12.388l17.977,7.079l21.564,3.539l1.797,7.079l-10.783,3.54l8.986,5.309
		l-7.188,5.309l23.36,5.309l-3.595,8.849l-14.378-1.77v7.079l14.378,15.928l1.797,10.618l-3.595,8.849l8.985,15.928l26.961,8.848
		l7.188,12.388l-8.985,3.54l23.363,8.849l10.784,12.388l17.976,3.539l10.781-17.697l5.396,10.618l7.188,7.079h17.978l7.188,5.311
		l-1.798,8.849l8.985,3.539l8.983-10.618l-8.983-5.309l1.799-12.388l14.379-7.079l10.783-1.77l-5.396-21.237l-8.986,12.388
		l-1.798-14.158l-5.392-12.388l14.378-12.388l7.188-15.928l14.379,5.309l-3.599,15.928l5.396,10.618l14.379-7.079l7.188,12.388
		l7.188,10.619l5.394,8.849l-8.983,7.079l14.378,12.388v12.388h14.379l-10.784,10.618l0,0l19.771,12.388l-7.189,8.85l-7.188,3.539
		l-3.596,15.928l-5.393,3.54l10.783,23.006l-7.188,3.539l-3.595,10.618l8.986,5.31l-3.599,5.313l14.378,12.388l-7.188,15.928
		l5.393,17.697l-8.984,8.849l1.8,28.314l-7.189,14.157l-1.797,14.157l-3.595,8.85l7.188,7.079l-1.798,8.85l16.178,12.391
		l5.395-7.078l17.974-5.313l16.178,8.852l19.771,12.39l19.771,10.617l28.759,5.311l16.176,7.079l12.581,3.539l17.974-3.539
		l3.599,15.927l17.974-3.539l12.581,3.539c0,0,3.595-8.849,19.771-8.849c16.18,0,25.162,0,25.162,0h12.582l10.783-5.311l8.985,7.078
		v3.539l30.457-9.222l15.25,7.509l40.67,2.504l25.418-12.515h35.585h27.959l20.335-7.51l22.876,17.521l12.709-7.509l22.876,10.015
		l20.334,7.508l12.709-7.508l12.709-5.009l15.251,7.511l15.251,5.006l10.167-10.014l15.25-5.006l30.502,5.006l33.043-5.006h17.793
		l22.876-2.502l7.625-5.006l17.793,15.018l17.792,7.51l10.167,15.019l20.334,5.006l12.709-5.006l2.542,10.012l30.501,17.521
		l-2.541,15.018l20.334,5.006v17.521l-2.542,15.017h-10.167h-20.334l-10.168,5.008l-15.25-2.504l-15.251,7.509l10.167,15.02
		l-17.792,30.033l-7.626,20.021l-7.625,12.517l2.542,15.019l-10.167,12.516l-12.709,2.503l-5.084,10.013l2.542,15.018l10.167,17.521
		l-12.709,10.012l-22.876,7.509l-17.792-7.509l-7.626,5.006l10.167,15.019l-10.167-2.502h-10.167l-5.084,12.515l2.542,20.021
		l-5.083,17.521l-12.709,15.017l-10.167-7.509l-10.171-10.018l-17.791-7.51l-5.084,10.014l7.625,17.521l-10.166,5.006l-12.709-7.51
		l-7.627-12.514l-15.25-7.509l2.542,20.021l-5.083,20.021l-17.793,12.515l-17.792-5.006l-12.709-5.006l-20.335-7.51l-15.25,2.505
		l10.167,20.021l-5.084,17.521l-12.709,7.508l-12.709-5.005c0,0-12.708,5.005-17.792,15.018s-10.167,20.021-10.167,20.021
		l7.625,15.019l-7.625,7.508l-2.542,27.529l-15.251-2.503l-5.083,12.515l4.04,5.442l8.063,3.972l3.146,10.607l-5.604,9.046
		l-10.136,12.997l25.907,45.533l7.625,27.528l10.167,17.521l5.084,22.522l5.083,12.517v15.016v20.023l10.167,20.02l7.626,12.518
		l15.25-2.504l-7.625-15.02l-2.542-27.529l2.542-25.022l17.793,5.004l20.334,22.524v20.021l2.542,17.521l5.083,25.025l10.168,20.021
		l15.25-10.015l5.084,7.512l17.791-10.014h12.709l20.336-27.527l-0.373-3.483l8.088-0.885l3.596-8.853l-0.896-11.504l-1.801-10.617
		v-8.852l-6.287-11.502l-7.188-12.39l8.089-23.895l16.178-26.547l21.564-15.929l14.38,7.08l-0.896-20.354l7.188-10.615
		l-14.379-66.365l9.885-12.391h7.188l8.088,15.932l8.089,15.928l14.379-2.654l6.291-10.618l11.687-12.388l10.78-8.85h10.783
		l6.291,9.729l6.29,17.696l4.493-10.617l7.188-12.39l7.189,3.54l4.493,4.424l-4.493,5.311l-3.595,8.853l3.595,14.157l3.596,10.615
		l4.492,7.078l1.797,23.895v18.582l13.479,16.813l8.986,16.813l-5.396,8.849l6.291,7.079l4.492,7.964l-1.798,5.311l-14.381,10.617
		l0.897,7.078l0.898,19.469l1.797,19.469l4.492,7.078l6.291,9.73l-4.492,27.434l-1.799,13.271l6.291,12.388l3.596,6.194
		l14.379,7.963l7.188,4.425l-4.492,7.079l2.694,21.236l4.494,16.813l14.379,12.391l1.798,19.467l4.491,19.468v6.194l-8.088,4.424
		l8.984,19.468l9.889,58.399l0.896,20.353l10.781,38.938v20.353l-8.088-2.652l-6.291-4.428l4.492,13.272l10.782,43.355l4.492,20.354
		l5.396,15.929l-8.986,16.813v18.582l-2.693,13.271l-0.896,23.895v18.582l1.798,16.813l6.29,25.66l1.798,12.39l2.694,19.469
		l0.898,17.695l10.781,19.469l3.596,7.965l-9.887,3.537l-15.277,14.141l-5.393-2.653l-13.479-29.199l2.694-12.39l-7.188-4.426
		l-8.983,8.851l-8.984,0.885l-11.686-1.771l-8.089-6.192l-8.088-25.66l-6.291-8.851l-5.394-2.653l-14.379,22.121l-8.985-4.427
		l-8.983,10.619l-4.494,14.158l-11.683,3.535l-4.494,8.854l5.396,20.353l2.688,16.18l-12.574,13.906l11.678,18.582l11.006,11.887
		l6.967,12.008l-8.979,13.271l9.879,20.854l4.49,15.427l-2.688,11.502l9.209,14.291l2.477,20.219l4.494,9.733l2.688,5.06"/>
	<g id="g4653">
		<path id="path5362" fill="#FFFFD0" stroke="#D0C0A0" stroke-width="2" d="M1260.402,1690.259l25.418-5.006l5.084,25.023
			l-7.627,22.524l-15.25,25.025l2.541-17.521l2.543-35.037L1260.402,1690.259z"/>
		<path id="path5364" fill="#FFFFD0" stroke="#D0C0A0" stroke-width="2" d="M1295.987,1712.782l27.96-15.017l12.709-10.012
			l12.709-2.502l17.792,30.029l20.334,10.014l7.626-2.506l5.083-12.514l12.709,17.521v7.509H1400.2l-2.542,17.52h-22.876
			l-10.167,12.518l10.167,25.025l20.335,20.021l-7.626,12.514l12.709,20.021l10.167,12.515l-5.083,17.521h-10.167l-2.542-10.012
			l-17.792,20.021l5.083,22.521l16.229,18.529l2.541,12.469l-12.153,14.533l11.145,20.021l18.803,23.535l-11.107,14.008
			l12.645,20.021l5.23,15.906l-4.896,9.912l7.321,16.246l10.167,25.026l-2.541,12.515l-7.626-7.509l-10.167-27.53l-12.709-15.021
			l-10.167-17.521l-7.625-17.521v-15.016l-43.211-50.058l-5.083-40.043v-17.521l-7.625-17.521l-15.251-20.022l-2.542-10.011
			l12.709-15.021l2.541-17.521l5.084-15.018l5.084-22.522l-2.542-27.529l-10.167,22.522l-12.709-7.508l10.167,17.521l7.625,20.021
			l-12.709,25.025l2.542,2.502l-25.418-2.502l2.542,12.518h-15.251l-2.542-12.518l7.626-22.521l5.083-20.021l-12.709-10.013
			L1295.987,1712.782L1295.987,1712.782z"/>
		<path id="path3682" fill="#FFFFD0" d="M1307.551,1761.347l25.418-5.006l5.082,25.023l-7.625,22.524l-15.25,25.025l2.541-17.521
			l2.543-35.036L1307.551,1761.347z"/>
	</g>
	<g id="g10307">
		<path id="path2273" fill="#F7D3AA" stroke="#CB9369" stroke-opacity="0" d="M4.311,1812.192
			c0.686-9.308,21.766-17.572,28.284-26.265c4.757-6.344,8.178-18.668,10.103-28.283c3.133-15.668,8.081-25.637,8.081-42.428
			c0-12.973,3.59-25.143,8.081-36.365c5.304-13.26,17.377-24.516,26.264-36.364c11.233-14.979,29.308-22.992,44.447-34.347
			c17.254-12.938,37.824-28.692,48.487-46.467c16.842-28.067,53.192-23.098,78.792-12.121c2.552,1.095,5.387,1.347,8.081,2.021
			c4.052,1.014,14.879,27.738,16.163,30.305c4.233,8.47,13.777,6.063,24.244,6.063c9.955,0,9.995-10.527,8.081-18.183
			c-1.797-7.188,15.598-3.313,22.225,0c4.59,2.293,8.438,16.869,10.104,20.201c3.725,7.445-5.063,12.144-8.081,18.185
			c-3.741,7.481,2.01,14.1,4.041,22.225c2.39,9.561,6.688,11.631,4.041,22.227c-2.063,8.255-6.231,14.228-14.146,18.185
			c-10.604,5.303-8.939,9.238-2.021,16.162c6.214,6.213,3.599,17.928,2.021,24.241c-1.771,7.084-1.277,13.062,0,18.185"/>
		<path id="path9336" fill="#F7D3AA" d="M333.641,1555.614c10.104,15.151,18.185,21.213,18.185,21.213l7.071,13.133l6.061,13.135
			l-16.163,5.052l-4.041,16.162l1.01,9.092l8.082,15.151l6.063,13.134l-15.152,23.229l-4.041,11.109l8.081,18.184l-5.051,21.217
			l15.151,16.16v24.242l-9.094,12.121l-24.244,4.041l-7.071-59.599l-11.112-140.411L333.641,1555.614L333.641,1555.614z"/>
	</g>
	<path id="path10311" fill="#F7D3AA" stroke="#A08070" d="M1547.637,1634.462l-18.566,7.144l-5.719,7.143l4.285,17.146l5.715,22.854
		l5.719,14.287l-11.434,15.713l2.857,17.146l-4.286,15.716l-1.428,21.428l1.428,27.146l7.144,35.715l1.434,20l4.285,31.431
		l8.566,15.713l5.715,10l-11.428,2.857l-14.287,12.854l-8.566-1.428l-12.86-25.719l1.429-14.285l-5.715-4.287l-5.715,8.572
		l-20,1.428l-12.855-8.57l-4.282-12.854l-2.856-11.431l-11.429-11.43l-12.86,22.854l-8.569-4.285l-7.144,10l-5.717,14.285
		l-15.715,1.429v10l7.145,34.284l-10,14.287l10,21.429l17.146,20l-5.716,14.284l8.569,25.716l5.714,15.715l-4.283,7.146l10,17.144
		v12.856l4.283,12.854l2.856,8.569l-5.715,18.572l10,27.144l41.43,5.715l57.146-1.43l14.282-7.144l4.286-88.57l-2.854-367.145
		L1547.637,1634.462L1547.637,1634.462z"/>
	<path id="path12251_1_" fill-opacity="0" stroke="#000000" d="M1523.352,1645.89"/>
	<path id="path13274" fill="none" stroke="#C0B090" stroke-width="6" d="M989.064,531.604v27.144l8.567,5.719h-12.854l-4.285,5.711
		l12.856,4.286l-5.719,5.714l-2.854,14.286l7.143,10l-1.428,15.714l20,4.286l5.714,11.43l20.001,2.854l10,10l-1.429,8.569l4.285,10
		l10-11.43l8.57,8.568v8.57l-10,2.856l-4.284,14.285l17.143,7.144l12.857,4.285l4.284,11.43l-15.718,12.856v17.144l10,10
		l-7.144,17.146l-17.146,8.567l4.286,4.286l11.433-4.286l7.144,5.716l1.429,8.57l-5.715,5.714l10,17.146v4.285l-10,1.429
		l5.715,7.146v8.569l-8.567,4.285l-14.285-2.854l-4.286,7.146l8.571,4.285l1.429,5.715l-8.571,7.145l14.286,1.431l14.285,7.145
		l11.429-12.855l15.715-2.854l-1.429,10l-14.286,8.57l10,10l-1.429,5.714l-12.856-4.284l-2.854,12.854l11.429,7.146l-11.429,2.854
		l2.854,11.431l2.856,8.569l8.571,5.717l-5.719,10l1.434,7.144l0,0l0,0v1.43"/>
	<path id="path13557" fill="none" stroke="#C0B090" stroke-width="6" d="M604.78,451.604l-14.286-11.428l-2.857,8.568l7.146,5.718
		l-12.857,5.714v22.854l8.57,11.432l1.429,10l-7.143,11.43l-8.572-1.43l-8.573,7.144l-1.429,12.856l-15.714,22.857l4.286,11.428
		l-5.716,8.572l7.144,7.146l-7.144,5.714l7.144,1.429v7.146l-5.714,7.137l5.714,5.715l1.429,7.144l5.719,14.285l-5.719,1.433v14.282
		l7.146,10l12.854-1.429v8.57l-2.854,4.285l4.285,7.143l2.854-5.714l17.146,10l-1.434,7.145l-7.142,1.428l7.143,11.428
		l-1.429,17.144l-1.429,11.433l-7.146-1.433l5.719,11.433l-2.856,8.567l-2.857,5.719h-5.714l-7.144,4.281l5.715,11.431v12.854
		l-11.43,12.856l14.287,11.429l2.854,7.146l-7.143,5.715l15.717,21.428v17.144l-2.856,17.146l4.285,10l-5.714,4.283l11.429,8.57
		l2.856,14.283v14.286l-8.571,12.855l-25.714,5.719l-11.43-1.43l-4.285,11.43l-4.285,14.285l11.429,7.145l5.714-2.854l7.146,12.854
		l-5.714,1.429l-10-8.568v10l18.566,5.715l11.434,7.146l-18.575,7.137l-14.286-1.433l-18.571-7.14l-25.714,10l-31.429-17.144
		l-5.715-14.285l-17.146-20l2.86,17.144l-7.145,5.714v1.433l-15.718-1.433l-4.282-7.144l-17.146-22.856l-21.43,1.433l-7.146-7.146
		l-20,1.428L356.2,954.47v-1.433l-4.286-7.144h-7.143l-5.715-10l2.854-15.715l-8.57-10h-15.708l-10-8.571l-5.714,8.571
		l-14.286-2.855l-15.714,1.428l-27.143-21.428l-12.857-1.43l0,0"/>
	<path id="path13840" fill="none" stroke="#C0B090" stroke-width="6" d="M442.738,985.889l2.02,32.325l2.021,6.062l-14.146,10.104
		l4.04,10.104l20.96,19.983l15.718-5.718l5.716,7.146l12.854,12.855l5.714,24.285l12.86,12.854l-5.714,1.431l-5.716,2.856v7.144
		h18.571l14.282,11.428l1.433,14.287l11.43,18.569l-10-5.715l-5.716,5.715l7.144,7.144l-2.854,15.715l4.283,12.854h12.857l-10,7.146
		l2.856,11.432l12.854-2.856l8.572,7.146l-1.433,14.287l11.433-7.146l11.428,4.284l-11.428,25.716h-11.433l15.718,17.146
		l7.143,15.713l17.146,8.568l-5.719,17.146l12.857,7.144l-5.714,8.571l2.854,11.429l8.571,7.146l15.715-7.146l10,8.571l1.43,30
		l-20,4.285v15.707H636.2l11.429,5.715l-1.429,15.713l7.145,20l-5.716,10l5.716,25.716l-17.145-15.716l-10-5.713l4.286,12.855
		l12.855,12.854l5.713,5.715h-7.145l-10,11.433v17.145l-12.848,24.285l-5.714,24.285l10,14.285l4.281,24.287l-11.429,20
		l7.146,15.713l-5.718,22.854l8.571,14.284l-1.429,10l2.854,30v1.435"/>
	<path id="path14125" fill="none" stroke="#C0B090" stroke-width="6" d="M641.738,1361.665l3.029-12.119l20.202,2.021l8.082-10.103
		l-1.014-11.111l12.121-12.123l2.021-11.106l12.123-3.029l1.012-7.072h11.108l-1.012-13.131l17.173-1.012l7.071-7.07l5.051,3.031
		l-3.029,29.293l18.187,7.068l17.172-5.052l7.07,8.08l5.052-13.131l18.183-7.072l14.146,4.041l14.142,8.082l16.163,13.132
		l18.185,7.071l17.175,8.08l8.08,8.082l7.068,16.162l11.111,22.223l5.051,23.234l9.093,30.305l11.11,15.152l15.152,17.172
		l14.142,19.193l-2.021,16.16l22.224,22.225l12.122,14.143v14.146l-10.104,16.162l-1.011,16.16v37.377l3.03,21.215l0,0"/>
	<path id="path14412" fill="none" stroke="#C0B090" stroke-width="6" d="M849.064,1324.462l1.43-24.285l-5.714-17.146
		l-12.857-11.426l10-2.857l-7.143-11.428l10-7.146l10-14.285l-5.716-17.146l-7.146-28.568l-2.854-21.432l4.287-15.713l15.713-24.287
		l30-11.428l-7.146-30l-1.426-27.14l10,1.429l8.571-10l1.429-14.285l15.714-21.429l-1.429-12.856l11.429-10l14.287,7.143
		l22.856-4.285l8.567-12.856l8.575-22.857h8.571l-7.146-11.43l11.433-15.717l14.281-2.854v-7.146l5.719-5.714v-11.43l-8.571-2.856
		l-10-12.854l15.715-15.715l14.285,2.854l7.144-11.428l27.146-4.286h1.425"/>
	<path id="path5037" fill="none" stroke="#C0B090" stroke-width="6" d="M548.699,577.067l-4.199-3.359l-21.834,2.938l-2.52,8.396
		h-6.3l-4.196-5.877l-15.955-2.521l-9.657-10.496l-4.199,7.138l-10.077-5.878l-3.773,5.458l-10.917-1.261l-2.939-12.596
		l-9.653-3.358l-13.02-2.521l-5.879,4.195l-1.259,0.842l-7.142-5.037l2.103-2.938l-10.917-13.854l-6.028-3.587l-4.889-9.433
		l4.199-11.757l-12.601-3.779l-19.313,2.104l-6.719-9.656l-12.601,3.358l-12.596-9.237l0,0l0,0l0,0"/>
</g>
</svg>
