<?xml version="1.0" encoding="utf-8"?>
<!-- Generator: Adobe Illustrator 16.0.0, SVG Export Plug-In . SVG Version: 6.00 Build 0)  -->
<!DOCTYPE svg PUBLIC "-//W3C//DTD SVG 1.1//EN" "http://www.w3.org/Graphics/SVG/1.1/DTD/svg11.dtd">
<svg version="1.1"
	 id="BD__x3C__x3E__District_locator_map" xmlns:rdf="http://www.w3.org/1999/02/22-rdf-syntax-ns#" xmlns:cc="http://creativecommons.org/ns#" xmlns:dc="http://purl.org/dc/elements/1.1/" xmlns:svg="http://www.w3.org/2000/svg"
	 xmlns="http://www.w3.org/2000/svg" xmlns:xlink="http://www.w3.org/1999/xlink" x="0px" y="0px" width="1558.924px"
	 height="2152.232px" viewBox="0 0 1558.924 2152.232" enable-background="new 0 0 1558.924 2152.232" xml:space="preserve">
<g id="g5728">
	<polyline id="rect2713_1_" fill="#F7D3AA" points="1554.692,2152.478 19.261,2152.478 19.261,2.873 1568.919,0.221 	"/>
	<polygon id="rect2263" fill="#9EC7F3" points="1049.748,1094.54 775.694,1396.452 287.235,978.977 561.289,677.064 	"/>
	
		<linearGradient id="rect2261_1_" gradientUnits="userSpaceOnUse" x1="-3314.5" y1="-1014.6084" x2="-1780.8447" y2="-1014.6084" gradientTransform="matrix(1 0 0 1 3316 2705.6035)">
		<stop  offset="0" style="stop-color:#FFFFFF"/>
		<stop  offset="1" style="stop-color:#000000"/>
	</linearGradient>
	
		<rect id="rect2261" x="2" y="1229.733" fill="#9EC7F3" stroke="url(#rect2261_1_)" stroke-opacity="0.0627" width="1532.655" height="922.523"/>
	
		<rect id="rect2205" x="450.799" y="1143.491" fill="#FBFED1" stroke="#FFFF00" stroke-width="3.0012" stroke-opacity="0.0627" width="177.787" height="185.869"/>
	
		<rect id="rect2203" x="524.903" y="415.318" fill="#FBFED1" stroke="#FFFF00" stroke-width="3.0012" stroke-opacity="0.0627" width="67.143" height="124.286"/>
	
		<rect id="rect2201" x="930.617" y="586.747" fill="#FBFED1" stroke="#FFFF00" stroke-width="3.0012" stroke-opacity="0.0627" width="162.857" height="307.146"/>
	<rect id="rect2197" x="260.873" y="531.29" fill="#9EC7F3" width="462.344" height="635.202"/>
	<path id="path1881" fill="#FFFFD0" stroke="#646464" stroke-width="0.5" d="M1419.268,2142.104c-1.313-5.254,0.645-7.355-4-12
		c-6.256-6.256,1.066-7,6-7C1423.104,2123.104,1419.415,2141.735,1419.268,2142.104z"/>
	<path id="path1921" fill="#FEFEE9" stroke="#646464" stroke-width="0.5" d="M371.268,1791.104c0-2.467-7.859-2.564-6-10
		C365.646,1779.595,375.52,1780.476,371.268,1791.104z"/>
	<rect id="rect2269" y="1640.571" fill="#F7D3AA" width="88.344" height="159.143"/>
	
		<rect id="rect2271" x="147.914" y="1656.769" fill="#CA936A" stroke="#FFFF00" stroke-width="3.0012" stroke-opacity="0.0627" width="88.571" height="137.143"/>
	
		<rect id="rect2265" x="1" y="1.082" fill="#F7D3AA" stroke="#FFFF00" stroke-width="3.6635" stroke-opacity="0.0627" width="335.906" height="1654.95"/>
	<rect id="rect6157" x="1012.046" y="1166.747" fill="#F7D3AA" width="525.714" height="194.285"/>
	
		<rect id="rect6159" x="1462.381" y="1154.864" fill="#F7D3AA" stroke="#CB9369" stroke-width="3.458" stroke-opacity="0" width="99.543" height="996.688"/>
	<path id="path2259" fill="#F7D3AA" stroke="#CB9369" stroke-width="0.9878" stroke-opacity="0" d="M329.586,1721.296
		c0,9.064,0,43.316,0,64.65c0,14.898-23.655-10.678-23.655-28.285c0-26.357-7.885-44.299-7.885-8.082
		c0,25.021,0.214,36.592,11.828,48.49c3.658,3.75-36.162,3.344-43.368-4.041c-3.961-4.061-3.076-53.02-3.938-56.572
		c-4.416-18.104,3.991-40.209,0-56.568c-7.496-30.732-15.771,8.563-15.771,24.246c0,23.514,3.942,34.438,3.942,56.568
		c0,20.896,4.36,34.656,0,52.531c-5.89,24.146-47.862-6.344-51.253-8.082c-24.438-12.521-35.369-7.965-15.771,12.123
		c10.595,10.859-32.771-1.264-43.368-12.123c-11.601-11.891-2.186-47.613,0-56.572c4.841-19.848,0-47.893,0-68.691
		c0-3.803-31.519-8.037-15.771,24.246c8.989,18.426-2.118,46.615-11.827,56.568c-12.959,13.281,6.995,30.502,11.827,40.408
		c11.363,23.293-6.918,39.418-15.77,48.49c-17.916,18.359-53.601-16.938-59.138-28.285c-6.051-12.404-22.356,16.84-35.483,20.203
		c-17.5,4.482-3.942-32.898-3.942-44.449"/>
	<path id="path2172" fill="none" stroke="#000000" d="M40.346,247.917L40.346,247.917z"/>
	<path id="path2170" fill="none" stroke="#000000" d="M345.36,149.058L345.36,149.058z"/>
	<path id="path2173" fill="none" stroke="#000000" d="M351.714,140.298v-7.508h-3.813L351.714,140.298z"/>
	<path id="path3149" fill="none" stroke="#000000" d="M504.223,365.547L504.223,365.547z"/>
	<path id="path3150" fill="none" stroke="#000000" d="M323.754,642.102L323.754,642.102z"/>
	<path id="path3166" fill="none" stroke="#000000" d="M120.411,782.257L120.411,782.257z"/>
	<path id="path3173" fill="none" stroke="#000000" d="M286.898,907.395L286.898,907.395z"/>
	<path id="path3175" fill="none" stroke="#000000" d="M300.878,898.635L300.878,898.635z"/>
	<g id="g5219" transform="matrix(2.5417852,0,0,2.5027642,-20.817184,-25.22581)">
		<g id="g4167">
			<path id="path3168" fill="#FFFFD0" stroke="#D0C0A0" d="M54.063,325.636l1.5-3.5l-3.5-4.5l0.5-6.5l-3-3.5l0.5-4l10-3l6-3l-0.5-4
				l9.5,0.5l1.5-1.5l-1.5-2.5l-2.5,1.5l-3.5-2l6.5-3.5l7.5,2.5l0.5,4l3,1l3-3.5l2.5,2l-0.5,5.5l4.5,2l11-6l-0.5-1l5.5,2l3,2.5l4-0.5
				l3.5,3.5l4-1.5v5l0.5,2.5l4,2h2.5v3l-1,2.5l-5.5,0.5l-3,2.5h2l3,3l-4.5,3.5l0.5,2.5l0,0l0.5,13.5l-5,3.5l-1,1.5l0,0l2.5,5l4-1
				l0.5,3l1,2.5l1.5,1.5l-6.5,2.5l-2,2l2.5,2l-3,1.5l2,1.5l-2,1.5l5.5,1l1,2l-4,1l-0.5,2h-5l-7-3l-4.5-4l-2-1l-3.5-1v-2l4-1
				l0.5-10.5l-3.5-7.5l-4-0.5l-2,3l-7.5-0.5l-4.5-2.5l-3.5,3l-4.5-2.5l-4.5-4.5l-2,0.5l-0.5-2.5l-4.5-1l-5-2.5L54.063,325.636z"/>
			<g id="g4150">
				<g id="g3158">
					<g id="g3153">
						<path id="path4167" fill="#FFFFD0" stroke="#D0C0A0" d="M108.563,62.136l2.5-2.5l2.5,0.5l2.5,2l-2,5.5l3,1l2.5,3l3-0.5
							l-0.5-3.5l-2.5-1.5l3-3.5l5.5,0.5l2.5,3.5l2,2.5l1.5,2.5l1-1.5h4.5l1,1l3-1.5v3.5l0.5,6l3.5,2.5l3.5,2l1,2.5l-0.5,3l-1,7.5
							l1.5,5l1,5.5l4,3.5l4.5,3l3.5,3l-1.5,4l-1.5,3.5l-1.5,2l-3-3.5l-5,4.5l0.5,5.5l-4-4l-2.5,5l-8-2l-5.5,1.5l2,5l-2.5,3l-1.5,2.5
							l-4.5-0.5l-4-3.5h-2.5v-5.5l-4-1v-12l-2-2.5l-2-3.5l-5.5-1.5l0.5-2.5l-1.5-1v-4l-0.5-1.5l2-2.5l-1.5,2.5l3-4.5l3-1.5v-8.5
							l1.5-3v-2l-0.5-7l1.5-3l-5.5-6V62.136z"/>
						<path id="path2169" fill="#FFFFD0" stroke="#D0C0A0" stroke-linecap="round" stroke-linejoin="round" d="M54.063,40.636
							l-1-3.5l-1-2.5l2.5-3.5l2-4.5l2-6l4-6l1,6.5l0.5,3.5l4,4l4-1l1,3.5l4,1l0.5,3l4,1.5l0.5,2l4,1l2.5-3l1.5,4l2,2.5l3,2l1,2
							l2.5-1l1.5,1.5l-1.5,3.5l1.5,1.5l2,1.5v1l4-0.5v2l1,2v2.5l2.5,2l-0.5,4.5l2,3.5l2.5,3.5l-1,3.5v5v4.5l-1.5,4l1,5l-2.5,3.5
							l-3.5,5l-4-1l-5.5-0.5l-2-4l-2.5-2l3-5.5l-2-4l-2.5-3l-4-1.5l-2-2l-1.5-3l-2.5,1c0,0-0.625-0.5-2-1c-1.375-0.5-3.5-1-3.5-1
							l-2.5-1l-2.5,2l-4-1l-3.5-1.5l-3,2l-0.5,2.5c0,0-1.625-0.25-3.5-1c-1.875-0.75-4-2-4-2l-1-1.5l3.5-2l2-2.5l-1.5-3v-7l5.5-0.5
							l2-2l2-3l4.5-1.5l1-3.5l2.5,4l2.5-1.5l2-3.5l-2-2.5l-2-3v-3.5l-3.5-3l-4.5,1l-2.5-4l-2.5,2l-3-0.5L54.063,40.636z"/>
						<path id="path2192" fill="#FFFFD0" stroke="#D0C0A0" d="M27.563,136.136l-2.5-4.5l-3-4l2-4.5l-5-1l1.5-8l3.5-2.5l-0.5-3l2-4
							l6-4l2-5.5l-4.5-2.5l2.5-4.5l1-4.5l5.5-2v-5l7.5,1l5.5-1.5l7.5,5l1.5-4l5.104-1.072l4.396,1.572l4-0.5l10,2.5l4,4.5l3.5,1.5
							l5,6l-3.5,5l1,3.5l-2.5,2.5l-1,4h-3.5l-2.5-4l-1.5,3h-3l-1.5,5.5l2,2l-2.5,0.5l-3,5l-1,3l-1.5,3l2,2.5l-3,0.5h-2v-2.5
							l-6.5,0.5v4h-2.5l-0.5,5l3,1.5l-2,2v4.5l2.5,1.5l3,2.5l-0.5,3.5l-3.5,0.5l-3-3l-2.5-1.5v-2l-3.5-3.5h-3l-1-3.5l-5.5-3l0.5-2.5
							l-0.5-1.5l-4.5,1.5l-3,2.5l-2.5-3L27.563,136.136z"/>
						<path id="path2175" fill="#FFFFD0" stroke="#D0C0A0" d="M142.563,63.637l-1.5-4l-4,3l-2-3l3-2.5l-1.5-2.5l-2.5-0.5l-1.5,1.5
							l-5-2.5l-1-4.5l5-7.5l4.5-1.5v3l1.5,1l4.5,1.5l3,3l6.5-0.5l1.5,3.5l-3,0.5l2.5,3l-2.5,3h6l2,3.5l-0.5,1.5h-3l-3-3v4.5l2.5,3
							l4,4.5l0.5,3l-1.5,1.5l4.5,9l8,1.5l4,4l0.5,3l-2,1l0.5,1l3.5,0.5l4,2l3.5,4l6.5,1.5l3-5.5l2,0.5l0.5,2.5l2.5,1l2,2l2-1.5
							l-1,9.5l4,0.5l5.5,6l1-0.5v3h4.5l0.5,1.5l-4.5,6l-2.5,0.5l0.5,6l-5.5,4l-1.5-0.5l-0.5-4.5l-1.5,0.5l-1,2.5l-4-0.5l-3-1l-0.5,1
							l-10-6c0,0,2.5-3,0-3.5c-2.5-0.5-5-2-5-2v-3.5l-3,0.5l-4.5-3.5l-5-2l-3-3.5l-6.412-2.12l-3.088-4.88l-2.5-11.5l1.5-7.5v-3
							l-8-5l0.5-10l4-1.5l-2.5-3.5L142.563,63.637z"/>
						<path id="path2174" fill="#FFFFD0" stroke="#D0C0A0" d="M93.563,99.136l-2.5,2.5l-1,4l-3.5,1l-3-4.5l-1,3.5h-3.5l-1.5,5.5
							l2.5,1.5v1.5l-3-0.5l-4.5,10l1.5,2.5l-1,1.5l-4,0.5l-0.5-3l-1.5,1l-5.5-1l1,5l-2.5-1l-0.5,4.5l2.5,1.5l-1.5,3.5l0.5,3.5l5,4v4
							l2,1.5l-0.5,4.5l-2,1v4l3,2h4.5v4l3.5,2.5l1.5,3.5l6,0.5l3.5-1l1,2.5l4.5,0.5v2l7,1l2-2l2.5-1.5c0,0,6,2.5,4.5,0.5
							c-1.5-2-1.5-5.5-1.5-5.5l3,3l3-3v5l2.5,1l2,4.5l-2,5l-2.5,1.5l3,1.5l0.5,4l6.5,6.5l1.5-2.5l1.5,2v2l12.5,1l1.5,2l-0.5,3.5
							l5.5,3l5-1l2.5,4l7-1l15,3.5l4-2v-3.5l-4-4.5l-0.5-4.5l-5.5-4.5l1-2l-1.5-1h-2.5l-0.5-3h-4.5l-3-3.5l1.5-1l-5-3l-3.5-14l-2-5
							l-7.5-1.5l-3.5-8l-7-4.5l-1-7l-5.5-1.5l-2-2l-3-0.5l1.5-5.5h-5l-0.5-12l-4-7l-4.5-1l-1.5-4v-4.5l-8.5-1.5L93.563,99.136z"/>
						<path id="path2176" fill="#FFFFD0" stroke="#D0C0A0" d="M175.063,205.136v-4l-6.5-4.5l1.5-2.5l-4-1v-2l-5-0.5l-4-3.5l2.5-0.5
							l-6.5-3.5l-4-18.5l-8-2l-3.5-8l-6-3.5l-2-8l5-5l-1.5-5l5.5-1.5l8.5,1.5l1.5-4l5,4l-0.5-6l5-5l2,4l6-9l7.5,5h3.5v3.5l5.5,2
							l2,4.5l8,5l1-2l6,3l1.5,1.5l-0.5,1.5l4.5,1l1.5,2l-4.5,2l4,1.5l1.5,2v3.5l-1.5,1v2.5l3,1.5l0.5,1.5l-2,1.5l-4,3l1.5,2.5
							l-2.5,1.5l-1.5-2.5l-3-1l-0.5,1.5l-4-0.5l-2,2.5l5,4.5l-0.5,3.5l3,2l-3.5,4.5l-3.5,0.5l-3.5,4l-5,9.5v1l1.5,2.5l-2.5,1l5.5,4
							H175.063z"/>
						<path id="path3151" fill="#FFFFD0" stroke="#D0C0A0" d="M207.063,152.637v-3.5l-4.5-4l4.5-0.5l-3-3h-3.5l-1.5-4.5l3.5-3v3.5
							l2.5,2l4.5-4l0.5-6.5l6.5-5.5l-0.5-2l-4.5-0.5v-3.5l-2,1.5l-5-7h-4l1.5-9h7l1,2l-0.5,2.5l3,3l1-2l2.5-1v-2.5l-2.5-0.5
							l-0.5-4.5l5.5-4h4.5v-2.5l-1.5-1l-0.5-4l-1.5,0.5l-1,2l-1,1.5l-2-1l2-3.5l-1-2l-1-2v-2.5h2l3-3.5l1-2.5l-0.5-3l1.5-1.5h4.5
							l3,2.5l-2,2l-0.5,2.5l-0.5,1l1.5,3l2-1.5h5.5l1.5,4.5l5,8.5l-2,1v3l3,1l2.5,7.5h5l-5,4.5l5,1.5l3.5,1.5v1.5l-2.5,2.5l-4.5,4
							l0.5,5.5l-2.5,3.5l2,3.5l2,3.5l-3,3v3l2.5,0.5l-1,4l4.5,3.5v13l-2.5,5l-0.5,8l-1,4.5l-1.5,1.5l-0.5,5.5l-2.5-1.5l-3.5-2v3
							l2,1.5l-4.5,3.5l-2-0.5v-2l-1,1l-4-0.5v-2.5l2-1l-2-0.5v-2.5l1.5-4l-6-1.5l3.5-1.5l-2-3v-2l-4.5-4h-3.5l-1,2.5l-1.5-4l-6-3
							l-2-5.5l-2.5-2.5V152.637z"/>
						<path id="path2177" fill="#FFFFD0" stroke="#D0C0A0" d="M166.063,213.137l8.5,3l4-2l1-3.5l-4-5.5l11.5,0.5l-4.5-4.5l3.5-0.5
							l-2.5-4l7-11l2.5-3l2.5,1l4-5.5l-3.5-2l0.5-4.5l-4.5-3.5l1.5-2.5l4-1.5l4,1l0.5,4l4-2l-2.5-3.5l6-3.5l4,5.5l3.5,2.5l2,4.5
							l1.5-3h3l4,3.5v2l2.5,2.5l-5,2.5l7.5,1.5l-1.5,1.5v4.5l1,1l-1.5,0.5v2.5l4,0.5l2-2v2.5l1.5,1v8l2.5,5.5l0.5,3.5l-3.5,5
							l-2.5-0.5l-3.5,3l-0.5,4.5l-3.5,5l-3,3.5v2.5l1.5,2.5l2,0.5l-2.5,1.5l-1,3l-1-2l-5.5-0.5l-4.5,1.5l-1,2.5h-2.5l-1-2l-7.5-1.5
							l-2-2.5l-1.5-0.5l-1.5,2l-2.5-1.5l-1.5-0.5l-1,2l-4-0.5l-1.5-5h-2l-1.5-1.5l-5.5-0.5l-2,2.5l-3-2.5v-1.5l-4-5.5h-1.5l-2-2.5
							l-1-2.5L166.063,213.137z"/>
						<path id="path3152" fill="#FFFFD0" stroke="#D0C0A0" d="M140.563,263.637l-0.5-9l1-1l0.5-11l-3-3h-2.5l-1,2h-2l-2-4v-2.5
							l1.5-0.5l0.5-7.5l-3-0.5l1.5-1l-2-4l2.5-2.5l-0.5-3.5l1-7l6-2l2,0.5l4.5,3.5l5.5-1l2.5,3.5l7-1l5.5,2l-2,4l2.5,4l2.5,2l3.5,5
							l-0.5,1.5l4.5,3v2l-3,2.5l-2,1l2,3l-3,1l1,2l-3-1.5l-2.5,7h-2v4l1.5,1.5l-0.5,2l-2.5-0.5v-1.5h-5.5l-0.5-3.5l-3.5-1.5l-0.5,7
							h-1.5l0.5,2l3,2v1.5l-4.5,3l-1.5,1l-2.5-2l-2.5,3v-2h-2.5v2l-1-1.5h-3.5v-3L140.563,263.637z"/>
						<path id="path2179" fill="#FFFFD0" stroke="#D0C0A0" d="M135.563,267.636v-3.5l5-0.5l-1-9l2-0.5l-0.5-10.5l-3-5h-1l-2,2.5
							l-2.5,0.5l-2.5-4.5v-2h2l1.5-8h-5.5l3-1l-3-4l2-2.5l-4-0.5h-2l-6.5-4l-1.5,3.5l-3.5,2.5h-1l-2.5-3l-2.5,1.5l-6-3.5l-3.5-1
							l-1,2l-9.5-0.5l-2.5,5h-2.5v-3l-1.5-1.5l-1.5,2l-2-2.5h-3l-2.5-2l-1,2l-3.5,1.5l0,0l-0.5,4l4,2v1.5l-3.5,1.5v7l1,1.5l-2.5-0.5
							l-0.5,4.5l2.5,2l-2,2.5l-2.5,1.5v3l-2.5,0.5v2h3.5l3,3l0.5,5.5h1.5v-2l0.5-2h2l3.5,3.5v2l-3.5,6l-2.5,1l-4,0.5l-0.5,1.5
							l-4.5-1l-1.5,3l3.5,2l2-1h6l-2,3l2.5,1l5,0.5l1.5,3l-2.5,0.5l-2.5-1h-2l-0.5,1.5l3.5,1l3,1.5l0.5,1.5l2.5,1.5l5.5,1.5v3.5
							l2.5,1l3-4l2.5,3.5l-0.5,5.5l2,2l0.5-1h2.5l3-1.5l7-5h2l0.5,2l3.5-0.5l0,0l2.5,3l1-1h3.5l3,3.5l0.5-1l3-0.5l1.5,2v5l2.5,2
							l2.5,0.5l5.5,0.5v3l1,1h2l0.5-1.5v2h3l1,3l2-2.5l1.5,0.5l3.5-3v-5l-1.5-1v-3.5l4-6l1.5-2.5l-0.5-4.5l1-4l-2.5,2l-5.5,0.5
							l0.5-4.5l-3.5-6h-1l-4,4l-1.5-0.5l-4.5,4l-0.5-11l-2-1L135.563,267.636z"/>
						<path id="path2180" fill="#FFFFD0" stroke="#D0C0A0" d="M75.563,285.137l-3-2.5l-3.5-1l0.5-2l7,1.5l-1.5-3h-4.5l-4.5-2l2.5-3
							l-4.5-1l-2,2l-4-2l1-3.5l4,1.5l1-2l5.5,0.5l1.5-2l4-6.5l-5-5l-1.5,4.5l-3,0.5l1-5l-3-3.5l-3-0.5l-1.5,3.5l-6-0.5l-1,4h-1.5
							l-0.5,2h3.5v2.5l-2,3l-1-3l0,0l-2.5,2.5l-1-2.5l-3-2l-1.5,3l1.5-5l-5-3.5l0.5-3l-3.5-0.5l-0.5,1.5h-4l-4,2.5l-0.5,2.5l2.5,2.5
							l1,7l-9,6l1,4l-3-0.5l-1.5,1.5l-0.5,4l-0.5,3.5l-0.5,2.5l-2.5-0.5l-2.5,1.5l1.5,1.5l2.5,2l-0.5,2l5.5,3.5l-0.5,3l3,3l-1.5,4.5
							l2,4l2.5,3h3.5l3,3l2,2.5l3.5-0.5l12.5,4h5v-2.5h-0.5l-2.5-4v-7l-2.5-3v-4.5l6-3l4-0.5l0,0l5.5-3.5l-0.5-4h10.5l1-1l-2-1.5
							l-2,1l-3.5-2L75.563,285.137z"/>
					</g>
					<path id="path2184" fill="#FFFFD0" stroke="#D0C0A0" d="M135.063,282.637l-0.5-10.5l-2-1.5l4-3.5h3l1.5,3.5l0.5-3.5h1.5v3
						l3.5-4.5l2.5,2.5l6-5l-5-5l2.5,1l0.5-7.5l3,1.5l0.5,3l5.5,0.5v2h4l-0.5-3l-2.5-1.5v-3l2.5,0.5l3-8l3.5,2l-1.5-3h3.5l-2.5-3.5
						l5-3l0.5-3.5l-2-0.5l2-2l5.5,1l3.5,2l1,4.5l4.5,1l1-2.5l4.5,2.5l1.5-3l4,4l6,1l2.5,2.5h2l1.5-3.5l8.5-1l1.5,2.5l1.5,0.5l-1.5,4
						h2l1,3.5l-2,3l2,1.5l-1,2.5l2,3l0.5,3.5l-2.5,0.5v4.5l4,4.5h3.5l1.5,2.5l-1,1.5h-7l-1,1.5v3h-1v3.5l-5,7l-3.5-3.5l-2.5,1.5
						l-2-2v2.5l-2,2l-0.5,4l2,1l-1,2.5l0.5,1l3-0.5l3,2.5l-2,2.5l3.5,2l-2,2.5h-3l-0.5,2l-3-1l-2-3l-0.5,2.5h-3l-1.5-2l-4,2
						l-3.5,0.5l-4-2.5l-10,0.5v-2.5l-2.5-3.5h-1.5l-3-3l-4-0.5l-2,1.5l1,4l-0.5,1.5l-5.5-4.5v-2l2-1.5l-1-2.5l-3,2.5l-1.5-1.5
						l-2.5,5.5l-3.5-7l2.5-3l-0.5-7.5l-2.5,2.5l-5-0.5l0.5-2.5l-4.5-7.5l-3.5,4l-1.5-2L135.063,282.637z"/>
				</g>
				<path id="path3179" fill="#FFFFD0" stroke="#D0C0A0" d="M122.063,372.136v-2.5l5-0.5l-1-2.5l-6.5-1l2-2l-2-1l3-1.5l-2-3l8-3
					l-2.5-4v-3l-5,0.5l-2-5l6.5-4.5l-1-16l5-3.5l-3.5-3.5h-3l4.5-3l5,1l2-4l-0.5-2h3.5l-0.5,2.5l3,2.5l4,0.5l3.5,0.5l4.5-3l0.5-5.5
					h-2v-4.5l4-5l3.5,6l2-5l2,1l3-3l1.5,2l-3,3.5l6,4.5l0.5-2l-2-2.5l2.5-2.5l4.5,1l3,2.5l3,2.5l1.5,3.5l1.5,1.5l-8.5,11.5l-5,6
					l3,1.5l1,3l2.5,1.5l0.5,9.5l-4,4v2.5l-2.5-0.5l-4.5,9l-3.5,2h-3l-1.5,3.5l-4.5,3.5l-9,2l-2-2l-1.5-0.5l-2,3.5v3.5l-6-0.5l-5-1.5
					l-2,2.5L122.063,372.136z"/>
			</g>
		</g>
		<path id="path4248" fill="#FFFFD0" stroke="#D0C0A0" d="M177.063,340.637v-7.5l-2.5-2v-2l-3.5-3l13.5-16.5l-1-2h9l3.5,3h3.5
			l4.5-2.5l4,2l1-3.5l2,4l3.5,1v-2.5h2.5l2.5-2l-4-2.5l2-2l-3.5-3l-3,0.5l-1-0.5l2.5-2.5l-2.5-1.5l1.5-5.5v-3.5l2.5,2.5l3-1l3,3
			l6.5-7l-1-3l1-5l6,0.5l2,2.5l1.5,1.5l1-2h1.5l2.5,2.5l1.5,0.5l0.5,3l-3,0.5l-0.5,1.5l3,2.5v7.5l-1,4h-3l2.5,3l0.5,3.5l-2.5,1.5
			l-0.5,3l-2-0.5l-2.5,3l2.5,3.5v4l-3.5,2.5l-1.5,2.5l7,7.5l-3,3l0.5,2l3.5,2.5l2.5,4l-1,14.5l1.5,2l-1.5,1.5v2l1.5,0.5l2,2v1.5
			l1.5,1.5l-0.5,6l-3.5,7l-6.5,2.5h-3.5l-4-5l-6-4.5h-4.5l-6.5-5.5l-5-1l-0.5-2.5l2.5-1l0.5-3.5l-2-1l1.5-1v-2l-2-2.5l-1.5,1l-4.5,1
			l-1.5-1v-3.5l2-1c0,0,0-3-2-3c-2,0-2.5,0-2.5,0l-1.5,2.5h-1l-1-3v-4l-4.5-3l-4-1L177.063,340.637z"/>
	</g>
	<path id="path5240" fill="#FFFFD0" stroke="#D0C0A0" d="M333.922,908.647v-8.76l5.083-8.76l6.354,6.257l25.417-5.006l12.709-10.015
		l2.542-10.011l7.625,2.503l11.438-6.258l7.625-22.524l7.626,3.757l1.271-10.014l10.167-10.011l26.688,6.257l8.896,3.754v12.518
		l3.813,7.509l8.896-5.006l7.626,2.503l-5.084,3.754v10.011l5.084,3.755h11.438l5.084-6.258l5.083,8.76l-7.625,6.258h6.354v7.512
		l-7.626,3.754l2.542,8.76l11.438,1.252l16.521,13.768l11.438-1.25l16.521,13.765l8.896,12.514l-12.709,2.503v7.511l-5.083,1.25
		l1.271,11.266l6.354,7.508l10.167-2.502l5.084,15.019h-5.084l-10.167-11.265l3.813,15.021l15.251,2.502l11.438,7.509l-11.438,3.754
		l-6.354,3.755l-15.251-1.252l-15.25-6.257l-17.793,5.006l-11.438,5.005l-30.502-18.771l-5.084-12.515l-15.25-16.269h-6.354
		l5.083,12.514l-6.354,7.509l-13.979-2.504l-8.896-12.514l-12.709-13.771l-5.083-2.504h-17.791l-7.625-5.007h-13.98l-7.625-1.251
		l-10.167,8.762v-6.259l-10.167-3.755l-5.083-10.011l2.542-16.271L333.922,908.647L333.922,908.647z"/>
	<path id="path4161" fill="none" stroke="#000000" d="M572.85,1027.528L572.85,1027.528z"/>
	<g id="g7076" transform="matrix(2.5417852,0,0,2.5027642,-20.817184,-25.22581)">
		<path id="path3188" fill="#FFFFD0" stroke="#D0C0A0" stroke-width="2" d="M98.563,363.637h5.5l5,4.5l7,4l5.5,0.5l5.5,1l2-3.5
			l4,2.5h6.5l3,5.5l-1,4.5l1.5,4.5l2,0.5l2.5,0.5v3l4.5,2l1.5,4l2-2.5l2.5,1.5l3,3.5l7-0.5l-5-4.5l6-1.5l5.5,4l-4,1.5l0.5,3l4.5,3.5
			l3,2l3-0.5l2,1l-0.5,4.5l-0.5,7l-3.5,4l1,2.5h-3.5l-6-4l-1.5-0.5l-1,3h-4.5l-2.5,3.5l-3-1l-4,3.5l-0.5-4.5h-3l0.5-3l-3.5-1l-0.5,2
			l2.5,3.5l-3.5,1l-0.293,3.384l-3.707,1.616v-6.5l-0.5-4.5l-2-2.5l-2,1.5l-2.5,3.5l-2.5-6l-4-1l2.5-3l-4.5-1l-3.5-2.5l2-2v-2
			l-3,0.5l-2-1.5l3.5-2l-1.5-4l-2-2.5l-3.5,2l-1.5-5l-1.5-2h-1.5v4l-5.5-6l-2-2.5l-0.5-3l3.5-1l-4.5-2.5l3-1.5l-6-4.5
			L98.563,363.637z"/>
		<path id="path4163" fill="#FFFFD0" stroke="#D0C0A0" stroke-width="2" d="M182.563,414.137v-6.5l-2.5-2l3-1.5l7,0.5l4,0.5l2.5,3
			v3.5l1,3.5l7.5,4.5l-2-5.5l4-0.5l1,2.5l2.5,1.5l7-4.5l2.5,1.5l-0.5,2.5l2.5,3v-4l11-0.5l5.5,1l3.5,4.5l0.5,5.5l-4.5-3.5l-3.5-4.5
			h-12l-0.5,2h10l5,3.5l6.5,5l2.5,2l2,1l-2.5,1l-0.5,2.5h-5l-0.5,2.5l-3.5-1v7l4,2.5l-1,2.5h-3.5l-1-2.5l-1,2.5l-5-0.499l-1-6
			l-6,5.5h-2.5l-1-4.5h-2l-1,2l-5-2.5l-1,2l3,1.999l-3,1.501l-2-0.5v-2.5l-4-0.499l-2-5.5l-5-3.5l-0.5-3l-7-0.5l-1,1.5l-6-5.5l-1-3
			l-1.5-3l3.5-3.5V414.137z"/>
		<path id="path5134" fill="#FFFFD0" stroke="#D0C0A0" stroke-width="2" d="M106.063,391.137l6,6.5l0.5-5l3,3v3l1.5,2l3-3l3.5,5.5
			l-4.5,3l3,2.5l3-1l1,2l-3.5,1.5v1l-0.5,3l-2.5-1.5l-2,3l0.5,4.5l-4.5,0.5l0.125,9.5l-4.125,4.375l-3.875,0.625l-2.625,2l-2-0.5
			l-6.5,5.5l-1,1.5l-7.25,0.375l0.75-5.375l-3.5-1l-1-2l2.5-1.5l1-3.5l-2.5-1l0.5-5.5l2.5-2.5l-3.5-5l2.5,1l3-3v-1l-1.5-1.5l0.5-5.5
			l-1-1l3-1.5l2.5,1v3l1.726-2.205l3.024-0.17l5.25-5.625l3.25-0.375l1.125-3l-0.875-4.125L106.063,391.137z"/>
		<path id="path6105" fill="#FFFFD0" stroke="#D0C0A0" stroke-width="2" d="M92.563,444.637l8.5-6.5l2.5,0.5l2-2.5l4.177-0.914
			l3.47-4.147l0.353-9.439l3.97-0.561l-0.97-4.439l3-2.5l2.5,2l1.03-4.531l2.47,2.53l5.768,0.5l-3.268,3.001l4,1.5l1.061,2.323
			l2.939,3.677l1-2.5l2.5-2.5l2,2.5l0.561,11.353l-0.061,6.647l-1.5,5.5l-1.291,1.739l-3.209,0.762v1.5l2,1.5l-0.5,2.5l-5.5-1l-3,1
			l2.341,0.574l1.659,3.427l-0.5,7l-2.5,1l2.912,1.674l1.088,2.326l-5.384,4.207l-4.616,0.177l-0.5,4.616h-3.5l-2.853-2.263
			l-3.147,1.263h-4.5l-1.5-1.5v-6l1.5-4.5l3,1l-0.384-3.323l1.177-2.97l-1.293-1.324l-2.5-0.384l2.177,2.146l-3.677,2.854l-2-1.999
			l0.5-2l-1.738-1.616l-3.787-1.899l-6.475-4.985l1.5-3.5L92.563,444.637z"/>
	</g>
	<path id="path7082" fill="#FFFFD0" stroke="#D0C0A0" stroke-width="2" d="M255.126,1168.935l15.25,3.754l7.625-5.004l5.083,6.256
		l10.167,1.252l1.271-13.766l8.896,1.252l16.521-10.012l-1.271-6.262l-10.167-6.256l5.083-2.502l2.542-17.52l-3.813-6.262
		l-6.354-3.754l7.625-3.754l15.251,6.256l1.271-6.256l-5.083-6.258l-1.271-3.754h7.625l10.167-17.521l-1.271-20.02l8.896-3.754
		l3.813-8.762h6.354v-5.008l-6.354-7.508l1.271-5.006l7.625,3.755v6.257l7.625,2.502l1.271,7.513h5.084l5.083-7.513l8.896,3.758
		l6.354-8.763h11.438l3.813-7.509l15.251,10.669l10.167,1.845l1.271,5.008l17.793,15.019l1.271,7.508l-2.542,3.755h-3.813
		l-2.542,5.006l3.813,3.758l1.271,5.004l-3.813,1.252v7.508l5.083,2.504l-1.271,2.502h-6.354l-6.354,10.014l1.271,13.768
		l-1.271,13.764l-3.813,6.26l-5.084,5.008l-6.354-1.252l-7.625,15.018l-1.271,8.76l5.083,1.25l-5.083,3.754v6.26l-6.355,6.258
		l-5.083-5.006l-2.542,3.754l3.813,10.012l-8.896,3.756l-21.604,3.754l-6.354-15.018h-10.167l-5.084-11.264l7.625-5.006
		l-12.709-5.008l-5.083-3.754l-3.813,3.754l7.625,10.014H335.19l-10.167,5.006l7.625,7.51l7.625,3.754l-10.167,1.252l-16.521-5.006
		l-3.813,1.252l7.625,5.004l-3.813,8.76l-3.813,6.258l-1.271,6.258h-21.606l-12.708-6.258v8.764l-12.709-1.252l-2.542-6.26
		l-10.167-1.252l-6.354-3.754v-6.258l-7.625-5.006v-6.256l2.542-5.006l10.167-2.502l-1.271-6.26L255.126,1168.935L255.126,1168.935z
		"/>
	<path id="path8053" fill="#FFFFD0" stroke="#D0C0A0" stroke-width="2" d="M422.884,1173.94l-6.354-3.754v-6.258l8.896-15.02
		l6.354,1.25l10.167-12.514v-15.016l-1.271-12.518l3.813-10.012h8.896l2.542-3.754l-6.354-1.252v-8.76h3.813v-5.008l-5.084-5.007
		l1.271-5.005l6.354,2.503l2.541-5.006l-1.271-7.509l1.271-3.754l16.522,1.252l2.541,6.257l12.709,10.011l3.813,12.516l5.083,6.258
		v8.76l5.084,6.258l5.083,2.502v5.006h-6.354l-5.083,3.756l1.271,3.756H518.2l10.167,6.258l2.542,8.76h3.813v13.766l8.896,13.77
		l2.542,7.508l-11.438-7.508l-5.083,5.004l6.354,2.504v16.268h-15.251l-6.354,11.266l-6.354,2.504l-8.896-11.264l-5.083,2.504
		l-7.626,10.01l-5.083,2.504h-2.542l-6.354-7.508l-3.813,1.25l-7.626-8.76h-1.271l-2.542,2.504h-6.354l-6.354-5.008l-1.271-7.51
		l-7.625,1.25L422.884,1173.94L422.884,1173.94z"/>
	<path id="path2204" fill="#FFFFD0" stroke="#D0C0A0" stroke-width="2" d="M307.233,1216.487l10.167-17.52l-10.167-8.76h7.625
		l12.709,6.258h13.979l-16.521-12.52l6.354-5.004l17.792,1.25l-8.896-10.01l3.813-6.258l2.542,5.006l15.25,5.006l-6.354,5.006
		l3.813,10.014l11.438,1.252l5.084,15.016l15.25-2.502l16.521-3.754l-5.083-10.016l1.271-5.006l6.354,5.006l7.625-6.256l-2.542-7.51
		l5.084-2.502l16.521,11.262l6.354-1.25l1.271,6.256l7.626,7.51l6.354,1.252l3.813-5.008l6.354,8.764l11.438,3.754l-3.813,6.258
		l6.354,3.754l-3.813,3.754l1.271,15.018l-3.813,5.01l2.542,11.262l-11.438,1.252v3.754l6.354,2.502l1.271,5.006l-3.813,1.252
		l1.271,8.762l11.438-7.512h3.813l-1.271,12.518l7.626,2.504v2.502h11.438l2.542,3.754l-2.542,8.76l7.625,12.518
		c0,0,6.354,8.76,1.271,8.76c-5.084,0-7.626,0-7.626,0l-8.896-2.502l-3.813-3.754l-6.354-15.021l-3.813-3.754l-8.896,6.258
		l2.541,8.76l-7.625,11.266l-16.521,7.508l-1.271,6.258l5.083,6.256l-1.271,16.271l-1.271,5.006l-13.979-6.258v-6.256l-5.084-1.252
		l-1.271,3.754l-11.438,10.012l-7.625-1.252l-11.438,6.258h-7.625l0,0l-8.896-6.258l-1.271,1.252l-5.083-3.754l-1.271-6.258
		l7.625-1.252l-8.896-11.262l7.625,1.25l1.271-3.756l-5.083-8.76l-10.167-6.258l-1.271,7.508h-19.699l-8.261-6.256l-6.354-3.754l0,0
		l5.083,11.887l-5.083,5.008l-19.063-2.504l-5.084-5.631l-6.354,3.754h-5.083l3.813-7.508l-15.251-6.258l2.542-22.525l7.625-2.502
		l-3.813-6.258v-6.256l-5.083-3.754l10.167-16.271l12.709-5.006l-1.271-10.01l12.709-8.76l5.083,3.754l3.813-7.512l-5.083-2.502
		l-1.271-6.258l-11.438,8.762l-6.354-3.756L307.233,1216.487L307.233,1216.487z"/>
	<path id="path2205" fill="#FFFFD0" stroke="#D0C0A0" stroke-width="2" d="M480.074,1216.487l-6.354-8.76l10.167-1.252
		l10.168-10.012l3.813-3.754l7.625,11.264l8.896-3.754l6.354-8.76h13.979l3.813,10.01h10.168l1.271,2.504l-8.896,10.01l3.813,7.51
		h13.98l6.354,7.512v5.006l-3.813,6.256l3.813,1.252l8.896-6.258l10.167,1.252l-1.271,8.76l-3.813,8.76l-5.084,10.016h-6.354
		l-10.166-2.506l16.521,13.768l5.084,7.508l5.084,12.516l13.979,8.762v6.258l-3.813,1.252l-11.438,2.502l-29.229-11.266
		l-10.167,11.266l-16.521-8.762l-5.084,7.51h-3.813l-13.979-16.271l5.082-7.508l-3.813-7.508l-12.709-1.252l-6.354-6.256
		l2.541-10.014l-5.084-1.252l-11.438,11.266l2.542-10.014l-1.271-7.51l-7.625-2.504l13.979-2.502l-2.542-11.262l5.084-5.006
		L480.074,1216.487L480.074,1216.487z"/>
	<path id="path2206" fill="#FFFFD0" stroke="#D0C0A0" stroke-width="2" d="M333.922,1315.347l8.896,11.262l-6.354,7.51l-7.625-5.006
		l-10.167,1.252l-5.083-5.006l-11.438,6.256l2.542,10.012l7.625,8.764l3.813-6.26l5.083,2.506l-1.271,6.256l5.083,2.504
		l-1.271,7.508l-7.625,7.508l5.083,5.01l-5.083,1.25l-1.271,11.264l-7.625-3.754l2.542,11.262l10.167,13.768l-11.438,21.271
		l12.709,8.76l-2.542,7.51l-2.542,10.014l11.438,8.76l-2.542,11.262l7.625,12.518l1.271,13.766l5.083,3.754l-11.438,3.756
		l1.271,7.508l5.083,3.754l-5.083,21.273l12.708,1.252l2.542,10.012l-10.167-2.504v6.258l7.625,8.762l7.625,1.252v11.262l8.896,7.51
		l1.271,16.27l11.438-2.504l-8.896,12.518h-11.438l-1.271,10.01l3.813,12.516l11.438,20.021l-3.813,2.502l-1.271,30.033
		l8.896,11.262l1.271,16.27l1.271,8.764l15.251,7.508l11.438-5.006l7.625,15.018l-2.542,6.26l7.625,7.508l-5.083,11.264
		l-11.438,12.514l15.25,6.26l15.251-3.756l-2.542-6.258h8.896l1.271-7.51l-6.354-3.754l5.084-7.51v-25.025l-5.084-2.504l10.807-8.76
		l8.261-23.775l7.626-7.508l-3.813-11.266l-10.166-18.771l-10.168-20.021l-3.813-8.76l8.896-8.76h-21.604l12.709-17.521
		l6.354-13.768l5.084-31.283l-12.709-20.021v-6.258l7.625-6.258l-12.709-8.762l1.271-23.773l11.438-6.26l-11.438-21.27l1.271-28.783
		l7.625-8.758l6.354,11.262l7.625-10.012l-2.541-6.256l-7.626-1.252l-5.083-5.006l5.083-10.014l2.542,5.006l6.354,2.506l2.543-8.764
		l6.354-3.754l-1.271-6.258l-11.438-18.77l-12.709-6.26l-6.354-11.264l-2.543-3.756l-10.166,7.51l-8.896,1.25l-7.625-7.508
		l-3.813,2.504l-5.084-11.264l7.625-2.502l-11.438-11.266l10.167,2.504l-5.083-15.02l-7.625-5.004l-1.271,8.76h-20.337
		L333.922,1315.347L333.922,1315.347z"/>
	<path id="path2208" fill="#F7D3AA" stroke="#646464" stroke-width="0.5" d="M355.527,1682.001l-11.438,5.006l2.542,10.012
		l7.625,11.262l-6.354,21.273l1.271,7.51l10.167,2.502l11.438,16.268l10.167,1.252l3.813-7.508l-1.271-7.51l-5.084-6.256
		l-8.896-1.252l-8.896-7.508l1.271-21.273L355.527,1682.001L355.527,1682.001z"/>
	<path id="path3186" fill="#FFFFD0" stroke="#D0C0A0" stroke-width="2" d="M447.667,1404.819l-4.448,1.877l-1.902,9.387
		l-6.354-3.129l-2.542-6.883l-6.988,11.262l5.086,5.633l8.261,0.625l3.177,7.512l-7.625,10.012l-6.354-10.637l-8.265,7.508
		l-0.636,26.904l12.073,23.773l-12.073,6.256l-1.271,23.15l12.071,9.387l-6.989,4.379l-0.636,6.887l13.345,21.27l-5.72,30.033
		l-17.792,31.91l20.971-0.625l-8.263,8.76l22.241,46.926l5.083,12.52l8.261,2.502l0.637,8.135l-13.346,2.502l-10.167,16.896
		l5.722,5.006l3.813,11.262h5.719l1.906,10.012l3.813,12.518l15.889,1.252l9.529-14.395l5.084-3.129l5.085-9.385l-2.541-5.633
		l-3.182-7.51l-12.071-7.51l9.529-5.006l17.157-17.52l1.271-13.77l0.637-15.643h5.084l8.896-32.535l0.639-25.652l-5.723-23.773
		l17.157-16.896l3.813-8.135l5.719-1.25l7.626-12.516v-15.645l-11.438-33.162l-6.354-3.129v-15.016l-8.896-18.771l-2.541-21.271
		l5.083-11.893l10.168-10.01l6.354-21.896l5.084-4.381l4.448,3.129l9.53-9.389l4.445-8.76l-1.905-10.01l-3.813-3.756v-8.135
		l13.345-0.627l8.262-6.883l5.084-26.279l-29.229-10.012l-12.709,11.264l-14.615-8.76l-6.354,8.135l-6.354,3.756l-14.612-1.877
		l-5.722-3.756l-10.167-19.396l-9.532,3.754l3.182,10.012l-9.532,11.266l-15.886,7.51l-1.906,5.004l5.083,5.633l-1.271,24.4
		l-14.611-6.883l1.271-6.258l-5.719-2.504l-0.636,4.381l-11.438,10.012l-8.261-1.25l8.896,15.016l12.709,5.633l9.53,16.27
		L447.667,1404.819L447.667,1404.819z"/>
	<path id="path4157" fill="#FFFFD0" stroke="#D0C0A0" stroke-width="0.75" d="M435.593,1734.56l-2.541,22.523l13.979,8.762
		l3.813-13.77L435.593,1734.56L435.593,1734.56z"/>
	<path id="path5128" fill="#F07568" stroke="#E0584E" stroke-width="2" d="M495.735,1088.349l8.088,1.77l0.897,6.193l5.394,2.654
		l8.088-4.424l-8.986-5.313l3.598-4.424l13.479,5.313l1.797-5.313l4.493,0.885l2.696,10.617l7.188,0.885l14.382-14.152l2.692,15.041
		l12.581,1.77l2.696-7.078l3.595,6.193l8.088,0.885l3.595-6.191l-10.78-5.311v-20.354l8.982,3.537l1.798-6.189h12.581l0.898-6.194
		h2.693l7.188,1.771l2.696,7.079l26.062,5.31l8.986,10.619h7.188l4.492,10.617l27.858,4.424l16.176,11.504l8.088,14.158
		l0.898,16.813h-7.189l-0.896,13.271l-7.188,6.191l9.886,6.193l-4.492,11.506l-5.396,16.813l-6.29-2.652l-9.886-6.193l-4.493,12.389
		l-4.493-0.887l-0.896-6.189h-5.395l-6.291-9.732l-8.089-0.885l6.29,7.963l-7.188,0.885l-9.89,6.193l-0.896-9.732h-8.088
		l-5.396,4.424l-4.49-7.078l-8.09-0.885l-15.273,15.041l-20.67,0.887l-1.799,5.313l8.09,4.424l-0.898,4.424l-2.693,4.428
		l-11.686,9.73h-8.986l-4.49-5.311h-13.479l-4.493-7.965l8.987-9.73l-11.683-2.654l-2.696-9.732v-16.813l-6.291-4.426l5.394-5.313
		l14.377,10.619l-5.392-9.732l-9.886-15.043l0.896-12.389h-2.692l-4.493-7.965l-7.189-6.191l-21.564-0.887l-0.897-3.539l5.395-4.426
		h6.287l0.899-3.539l-9.886-8.848L495.735,1088.349L495.735,1088.349z"/>
	<path id="path6099" fill="#FFFFD0" stroke="#D0C0A0" stroke-width="2" d="M598.182,1310.448l0.898-5.311l-12.581-7.078
		l-6.291-15.928l-17.973-17.697l12.581,0.885l7.188-17.697l1.797-9.729l-8.982-3.539l-10.784,7.963l-1.797-1.771l2.692-7.965v-4.424
		h5.396l16.176-10.617l1.797-7.965l-8.983-5.311l1.798-6.193l17.073,0.887l17.072-14.156l8.088,0.885l6.291,5.313l5.396-4.428
		l6.291,0.887l1.797,9.732l8.088-5.309l9.886-0.889l-5.393-9.73l5.393,0.885l7.188,10.619h4.493l2.693,7.078h3.598l3.595,13.271
		l-4.493,15.043l-11.683,6.191c0,0,3.595,7.965,0,7.965c-3.599,0-11.687,0-11.687,0l-5.392,19.467l10.783,6.193l4.492-7.963
		l6.291-3.539l11.684,7.078l4.493,4.424l9.886-8.848l11.683,6.191l-4.492,3.539l-0.896,8.852l11.684,3.537l-4.491,1.77v11.504
		h-9.888l-3.595,7.965l-10.784,4.424v7.965l-3.595,0.887v4.426l-7.188,5.309l-3.596,14.158l-3.595,5.311l-0.897,3.539l-8.983,1.771
		h-12.587l-1.799,9.73h-2.694l-9.886-6.193l-14.379,0.887l-12.582-7.078l-1.797-6.191l8.088-7.08l-13.479-8.852L598.182,1310.448
		L598.182,1310.448z"/>
	<path id="path7070" fill="#FFFFD0" stroke="#D0C0A0" stroke-width="2" d="M583.805,1314.872l14.379-5.309l-1.799,15.928
		l14.379,5.313l-8.982,8.848l1.797,8.852l12.581,8.85l16.176-5.313l10.784,12.393l1.797,24.771l-12.581,5.313l-7.188,3.541
		l-1.8,12.387h17.976l3.595,3.539v19.469l7.189,17.697l-5.396,8.848l7.189,23.01l-14.379-7.08l-10.784-5.311l-3.594,3.539
		l19.77,14.158v5.309h-5.392l-8.986,10.617v23.008l-10.784,17.697l-3.595,10.617l-1.797,21.234l10.783,15.93l3.595,19.467
		l-14.378,19.467l5.392,12.393l-1.797,23.006l7.189,19.467v10.619h-7.189v10.617l-25.163,15.928l-8.983-7.078l-21.566-1.77
		l-12.581,3.539l23.364,17.695l-5.395,10.617H547.86l-14.378-3.539l8.984,17.697l-12.582,3.539l-14.379-5.313l5.395-12.389
		l-10.783-15.928v-14.156l-1.798-14.158l3.595-28.313l-3.595-15.928l8.987-24.775l1.797-30.086l-7.189-26.545l21.568-17.697
		l12.581-8.85l3.595-28.314l-14.379-28.314l-5.395-5.311v-12.389l-8.984-17.697l-3.596-23.006l16.178-26.545l7.188-21.236h10.784
		l12.581-14.156v-12.391l-7.188-5.311v-10.617l19.771,1.771l5.394-14.158L583.805,1314.872L583.805,1314.872z"/>
	<path id="path8041" fill="#FFFFD0" stroke="#D0C0A0" stroke-width="2" d="M549.973,553.255l17.793-18.771l-1.271-11.263
		l8.896-10.012l8.896,1.252l7.626-10.015l-1.271-12.514l-6.354-11.263v-21.273l12.709-8.76l-6.354-3.754v-8.762l13.979,10.013
		l-3.813,20.021l7.625,7.512l-1.271,10.011l8.896,6.257h8.896l6.354-8.759l11.438,2.502l7.625-1.251v18.771l-2.542,2.503
		l-7.625-5.006l-3.813,17.521l-7.627,7.509l3.813,8.76l10.167-1.252l-1.271,6.257l-5.082,6.257l-1.271,10.016l11.438,8.759
		l-1.271,7.509l-8.896,5.006l1.271,5.005h-6.354v6.26l6.354,12.516l1.271,7.508l7.627-1.251l6.354,7.508l-2.542,7.511l8.896,3.756
		l29.23,7.508l2.542,8.76l16.521-13.765l24.146,11.262l-1.271,15.019l-11.438,12.516l-8.896-1.251h-20.334l-11.438,2.503
		l-19.063,22.523l-6.354-8.762l-2.542-3.755l-8.896-3.754v7.509l-10.168,6.257l-5.082-3.755l-3.813,7.512l3.813,7.509l7.625,5.006
		l-2.543,5.006l-3.813-1.26l-5.083,11.263h-6.354v8.76l-7.625,2.504v13.768l-6.354,2.503l-10.167-1.251v-11.265l-7.625-6.259
		l10.167-1.253l3.813-26.275l-10.168-11.266l7.625-1.252l1.271-8.759l-11.438-7.509l-5.084-1.251l-2.541,5.005l-7.63-8.76h3.813
		l2.541-6.258l-1.271-6.259l-8.896,1.252l-10.167-11.264l-1.271-10.011l6.354-1.252l-1.271-11.265l-5.08-6.259l1.271-6.257
		l-5.084-5.005l5.084-5.006v-11.267h-8.896l7.625-8.762l-6.354-3.754l3.813-8.76L549.973,553.255L549.973,553.255z"/>
	<path id="path2215" fill="#FFFFD0" stroke="#D0C0A0" stroke-width="2" d="M594.455,936.178l10.167-16.271l-1.271-15.017
		l-5.084-11.265l-7.625-2.504v-5.007l3.813-3.754l-3.813-5.006l2.541-15.017l1.271-22.524l-17.793-18.771l8.896-11.267
		l-17.793-16.268l11.438-12.517l2.542-15.019l-8.896-7.508l8.896-6.257l3.813,2.502l6.354-10.014l11.438,3.754l1.271-6.257
		l5.083-8.76l3.813-6.257l2.541-6.258l5.084-3.756l6.354-8.762l6.354,1.253v-5.007l-8.896-7.508l-1.271-6.258l1.271-6.258
		l3.813,5.006l12.709-7.51l1.271-7.51l7.626,3.756l10.167,13.768l15.251-22.524l12.709-5.006l7.625,3.754l1.271,11.265h11.438
		v21.271L719,715.913v6.258l-6.354,8.762l-1.271,7.509l8.896,20.021l26.688,16.269l-6.354,2.503l-3.813,8.761l11.438,20.021
		l1.271,8.76l-3.813,6.257l8.896,22.524l8.896,3.755l6.354,2.502l2.542,3.756l-10.168,5.004v11.266l-7.625,2.504l-6.354,5.006
		l-5.084,13.765l1.271,18.771l-8.896,1.253l-5.084-5.008l-1.271,6.259h-3.813l1.271,8.76l-13.979,13.769l-10.171,6.258h-3.813
		l-11.438-7.511l-7.625,7.511h-3.813l-7.626-5.008v8.762l-6.354,6.257l-2.543-10.011l-5.082-2.504l-11.438,12.515l-7.625,2.503
		l-6.354,6.257l-3.813-7.509l-5.084,8.761h-7.625l-7.625-6.258l-2.542,3.754l-5.084-7.508L594.455,936.178L594.455,936.178z"/>
	<path id="path3189" fill="#FFFFD0" stroke="#D0C0A0" stroke-width="2" d="M593.184,937.429l-20.334,6.257l-12.709,1.252
		l1.271,12.514l11.438,13.77l15.25,13.765l1.271,7.509l5.084,6.26l-1.271,12.515l13.979,18.771l15.251,10.014l15.251,3.756
		l6.354,7.508h-13.979l10.168,10.012l6.354-3.755l6.354,12.517l22.876,6.259l7.625-6.259v-13.768l16.521-2.503l11.438-5.006
		l29.23,5.006l-7.626-21.271l12.709-13.768l-25.417-5.005l-8.896-11.264l-6.354-13.769l-8.896-5.005l-6.354-16.269l-12.709-6.259
		l10.167-8.762l-24.146-1.251l-2.542-10.011l-6.354-2.503l-12.709,12.514l-3.813-2.503l-8.896,10.014l-3.813-6.26l-5.083,11.266
		l-7.626-2.504l-6.354-5.006l-3.813,5.006l-5.084-7.51L593.184,937.429L593.184,937.429z"/>
	<path id="path4160" fill="#FFFFD0" stroke="#D0C0A0" stroke-width="2" d="M675.792,1076.333l6.354-7.509v-12.514l21.604-2.503
		l7.625-5.006l27.96,6.258l-6.354-22.525l12.709-11.263l-21.605-6.257l-6.354-1.251l-12.709-23.776l-10.167-5.006l-3.813-16.268
		l-13.979-8.764l10.167-7.508l-21.604-2.503l1.271-6.257v-7.509l10.167,7.509l11.438-8.762l15.251,7.51l11.438-5.005l7.625,12.514
		l10.168-5.006l10.167-2.503l3.813,6.257l6.354-18.771l11.438,17.521l-10.167,8.76l8.896,2.502l19.063,2.503l1.271,23.776
		l10.167-2.503l6.354,6.257h8.896l6.354-5.005h6.354l1.271,10.011v8.763l-2.541,7.51l11.438,32.533l5.084,5.008l-5.084,2.503
		l-21.605,10.011l8.896,15.018l-3.813,13.768l-11.438-10.012l-3.813,6.258l-3.813,16.268l-8.896-2.502l5.084-15.018l-11.438-6.256
		l-6.354-7.512l-19.063-3.755l-7.626,11.263l-1.271,6.26l-1.271,17.52l-6.354,7.512l-8.896-5.008l-1.271,10.012l-3.813,6.258
		l-12.709-6.258l-1.271-11.264l-3.813-12.514l-10.167-6.258L675.792,1076.333L675.792,1076.333z"/>
	<path id="path5131" fill="#FFFFD0" stroke="#D0C0A0" stroke-width="2" d="M812.063,1291.866l-17.977,5.313l-10.781,7.078
		l-3.598,8.85l-12.271-9.152l-9.296-12.084l5.393-10.615l7.188-10.617l-10.782-10.619l-8.986-15.928l-12.581-8.852l-5.393-23.008
		l16.176-12.387l12.582-23.008l10.783-15.928l17.974,1.77l16.176,12.389l7.188,12.389h14.379h12.581l5.393,12.391l1.8,12.389
		l5.393,19.467l-7.188,15.93l-10.563,8.025l6.881,10.707l-23.274,6.043L812.063,1291.866L812.063,1291.866z"/>
	<path id="path6102" fill="#FFFFD0" stroke="#D0C0A0" stroke-width="2" d="M708.835,1140.153l16.521,1.25l10.167,8.76l11.438,5.008
		l25.418,7.51l-5.084,8.76l-17.792,28.783l-16.521,11.262l3.813,22.525l15.25,11.262l7.626,17.52l12.709,8.764l-13.979,18.77
		l10.167,8.76l3.813,7.512l-6.354,5.006h-13.98l-15.25-3.754l1.271-16.271l1.271-15.018l-6.354-2.502l-3.813,6.256h-16.521
		l-10.167-6.256v-5.006l6.354-2.508l-11.438-7.508l-10.167,8.76l-12.709-10.01h-7.625l-7.626,10.01l-11.438-7.508l7.625-18.77
		l15.251,1.252l-2.542-7.512l11.438-6.258l3.813-16.268l-6.354-11.266l6.354-12.516l17.792,7.51l6.355-26.277l-5.084-10.014
		l6.354-5.006L708.835,1140.153L708.835,1140.153z"/>
	<path id="path7073" fill="#FFFFD0" stroke="#D0C0A0" stroke-width="2" d="M833.383,1270.298l-10.168,1.469l-6.354,11.752
		l5.083,10.283l13.979-1.473l10.168,11.752l5.083-7.346l-2.542-13.221l-5.083-8.814L833.383,1270.298L833.383,1270.298z"/>
	<path id="path2229" fill="#FFFFD0" stroke="#D0C0A0" stroke-width="2" d="M706.293,939.932l20.335-17.521l-2.542-10.011h5.083
		v-7.508l7.626,7.508l7.625-1.251l-1.271-21.273l3.813-13.766l17.792-7.508l-2.541-11.263l11.438-5.007l-3.813-3.757l7.625-2.503
		l8.896-1.251l3.813-7.509l7.626,8.761l7.625-1.252l5.084,3.757l3.813-21.272l12.709-1.252l3.813,5.006l15.251,6.257v6.258
		l10.167,10.015h11.438l2.542-3.757h10.167l13.979,8.762l7.625,3.754l-7.625,5.006l1.271,11.263l5.084,10.015l-3.813,8.76
		l-1.271,7.509l7.625,7.508l-13.979,2.503l-5.083-5.006l-3.813,3.754l5.084,2.504l2.542,23.775l-6.354,15.018l-6.354,1.255
		l3.813,6.257l-7.625,12.514l-10.168,7.508l-6.354-5.005l-12.709-15.017l-1.271,6.257l-7.625-1.252l-10.167,21.271l-6.354-5.005
		l-5.084,3.755l-10.167,2.504l-7.626-7.511l-10.167,2.503v-25.029h-17.792l-10.167-3.754l8.896-10.013l-6.354-10.011l-3.813-1.252
		l-7.625,13.766l-3.813-7.509l-10.167,5.006l-8.896,5.006L706.293,939.932L706.293,939.932z"/>
	<path id="path3201" fill="#FFFFD0" stroke="#D0C0A0" stroke-width="2" d="M689.771,642.103l-1.271-8.759l-20.335-5.006
		l-17.792-6.258l2.542-7.512l-6.354-7.508l-6.354,1.251l-1.271-7.508l-6.354-8.76l-3.813-10.015l8.896,1.251v-6.257l7.625-5.006
		l1.271-6.257l-8.896-7.508l-2.542-8.763l6.354-7.51l1.271-10.011l-10.168,1.251l-3.813-7.508l10.166-7.512l2.543-17.52l5.084,6.257
		l5.082-5.006v-18.759l8.896,7.508l12.709,7.509l6.354,3.754l16.521,6.257l13.979,3.754l19.063,2.504l13.979,6.26h8.896l3.813,6.257
		v11.263l1.271,13.768l-2.542,8.761l15.251,7.509l-5.084,8.76l-12.709-2.503l-8.896,12.516l7.627,6.259l-5.084,7.509l3.813,10.011
		l8.896,5.006l-5.084,2.504l-7.625-2.504l1.271,6.26l6.354,5.006l-6.354,12.515l-16.521-1.252l-10.166-5.006l-13.979-6.257
		L689.771,642.103L689.771,642.103z"/>
	<path id="path4172" fill="#FFFFD0" stroke="#D0C0A0" stroke-width="2" d="M766.025,848.581l-11.438-5.006l-10.167-21.271
		l5.084-5.006v-12.518l-12.709-18.771l2.542-8.762l8.896-2.502l-19.063-10.014l-7.625-7.508l-10.167-17.521l1.271-7.51l7.626-8.76
		v-6.257l-11.438-16.271l1.271-21.271l-11.438-1.251l-3.813-10.013l12.709-2.505l11.438,2.505l11.438-13.768v-12.515l6.354-3.755
		l8.896,2.504l8.896-11.267l-8.896-6.257v-7.508l7.626,2.503l7.625-1.252l-10.167-5.006l-5.084-11.263l5.084-7.512l-6.354-6.257
		l8.896-12.514l12.709,5.006l5.083-10.013l-10.167-3.755l-5.083-6.258v-6.258v-25.025l-1.271-5.008l6.354-1.25l6.354,5.006h11.438
		l3.813,7.511l26.688,5.005l12.709-5.005l15.251-6.259l16.521,2.502l6.354-3.756l10.167,5.009l8.896-7.511l6.354,3.756l-2.542,6.259
		l-6.354,17.52l-1.271,10.013l-6.354,5.007l10.167,11.263l-1.271,7.509l-8.896,1.251l-5.084,7.509l-2.542,10.014l-5.083,1.252
		l-5.084-13.769l-3.813,5.006l-7.625-2.503l-3.813,2.503l10.168,7.511l2.541,10.012l-2.541,7.509h2.541l6.354,12.514h8.896
		l-1.271,13.77l6.354,5.005l-3.813,5.006h8.896l8.896,7.508l12.709,2.503l5.084-3.754l11.438,3.754l-2.542,7.511l-6.354-1.252
		l2.542,8.762l5.084,2.503l2.542,2.503l-6.354,7.508l-1.271,12.514l10.167,8.763l8.896,5.007l2.542,16.268l7.625-5.005l1.271,5.005
		l10.167,6.258l2.541,5.006l-7.625,12.517l-8.896,8.76l-8.896-3.754l-5.084-8.761l-7.625,15.018l-5.084-10.011l-7.625,13.765
		l-10.167,1.254l-8.896-7.511h-11.438l-3.813,10.013l11.438,8.761l12.709,7.51l-1.271,16.269l-6.354,5.006l-1.271,11.266
		l6.354,13.766l3.813,7.51l-8.896-2.504l-11.438,5.006h-12.709l-10.167-7.51l1.271-7.508l-17.793-6.257l-1.271-5.007l-12.709-1.252
		l-5.083,20.021l-5.084-2.503l-6.354,2.503l-7.625-8.76l-3.813,7.509L766.025,848.581L766.025,848.581z"/>
	<path id="path5143" fill="#FFFFD0" stroke="#D0C0A0" stroke-width="2" d="M900.74,863.598l-13.98-12.516l-3.813-13.768
		l-2.542-7.508l-1.271-10.012l8.896-5.008l1.271-16.27l-25.418-17.521l3.813-5.007v-6.258l10.167,1.251l10.168,8.762l8.896-1.253
		l8.896-12.514l6.354,6.258l5.084-12.515l10.166,8.76l11.438-5.006l8.896-12.515l6.354-10.014l27.96-5.005l-17.793,2.503
		l13.979-2.503h16.521l8.896,2.503l12.709-8.761l12.709,2.502l5.084,8.761l13.979-8.761l7.625-6.257h13.979l-2.541,10.013
		l11.438,12.517v8.76l-3.813,6.257l-1.271,3.754l-17.793,10.014l10.168,2.503l2.541-3.755l8.896,2.505l5.084,10.011l-1.271,6.257
		l-8.896,5.006l12.709,8.761l2.541,7.509l-8.896,1.254l-3.813,5.005l6.354,5.006v5.006v2.502l-8.896,2.503l-15.252,1.252
		l-3.813,6.258l7.625,3.755l2.542,5.007l-6.354,3.755l-15.25,3.754l-15.252,3.754l-3.813,10.012l-16.521-1.252l-12.709,12.518v3.755
		l7.625,8.76l10.168,2.502l2.541,8.76l-2.541,6.26l-6.354,5.007c0,0,7.625,3.754-1.271,6.257
		c-8.896,2.503-11.438,3.754-11.438,3.754l-6.354-6.257l-3.813-8.761l-11.438,1.252l-7.625-8.763H952.84l-1.271-10.012l7.626-6.257
		l-15.251-3.754l-3.813-10.014l-8.896-1.252l-6.354-12.515l-7.625-7.508l-3.813,1.251l-2.541,2.503L900.74,863.598L900.74,863.598z"
		/>
	<path id="path6116" fill="#FFFFD0" stroke="#D0C0A0" stroke-width="2" d="M947.764,745.968l-10.168-3.754l-1.271-8.764
		l-8.896,3.757l-2.546-12.517l-11.438-6.257l-6.354-8.76l-1.271-12.518l8.896-8.76l-11.438-6.257v-7.509l5.084,1.252l5.084-7.511
		l-13.979-5.007l-2.541,5.007h-12.709l-8.896-8.762h-11.44l5.084-6.257l-5.084-5.005v-12.517l-8.896-1.25l-5.084-13.769h-3.813
		l1.271-5.005l-1.271-11.264l-11.438-7.509h13.979l2.541-6.259l5.084,15.02h6.354l2.542-11.264l3.813-6.258h6.354l5.084-10.013
		L868.964,567l7.625-3.756l-2.542-7.509l5.084-8.761l6.354-15.018l10.167,1.252l3.813,3.755l21.605-13.769l7.625,11.266l33.044,1.25
		l3.813-3.754l10.171,5.007l16.521-13.769l1.271,6.259l-3.813,1.25l-1.271,23.774l5.084,5.006l-2.541,2.504l-7.627,1.25
		l-2.541,6.259l10.168,2.505l-5.084,6.257l-1.271,12.514l6.354,11.265v17.521l15.25,3.754l10.168,10.012l24.146,1.253l6.354,10.013
		v11.263l5.084,10.011l5.084-10.011l6.354-1.251l5.084,8.759l-3.813,10.013l-8.896,2.506v12.524l6.354,3.754l7.625,1.251
		l10.168,3.756l5.084,6.26l3.813,5.005l-7.625,8.76l-10.168,7.509l-13.979,1.251l-21.604,13.769l-3.813-6.258l-15.25-3.756
		l-11.438,7.512l-8.896-1.254l-17.791,1.254h-15.25L947.764,745.968L947.764,745.968z"/>
	<path id="path2226" fill="none" stroke="#000000" d="M1078.665,752.225L1078.665,752.225z"/>
	<path id="path2228" fill="#FFFFD0" stroke="#D0C0A0" stroke-width="2" d="M1069.769,735.956v-10.011l17.792-15.017l-7.625-12.514
		l-16.521-5.01l-8.896-5.005l2.542-11.263l7.625-3.754l3.813-8.764l-5.084-8.76l-3.813-2.503l-8.896,12.515l-5.084-8.761
		l1.271-10.011l-7.626-11.263l-21.604-2.503l-8.896-11.266l-17.793-2.503v-16.269l-5.083-11.266v-13.758l6.354-6.257l-12.709-3.754
		l2.542-5.006l12.709-1.251l-6.354-7.512l2.541-23.773l2.542-6.258l20.335-3.754h13.979l17.792,3.754l34.314-6.258l31.771,16.271
		l5.083-6.257l15.251,5.005l16.521,10.012h11.438l5.084-5.006l8.896,2.503l19.063-10.012v10.012l6.354,1.251l3.813,7.509
		l19.063-5.006l7.625,1.251l-2.541,7.509l10.167,8.764l1.271,11.263l-6.354,7.508v3.754l13.979,13.77l-1.271,5.006l-3.813,1.251
		v3.754l7.625,3.755v10.011l-7.625,15.021v3.754l7.625,10.011l-12.709,2.503l-6.354,7.509l7.626,16.271l-7.626,2.503l7.626,11.263
		l-11.438,22.524l-19.063-2.503l-1.271,6.257l3.813,3.755l-5.083,3.754l-5.084-6.257h-10.167l-16.521-3.754l-5.084,5.005
		l5.084,5.006l-8.896,7.508l-17.793-13.765l-1.271-7.509l-10.167-1.251l-11.438,10.011l-11.438,6.257l1.271,10.014l-2.541,6.259
		l-7.626-5.009l-11.438,10.014l-10.167,2.503L1069.769,735.956L1069.769,735.956z"/>
	<path id="path2230" fill="#FFFFD0" stroke="#D0C0A0" stroke-width="2" d="M1224.817,713.432l13.979-23.776l-8.896-11.263
		l7.625-1.251l-6.354-17.521l8.896-7.511h10.167l-10.167-12.514l8.896-15.019l1.271-12.517l-10.167-6.257l6.354-6.257
		l-12.709-15.021v-5.005l5.083-5.006v-12.511l-10.167-8.762l1.271-6.259l-7.625-6.257l3.813-6.257h3.813l11.438,3.754l7.626-8.76
		l38.126,1.251l22.876-3.754l8.896,7.509l7.626-10.013h20.334l13.979,5.007l11.438,13.766l5.083-1.252l5.084,3.755l5.084-2.503
		l8.896,5.005v6.258l6.354,1.252l15.251,7.511l10.167,2.503l3.813-3.756h5.084v10.013l13.979,3.755l12.709,7.508l-2.541,7.508
		l5.083,11.267l11.438,3.755l-5.084,6.257l11.438,1.251l5.083,7.508l-1.271,18.771h-5.084l-5.083-2.503l-7.626,7.508l-15.25-1.251
		l-21.604-3.754l-12.709,3.754l-10.167,6.257l8.896,10.011l-1.271,8.763l-11.438,21.271h-8.896l-19.063,2.503l-5.084-10.011h-6.354
		l-1.271,8.76l-5.083,16.271l-12.709,10.011l-6.354,2.503l-15.251,3.754l-6.354-5.005l-7.625,5.005l-8.896-1.251l-3.813-6.257
		l-8.896,5.006l-6.354-6.257l-7.625,8.759l-10.167,13.766l-20.335,1.254l-3.813-8.762l-12.709-1.252l5.084-7.508L1224.817,713.432
		L1224.817,713.432z"/>
	<path id="path3203" fill="#FFFFD0" stroke="#D0C0A0" stroke-width="2" d="M1057.059,857.341l7.625-2.503l-5.082-7.512l-5.084-2.503
		l2.541-7.509l15.252,1.252l8.896-3.755v-8.76l-5.084-6.257l8.896-2.504l-1.271-7.511l-8.896-10.011l5.082-6.257l1.271-8.76
		l-2.542-5.007l-6.354-3.756l-7.625,3.756l-8.896-3.756l17.792-6.258l6.354-17.52l12.709-8.762l8.896-8.762l8.896,10.014
		l3.813-7.511l-3.813-8.76l8.896-12.515l16.521-5.007h6.354l8.896,7.511l10.166,15.017l6.354-10.011v-3.755l6.354-5.005l5.084,2.502
		l20.334-2.502l5.084,11.262l6.354-2.502l-5.084-6.257v-6.259l16.521,2.504l15.25,3.755l-7.625,11.262l12.709,1.252l2.541,6.258
		l-8.896,10.013l-8.896-6.258l-7.625-1.253l-3.813,2.503l7.626,12.517l7.625,5.006h-7.625l-8.896,6.257l-2.541,20.021l-2.543,36.291
		l7.627,21.271l-7.627,21.273l-5.082,3.754v3.755l6.354,5.005v5.006l-5.084,2.503v26.278l-16.521,10.012l-17.793,2.503l-11.438-8.76
		h-13.979l-12.707-6.257h-11.438l-2.542,7.508l7.626,10.011l-2.542,8.762l-6.354,8.762l-3.813,12.514l-19.063-5.005v-8.76
		l3.813-2.505l-2.542-10.012l-10.167-21.271l12.709-3.755l-10.167-5.006v-15.02l13.979,3.754v-7.509l-11.438-5.005l17.792-12.515
		v-7.511l-11.438-2.503l-11.438,20.021l-10.167-7.509L1057.059,857.341L1057.059,857.341z"/>
	<path id="path4174" fill="#FFFFD0" stroke="#D0C0A0" stroke-width="2" d="M1208.296,866.101l8.896-23.776l-8.896-20.021
		l6.354-57.563l7.625-5.006l13.979,1.252l-10.168-5.006l-12.709-15.017l6.355-3.755l8.896,1.252l8.896,8.76l7.625-10.012
		l19.063,1.252l20.334-25.027l6.355,6.257l7.625-3.754l3.813,6.257l12.709,1.251l5.084-5.005l5.083,5.005l17.793-3.754
		l17.792-10.011l6.354-26.279h6.354l3.813,10.012l17.793-3.755h12.709l-2.542,8.763l-3.813,8.761l-8.896,16.268l-3.813,22.525
		l-19.063,12.514l-2.542,22.525l6.354,8.759v7.509l-8.896,17.521h-16.521l-25.418-3.754l-10.166,2.502l10.166,8.761l2.543,10.012
		l-6.354,2.502l-2.542-6.257l-1.271-5.005l-7.625-1.252l-8.896,8.76l5.083,5.006v27.527l-6.354,7.508l-2.541,25.028h-8.896
		l-6.354-13.767l-10.168-8.763l5.084-5.005l-10.168,2.502h-11.438l-3.813-7.508l-7.625,1.251h1.271v23.772l5.084,7.513l-6.354,5.005
		l-6.354-2.502l-3.813-6.257l-11.438-7.513L1208.296,866.101L1208.296,866.101z"/>
	<path id="path2231" fill="#FFFFD0" stroke="#D0C0A0" stroke-width="2" d="M861.342,983.73l12.709-11.263l5.084-7.508l-5.084-8.764
		h7.626l5.083-13.766v-13.77l-2.542-12.514l-6.354-3.754l5.083-3.754l6.354,7.508l11.438-2.502h3.813l-7.625-8.76l3.813-16.271
		l-3.813-8.76V867.34l5.083-5.006l7.625,1.25l8.896-7.511l11.438,18.771l8.896,3.754l6.354,10.011l12.709,5.007l1.271,3.755
		l-7.626,3.756l6.354,7.509l-8.896,2.503l13.979-1.252l7.625,8.76l11.438-3.754l2.542,12.514l7.625,3.754l-2.542,3.758
		l-7.625,12.515l3.813,11.262l-6.354,2.503l-7.625,20.022l-5.084,3.754l-2.542,6.257l-1.271,2.503l-16.521-1.251l-8.896,3.754
		h-7.625v-2.503l-8.896-1.251l-3.813,2.502l-1.271,16.271l-7.625,12.514l-11.438-10.011l-1.271-6.257l-2.542,8.76l-10.167-2.503
		l-3.813-3.755l7.625-3.756l-3.813-8.762l-8.896,3.756l-2.541,6.258l-3.813-7.51l8.896-12.515L861.342,983.73L861.342,983.73z"/>
	<path id="path3204" fill="none" stroke="#000000" d="M818.132,1095.104L818.132,1095.104z"/>
	<path id="path3206" fill="#FFFFD0" stroke="#D0C0A0" stroke-width="2" d="M818.132,1075.081l-11.438-17.52l29.229-10.011
		l-15.25-36.29l3.813-8.76v-11.267l8.896-23.772l7.625,2.503l1.271-6.257l15.25,18.771l17.793,7.509l-8.896,8.76l2.542,7.512
		l13.979-8.764l5.084,6.261l-8.896,8.76l12.709,3.755l15.251,5.005l-1.271,5.006l-3.813,11.267l-8.896,7.508l-2.542,11.263
		l-8.896-2.503h-6.354l-2.542,8.76v12.515l-16.521,7.511l-6.354,6.258l-6.354,7.508l-10.167-1.252v-7.508l-8.896,6.258l-7.625-6.258
		L818.132,1075.081L818.132,1075.081z"/>
	<path id="path4177" fill="#FFFFD0" stroke="#D0C0A0" stroke-width="2" d="M927.43,1057.562l-15.252-6.257v-3.754l-12.709-10.012
		l3.813-10.015l11.438-13.765l1.271-17.521l8.896-5.006l3.813,5.006h11.438l3.813-3.755l21.604,2.503v-8.76l7.625-2.502
		l5.084-21.273l10.166-2.503l-6.354-11.263l11.438-16.271l13.98-6.257l-1.271-5.006l7.629-7.509l-2.545-12.514l-7.625-1.251
		l-7.625-13.77l10.168-12.505l17.793,2.503l6.354-10.011l21.604-7.509l21.604,6.257l11.438,7.509l13.979-20.022l10.167,2.507v7.508
		l-16.521,11.263l10.166,6.257v6.261l-12.707-3.758l-1.271,15.021l7.625,5.006l-8.896,2.503l6.354,20.021l6.354,8.76v3.754
		l-5.084,2.503v10.011v3.755l-13.979,6.257l5.083,12.518l-10.167,2.503l-7.625,15.017l7.625,8.764l1.271,6.257l-6.354,5.005
		l-2.541,10.012l5.083,10.014l-7.625,10.012l-5.084-3.754h-8.896l-6.354,5.006l1.271,15.017l6.354,2.503l3.813-5.006l3.813,2.504
		v16.271h-5.083l-8.896-7.509l-2.543,3.754l-10.166-10.012v-10.014h-5.084l-1.271-5.005l-10.167-2.503l6.354-5.006l-13.979-11.265
		l-20.335-1.252l-8.896,7.51h-15.25l-6.354,1.253l2.542,10.011l-11.438,2.503l-13.979-10.011l-7.626,5.005l1.271,3.755l3.813,3.754
		L927.43,1057.562L927.43,1057.562z"/>
	<path id="path2235" fill="#FFFFD0" stroke="#D0C0A0" stroke-width="2" d="M723.994,1123.741l5.393-19.467l10.783,5.311l7.189-8.85
		v-15.928l8.986-19.466l17.974,5.309l17.973,12.388l-5.392,17.697l10.783,1.771l5.393-19.473l21.567,14.158l17.974,3.539l3.595,8.85
		l7.188,5.313v12.389l-1.797,10.619l-8.986,14.156l-3.595,14.158l-12.581-14.158h-23.365l-17.974-5.313h-14.378l-16.18-3.539
		L723.994,1123.741L723.994,1123.741z"/>
	<path id="path3207" fill="#FFFFD0" stroke="#D0C0A0" stroke-width="2" d="M794.09,1153.827l32.354,7.078l-3.597,17.699
		L794.09,1153.827z"/>
	<path id="path2237" fill="#FFFFD0" stroke="#D0C0A0" stroke-width="2" d="M849.357,1100.294l2.691,5.75l4.493,7.52l2.247,13.717
		l17.523-7.521l16.625-4.428l-7.642-14.154l-8.088-13.719l-16.177,0.889L849.357,1100.294L849.357,1100.294z"/>
	<path id="path3208" fill="#FFFFD0" stroke="#646464" stroke-width="0.5" d="M882.158,1072.863l-1.35,11.945l7.64,9.734l2.247,5.752
		l4.941-0.889l6.737-10.176l7.642-12.832l-3.598-9.291l0.449-10.618l-7.27-8.545l-7.563,14.297l-12.132-3.098l-0.449,9.291
		L882.158,1072.863z"/>
	<path id="path4179" fill="#FFFFD0" stroke="#D0C0A0" stroke-width="2" d="M901.029,1102.063l11.229-20.352l4.048-6.195
		l-5.396-8.849l1.797-15.043l14.379,6.19l6.29-9.291l-3.145-5.31l-0.899-3.981l5.842-3.54l14.828,9.734l11.232-3.102l-1.351-9.291
		l6.739-1.77l14.827,0.438l8.088-7.521l19.321,1.327l-3.146-0.885l11.232,6.19l6.739,5.751l-5.395,4.425l9.438,3.101l1.798,4.425
		h4.94l-0.896,9.733l10.335,9.729l2.247,4.428l-0.45,11.504l3.146,7.52l10.337,10.619l-0.449,7.078l6.29,2.213l-3.146,2.654
		l0.448,5.309l13.03,10.178l6.739,21.682l6.736,21.68l1.135,7.453l-1.581,5.377l0.896,4.424l8.985,4.867l-3.596,3.096l-0.447,3.982
		l3.146,6.637l2.696,3.539l-0.896,4.426l1.798,34.066l4.49,5.752l4.942,9.732l-1.348,11.061l-9.887,5.752l-12.582-6.637
		l-10.781,0.443l-16.178-2.215l-8.09-5.311l-8.088-0.443l-9.437,5.314l-3.146-2.213h-8.985l-11.684-5.752l-5.841-10.178
		l-0.449,0.887l-7.188-0.441l-4.941-7.08l8.537-2.211l5.392-7.521l-0.896-15.484l5.841-9.732l-6.738-6.189l-1.35-9.734l-8.089-9.73
		l-3.595-7.967l-13.479-9.73l-1.797-8.852l-9.438-6.189l-3.596-17.256l-17.973-4.867l-13.03,11.064l-4.942-3.1l-4.94,10.176h-5.394
		l-12.133-6.637v-8.406h-0.449l-5.842-6.189l-8.537-8.406l7.189-3.98l-0.449-8.404L901.029,1102.063L901.029,1102.063z"/>
	<path id="path5150" fill="#FFFFD0" stroke="#D0C0A0" stroke-width="2" d="M867.696,1297.827l-12.709-21.271l-5.083-12.516
		l6.354-17.521l8.896-15.016l11.438-12.518l3.813-12.514l-5.083-10.012v-8.764l-8.896-5.006l-8.896-2.502v-8.76l-7.625-3.754
		l6.354-12.518l2.541-12.514l1.271-10.012l12.709-3.754l8.896-3.756l7.625-1.252l13.979,12.516l1.271,8.76l13.979,6.256l6.354-8.758
		l5.084,5.004l12.708-16.268l21.605,6.258l2.542,16.268l11.438,7.512l1.271,11.264l12.709,11.262l11.438,15.016l-1.271,8.764
		l10.167,8.76l-7.625,7.51l1.271,16.27l-3.813,8.762h-8.896l-5.083,2.502l-7.626-5.006l-13.979,1.252l-6.354-10.012h-6.354
		l-7.625,3.754l-3.813,12.514l-2.541,8.76l-17.793,6.26h-6.354l-12.709,7.51h-2.541l-3.813-7.51h-3.813l-3.813,5.006l-1.271,12.516
		v6.256l-7.626,8.762L867.696,1297.827L867.696,1297.827z"/>
	<path id="path6121" fill="#FFFFD0" stroke="#D0C0A0" stroke-width="2" d="M877.863,1300.329l3.813,12.518l16.521,6.258l2.542,10.01
		l5.083,10.012l16.521,13.77l6.354,23.771l11.438,26.279l5.083,20.023l22.878,22.52l7.625,13.768l17.791,6.26l20.336-15.021
		l-3.813-17.52l-13.979-22.523l1.271-7.51l-20.335-30.033l-1.271-20.02l12.709-6.26l3.813-15.018v-21.271l-12.709-8.764
		l-15.251-6.256l-1.271-5.006l10.166-3.754l-5.082-8.76l6.354,1.252l12.709-28.783l-7.625-3.754h-12.71l-5.084-10.012l-13.979,2.504
		l-7.625,25.025l-20.339,6.256l-2.541-2.502l-16.521,8.76l-5.084-7.508h-3.813l-3.813,3.754v23.775L877.863,1300.329
		L877.863,1300.329z"/>
	<path id="path2242" fill="#FFFFD0" stroke="#D0C0A0" stroke-width="2" d="M632.581,1599.409l-2.541-18.77l-7.626-10.012
		l1.271-18.771l10.166-17.518l-2.541-11.268v-17.52l8.896-10.012h5.083l-6.354-6.258l-15.25-23.773l17.791,10.01l11.438,10.012
		l-1.271-11.262l-5.084-13.768l6.354-8.762l-6.354-17.52v-18.771l-5.084-5.006l-17.791-2.504l-1.271-13.764l20.335-7.512v-21.271
		l-1.271-5.004l2.542-3.756l1.271-8.762l19.063,2.506l6.354-8.764h1.271l8.896,11.266l-1.271,12.514h6.354l7.625,11.264h7.626
		l2.542,7.51l19.063,3.756l8.896,2.502l-1.271,6.258l-5.084,1.252v6.256l-8.896,6.258l-2.542,10.01l-13.979,8.764l7.626,7.51v10.01
		l-12.709,2.504v25.027l20.334,3.754l2.542,2.502l-2.542,6.258l-12.709,12.518l-7.625-6.26l-6.354,3.756l-7.626-3.756l1.271,15.02
		l-7.625,11.262l1.271,10.012l7.625-3.754l2.542,15.02l-3.813,7.51l-3.813,17.52l-8.896,16.271l-8.896,1.25l-15.251,16.27h-12.708
		V1599.409L632.581,1599.409z"/>
	<path id="path3218" fill="#FFFFD0" stroke="#D0C0A0" stroke-width="2" d="M683.417,1525.579l-6.354,5.006l-2.541-10.012
		l8.896-11.264l-3.813-18.77l7.625,7.508l8.896-5.006l5.084,5.006l15.25-10.012l1.271-7.512l-20.335-6.256l-1.271-23.773
		l12.709-3.758v-8.76l-8.896-10.012l13.98-7.508l1.271-10.014l11.438-6.258l-1.271-3.754l6.354-2.504l1.271-6.256l-8.896-5.006
		l8.896-7.512l5.084-2.504l2.541,7.512h7.625l5.084-2.506l10.171,11.268l-3.813,5.004l-1.271,6.258l2.541,3.754h7.625l3.813,6.258
		l21.604,3.754l1.271,5.006l-6.354,1.252l-3.813,6.258l13.979,2.504l1.271,6.258l-11.438,2.502c0,0,2.543,7.508-2.541,7.508
		c-5.086,0-10.17-5.004-10.17-5.004l-3.813,5.004l-7.626-1.25l-3.813,7.51l-2.541,7.51l-8.896,3.754l-13.979,8.76l-8.896,6.258
		l-1.271,8.76l-2.543,15.02l-10.166,6.258l-5.084,11.262l-6.354,7.512L683.417,1525.579L683.417,1525.579z"/>
	<path id="path4189" fill="#FFFFD0" stroke="#D0C0A0" stroke-width="2" d="M726.628,1479.276l16.521-8.76l16.521-7.508l5.083-13.77
		h7.626l2.542-3.754l15.25,3.754l2.542-8.76h8.896l-1.271-7.508l-15.25-2.502l3.813-7.512l6.354,1.25l-1.271-6.256l-20.335-2.504
		l-5.083-6.256l-10.167-1.252l1.271-7.508l5.083-3.754l-11.438-13.77h-8.896l-5.083-6.258l-16.521,10.012l-20.334-3.754
		l-1.271-5.006h-5.084l-7.625-12.514h-8.896l1.271-12.518l-7.625-10.012v-15.016l11.438-12.518l1.271-6.258l11.438-6.258
		l2.542-6.256l11.438-1.252v-15.02l15.251,1.252l5.083-7.51l6.354,2.504l-1.271,30.033l17.792,7.508l10.167-2.504l6.354-3.754
		l7.626,5.006l3.813-8.76l15.251-7.51l17.792,3.756l17.793,10.012l12.709,11.262l15.25,6.258l15.251,6.26l11.438,10.012l7.625,17.52
		l-7.625,8.762l-12.709,6.258l-21.605,15.018l-11.438,11.264l-1.271,8.762l-15.251,2.504l8.896,13.764l-3.813,10.014l1.271,11.264
		l5.084,7.51l-15.251,1.25l-13.979,7.51v8.76l-2.542,8.764l-8.896-2.504l-7.625-1.252l-16.521-7.512l-8.896,5.006l-1.271,6.262
		l-15.251,6.256l-1.271-11.266L726.628,1479.276L726.628,1479.276z"/>
	<path id="path2245" fill="#FFFFD0" stroke="#D0C0A0" stroke-width="2" d="M729.387,1477.687l17.977,1.771l-1.797,8.852
		l17.973-5.311v-3.541l10.784-7.076l12.581,5.309l-3.598,14.158l-12.579,1.77l-12.58,17.697l5.392,14.158l-3.595,10.619
		l-17.976,3.537l-7.188,12.389l-1.798,14.156l5.393,7.078l16.18-15.928l8.982-3.541l7.189,3.541l30.555,1.771l1.797,12.387
		l-17.974,17.697l-5.396,10.619l12.581,7.074v10.619l-12.581,21.236l-10.782,12.389v26.545l-17.975,21.236l1.797,19.467
		l-16.176,5.314l-14.378,8.848l-16.176-3.539l-12.581-10.619l-23.365-5.309l5.393-8.848l-7.188-8.854c0,0-7.188-19.467,1.798-19.467
		s21.567-7.078,21.567-7.078l-12.581-5.311l-12.581-1.771l1.797-17.697l8.987-10.615l-5.396-8.852l-5.392,12.389l-8.986,1.771
		l-1.798,12.387l5.393,5.314l-8.983,10.615l-14.378-23.008l-3.599-17.693v-24.775l0,0l17.977-8.85l8.984-10.619l7.188,3.541
		l12.582-26.547l5.392-14.158l-3.595-15.926l17.973,1.77l12.582-15.928l10.783-7.08l1.798-14.156L729.387,1477.687L729.387,1477.687
		z"/>
	<path id="path3216" fill="#FFFFD0" stroke="#D0C0A0" stroke-width="2" d="M786.9,1624.573l3.595-17.693l-12.581-7.078
		l19.771-21.236l5.392-5.311l-3.595-14.158l-26.96,1.771l-8.986-5.311l-25.162,14.156l-3.595-8.85l1.797-17.697l23.365-5.311
		l3.595-10.617l-7.188-15.928l14.382-15.928l10.78-1.771l5.396-14.158l16.176,1.771l5.396-15.928l25.16-7.078l1.799-12.393
		l12.582,12.393l10.78,14.156L857,1490.071l14.379,5.313l8.986,28.313l-12.581,7.078v15.928L857,1567.938l-7.188,19.467
		l-3.598,10.619l3.598,24.775l-32.354,10.617L786.9,1624.573z"/>
	<path id="path4187" fill="#FFFFD0" stroke="#D0C0A0" stroke-width="2" d="M792.292,1633.423l17.974,8.848l8.986,8.85l1.797,14.158
		l-5.392,15.928l-8.986,12.391l-19.771-8.852l-5.396,12.391l-5.392,17.695l-12.581,5.313l3.595-19.467l7.189-14.158v-15.928
		l7.188-14.158L792.292,1633.423L792.292,1633.423z"/>
	<path id="path4190" fill="#FFFFD0" stroke="#D0C0A0" stroke-width="2" d="M828.238,1642.271l16.176-10.617l5.393,10.617
		l-1.797,12.389l-10.781,12.393l-8.986,8.848v-19.467L828.238,1642.271L828.238,1642.271z"/>
	<path id="path4192" fill="#FFFFD0" stroke="#D0C0A0" stroke-width="2" d="M848.009,1672.356l-16.176,15.928l-5.392,15.928
		l14.378,7.078l10.784-12.389l-3.599-12.389L848.009,1672.356L848.009,1672.356z"/>
	<path id="path5169" fill="#FFFFD0" stroke="#D0C0A0" stroke-width="2" d="M853.4,1610.417l16.177-17.695l14.378-21.236
		l1.798-31.854l-1.798-23.008l-7.189-19.469l-7.188-19.467v-19.467l-12.581-10.619l-12.582-14.156l1.798-15.928l10.784-17.697
		l16.176-8.85l7.188-8.852l25.163-1.77l5.392,19.467l10.784,38.936l17.973,21.234l12.581,15.928l7.189,10.617l-1.797,19.471
		l-5.396,5.311v23.006l-7.188,15.928l-3.596,12.393l-3.597,15.926v15.928v12.391l-12.581,8.852l-7.188,14.156l-21.568,7.078
		l-1.797,10.617l-10.784,5.313l-14.378,8.848c0,0-5.393-1.77-5.393-8.848c0-7.08-5.396-15.93-5.396-15.93l8.986-12.391
		L853.4,1610.417L853.4,1610.417z"/>
	<path id="path5171" fill="#FFFFD0" stroke="#D0C0A0" stroke-width="2" d="M864.184,1684.743l8.983-12.387l10.784,14.156
		l-7.188,7.08L864.184,1684.743z"/>
	<path id="path5173" fill="#FFFFD0" stroke="#D0C0A0" stroke-width="2" d="M981.01,1527.239l-7.188,23.006l-8.987,26.547v24.775
		l17.974,19.467v-23.006v-23.008l8.986-23.006l1.798-12.389L981.01,1527.239L981.01,1527.239z"/>
	<path id="path5175" fill="#FFFFD0" stroke="#D0C0A0" stroke-width="2" d="M891.145,1658.198l-5.396,14.158h17.976L891.145,1658.198
		z"/>
	<path id="path6152" fill="#FFFFD0" stroke="#D0C0A0" stroke-width="2" d="M978.266,1350.386l10.166-12.518l5.084-20.021
		l-10.168-12.516l-17.791-12.516l2.541-12.514l15.25-27.531l20.336,7.51l20.334,17.521l20.334-7.51l12.709,2.504l27.959,7.508
		l2.541,10.012l-2.541,12.516v10.014l-7.625,22.52l22.875-2.502h12.709l-10.166,15.021v12.514l5.084,17.521l-15.252-7.512
		l-15.25,5.008l-27.959-2.504l-15.252-10.012l-7.625,10.012c0,0-7.625,7.51-17.795,2.504
		C998.598,1370.407,980.807,1352.888,978.266,1350.386L978.266,1350.386z"/>
	<path id="path6154" fill="#FFFFD0" stroke="#D0C0A0" stroke-width="2" d="M1003.682,1405.446h27.959l12.709,15.02l10.168,17.52
		l-7.625,15.021l-17.793,7.508l-12.709-2.504l-2.541-22.523L1003.682,1405.446L1003.682,1405.446z"/>
	<path id="path6156" fill="#FFFFD0" stroke="#D0C0A0" stroke-width="2" d="M1046.893,1390.431l33.043,2.502l15.25,12.514
		l-2.541,15.021l-22.877-10.012L1046.893,1390.431L1046.893,1390.431z"/>
	<path id="path6158" fill="#FFFFD0" stroke="#D0C0A0" stroke-width="2" d="M1092.645,1465.513l-25.418-7.51v-20.021v-12.514
		l20.334,10.012l7.626,12.514L1092.645,1465.513z"/>
	<path id="path6160" fill="#FFFFD0" stroke="#D0C0A0" stroke-width="2" d="M998.598,1478.026l33.043,2.502l10.168,22.525
		l2.541,20.02l10.171,12.518l-2.541,27.529l-5.084,27.527l-17.793,12.518l-15.25,17.52l-7.63-2.502l2.545-25.027l2.541-27.527
		l2.544-25.027l-2.544-25.027L998.598,1478.026z"/>
	<path id="path7138" fill="#FFFFD0" stroke="#D0C0A0" stroke-width="2" d="M1108.619,1373.272l-7.189-10.617l1.802-10.619
		l10.78-19.467l-12.582,1.77l-16.176-3.535l-5.392,5.309l3.595-14.158l-1.797-12.387l3.594-10.619l-5.392-21.232l19.771,5.309
		l10.784-8.848l10.784,3.539l7.188-7.078l-5.395-15.928l-3.595-10.619v-10.619l3.595-14.156l1.797-12.389l16.179,3.539
		l10.781,17.693l10.784,21.236l3.596,15.928v14.158l12.582,17.697l-1.798,12.389l14.378,5.313l-19.771,1.77l1.798,19.467h-14.379
		l-10.784,7.078l-5.392,15.93l-12.581,17.695v12.389l-7.189-3.537v-8.852L1108.619,1373.272L1108.619,1373.272z"/>
	<path id="path2436" fill="#FFFFD0" stroke="#D0C0A0" stroke-width="2" d="M1096.038,1385.661l16.176,5.313l3.595,12.389
		l-5.392,1.771L1096.038,1385.661L1096.038,1385.661z"/>
	<path id="path2438" fill="#FFFFD0" stroke="#D0C0A0" stroke-width="2" d="M1106.822,1421.056l10.783,19.467l7.188,10.619v7.078
		l-3.594,1.77l-3.596,17.697l5.393,19.467l16.176,17.697l10.784,5.314v10.613l1.797,3.539h14.379l8.986-10.615l3.595-10.617v-10.617
		l-3.595-10.619l-28.757-47.783l-1.798-10.617L1106.822,1421.056z"/>
	<path id="path2440" fill="#FFFFD0" stroke="#D0C0A0" stroke-width="2" d="M1261.391,1578.562l-10.783-7.078l-3.596-21.236
		l-1.797-19.469v-7.078l-12.585-19.467l-8.982-24.775l-14.379-12.389l-10.783-15.928l-7.189-14.158v-5.309l-7.188-8.854
		l-8.986-7.076l-26.96-19.469l5.396-8.85l-12.581-12.389l1.798-10.617l5.392-21.236l17.975-7.078h7.188l1.798-17.697h14.378
		l12.582,3.539l7.188-8.85l21.565-5.309l10.782,5.309l3.597,10.619l-7.188,12.389l8.986,12.389l8.984,17.695l8.985,15.93
		l7.188,12.391v-14.158h14.377l7.188,5.311v15.93l12.582,1.77l3.594,17.697l1.801,19.467l5.393,14.158l-1.799,12.389l12.582,8.852
		l3.596-8.852l1.797-8.85l-5.393-7.078l1.797-15.928l14.379-5.313l14.379,15.93l12.581,30.086l3.595,21.234l-12.58,23.008
		l19.771,14.156l-3.597,14.156l-1.797,8.85l5.394,21.236l1.797,8.85v8.852l5.394,8.848l-3.595,10.619l3.595,17.697l10.783,21.234
		l-5.395,10.617l-5.393,7.078l5.393,12.391l-12.579,3.537l-10.783-3.537l3.595-10.617h-16.177l-10.782,10.617l-19.771,3.537
		l-10.783,10.617l-17.976,10.619l-3.596-14.156l8.986-12.389l-14.38-12.389v-15.928l-10.782-14.158l-3.597-24.775l-8.983-8.85
		L1261.391,1578.562L1261.391,1578.562z"/>
	<path id="path4385" fill="none" stroke="#000000" d="M1308.696,1415.458L1308.696,1415.458z"/>
	<path id="path4387" fill="none" stroke="#000000" d="M1290.904,1400.44L1290.904,1400.44z"/>
	<path id="path4391" fill="#FFFFD0" stroke="#D0C0A0" stroke-width="2" d="M1308.696,1412.954l17.792-22.521v-17.521l7.626-25.023
		l35.585-25.027l-10.167-47.553l25.417-12.516l-5.083-22.523l-12.709-32.535l5.084-20.021l-17.793-17.521l25.418-30.033
		l-30.501-67.572l-15.251,2.504l-17.793-30.033h-7.625l-10.167,10.012l10.167,42.546l5.083,27.531l-7.625,10.01v15.021l-15.25-5.006
		l-17.793,15.016l-17.793,30.033l-7.625,22.521l12.709,22.525l2.232,31.65l-3.131,8.09l-9.271,0.305v7.508l-20.335,25.027
		l15.251,12.514l-5.083,10.014l2.541,10.012l15.251,32.535l15.251,20.021l2.542-10.012l17.792,2.502l2.542,15.018L1308.696,1412.954
		L1308.696,1412.954z"/>
	<path id="path7308" fill="#FFFFD0" stroke="#D0C0A0" stroke-width="2" d="M1397.659,1710.782l-10.168,12.518l-17.792-7.512
		l-5.084-10.012l-15.25-22.523l7.625-10.012h12.709l5.083,10.012l17.793,2.506v-10.014l7.625-20.021l-7.625-12.516l-5.084-25.025
		l-2.542-12.518l-5.083-25.023l-5.084-17.521l5.084-25.023l15.251,5.006l15.25-7.51h25.418l15.251,10.012l22.876,12.514
		l12.709,27.531l12.709,35.037l-5.084,10.012l15.251,32.535l15.251,42.547l2.542,12.518l-2.542,27.527v17.521l-2.542,20.021
		l2.542,25.027l7.625,27.529l2.542,27.527l2.542,22.525l12.709,22.523l-12.709,5.004l-12.709,15.02l-7.625-5.006l-2.542-12.516
		l-7.625-17.52l2.541-10.012l-7.625-2.502l-7.625,5.004l-12.709,2.504l-15.251-5.006l-2.542-10.012l-10.167-25.027l-7.625-5.006
		l-10.167,12.514l-5.084,10.014l-10.167-2.502l-12.709,22.521l-7.625,2.504l-7.626,10.012l2.542,20.021l-7.625,17.52l-2.542-25.025
		l-7.625-20.021l-2.542-10.012l15.251-17.521l10.167,10.014l7.625-15.02l-10.167-20.02l-10.167-17.521l5.084-10.014l-12.709-12.514
		l-5.084-15.02l-7.625-20.021l12.709-12.514h20.334v-15.02h12.709v-7.508L1397.659,1710.782L1397.659,1710.782z"/>
	<path id="path8279" fill="none" stroke="#000000" d="M1326.489,1475.522l-10.168-10.01"/>
	<path id="path8281" fill="#FFFFD0" stroke="#D0C0A0" stroke-width="2" d="M1311.238,1437.981l-5.084-25.027l12.709-15.018
		l10.167-17.52l2.542-30.033l38.127-27.529l-2.542-15.018l-5.083-27.529l22.876-17.521l-5.084-20.021l-7.625-32.535v-17.521
		l-17.793-25.023l22.876-30.033l-10.167-25.025l-17.792-45.052l5.083-7.509l20.335-20.021h12.709l7.625,12.516l5.084,20.021
		l5.083-17.521l5.084-10.011l12.709,5.006l-7.626,17.52l5.084,17.521l5.084,12.516l5.083,45.049l12.709,17.521l7.625,15.016
		l-5.083,10.016l7.625,7.508l2.542,10.012l-17.793,12.514l2.542,20.021l2.542,17.52l2.542,12.518l10.167,12.514l-7.626,40.037
		l10.168,20.021l20.334,10.012l-5.084,12.514l7.626,30.033l15.25,15.016l2.542,20.021l5.084,25.025l-7.626,5.008l7.626,25.025
		l5.083,30.031l5.084,25.027v15.018l5.083,20.021l5.084,20.021v22.523l-12.709-5.008l7.625,27.529l10.168,40.045l7.625,25.027
		l-10.167,17.521l-5.084-12.516l-7.625-22.523l-7.626-25.025l-12.708-25.027l2.541-7.508l-5.083-20.023l-10.167-35.035
		l-10.168-10.014l-25.417-17.52l-33.044-7.512l-22.876,10.014l-15.251-12.516l-10.167-15.018l7.625-20.021l-2.541-20.021
		l-12.709-25.025l-15.251-22.523l-7.625,2.504l-10.167,15.018l7.625,20.02l-5.084,10.012l-10.167-12.514L1311.238,1437.981
		L1311.238,1437.981z"/>
	
		<path id="path11192" fill="none" stroke="#A08070" stroke-width="3.125" stroke-opacity="0.9922" stroke-dasharray="25,6.25,3.125,6.25" d="
		M405.87,1787.388l-8.987-14.156l12.581-12.389l-7.188-12.389l-1.797-19.471h-19.771l-8.985-24.773l-7.188-15.93l-3.595-31.854
		l-14.378-28.314l1.797-17.693l19.771-7.08l-7.188-14.156l-8.986-17.697l-10.784-8.85l-8.982-21.236v-15.928l-1.799-12.389
		l7.188-12.391l-8.986-23.006l-14.377-19.469l8.986-15.926l-14.378-12.393l10.784-15.928l-12.581-21.236l17.973-31.854l-12.581-8.85
		l-8.987-14.158l1.797-8.85l-16.176-14.156l3.595-23.008l3.594-10.617l-7.189-12.391l16.176-14.154l10.784-10.619l17.973-12.391
		l-7.189-7.076l-10.784,7.076l-8.986-8.85l-10.784-3.539l-21.567-8.85l-1.797,10.615h-8.987l-16.176-7.076l-5.392-10.617
		l-7.189-10.619l12.573-14.148l7.189-12.389l1.797-21.236h8.986l-7.189-14.158l-25.163-17.693l-10.784-12.393l-7.189-10.617h-12.581
		v-14.156l-10.784-3.538l8.986-14.158l-10.784-5.313l10.784-15.928l-7.189-10.618l12.582-8.849l-3.595-24.775l5.392-7.08
		l10.784,8.853l19.771-12.388l12.581-7.079l-3.595-15.931l-5.392-17.693l7.189-14.158l-14.378-10.618l-5.392-28.313l5.392-8.853
		l8.986-8.849v-15.931l-7.189-15.929l-5.392-8.849l-10.784,8.849l-21.568,1.771l-10.784-8.852l-7.189,7.078l-25.162-21.232
		l-25.163-10.618l-21.568-19.467l-28.757-8.853l-16.176,1.771l-8.987-12.393L35.62,750.331l1.797-8.853l-7.186-12.384
		l-12.582-12.389l-7.189-15.93l8.986-7.08l3.595-21.232l12.581-3.539v-7.079l21.568-17.697l-1.797-15.928l-12.581-8.849
		l16.176-12.391l10.784,1.771l10.784-5.313v14.158l10.784,10.618l14.378,8.849l10.784-8.849l-8.987-3.539l5.392-14.158h17.973
		l7.189-14.156l3.595-10.617l8.987-3.539l-8.987-10.617l8.987-12.392l-3.595-14.155l8.987-7.078l-5.392-8.852l12.581-14.156
		l17.973,8.851l10.784,5.31l7.189-8.85h16.176l19.771-5.311l21.568,10.618l10.784,3.539l12.581-14.157l21.568,15.929l10.784-1.771
		v-10.618l7.189-19.468l14.379-5.311l1.797-10.618l-25.162-3.538h-8.987l-3.594-12.39l-5.392,7.077l-16.176-15.924l-5.392-17.696
		l5.392-15.927l-8.987-12.39v-14.158l-7.189,7.078l-7.189-8.849v15.929h-7.189l-12.582,8.849H218.95l-3.595-8.849l-10.784,3.539
		l-5.392-7.078l-14.378,3.539l-5.392-3.539l-14.378-14.158l1.797-8.849l-14.378-1.77l-7.189-12.388l3.595-3.54v-14.154h-12.581
		l-12.582-14.158l-3.594-8.849l-10.784-1.771l-5.392-12.388l-14.379-5.309V299.05l-17.973,12.388l-7.189-7.079l-8.987,8.849
		l-7.189-3.54L33.828,293.74l3.594-10.618l-7.188-5.309v-17.697l10.784-5.309v-12.388l17.973-12.388l3.595-10.618l-7.189-10.618
		l7.189-23.006l12.581-3.54l3.595-12.388h10.784l17.973-5.31l14.379-10.618l-8.987-10.619l8.987-17.697h10.784l14.378-15.927
		l8.987-8.849l8.986,7.079l8.987-3.539l-8.987-10.619l-1.797-14.158l-5.392-8.849l-14.379,3.54l-7.188-7.079l-8.987-3.539
		l-7.189,12.388l-7.189-3.539l-1.797-15.928l12.579-14.155V28.286l17.97-19.467l3.595,19.467v14.158h17.973l1.797,10.618
		l10.784-1.77l-1.797,10.618h12.581l5.392,8.849l12.581-7.079l3.595,12.388l17.973,15.928l8.986-1.77l1.797,19.467l16.176-1.77
		v12.388v5.309h16.176l3.595,8.849l-1.797,10.619l17.973,12.388l1.797-12.388l3.595-14.158l14.378,3.54l10.784,19.467l12.582-5.31
		l14.379,3.54l5.395-8.849l-7.189-8.849l-7.188-7.079l-10.784,3.539l-1.797-8.848l3.595-7.079l-5.392-7.079l-5.392,5.31
		l-16.176-7.079l-5.392-15.927l14.378-12.388L321.4,70.76l7.188,12.388l17.976,7.079l21.565,3.539l1.797,7.079l-10.783,3.54
		l8.986,5.309l-7.188,5.309l23.361,5.309l-3.595,8.849l-14.378-1.77v7.079l14.378,15.928l1.797,10.618l-3.595,8.849l8.985,15.928
		l26.961,8.848l7.188,12.388l-8.985,3.54l23.363,8.849l10.784,12.388l17.976,3.539l10.781-17.697l5.396,10.618l7.188,7.079h17.977
		l7.188,5.31l-1.798,8.849l8.986,3.539l8.983-10.618l-8.983-5.309l1.798-12.388l14.379-7.079l10.783-1.77l-5.396-21.237
		l-8.986,12.388l-1.798-14.158l-5.392-12.388l14.378-12.388l7.188-15.928l14.38,5.309l-3.599,15.928l5.396,10.618l14.379-7.079
		l7.188,12.388l7.188,10.619l5.394,8.849l-8.984,7.079l14.378,12.388v12.388h14.379l-10.784,10.618l0,0l19.771,12.388l-7.189,8.85
		l-7.188,3.539l-3.595,15.928l-5.393,3.54l10.783,23.006l-7.188,3.539l-3.595,10.618l8.986,5.31l-3.598,5.313l14.378,12.388
		l-7.188,15.928l5.393,17.697l-8.985,8.849l1.8,28.315l-7.189,14.157l-1.797,14.157l-3.595,8.85l7.188,7.079l-1.798,8.849
		l16.178,12.391l5.394-7.078l17.974-5.313l16.178,8.852l19.771,12.389l19.771,10.618l28.759,5.31l16.176,7.079l12.581,3.539
		l17.974-3.539l3.598,15.927l17.974-3.539l12.581,3.539c0,0,3.595-8.849,19.771-8.849c16.179,0,25.162,0,25.162,0h12.582
		l10.783-5.31l8.985,7.078v3.539l30.457-9.222l15.25,7.509l40.67,2.504l25.418-12.515h35.585h27.959l20.335-7.509l22.876,17.52
		l12.709-7.509l22.876,10.015l20.334,7.508l12.709-7.508l12.709-5.009l15.251,7.511l15.251,5.006l10.167-10.014l15.25-5.006
		l30.502,5.006l33.043-5.006h17.793l22.876-2.502l7.625-5.006l17.793,15.018l17.792,7.51l10.167,15.018l20.334,5.006l12.709-5.006
		l2.542,10.012l30.501,17.521l-2.541,15.018l20.334,5.006v17.521l-2.542,15.017h-10.167h-20.334l-10.168,5.008l-15.25-2.504
		l-15.251,7.509l10.167,15.019l-17.792,30.033l-7.626,20.021l-7.625,12.517l2.542,15.018l-10.167,12.516l-12.709,2.503
		l-5.084,10.012l2.542,15.018l10.167,17.521l-12.709,10.012l-22.876,7.509l-17.792-7.509l-7.626,5.006l10.167,15.019l-10.167-2.502
		h-10.167l-5.084,12.514l2.542,20.021l-5.083,17.521l-12.709,15.017l-10.167-7.509l-10.17-10.018l-17.792-7.509l-5.084,10.013
		l7.626,17.521l-10.167,5.006l-12.709-7.51l-7.626-12.514l-15.251-7.509l2.542,20.021l-5.083,20.021l-17.793,12.515l-17.792-5.006
		l-12.709-5.006l-20.335-7.509l-15.25,2.504l10.167,20.021l-5.084,17.521l-12.709,7.508l-12.709-5.005
		c0,0-12.708,5.005-17.792,15.018s-10.167,20.021-10.167,20.021l7.625,15.019l-7.625,7.508l-2.542,27.529l-15.251-2.503
		l-5.083,12.515l4.04,5.442l8.063,3.972l3.146,10.607l-5.604,9.046l-10.136,12.997l25.907,45.533l7.625,27.529l10.167,17.52
		l5.084,22.523l5.083,12.516v15.016v20.023l10.167,20.02l7.626,12.518l15.25-2.504l-7.625-15.02l-2.542-27.529l2.542-25.023
		l17.793,5.004l20.334,22.525v20.02l2.542,17.521l5.083,25.025l10.168,20.021l15.25-10.014l5.084,7.512l17.792-10.014h12.709
		l20.335-27.527l-0.373-3.484l8.088-0.885l3.596-8.852l-0.896-11.504l-1.801-10.617v-8.852l-6.287-11.502l-7.188-12.389
		l8.089-23.895l16.178-26.547l21.564-15.928l14.38,7.08l-0.896-20.355l7.188-10.615l-14.379-66.365l9.885-12.391h7.189l8.088,15.932
		l8.088,15.928l14.379-2.655l6.291-10.618l11.686-12.388l10.781-8.849h10.783l6.291,9.729l6.29,17.697l4.493-10.618l7.188-12.389
		l7.189,3.54l4.493,4.424l-4.493,5.31l-3.595,8.853l3.595,14.157l3.596,10.615l4.492,7.078l1.797,23.895v18.582l13.48,16.813
		l8.986,16.814l-5.396,8.848l6.29,7.08l4.493,7.963l-1.798,5.311l-14.381,10.617l0.898,7.078l0.898,19.469l1.797,19.469l4.492,7.078
		l6.291,9.73l-4.492,27.434l-1.799,13.271l6.291,12.387l3.596,6.195l14.379,7.963l7.188,4.424l-4.492,7.08l2.694,21.236
		l4.494,16.813l14.379,12.391l1.798,19.467l4.491,19.467v6.195l-8.088,4.424l8.985,19.467l9.888,58.4l0.897,20.352l10.781,38.939
		v20.352l-8.088-2.652l-6.291-4.428l4.492,13.273l10.783,43.355l4.492,20.354l5.395,15.928l-8.986,16.813v18.582l-2.693,13.271
		l-0.897,23.895v18.582l1.798,16.813l6.29,25.66l1.798,12.389l2.694,19.469l0.899,17.695l10.781,19.469l3.596,7.965l-9.887,3.537
		l-15.277,14.141l-5.393-2.654l-13.479-29.199l2.695-12.389l-7.188-4.426l-8.984,8.85l-8.984,0.885l-11.686-1.77l-8.088-6.193
		l-8.089-25.66l-6.291-8.85l-5.393-2.654l-14.379,22.121l-8.985-4.426l-8.984,10.619l-4.494,14.158l-11.683,3.535l-4.493,8.854
		l5.395,20.352l2.688,16.18l-12.574,13.906l11.678,18.582l11.006,11.887l6.967,12.008l-8.979,13.27l9.879,20.855l4.49,15.426
		l-2.688,11.502l9.209,14.291l2.477,20.219l4.494,9.734l2.688,5.059"/>
	<g id="g4653">
		<path id="path5362" fill="#FFFFD0" stroke="#D0C0A0" stroke-width="2" d="M1260.402,1688.259l25.418-5.006l5.084,25.023
			l-7.626,22.525l-15.251,25.025l2.542-17.521l2.542-35.037L1260.402,1688.259z"/>
		<path id="path5364" fill="#FFFFD0" stroke="#D0C0A0" stroke-width="2" d="M1295.987,1710.782l27.96-15.016l12.709-10.012
			l12.709-2.502l17.792,30.029l20.334,10.014l7.626-2.506l5.083-12.514l12.709,17.521v7.508H1400.2l-2.542,17.52h-22.876
			l-10.167,12.518l10.167,25.025l20.335,20.021l-7.626,12.514l12.709,20.021l10.167,12.514l-5.083,17.521h-10.167l-2.542-10.012
			l-17.792,20.021l5.083,22.521l16.229,18.529l2.541,12.469l-12.154,14.533l11.145,20.021l18.803,23.535l-11.107,14.008
			l12.644,20.02l5.231,15.906l-4.896,9.912l7.321,16.246l10.167,25.027l-2.541,12.514l-7.626-7.508l-10.167-27.531l-12.709-15.02
			l-10.167-17.52l-7.625-17.521v-15.016l-43.211-50.057l-5.083-40.043v-17.521l-7.625-17.52l-15.251-20.023l-2.542-10.01
			l12.709-15.021l2.541-17.52l5.084-15.018l5.084-22.523l-2.542-27.529l-10.167,22.523l-12.709-7.508l10.167,17.52l7.625,20.021
			l-12.709,25.025l2.542,2.502l-25.418-2.502l2.542,12.518h-15.251l-2.542-12.518l7.626-22.521l5.083-20.021l-12.709-10.012
			L1295.987,1710.782L1295.987,1710.782z"/>
		<path id="path3682" fill="#FFFFD0" d="M1307.551,1759.347l25.418-5.006l5.082,25.023l-7.625,22.525l-15.25,25.025l2.541-17.521
			l2.543-35.037L1307.551,1759.347z"/>
	</g>
	<g id="g10307">
		<path id="path2273" fill="#F7D3AA" stroke="#CB9369" stroke-opacity="0" d="M4.311,1810.192
			c0.686-9.307,21.766-17.572,28.284-26.264c4.757-6.344,8.178-18.668,10.102-28.283c3.133-15.668,8.081-25.637,8.081-42.428
			c0-12.973,3.59-25.143,8.081-36.365c5.304-13.26,17.377-24.516,26.264-36.365c11.233-14.979,29.308-22.992,44.447-34.346
			c17.254-12.939,37.824-28.693,48.487-46.467c16.842-28.068,53.192-23.098,78.792-12.121c2.552,1.094,5.387,1.346,8.081,2.02
			c4.052,1.014,14.879,27.738,16.163,30.305c4.233,8.469,13.777,6.063,24.244,6.063c9.955,0,9.995-10.527,8.081-18.182
			c-1.797-7.189,15.598-3.314,22.225,0c4.59,2.293,8.438,16.869,10.104,20.201c3.725,7.445-5.063,12.143-8.081,18.184
			c-3.741,7.482,2.01,14.1,4.041,22.225c2.39,9.561,6.688,11.631,4.041,22.227c-2.063,8.254-6.231,14.227-14.146,18.184
			c-10.604,5.303-8.94,9.238-2.021,16.162c6.214,6.213,3.599,17.928,2.021,24.242c-1.771,7.084-1.278,13.061,0,18.184"/>
		<path id="path9336" fill="#F7D3AA" d="M333.641,1553.614c10.103,15.152,18.184,21.213,18.184,21.213l7.071,13.133l6.061,13.135
			l-16.163,5.051l-4.041,16.162l1.01,9.092l8.082,15.152l6.063,13.133l-15.152,23.23l-4.041,11.109l8.081,18.184l-5.051,21.217
			l15.152,16.16v24.242l-9.094,12.121l-24.245,4.041l-7.071-59.598l-11.112-140.412L333.641,1553.614L333.641,1553.614z"/>
	</g>
	<path id="path10311" fill="#F7D3AA" stroke="#A08070" d="M1547.637,1632.462l-18.567,7.143l-5.718,7.143l4.285,17.146l5.715,22.854
		l5.718,14.287l-11.433,15.713l2.857,17.146l-4.286,15.715l-1.428,21.428l1.428,27.146l7.144,35.715l1.433,20l4.285,31.43
		l8.567,15.713l5.715,10l-11.428,2.857l-14.287,12.854l-8.567-1.428l-12.86-25.719l1.428-14.285l-5.714-4.287l-5.715,8.572
		l-20,1.428l-12.856-8.57l-4.282-12.854l-2.856-11.43l-11.429-11.43l-12.86,22.855l-8.57-4.285l-7.143,10l-5.717,14.285
		l-15.715,1.428v10l7.145,34.285l-10,14.287l10,21.428l17.146,20l-5.716,14.285l8.57,25.715l5.713,15.715l-4.283,7.146l10,17.143
		v12.857l4.283,12.854l2.857,8.57l-5.715,18.572l10,27.143l41.43,5.715l57.146-1.43l14.282-7.143l4.286-88.57l-2.854-367.145
		L1547.637,1632.462L1547.637,1632.462z"/>
	<path id="path12251_1_" fill-opacity="0" stroke="#000000" d="M1523.352,1643.89"/>
	<path id="path13274" fill="none" stroke="#D0C0A0" stroke-width="6" d="M989.065,529.604v27.143l8.567,5.719h-12.854l-4.285,5.711
		l12.857,4.286l-5.719,5.714l-2.854,14.286l7.143,10l-1.428,15.714l20,4.286l5.714,11.429l20.001,2.855l10,10l-1.429,8.569l4.285,10
		l10-11.429l8.571,8.568v8.57l-10,2.857l-4.285,14.285l17.143,7.143l12.857,4.286l4.285,11.429l-15.718,12.857v17.143l10,10
		l-7.144,17.146l-17.146,8.567l4.286,4.286l11.433-4.286l7.143,5.716l1.429,8.57l-5.715,5.714l10,17.146v4.285l-10,1.429
		l5.715,7.145v8.569l-8.567,4.286l-14.286-2.855l-4.286,7.146l8.572,4.285l1.428,5.715l-8.571,7.144l14.286,1.431l14.285,7.144
		l11.429-12.855l15.715-2.854l-1.429,10l-14.286,8.571l10,10l-1.429,5.714l-12.856-4.285l-2.854,12.854l11.429,7.146l-11.429,2.854
		l2.854,11.431l2.856,8.569l8.572,5.717l-5.719,10l1.433,7.143l0,0l0,0v1.43"/>
	<path id="path13557" fill="none" stroke="#D0C0A0" stroke-width="6" d="M604.78,449.604l-14.286-11.428l-2.857,8.568l7.146,5.718
		l-12.857,5.714v22.854l8.57,11.432l1.429,10l-7.143,11.43l-8.572-1.43l-8.573,7.143l-1.429,12.857l-15.714,22.857l4.286,11.428
		l-5.715,8.572l7.143,7.146l-7.143,5.714l7.143,1.429v7.146l-5.714,7.137l5.714,5.714l1.429,7.144l5.719,14.285l-5.719,1.433v14.282
		l7.146,10l12.854-1.429v8.571l-2.854,4.285l4.285,7.143l2.854-5.714l17.146,10l-1.433,7.144l-7.142,1.428l7.143,11.428
		l-1.429,17.143l-1.429,11.433l-7.146-1.433l5.719,11.433l-2.857,8.567l-2.857,5.719h-5.714l-7.144,4.281l5.715,11.431v12.854
		l-11.429,12.857l14.286,11.428l2.854,7.146l-7.143,5.715l15.717,21.428v17.143l-2.856,17.146l4.285,10l-5.714,4.283l11.429,8.57
		l2.856,14.283v14.286l-8.571,12.856l-25.714,5.719l-11.429-1.43l-4.286,11.43l-4.285,14.285l11.429,7.144l5.714-2.854l7.146,12.854
		l-5.714,1.429l-10-8.568v10l18.567,5.715l11.433,7.145l-18.575,7.137l-14.286-1.433l-18.571-7.14l-25.714,10l-31.429-17.143
		l-5.715-14.285l-17.146-20l2.86,17.143l-7.144,5.714v1.433l-15.718-1.433l-4.282-7.143l-17.146-22.857l-21.429,1.433l-7.146-7.146
		l-20,1.428l-11.428,5.719v-1.433l-4.286-7.143h-7.143l-5.714-10l2.854-15.715l-8.57-10h-15.708l-10-8.571l-5.714,8.571
		l-14.286-2.856l-15.714,1.428l-27.143-21.428l-12.857-1.429l0,0"/>
	<path id="path13840" fill="none" stroke="#D0C0A0" stroke-width="6" d="M442.738,983.889l2.02,32.325l2.021,6.061l-14.146,10.104
		l4.04,10.103l20.96,19.984l15.718-5.718l5.715,7.146l12.854,12.855l5.714,24.285l12.86,12.855l-5.714,1.43l-5.715,2.857v7.143
		h18.571l14.282,11.428l1.433,14.287l11.429,18.57l-10-5.715l-5.715,5.715l7.143,7.143l-2.854,15.715l4.283,12.855h12.857l-10,7.145
		l2.857,11.432l12.854-2.857l8.572,7.146l-1.432,14.287l11.432-7.146l11.428,4.285l-11.428,25.715h-11.432l15.717,17.146
		l7.143,15.713l17.146,8.568l-5.719,17.146l12.857,7.143l-5.714,8.572l2.854,11.428l8.571,7.146l15.715-7.146l10,8.572l1.43,30
		l-20,4.285v15.707h12.855l11.429,5.715l-1.429,15.713l7.145,20l-5.716,10l5.716,25.715l-17.145-15.715l-10-5.713l4.286,12.855
		l12.856,12.854l5.713,5.715h-7.145l-10,11.432v17.145l-12.847,24.285l-5.714,24.285l10,14.285l4.281,24.287l-11.429,20
		l7.146,15.713l-5.718,22.854l8.571,14.285l-1.428,10l2.854,30v1.434"/>
	<path id="path14125" fill="none" stroke="#D0C0A0" stroke-width="6" d="M641.738,1359.665l3.03-12.119l20.202,2.021l8.082-10.102
		l-1.014-11.111l12.121-12.123l2.021-11.107l12.123-3.029l1.011-7.072h11.109l-1.012-13.131l17.173-1.012l7.071-7.07l5.051,3.031
		l-3.029,29.293l18.186,7.068l17.172-5.051l7.071,8.08l5.051-13.131l18.183-7.072l14.146,4.041l14.142,8.082l16.163,13.131
		l18.185,7.072l17.175,8.08l8.08,8.082l7.068,16.162l11.111,22.223l5.051,23.234l9.093,30.305l11.11,15.152l15.152,17.172
		l14.142,19.193l-2.02,16.16l22.223,22.225l12.122,14.143v14.146l-10.104,16.162l-1.011,16.16v37.377l3.03,21.215l0,0"/>
	<path id="path14412" fill="none" stroke="#D0C0A0" stroke-width="6" d="M849.065,1322.462l1.429-24.285l-5.714-17.146
		l-12.857-11.426l10-2.857l-7.143-11.428l10-7.145l10-14.285l-5.715-17.146l-7.146-28.568l-2.854-21.432l4.286-15.713l15.714-24.287
		l30-11.428l-7.146-30l-1.426-27.139l10,1.429l8.571-10l1.429-14.286l15.714-21.428l-1.429-12.857l11.429-10l14.287,7.143
		l22.857-4.285l8.567-12.857l8.575-22.857h8.571l-7.146-11.43l11.433-15.717l14.281-2.854v-7.146l5.719-5.714v-11.429l-8.572-2.857
		l-10-12.854l15.715-15.715l14.285,2.854l7.144-11.428l27.146-4.286h1.425"/>
	<path id="path5037" fill="none" stroke="#D0C0A0" stroke-width="6" d="M548.699,575.067l-4.199-3.359l-21.834,2.939l-2.519,8.396
		h-6.3l-4.197-5.877l-15.955-2.521l-9.657-10.497l-4.199,7.138l-10.077-5.878l-3.774,5.458l-10.917-1.26l-2.939-12.596l-9.654-3.359
		l-13.019-2.52l-5.879,4.195l-1.259,0.842l-7.141-5.037l2.102-2.938l-10.917-13.854l-6.028-3.587l-4.889-9.433l4.199-11.757
		l-12.6-3.779l-19.313,2.104l-6.718-9.657l-12.601,3.359l-12.596-9.237l0,0l0,0l0,0"/>
</g>
</svg>
