<?xml version="1.0" encoding="utf-8"?>
<!-- Generator: Adobe Illustrator 16.0.0, SVG Export Plug-In . SVG Version: 6.00 Build 0)  -->
<!DOCTYPE svg PUBLIC "-//W3C//DTD SVG 1.1//EN" "http://www.w3.org/Graphics/SVG/1.1/DTD/svg11.dtd">
<svg version="1.1"
	 id="BD_XXX_District_locator_map" xmlns:svg="http://www.w3.org/2000/svg" xmlns:rdf="http://www.w3.org/1999/02/22-rdf-syntax-ns#" xmlns:dc="http://purl.org/dc/elements/1.1/" xmlns:cc="http://creativecommons.org/ns#"
	 xmlns="http://www.w3.org/2000/svg" xmlns:xlink="http://www.w3.org/1999/xlink" x="0px" y="0px" width="1550.242px"
	 height="2149.604px" viewBox="0 0 1550.242 2149.604" enable-background="new 0 0 1550.242 2149.604" xml:space="preserve">
<g id="g5728">
	<polyline id="rect2713_1_" fill="#F7D3AA" points="1548.846,2151.604 13.413,2151.604 13.413,2 1548.846,2 	"/>
	<polygon id="rect2263" fill="#9EC7F3" points="1048.748,1096.54 774.694,1398.452 286.235,980.977 560.289,679.064 	"/>
	
		<linearGradient id="rect2261_1_" gradientUnits="userSpaceOnUse" x1="-796.75" y1="-1106.0498" x2="736.9053" y2="-1106.0498" gradientTransform="matrix(1 0 0 1 797.25 2799.0449)">
		<stop  offset="0" style="stop-color:#FFFFFF"/>
		<stop  offset="1" style="stop-color:#000000"/>
	</linearGradient>
	
		<rect id="rect2261" x="1" y="1231.733" fill="#9EC7F3" stroke="url(#rect2261_1_)" stroke-opacity="0.0627" width="1532.655" height="922.523"/>
	
		<rect id="rect2205" x="449.799" y="1145.491" fill="#FBFED1" stroke="#FFFF00" stroke-width="3.0012" stroke-opacity="0.0627" width="177.787" height="185.869"/>
	
		<rect id="rect2203" x="523.903" y="417.318" fill="#FBFED1" stroke="#FFFF00" stroke-width="3.0012" stroke-opacity="0.0627" width="67.143" height="124.286"/>
	
		<rect id="rect2201" x="929.617" y="588.747" fill="#FBFED1" stroke="#FFFF00" stroke-width="3.0012" stroke-opacity="0.0627" width="162.857" height="307.146"/>
	<rect id="rect2197" x="259.873" y="533.29" fill="#9EC7F3" width="462.344" height="635.202"/>
	<path id="path1881" fill="#FFFFD0" stroke="#646464" stroke-width="0.5" d="M1418.268,2144.104c-1.313-5.254,0.645-7.355-4-12
		c-6.257-6.256,1.068-7,6-7C1422.104,2125.104,1418.415,2143.735,1418.268,2144.104z"/>
	<path id="path1921" fill="#FEFEE9" stroke="#646464" stroke-width="0.5" d="M370.267,1793.104c0-2.467-7.859-2.564-6-10
		C364.645,1781.595,374.519,1782.476,370.267,1793.104z"/>
	<rect id="rect2269" x="5.445" y="1655.208" fill="#F7D3AA" width="88.344" height="159.141"/>
	
		<rect id="rect2271" x="146.914" y="1658.769" fill="#CA936A" stroke="#FFFF00" stroke-width="3.0012" stroke-opacity="0.0627" width="88.571" height="137.143"/>
	
		<rect id="rect2265" y="3.082" fill="#F7D3AA" stroke="#FFFF00" stroke-width="3.6635" stroke-opacity="0.0627" width="335.906" height="1654.95"/>
	<rect id="rect6157" x="1011.046" y="1168.747" fill="#F7D3AA" width="525.714" height="194.285"/>
	
		<rect id="rect6159" x="1439.846" y="1157.548" fill="#F7D3AA" stroke="#CB9369" stroke-width="3.458" stroke-opacity="0" width="99.543" height="996.686"/>
	<path id="path2259" fill="#F7D3AA" stroke="#CB9369" stroke-width="0.9878" stroke-opacity="0" d="M328.586,1723.296
		c0,9.066,0,43.318,0,64.652c0,14.898-23.655-10.678-23.655-28.285c0-26.359-7.885-44.299-7.885-8.082
		c0,25.02,0.214,36.59,11.828,48.49c3.658,3.75-36.162,3.344-43.368-4.041c-3.961-4.061-3.076-53.02-3.941-56.572
		c-4.416-18.104,3.991-40.209,0-56.57c-7.496-30.732-15.771,8.563-15.771,24.246c0,23.514,3.942,34.438,3.942,56.57
		c0,20.895,4.36,34.656,0,52.531c-5.89,24.146-47.862-6.344-51.253-8.082c-24.438-12.521-35.369-7.965-15.771,12.123
		c10.595,10.859-32.771-1.264-43.368-12.123c-11.601-11.891-2.186-47.613,0-56.572c4.841-19.848,0-47.893,0-68.693
		c0-3.801-31.519-8.037-15.771,24.246c8.989,18.426-2.118,46.617-11.827,56.57c-12.959,13.281,6.995,30.502,11.827,40.408
		c11.363,23.293-6.918,39.418-15.77,48.49c-17.916,18.361-53.601-16.938-59.138-28.285c-6.051-12.404-22.356,16.84-35.483,20.203
		c-17.5,4.484-3.942-32.898-3.942-44.449"/>
	<path id="path2172" fill="none" stroke="#000000" d="M39.346,249.917L39.346,249.917z"/>
	<path id="path2170" fill="none" stroke="#000000" d="M344.36,151.058L344.36,151.058z"/>
	<path id="path2173" fill="none" stroke="#000000" d="M350.714,142.298v-7.508h-3.813L350.714,142.298z"/>
	<path id="path3149" fill="none" stroke="#000000" d="M503.223,367.547L503.223,367.547z"/>
	<path id="path3150" fill="none" stroke="#000000" d="M322.754,644.102L322.754,644.102z"/>
	<path id="path3166" fill="none" stroke="#000000" d="M119.411,784.257L119.411,784.257z"/>
	<path id="path3173" fill="none" stroke="#000000" d="M285.898,909.395L285.898,909.395z"/>
	<path id="path3175" fill="none" stroke="#000000" d="M299.878,900.635L299.878,900.635z"/>
	<g id="g5219" transform="matrix(2.5417852,0,0,2.5027642,-20.817184,-25.22581)">
		<g id="g4167">
			<path id="path3168" fill="#FFFFD0" stroke="#D0C0A0" stroke-width="2" d="M53.669,326.435l1.5-3.5l-3.5-4.5l0.5-6.5l-3-3.5l0.5-4
				l10-3l6-3l-0.5-4l9.5,0.5l1.5-1.5l-1.5-2.5l-2.5,1.5l-3.5-2l6.5-3.5l7.5,2.5l0.5,4l3,1l3-3.5l2.5,2l-0.5,5.5l4.5,2l11-6l-0.5-1
				l5.5,2l3,2.5l4-0.5l3.5,3.5l4-1.5v5l0.5,2.5l4,2h2.5v3l-1,2.5l-5.5,0.5l-3,2.5h2l3,3l-4.5,3.5l0.5,2.5l0,0l0.5,13.5l-5,3.5
				l-1,1.5l0,0l2.5,5l4-1l0.5,3l1,2.5l1.5,1.5l-6.5,2.5l-2,2l2.5,2l-3,1.5l2,1.5l-2,1.5l5.5,1l1,2l-4,1l-0.5,2h-5l-7-3l-4.5-4l-2-1
				l-3.5-1v-2l4-1l0.5-10.5l-3.5-7.5l-4-0.5l-2,3l-7.5-0.5l-4.5-2.5l-3.5,3l-4.5-2.5l-4.5-4.5l-2,0.5l-0.5-2.5l-4.5-1l-5-2.5
				L53.669,326.435z"/>
			<g id="g4150">
				<g id="g3158">
					<g id="g3153">
						<path id="path4167" fill="#FFFFD0" stroke="#D0C0A0" stroke-width="2" d="M108.17,62.936l2.5-2.5l2.5,0.5l2.5,2l-2,5.5l3,1
							l2.5,3l3-0.5l-0.5-3.5l-2.5-1.5l3-3.5l5.5,0.5l2.5,3.5l2,2.5l1.5,2.5l1-1.5h4.5l1,1l3-1.5v3.5l0.5,6l3.5,2.5l3.5,2l1,2.5
							l-0.5,3l-1,7.5l1.5,5l1,5.5l4,3.5l4.5,3l3.5,3l-1.5,4l-1.5,3.5l-1.5,2l-3-3.5l-5,4.5l0.5,5.5l-4-4l-2.5,5l-8-2l-5.5,1.5l2,5
							l-2.5,3l-1.5,2.5l-4.5-0.5l-4-3.5h-2.5v-5.5l-4-1v-12l-2-2.5l-2-3.5l-5.5-1.5l0.5-2.5l-1.5-1v-4l-0.5-1.5l2-2.5l-1.5,2.5
							l3-4.5l3-1.5v-8.5l1.5-3v-2l-0.5-7l1.5-3l-5.5-6V62.936z"/>
						<path id="path2169" fill="#FFFFD0" stroke="#D0C0A0" stroke-width="2" stroke-linecap="round" stroke-linejoin="round" d="
							M53.669,41.436l-1-3.5l-1-2.5l2.5-3.5l2-4.5l2-6l4-6l1,6.5l0.5,3.5l4,4l4-1l1,3.5l4,1l0.5,3l4,1.5l0.5,2l4,1l2.5-3l1.5,4
							l2,2.5l3,2l1,2l2.5-1l1.5,1.5l-1.5,3.5l1.5,1.5l2,1.5v1l4-0.5v2l1,2v2.5l2.5,2l-0.5,4.5l2,3.5l2.5,3.5l-1,3.5v5v4.5l-1.5,4
							l1,5l-2.5,3.5l-3.5,5l-4-1l-5.5-0.5l-2-4l-2.5-2l3-5.5l-2-4l-2.5-3l-4-1.5l-2-2l-1.5-3l-2.5,1c0,0-0.625-0.5-2-1
							c-1.375-0.5-3.5-1-3.5-1l-2.5-1l-2.5,2l-4-1l-3.5-1.5l-3,2l-0.5,2.5c0,0-1.625-0.25-3.5-1c-1.875-0.75-4-2-4-2l-1-1.5l3.5-2
							l2-2.5l-1.5-3v-7l5.5-0.5l2-2l2-3l4.5-1.5l1-3.5l2.5,4l2.5-1.5l2-3.5l-2-2.5l-2-3v-3.5l-3.5-3l-4.5,1l-2.5-4l-2.5,2l-3-0.5
							L53.669,41.436z"/>
						<path id="path2192" fill="#FFFFD0" stroke="#D0C0A0" stroke-width="2" d="M27.169,136.936l-2.5-4.5l-3-4l2-4.5l-5-1l1.5-8
							l3.5-2.5l-0.5-3l2-4l6-4l2-5.5l-4.5-2.5l2.5-4.5l1-4.5l5.5-2v-5l7.5,1l5.5-1.5l7.5,5l1.5-4l5.104-1.072l4.396,1.572l4-0.5
							l10,2.5l4,4.5l3.5,1.5l5,6l-3.5,5l1,3.5l-2.5,2.5l-1,4h-3.5l-2.5-4l-1.5,3h-3l-1.5,5.5l2,2l-2.5,0.5l-3,5l-1,3l-1.5,3l2,2.5
							l-3,0.5h-2v-2.5l-6.5,0.5v4h-2.5l-0.5,5l3,1.5l-2,2v4.5l2.5,1.5l3,2.5l-0.5,3.5l-3.5,0.5l-3-3l-2.5-1.5v-2l-3.5-3.5h-3l-1-3.5
							l-5.5-3l0.5-2.5l-0.5-1.5l-4.5,1.5l-3,2.5l-2.5-3L27.169,136.936z"/>
						<path id="path2175" fill="#FFFFD0" stroke="#D0C0A0" stroke-width="2" d="M142.169,64.436l-1.5-4l-4,3l-2-3l3-2.5l-1.5-2.5
							l-2.5-0.5l-1.5,1.5l-5-2.5l-1-4.5l5-7.5l4.5-1.5v3l1.5,1l4.5,1.5l3,3l6.5-0.5l1.5,3.5l-3,0.5l2.5,3l-2.5,3h6l2,3.5l-0.5,1.5
							h-3l-3-3v4.5l2.5,3l4,4.5l0.5,3l-1.5,1.5l4.5,9l8,1.5l4,4l0.5,3l-2,1l0.5,1l3.5,0.5l4,2l3.5,4l6.5,1.5l3-5.5l2,0.5l0.5,2.5
							l2.5,1l2,2l2-1.5l-1,9.5l4,0.5l5.5,6l1-0.5v3h4.5l0.5,1.5l-4.5,6l-2.5,0.5l0.5,6l-5.5,4l-1.5-0.5l-0.5-4.5l-1.5,0.5l-1,2.5
							l-4-0.5l-3-1l-0.5,1l-10-6c0,0,2.5-3,0-3.5s-5-2-5-2v-3.5l-3,0.5l-4.5-3.5l-5-2l-3-3.5l-6.412-2.12l-3.088-4.88l-2.5-11.5
							l1.5-7.5v-3l-8-5l0.5-10l4-1.5l-2.5-3.5L142.169,64.436z"/>
						<path id="path2174" fill="#FFFFD0" stroke="#D0C0A0" stroke-width="2" d="M93.169,99.935l-2.5,2.5l-1,4l-3.5,1l-3-4.5l-1,3.5
							h-3.5l-1.5,5.5l2.5,1.5v1.5l-3-0.5l-4.5,10l1.5,2.5l-1,1.5l-4,0.5l-0.5-3l-1.5,1l-5.5-1l1,5l-2.5-1l-0.5,4.5l2.5,1.5l-1.5,3.5
							l0.5,3.5l5,4v4l2,1.5l-0.5,4.5l-2,1v4l3,2h4.5v4l3.5,2.5l1.5,3.5l6,0.5l3.5-1l1,2.5l4.5,0.5v2l7,1l2-2l2.5-1.5
							c0,0,6,2.5,4.5,0.5c-1.5-2-1.5-5.5-1.5-5.5l3,3l3-3v5l2.5,1l2,4.5l-2,5l-2.5,1.5l3,1.5l0.5,4l6.5,6.5l1.5-2.5l1.5,2v2l12.5,1
							l1.5,2l-0.5,3.5l5.5,3l5-1l2.5,4l7-1l15,3.5l4-2v-3.5l-4-4.5l-0.5-4.5l-5.5-4.5l1-2l-1.5-1h-2.5l-0.5-3h-4.5l-3-3.5l1.5-1
							l-5-3l-3.5-14l-2-5l-7.5-1.5l-3.5-8l-7-4.5l-1-7l-5.5-1.5l-2-2l-3-0.5l1.5-5.5h-5l-0.5-12l-4-7l-4.5-1l-1.5-4v-4.5l-8.5-1.5
							L93.169,99.935z"/>
						<path id="path2176" fill="#FFFFD0" stroke="#D0C0A0" stroke-width="2" d="M174.67,205.935v-4l-6.5-4.5l1.5-2.5l-4-1v-2l-5-0.5
							l-4-3.5l2.5-0.5l-6.5-3.5l-4-18.5l-8-2l-3.5-8l-6-3.5l-2-8l5-5l-1.5-5l5.5-1.5l8.5,1.5l1.5-4l5,4l-0.5-6l5-5l2,4l6-9l7.5,5
							h3.5v3.5l5.5,2l2,4.5l8,5l1-2l6,3l1.5,1.5l-0.5,1.5l4.5,1l1.5,2l-4.5,2l4,1.5l1.5,2v3.5l-1.5,1v2.5l3,1.5l0.5,1.5l-2,1.5l-4,3
							l1.5,2.5l-2.5,1.5l-1.5-2.5l-3-1l-0.5,1.5l-4-0.5l-2,2.5l5,4.5l-0.5,3.5l3,2l-3.5,4.5l-3.5,0.5l-3.5,4l-5,9.5v1l1.5,2.5
							l-2.5,1l5.5,4H174.67z"/>
						<path id="path3151" fill="#FFFFD0" stroke="#D0C0A0" stroke-width="2" d="M206.669,153.436v-3.5l-4.5-4l4.5-0.5l-3-3h-3.5
							l-1.5-4.5l3.5-3v3.5l2.5,2l4.5-4l0.5-6.5l6.5-5.5l-0.5-2l-4.5-0.5v-3.5l-2,1.5l-5-7h-4l1.5-9h7l1,2l-0.5,2.5l3,3l1-2l2.5-1
							v-2.5l-2.5-0.5l-0.5-4.5l5.5-4h4.5v-2.5l-1.5-1l-0.5-4l-1.5,0.5l-1,2l-1,1.5l-2-1l2-3.5l-1-2l-1-2v-2.5h2l3-3.5l1-2.5l-0.5-3
							l1.5-1.5h4.5l3,2.5l-2,2l-0.5,2.5l-0.5,1l1.5,3l2-1.5h5.5l1.5,4.5l5,8.5l-2,1v3l3,1l2.5,7.5h5l-5,4.5l5,1.5l3.5,1.5v1.5
							l-2.5,2.5l-4.5,4l0.5,5.5l-2.5,3.5l2,3.5l2,3.5l-3,3v3l2.5,0.5l-1,4l4.5,3.5v13l-2.5,5l-0.5,8l-1,4.5l-1.5,1.5l-0.5,5.5
							l-2.5-1.5l-3.5-2v3l2,1.5l-4.5,3.5l-2-0.5v-2l-1,1l-4-0.5v-2.5l2-1l-2-0.5v-2.5l1.5-4l-6-1.5l3.5-1.5l-2-3v-2l-4.5-4h-3.5
							l-1,2.5l-1.5-4l-6-3l-2-5.5l-2.5-2.5V153.436z"/>
						<path id="path2177" fill="#FFFFD0" stroke="#D0C0A0" stroke-width="2" d="M165.67,213.936l8.5,3l4-2l1-3.5l-4-5.5l11.5,0.5
							l-4.5-4.5l3.5-0.5l-2.5-4l7-11l2.5-3l2.5,1l4-5.5l-3.5-2l0.5-4.5l-4.5-3.5l1.5-2.5l4-1.5l4,1l0.5,4l4-2l-2.5-3.5l6-3.5l4,5.5
							l3.5,2.5l2,4.5l1.5-3h3l4,3.5v2l2.5,2.5l-5,2.5l7.5,1.5l-1.5,1.5v4.5l1,1l-1.5,0.5v2.5l4,0.5l2-2v2.5l1.5,1v8l2.5,5.5l0.5,3.5
							l-3.5,5l-2.5-0.5l-3.5,3l-0.5,4.5l-3.5,5l-3,3.5v2.5l1.5,2.5l2,0.5l-2.5,1.5l-1,3l-1-2l-5.5-0.5l-4.5,1.5l-1,2.5h-2.5l-1-2
							l-7.5-1.5l-2-2.5l-1.5-0.5l-1.5,2l-2.5-1.5l-1.5-0.5l-1,2l-4-0.5l-1.5-5h-2l-1.5-1.5l-5.5-0.5l-2,2.5l-3-2.5v-1.5l-4-5.5h-1.5
							l-2-2.5l-1-2.5L165.67,213.936z"/>
						<path id="path3152" fill="#FFFFD0" stroke="#D0C0A0" stroke-width="2" d="M140.169,264.436l-0.5-9l1-1l0.5-11l-3-3h-2.5l-1,2
							h-2l-2-4v-2.5l1.5-0.5l0.5-7.5l-3-0.5l1.5-1l-2-4l2.5-2.5l-0.5-3.5l1-7l6-2l2,0.5l4.5,3.5l5.5-1l2.5,3.5l7-1l5.5,2l-2,4l2.5,4
							l2.5,2l3.5,5l-0.5,1.5l4.5,3v2l-3,2.5l-2,1l2,3l-3,1l1,2l-3-1.5l-2.5,7h-2v4l1.5,1.5l-0.5,2l-2.5-0.5v-1.5h-5.5l-0.5-3.5
							l-3.5-1.5l-0.5,7h-1.5l0.5,2l3,2v1.5l-4.5,3l-1.5,1l-2.5-2l-2.5,3v-2h-2.5v2l-1-1.5h-3.5v-3L140.169,264.436z"/>
						<path id="path2179" fill="#FFFFD0" stroke="#D0C0A0" stroke-width="2" d="M135.169,268.436v-3.5l5-0.5l-1-9l2-0.5l-0.5-10.5
							l-3-5h-1l-2,2.5l-2.5,0.5l-2.5-4.5v-2h2l1.5-8h-5.5l3-1l-3-4l2-2.5l-4-0.5h-2l-6.5-4l-1.5,3.5l-3.5,2.5h-1l-2.5-3l-2.5,1.5
							l-6-3.5l-3.5-1l-1,2l-9.5-0.5l-2.5,5h-2.5v-3l-1.5-1.5l-1.5,2l-2-2.5h-3l-2.5-2l-1,2l-3.5,1.5l0,0l-0.5,4l4,2v1.5l-3.5,1.5v7
							l1,1.5l-2.5-0.5l-0.5,4.5l2.5,2l-2,2.5l-2.5,1.5v3l-2.5,0.5v2h3.5l3,3l0.5,5.5h1.5v-2l0.5-2h2l3.5,3.5v2l-3.5,6l-2.5,1l-4,0.5
							l-0.5,1.5l-4.5-1l-1.5,3l3.5,2l2-1h6l-2,3l2.5,1l5,0.5l1.5,3l-2.5,0.5l-2.5-1h-2l-0.5,1.5l3.5,1l3,1.5l0.5,1.5l2.5,1.5
							l5.5,1.5v3.5l2.5,1l3-4l2.5,3.5l-0.5,5.5l2,2l0.5-1h2.5l3-1.5l7-5h2l0.5,2l3.5-0.5l0,0l2.5,3l1-1h3.5l3,3.5l0.5-1l3-0.5l1.5,2
							v5l2.5,2l2.5,0.5l5.5,0.5v3l1,1h2l0.5-1.5v2h3l1,3l2-2.5l1.5,0.5l3.5-3v-5l-1.5-1v-3.5l4-6l1.5-2.5l-0.5-4.5l1-4l-2.5,2
							l-5.5,0.5l0.5-4.5l-3.5-6h-1l-4,4l-1.5-0.5l-4.5,4l-0.5-11l-2-1L135.169,268.436z"/>
						<path id="path2180" fill="#FFFFD0" stroke="#D0C0A0" stroke-width="2" d="M75.17,285.936l-3-2.5l-3.5-1l0.5-2l7,1.5l-1.5-3
							h-4.5l-4.5-2l2.5-3l-4.5-1l-2,2l-4-2l1-3.5l4,1.5l1-2l5.5,0.5l1.5-2l4-6.5l-5-5l-1.5,4.5l-3,0.5l1-5l-3-3.5l-3-0.5l-1.5,3.5
							l-6-0.5l-1,4h-1.5l-0.5,2h3.5v2.5l-2,3l-1-3l0,0l-2.5,2.5l-1-2.5l-3-2l-1.5,3l1.5-5l-5-3.5l0.5-3l-3.5-0.5l-0.5,1.5h-4l-4,2.5
							l-0.5,2.5l2.5,2.5l1,7l-9,6l1,4l-3-0.5l-1.5,1.5l-0.5,4l-0.5,3.5l-0.5,2.5l-2.5-0.5l-2.5,1.5l1.5,1.5l2.5,2l-0.5,2l5.5,3.5
							l-0.5,3l3,3l-1.5,4.5l2,4l2.5,3h3.5l3,3l2,2.5l3.5-0.5l12.5,4h5v-2.5h-0.5l-2.5-4v-7l-2.5-3v-4.5l6-3l4-0.5l0,0l5.5-3.5
							l-0.5-4h10.5l1-1l-2-1.5l-2,1l-3.5-2L75.17,285.936z"/>
					</g>
					<path id="path2184" fill="#FFFFD0" stroke="#D0C0A0" stroke-width="2" d="M134.67,283.436l-0.5-10.5l-2-1.5l4-3.5h3l1.5,3.5
						l0.5-3.5h1.5v3l3.5-4.5l2.5,2.5l6-5l-5-5l2.5,1l0.5-7.5l3,1.5l0.5,3l5.5,0.5v2h4l-0.5-3l-2.5-1.5v-3l2.5,0.5l3-8l3.5,2l-1.5-3
						h3.5l-2.5-3.5l5-3l0.5-3.5l-2-0.5l2-2l5.5,1l3.5,2l1,4.5l4.5,1l1-2.5l4.5,2.5l1.5-3l4,4l6,1l2.5,2.5h2l1.5-3.5l8.5-1l1.5,2.5
						l1.5,0.5l-1.5,4h2l1,3.5l-2,3l2,1.5l-1,2.5l2,3l0.5,3.5l-2.5,0.5v4.5l4,4.5h3.5l1.5,2.5l-1,1.5h-7l-1,1.5v3h-1v3.5l-5,7
						l-3.5-3.5l-2.5,1.5l-2-2v2.5l-2,2l-0.5,4l2,1l-1,2.5l0.5,1l3-0.5l3,2.5l-2,2.5l3.5,2l-2,2.5h-3l-0.5,2l-3-1l-2-3l-0.5,2.5h-3
						l-1.5-2l-4,2l-3.5,0.5l-4-2.5l-10,0.5v-2.5l-2.5-3.5h-1.5l-3-3l-4-0.5l-2,1.5l1,4l-0.5,1.5l-5.5-4.5v-2l2-1.5l-1-2.5l-3,2.5
						l-1.5-1.5l-2.5,5.5l-3.5-7l2.5-3l-0.5-7.5l-2.5,2.5l-5-0.5l0.5-2.5l-4.5-7.5l-3.5,4l-1.5-2L134.67,283.436z"/>
				</g>
				<path id="path3179" fill="#FFFFD0" stroke="#D0C0A0" stroke-width="2" d="M121.669,372.936v-2.5l5-0.5l-1-2.5l-6.5-1l2-2l-2-1
					l3-1.5l-2-3l8-3l-2.5-4v-3l-5,0.5l-2-5l6.5-4.5l-1-16l5-3.5l-3.5-3.5h-3l4.5-3l5,1l2-4l-0.5-2h3.5l-0.5,2.5l3,2.5l4,0.5l3.5,0.5
					l4.5-3l0.5-5.5h-2v-4.5l4-5l3.5,6l2-5l2,1l3-3l1.5,2l-3,3.5l6,4.5l0.5-2l-2-2.5l2.5-2.5l4.5,1l3,2.5l3,2.5l1.5,3.5l1.5,1.5
					l-8.5,11.5l-5,6l3,1.5l1,3l2.5,1.5l0.5,9.5l-4,4v2.5l-2.5-0.5l-4.5,9l-3.5,2h-3l-1.5,3.5l-4.5,3.5l-9,2l-2-2l-1.5-0.5l-2,3.5
					v3.5l-6-0.5l-5-1.5l-2,2.5L121.669,372.936z"/>
			</g>
		</g>
		<path id="path4248" fill="#FFFFD0" stroke="#D0C0A0" stroke-width="2" d="M176.669,341.436v-7.5l-2.5-2v-2l-3.5-3l13.5-16.5l-1-2
			h9l3.5,3h3.5l4.5-2.5l4,2l1-3.5l2,4l3.5,1v-2.5h2.5l2.5-2l-4-2.5l2-2l-3.5-3l-3,0.5l-1-0.5l2.5-2.5l-2.5-1.5l1.5-5.5v-3.5l2.5,2.5
			l3-1l3,3l6.5-7l-1-3l1-5l6,0.5l2,2.5l1.5,1.5l1-2h1.5l2.5,2.5l1.5,0.5l0.5,3l-3,0.5l-0.5,1.5l3,2.5v7.5l-1,4h-3l2.5,3l0.5,3.5
			l-2.5,1.5l-0.5,3l-2-0.5l-2.5,3l2.5,3.5v4l-3.5,2.5l-1.5,2.5l7,7.5l-3,3l0.5,2l3.5,2.5l2.5,4l-1,14.5l1.5,2l-1.5,1.5v2l1.5,0.5
			l2,2v1.5l1.5,1.5l-0.5,6l-3.5,7l-6.5,2.5h-3.5l-4-5l-6-4.5h-4.5l-6.5-5.5l-5-1l-0.5-2.5l2.5-1l0.5-3.5l-2-1l1.5-1v-2l-2-2.5
			l-1.5,1l-4.5,1l-1.5-1v-3.5l2-1c0,0,0-3-2-3c-2,0-2.5,0-2.5,0l-1.5,2.5h-1l-1-3v-4l-4.5-3l-4-1L176.669,341.436z"/>
	</g>
	<path id="path5240" fill="#FFFFD0" stroke="#D0C0A0" stroke-width="2" d="M332.922,910.647v-8.76l5.083-8.76l6.354,6.257
		l25.417-5.006l12.709-10.013l2.542-10.011l7.625,2.503l11.438-6.258l7.625-22.524l7.625,3.755l1.271-10.012l10.167-10.011
		l26.688,6.257l8.896,3.754v12.516l3.813,7.509l8.896-5.006l7.626,2.503l-5.084,3.754v10.011l5.084,3.755h11.438l5.084-6.258
		l5.083,8.76l-7.625,6.259h6.354v7.509l-7.626,3.754l2.542,8.76l11.438,1.252l16.521,13.766l11.438-1.25l16.521,13.765l8.896,12.514
		l-12.709,2.503v7.511l-5.083,1.25l1.271,11.264l6.354,7.508l10.167-2.502l5.084,15.017h-5.084l-10.167-11.263l3.813,15.019
		l15.251,2.502l11.438,7.509l-11.438,3.754l-6.354,3.755l-15.251-1.252l-15.25-6.257l-17.793,5.006l-11.438,5.005l-30.502-18.771
		l-5.084-12.515l-15.25-16.268h-6.354l5.083,12.514l-6.354,7.508l-13.979-2.503l-8.896-12.514l-12.709-13.765l-5.083-2.505h-17.791
		l-7.625-5.006h-13.98l-7.625-1.251l-10.167,8.762v-6.259l-10.167-3.755l-5.083-10.011l2.542-16.268L332.922,910.647
		L332.922,910.647z"/>
	<path id="path4161" fill="none" stroke="#000000" d="M571.85,1029.528L571.85,1029.528z"/>
	<g id="g7076" transform="matrix(2.5417852,0,0,2.5027642,-20.817184,-25.22581)">
		<path id="path3188" fill="#FFFFD0" stroke="#D0C0A0" stroke-width="2" d="M98.169,364.436h5.5l5,4.5l7,4l5.5,0.5l5.5,1l2-3.5
			l4,2.5h6.5l3,5.5l-1,4.5l1.5,4.5l2,0.5l2.5,0.5v3l4.5,2l1.5,4l2-2.5l2.5,1.5l3,3.5l7-0.5l-5-4.5l6-1.5l5.5,4l-4,1.5l0.5,3l4.5,3.5
			l3,2l3-0.5l2,1l-0.5,4.5l-0.5,7l-3.5,4l1,2.5h-3.5l-6-4l-1.5-0.5l-1,3h-4.5l-2.5,3.5l-3-1l-4,3.5l-0.5-4.5h-3l0.5-3l-3.5-1l-0.5,2
			l2.5,3.5l-3.5,1l-0.293,3.384l-3.707,1.616v-6.5l-0.5-4.5l-2-2.5l-2,1.5l-2.5,3.5l-2.5-6l-4-1l2.5-3l-4.5-1l-3.5-2.5l2-2v-2
			l-3,0.5l-2-1.5l3.5-2l-1.5-4l-2-2.5l-3.5,2l-1.5-5l-1.5-2h-1.5v4l-5.5-6l-2-2.5l-0.5-3l3.5-1l-4.5-2.5l3-1.5l-6-4.5
			L98.169,364.436z"/>
		<path id="path4163" fill="#FFFFD0" stroke="#D0C0A0" stroke-width="2" d="M182.17,414.936v-6.5l-2.5-2l3-1.5l7,0.5l4,0.5l2.5,3
			v3.5l1,3.5l7.5,4.5l-2-5.5l4-0.5l1,2.5l2.5,1.5l7-4.5l2.5,1.5l-0.5,2.5l2.5,3v-4l11-0.5l5.5,1l3.5,4.5l0.5,5.5l-4.5-3.5l-3.5-4.5
			h-12l-0.5,2h10l5,3.5l6.5,5l2.5,2l2,1l-2.5,1l-0.5,2.5h-5l-0.5,2.5l-3.5-1v7l4,2.5l-1,2.5h-3.5l-1-2.5l-1,2.5l-5-0.499l-1-6
			l-6,5.5h-2.5l-1-4.5h-2l-1,2l-5-2.5l-1,2l3,1.999l-3,1.501l-2-0.5v-2.5l-4-0.499l-2-5.5l-5-3.5l-0.5-3l-7-0.5l-1,1.5l-6-5.5l-1-3
			l-1.5-3l3.5-3.5V414.936z"/>
		<path id="path5134" fill="#FFFFD0" stroke="#D0C0A0" stroke-width="2" d="M105.67,391.936l6,6.5l0.5-5l3,3v3l1.5,2l3-3l3.5,5.5
			l-4.5,3l3,2.5l3-1l1,2l-3.5,1.5v1l-0.5,3l-2.5-1.5l-2,3l0.5,4.5l-4.5,0.5l0.125,9.5l-4.125,4.375l-3.875,0.625l-2.625,2l-2-0.5
			l-6.5,5.5l-1,1.5l-7.25,0.375l0.75-5.375l-3.5-1l-1-2l2.5-1.5l1-3.5l-2.5-1l0.5-5.5l2.5-2.5l-3.5-5l2.5,1l3-3v-1l-1.5-1.5l0.5-5.5
			l-1-1l3-1.5l2.5,1v3l1.726-2.205l3.024-0.17l5.25-5.625l3.25-0.375l1.125-3l-0.875-4.125L105.67,391.936z"/>
		<path id="path6105" fill="#FFFFD0" stroke="#D0C0A0" stroke-width="2" d="M92.17,445.436l8.5-6.5l2.5,0.5l2-2.5l4.177-0.914
			l3.47-4.147l0.353-9.439l3.97-0.561l-0.97-4.439l3-2.5l2.5,2l1.03-4.531l2.47,2.53l5.768,0.5l-3.268,3.001l4,1.5l1.061,2.323
			l2.939,3.677l1-2.5l2.5-2.5l2,2.5l0.561,11.353l-0.061,6.647l-1.5,5.5l-1.291,1.739l-3.209,0.762v1.5l2,1.5l-0.5,2.5l-5.5-1l-3,1
			l2.341,0.574l1.659,3.427l-0.5,7l-2.5,1l2.912,1.674l1.088,2.326l-5.384,4.207l-4.616,0.177l-0.5,4.616h-3.5l-2.853-2.263
			l-3.147,1.263h-4.5l-1.5-1.5v-6l1.5-4.5l3,1l-0.384-3.323l1.177-2.97l-1.293-1.324l-2.5-0.384l2.177,2.146l-3.677,2.854l-2-1.999
			l0.5-2l-1.738-1.616l-3.787-1.899l-6.475-4.985l1.5-3.5L92.17,445.436z"/>
	</g>
	<path id="path7082" fill="#FFFFD0" stroke="#D0C0A0" stroke-width="2" d="M254.126,1170.934l15.25,3.754l7.625-5.004l5.083,6.256
		l10.167,1.252l1.271-13.766l8.896,1.252l16.521-10.012l-1.271-6.26l-10.167-6.256l5.083-2.502l2.542-17.52l-3.813-6.26
		l-6.354-3.754l7.625-3.754l15.251,6.256l1.271-6.256l-5.083-6.258l-1.271-3.754h7.625l10.167-17.521l-1.271-20.02l8.896-3.754
		l3.813-8.762h6.354v-5.006l-6.354-7.508l1.271-5.006l7.625,3.755v6.257l7.625,2.502l1.271,7.511h5.084l5.083-7.511l8.896,3.756
		l6.354-8.761h11.438l3.813-7.509l15.251,10.669l10.167,1.845l1.271,5.006l17.793,15.019l1.271,7.508l-2.542,3.755h-3.813
		l-2.542,5.004l3.813,3.758l1.271,5.004l-3.813,1.252v7.508l5.083,2.504l-1.271,2.502h-6.354l-6.354,10.012l1.271,13.768
		l-1.271,13.764l-3.813,6.258l-5.084,5.008l-6.354-1.252l-7.625,15.018l-1.271,8.76l5.083,1.25l-5.083,3.754v6.258l-6.355,6.258
		l-5.083-5.006l-2.542,3.754l3.813,10.012l-8.896,3.756l-21.604,3.754l-6.354-15.018h-10.167l-5.084-11.264l7.625-5.006
		l-12.709-5.006l-5.083-3.754l-3.813,3.754l7.625,10.012H334.19l-10.167,5.006l7.625,7.51l7.625,3.754l-10.167,1.252l-16.521-5.006
		l-3.813,1.252l7.625,5.004l-3.813,8.76l-3.813,6.258l-1.271,6.256h-21.606l-12.708-6.256v8.762l-12.709-1.252l-2.542-6.258
		l-10.167-1.252l-6.354-3.754v-6.258l-7.625-5.006v-6.256l2.542-5.006l10.167-2.502l-1.271-6.258L254.126,1170.934L254.126,1170.934
		z"/>
	<path id="path8053" fill="#FFFFD0" stroke="#D0C0A0" stroke-width="2" d="M421.884,1175.94l-6.354-3.754v-6.258l8.896-15.018
		l6.354,1.25l10.167-12.514v-15.016l-1.271-12.516l3.813-10.012h8.896l2.542-3.754l-6.354-1.252v-8.76h3.813v-5.006l-5.084-5.008
		l1.271-5.004l6.354,2.502l2.541-5.005l-1.271-7.509l1.271-3.754l16.522,1.252l2.541,6.257l12.709,10.011l3.813,12.516l5.083,6.256
		v8.76l5.084,6.258l5.083,2.502v5.006h-6.354l-5.083,3.756l1.271,3.754H517.2l10.167,6.258l2.542,8.76h3.813v13.766l8.896,13.768
		l2.542,7.508l-11.438-7.508l-5.083,5.004l6.354,2.504v16.268h-15.251l-6.354,11.264l-6.354,2.504l-8.896-11.264l-5.083,2.504
		l-7.626,10.01l-5.083,2.504h-2.542l-6.354-7.508l-3.813,1.25l-7.626-8.76h-1.271l-2.542,2.504h-6.354l-6.354-5.008l-1.271-7.508
		l-7.625,1.25L421.884,1175.94L421.884,1175.94z"/>
	<path id="path2204" fill="#FFFFD0" stroke="#D0C0A0" stroke-width="2" d="M306.233,1218.487l10.167-17.52l-10.167-8.76h7.625
		l12.709,6.258h13.979l-16.521-12.518l6.354-5.004l17.792,1.25l-8.896-10.01l3.813-6.258l2.542,5.006l15.25,5.006l-6.354,5.006
		l3.813,10.012l11.438,1.252l5.084,15.016l15.25-2.502l16.521-3.754l-5.083-10.014l1.271-5.006l6.354,5.006l7.625-6.256l-2.542-7.51
		l5.083-2.502l16.521,11.262l6.354-1.25l1.271,6.256l7.626,7.51l6.354,1.252l3.813-5.008l6.354,8.762l11.438,3.754l-3.813,6.258
		l6.354,3.754l-3.813,3.754l1.271,15.018l-3.813,5.008l2.542,11.262l-11.438,1.252v3.754l6.354,2.502l1.271,5.006l-3.813,1.252
		l1.271,8.762l11.438-7.512h3.813l-1.271,12.516l7.626,2.504v2.502h11.438l2.542,3.754l-2.542,8.76l7.625,12.516
		c0,0,6.354,8.76,1.271,8.76c-5.084,0-7.626,0-7.626,0l-8.896-2.502l-3.813-3.754l-6.354-15.02l-3.813-3.754l-8.896,6.258
		l2.541,8.76l-7.625,11.264l-16.521,7.508l-1.271,6.258l5.083,6.256l-1.271,16.271l-1.271,5.004l-13.979-6.256v-6.258l-5.084-1.25
		l-1.271,3.754l-11.438,10.01l-7.625-1.25l-11.438,6.256h-7.625l0,0l-8.896-6.256l-1.271,1.25l-5.083-3.754l-1.271-6.256
		l7.625-1.252l-8.896-11.262l7.625,1.25l1.271-3.756l-5.083-8.76l-10.167-6.256l-1.271,7.508h-19.699l-8.261-6.258l-6.354-3.754l0,0
		l5.083,11.889l-5.083,5.006l-19.063-2.504l-5.084-5.631l-6.354,3.754h-5.083l3.813-7.508l-15.251-6.256l2.542-22.525l7.625-2.504
		l-3.813-6.256v-6.258l-5.083-3.754l10.167-16.27l12.709-5.006l-1.271-10.01l12.709-8.76l5.083,3.754l3.813-7.51l-5.083-2.502
		l-1.271-6.258l-11.438,8.76l-6.354-3.754L306.233,1218.487L306.233,1218.487z"/>
	<path id="path2205" fill="#FFFFD0" stroke="#D0C0A0" stroke-width="2" d="M479.074,1218.487l-6.354-8.76l10.167-1.252
		l10.168-10.012l3.813-3.754l7.625,11.264l8.896-3.754l6.354-8.76h13.979l3.813,10.01h10.168l1.271,2.504l-8.896,10.01l3.813,7.51
		h13.98l6.354,7.51v5.006l-3.813,6.256l3.813,1.252l8.896-6.258l10.167,1.252l-1.271,8.76l-3.813,8.76l-5.084,10.014h-6.354
		l-10.166-2.506l16.521,13.768l5.084,7.508l5.084,12.514l13.979,8.762v6.258l-3.813,1.252l-11.438,2.502l-29.229-11.264
		l-10.167,11.264l-16.521-8.762l-5.084,7.51h-3.813l-13.979-16.27l5.082-7.508l-3.813-7.508l-12.709-1.252l-6.354-6.258
		l2.541-10.012l-5.084-1.252l-11.438,11.264l2.542-10.012l-1.271-7.51l-7.625-2.502l13.979-2.502l-2.542-11.264l5.084-5.006
		L479.074,1218.487L479.074,1218.487z"/>
	<path id="path2206" fill="#FFFFD0" stroke="#D0C0A0" stroke-width="2" d="M332.922,1317.346l8.896,11.262l-6.354,7.51l-7.625-5.006
		l-10.167,1.252l-5.083-5.006l-11.438,6.256l2.542,10.012l7.625,8.762l3.813-6.258l5.083,2.504l-1.271,6.256l5.083,2.504
		l-1.271,7.508l-7.625,7.508l5.083,5.008l-5.083,1.25l-1.271,11.264l-7.625-3.754l2.542,11.262l10.167,13.766l-11.438,21.273
		l12.709,8.76l-2.542,7.508l-2.542,10.014l11.438,8.76l-2.542,11.262l7.625,12.516l1.271,13.766l5.083,3.754l-11.438,3.756
		l1.271,7.508l5.083,3.754l-5.083,21.273l12.708,1.252l2.542,10.01l-10.167-2.502v6.256l7.625,8.762l7.625,1.252v11.262l8.896,7.51
		l1.271,16.268l11.438-2.504l-8.896,12.518h-11.438l-1.271,10.01l3.813,12.514l11.438,20.023l-3.813,2.502l-1.271,30.033
		l8.896,11.262l1.271,16.27l1.271,8.762l15.251,7.508l11.438-5.006l7.625,15.016l-2.542,6.26l7.625,7.508l-5.083,11.264
		l-11.438,12.514l15.25,6.258l15.251-3.756l-2.542-6.256h8.896l1.271-7.51l-6.354-3.754l5.084-7.51v-25.025l-5.084-2.504
		l10.805-8.76l8.261-23.775l7.626-7.508l-3.813-11.266l-10.166-18.77l-10.168-20.023l-3.813-8.76l8.896-8.758h-21.604l12.709-17.521
		l6.354-13.766l5.084-31.285l-12.709-20.02v-6.26l7.625-6.256l-12.709-8.76l1.271-23.777l11.438-6.256l-11.438-21.271l1.271-28.783
		l7.625-8.758l6.354,11.262l7.625-10.012l-2.541-6.256l-7.626-1.252l-5.083-5.006l5.083-10.012l2.542,5.004l6.354,2.506l2.543-8.762
		l6.354-3.754l-1.271-6.258l-11.438-18.77l-12.709-6.258l-6.354-11.264l-2.542-3.756l-10.166,7.51l-8.896,1.25l-7.625-7.508
		l-3.813,2.504l-5.084-11.264l7.625-2.502l-11.438-11.264l10.167,2.504l-5.083-15.02l-7.625-5.004l-1.271,8.76h-20.334
		L332.922,1317.346L332.922,1317.346z"/>
	<path id="path2208" fill="#F7D3AA" stroke="#646464" stroke-width="0.5" d="M354.527,1684.001l-11.438,5.006l2.542,10.012
		l7.625,11.262l-6.354,21.273l1.271,7.51l10.167,2.502l11.438,16.268l10.167,1.252l3.813-7.508l-1.271-7.51l-5.084-6.256
		l-8.896-1.252l-8.896-7.508l1.271-21.273L354.527,1684.001L354.527,1684.001z"/>
	<path id="path3186" fill="#FFFFD0" stroke="#D0C0A0" stroke-width="2" d="M446.667,1406.819l-4.448,1.877l-1.904,9.387
		l-6.354-3.129l-2.542-6.883l-6.99,11.262l5.085,5.633l8.262,0.625l3.177,7.51l-7.625,10.012l-6.354-10.637l-8.262,7.508
		l-0.636,26.904l12.073,23.775l-12.073,6.256l-1.271,23.15l12.072,9.387l-6.99,4.379l-0.635,6.885l13.344,21.271l-5.719,30.033
		l-17.792,31.91l20.97-0.625l-8.262,8.76l22.241,46.926l5.083,12.516l8.261,2.504l0.636,8.133l-13.345,2.504l-10.167,16.895
		l5.721,5.006l3.813,11.262h5.719l1.906,10.012l3.813,12.516l15.889,1.252l9.53-14.393l5.084-3.129l5.084-9.385l-2.541-5.633
		l-3.18-7.508l-12.072-7.51l9.53-5.006l17.157-17.52l1.271-13.768l0.636-15.643h5.084l8.896-32.535l0.637-25.652l-5.721-23.775
		l17.157-16.895l3.813-8.135l5.719-1.252l7.626-12.514v-15.645l-11.438-33.16l-6.354-3.129v-15.018l-8.896-18.771l-2.541-21.271
		l5.083-11.891l10.167-10.01l6.354-21.898l5.084-4.379l4.448,3.129l9.53-9.389l4.447-8.76l-1.906-10.01l-3.813-3.754v-8.135
		l13.345-0.627l8.261-6.883l5.084-26.279l-29.229-10.012l-12.709,11.264l-14.615-8.76l-6.354,8.135l-6.354,3.754l-14.614-1.877
		l-5.72-3.754l-10.167-19.396l-9.532,3.754l3.18,10.012l-9.532,11.264l-15.886,7.51l-1.906,5.004l5.083,5.633l-1.271,24.4
		l-14.613-6.881l1.271-6.26l-5.719-2.502l-0.636,4.379l-11.438,10.014l-8.261-1.252l8.896,15.016l12.709,5.633l9.531,16.27
		L446.667,1406.819L446.667,1406.819z"/>
	<path id="path4157" fill="#FFFFD0" stroke="#D0C0A0" stroke-width="0.75" d="M434.593,1736.559l-2.541,22.523l13.979,8.762
		l3.813-13.768L434.593,1736.559L434.593,1736.559z"/>
	<path id="path5128" fill="#FFFFD0" stroke="#D0C0A0" stroke-width="2" d="M494.735,1090.348l8.088,1.77l0.896,6.193l5.395,2.654
		l8.088-4.424l-8.986-5.311l3.596-4.424l13.479,5.311l1.797-5.311l4.493,0.885l2.696,10.617l7.188,0.885l14.379-14.154l2.695,15.041
		l12.581,1.77l2.696-7.078l3.595,6.193l8.088,0.885l3.595-6.191l-10.782-5.311v-20.354l8.984,3.539l1.798-6.191h12.581l0.898-6.194
		h2.695l7.188,1.771l2.696,7.079l26.062,5.309l8.986,10.619h7.188l4.492,10.617l27.858,4.424l16.176,11.504l8.088,14.158
		l0.898,16.813h-7.189l-0.896,13.271l-7.189,6.193l9.886,6.193l-4.492,11.504l-5.394,16.813l-6.29-2.654l-9.886-6.193l-4.493,12.387
		l-4.493-0.885l-0.896-6.191h-5.395l-6.29-9.732l-8.088-0.885l6.29,7.963l-7.188,0.885l-9.888,6.193l-0.896-9.732h-8.088
		l-5.395,4.424l-4.491-7.078l-8.089-0.885l-15.275,15.041l-20.67,0.887l-1.798,5.311l8.089,4.424l-0.898,4.424l-2.695,4.426
		l-11.684,9.732h-8.986l-4.492-5.311h-13.479l-4.493-7.965l8.987-9.73l-11.683-2.654l-2.696-9.734v-16.813l-6.291-4.424l5.393-5.311
		l14.378,10.617l-5.392-9.732l-9.886-15.043l0.897-12.389h-2.694l-4.493-7.963l-7.189-6.193l-21.566-0.887l-0.897-3.539l5.393-4.424
		h6.29l0.898-3.539l-9.886-8.85L494.735,1090.348L494.735,1090.348z"/>
	<path id="path6099" fill="#FFFFD0" stroke="#D0C0A0" stroke-width="2" d="M597.182,1312.448l0.898-5.311l-12.581-7.078
		l-6.291-15.928l-17.973-17.697l12.581,0.885l7.188-17.697l1.797-9.73l-8.984-3.539l-10.784,7.963l-1.797-1.771l2.693-7.965v-4.424
		h5.395l16.176-10.617l1.797-7.965l-8.984-5.309l1.797-6.193l17.073,0.885l17.074-14.156l8.088,0.885l6.291,5.309l5.394-4.424
		l6.291,0.885l1.797,9.732l8.088-5.309l9.885-0.887l-5.392-9.73l5.392,0.885l7.189,10.617h4.493l2.694,7.08h3.597l3.595,13.27
		l-4.493,15.043l-11.683,6.193c0,0,3.595,7.965,0,7.965c-3.597,0-11.685,0-11.685,0l-5.392,19.467l10.783,6.193l4.492-7.963
		l6.291-3.539l11.684,7.078l4.493,4.424l9.886-8.848l11.682,6.191l-4.493,3.539l-0.896,8.852l11.683,3.537l-4.491,1.771v11.502
		h-9.888l-3.594,7.965l-10.784,4.424v7.963l-3.595,0.887v4.426l-7.189,5.309l-3.595,14.158l-3.595,5.311l-0.898,3.537l-8.984,1.771
		h-12.581l-1.799,9.732h-2.694l-9.886-6.193l-14.379,0.885l-12.581-7.078l-1.799-6.191l8.09-7.08l-13.479-8.85L597.182,1312.448
		L597.182,1312.448z"/>
	<path id="path7070" fill="#FFFFD0" stroke="#D0C0A0" stroke-width="2" d="M582.805,1316.872l14.38-5.309l-1.8,15.928l14.379,5.311
		l-8.984,8.848l1.797,8.85l12.581,8.85l16.176-5.311l10.784,12.391l1.797,24.773l-12.581,5.311l-7.188,3.541l-1.798,12.387h17.974
		l3.595,3.539v19.469l7.189,17.697l-5.394,8.848l7.189,23.008l-14.379-7.08l-10.784-5.309l-3.594,3.539l19.77,14.158v5.309h-5.392
		l-8.986,10.617v23.008l-10.784,17.697l-3.595,10.617l-1.797,21.236l10.783,15.928l3.595,19.467l-14.378,19.467l5.392,12.391
		l-1.797,23.006l7.189,19.467v10.619h-7.189v10.617l-25.163,15.928l-8.985-7.078l-21.566-1.77l-12.581,3.539l23.364,17.697
		l-5.394,10.617h-19.771l-14.378-3.539l8.984,17.697l-12.581,3.539l-14.379-5.311l5.394-12.389l-10.783-15.928v-14.156
		l-1.798-14.158l3.595-28.314l-3.595-15.928l8.987-24.775l1.797-30.086l-7.189-26.545l21.568-17.697l12.581-8.85l3.595-28.314
		l-14.379-28.314l-5.394-5.311v-12.389l-8.985-17.697l-3.594-23.006l16.176-26.545l7.188-21.236h10.784l12.581-14.158v-12.389
		l-7.189-5.309v-10.619l19.771,1.771l5.393-14.158L582.805,1316.872L582.805,1316.872z"/>
	<path id="path8041" fill="#FFFFD0" stroke="#D0C0A0" stroke-width="2" d="M548.973,555.255l17.793-18.771l-1.271-11.263
		l8.896-10.011l8.896,1.251l7.626-10.013l-1.271-12.514l-6.354-11.263v-21.273l12.709-8.76l-6.354-3.754v-8.76l13.979,10.011
		l-3.813,20.021l7.625,7.509l-1.271,10.012l8.896,6.257h8.896l6.354-8.759l11.438,2.502l7.625-1.251v18.771l-2.542,2.503
		l-7.625-5.006l-3.813,17.521l-7.627,7.509l3.813,8.76l10.167-1.252l-1.271,6.257l-5.082,6.257l-1.271,10.014l11.438,8.759
		l-1.271,7.509l-8.896,5.006l1.271,5.005h-6.354v6.258l6.354,12.516l1.271,7.508l7.627-1.251l6.354,7.508l-2.542,7.511l8.896,3.754
		l29.229,7.508l2.542,8.76l16.521-13.765l24.146,11.262l-1.271,15.017l-11.438,12.516l-8.896-1.251h-20.334l-11.438,2.503
		l-19.063,22.522l-6.354-8.759l-2.542-3.755l-8.896-3.754v7.509l-10.169,6.257l-5.081-3.755l-3.813,7.509l3.813,7.51l7.625,5.006
		l-2.544,5.006l-3.813-1.252l-5.083,11.263h-6.354v8.76l-7.625,2.503v13.767l-6.354,2.503l-10.167-1.251v-11.264l-7.625-6.258
		l10.167-1.252l3.813-26.277l-10.168-11.264l7.625-1.252l1.271-8.759l-11.438-7.509l-5.084-1.251l-2.541,5.005l-7.627-8.76h3.813
		l2.541-6.257l-1.271-6.259l-8.896,1.252l-10.167-11.263l-1.271-10.011l6.354-1.252l-1.271-11.264l-5.082-6.258l1.271-6.257
		l-5.084-5.005l5.084-5.006v-11.265h-8.896l7.625-8.762l-6.354-3.754l3.813-8.76L548.973,555.255L548.973,555.255z"/>
	<path id="path2215" fill="#F07568" stroke="#E0584E" stroke-width="2" d="M593.455,938.178l10.167-16.27l-1.271-15.017
		l-5.084-11.263l-7.625-2.505v-5.006l3.813-3.754l-3.813-5.006l2.541-15.017l1.271-22.524l-17.793-18.771l8.896-11.265
		l-17.793-16.268l11.438-12.516l2.542-15.018l-8.896-7.508l8.896-6.257l3.813,2.503l6.354-10.013l11.438,3.754l1.271-6.257
		l5.083-8.76l3.813-6.257l2.541-6.257l5.084-3.755l6.354-8.762l6.354,1.253v-5.007l-8.896-7.508l-1.271-6.257l1.271-6.257
		l3.813,5.005l12.709-7.508l1.271-7.511l7.626,3.756l10.167,13.766l15.251-22.524l12.709-5.006l7.625,3.754l1.271,11.265h11.438
		v21.271L718,717.924v6.258l-6.354,8.76l-1.271,7.509l8.896,20.021l26.688,16.268l-6.354,2.503l-3.813,8.761l11.438,20.021
		l1.271,8.76l-3.813,6.257l8.896,22.524l8.896,3.755l6.354,2.502l2.542,3.756l-10.168,5.004v11.265l-7.625,2.503l-6.354,5.006
		l-5.084,13.765l1.271,18.771l-8.896,1.252l-5.084-5.006l-1.271,6.257h-3.813l1.271,8.76l-13.979,13.768l-10.168,6.257h-3.813
		l-11.438-7.509l-7.625,7.509h-3.813l-7.626-5.006v8.76l-6.354,6.257l-2.543-10.011l-5.082-2.503l-11.438,12.514l-7.625,2.503
		l-6.354,6.257l-3.813-7.509l-5.084,8.761h-7.625l-7.625-6.258l-2.542,3.754l-5.084-7.508L593.455,938.178L593.455,938.178z"/>
	<path id="path3189" fill="#FFFFD0" stroke="#D0C0A0" stroke-width="2" d="M592.184,939.429l-20.334,6.257l-12.709,1.252
		l1.271,12.514l11.438,13.768l15.25,13.765l1.271,7.509l5.084,6.259l-1.271,12.514l13.979,18.771l15.251,10.012l15.251,3.756
		l6.354,7.508h-13.979l10.168,10.012l6.354-3.755l6.354,12.515l22.876,6.258l7.625-6.258v-13.766l16.521-2.503l11.438-5.006
		l29.23,5.006l-7.626-21.273l12.709-13.766l-25.417-5.005l-8.896-11.264l-6.354-13.767l-8.896-5.005l-6.354-16.269l-12.709-6.259
		l10.167-8.76l-24.146-1.251l-2.542-10.011l-6.354-2.503l-12.709,12.514l-3.813-2.503l-8.896,10.011l-3.813-6.257l-5.083,11.265
		l-7.626-2.505l-6.354-5.005l-3.813,5.005l-5.084-7.508L592.184,939.429L592.184,939.429z"/>
	<path id="path4160" fill="#FFFFD0" stroke="#D0C0A0" stroke-width="2" d="M674.792,1078.333l6.354-7.509v-12.514l21.604-2.503
		l7.625-5.006l27.96,6.258l-6.354-22.525l12.709-11.263l-21.605-6.257l-6.354-1.251l-12.709-23.776l-10.167-5.006l-3.813-16.268
		l-13.979-8.762l10.167-7.508l-21.604-2.503l1.271-6.257v-7.509l10.167,7.509l11.438-8.76l15.251,7.508l11.438-5.005l7.625,12.514
		l10.168-5.006l10.167-2.503l3.813,6.257l6.354-18.771l11.438,17.521l-10.167,8.76l8.896,2.502l19.063,2.503l1.271,23.776
		l10.167-2.503l6.354,6.257h8.896l6.354-5.005h6.354l1.271,10.011v8.761l-2.541,7.51l11.438,32.533l5.084,5.008l-5.084,2.503
		l-21.605,10.011l8.896,15.016l-3.813,13.768l-11.438-10.012l-3.813,6.258l-3.813,16.268l-8.896-2.502l5.084-15.018l-11.438-6.256
		l-6.354-7.51l-19.063-3.755l-7.626,11.263l-1.271,6.258l-1.271,17.52l-6.354,7.51l-8.896-5.006l-1.271,10.01l-3.813,6.258
		l-12.709-6.258l-1.271-11.262l-3.813-12.514l-10.167-6.258L674.792,1078.333L674.792,1078.333z"/>
	<path id="path5131" fill="#FFFFD0" stroke="#D0C0A0" stroke-width="2" d="M811.063,1293.866l-17.975,5.311l-10.784,7.078
		l-3.595,8.85l-12.271-9.152l-9.295-12.084l5.392-10.617l7.189-10.617l-10.784-10.619l-8.986-15.928l-12.581-8.85l-5.393-23.008
		l16.176-12.387l12.582-23.008l10.783-15.928l17.974,1.771l16.176,12.387l7.188,12.389h14.379h12.581l5.393,12.391l1.798,12.387
		l5.393,19.467l-7.188,15.93l-10.564,8.025l6.881,10.707l-23.274,6.043L811.063,1293.866L811.063,1293.866z"/>
	<path id="path6102" fill="#FFFFD0" stroke="#D0C0A0" stroke-width="2" d="M707.835,1142.153l16.521,1.25l10.167,8.76l11.438,5.008
		l25.418,7.508l-5.084,8.76l-17.792,28.783l-16.521,11.262l3.813,22.525l15.25,11.262l7.626,17.52l12.709,8.762l-13.979,18.77
		l10.167,8.76l3.813,7.51l-6.354,5.006h-13.98l-15.25-3.754l1.271-16.27l1.271-15.018l-6.354-2.502l-3.813,6.256h-16.521
		l-10.167-6.256v-5.006l6.354-2.506l-11.438-7.508l-10.167,8.76l-12.709-10.01h-7.625l-7.626,10.01l-11.438-7.508l7.625-18.77
		l15.251,1.252l-2.542-7.51l11.438-6.258l3.813-16.268l-6.354-11.264l6.354-12.516l17.792,7.51l6.355-26.279l-5.084-10.012
		l6.354-5.006L707.835,1142.153L707.835,1142.153z"/>
	<path id="path7073" fill="#FEFEE9" stroke="#D0C0A0" stroke-width="2" d="M832.383,1272.298l-10.168,1.469l-6.354,11.752
		l5.083,10.283l13.979-1.471l10.168,11.752l5.083-7.346l-2.542-13.221l-5.083-8.814L832.383,1272.298L832.383,1272.298z"/>
	<path id="path2229" fill="#FFFFD0" stroke="#D0C0A0" stroke-width="2" d="M705.293,941.932l20.335-17.521l-2.542-10.011h5.083
		v-7.508l7.626,7.508l7.625-1.251l-1.271-21.272l3.813-13.767l17.792-7.508l-2.541-11.263l11.438-5.007l-3.813-3.755l7.625-2.503
		l8.896-1.251l3.813-7.509l7.626,8.761l7.625-1.252l5.084,3.754l3.813-21.271l12.709-1.252l3.813,5.006l15.251,6.257v6.258
		l10.167,10.013h11.438l2.542-3.755h10.167l13.979,8.76l7.625,3.754l-7.625,5.006l1.271,11.263l5.084,10.013l-3.813,8.76
		l-1.271,7.509l7.625,7.508l-13.979,2.503l-5.083-5.006l-3.813,3.754l5.084,2.504l2.542,23.775l-6.354,15.019l-6.354,1.252
		l3.813,6.257l-7.625,12.514l-10.168,7.508l-6.354-5.005l-12.709-15.017l-1.271,6.257l-7.625-1.252l-10.167,21.271l-6.354-5.005
		l-5.084,3.754l-10.167,2.504l-7.626-7.51l-10.167,2.503v-25.03h-17.792l-10.167-3.754l8.896-10.012l-6.354-10.011l-3.813-1.252
		l-7.625,13.766l-3.813-7.509l-10.167,5.006l-8.896,5.006L705.293,941.932L705.293,941.932z"/>
	<path id="path3201" fill="#FFFFD0" stroke="#D0C0A0" stroke-width="2" d="M688.771,644.103l-1.271-8.759l-20.335-5.006
		l-17.792-6.258l2.542-7.51l-6.354-7.508l-6.354,1.251l-1.271-7.508l-6.354-8.76l-3.813-10.013l8.896,1.251v-6.257l7.625-5.006
		l1.271-6.257l-8.896-7.508l-2.542-8.761l6.354-7.51l1.271-10.011l-10.168,1.251l-3.813-7.508l10.166-7.51l2.543-17.52l5.084,6.257
		l5.082-5.006v-18.767l8.896,7.508l12.709,7.509l6.354,3.754l16.521,6.257l13.979,3.754l19.063,2.504l13.979,6.258h8.896
		l3.813,6.257v11.263l1.271,13.767l-2.542,8.76l15.251,7.509l-5.084,8.76l-12.709-2.503l-8.896,12.515l7.628,6.258l-5.084,7.509
		l3.813,10.011l8.896,5.006l-5.084,2.503l-7.625-2.503l1.271,6.257l6.354,5.007l-6.354,12.515l-16.521-1.252l-10.166-5.006
		l-13.979-6.257L688.771,644.103L688.771,644.103z"/>
	<path id="path4172" fill="#FFFFD0" stroke="#D0C0A0" stroke-width="2" d="M765.025,850.58l-11.438-5.006l-10.167-21.271
		l5.084-5.006v-12.516l-12.709-18.771l2.542-8.761l8.896-2.502l-19.063-10.013l-7.625-7.508l-10.167-17.521l1.271-7.51l7.626-8.76
		v-6.257l-11.438-16.27l1.271-21.271l-11.438-1.251l-3.813-10.012l12.709-2.505l11.438,2.505l11.438-13.767v-12.515l6.354-3.754
		l8.896,2.503l8.896-11.265l-8.896-6.257v-7.508l7.626,2.503l7.625-1.252l-10.167-5.006l-5.084-11.262l5.084-7.511l-6.354-6.257
		l8.896-12.514l12.709,5.006l5.083-10.012l-10.167-3.754l-5.083-6.258v-6.258v-25.025l-1.271-5.008l6.354-1.25l6.354,5.006h11.438
		l3.813,7.509l26.688,5.005l12.709-5.005l15.251-6.257l16.521,2.503l6.354-3.757l10.167,5.008l8.896-7.51l6.354,3.756l-2.542,6.257
		l-6.354,17.52l-1.271,10.013l-6.354,5.006l10.167,11.262l-1.271,7.509l-8.896,1.251l-5.084,7.509l-2.542,10.013l-5.083,1.252
		l-5.084-13.768l-3.813,5.006l-7.625-2.503l-3.813,2.503l10.168,7.51l2.541,10.011l-2.541,7.509h2.541l6.354,12.514h8.896
		l-1.271,13.768l6.354,5.005l-3.813,5.006h8.896l8.896,7.508l12.709,2.503l5.084-3.754l11.438,3.754l-2.542,7.511l-6.354-1.253
		l2.542,8.761l5.084,2.503l2.542,2.503l-6.354,7.508l-1.271,12.514l10.167,8.761l8.896,5.007l2.542,16.268l7.625-5.005l1.271,5.005
		l10.167,6.257l2.541,5.007l-7.625,12.515l-8.896,8.76l-8.896-3.754l-5.084-8.761l-7.625,15.018l-5.084-10.011l-7.625,13.765
		l-10.167,1.252l-8.896-7.509h-11.438l-3.813,10.012l11.438,8.76l12.709,7.51l-1.271,16.268l-6.354,5.007l-1.271,11.264
		l6.354,13.765l3.813,7.509l-8.896-2.503l-11.438,5.006h-12.709l-10.167-7.509l1.271-7.508l-17.793-6.257l-1.271-5.007
		l-12.709-1.252l-5.083,20.021l-5.084-2.503l-6.354,2.503l-7.625-8.76l-3.813,7.509L765.025,850.58L765.025,850.58z"/>
	<path id="path5143" fill="#FFFFD0" stroke="#D0C0A0" stroke-width="2" d="M899.74,865.598l-13.98-12.516l-3.813-13.766
		l-2.542-7.508l-1.271-10.012l8.896-5.006l1.271-16.27l-25.418-17.519l3.813-5.007v-6.258l10.167,1.251l10.168,8.762l8.896-1.253
		l8.896-12.514l6.354,6.258l5.084-12.515l10.166,8.76l11.438-5.006l8.896-12.514l6.354-10.013l27.96-5.005l-17.793,2.502
		l13.979-2.502h16.521l8.896,2.502l12.709-8.76l12.709,2.502l5.084,8.761l13.979-8.761l7.625-6.257h13.979l-2.541,10.013
		l11.438,12.515v8.76l-3.813,6.257l-1.271,3.754l-17.793,10.013l10.168,2.503l2.541-3.755l8.896,2.504l5.084,10.011l-1.271,6.257
		l-8.896,5.006l12.709,8.761l2.541,7.509l-8.896,1.252l-3.813,5.005l6.354,5.006v5.006v2.502l-8.896,2.503l-15.252,1.252
		l-3.813,6.258l7.625,3.754l2.542,5.007l-6.354,3.754l-15.25,3.754l-15.252,3.754l-3.813,10.012l-16.521-1.252l-12.709,12.516v3.755
		l7.625,8.76l10.168,2.502l2.541,8.76l-2.541,6.258l-6.354,5.007c0,0,7.625,3.754-1.271,6.257
		c-8.896,2.503-11.438,3.754-11.438,3.754l-6.354-6.257l-3.813-8.761l-11.438,1.253l-7.625-8.762H951.84l-1.271-10.012l7.626-6.257
		l-15.251-3.754l-3.813-10.013l-8.896-1.252l-6.354-12.514l-7.625-7.508l-3.813,1.251l-2.541,2.503L899.74,865.598L899.74,865.598z"
		/>
	<path id="path6116" fill="#FFFFD0" stroke="#D0C0A0" stroke-width="2" d="M946.764,747.968l-10.168-3.754l-1.271-8.762
		l-8.896,3.755l-2.543-12.515l-11.438-6.257l-6.354-8.76l-1.271-12.516l8.896-8.76l-11.438-6.257v-7.509l5.084,1.252l5.084-7.509
		l-13.979-5.007l-2.541,5.007H883.22l-8.896-8.762h-11.44l5.084-6.257l-5.084-5.005V637.84l-8.896-1.251l-5.084-13.768h-3.813
		l1.271-5.005l-1.271-11.263l-11.438-7.508h13.979l2.541-6.259l5.084,15.018h6.354l2.542-11.262l3.813-6.258h6.354l5.084-10.013
		l-11.438-11.262l7.625-3.755l-2.542-7.509l5.084-8.761l6.354-15.017l10.167,1.251l3.813,3.755l21.605-13.767l7.625,11.264
		l33.044,1.251l3.813-3.754l10.168,5.006l16.521-13.767l1.271,6.258l-3.813,1.251l-1.271,23.774l5.084,5.006l-2.541,2.504
		l-7.627,1.25l-2.541,6.259l10.168,2.503l-5.084,6.257l-1.271,12.514l6.354,11.265v17.52l15.25,3.754l10.169,10.012l24.146,1.252
		l6.354,10.012v11.263l5.084,10.011l5.084-10.011l6.354-1.251l5.084,8.759l-3.813,10.013l-8.896,2.504v12.519l6.354,3.754
		l7.625,1.251l10.168,3.756l5.084,6.258l3.813,5.005l-7.625,8.76l-10.168,7.509l-13.979,1.251l-21.604,13.767l-3.813-6.258
		l-15.25-3.754l-11.438,7.509l-8.896-1.252l-17.791,1.252h-15.25L946.764,747.968L946.764,747.968z"/>
	<path id="path2226" fill="none" stroke="#000000" d="M1077.665,754.225L1077.665,754.225z"/>
	<path id="path2228" fill="#FFFFD0" stroke="#D0C0A0" stroke-width="2" d="M1068.769,737.955v-10.011l17.792-15.017l-7.625-12.515
		l-16.521-5.007l-8.896-5.005l2.542-11.263l7.625-3.754l3.813-8.762l-5.084-8.76l-3.813-2.503l-8.896,12.515l-5.084-8.761
		l1.271-10.011l-7.626-11.263l-21.604-2.503l-8.896-11.264l-17.793-2.503v-16.269l-5.083-11.264v-13.766l6.354-6.257l-12.709-3.754
		l2.542-5.006l12.709-1.251l-6.354-7.511l2.541-23.774l2.542-6.257l20.335-3.754h13.979l17.792,3.754l34.314-6.258l31.771,16.27
		l5.083-6.257l15.251,5.005l16.521,10.012h11.438l5.084-5.006l8.896,2.503l19.063-10.012v10.012l6.354,1.251l3.813,7.509
		l19.063-5.006l7.625,1.251l-2.541,7.509l10.167,8.762l1.271,11.263l-6.354,7.508v3.754l13.979,13.768l-1.271,5.006l-3.813,1.251
		v3.754l7.625,3.755v10.011l-7.625,15.019v3.754l7.625,10.011l-12.709,2.503l-6.354,7.509l7.626,16.27l-7.626,2.503l7.626,11.263
		l-11.438,22.524l-19.063-2.503l-1.271,6.257l3.813,3.755l-5.083,3.754l-5.084-6.257h-10.167l-16.521-3.754l-5.084,5.005
		l5.084,5.006l-8.896,7.508l-17.793-13.765l-1.271-7.509l-10.167-1.251l-11.438,10.011l-11.438,6.257l1.271,10.013l-2.541,6.258
		l-7.626-5.008l-11.438,10.013l-10.167,2.503L1068.769,737.955L1068.769,737.955z"/>
	<path id="path2230" fill="#FFFFD0" stroke="#D0C0A0" stroke-width="2" d="M1223.817,715.432l13.979-23.776l-8.896-11.263
		l7.625-1.251l-6.354-17.521l8.896-7.509h10.167l-10.167-12.514l8.896-15.017l1.271-12.517l-10.167-6.257l6.354-6.257
		l-12.709-15.019v-5.005l5.083-5.006v-12.511l-10.167-8.76l1.271-6.259l-7.625-6.257l3.813-6.257h3.813l11.438,3.754l7.626-8.76
		l38.126,1.251l22.876-3.754l8.896,7.509l7.626-10.012h20.334l13.979,5.006l11.438,13.766l5.083-1.252l5.084,3.755l5.084-2.503
		l8.896,5.005v6.257l6.354,1.253l15.251,7.509l10.167,2.503l3.813-3.754h5.084v10.011l13.979,3.755l12.709,7.508l-2.541,7.508
		l5.083,11.265l11.438,3.755l-5.084,6.257l11.438,1.251l5.083,7.508l-1.271,18.771h-5.084l-5.083-2.503l-7.626,7.508l-15.25-1.251
		l-21.604-3.754l-12.709,3.754l-10.167,6.257l8.896,10.011l-1.271,8.762l-11.438,21.271h-8.896l-19.063,2.503l-5.084-10.011h-6.354
		l-1.271,8.76l-5.083,16.27l-12.709,10.011l-6.354,2.503l-15.251,3.754l-6.354-5.005l-7.625,5.005l-8.896-1.251l-3.813-6.257
		l-8.896,5.006l-6.354-6.257l-7.625,8.759l-10.167,13.766l-20.335,1.252l-3.813-8.76l-12.709-1.252l5.084-7.508L1223.817,715.432
		L1223.817,715.432z"/>
	<path id="path3203" fill="#FFFFD0" stroke="#D0C0A0" stroke-width="2" d="M1056.059,859.341l7.625-2.503l-5.082-7.51l-5.084-2.503
		l2.541-7.509l15.252,1.252l8.896-3.755v-8.76l-5.084-6.257l8.896-2.502l-1.271-7.511l-8.896-10.011l5.082-6.257l1.271-8.76
		l-2.542-5.006l-6.354-3.755l-7.625,3.755l-8.896-3.755l17.792-6.258l6.354-17.52l12.709-8.76l8.896-8.762l8.896,10.014l3.813-7.511
		l-3.813-8.76l8.896-12.514l16.521-5.006h6.354l8.896,7.509l10.166,15.017l6.354-10.011v-3.755l6.354-5.005l5.084,2.502
		l20.334-2.502l5.084,11.262l6.354-2.502l-5.084-6.257v-6.258l16.521,2.503l15.25,3.755l-7.625,11.262l12.709,1.252l2.541,6.258
		l-8.896,10.012l-8.896-6.258l-7.625-1.252l-3.813,2.503l7.626,12.515l7.625,5.006h-7.625l-8.896,6.257l-2.541,20.022l-2.543,36.29
		l7.627,21.271l-7.627,21.273l-5.082,3.754v3.755l6.354,5.005v5.006l-5.084,2.503v26.278l-16.521,10.012l-17.793,2.503l-11.438-8.76
		h-13.98l-12.707-6.257h-11.438l-2.542,7.508l7.626,10.011l-2.542,8.761l-6.354,8.761l-3.813,12.514l-19.063-5.005v-8.76
		l3.813-2.503l-2.542-10.012l-10.167-21.272l12.709-3.755l-10.167-5.005v-15.019l13.979,3.754v-7.509l-11.438-5.005l17.792-12.514
		v-7.51l-11.438-2.503l-11.438,20.021l-10.167-7.509L1056.059,859.341L1056.059,859.341z"/>
	<path id="path4174" fill="#FFFFD0" stroke="#D0C0A0" stroke-width="2" d="M1207.296,868.101l8.896-23.776l-8.896-20.021
		l6.354-57.563l7.625-5.006l13.979,1.252l-10.168-5.006l-12.709-15.017l6.355-3.755l8.896,1.252l8.896,8.76l7.625-10.012
		l19.063,1.252l20.334-25.027l6.355,6.257l7.625-3.754l3.813,6.257l12.709,1.251l5.084-5.005l5.083,5.005l17.793-3.754
		l17.792-10.011l6.354-26.279h6.354l3.813,10.011l17.793-3.754h12.709l-2.542,8.762l-3.813,8.76l-8.896,16.268l-3.813,22.525
		l-19.063,12.514l-2.542,22.525l6.354,8.759v7.509l-8.896,17.521h-16.521l-25.418-3.754l-10.166,2.502l10.166,8.761l2.543,10.012
		l-6.354,2.502l-2.542-6.257l-1.271-5.005l-7.625-1.252l-8.896,8.76l5.083,5.006v27.53l-6.354,7.508l-2.541,25.028h-8.896
		l-6.354-13.768l-10.168-8.76l5.084-5.005l-10.168,2.502h-11.438l-3.813-7.508l-7.625,1.251h1.271v23.775l5.084,7.51l-6.354,5.005
		l-6.354-2.502l-3.813-6.257l-11.438-7.511L1207.296,868.101L1207.296,868.101z"/>
	<path id="path2231" fill="#FFFFD0" stroke="#D0C0A0" stroke-width="2" d="M860.342,985.73l12.709-11.263l5.084-7.508l-5.084-8.762
		h7.626l5.083-13.766v-13.768l-2.542-12.514l-6.354-3.754l5.083-3.754l6.354,7.508l11.438-2.502h3.813l-7.625-8.76l3.813-16.271
		l-3.813-8.76v-12.514l5.083-5.005l7.625,1.251l8.896-7.511l11.438,18.771l8.896,3.754l6.354,10.011l12.709,5.007l1.271,3.754
		l-7.626,3.756l6.354,7.508l-8.896,2.503l13.979-1.252l7.625,8.76l11.438-3.754l2.542,12.514l7.625,3.754l-2.542,3.757
		l-7.625,12.514l3.813,11.262l-6.354,2.503l-7.625,20.022l-5.084,3.754l-2.542,6.257l-1.271,2.503l-16.521-1.251l-8.896,3.754
		h-7.625v-2.503l-8.896-1.251l-3.813,2.502l-1.271,16.271l-7.625,12.514l-11.438-10.011l-1.271-6.257l-2.542,8.76l-10.167-2.503
		l-3.813-3.755l7.625-3.754l-3.813-8.762l-8.896,3.756l-2.541,6.258l-3.813-7.51l8.896-12.515L860.342,985.73L860.342,985.73z"/>
	<path id="path3204" fill="none" stroke="#000000" d="M817.132,1097.104L817.132,1097.104z"/>
	<path id="path3206" fill="#FFFFD0" stroke="#D0C0A0" stroke-width="2" d="M817.132,1077.081l-11.438-17.52l29.229-10.011
		l-15.25-36.29l3.813-8.76v-11.265l8.896-23.774l7.625,2.503l1.271-6.257l15.25,18.771l17.793,7.509l-8.896,8.76l2.542,7.51
		l13.979-8.762l5.084,6.259l-8.896,8.76l12.709,3.755l15.251,5.005l-1.271,5.006l-3.813,11.265l-8.896,7.508l-2.542,11.263
		l-8.896-2.503h-6.354l-2.542,8.76v12.514l-16.521,7.51l-6.354,6.258l-6.354,7.508l-10.167-1.252v-7.508l-8.896,6.258l-7.625-6.258
		L817.132,1077.081L817.132,1077.081z"/>
	<path id="path4177" fill="#FFFFD0" stroke="#D0C0A0" stroke-width="2" d="M926.43,1059.562l-15.252-6.257v-3.754l-12.709-10.012
		l3.813-10.013l11.438-13.765l1.271-17.521l8.896-5.006l3.813,5.006h11.438l3.813-3.755l21.604,2.503v-8.76l7.625-2.502
		l5.084-21.273l10.166-2.503l-6.354-11.263l11.438-16.269l13.98-6.258l-1.271-5.006l7.627-7.509l-2.543-12.514l-7.625-1.251
		l-7.625-13.768l10.167-12.511l17.793,2.503l6.354-10.011l21.604-7.509l21.604,6.257l11.438,7.509l13.979-20.022l10.167,2.505v7.508
		l-16.521,11.263l10.166,6.257v6.259l-12.707-3.756l-1.271,15.019l7.625,5.006l-8.896,2.503l6.354,20.021l6.354,8.76v3.754
		l-5.084,2.503v10.011v3.755l-13.979,6.257l5.083,12.516l-10.167,2.503l-7.625,15.017l7.625,8.762l1.271,6.257l-6.354,5.005
		l-2.541,10.012l5.083,10.012l-7.625,10.012l-5.084-3.754h-8.896l-6.354,5.006l1.271,15.017l6.354,2.503l3.813-5.006l3.813,2.503
		v16.27h-5.083l-8.896-7.509l-2.544,3.754l-10.166-10.012v-10.012h-5.084l-1.271-5.005l-10.167-2.503l6.354-5.006l-13.979-11.265
		l-20.335-1.251l-8.896,7.509h-15.25l-6.354,1.253l2.542,10.011l-11.438,2.503l-13.979-10.011l-7.626,5.005l1.271,3.755l3.813,3.754
		L926.43,1059.562L926.43,1059.562z"/>
	<path id="path2235" fill="#FFFFD0" stroke="#D0C0A0" stroke-width="2" d="M722.994,1125.741l5.393-19.467l10.783,5.311l7.189-8.85
		v-15.928l8.986-19.466l17.974,5.309l17.973,12.388l-5.392,17.697l10.783,1.771l5.393-19.471l21.567,14.158l17.974,3.539l3.595,8.85
		l7.188,5.311v12.389l-1.797,10.619l-8.986,14.156l-3.595,14.158l-12.581-14.158h-23.365l-17.974-5.311h-14.378l-16.178-3.539
		L722.994,1125.741L722.994,1125.741z"/>
	<path id="path3207" fill="#FFFFD0" stroke="#D0C0A0" stroke-width="2" d="M793.09,1155.827l32.354,7.078l-3.596,17.699
		L793.09,1155.827z"/>
	<path id="path2237" fill="#FFFFD0" stroke="#D0C0A0" stroke-width="2" d="M848.357,1102.294l2.693,5.75l4.493,7.521l2.247,13.715
		l17.523-7.52l16.625-4.428l-7.64-14.154l-8.088-13.719l-16.177,0.887L848.357,1102.294L848.357,1102.294z"/>
	<path id="path3208" fill="#FFFFD0" stroke="#646464" stroke-width="0.5" d="M881.158,1074.863l-1.35,11.945l7.64,9.734l2.247,5.752
		l4.94-0.887l6.74-10.176l7.64-12.832l-3.596-9.291l0.449-10.618l-7.267-8.545l-7.563,14.297l-12.132-3.098l-0.449,9.291
		L881.158,1074.863z"/>
	<path id="path4179" fill="#FFFFD0" stroke="#D0C0A0" stroke-width="2" d="M900.029,1104.063l11.231-20.352l4.045-6.195
		l-5.393-8.848l1.797-15.043l14.379,6.192l6.29-9.291l-3.145-5.31l-0.899-3.981l5.842-3.54l14.828,9.734l11.232-3.1l-1.35-9.291
		l6.74-1.77l14.827,0.44l8.088-7.521l19.321,1.327l-3.146-0.885l11.232,6.192l6.74,5.751l-5.394,4.425l9.438,3.099l1.797,4.425
		h4.941l-0.897,9.733l10.335,9.731l2.247,4.427l-0.45,11.503l3.146,7.52l10.336,10.619l-0.449,7.078l6.29,2.213l-3.146,2.654
		l0.449,5.309l13.03,10.178l6.739,21.68l6.738,21.68l1.133,7.453l-1.581,5.377l0.897,4.424l8.985,4.867l-3.595,3.096l-0.448,3.982
		l3.146,6.637l2.696,3.539l-0.897,4.426l1.797,34.066l4.492,5.752l4.942,9.732l-1.348,11.061l-9.886,5.752l-12.582-6.637
		l-10.782,0.443l-16.177-2.213l-8.089-5.311l-8.088-0.443l-9.437,5.313l-3.146-2.213h-8.985l-11.684-5.752l-5.841-10.176
		l-0.449,0.885l-7.188-0.441l-4.941-7.08l8.537-2.211l5.392-7.521l-0.896-15.484l5.841-9.734l-6.739-6.191l-1.349-9.734l-8.089-9.73
		l-3.595-7.967l-13.479-9.73l-1.797-8.852l-9.438-6.191l-3.596-17.254l-17.973-4.867l-13.03,11.061l-4.942-3.098l-4.942,10.176
		h-5.393l-12.132-6.635v-8.406h-0.449l-5.842-6.193l-8.537-8.406l7.189-3.98l-0.449-8.404L900.029,1104.063L900.029,1104.063z"/>
	<path id="path5150" fill="#FFFFD0" stroke="#D0C0A0" stroke-width="2" d="M866.696,1299.827l-12.709-21.271l-5.083-12.516
		l6.354-17.52l8.896-15.018l11.438-12.516l3.813-12.514l-5.083-10.012v-8.762l-8.896-5.004l-8.896-2.504v-8.76l-7.625-3.754
		l6.354-12.516l2.541-12.514l1.271-10.012l12.709-3.754l8.896-3.754l7.625-1.252l13.979,12.516l1.271,8.758l13.979,6.258l6.354-8.76
		l5.084,5.006l12.708-16.268l21.605,6.256l2.542,16.268l11.438,7.512l1.271,11.262l12.709,11.262l11.438,15.018l-1.271,8.762
		l10.167,8.76l-7.625,7.508l1.271,16.27l-3.813,8.76h-8.896l-5.083,2.504l-7.626-5.006l-13.979,1.25l-6.354-10.01h-6.354
		l-7.625,3.754l-3.813,12.514l-2.541,8.76l-17.793,6.256h-6.354l-12.709,7.512h-2.541l-3.813-7.512h-3.813l-3.813,5.008
		l-1.271,12.514v6.258l-7.626,8.76L866.696,1299.827L866.696,1299.827z"/>
	<path id="path6121" fill="#FFFFD0" stroke="#D0C0A0" stroke-width="2" d="M876.863,1302.329l3.813,12.516l16.521,6.258l2.542,10.01
		l5.083,10.012l16.521,13.768l6.354,23.773l11.438,26.279l5.083,20.023l22.878,22.521l7.625,13.768l17.791,6.258l20.336-15.02
		l-3.813-17.52l-13.979-22.523l1.271-7.51l-20.335-30.033l-1.271-20.02l12.709-6.258l3.813-15.018v-21.271l-12.709-8.762
		l-15.251-6.258l-1.271-5.004l10.166-3.756l-5.082-8.758l6.354,1.25l12.709-28.781l-7.625-3.754h-12.71l-5.084-10.012l-13.979,2.504
		l-7.625,25.025l-20.336,6.258l-2.541-2.504l-16.521,8.762l-5.084-7.51h-3.813l-3.813,3.756v23.773L876.863,1302.329
		L876.863,1302.329z"/>
	<path id="path2242" fill="#FFFFD0" stroke="#D0C0A0" stroke-width="2" d="M631.581,1601.409l-2.541-18.77l-7.626-10.012
		l1.271-18.771l10.166-17.518l-2.541-11.266v-17.52l8.896-10.01h5.083l-6.354-6.258l-15.25-23.775l17.791,10.01l11.438,10.012
		l-1.271-11.262l-5.084-13.766l6.354-8.762l-6.354-17.52v-18.771l-5.084-5.006l-17.791-2.504l-1.271-13.764l20.335-7.51v-21.273
		l-1.271-5.004l2.542-3.756l1.271-8.76l19.063,2.504l6.354-8.762h1.271l8.896,11.264l-1.271,12.514h6.354l7.625,11.264h7.626
		l2.542,7.51l19.063,3.754l8.896,2.502l-1.271,6.258l-5.084,1.252v6.256l-8.896,6.258l-2.542,10.01l-13.979,8.762l7.626,7.51v10.01
		l-12.709,2.504v25.027l20.334,3.754l2.542,2.502l-2.542,6.258l-12.709,12.516l-7.625-6.258l-6.354,3.756l-7.626-3.756l1.271,15.018
		l-7.625,11.262l1.271,10.012l7.625-3.754l2.542,15.018l-3.813,7.51l-3.813,17.52l-8.896,16.27l-8.896,1.25l-15.251,16.27h-12.708
		V1601.409L631.581,1601.409z"/>
	<path id="path3218" fill="#FFFFD0" stroke="#D0C0A0" stroke-width="2" d="M682.417,1527.579l-6.354,5.006l-2.541-10.012
		l8.896-11.264l-3.813-18.77l7.625,7.508l8.896-5.006l5.084,5.006l15.25-10.012l1.271-7.51l-20.335-6.256l-1.271-23.775
		l12.709-3.756v-8.76l-8.896-10.012l13.979-7.508l1.271-10.012l11.438-6.258l-1.271-3.754l6.354-2.504l1.271-6.256l-8.896-5.006
		l8.896-7.51l5.084-2.504l2.541,7.512h7.625l5.084-2.506l10.168,11.266l-3.813,5.004l-1.271,6.258l2.541,3.754h7.625l3.813,6.258
		l21.604,3.754l1.271,5.006l-6.354,1.252l-3.813,6.256l13.979,2.504l1.271,6.258l-11.438,2.502c0,0,2.543,7.508-2.541,7.508
		s-10.168-5.004-10.168-5.004l-3.813,5.004l-7.626-1.25l-3.813,7.508l-2.541,7.51l-8.896,3.754l-13.979,8.76l-8.896,6.258
		l-1.271,8.76l-2.543,15.018l-10.166,6.258l-5.084,11.262l-6.354,7.51L682.417,1527.579L682.417,1527.579z"/>
	<path id="path4189" fill="#FFFFD0" stroke="#D0C0A0" stroke-width="2" d="M725.628,1481.276l16.521-8.76l16.521-7.508l5.083-13.768
		h7.626l2.542-3.754l15.25,3.754l2.542-8.76h8.896l-1.271-7.508l-15.25-2.502l3.813-7.51l6.354,1.25l-1.271-6.256l-20.335-2.504
		l-5.083-6.256l-10.167-1.252l1.271-7.508l5.083-3.754l-11.438-13.768h-8.896l-5.083-6.258l-16.521,10.012l-20.334-3.754
		l-1.271-5.006h-5.084l-7.625-12.514h-8.896l1.271-12.516l-7.625-10.012v-15.016l11.438-12.516l1.271-6.258l11.438-6.258
		l2.542-6.256l11.438-1.252v-15.018l15.251,1.252l5.083-7.51l6.354,2.504l-1.271,30.033l17.792,7.508l10.167-2.504l6.354-3.754
		l7.626,5.006l3.813-8.76l15.251-7.508l17.792,3.754l17.793,10.012l12.709,11.262l15.25,6.258l15.251,6.258l11.438,10.012
		l7.625,17.52l-7.625,8.762l-12.709,6.256l-21.605,15.018l-11.438,11.264l-1.271,8.76l-15.251,2.504l8.896,13.764l-3.813,10.014
		l1.271,11.262l5.084,7.51l-15.251,1.25l-13.979,7.51v8.76l-2.542,8.762l-8.896-2.504l-7.625-1.252l-16.521-7.51l-8.896,5.006
		l-1.271,6.26l-15.251,6.256l-1.271-11.264L725.628,1481.276L725.628,1481.276z"/>
	<path id="path2245" fill="#FFFFD0" stroke="#D0C0A0" stroke-width="2" d="M728.387,1479.686l17.975,1.771l-1.797,8.85l17.973-5.309
		v-3.541l10.784-7.078l12.581,5.309l-3.595,14.158l-12.581,1.77l-12.581,17.697l5.392,14.158l-3.595,10.619l-17.974,3.539
		l-7.188,12.387l-1.798,14.158l5.393,7.078l16.178-15.928l8.984-3.541l7.189,3.541l30.555,1.771l1.797,12.387l-17.974,17.697
		l-5.394,10.619l12.581,7.076v10.619l-12.581,21.236l-10.783,12.389v26.545l-17.974,21.236l1.797,19.467l-16.176,5.313
		l-14.378,8.848l-16.176-3.539l-12.581-10.619l-23.365-5.309l5.392-8.848l-7.188-8.852c0,0-7.188-19.467,1.798-19.467
		s21.567-7.078,21.567-7.078l-12.581-5.311l-12.581-1.771l1.797-17.697l8.987-10.617l-5.395-8.85l-5.392,12.389l-8.986,1.771
		l-1.798,12.387l5.393,5.313l-8.985,10.617l-14.378-23.008l-3.597-17.695v-24.775l0,0l17.975-8.85l8.986-10.619l7.188,3.541
		l12.582-26.547l5.392-14.158l-3.595-15.926l17.973,1.77l12.582-15.928l10.783-7.08l1.798-14.156L728.387,1479.686L728.387,1479.686
		z"/>
	<path id="path3216" fill="#FFFFD0" stroke="#D0C0A0" stroke-width="2" d="M785.9,1626.573l3.595-17.695l-12.581-7.078
		l19.771-21.236l5.392-5.311l-3.595-14.158l-26.96,1.771l-8.986-5.311l-25.162,14.156l-3.595-8.848l1.797-17.697l23.365-5.311
		l3.595-10.617l-7.188-15.928l14.38-15.928l10.782-1.771l5.394-14.158l16.176,1.771l5.394-15.928l25.161-7.078l1.798-12.391
		l12.582,12.391l10.782,14.156l-1.798,17.697l14.379,5.311l8.986,28.314l-12.581,7.078v15.928l-10.784,21.236l-7.188,19.467
		l-3.596,10.619l3.596,24.775l-32.354,10.617L785.9,1626.573z"/>
	<path id="path4187" fill="#FFFFD0" stroke="#D0C0A0" stroke-width="2" d="M791.292,1635.423l17.974,8.848l8.986,8.85l1.797,14.158
		l-5.392,15.928l-8.986,12.389l-19.771-8.85l-5.395,12.389l-5.392,17.695l-12.581,5.313l3.595-19.467l7.189-14.158v-15.928
		l7.188-14.158L791.292,1635.423L791.292,1635.423z"/>
	<path id="path4190" fill="#FFFFD0" stroke="#D0C0A0" stroke-width="2" d="M827.238,1644.27l16.176-10.617l5.394,10.617
		l-1.798,12.389l-10.783,12.391l-8.986,8.848v-19.467L827.238,1644.27L827.238,1644.27z"/>
	<path id="path4192" fill="#FFFFD0" stroke="#D0C0A0" stroke-width="2" d="M847.009,1674.356l-16.176,15.928l-5.392,15.928
		l14.378,7.078l10.784-12.389l-3.597-12.389L847.009,1674.356L847.009,1674.356z"/>
	<path id="path5169" fill="#FFFFD0" stroke="#D0C0A0" stroke-width="2" d="M852.4,1612.417l16.177-17.697l14.378-21.236
		l1.798-31.854l-1.798-23.006l-7.189-19.469l-7.188-19.467v-19.467l-12.581-10.619l-12.582-14.156l1.798-15.928l10.784-17.697
		l16.176-8.85l7.188-8.85l25.163-1.77l5.392,19.467l10.784,38.934l17.973,21.236l12.581,15.928l7.189,10.617l-1.797,19.469
		l-5.395,5.311v23.006l-7.188,15.928l-3.594,12.391l-3.597,15.926v15.928v12.389l-12.581,8.852l-7.188,14.156l-21.568,7.078
		l-1.797,10.617l-10.784,5.313l-14.378,8.848c0,0-5.393-1.77-5.393-8.848c0-7.08-5.394-15.93-5.394-15.93l8.986-12.389
		L852.4,1612.417L852.4,1612.417z"/>
	<path id="path5171" fill="#FFFFD0" stroke="#D0C0A0" stroke-width="2" d="M863.184,1686.743l8.985-12.387l10.784,14.156
		l-7.188,7.08L863.184,1686.743z"/>
	<path id="path5173" fill="#FFFFD0" stroke="#D0C0A0" stroke-width="2" d="M980.01,1529.239l-7.188,23.006l-8.987,26.547v24.775
		l17.975,19.467v-23.006v-23.008l8.985-23.006l1.798-12.389L980.01,1529.239L980.01,1529.239z"/>
	<path id="path5175" fill="#FFFFD0" stroke="#D0C0A0" stroke-width="2" d="M890.145,1660.198l-5.394,14.158h17.974L890.145,1660.198
		z"/>
	<path id="path6152" fill="#FFFFD0" stroke="#D0C0A0" stroke-width="2" d="M977.266,1352.385l10.166-12.516l5.084-20.021
		l-10.169-12.514l-17.791-12.516l2.541-12.514l15.25-27.531l20.337,7.51l20.334,17.52l20.334-7.508l12.709,2.504l27.959,7.508
		l2.541,10.012l-2.541,12.514v10.012l-7.625,22.523l22.875-2.502h12.709l-10.166,15.018v12.514l5.084,17.521l-15.252-7.51
		l-15.25,5.006l-27.959-2.504l-15.252-10.01l-7.625,10.01c0,0-7.625,7.51-17.793,2.504
		C997.598,1372.407,979.807,1354.887,977.266,1352.385L977.266,1352.385z"/>
	<path id="path6154" fill="#FFFFD0" stroke="#D0C0A0" stroke-width="2" d="M1002.682,1407.446h27.959l12.709,15.018l10.168,17.52
		l-7.625,15.02l-17.793,7.508l-12.709-2.504l-2.541-22.523L1002.682,1407.446L1002.682,1407.446z"/>
	<path id="path6156" fill="#FFFFD0" stroke="#D0C0A0" stroke-width="2" d="M1045.893,1392.43l33.043,2.502l15.25,12.514
		l-2.541,15.02l-22.877-10.012L1045.893,1392.43L1045.893,1392.43z"/>
	<path id="path6158" fill="#FFFFD0" stroke="#D0C0A0" stroke-width="2" d="M1091.645,1467.512l-25.418-7.51v-20.021v-12.514
		l20.334,10.012l7.626,12.514L1091.645,1467.512z"/>
	<path id="path6160" fill="#FFFFD0" stroke="#D0C0A0" stroke-width="2" d="M997.598,1480.026l33.043,2.502l10.169,22.525
		l2.541,20.02l10.168,12.516l-2.541,27.531l-5.084,27.527l-17.793,12.516l-15.25,17.52l-7.627-2.502l2.543-25.027l2.541-27.529
		l2.543-25.027l-2.543-25.027L997.598,1480.026z"/>
	<path id="path7138" fill="#FFFFD0" stroke="#D0C0A0" stroke-width="2" d="M1107.619,1375.272l-7.189-10.617l1.8-10.619
		l10.782-19.467l-12.582,1.77l-16.176-3.537l-5.392,5.309l3.595-14.158l-1.797-12.387l3.594-10.619l-5.392-21.234l19.771,5.309
		l10.784-8.848l10.784,3.539l7.188-7.078l-5.393-15.928l-3.595-10.619v-10.619l3.595-14.156l1.797-12.389l16.178,3.539
		l10.782,17.695l10.784,21.236l3.596,15.928v14.158l12.581,17.697l-1.797,12.389l14.378,5.311l-19.771,1.77l1.798,19.467h-14.379
		l-10.784,7.078l-5.392,15.93l-12.581,17.695v12.389l-7.189-3.539v-8.85L1107.619,1375.272L1107.619,1375.272z"/>
	<path id="path2436" fill="#FFFFD0" stroke="#D0C0A0" stroke-width="2" d="M1095.038,1387.661l16.176,5.311l3.595,12.389
		l-5.392,1.771L1095.038,1387.661L1095.038,1387.661z"/>
	<path id="path2438" fill="#FFFFD0" stroke="#D0C0A0" stroke-width="2" d="M1105.822,1423.055l10.783,19.467l7.188,10.619v7.078
		l-3.594,1.77l-3.596,17.697l5.393,19.467l16.176,17.697l10.784,5.313v10.615l1.797,3.539h14.379l8.986-10.615l3.595-10.619v-10.617
		l-3.595-10.619l-28.757-47.783l-1.798-10.617L1105.822,1423.055z"/>
	<path id="path2440" fill="#FFFFD0" stroke="#D0C0A0" stroke-width="2" d="M1260.391,1580.561l-10.783-7.078l-3.596-21.236
		l-1.798-19.469v-7.078l-12.582-19.467l-8.984-24.775l-14.379-12.389l-10.783-15.928l-7.189-14.158v-5.309l-7.188-8.852
		l-8.986-7.076l-26.96-19.469l5.394-8.85l-12.581-12.387l1.798-10.619l5.392-21.236l17.973-7.078h7.189l1.798-17.697h14.378
		l12.582,3.539l7.188-8.85l21.566-5.309l10.783,5.309l3.596,10.619l-7.188,12.389l8.986,12.389l8.985,17.695l8.986,15.93
		l7.188,12.389v-14.158h14.377l7.189,5.311v15.928l12.582,1.77l3.594,17.697l1.799,19.467l5.393,14.158l-1.799,12.389l12.582,8.85
		l3.596-8.85l1.797-8.85l-5.393-7.078l1.797-15.928l14.38-5.311l14.378,15.928l12.581,30.086l3.595,21.234l-12.581,23.01
		l19.771,14.154l-3.596,14.158l-1.797,8.85l5.393,21.236l1.798,8.85v8.85l5.393,8.848l-3.595,10.619l3.595,17.697l10.783,21.236
		l-5.394,10.617l-5.392,7.078l5.392,12.391l-12.58,3.537l-10.783-3.537l3.595-10.619h-16.176l-10.783,10.619l-19.771,3.537
		l-10.782,10.617l-17.976,10.619l-3.595-14.156l8.987-12.389l-14.379-12.389v-15.928l-10.784-14.158l-3.596-24.775l-8.985-8.85
		L1260.391,1580.561L1260.391,1580.561z"/>
	<path id="path4385" fill="none" stroke="#000000" d="M1307.696,1417.458L1307.696,1417.458z"/>
	<path id="path4387" fill="none" stroke="#000000" d="M1289.904,1402.44L1289.904,1402.44z"/>
	<path id="path4391" fill="#FFFFD0" stroke="#D0C0A0" stroke-width="2" d="M1307.696,1414.954l17.792-22.523v-17.521l7.626-25.025
		l35.585-25.027l-10.167-47.553l25.417-12.516l-5.083-22.523l-12.709-32.535l5.084-20.021l-17.793-17.52l25.418-30.033
		l-30.501-67.575l-15.251,2.504l-17.793-30.034h-7.625l-10.167,10.012l10.167,42.547l5.083,27.529l-7.625,10.012v15.018
		l-15.25-5.006l-17.793,15.018l-17.793,30.031l-7.625,22.525l12.709,22.523l2.232,31.65l-3.132,8.092l-9.27,0.303v7.508
		l-20.335,25.027l15.251,12.516l-5.083,10.012l2.541,10.01l15.251,32.537l15.251,20.021l2.542-10.012l17.792,2.502l2.542,15.018
		L1307.696,1414.954L1307.696,1414.954z"/>
	<path id="path7308" fill="#FFFFD0" stroke="#D0C0A0" stroke-width="2" d="M1396.659,1712.782l-10.168,12.516l-17.792-7.51
		l-5.084-10.012l-15.25-22.523l7.625-10.012h12.709l5.083,10.012l17.793,2.504v-10.012l7.625-20.021l-7.625-12.514l-5.084-25.027
		l-2.542-12.516l-5.083-25.025l-5.084-17.521l5.084-25.025l15.251,5.006l15.25-7.51h25.418l15.251,10.012l22.876,12.514
		l12.709,27.531l12.709,35.037l-5.084,10.012l15.251,32.535l15.251,42.547l2.542,12.518l-2.542,27.527v17.521l-2.542,20.02
		l2.542,25.029l7.625,27.529l2.542,27.529l2.542,22.523l12.709,22.525l-12.709,5.006l-12.709,15.016l-7.625-5.004l-2.542-12.514
		l-7.625-17.521l2.541-10.012l-7.625-2.502l-7.625,5.004l-12.709,2.504l-15.251-5.006l-2.542-10.012l-10.167-25.027l-7.625-5.006
		l-10.167,12.514l-5.084,10.014l-10.167-2.502l-12.709,22.521l-7.625,2.504l-7.626,10.012l2.542,20.021l-7.625,17.521l-2.542-25.027
		l-7.625-20.021l-2.542-10.012l15.251-17.52l10.167,10.01l7.625-15.016l-10.167-20.023l-10.167-17.518l5.084-10.014l-12.709-12.514
		l-5.084-15.018l-7.625-20.021l12.709-12.514h20.334v-15.02h12.709v-7.508L1396.659,1712.782L1396.659,1712.782z"/>
	<path id="path8279" fill="none" stroke="#000000" d="M1325.489,1477.522l-10.168-10.01"/>
	<path id="path8281" fill="#FFFFD0" stroke="#D0C0A0" stroke-width="2" d="M1310.238,1439.981l-5.084-25.027l12.709-15.018
		l10.167-17.52l2.542-30.033l38.127-27.529l-2.542-15.018l-5.083-27.529l22.876-17.521l-5.084-20.021l-7.625-32.535v-17.521
		l-17.793-25.025l22.876-30.033l-10.167-25.027l-17.792-45.05l5.083-7.509l20.335-20.021h12.709l7.625,12.515l5.084,20.021
		l5.083-17.521l5.084-10.011l12.709,5.006l-7.626,17.52l5.084,17.521l5.084,12.514l5.083,45.049l12.709,17.521l7.625,15.018
		l-5.083,10.014l7.625,7.508l2.542,10.01l-17.793,12.516l2.542,20.021l2.542,17.52l2.542,12.516l10.167,12.514l-7.626,40.043
		l10.168,20.021l20.334,10.012l-5.084,12.514l7.626,30.033l15.25,15.016l2.542,20.021l5.084,25.027l-7.626,5.006l7.626,25.027
		l5.083,30.031l5.084,25.029v15.016l5.083,20.021l5.084,20.021v22.525l-12.709-5.008l7.625,27.529l10.168,40.045l7.625,25.027
		l-10.167,17.521l-5.084-12.516l-7.625-22.523l-7.626-25.027l-12.708-25.027l2.541-7.508l-5.083-20.023l-10.167-35.037
		l-10.168-10.012l-25.417-17.52l-33.044-7.51l-22.876,10.012l-15.251-12.516l-10.167-15.016l7.625-20.021l-2.541-20.021
		l-12.709-25.027l-15.251-22.523l-7.625,2.504l-10.167,15.016l7.625,20.021l-5.084,10.012l-10.167-12.514L1310.238,1439.981
		L1310.238,1439.981z"/>
	
		<path id="path11192" fill="none" stroke="#A08070" stroke-width="3.125" stroke-opacity="0.9922" stroke-dasharray="25,6.25,3.125,6.25" d="
		M404.87,1789.387l-8.987-14.156l12.581-12.389l-7.188-12.389l-1.797-19.469h-19.771l-8.986-24.775l-7.189-15.928l-3.595-31.854
		l-14.378-28.314l1.797-17.695l19.771-7.08l-7.188-14.156l-8.986-17.697l-10.784-8.85l-8.985-21.236v-15.928l-1.798-12.389
		l7.189-12.389l-8.986-23.006l-14.378-19.469l8.986-15.926l-14.378-12.391l10.784-15.928l-12.581-21.236l17.973-31.854l-12.581-8.85
		l-8.987-14.158l1.797-8.85l-16.176-14.156l3.595-23.008l3.594-10.617l-7.189-12.389l16.176-14.156l10.784-10.619l17.973-12.389
		l-7.189-7.078l-10.784,7.078l-8.986-8.85l-10.784-3.539l-21.567-8.85l-1.797,10.617h-8.987l-16.176-7.076l-5.392-10.619
		l-7.189-10.619l12.575-14.154l7.189-12.389l1.797-21.236h8.986l-7.189-14.158l-25.163-17.695l-10.784-12.391l-7.189-10.617h-12.581
		v-14.158l-10.784-3.538l8.986-14.158l-10.784-5.311l10.784-15.928l-7.189-10.618l12.582-8.849l-3.595-24.775l5.392-7.08
		l10.784,8.851l19.771-12.388l12.581-7.079l-3.595-15.929l-5.392-17.695l7.189-14.158l-14.378-10.618l-5.392-28.313l5.392-8.851
		l8.986-8.849v-15.93l-7.189-15.928l-5.392-8.849l-10.784,8.849l-21.568,1.771l-10.784-8.85l-7.189,7.078l-25.162-21.234
		l-25.163-10.618l-21.568-19.467l-28.757-8.851l-16.176,1.771l-8.987-12.391L34.62,752.333l1.797-8.851l-7.186-12.389
		l-12.582-12.389L9.46,702.777l8.986-7.078l3.595-21.235l12.581-3.539v-7.079l21.568-17.697l-1.797-15.928l-12.581-8.849
		l16.176-12.39l10.784,1.771l10.784-5.312V619.6l10.784,10.618l14.378,8.849l10.784-8.849l-8.987-3.539l5.392-14.158h17.973
		l7.189-14.156l3.595-10.618l8.987-3.539l-8.987-10.618l8.987-12.39l-3.595-14.156l8.987-7.079l-5.392-8.85l12.581-14.157
		l17.973,8.85l10.784,5.31l7.189-8.85h16.176l19.771-5.31l21.568,10.619l10.784,3.539l12.581-14.158l21.568,15.928l10.784-1.77
		v-10.618l7.189-19.468l14.379-5.311l1.797-10.618l-25.162-3.539h-8.987l-3.594-12.389l-5.392,7.079l-16.176-15.929l-5.392-17.696
		l5.392-15.927l-8.987-12.391v-14.156l-7.189,7.078l-7.189-8.85v15.928h-7.189l-12.582,8.85H217.95l-3.595-8.85l-10.784,3.54
		l-5.392-7.078l-14.378,3.538l-5.392-3.538l-14.378-14.158l1.797-8.85l-14.378-1.77l-7.189-12.388l3.595-3.54v-14.154h-12.581
		l-12.582-14.158l-3.594-8.849l-10.784-1.771l-5.392-12.388l-14.379-5.309V301.05l-17.973,12.388l-7.189-7.079l-8.987,8.849
		l-7.189-3.54L32.828,295.74l3.594-10.618l-7.189-5.309v-17.697l10.784-5.309v-12.388l17.973-12.388l3.595-10.618l-7.189-10.618
		l7.189-23.006l12.581-3.54l3.595-12.388h10.784l17.973-5.309l14.379-10.618l-8.987-10.619l8.987-17.697h10.784l14.378-15.927
		l8.987-8.849l8.986,7.079l8.987-3.539l-8.987-10.619l-1.797-14.158l-5.392-8.849l-14.379,3.54l-7.189-7.079l-8.987-3.539
		l-7.189,12.388l-7.189-3.539l-1.797-15.928l12.581-14.157V30.286l17.97-19.467l3.595,19.467v14.158h17.973l1.797,10.618
		l10.784-1.77l-1.797,10.618h12.581l5.392,8.849l12.581-7.079l3.595,12.388l17.973,15.928l8.986-1.77l1.797,19.467l16.176-1.77
		v12.388v5.309h16.176l3.595,8.849l-1.797,10.619l17.973,12.388l1.797-12.388l3.595-14.158l14.378,3.54l10.784,19.467l12.582-5.31
		l14.379,3.54l5.392-8.849l-7.189-8.849l-7.188-7.079l-10.784,3.539l-1.797-8.848l3.595-7.079l-5.392-7.079l-5.392,5.31
		l-16.176-7.079l-5.392-15.927l14.378-12.388l10.784-7.079l7.189,12.388l17.974,7.079l21.567,3.539l1.797,7.079l-10.784,3.54
		l8.987,5.309l-7.188,5.309l23.364,5.309l-3.595,8.849l-14.378-1.77v7.079l14.378,15.928l1.797,10.618l-3.595,8.849l8.985,15.928
		l26.961,8.848l7.188,12.388l-8.987,3.54l23.365,8.849l10.784,12.388l17.974,3.539l10.783-17.697l5.394,10.618l7.188,7.079h17.975
		l7.188,5.31l-1.798,8.849l8.987,3.539l8.984-10.618l-8.984-5.309l1.797-12.388l14.379-7.079l10.783-1.77l-5.394-21.237
		l-8.986,12.388l-1.798-14.158l-5.392-12.388l14.378-12.388l7.188-15.928l14.38,5.309l-3.597,15.928l5.394,10.618l14.379-7.079
		l7.188,12.388l7.189,10.619l5.393,8.849l-8.985,7.079l14.378,12.388v12.388h14.379l-10.784,10.618l0,0l19.771,12.388l-7.189,8.85
		l-7.189,3.539l-3.594,15.928l-5.393,3.54l10.784,23.006l-7.189,3.539l-3.595,10.618l8.985,5.31l-3.595,5.312l14.378,12.388
		l-7.188,15.928l5.393,17.697l-8.987,8.849l1.8,28.315l-7.189,14.157l-1.797,14.158l-3.595,8.849l7.188,7.079l-1.798,8.849
		l16.177,12.389l5.393-7.078l17.974-5.311l16.176,8.85l19.771,12.389l19.771,10.618l28.758,5.31l16.176,7.079l12.581,3.539
		l17.974-3.539l3.595,15.927l17.975-3.539l12.581,3.539c0,0,3.595-8.849,19.771-8.849c16.177,0,25.162,0,25.162,0h12.582
		l10.783-5.31l8.986,7.077v3.54l30.456-9.22l15.25,7.509l40.67,2.503l25.418-12.514h35.585h27.959l20.335-7.509l22.876,17.52
		l12.709-7.509l22.876,10.012l20.334,7.509l12.709-7.509l12.709-5.006l15.251,7.509l15.251,5.006l10.167-10.012l15.25-5.006
		l30.502,5.006l33.043-5.006h17.793l22.876-2.502l7.625-5.006l17.793,15.017l17.792,7.509l10.167,15.018l20.334,5.006l12.709-5.006
		l2.542,10.012l30.501,17.521l-2.541,15.018l20.334,5.005v17.521l-2.542,15.017h-10.167h-20.334l-10.168,5.007l-15.25-2.504
		l-15.251,7.509l10.167,15.018l-17.792,30.033l-7.626,20.021l-7.625,12.515l2.542,15.018l-10.167,12.514l-12.709,2.503
		l-5.084,10.012l2.542,15.018l10.167,17.521l-12.709,10.012l-22.876,7.509l-17.792-7.509l-7.626,5.006l10.167,15.018l-10.167-2.503
		h-10.167l-5.084,12.514l2.542,20.021l-5.083,17.521l-12.709,15.017l-10.167-7.509l-10.168-10.012l-17.792-7.508l-5.084,10.012
		l7.626,17.52l-10.167,5.006l-12.709-7.509l-7.626-12.514l-15.251-7.509l2.542,20.021l-5.083,20.021l-17.793,12.515l-17.792-5.006
		l-12.709-5.006l-20.335-7.509l-15.25,2.504l10.167,20.021l-5.084,17.521l-12.709,7.508l-12.709-5.005
		c0,0-12.708,5.005-17.792,15.017S1068.772,987,1068.772,987l7.625,15.018l-7.625,7.508l-2.542,27.53l-15.251-2.503l-5.083,12.514
		l4.04,5.443l8.063,3.971l3.146,10.608l-5.604,9.046l-10.135,12.996l25.907,45.533l7.625,27.529l10.167,17.52l5.084,22.523
		l5.083,12.516v15.016v20.023l10.167,20.02l7.626,12.516l15.25-2.504l-7.625-15.018l-2.542-27.529l2.542-25.025l17.793,5.004
		l20.334,22.525v20.02l2.542,17.521l5.083,25.025l10.168,20.021l15.25-10.012l5.084,7.51l17.792-10.012h12.709l20.335-27.529
		l-0.373-3.484l8.088-0.885l3.595-8.85l-0.896-11.504l-1.8-10.619v-8.848l-6.288-11.504l-7.189-12.387l8.088-23.895l16.177-26.545
		l21.566-15.928l14.379,7.078l-0.896-20.354l7.188-10.617l-14.379-66.365l9.885-12.389h7.189l8.088,15.93l8.088,15.927l14.379-2.655
		l6.291-10.618l11.684-12.388l10.782-8.849h10.784l6.291,9.731l6.29,17.697l4.493-10.618l7.188-12.389l7.188,3.54l4.493,4.424
		l-4.493,5.31l-3.595,8.851l3.595,14.157l3.596,10.617l4.492,7.078l1.797,23.893v18.582l13.48,16.813l8.985,16.814l-5.393,8.848
		l6.29,7.08l4.493,7.963l-1.797,5.311l-14.379,10.617l0.897,7.078l0.898,19.469l1.797,19.467l4.493,7.078l6.291,9.732l-4.493,27.432
		l-1.798,13.273l6.291,12.387l3.595,6.195l14.379,7.963l7.188,4.424l-4.492,7.08l2.694,21.236l4.494,16.813l14.379,12.389
		l1.797,19.467l4.492,19.467v6.195l-8.088,4.424l8.986,19.467l9.887,58.4l0.896,20.352l10.784,38.938v20.352l-8.088-2.654
		l-6.291-4.426l4.492,13.273l10.785,43.357l4.492,20.354l5.393,15.926l-8.986,16.814v18.582l-2.695,13.271l-0.897,23.893v18.582
		l1.798,16.813l6.29,25.66l1.798,12.389l2.694,19.467l0.899,17.697l10.782,19.467l3.595,7.965l-9.885,3.539l-15.275,14.15
		l-5.392-2.654l-13.479-29.199l2.695-12.389l-7.188-4.426l-8.985,8.85l-8.985,0.885l-11.684-1.77l-8.089-6.193l-8.088-25.66
		l-6.291-8.85l-5.393-2.654l-14.379,22.121l-8.985-4.426l-8.985,10.619l-4.493,14.158l-11.684,3.537l-4.493,8.852l5.394,20.352
		l2.688,16.18l-12.573,13.906l11.677,18.582l11.006,11.887l6.967,12.006l-8.979,13.27l9.879,20.855l4.492,15.426l-2.688,11.502
		l9.209,14.291l2.475,20.219l4.493,9.734l2.688,5.059"/>
	<g id="g4653">
		<path id="path5362" fill="#FFFFD0" stroke="#D0C0A0" stroke-width="2" d="M1259.402,1690.259l25.418-5.006l5.084,25.025
			l-7.626,22.525l-15.251,25.027l2.542-17.521l2.542-35.037L1259.402,1690.259z"/>
		<path id="path5364" fill="#FFFFD0" stroke="#D0C0A0" stroke-width="2" d="M1294.987,1712.782l27.96-15.016l12.709-10.012
			l12.709-2.502l17.792,30.031l20.334,10.012l7.626-2.504l5.083-12.514l12.709,17.521v7.508H1399.2l-2.542,17.52h-22.876
			l-10.167,12.516l10.167,25.025l20.335,20.023l-7.626,12.514l12.709,20.021l10.167,12.514l-5.083,17.52h-10.167l-2.542-10.012
			l-17.792,20.023l5.083,22.521l16.229,18.529l2.541,12.469l-12.153,14.535l11.145,20.021l18.803,23.535l-11.109,14.006
			l12.644,20.021l5.231,15.906l-4.896,9.91l7.321,16.248l10.167,25.027l-2.541,12.514l-7.626-7.508l-10.167-27.531l-12.709-15.02
			l-10.167-17.518l-7.625-17.521V2008.1l-43.211-50.055l-5.083-40.045v-17.521l-7.625-17.52l-15.251-20.021l-2.542-10.012
			l12.709-15.018l2.541-17.52l5.084-15.018l5.084-22.523l-2.542-27.531l-10.167,22.525l-12.709-7.508l10.167,17.52l7.625,20.021
			l-12.709,25.025l2.542,2.502l-25.418-2.502l2.542,12.516h-15.251l-2.542-12.516l7.626-22.523l5.083-20.021l-12.709-10.012
			L1294.987,1712.782L1294.987,1712.782z"/>
		<path id="path3682" fill="#FFFFD0" d="M1306.551,1761.346l25.418-5.006l5.082,25.025l-7.625,22.525l-15.25,25.027l2.541-17.521
			l2.543-35.039L1306.551,1761.346z"/>
	</g>
	<g id="g10307">
		<path id="path2273" fill="#F7D3AA" stroke="#CB9369" stroke-opacity="0" d="M3.311,1812.192
			c0.686-9.307,21.766-17.572,28.284-26.264c4.757-6.344,8.178-18.668,10.102-28.283c3.133-15.668,8.081-25.637,8.081-42.428
			c0-12.971,3.59-25.141,8.081-36.365c5.304-13.26,17.377-24.516,26.264-36.365c11.233-14.979,29.308-22.992,44.447-34.346
			c17.254-12.939,37.824-28.693,48.487-46.467c16.842-28.068,53.192-23.096,78.792-12.121c2.552,1.094,5.387,1.346,8.081,2.02
			c4.052,1.014,14.879,27.738,16.163,30.305c4.233,8.467,13.777,6.063,24.244,6.063c9.955,0,9.995-10.527,8.081-18.182
			c-1.797-7.189,15.598-3.314,22.225,0c4.587,2.293,8.435,16.869,10.101,20.201c3.725,7.447-5.062,12.143-8.081,18.184
			c-3.741,7.482,2.01,14.1,4.041,22.225c2.39,9.559,6.689,11.629,4.041,22.225c-2.063,8.254-6.232,14.227-14.143,18.184
			c-10.606,5.303-8.943,9.238-2.021,16.162c6.214,6.213,3.599,17.928,2.021,24.242c-1.771,7.084-1.281,13.061,0,18.184"/>
		<path id="path9336" fill="#F7D3AA" d="M332.64,1555.614c10.103,15.152,18.184,21.213,18.184,21.213l7.071,13.133l6.061,13.133
			l-16.163,5.051l-4.041,16.162l1.01,9.092l8.082,15.152l6.061,13.133l-15.152,23.232l-4.041,11.109l8.081,18.184l-5.051,21.215
			l15.152,16.162v24.242l-9.091,12.121l-24.245,4.041l-7.071-59.598l-11.112-140.412L332.64,1555.614L332.64,1555.614z"/>
	</g>
	<path id="path10311" fill="#F7D3AA" stroke="#A08070" d="M1546.637,1634.462l-18.569,7.143l-5.715,7.143l4.284,17.146l5.716,22.854
		l5.715,14.287l-11.431,15.713l2.857,17.146l-4.286,15.713l-1.428,21.43l1.428,27.145l7.145,35.715l1.43,20l4.285,31.428
		l8.569,15.715l5.716,10l-11.429,2.857l-14.287,12.854l-8.569-1.428l-12.858-25.717l1.428-14.285l-5.714-4.287l-5.715,8.572
		l-20,1.428l-12.855-8.57l-4.285-12.855l-2.856-11.43l-11.429-11.428l-12.859,22.855l-8.571-4.285l-7.143,10l-5.715,14.285
		l-15.715,1.428v10l7.145,34.285l-10,14.287l10,21.428l17.144,20l-5.715,14.285l8.571,25.715l5.713,15.715l-4.284,7.145l10,17.143
		v12.857l4.284,12.855l2.857,8.57l-5.715,18.572l10,27.143l41.429,5.715l57.146-1.43l14.284-7.143l4.286-88.57l-2.856-367.145
		L1546.637,1634.462L1546.637,1634.462z"/>
	<path id="path12251_1_" fill-opacity="0" stroke="#000000" d="M1522.352,1645.889"/>
	<path id="path13274" fill="none" stroke="#D0C0A0" stroke-width="6" d="M988.065,531.604v27.143l8.569,5.717H983.78l-4.286,5.713
		l12.857,4.286l-5.717,5.714l-2.854,14.286l7.143,10l-1.429,15.714l20,4.286l5.714,11.429l20.001,2.855l10,10l-1.429,8.571l4.285,10
		l10-11.429l8.571,8.57v8.57l-10,2.857l-4.285,14.285l17.143,7.143l12.857,4.286l4.285,11.429l-15.716,12.857v17.143l10,10
		l-7.144,17.145l-17.145,8.569l4.286,4.286l11.431-4.286l7.143,5.716l1.429,8.57l-5.715,5.714l10,17.146v4.285l-10,1.429
		l5.715,7.143v8.571l-8.569,4.286l-14.286-2.857l-4.286,7.146l8.572,4.285l1.428,5.715l-8.571,7.143l14.286,1.43l14.285,7.144
		l11.429-12.855l15.715-2.856l-1.429,10l-14.286,8.571l10,10l-1.429,5.714l-12.856-4.285l-2.855,12.856l11.429,7.144l-11.429,2.856
		l2.855,11.429l2.856,8.571l8.572,5.715l-5.717,10l1.431,7.143l0,0l0,0v1.429"/>
	<path id="path13557" fill="none" stroke="#D0C0A0" stroke-width="6" d="M603.78,451.604l-14.286-11.428l-2.857,8.57l7.146,5.716
		l-12.857,5.714v22.855l8.57,11.431l1.429,10l-7.143,11.429l-8.572-1.429l-8.572,7.142l-1.429,12.857l-15.714,22.857l4.286,11.428
		l-5.715,8.572l7.143,7.145l-7.143,5.714l7.143,1.429v7.145l-5.714,7.141l5.714,5.714l1.429,7.143l5.717,14.286l-5.717,1.431v14.283
		l7.146,10l12.854-1.428v8.571l-2.854,4.285l4.285,7.143l2.855-5.714l17.145,10l-1.431,7.143l-7.143,1.429l7.143,11.428
		l-1.429,17.143l-1.429,11.431l-7.145-1.431l5.717,11.431l-2.857,8.569l-2.857,5.717h-5.714l-7.144,4.283l5.715,11.43v12.855
		l-11.429,12.857l14.286,11.428l2.854,7.146l-7.143,5.714l15.716,21.428v17.143l-2.856,17.146l4.285,10l-5.714,4.284l11.429,8.569
		l2.856,14.286v14.286l-8.571,12.856l-25.714,5.717l-11.429-1.429l-4.286,11.429l-4.285,14.285l11.429,7.144l5.714-2.856
		l7.145,12.856l-5.714,1.428l-10-8.569v10l18.569,5.715l11.431,7.143l-18.573,7.141l-14.286-1.431l-18.571-7.142l-25.714,10
		l-31.429-17.142l-5.715-14.286l-17.145-20l2.859,17.143l-7.143,5.714v1.431l-15.717-1.431l-4.283-7.143l-17.145-22.857
		l-21.429,1.431l-7.144-7.145l-20,1.428l-11.428,5.717v-1.431l-4.286-7.143h-7.143l-5.714-10l2.856-15.715l-8.572-10h-15.713
		l-10-8.571l-5.714,8.571l-14.286-2.856l-15.714,1.428l-27.143-21.428l-12.857-1.429l0,0"/>
	<path id="path13840" fill="none" stroke="#D0C0A0" stroke-width="6" d="M441.738,985.889l2.02,32.325l2.021,6.061l-14.144,10.103
		l4.04,10.103l20.96,19.984l15.716-5.716l5.715,7.144l12.855,12.857l5.714,24.285l12.858,12.855l-5.714,1.43l-5.715,2.857v7.143
		h18.57l14.285,11.428l1.431,14.287l11.429,18.57l-10-5.715l-5.715,5.715l7.143,7.143l-2.855,15.715l4.284,12.855h12.857l-10,7.145
		l2.857,11.43l12.854-2.857l8.572,7.145l-1.431,14.287l11.431-7.146l11.428,4.287l-11.428,25.713h-11.431l15.716,17.146
		l7.143,15.713l17.146,8.57l-5.717,17.145l12.857,7.143l-5.714,8.572l2.854,11.428l8.571,7.145l15.715-7.145l10,8.572l1.43,30
		l-20,4.285v15.711h12.855l11.429,5.715l-1.429,15.713l7.145,20l-5.716,10l5.716,25.715l-17.145-15.715l-10-5.713l4.286,12.855
		l12.857,12.855l5.714,5.715h-7.145l-10,11.43v17.145l-12.852,24.285l-5.714,24.285l10,14.285l4.283,24.287l-11.429,20l7.146,15.713
		l-5.717,22.855l8.571,14.285l-1.428,10l2.854,30v1.432"/>
	<path id="path14125" fill="none" stroke="#D0C0A0" stroke-width="6" d="M640.738,1361.665l3.03-12.121l20.202,2.021l8.081-10.102
		l-1.011-11.111l12.121-12.123l2.021-11.109l12.123-3.029l1.01-7.072h11.11l-1.011-13.131l17.173-1.012l7.071-7.07l5.051,3.031
		l-3.029,29.293l18.184,7.07l17.172-5.051l7.071,8.08l5.051-13.131l18.183-7.072l14.145,4.041l14.142,8.082l16.163,13.131
		l18.184,7.072l17.174,8.08l8.08,8.082l7.07,16.162l11.111,22.223l5.051,23.234l9.092,30.305l11.111,15.152l15.152,17.172
		l14.142,19.193l-2.02,16.162l22.223,22.223l12.122,14.143v14.145l-10.103,16.162l-1.011,16.16v37.377l3.03,21.215l0,0"/>
	<path id="path14412" fill="none" stroke="#D0C0A0" stroke-width="6" d="M848.065,1324.462l1.429-24.285l-5.714-17.145
		l-12.857-11.428l10-2.857l-7.143-11.428l10-7.145l10-14.285l-5.715-17.145l-7.145-28.57l-2.855-21.43l4.286-15.715l15.714-24.285
		l30-11.428l-7.145-30l-1.427-27.141l10,1.429l8.571-10l1.429-14.286l15.714-21.428l-1.429-12.857l11.429-10l14.286,7.143
		l22.857-4.285l8.569-12.857l8.573-22.857h8.571l-7.145-11.431l11.431-15.714l14.283-2.855v-7.145l5.717-5.714v-11.429l-8.572-2.857
		l-10-12.855l15.715-15.714l14.285,2.854l7.144-11.428l27.145-4.286h1.427"/>
	<path id="path5037" fill="none" stroke="#D0C0A0" stroke-width="6" d="M547.699,577.067l-4.199-3.359l-21.834,2.939l-2.519,8.396
		h-6.3l-4.197-5.877l-15.955-2.521l-9.657-10.497l-4.199,7.138l-10.077-5.878l-3.776,5.458l-10.917-1.26l-2.939-12.596l-9.656-3.359
		l-13.017-2.52l-5.879,4.197l-1.259,0.841l-7.138-5.038l2.099-2.938l-10.917-13.854l-6.028-3.586l-4.889-9.432l4.199-11.757
		l-12.597-3.779l-19.313,2.102l-6.718-9.657l-12.598,3.359l-12.596-9.237l0,0l0,0l0,0"/>
</g>
</svg>
