<?xml version="1.0" encoding="utf-8"?>
<!-- Generator: Adobe Illustrator 16.0.0, SVG Export Plug-In . SVG Version: 6.00 Build 0)  -->
<!DOCTYPE svg PUBLIC "-//W3C//DTD SVG 1.1//EN" "http://www.w3.org/Graphics/SVG/1.1/DTD/svg11.dtd">
<svg version="1.1"
	 id="svg1895" xmlns:dc="http://purl.org/dc/elements/1.1/" xmlns:cc="http://creativecommons.org/ns#" xmlns:rdf="http://www.w3.org/1999/02/22-rdf-syntax-ns#" xmlns:svg="http://www.w3.org/2000/svg"
	 xmlns="http://www.w3.org/2000/svg" xmlns:xlink="http://www.w3.org/1999/xlink" x="0px" y="0px" width="1560px" height="2160px"
	 viewBox="0 0 1560 2160" enable-background="new 0 0 1560 2160" xml:space="preserve">
<g id="layer2">
</g>
<g id="layer1">
</g>
<g id="layer3">
	<g id="g5728">
		<polyline id="rect2713_1_" fill="#E0E0E0" points="1563.44,2106.938 55.924,2106.938 55.924,-3.581 1563.44,-3.581 		"/>
		<polygon id="rect2263" fill="#C6ECFF" points="1050.189,1108.409 781.118,1404.832 301.54,994.948 570.611,698.524 		"/>
		
			<linearGradient id="rect2261_1_" gradientUnits="userSpaceOnUse" x1="-46.3501" y1="1875.8164" x2="1487.2764" y2="1875.8164" gradientTransform="matrix(0.9818 0 0 -0.9818 49.8996 3553.9536)">
			<stop  offset="0" style="stop-color:#FFFFFF"/>
			<stop  offset="1" style="stop-color:#000000"/>
		</linearGradient>
		
			<rect id="rect2261" x="4.882" y="1259.334" fill="#C6ECFF" stroke="url(#rect2261_1_)" stroke-opacity="0.0627" width="1504.789" height="905.747"/>
		
			<rect id="rect2205" x="462.13" y="1156.472" fill="#FBFED1" stroke="#FFFF00" stroke-width="3.0012" stroke-opacity="0.0627" width="174.554" height="182.489"/>
		
			<rect id="rect2203" x="534.887" y="441.537" fill="#FBFED1" stroke="#FFFF00" stroke-width="3.0012" stroke-opacity="0.0627" width="65.923" height="122.025"/>
		
			<rect id="rect2201" x="933.224" y="609.85" fill="#FBFED1" stroke="#FFFF00" stroke-width="3.0012" stroke-opacity="0.0627" width="159.896" height="301.561"/>
		<rect id="rect2197" x="275.657" y="555.399" fill="#C6ECFF" width="453.938" height="623.653"/>
		<rect y="-3.581" fill="#E0E0E0" width="76.5" height="1790.763"/>
		<path id="path1881" fill="#FFFFD0" stroke="#646464" stroke-width="0.5" d="M1412.988,2136.927
			c-1.289-5.158,0.634-7.222-3.928-11.781c-6.142-6.142,1.051-6.872,5.892-6.872
			C1416.756,2118.273,1413.135,2136.565,1412.988,2136.927z"/>
		<path id="path1921" fill="#FEFEE9" stroke="#646464" stroke-width="0.5" d="M384.044,1792.31c0-2.421-7.716-2.518-5.891-9.819
			C378.524,1781.01,388.219,1781.873,384.044,1792.31z"/>
		<rect id="rect2269" x="3.292" y="1659.897" fill="#E0E0E0" width="86.738" height="156.246"/>
		
			<rect id="rect2271" x="164.752" y="1660.415" fill="#CA936A" stroke="#FFFF00" stroke-width="3.0012" stroke-opacity="0.0627" width="86.96" height="134.65"/>
		
			<rect id="rect2265" x="38.991" y="39.127" fill="#E0E0E0" stroke="#FFFF00" stroke-width="3.6635" stroke-opacity="0.0627" width="329.799" height="1624.861"/>
		<rect id="rect6157" x="1013.172" y="1179.304" fill="#E0E0E0" width="516.156" height="190.754"/>
		
			<rect id="rect6159" x="1453.342" y="1171.133" fill="#E0E0E0" stroke="#CB9369" stroke-width="3.458" stroke-opacity="0" width="97.733" height="978.564"/>
		<path id="path2259" fill="#E0E0E0" stroke="#CB9369" stroke-width="0.9878" stroke-opacity="0" d="M343.121,1723.771
			c0,8.9,0,42.529,0,63.477c0,14.626-23.225-10.484-23.225-27.771c0-25.882-7.743-43.493-7.743-7.935
			c0,24.563,0.21,35.923,11.614,47.606c3.591,3.683-35.505,3.284-42.579-3.967c-3.889-3.987-3.02-52.057-3.871-55.543
			c-4.335-17.775,3.918-39.479,0-55.544c-7.36-30.172-15.483,8.408-15.483,23.804c0,23.088,3.87,33.813,3.87,55.543
			c0,20.516,4.28,34.027,0,51.576c-5.783,23.707-46.992-6.229-50.321-7.934c-23.993-12.294-34.726-7.821-15.484,11.902
			c10.402,10.661-32.176-1.241-42.579-11.902c-11.39-11.676-2.146-46.747,0-55.544c4.753-19.487,0-47.021,0-67.445
			c0-3.73-30.946-7.892-15.485,23.804c8.826,18.092-2.08,45.772-11.612,55.543c-12.724,13.04,6.868,29.948,11.612,39.675
			c11.157,22.87-6.792,38.701-15.483,47.608c-17.591,18.027-52.626-16.629-58.063-27.771c-5.941-12.178-21.95,16.534-34.838,19.835
			c-17.182,4.403-3.871-32.299-3.871-43.641"/>
		<path id="path2172" fill="none" stroke="#000000" d="M59.139,277.18L59.139,277.18z"/>
		<path id="path2170" fill="none" stroke="#000000" d="M358.608,180.118L358.608,180.118z"/>
		<path id="path2173" fill="none" stroke="#000000" d="M364.847,171.518v-7.372h-3.744L364.847,171.518z"/>
		<path id="path3149" fill="none" stroke="#000000" d="M514.582,392.671L514.582,392.671z"/>
		<path id="path3150" fill="none" stroke="#000000" d="M337.395,664.198L337.395,664.198z"/>
		<path id="path3166" fill="none" stroke="#000000" d="M137.749,801.805L137.749,801.805z"/>
		<path id="path3173" fill="none" stroke="#000000" d="M301.208,924.668L301.208,924.668z"/>
		<path id="path3175" fill="none" stroke="#000000" d="M314.935,916.067L314.935,916.067z"/>
		<g id="g5219" transform="matrix(2.5417852,0,0,2.5027642,-20.817184,-25.22581)">
			<g id="g4167">
				<path id="path3168" fill="#FEFEE9" stroke="#646464" stroke-width="0.5" d="M60.912,333.393l1.473-3.436l-3.436-4.418
					l0.491-6.382l-2.945-3.436l0.491-3.928l9.819-2.945l5.891-2.946l-0.491-3.928l9.327,0.49l1.473-1.473l-1.473-2.455l-2.455,1.473
					l-3.436-1.963l6.382-3.436l7.364,2.455l0.491,3.928l2.945,0.981l2.945-3.436l2.454,1.964l-0.491,5.4l4.418,1.964l10.8-5.891
					l-0.491-0.982l5.399,1.963l2.945,2.454l3.928-0.49l3.436,3.436l3.928-1.473v4.909l0.491,2.454l3.928,1.963h2.454v2.945
					l-0.982,2.455l-5.4,0.49l-2.945,2.454h1.963l2.946,2.946l-4.418,3.436l0.491,2.454l0,0l0.491,13.255l-4.909,3.436l-0.982,1.473
					l0,0l2.455,4.909l3.928-0.981l0.491,2.946l0.982,2.454l1.473,1.473l-6.382,2.455l-1.963,1.963l2.455,1.963l-2.945,1.473
					l1.963,1.473l-1.963,1.473l5.399,0.981l0.982,1.963l-3.928,0.982l-0.491,1.963h-4.909l-6.873-2.946l-4.418-3.927l-1.964-0.982
					l-3.436-0.982v-1.963l3.928-0.982l0.491-10.309l-3.436-7.364l-3.928-0.49l-1.963,2.946l-7.364-0.492l-4.418-2.454l-3.436,2.946
					l-4.418-2.455l-4.418-4.418l-1.963,0.491l-0.491-2.455l-4.418-0.982l-4.909-2.454L60.912,333.393z"/>
				<g id="g4150">
					<g id="g3158">
						<g id="g3153">
							<path id="path4167" fill="#FEFEE9" stroke="#646464" stroke-width="0.5" d="M114.42,74.683l2.454-2.455l2.455,0.491
								l2.454,1.963l-1.963,5.4l2.946,0.982l2.454,2.946l2.945-0.491l-0.491-3.436l-2.454-1.473l2.945-3.436l5.399,0.491
								l2.455,3.436l1.963,2.455l1.473,2.454l0.982-1.473h4.418l0.982,0.982l2.946-1.473v3.436l0.491,5.891l3.436,2.455l3.436,1.963
								l0.982,2.455l-0.491,2.946l-0.982,7.364l1.473,4.909l0.982,5.4l3.928,3.436l4.418,2.946l3.436,2.946l-1.473,3.928
								l-1.473,3.436l-1.473,1.963l-2.946-3.436l-4.909,4.418l0.491,5.4l-3.928-3.928l-2.454,4.909l-7.855-1.963l-5.4,1.473
								l1.963,4.909l-2.455,2.946l-1.473,2.455l-4.418-0.491l-3.928-3.436h-2.455v-5.401l-3.928-0.981v-11.782l-1.963-2.454
								l-1.963-3.436l-5.399-1.473l0.491-2.455l-1.473-0.982v-3.928l-0.491-1.473l1.963-2.455l-1.473,2.455l2.945-4.418l2.945-1.473
								v-8.345l1.473-2.946v-1.963l-0.491-6.872l1.473-2.946l-5.399-5.891v-6.873H114.42z"/>
							<path id="path2169" fill="#FEFEE9" stroke="#646464" stroke-width="0.5" stroke-linecap="round" stroke-linejoin="round" d="
								M60.912,53.575l-0.982-3.436l-0.982-2.455l2.455-3.436l1.964-4.418l1.963-5.891l3.928-5.891l0.982,6.382l0.491,3.436
								l3.928,3.927l3.928-0.982l0.982,3.436l3.928,0.982l0.491,2.946l3.928,1.473l0.491,1.963l3.928,0.982l2.455-2.946l1.473,3.928
								l1.963,2.454l2.946,1.963l0.982,1.963l2.455-0.982l1.473,1.473l-1.473,3.436l1.473,1.473l1.963,1.473v0.982l3.928-0.491
								v1.963l0.982,1.963h-6.382l0.491,4.418l-4.418,0.982l-0.491,1.963l3.928-0.491l3.436-1.473l3.436-2.946l2.454,1.963
								l-0.491,4.418l1.963,3.436l2.454,3.436l-0.982,3.436v4.909v4.418l-1.473,3.928l0.982,4.909l-2.455,3.436l-3.436,4.909
								l-3.928-0.982l-5.399-0.491l-1.963-3.928l-2.455-1.963l2.946-5.4l-1.963-3.927l-2.454-2.946l-3.928-1.473l-1.963-1.963
								l-1.473-2.946l-2.454,0.982c0,0-0.614-0.491-1.964-0.982c-1.35-0.491-3.436-0.982-3.436-0.982l-2.455-0.982l-2.454,1.963
								l-3.928-0.982l-3.436-1.473l-2.945,1.963l-0.491,2.455c0,0-1.596-0.245-3.436-0.982c-1.841-0.736-3.928-1.963-3.928-1.963
								l-0.982-1.473l3.436-1.963l1.963-2.454l-1.473-2.946v-6.872l5.401-0.491l1.963-1.963l1.963-2.946l4.418-1.473l0.982-3.436
								l2.455,3.928l2.454-1.473l1.963-3.436l-1.965-2.45l-1.963-2.946v-3.436l-3.436-2.946l-4.418,0.982l-2.455-3.928l-2.454,1.963
								l-2.945-0.491L60.912,53.575z"/>
							<path id="path2192" fill="#FEFEE9" stroke="#646464" stroke-width="0.5" d="M34.893,147.338l-2.455-4.418l-2.945-3.928
								l1.963-4.418l-4.909-0.982l1.473-7.854l3.436-2.455l-0.491-2.946l1.963-3.928l5.891-3.927l1.964-5.4l-4.418-2.454
								l2.454-4.418l0.982-4.418l5.4-1.963v-4.909l7.364,0.982l5.4-1.473l7.364,4.909l1.473-3.927l5.011-1.053l4.316,1.543
								l3.928-0.491l9.818,2.455l3.928,4.418l3.436,1.473l4.909,5.891l-3.436,4.909l0.982,3.436l-2.454,2.454l-0.982,3.927H92.82
								l-2.454-3.927l-1.473,2.946h-2.946l-1.473,5.4l1.963,1.963l-2.454,0.491l-2.945,4.909l-0.982,2.946l-1.473,2.946l1.963,2.455
								l-2.945,0.49h-1.963v-2.455l-6.382,0.492v3.927h-2.455l-0.491,4.909l2.945,1.473l-1.963,1.963v4.418l2.455,1.473l2.945,2.455
								l-0.491,3.436l-3.436,0.492l-2.945-2.946l-2.455-1.473v-1.963l-3.436-3.436h-2.945l-0.982-3.436l-5.401-2.946l0.491-2.454
								l-0.491-1.473l-4.418,1.473l-2.945,2.454l-2.455-2.946L34.893,147.338z"/>
							<path id="path2175" fill="#FEFEE9" stroke="#646464" stroke-width="0.5" d="M147.802,76.156l-1.473-3.927l-3.928,2.946
								l-1.963-2.946l2.946-2.455l-1.473-2.455l-2.454-0.491l-1.473,1.473l-4.909-2.455l-0.982-4.418l4.909-7.364l4.418-1.473v2.946
								l1.473,0.982l4.418,1.473l2.945,2.946l6.382-0.491l1.473,3.436l-2.946,0.491l2.454,2.946l-2.454,2.946h5.891l1.963,3.436
								l-0.491,1.473h-2.945l-2.946-2.946v4.418l2.455,2.946l3.928,4.418l0.491,2.946l-1.473,1.473l4.418,8.837l7.854,1.473
								l3.927,3.928l0.491,2.946l-1.963,0.982l0.491,0.982l3.436,0.491l3.928,1.963l3.436,3.927l6.382,1.473l2.945-5.4l1.963,0.491
								l0.491,2.455l2.454,0.982l1.963,1.963l1.963-1.473l-0.982,9.327l3.928,0.491l5.4,5.891l0.982-0.491v2.946h4.418l0.49,1.473
								l-4.418,5.891l-2.454,0.49l0.491,5.891l-5.4,3.927l-1.473-0.491l-0.49-4.418l-1.473,0.491l-0.982,2.455l-3.927-0.49
								l-2.946-0.982l-0.491,0.982l-9.818-5.891c0,0,2.455-2.946,0-3.436c-2.455-0.492-4.909-1.963-4.909-1.963v-3.436l-2.946,0.491
								l-4.418-3.436l-4.909-1.963l-2.946-3.436l-6.295-2.082l-3.032-4.791l-2.455-11.291l1.473-7.364v-2.946l-7.854-4.909
								l0.491-9.818l3.928-1.473l-2.454-3.436L147.802,76.156z"/>
							<path id="path2174" fill="#FEFEE9" stroke="#646464" stroke-width="0.5" d="M99.694,111.011l-2.454,2.455l-0.982,3.927
								l-3.436,0.982l-2.945-4.418l-0.982,3.436h-3.436l-1.473,5.4l2.455,1.473v1.473l-2.945-0.491l-4.418,9.818l1.473,2.455
								l-0.982,1.473l-3.928,0.491l-0.491-2.946l-1.473,0.982l-5.4-0.982l0.982,4.909l-2.454-0.981l-0.491,4.419l2.455,1.473
								l-1.473,3.436l0.491,3.436l4.909,3.928v3.928l1.963,1.473l-0.491,4.418l-1.963,0.981v3.928l2.946,1.963h4.418v3.927
								l3.436,2.455l1.473,3.436l5.891,0.492l3.436-0.982l0.982,2.455l4.418,0.491v1.963l6.872,0.982l1.963-1.963l2.455-1.473
								c0,0,5.891,2.455,4.418,0.492c-1.473-1.963-1.473-5.401-1.473-5.401l2.945,2.946l2.946-2.946v4.909l2.454,0.982l1.964,4.418
								l-1.964,4.909l-2.454,1.473l2.945,1.473l0.491,3.927l6.382,6.381l1.473-2.455l1.473,1.963v1.963l12.273,0.981l1.473,1.963
								l-0.491,3.436l5.401,2.946l4.909-0.982l2.455,3.928l6.872-0.982l14.728,3.436l3.928-1.963v-3.436l-3.928-4.418l-0.49-4.418
								l-5.401-4.418l0.982-1.963l-1.473-0.982h-2.455l-0.491-2.946h-4.418l-2.946-3.436l1.473-0.981l-4.909-2.946l-3.436-13.746
								l-1.963-4.909l-7.364-1.473l-3.436-7.855l-6.872-4.418l-0.982-6.872l-5.401-1.473l-1.963-1.963l-2.945-0.491l1.473-5.4
								h-4.909l-0.491-11.782l-3.928-6.873l-4.418-0.982l-1.473-3.927v-4.418l-8.345-1.473L99.694,111.011z"/>
							<path id="path2176" fill="#FEFEE9" stroke="#646464" stroke-width="0.5" d="M179.711,215.084v-3.927l-6.382-4.418
								l1.473-2.454l-3.928-0.982v-1.963l-4.909-0.491l-3.928-3.436l2.455-0.49l-6.382-3.436l-3.928-18.164l-7.854-1.963
								l-3.436-7.855l-5.891-3.436l-1.963-7.855l4.909-4.909l-1.473-4.909l5.399-1.473l8.345,1.473l1.473-3.928l4.909,3.928
								l-0.491-5.891l4.909-4.909l1.963,3.928l5.891-8.837l7.364,4.909h3.436v3.436l5.4,1.963l1.963,4.419l7.854,4.909l0.982-1.963
								l5.891,2.945l1.473,1.473l-0.49,1.473l4.418,0.982l1.473,1.963l-4.418,1.963l3.927,1.473l1.473,1.963v3.436l-1.473,0.982
								v2.454l2.945,1.473l0.49,1.473l-1.963,1.473l-3.927,2.946l1.473,2.455l-2.455,1.473l-1.473-2.455l-2.945-0.982l-0.49,1.473
								l-3.928-0.491l-1.963,2.455l4.909,4.418l-0.491,3.436l2.945,1.963l-3.436,4.418l-3.436,0.491l-3.436,3.928l-4.909,9.327
								v0.981l1.473,2.455l-2.455,0.982l5.4,3.927H179.711L179.711,215.084z"/>
							<path id="path3151" fill="#FEFEE9" stroke="#646464" stroke-width="0.5" d="M211.13,163.538v-3.436l-4.418-3.928l4.418-0.491
								l-2.946-2.946h-3.436l-1.473-4.418l3.436-2.946v3.436l2.455,1.963l4.418-3.927l0.491-6.382l6.381-5.4l-0.49-1.963
								l-4.418-0.49v-3.436l-1.963,1.473l-4.909-6.872h-3.928l1.473-8.837h6.873l0.982,1.963l-0.491,2.454l2.945,2.946l0.982-1.963
								l2.455-0.982v-2.454l-2.455-0.491l-0.49-4.418l5.4-3.928h4.418v-2.455l-1.473-0.982l-0.491-3.928l-1.473,0.491l-0.982,1.963
								l-0.982,1.473l-1.964-0.982l1.964-3.436l-0.983-1.963l-0.982-1.963V93.83h1.964l2.945-3.436l0.982-2.455l-0.491-2.946
								l1.473-1.473h4.418l2.945,2.455l-1.963,1.963l-0.49,2.455l-0.491,0.982l1.473,2.946l1.963-1.473h5.401l1.473,4.418
								l4.909,8.345l-1.964,0.982v2.946l2.946,0.982l2.455,7.364h4.909l-4.909,4.418l4.909,1.473l3.436,1.473v1.473l-2.454,2.455
								l-4.418,3.927l0.49,5.401l-2.455,3.436l1.963,3.436l1.963,3.436l-2.945,2.946v2.946l2.455,0.491l-0.982,3.927l4.418,3.436
								v12.764l-2.455,4.909l-0.49,7.855l-0.982,4.418l-1.473,1.473l-0.49,5.401l-2.455-1.473l-3.436-1.963v2.945l1.964,1.473
								l-4.418,3.436l-1.963-0.491v-1.963l-0.982,0.982l-3.928-0.491v-2.455l1.963-0.981l-1.963-0.491v-2.455l1.473-3.928
								l-5.891-1.473l3.436-1.473l-1.963-2.945v-1.963l-4.418-3.927h-3.436l-0.982,2.455l-1.473-3.928l-5.891-2.945l-1.963-5.401
								l-2.455-2.455v-3.929H211.13z"/>
							<path id="path2177" fill="#FEFEE9" stroke="#646464" stroke-width="0.5" d="M170.875,222.938l8.345,2.946l3.928-1.963
								l0.982-3.436l-3.928-5.4l11.291,0.49l-4.418-4.418l3.436-0.491l-2.454-3.928l6.872-10.8l2.455-2.946l2.455,0.982l3.927-5.4
								l-3.436-1.963l0.491-4.418l-4.418-3.436l1.473-2.454l3.928-1.473l3.927,0.982l0.491,3.927l3.927-1.963l-2.455-3.436
								l5.891-3.436l3.928,5.4l3.436,2.455l1.963,4.418l1.473-2.946h2.945l3.928,3.436v1.963l2.455,2.455l-4.909,2.454l7.364,1.473
								l-1.473,1.473v4.418l0.982,0.982l-1.473,0.491v2.455l3.927,0.491l1.963-1.963v2.454l1.473,0.982v7.855l2.455,5.4l0.491,3.436
								l-3.436,4.909l-2.455-0.491l-3.436,2.946l-0.49,4.418l-3.436,4.909l-2.946,3.436v2.455l1.473,2.455l1.963,0.49l-2.455,1.473
								l-0.982,2.946l-0.982-1.963l-5.401-0.491l-4.418,1.473l-0.982,2.455h-2.455l-0.982-1.963l-7.364-1.473l-1.963-2.454
								l-1.473-0.49l-1.473,1.963l-2.455-1.473l-1.473-0.49l-0.982,1.963l-3.927-0.49l-1.473-4.909h-1.963l-1.473-1.473l-5.4-0.492
								l-1.963,2.455l-2.946-2.455v-1.473l-3.927-5.4h-1.473l-1.963-2.454l-0.982-2.455L170.875,222.938z"/>
							<path id="path3152" fill="#FEFEE9" stroke="#646464" stroke-width="0.5" d="M145.839,272.521l-0.491-8.837l0.982-0.982
								l0.491-10.8l-2.946-2.946h-2.454l-0.982,1.963h-1.963l-1.963-3.928v-2.454l1.473-0.49l0.491-7.364l-2.945-0.49l1.473-0.982
								l-1.963-3.927l2.455-2.455l-0.491-3.436l0.981-6.872l5.891-1.963l1.963,0.49l4.418,3.436l5.4-0.981l2.454,3.436l6.873-0.982
								l5.399,1.963l-1.963,3.927l2.455,3.928l2.455,1.963l3.436,4.909l-0.49,1.473l4.418,2.946v1.963l-2.945,2.455l-1.963,0.982
								l1.963,2.946l-2.946,0.981l0.982,1.963l-2.945-1.473l-2.455,6.872h-1.963v3.928l1.473,1.473l-0.491,1.963l-2.455-0.49v-1.473
								h-5.399l-0.491-3.436l-3.436-1.473l-0.491,6.872h-1.473l0.491,1.963l2.946,1.963v1.473l-4.418,2.946l-1.473,0.982
								l-2.454-1.963l-2.455,2.946v-1.963h-2.454v1.963l-0.982-1.473h-3.436v-2.946L145.839,272.521z"/>
							<path id="path2179" fill="#FEFEE9" stroke="#646464" stroke-width="0.5" d="M140.929,276.447v-3.436l4.909-0.491
								l-0.982-8.837l1.964-0.491l-0.491-10.309l-2.946-4.909h-0.982l-1.963,2.455l-2.455,0.491l-2.454-4.418v-1.963h1.963
								l1.473-7.855h-5.4l2.946-0.982l-2.946-3.928l1.964-2.454l-3.928-0.49h-1.963l-6.382-3.928l-1.473,3.436l-3.436,2.455h-0.982
								l-2.455-2.946l-2.454,1.473l-5.891-3.436l-3.436-0.981l-0.982,1.963l-9.327-0.491l-2.454,4.909h-2.455v-2.946l-1.473-1.473
								l-1.473,1.963l-1.963-2.455h-2.945l-2.454-1.963l-0.982,1.963l-3.436,1.473l0,0l-0.491,3.928l3.928,1.963v1.473l-3.436,1.473
								v6.872l0.982,1.473l-2.454-0.491l-0.491,4.418l2.455,1.963l-1.963,2.454l-2.455,1.473v2.946l-2.455,0.49v1.963h3.436
								l2.945,2.946l0.491,5.401h1.473v-1.964l0.491-1.963h1.963l3.436,3.436v1.963l-3.436,5.891l-2.455,0.981l-3.928,0.492
								L70.73,278.9l-4.418-0.981l-1.473,2.945l3.436,1.964l1.963-0.982h5.891l-1.964,2.945l2.454,0.981l4.909,0.492l1.473,2.946
								l-2.454,0.492l-2.455-0.982h-1.963l-0.491,1.473l3.436,0.982l2.945,1.473l0.491,1.473l2.454,1.473l5.401,1.473v3.436
								l2.454,0.981l2.945-3.927l2.455,3.436l-0.491,5.401l1.964,1.963l0.491-0.981h2.455l2.945-1.473l6.872-4.909h1.963
								l0.491,1.963l3.436-0.491l0,0l2.454,2.945l0.982-0.982h3.436l2.945,3.436l0.491-0.982l2.945-0.49l1.473,1.963v4.909
								l2.455,1.964l2.454,0.491l5.4,0.49v2.945l0.982,0.982h1.964l0.491-1.473v1.963h2.945l0.982,2.946l1.963-2.455l1.473,0.491
								l3.436-2.946v-4.909l-1.473-0.982v-3.436l3.928-5.891l1.473-2.454l-0.491-4.418l0.982-3.927l-2.455,1.963l-5.4,0.492
								l0.491-4.418l-3.436-5.891h-0.982l-3.928,3.928l-1.473-0.49l-4.418,3.928l-0.491-10.8l-1.963-0.982L140.929,276.447z"/>
							<path id="path2180" fill="#FEFEE9" stroke="#646464" stroke-width="0.5" d="M82.02,293.629l-2.945-2.455l-3.436-0.982
								l0.491-1.963l6.872,1.473l-1.473-2.946h-4.418l-4.418-1.963l2.455-2.945l-4.418-0.982l-1.963,1.964l-3.928-1.964l0.982-3.436
								l3.928,1.473l0.982-1.963l5.4,0.491l1.473-1.963l3.928-6.382l-4.909-4.909l-1.473,4.419l-2.946,0.49l0.982-4.909
								l-2.945-3.436l-2.945-0.491l-1.473,3.436l-5.891-0.492l-0.982,3.928h-1.473l-0.491,1.963h3.436v2.455l-1.963,2.946
								l-0.982-2.946l0,0l-2.455,2.455l-0.982-2.455l-2.946-1.963l-1.473,2.945l1.473-4.909l-4.909-3.436l0.491-2.946l-3.436-0.49
								l-0.491,1.473h-3.928l-3.928,2.454l-0.491,2.455l2.454,2.455l0.982,6.872l-8.836,5.891l0.982,3.927l-2.946-0.491
								l-1.473,1.473l-0.491,3.928l-0.491,3.436l-0.491,2.455l-2.455-0.491l-2.454,1.473l1.473,1.473l2.455,1.965l-0.491,1.963
								l5.401,3.436l-0.491,2.946l2.946,2.946l-1.473,4.418l1.963,3.927l2.454,2.945h3.436l2.946,2.946l1.963,2.455l3.436-0.491
								l12.273,3.928h4.909v-2.455h-0.491l-2.455-3.928v-6.872l-2.454-2.946v-4.418l5.891-2.945l3.928-0.491l0,0l5.399-3.436
								l-0.491-3.927h10.309L83,300.505l-1.963-1.473l-1.963,0.982l-3.436-1.963L82.02,293.629z"/>
						</g>
						<path id="path2184" fill="#FEFEE9" stroke="#646464" stroke-width="0.5" d="M140.438,291.175l-0.491-10.31l-1.963-1.473
							l3.928-3.436h2.945l1.473,3.436l0.491-3.436h1.473v2.945l3.436-4.418l2.454,2.454l5.891-4.909l-4.909-4.909l2.455,0.981
							l0.491-7.364l2.945,1.473l0.491,2.945l5.4,0.49v1.963h3.927l-0.491-2.945l-2.454-1.473v-2.946l2.454,0.491l2.945-7.855
							l3.436,1.963l-1.473-2.946h3.436l-2.455-3.436l4.909-2.946l0.49-3.436l-1.963-0.491l1.963-1.963l5.401,0.982l3.436,1.963
							l0.982,4.418l4.418,0.982l0.982-2.455l4.418,2.455l1.473-2.946l3.927,3.928l5.891,0.982l2.455,2.454h1.963l1.473-3.436
							l8.346-0.982l1.473,2.455l1.473,0.491l-1.473,3.928h1.963l0.982,3.436l-1.963,2.945l1.963,1.473l-0.982,2.455l1.963,2.946
							l0.491,3.436l-2.455,0.49v4.418l3.928,4.418h3.436l1.473,2.455l-0.982,1.473h-6.873l-0.982,1.473v2.946h-0.982v3.436
							l-4.909,6.872l-3.436-3.436l-2.455,1.473l-1.963-1.963v2.455l-1.963,1.963l-0.49,3.928l1.963,0.982l-0.982,2.454l0.49,0.982
							l2.945-0.49l2.946,2.454l-1.964,2.455l3.436,1.963l-1.963,2.454h-2.945l-0.491,1.963l-2.945-0.982l-1.963-2.945l-0.49,2.454
							h-2.946l-1.473-1.963l-3.927,1.963l-3.436,0.492l-3.928-2.455l-9.818,0.49v-2.455l-2.454-3.436h-1.473l-2.945-2.946
							l-3.928-0.491l-1.963,1.473l0.982,3.928l-0.491,1.473l-5.399-4.418v-1.963l1.964-1.473l-0.982-2.455l-2.946,2.455
							l-1.473-1.473l-2.455,5.401l-3.436-6.872l2.454-2.946l-0.491-7.364l-2.455,2.454l-4.909-0.491l0.491-2.454l-4.418-7.364
							l-3.436,3.928l-1.473-1.963L140.438,291.175z"/>
					</g>
					<path id="path3179" fill="#FEFEE9" stroke="#646464" stroke-width="0.5" d="M127.675,379.047v-2.454l4.909-0.491l-0.981-2.455
						l-6.382-0.982l1.963-1.963l-1.963-0.981l2.945-1.473l-1.963-2.946l7.855-2.946l-2.454-3.928v-2.946l-4.909,0.49l-1.963-4.909
						l6.382-4.418l-0.982-15.709l4.909-3.436l-3.436-3.436h-2.945l4.418-2.945l4.909,0.982l1.963-3.928l-0.491-1.963h3.436
						l-0.491,2.455l2.945,2.454l3.928,0.491l3.436,0.49l4.418-2.946l0.491-5.399h-1.964v-4.418l3.928-4.909l3.436,5.891l1.963-4.909
						l1.963,0.982l2.946-2.946l1.473,1.963l-2.945,3.436l5.891,4.418l0.491-1.963l-1.963-2.455l2.454-2.454l4.418,0.981l2.945,2.455
						l2.945,2.455l1.473,3.436l1.473,1.473l-8.346,11.29l-4.909,5.891l2.946,1.473l0.982,2.946l2.455,1.473l0.491,9.327
						l-3.928,3.928v2.454l-2.454-0.49l-4.418,8.837l-3.436,1.963h-2.946l-1.473,3.436l-4.418,3.436l-8.837,1.963l-1.963-1.963
						l-1.473-0.491l-1.964,3.436v3.436l-5.891-0.491l-4.909-1.473l-1.964,2.455L127.675,379.047z"/>
				</g>
			</g>
			<path id="path4248" fill="#FEFEE9" stroke="#646464" stroke-width="0.5" d="M181.675,348.12v-7.364l-2.455-1.963v-1.963
				l-3.436-2.945l13.255-16.201l-0.982-1.963h8.836l3.436,2.946h3.436l4.418-2.455l3.927,1.963l0.982-3.436l1.963,3.928l3.436,0.982
				v-2.455h2.455l2.454-1.963l-3.927-2.454l1.964-1.963l-3.436-2.945l-2.946,0.49l-0.982-0.49l2.455-2.455l-2.455-1.473l1.473-5.4
				v-3.436l2.455,2.454l2.945-0.981l2.946,2.945l6.382-6.872l-0.981-2.945l0.981-4.909l5.891,0.491l1.963,2.455l1.473,1.473
				l0.982-1.964h1.473l2.454,2.455l1.473,0.49l0.49,2.945l-2.946,0.491l-0.491,1.473l2.946,2.454v7.364L245,308.85h-2.945
				l2.455,2.945l0.49,3.436l-2.455,1.473l-0.491,2.946l-1.963-0.492l-2.454,2.946l2.454,3.436v3.927l-3.436,2.455l-1.473,2.455
				l6.872,7.364l-2.945,2.946l0.491,1.963l3.436,2.455l2.455,3.928l-0.982,14.236l1.473,1.963l-1.473,1.473v1.963l1.473,0.491
				l1.963,1.963v1.473l1.473,1.473l-0.49,5.891l-3.436,6.872l-6.382,2.455h-3.436l-3.927-4.909l-5.891-4.418h-4.418l-6.382-5.4
				l-4.909-0.982l-0.491-2.455l2.455-0.981l0.49-3.436l-1.963-0.982l1.473-0.982v-1.963l-1.963-2.455l-1.473,0.982l-4.418,0.982
				l-1.473-0.982v-3.436l1.963-0.981c0,0,0-2.946-1.963-2.946c-1.963,0-2.455,0-2.455,0l-1.473,2.455h-0.983l-0.982-2.946v-3.928
				l-4.418-2.946l-3.927-0.982L181.675,348.12z"/>
		</g>
		<path id="path5240" fill="#FEFEE9" stroke="#646464" stroke-width="0.5" d="M347.378,925.896v-8.601l4.99-8.601l6.239,6.144
			l24.955-4.915l12.478-9.83l2.496-9.829l7.486,2.458l11.23-6.145l7.486-22.114l7.485,3.687l1.248-9.83l9.982-9.829l26.203,6.145
			l8.734,3.687v12.287l3.743,7.372l8.734-4.915l7.487,2.457l-4.992,3.687v9.828l4.992,3.687h11.229l4.992-6.144l4.99,8.601
			l-7.485,6.144h6.238v7.372l-7.487,3.687l2.495,8.601l11.23,1.229l16.221,13.516l11.229-1.228l16.221,13.515l8.733,12.287
			l-12.478,2.457v7.374l-4.991,1.227l1.249,11.061l6.238,7.37l9.982-2.455l4.992,14.743h-4.992l-9.982-11.058l3.744,14.744
			l14.974,2.457l11.229,7.372l-11.229,3.687l-6.24,3.686l-14.973-1.229l-14.973-6.143l-17.469,4.915l-11.23,4.914l-29.947-18.43
			l-4.992-12.287l-14.973-15.972h-6.238l4.99,12.286l-6.239,7.372l-13.725-2.458l-8.734-12.286l-12.479-13.515l-4.99-2.459h-17.467
			l-7.486-4.915H384.81l-7.486-1.228l-9.982,8.602v-6.145l-9.982-3.687l-4.99-9.829l2.496-15.973L347.378,925.896L347.378,925.896z"
			/>
		<path id="path4161" fill="none" stroke="#000000" d="M581.961,1042.616L581.961,1042.616z"/>
		<g id="g7076" transform="matrix(2.5417852,0,0,2.5027642,-20.817184,-25.22581)">
			<path id="path3188" fill="#FEFEE9" stroke="#646464" stroke-width="0.5" d="M104.602,370.702h5.4l4.909,4.418l6.872,3.927
				l5.401,0.491l5.399,0.982l1.964-3.436l3.928,2.454h6.382l2.946,5.4l-0.981,4.418l1.473,4.419l1.963,0.49l2.455,0.491v2.946
				l4.418,1.963l1.473,3.927l1.963-2.454l2.454,1.473l2.946,3.436l6.873-0.49l-4.909-4.418l5.891-1.473l5.4,3.928l-3.928,1.473
				l0.491,2.946l4.418,3.436l2.946,1.963l2.945-0.491l1.963,0.981l-0.491,4.418l-0.491,6.872l-3.436,3.927l0.982,2.455h-3.436
				l-5.891-3.928l-1.473-0.49l-0.982,2.946h-4.418l-2.455,3.436l-2.946-0.982l-3.928,3.436l-0.491-4.418h-2.946l0.491-2.946
				l-3.436-0.982l-0.491,1.963l2.454,3.436l-3.436,0.982l-0.288,3.323l-3.64,1.587v-6.382l-0.491-4.418l-1.964-2.454l-1.963,1.473
				l-2.455,3.436l-2.454-5.891l-3.928-0.982l2.454-2.946l-4.418-0.981l-3.436-2.455l1.963-1.963v-1.963l-2.946,0.49l-1.963-1.473
				l3.436-1.964l-1.473-3.927l-1.963-2.455l-3.436,1.963l-1.473-4.909l-1.473-1.963h-1.473v3.927l-5.4-5.891h2.945l1.963-0.982
				l-2.945-2.946l-2.454,0.492l-1.473,0.981l-0.491-2.945l3.436-0.982l-4.418-2.454l2.946-1.473l-5.891-4.418L104.602,370.702z"/>
			<path id="path4163" fill="#FEFEE9" stroke="#646464" stroke-width="0.5" d="M187.075,420.284v-6.382l-2.455-1.963l2.946-1.473
				l6.873,0.491l3.927,0.491l2.455,2.946v3.436l0.982,3.436l7.364,4.418l-1.963-5.4l3.927-0.491l0.982,2.454l2.455,1.473
				l6.873-4.418l2.455,1.473l-0.49,2.455l2.454,2.946v-3.927l10.8-0.491l5.399,0.981l3.436,4.418l0.491,5.4l-4.418-3.436
				l-3.436-4.418h-11.782l-0.491,1.963h9.818l4.909,3.436l6.382,4.909l2.454,1.963l1.963,0.982l-2.454,0.982l-0.491,2.454h-4.909
				l-0.491,2.455l-3.436-0.982v6.872l3.927,2.455l-0.982,2.454h-3.436l-0.982-2.454l-0.982,2.454l-4.909-0.491l-0.982-5.891
				l-5.891,5.4h-2.454l-0.982-4.418h-1.963l-0.982,1.963l-4.909-2.454l-0.982,1.963l2.945,1.963l-2.945,1.473l-1.963-0.491v-2.455
				l-3.927-0.491l-1.963-5.399l-4.909-3.436l-0.49-2.946l-6.873-0.491l-0.982,1.473l-5.891-5.399l-0.982-2.946l-1.473-2.946
				l3.436-3.436v-4.905H187.075z"/>
			<path id="path5134" fill="#FEFEE9" stroke="#646464" stroke-width="0.5" d="M111.966,397.702l5.891,6.382l0.491-4.909
				l2.945,2.945v2.946l1.473,1.963l2.945-2.946l3.436,5.4l-4.418,2.946l2.945,2.455l2.946-0.982l0.982,1.963l-3.436,1.473v0.981
				l-0.491,2.946l-2.454-1.473l-1.963,2.946l0.491,4.418l-4.418,0.49l0.123,9.327l-4.05,4.295l-3.805,0.614l-2.577,1.963
				l-1.963-0.491l-6.382,5.4l-0.982,1.473l-7.118,0.37l0.737-5.277l-3.436-0.982l-0.982-1.963l2.455-1.473l0.982-3.436l-2.455-0.982
				l0.491-5.4l2.454-2.455l-3.436-4.909l2.454,0.982l2.945-2.946v-0.982l-1.473-1.473l0.491-5.4l-0.982-0.982l2.945-1.473
				l2.455,0.982v2.945l1.694-2.165l2.969-0.167l5.154-5.523l3.191-0.368l1.104-2.946l-0.859-4.05L111.966,397.702z"/>
			<path id="path6105" fill="#FEFEE9" stroke="#646464" stroke-width="0.5" d="M98.711,450.23l8.345-6.382l2.454,0.49l1.964-2.454
				l4.1-0.898l3.407-4.072l0.347-9.268l3.898-0.551l-0.953-4.358l2.946-2.454l2.454,1.963l1.011-4.449l2.425,2.484l5.664,0.49
				l-3.209,2.947l3.928,1.473l1.042,2.281l2.886,3.61l0.982-2.455l2.454-2.454l1.964,2.454l0.551,11.146l-0.06,6.526l-1.473,5.401
				l-1.267,1.707l-3.15,0.747v1.473l1.963,1.473l-0.491,2.455l-5.399-0.982l-2.945,0.982l2.298,0.562l1.629,3.365l-0.491,6.872
				l-2.454,0.982l2.859,1.644l1.069,2.284l-5.286,4.13l-4.532,0.174l-0.491,4.531h-3.436l-2.8-2.222l-3.09,1.24h-4.418l-1.473-1.473
				v-5.891l1.473-4.418l2.945,0.981l-0.377-3.262l1.156-2.916l-1.269-1.299l-2.454-0.378l2.137,2.108l-3.61,2.802l-1.963-1.963
				l0.491-1.963l-1.706-1.587l-3.718-1.864l-6.357-4.894l1.473-3.436L98.711,450.23z"/>
		</g>
		<path id="path7082" fill="#FEFEE9" stroke="#646464" stroke-width="0.5" d="M270.015,1181.451l14.973,3.686l7.486-4.914
			l4.99,6.145l9.982,1.228l1.248-13.515l8.734,1.228l16.22-9.83l-1.248-6.144l-9.982-6.145l4.99-2.455l2.496-17.201l-3.744-6.145
			l-6.239-3.687l7.486-3.687l14.974,6.145l1.249-6.145l-4.991-6.143l-1.248-3.687h7.486l9.982-17.202l-1.247-19.657l8.733-3.687
			l3.744-8.602h6.239v-4.915l-6.239-7.371l1.247-4.915l7.487,3.686v6.144l7.486,2.456l1.249,7.374h4.991l4.99-7.374l8.733,3.688
			l6.239-8.602h11.229l3.744-7.373l14.973,10.475l9.982,1.813l1.249,4.915l17.47,14.745l1.248,7.371l-2.496,3.687h-3.743
			l-2.495,4.914l3.743,3.688l1.249,4.914l-3.744,1.229v7.371l4.99,2.457l-1.247,2.457h-6.239l-6.239,9.829l1.248,13.518
			l-1.248,13.515l-3.744,6.144l-4.991,4.915l-6.239-1.229l-7.486,14.745l-1.248,8.601l4.991,1.228l-4.991,3.687v6.144l-6.24,6.144
			l-4.99-4.915l-2.495,3.687l3.743,9.829l-8.734,3.687l-21.212,3.687l-6.239-14.745h-9.982l-4.992-11.059l7.486-4.914l-12.479-4.916
			l-4.99-3.687l-3.744,3.687l7.486,9.829h-12.479l-9.982,4.915l7.486,7.373l7.486,3.687l-9.982,1.228l-16.22-4.915l-3.744,1.229
			l7.486,4.914l-3.744,8.601l-3.744,6.144l-1.248,6.144h-21.212l-12.478-6.144v8.602l-12.478-1.229l-2.496-6.143l-9.982-1.229
			l-6.239-3.687v-6.144l-7.486-4.915v-6.143l2.496-4.914l9.982-2.458l-1.249-6.144L270.015,1181.451L270.015,1181.451z"/>
		<path id="path8053" fill="#FEFEE9" stroke="#646464" stroke-width="0.5" d="M434.724,1186.367l-6.24-3.687v-6.145l8.735-14.743
			l6.238,1.228l9.982-12.287v-14.743l-1.248-12.288l3.743-9.83h8.735l2.495-3.687l-6.239-1.228v-8.601h3.744v-4.916l-4.992-4.916
			l1.248-4.914l6.239,2.457l2.494-4.915l-1.248-7.372l1.248-3.687l16.221,1.229l2.495,6.144l12.478,9.829l3.744,12.288l4.99,6.144
			v8.601l4.992,6.143l4.99,2.457v4.916h-6.239l-4.99,3.686l1.248,3.687h18.717l9.982,6.144l2.495,8.6h3.744v13.516l8.733,13.518
			l2.496,7.372l-11.229-7.372l-4.991,4.914l6.238,2.458v15.971h-14.973l-6.238,11.06l-6.239,2.458l-8.734-11.059l-4.99,2.457
			l-7.487,9.828l-4.991,2.458h-2.495l-6.239-7.372l-3.743,1.228l-7.487-8.6h-1.248l-2.496,2.457h-6.238l-6.239-4.916l-1.247-7.372
			l-7.486,1.228L434.724,1186.367L434.724,1186.367z"/>
		<path id="path2204" fill="#FEFEE9" stroke="#646464" stroke-width="0.5" d="M321.174,1228.14l9.982-17.201l-9.982-8.601h7.486
			l12.479,6.145h13.725l-16.221-12.289l6.239-4.914l17.468,1.228l-8.734-9.828l3.744-6.144l2.496,4.915l14.973,4.915l-6.239,4.915
			l3.744,9.828l11.23,1.229l4.991,14.744l14.973-2.458l16.221-3.687l-4.99-9.829l1.247-4.915l6.239,4.915l7.486-6.143l-2.495-7.373
			l4.99-2.457l16.22,11.059l6.24-1.228l1.247,6.143l7.487,7.372l6.239,1.229l3.743-4.915l6.239,8.602l11.229,3.687l-3.743,6.143
			l6.238,3.687l-3.743,3.687l1.248,14.744l-3.743,4.916l2.495,11.058l-11.229,1.229v3.687l6.239,2.456l1.247,4.915l-3.743,1.229
			l1.248,8.602l11.23-7.373h3.743l-1.248,12.287l7.487,2.458v2.457h11.229l2.496,3.686l-2.496,8.601l7.486,12.288
			c0,0,6.239,8.601,1.249,8.601c-4.992,0-7.487,0-7.487,0l-8.734-2.457l-3.743-3.686l-6.239-14.746l-3.743-3.686l-8.735,6.144
			l2.495,8.601l-7.486,11.059l-16.22,7.372l-1.249,6.144l4.991,6.143l-1.248,15.975l-1.249,4.914l-13.725-6.143v-6.145l-4.991-1.228
			l-1.249,3.687l-11.229,9.829l-7.486-1.229l-11.23,6.144h-7.486l0,0l-8.733-6.144l-1.248,1.229l-4.99-3.687l-1.249-6.144
			l7.487-1.229l-8.734-11.058l7.486,1.227l1.248-3.686l-4.991-8.6l-9.982-6.145l-1.248,7.372h-19.341l-8.111-6.144l-6.239-3.686l0,0
			l4.99,11.672l-4.99,4.915l-18.716-2.458l-4.992-5.527l-6.239,3.687h-4.99l3.744-7.372l-14.974-6.144l2.496-22.115l7.486-2.458
			l-3.744-6.143v-6.144l-4.991-3.687l9.982-15.975l12.478-4.914l-1.248-9.828l12.478-8.601l4.99,3.687l3.744-7.374l-4.99-2.456
			l-1.248-6.143l-11.23,8.601l-6.239-3.687L321.174,1228.14L321.174,1228.14z"/>
		<path id="path2205" fill="#FEFEE9" stroke="#646464" stroke-width="0.5" d="M490.872,1228.14l-6.238-8.601l9.982-1.228l9.983-9.83
			l3.743-3.687l7.485,11.059l8.735-3.686l6.239-8.601h13.725l3.744,9.828h9.983l1.247,2.457l-8.734,9.828l3.744,7.373h13.727
			l6.238,7.373v4.915l-3.743,6.143l3.743,1.229l8.734-6.144l9.982,1.229l-1.248,8.6l-3.743,8.601l-4.992,9.83h-6.239l-9.981-2.458
			l16.221,13.516l4.992,7.372l4.991,12.288l13.725,8.602v6.143l-3.743,1.229l-11.229,2.457l-28.697-11.059l-9.982,11.059
			l-16.221-8.602l-4.991,7.373h-3.744l-13.725-15.974l4.99-7.372l-3.744-7.371l-12.478-1.229l-6.238-6.145l2.495-9.829l-4.991-1.229
			l-11.23,11.059l2.495-9.829l-1.247-7.373l-7.486-2.456l13.725-2.456l-2.495-11.06l4.991-4.915L490.872,1228.14L490.872,1228.14z"
			/>
		<path id="path2206" fill="#FEFEE9" stroke="#646464" stroke-width="0.5" d="M347.378,1325.201l8.734,11.058l-6.239,7.372
			l-7.487-4.915l-9.982,1.229l-4.99-4.915l-11.23,6.143l2.495,9.828l7.486,8.602l3.744-6.144l4.99,2.457l-1.248,6.145l4.99,2.457
			l-1.249,7.371l-7.486,7.373l4.99,4.916l-4.99,1.228l-1.248,11.059l-7.486-3.687l2.496,11.059l9.982,13.516l-11.23,20.887
			l12.479,8.6l-2.496,7.372l-2.495,9.83l11.23,8.602l-2.495,11.057l7.486,12.287l1.248,13.518l4.99,3.686l-11.23,3.687l1.248,7.371
			l4.99,3.687l-4.99,20.888l12.478,1.228l2.495,9.829l-9.982-2.457v6.144l7.486,8.601l7.486,1.229v11.058l8.734,7.373l1.248,15.972
			l11.23-2.457l-8.734,12.29h-11.23l-1.249,9.828l3.744,12.286l11.23,19.659l-3.744,2.456l-1.249,29.486l8.734,11.059l1.249,15.973
			l1.248,8.602l14.974,7.372l11.229-4.915l7.486,14.743l-2.495,6.145l7.485,7.372l-4.99,11.059l-11.229,12.287l14.973,6.144
			l14.973-3.687l-2.495-6.144h8.734l1.248-7.372l-6.238-3.686l4.991-7.374v-24.57l-4.991-2.458l10.606-8.6l8.11-23.344l7.487-7.372
			l-3.743-11.06l-9.982-18.431l-9.982-19.657l-3.744-8.602l8.735-8.6h-21.212l12.478-17.201l6.239-13.516l4.991-30.715
			l-12.478-19.657v-6.146l7.486-6.143l-12.478-8.601l1.248-23.344l11.229-6.143l-11.229-20.886l1.248-28.259l7.486-8.6l6.238,11.059
			l7.486-9.829l-2.494-6.144l-7.487-1.229l-4.99-4.915l4.99-9.829l2.495,4.914l6.24,2.458l2.495-8.602l6.238-3.686l-1.248-6.145
			l-11.229-18.43l-12.479-6.144l-6.238-11.059l-2.495-3.687l-9.982,7.371l-8.734,1.229l-7.486-7.372l-3.743,2.458l-4.991-11.06
			l7.487-2.457l-11.23-11.059l9.982,2.457l-4.99-14.744l-7.486-4.914l-1.248,8.602h-19.965L347.378,1325.201L347.378,1325.201z"/>
		<path id="path2208" fill="#FEFEE9" stroke="#646464" stroke-width="0.5" d="M368.591,1685.188l-11.23,4.915l2.496,9.83
			l7.486,11.058l-6.239,20.886l1.248,7.373l9.982,2.456l11.23,15.973l9.982,1.229l3.743-7.373l-1.248-7.372l-4.991-6.143
			l-8.734-1.229l-8.734-7.371l1.248-20.888L368.591,1685.188L368.591,1685.188z"/>
		<path id="path3186" fill="#FEFEE9" stroke="#646464" stroke-width="0.5" d="M459.055,1413.048l-4.366,1.843l-1.872,9.215
			l-6.238-3.071l-2.495-6.758l-6.862,11.059l4.991,5.529l8.112,0.613l3.118,7.374l-7.486,9.828l-6.238-10.443l-8.11,7.372
			l-0.625,26.416l11.853,23.342l-11.853,6.145l-1.248,22.729l11.854,9.216l-6.862,4.299l-0.624,6.759l13.102,20.886l-5.615,29.486
			l-17.469,31.33l20.589-0.613l-8.112,8.6l21.837,46.073l4.99,12.289l8.111,2.456l0.625,7.986l-13.104,2.457l-9.982,16.588
			l5.617,4.914l3.743,11.059h5.615l1.871,9.829l3.744,12.288l15.6,1.229l9.356-14.13l4.992-3.072l4.991-9.215l-2.494-5.528
			l-3.121-7.373l-11.853-7.373l9.356-4.915l16.846-17.2l1.248-13.518l0.624-15.357h4.991l8.734-31.943l0.624-25.188l-5.616-23.343
			l16.846-16.587l3.743-7.988l5.615-1.228l7.487-12.287v-15.358l-11.229-32.559l-6.239-3.072v-14.743l-8.734-18.431l-2.494-20.886
			l4.99-11.674l9.982-9.829l6.24-21.499l4.991-4.302l4.367,3.072l9.356-9.216l4.368-8.601l-1.873-9.829l-3.743-3.687v-7.985
			l13.103-0.616l8.111-6.758l4.989-25.801l-28.696-9.828l-12.478,11.058l-14.35-8.601l-6.239,7.987l-6.238,3.687l-14.351-1.843
			l-5.614-3.687l-9.983-19.043l-9.359,3.686l3.122,9.83l-9.359,11.059l-15.597,7.372l-1.871,4.914l4.99,5.53l-1.249,23.957
			l-14.348-6.757l1.247-6.145l-5.614-2.458l-0.625,4.302l-11.229,9.829l-8.111-1.228l8.734,14.743l12.478,5.529l9.358,15.973
			L459.055,1413.048L459.055,1413.048z"/>
		<path id="path4157" fill="#FEFEE9" stroke="#646464" d="M447.201,1736.792l-2.494,22.114l13.725,8.602l3.743-13.517
			L447.201,1736.792L447.201,1736.792z"/>
		<path id="path5128" fill="#FEFEE9" stroke="#646464" stroke-width="0.5" d="M506.248,1102.33l7.941,1.738l0.881,6.081l5.296,2.605
			l7.94-4.344l-8.822-5.215l3.529-4.344l13.233,5.214l1.765-5.214l4.412,0.869l2.646,10.426l7.059,0.868l14.115-13.898l2.647,14.768
			l12.352,1.738l2.647-6.949l3.529,6.08l7.941,0.869l3.529-6.08l-10.587-5.214v-19.982l8.822,3.475l1.765-6.078h12.352l0.883-6.082
			h2.646l7.059,1.739l2.646,6.95l25.588,5.213l8.823,10.425h7.059l4.411,10.426l27.351,4.344l15.882,11.295l7.941,13.9l0.881,16.507
			h-7.058l-0.881,13.031l-7.06,6.08l9.706,6.08l-4.41,11.295l-5.296,16.507l-6.176-2.605l-9.705-6.081l-4.412,12.163l-4.411-0.87
			l-0.881-6.078h-5.296l-6.175-9.557l-7.941-0.869l6.176,7.818l-7.058,0.869l-9.707,6.081l-0.881-9.556h-7.94l-5.296,4.344
			l-4.41-6.95l-7.941-0.868l-14.998,14.768l-20.294,0.87l-1.764,5.214l7.94,4.344l-0.882,4.345l-2.647,4.346l-11.472,9.556h-8.822
			l-4.41-5.214h-13.234l-4.411-7.82l8.823-9.554l-11.471-2.606l-2.647-9.556v-16.507l-6.177-4.346l5.295-5.213l14.116,10.425
			l-5.293-9.556l-9.706-14.77l0.882-12.163h-2.646l-4.411-7.818l-7.059-6.081l-21.175-0.869l-0.881-3.476l5.293-4.345h6.176
			l0.883-3.475l-9.706-8.688L506.248,1102.33L506.248,1102.33z"/>
		<path id="path6099" fill="#FEFEE9" stroke="#646464" stroke-width="0.5" d="M606.833,1320.393l0.882-5.214l-12.352-6.949
			l-6.177-15.637l-17.646-17.375l12.352,0.868l7.058-17.375l1.765-9.555l-8.822-3.475l-10.587,7.817l-1.765-1.739l2.646-7.818
			v-4.345h5.295l15.882-10.425l1.765-7.819l-8.822-5.213l1.764-6.08l16.764,0.869l16.763-13.9l7.941,0.87l6.177,5.212l5.295-4.345
			l6.176,0.869l1.765,9.556l7.94-5.212l9.705-0.87l-5.293-9.555l5.293,0.868l7.059,10.426h4.411l2.646,6.949h3.53l3.529,13.03
			l-4.411,14.77l-11.472,6.08c0,0,3.529,7.819,0,7.819s-11.471,0-11.471,0l-5.293,19.113l10.587,6.081l4.411-7.819l6.177-3.476
			l11.471,6.95l4.411,4.345l9.706-8.688l11.471,6.08l-4.412,3.475l-0.881,8.689l11.471,3.475l-4.409,1.738v11.295h-9.708
			l-3.528,7.818l-10.587,4.345v7.818l-3.53,0.87v4.345l-7.059,5.213l-3.529,13.901l-3.529,5.213l-0.882,3.475l-8.821,1.738h-12.354
			l-1.765,9.556h-2.646l-9.705-6.08l-14.117,0.869l-12.353-6.949l-1.765-6.08l7.941-6.95l-13.234-8.688L606.833,1320.393
			L606.833,1320.393z"/>
		<path id="path7070" fill="#FEFEE9" stroke="#646464" stroke-width="0.5" d="M592.717,1324.735l14.118-5.212l-1.767,15.639
			l14.119,5.212l-8.823,8.688l1.765,8.688l12.352,8.689l15.882-5.213l10.588,12.164l1.764,24.324l-12.352,5.213l-7.058,3.477
			l-1.766,12.163h17.648l3.528,3.475v19.113l7.06,17.375l-5.295,8.688l7.059,22.589l-14.117-6.949l-10.588-5.212l-3.528,3.475
			l19.41,13.901v5.211h-5.293l-8.823,10.426v22.589l-10.588,17.375l-3.528,10.425l-1.765,20.849l10.587,15.64l3.529,19.113
			l-14.116,19.113l5.293,12.164l-1.764,22.589l7.059,19.113v10.425h-7.059v10.425l-24.705,15.638l-8.823-6.948l-21.174-1.739
			l-12.353,3.476l22.939,17.375l-5.294,10.426h-19.413l-14.116-3.475l8.821,17.375l-12.352,3.475l-14.117-5.214l5.294-12.163
			l-10.587-15.638v-13.9l-1.765-13.901l3.529-27.799l-3.529-15.639l8.824-24.323l1.763-29.539l-7.058-26.063l21.176-17.375
			l12.352-8.688l3.529-27.8l-14.117-27.8l-5.294-5.212v-12.164l-8.823-17.375l-3.528-22.589l15.882-26.063l7.058-20.851h10.588
			l12.353-13.901v-12.162l-7.06-5.213v-10.425l19.412,1.737l5.295-13.9L592.717,1324.735L592.717,1324.735z"/>
		<path id="path8041" fill="#FEFEE9" stroke="#646464" stroke-width="0.5" d="M559.5,576.966l17.47-18.431l-1.248-11.058
			l8.733-9.829l8.734,1.229l7.487-9.83l-1.249-12.287l-6.238-11.058v-20.887l12.479-8.602l-6.239-3.686v-8.601l13.725,9.829
			l-3.743,19.656l7.485,7.373l-1.247,9.829l8.733,6.143h8.734l6.239-8.6l11.229,2.457l7.486-1.229v18.431l-2.495,2.456l-7.486-4.915
			l-3.744,17.202l-7.488,7.372l3.744,8.601l9.982-1.229l-1.248,6.143l-4.99,6.145l-1.248,9.83l11.23,8.6l-1.249,7.372l-8.734,4.915
			l1.249,4.916h-6.238v6.144l6.238,12.288l1.248,7.371l7.488-1.228l6.238,7.37l-2.495,7.373l8.734,3.687l28.698,7.371l2.495,8.601
			l16.221-13.515l23.706,11.058l-1.247,14.744l-11.23,12.288l-8.733-1.229h-19.966l-11.229,2.457l-18.717,22.113l-6.239-8.6
			l-2.495-3.687l-8.734-3.687v7.372l-9.982,6.144l-4.991-3.687l-3.743,7.373l3.743,7.371l7.486,4.917l-2.495,4.915l-3.743-1.229
			l-4.991,11.059h-6.239v8.601l-7.487,2.457v13.516l-6.238,2.458l-9.982-1.229v-11.059l-7.486-6.144l9.982-1.229l3.743-25.8
			l-9.982-11.06l7.486-1.229l1.249-8.6l-11.23-7.372l-4.992-1.228l-2.494,4.914l-7.487-8.601h3.744l2.495-6.146l-1.249-6.143
			l-8.733,1.229l-9.982-11.059l-1.249-9.828l6.239-1.229l-1.248-11.06l-4.991-6.143l1.249-6.145l-4.992-4.914l4.992-4.915v-11.06
			h-8.735l7.487-8.601l-6.238-3.687l3.743-8.601L559.5,576.966L559.5,576.966z"/>
		<path id="path2215" fill="#FEFEE9" stroke="#646464" stroke-width="0.5" d="M603.174,952.926l9.983-15.972l-1.249-14.745
			l-4.991-11.059l-7.486-2.458v-4.916l3.743-3.686l-3.743-4.916l2.495-14.743l1.248-22.115l-17.469-18.43l8.733-11.06l-17.47-15.972
			l11.23-12.287l2.495-14.745l-8.734-7.372l8.734-6.143l3.743,2.456l6.239-9.83l11.229,3.688l1.248-6.146l4.991-8.6l3.743-6.144
			l2.494-6.144l4.992-3.687l6.239-8.602l6.238,1.229v-4.915l-8.734-7.37l-1.248-6.145l1.248-6.144l3.743,4.915l12.479-7.372
			l1.248-7.373l7.487,3.688l9.982,13.515l14.974-22.114l12.478-4.915l7.486,3.687l1.248,11.059h11.229v20.886l9.982,14.745v6.143
			l-6.238,8.602l-1.249,7.372l8.735,19.657l26.202,15.972l-6.238,2.457l-3.744,8.603l11.229,19.656l1.248,8.601l-3.743,6.145
			l8.733,22.113l8.735,3.687l6.238,2.456l2.495,3.687l-9.983,4.915v11.059l-7.486,2.457l-6.238,4.915l-4.991,13.515l1.247,18.431
			l-8.733,1.229l-4.992-4.915l-1.248,6.145h-3.743l1.248,8.601l-13.725,13.516l-9.983,6.144h-3.744l-11.229-7.372l-7.486,7.372
			h-3.744l-7.486-4.915v8.601l-6.239,6.144l-2.496-9.828l-4.99-2.458l-11.229,12.287l-7.486,2.458l-6.239,6.143l-3.743-7.373
			l-4.991,8.602h-7.486l-7.486-6.144l-2.495,3.687l-4.991-7.372L603.174,952.926L603.174,952.926z"/>
		<path id="path3189" fill="#FEFEE9" stroke="#646464" stroke-width="0.5" d="M601.925,954.154l-19.964,6.144l-12.478,1.229
			l1.248,12.285l11.229,13.518l14.973,13.515l1.249,7.373l4.991,6.143l-1.248,12.288l13.726,18.431l14.973,9.828l14.974,3.688
			l6.238,7.372H638.11l9.983,9.829l6.238-3.687l6.239,12.288l22.461,6.145l7.485-6.145v-13.516l16.222-2.458l11.229-4.915
			l28.699,4.915l-7.487-20.886l12.478-13.516l-24.954-4.914l-8.735-11.06l-6.238-13.516l-8.734-4.914l-6.238-15.974l-12.479-6.145
			l9.982-8.601l-23.707-1.229l-2.495-9.828l-6.238-2.457l-12.479,12.286l-3.743-2.457l-8.735,9.829l-3.742-6.144l-4.991,11.059
			l-7.487-2.457l-6.239-4.915l-3.743,4.915l-4.991-7.371L601.925,954.154L601.925,954.154z"/>
		<path id="path4160" fill="#FEFEE9" stroke="#646464" stroke-width="0.5" d="M683.032,1090.534l6.239-7.373v-12.286l21.21-2.458
			l7.486-4.915l27.452,6.145l-6.238-22.115l12.478-11.06l-21.212-6.143l-6.239-1.228l-12.478-23.344l-9.982-4.916l-3.744-15.972
			l-13.725-8.602l9.982-7.371l-21.211-2.457l1.248-6.144v-7.373l9.982,7.373l11.229-8.601l14.974,7.371l11.229-4.914l7.486,12.287
			l9.983-4.915l9.982-2.458l3.743,6.144l6.239-18.43l11.23,17.201l-9.983,8.601l8.734,2.457l18.716,2.456l1.249,23.344l9.982-2.457
			l6.239,6.144h8.734l6.239-4.914h6.238l1.248,9.828v8.602l-2.494,7.373l11.229,31.943l4.991,4.916l-4.991,2.457l-21.212,9.829
			l8.734,14.744l-3.743,13.517l-11.23-9.831l-3.743,6.146l-3.744,15.972l-8.733-2.457l4.991-14.743l-11.229-6.144l-6.238-7.373
			l-18.718-3.687l-7.487,11.06l-1.248,6.143l-1.248,17.203l-6.239,7.371l-8.733-4.915l-1.249,9.829l-3.743,6.143l-12.478-6.143
			l-1.249-11.058l-3.743-12.288l-9.982-6.143L683.032,1090.534L683.032,1090.534z"/>
		<path id="path5131" fill="#FEFEE9" stroke="#646464" stroke-width="0.5" d="M816.825,1302.147l-17.648,5.214l-10.588,6.95
			L785.06,1323l-12.049-8.986l-9.125-11.863l5.294-10.426l7.058-10.425l-10.587-10.426l-8.823-15.638l-12.352-8.688l-5.295-22.59
			l15.881-12.162l12.354-22.59l10.587-15.638l17.647,1.739l15.882,12.163l7.057,12.163h14.118h12.352l5.295,12.165l1.766,12.162
			l5.293,19.114l-7.058,15.638l-10.373,7.88l6.756,10.513l-22.851,5.933L816.825,1302.147L816.825,1302.147z"/>
		<path id="path6102" fill="#FEFEE9" stroke="#646464" stroke-width="0.5" d="M715.475,1153.193l16.221,1.229l9.982,8.6
			l11.229,4.917l24.956,7.371l-4.992,8.601l-17.469,28.259l-16.22,11.059l3.743,22.114l14.973,11.059l7.487,17.201l12.478,8.602
			l-13.724,18.43l9.982,8.599l3.743,7.374l-6.239,4.915h-13.727l-14.973-3.687l1.248-15.973l1.248-14.743l-6.238-2.458l-3.744,6.145
			h-16.22l-9.982-6.145v-4.915l6.238-2.458l-11.229-7.371l-9.982,8.601l-12.478-9.829h-7.486l-7.486,9.829l-11.23-7.372l7.486-18.43
			l14.973,1.229l-2.495-7.372l11.23-6.146l3.742-15.972l-6.238-11.058l6.238-12.288l17.469,7.372l6.24-25.802l-4.991-9.828
			l6.238-4.915L715.475,1153.193L715.475,1153.193z"/>
		<path id="path7073" fill="#FEFEE9" stroke="#646464" stroke-width="0.5" d="M837.759,1280.971l-9.984,1.442l-6.239,11.538
			l4.991,10.096l13.726-1.443l9.983,11.539l4.99-7.212l-2.495-12.981l-4.99-8.653L837.759,1280.971L837.759,1280.971z"/>
		<path id="path2229" fill="#FEFEE9" stroke="#646464" stroke-width="0.5" d="M712.979,956.612l19.965-17.202l-2.495-9.828h4.99
			v-7.372l7.487,7.372l7.486-1.228l-1.248-20.886l3.743-13.518l17.469-7.371l-2.495-11.059l11.23-4.915l-3.744-3.687l7.486-2.457
			l8.734-1.229l3.744-7.372l7.486,8.601l7.486-1.229l4.992,3.687l3.743-20.886l12.478-1.23l3.744,4.917l14.974,6.143v6.144
			l9.982,9.83h11.229l2.496-3.686h9.982l13.726,8.601l7.485,3.686l-7.485,4.915l1.247,11.06l4.992,9.829l-3.743,8.602l-1.249,7.371
			l7.486,7.372l-13.725,2.458l-4.99-4.917l-3.744,3.687l4.991,2.458l2.495,23.344l-6.238,14.744l-6.239,1.229l3.744,6.145
			l-7.486,12.286l-9.983,7.372l-6.239-4.914l-12.478-14.744l-1.248,6.143l-7.486-1.229l-9.982,20.885l-6.239-4.914l-4.991,3.687
			l-9.982,2.457l-7.487-7.372l-9.982,2.456v-24.575h-17.469l-9.982-3.687l8.734-9.829l-6.239-9.829l-3.743-1.229l-7.486,13.516
			l-3.743-7.373l-9.982,4.916l-8.735,4.915L712.979,956.612L712.979,956.612z"/>
		<path id="path3201" fill="#FEFEE9" stroke="#646464" stroke-width="0.5" d="M696.758,664.198l-1.249-8.6l-19.965-4.915
			l-17.469-6.145l2.495-7.373l-6.238-7.371l-6.239,1.229l-1.249-7.371l-6.238-8.601l-3.744-9.829l8.735,1.228v-6.145l7.486-4.915
			l1.248-6.143l-8.734-7.372l-2.495-8.601l6.238-7.373l1.248-9.828l-9.983,1.228l-3.743-7.372l9.98-7.372l2.498-17.201l4.991,6.144
			l4.99-4.915v-18.431l8.733,7.372l12.478,7.373l6.239,3.686l16.221,6.144l13.726,3.687l18.716,2.457l13.726,6.144h8.733
			l3.744,6.144v11.059l1.248,13.517l-2.496,8.601l14.974,7.372l-4.992,8.6l-12.478-2.456l-8.733,12.287l7.488,6.144l-4.992,7.373
			l3.743,9.828l8.734,4.916l-4.991,2.456l-7.486-2.456l1.248,6.143l6.239,4.915l-6.239,12.288l-16.221-1.229l-9.981-4.915
			l-13.726-6.145L696.758,664.198L696.758,664.198z"/>
		<path id="path4172" fill="#FEFEE9" stroke="#646464" stroke-width="0.5" d="M771.624,866.923l-11.229-4.916l-9.982-20.885
			l4.991-4.915v-12.288l-12.478-18.43l2.495-8.601l8.734-2.458l-18.717-9.829l-7.486-7.371l-9.982-17.201l1.249-7.374l7.487-8.601
			v-6.144l-11.23-15.972l1.249-20.886l-11.23-1.229l-3.743-9.829l12.478-2.458l11.229,2.458l11.23-13.516v-12.288l6.238-3.687
			l8.734,2.457l8.734-11.06l-8.734-6.144v-7.371l7.487,2.457l7.486-1.229l-9.982-4.916l-4.992-11.058l4.992-7.373l-6.239-6.144
			l8.734-12.286l12.478,4.915l4.991-9.83l-9.982-3.687l-4.991-6.144v-6.145v-24.569l-1.248-4.916l6.239-1.229l6.238,4.915h11.23
			l3.742,7.372l26.204,4.914l12.478-4.914l14.973-6.143l16.222,2.456l6.238-3.686l9.982,4.915l8.734-7.372l6.238,3.687l-2.495,6.143
			l-6.238,17.201l-1.249,9.83l-6.238,4.915l9.982,11.057l-1.249,7.373l-8.733,1.229l-4.991,7.372l-2.496,9.83l-4.99,1.229
			l-4.992-13.517l-3.744,4.916l-7.485-2.458l-3.743,2.458l9.983,7.372l2.494,9.828l-2.494,7.373h2.494l6.238,12.287h8.735
			l-1.249,13.517l6.239,4.914l-3.744,4.915h8.735l8.733,7.371l12.478,2.458l4.992-3.687l11.229,3.687l-2.495,7.371l-6.239-1.229
			l2.495,8.602l4.992,2.457l2.495,2.457l-6.238,7.372l-1.249,12.286l9.982,8.601l8.735,4.916l2.495,15.973l7.486-4.914l1.248,4.914
			l9.982,6.144l2.495,4.915l-7.486,12.288l-8.734,8.601l-8.735-3.687l-4.991-8.601l-7.486,14.744l-4.992-9.829l-7.485,13.515
			l-9.982,1.229l-8.734-7.372h-11.229l-3.743,9.828l11.229,8.602l12.479,7.372l-1.248,15.973l-6.239,4.915l-1.248,11.06
			l6.238,13.515l3.744,7.373l-8.734-2.457l-11.229,4.915h-12.478l-9.982-7.372l1.248-7.372l-17.47-6.143l-1.248-4.917l-12.479-1.229
			l-4.991,19.659l-4.991-2.458l-6.238,2.458l-7.486-8.601l-3.744,7.371L771.624,866.923L771.624,866.923z"/>
		<path id="path5143" fill="#FEFEE9" stroke="#646464" stroke-width="0.5" d="M903.89,881.666l-13.726-12.288l-3.744-13.516
			l-2.495-7.372l-1.248-9.829l8.734-4.915l1.248-15.973l-24.955-17.198l3.742-4.915v-6.145l9.982,1.228l9.984,8.602l8.734-1.229
			l8.734-12.287l6.238,6.144l4.992-12.287l9.982,8.601l11.23-4.915l8.733-12.286l6.239-9.831l27.452-4.914l-17.47,2.458
			l13.725-2.458h16.222l8.734,2.458l12.478-8.602l12.478,2.456l4.992,8.601l13.725-8.601l7.486-6.144h13.726l-2.494,9.83
			l11.229,12.287v8.601l-3.743,6.144l-1.249,3.686l-17.47,9.83l9.983,2.457l2.495-3.686l8.734,2.456l4.992,9.829l-1.249,6.144
			l-8.733,4.915l12.478,8.601l2.494,7.373l-8.734,1.229l-3.743,4.914l6.239,4.916v4.915v2.456l-8.735,2.457l-14.974,1.229
			l-3.744,6.145l7.486,3.687l2.496,4.915l-6.239,3.686l-14.973,3.687l-14.975,3.687l-3.744,9.829l-16.22-1.229l-12.478,12.288v3.686
			l7.485,8.601l9.984,2.456l2.495,8.601l-2.495,6.145l-6.239,4.915c0,0,7.486,3.687-1.247,6.145
			c-8.735,2.456-11.23,3.686-11.23,3.686l-6.238-6.144l-3.744-8.601l-11.229,1.229l-7.485-8.602h-9.986l-1.247-9.829l7.487-6.144
			l-14.974-3.687l-3.743-9.829l-8.734-1.229l-6.239-12.287l-7.486-7.371l-3.743,1.228l-2.494,2.457L903.89,881.666L903.89,881.666z"
			/>
		<path id="path6116" fill="#FEFEE9" stroke="#646464" stroke-width="0.5" d="M950.058,766.174l-9.982-3.686l-1.248-8.602
			l-8.734,3.687l-2.495-12.287l-11.23-6.143l-6.238-8.601l-1.248-12.288l8.734-8.601l-11.23-6.144v-7.373l4.992,1.229l4.992-7.372
			l-13.727-4.915l-2.494,4.915h-12.478l-8.735-8.602h-11.23l4.991-6.144l-4.991-4.914v-12.288l-8.735-1.228l-4.991-13.517h-3.743
			l1.247-4.915l-1.247-11.059l-11.23-7.371h13.726l2.494-6.146l4.992,14.744h6.238l2.495-11.058l3.744-6.144h6.238l4.992-9.83
			l-11.229-11.058l7.486-3.687l-2.495-7.371l4.991-8.602l6.238-14.744l9.982,1.229l3.744,3.687l21.212-13.517l7.486,11.059
			l32.443,1.229l3.743-3.687l9.982,4.916l16.221-13.517l1.248,6.144l-3.743,1.229l-1.249,23.343l4.992,4.915l-2.496,2.458
			l-7.486,1.227l-2.495,6.145l9.982,2.457l-4.991,6.144l-1.248,12.286l6.238,11.061v17.201l14.973,3.686l9.983,9.829l23.707,1.23
			l6.239,9.828v11.059l4.99,9.829l4.992-9.829l6.239-1.229l4.992,8.601l-3.743,9.83l-8.735,2.458v12.293l6.239,3.686l7.486,1.229
			l9.982,3.686l4.993,6.145l3.743,4.914l-7.486,8.602l-9.983,7.371l-13.726,1.229l-21.211,13.517l-3.744-6.145l-14.973-3.686
			l-11.229,7.371l-8.734-1.228l-17.468,1.228h-14.973L950.058,766.174L950.058,766.174z"/>
		<path id="path2226" fill="none" stroke="#000000" d="M1078.58,772.318L1078.58,772.318z"/>
		<path id="path2228" fill="#FEFEE9" stroke="#646464" stroke-width="0.5" d="M1069.846,756.346v-9.828l17.468-14.744l-7.485-12.288
			l-16.222-4.915l-8.733-4.914l2.494-11.059l7.486-3.687l3.744-8.602l-4.992-8.601l-3.742-2.457l-8.735,12.287l-4.991-8.602
			l1.248-9.828l-7.488-11.059l-21.21-2.457l-8.735-11.059l-17.469-2.458v-15.972l-4.991-11.06v-13.515l6.239-6.145l-12.478-3.687
			l2.495-4.915l12.479-1.228l-6.24-7.374l2.495-23.343l2.495-6.143l19.965-3.687h13.726l17.469,3.687l33.69-6.144l31.192,15.973
			l4.991-6.143l14.973,4.914l16.221,9.829h11.229l4.992-4.915l8.734,2.458l18.717-9.831v9.83l6.239,1.229l3.743,7.372l18.717-4.916
			l7.486,1.229l-2.495,7.372l9.982,8.602l1.248,11.058l-6.238,7.372v3.687l13.725,13.517l-1.248,4.915l-3.744,1.229v3.687
			l7.486,3.687v9.828l-7.486,14.744v3.687l7.486,9.829l-12.477,2.456l-6.239,7.373l7.486,15.974l-7.486,2.457l7.486,11.058
			l-11.229,22.115l-18.717-2.457l-1.248,6.143l3.743,3.687l-4.99,3.687l-4.992-6.144h-9.982l-16.221-3.686l-4.991,4.914l4.991,4.915
			l-8.733,7.371l-17.47-13.515l-1.249-7.372l-9.979-1.226l-11.229,9.828l-11.23,6.143l1.249,9.83l-2.494,6.145l-7.487-4.916
			l-11.23,9.83l-9.982,2.456L1069.846,756.346L1069.846,756.346z"/>
		<path id="path2230" fill="#FEFEE9" stroke="#646464" stroke-width="0.5" d="M1222.074,734.23l13.726-23.344l-8.735-11.059
			l7.486-1.228l-6.238-17.202l8.733-7.372h9.982l-9.982-12.286l8.735-14.744l1.247-12.288l-9.982-6.145l6.24-6.143l-12.478-14.745
			v-4.914l4.99-4.915v-12.281l-9.982-8.601l1.248-6.145l-7.486-6.143l3.744-6.145h3.742l11.23,3.687l7.487-8.601l37.433,1.228
			l22.46-3.686l8.733,7.372l7.487-9.829h19.964l13.726,4.915l11.229,13.516l4.99-1.229l4.992,3.687l4.992-2.458l8.734,4.914v6.145
			l6.238,1.229l14.974,7.372l9.982,2.458l3.743-3.687h4.992v9.828l13.726,3.687l12.478,7.372l-2.494,7.37l4.99,11.061l11.23,3.686
			l-4.993,6.145l11.23,1.228l4.99,7.372l-1.247,18.43h-4.993l-4.99-2.458l-7.487,7.372l-14.973-1.229l-21.21-3.686l-12.478,3.686
			l-9.982,6.144l8.733,9.829l-1.248,8.602l-11.229,20.885h-8.734l-18.717,2.457l-4.992-9.828h-6.239l-1.247,8.601l-4.991,15.973
			l-12.478,9.828l-6.239,2.458l-14.974,3.687l-6.238-4.915l-7.486,4.915l-8.734-1.229l-3.743-6.144l-8.734,4.915l-6.239-6.143
			l-7.485,8.599l-9.983,13.516l-19.965,1.229l-3.743-8.601l-12.478-1.229l4.991-7.372L1222.074,734.23L1222.074,734.23z"/>
		<path id="path3203" fill="#FEFEE9" stroke="#646464" stroke-width="0.5" d="M1057.365,875.522l7.486-2.457l-4.989-7.374
			l-4.991-2.455l2.494-7.373l14.974,1.229l8.734-3.687v-8.601l-4.991-6.143l8.734-2.456l-1.249-7.374l-8.733-9.828l4.99-6.143
			l1.247-8.602l-2.495-4.915l-6.239-3.687l-7.485,3.687l-8.735-3.687l17.469-6.145l6.24-17.2l12.478-8.601l8.733-8.602l8.735,9.83
			l3.742-7.374l-3.742-8.6l8.733-12.287l16.222-4.915h6.238l8.735,7.372l9.98,14.744l6.239-9.829v-3.686l6.239-4.914l4.991,2.455
			l19.964-2.455l4.992,11.057l6.239-2.456l-4.991-6.144v-6.144l16.22,2.457l14.973,3.687l-7.486,11.058l12.479,1.229l2.494,6.145
			l-8.734,9.828l-8.734-6.143l-7.486-1.228l-3.743,2.455l7.487,12.287l7.486,4.915h-7.486l-8.734,6.144l-2.495,19.658l-2.496,35.63
			l7.488,20.886l-7.488,20.886l-4.989,3.687v3.687l6.239,4.914v4.915l-4.991,2.458v25.8l-16.222,9.829l-17.469,2.458l-11.229-8.601
			h-13.727l-12.476-6.144h-11.23l-2.495,7.371l7.487,9.828l-2.496,8.603l-6.238,8.601l-3.744,12.287l-18.716-4.915v-8.601
			l3.743-2.457l-2.495-9.829l-9.982-20.886l12.478-3.687l-9.982-4.914V901.32l13.726,3.686v-7.372l-11.23-4.914l17.469-12.287
			v-7.372l-11.23-2.458l-11.229,19.657l-9.982-7.372L1057.365,875.522L1057.365,875.522z"/>
		<path id="path4174" fill="#FEFEE9" stroke="#646464" stroke-width="0.5" d="M1205.854,884.123l8.734-23.344l-8.734-19.657
			l6.239-56.517l7.486-4.915l13.726,1.229l-9.983-4.915l-12.479-14.745l6.241-3.686l8.734,1.229l8.733,8.601l7.486-9.83
			l18.717,1.229l19.964-24.571l6.24,6.143l7.485-3.687l3.744,6.144l12.479,1.229l4.991-4.914l4.991,4.914l17.47-3.687l17.468-9.828
			l6.238-25.802h6.239l3.744,9.828l17.47-3.686h12.478l-2.495,8.6l-3.744,8.602l-8.733,15.973l-3.744,22.114l-18.716,12.287
			l-2.496,22.116l6.238,8.6v7.372l-8.734,17.202h-16.219l-24.956-3.687l-9.982,2.456l9.982,8.602l2.495,9.83l-6.238,2.456
			l-2.496-6.144l-1.248-4.914l-7.485-1.229l-8.735,8.601l4.991,4.916v27.028l-6.238,7.372l-2.494,24.572h-8.735l-6.238-13.517
			l-9.982-8.601l4.99-4.915l-9.982,2.457h-11.229l-3.743-7.372l-7.486,1.229h1.248v23.342l4.991,7.373l-6.239,4.914l-6.238-2.455
			l-3.744-6.144l-11.229-7.374L1205.854,884.123L1205.854,884.123z"/>
		<path id="path2231" fill="#FEFEE9" stroke="#646464" stroke-width="0.5" d="M865.208,999.615l12.479-11.059l4.991-7.372
			l-4.991-8.602h7.486l4.991-13.516V945.55l-2.495-12.285l-6.239-3.687l4.99-3.687l6.239,7.372l11.229-2.457h3.744l-7.486-8.601
			l3.743-15.974l-3.743-8.601v-12.287l4.99-4.914l7.486,1.228l8.734-7.373l11.229,18.431l8.735,3.687l6.238,9.828l12.478,4.916
			l1.249,3.687l-7.487,3.687l6.238,7.371l-8.733,2.457l13.725-1.229l7.485,8.601l11.23-3.687l2.495,12.287l7.486,3.687l-2.495,3.688
			l-7.486,12.286l3.743,11.058l-6.238,2.457l-7.486,19.659l-4.992,3.686l-2.495,6.144l-1.248,2.457l-16.222-1.228l-8.733,3.687
			h-7.486v-2.458l-8.734-1.228l-3.743,2.455l-1.249,15.975l-7.485,12.287l-11.229-9.828l-1.249-6.145l-2.495,8.601l-9.982-2.456
			l-3.743-3.687l7.486-3.687l-3.744-8.602l-8.733,3.687l-2.495,6.144l-3.743-7.373l8.734-12.287L865.208,999.615L865.208,999.615z"
			/>
		<path id="path3204" fill="none" stroke="#000000" d="M822.784,1108.963L822.784,1108.963z"/>
		<path id="path3206" fill="#FEFEE9" stroke="#646464" stroke-width="0.5" d="M822.784,1089.305l-11.23-17.201l28.698-9.828
			l-14.973-35.631l3.743-8.601v-11.06l8.735-23.342l7.485,2.456l1.248-6.143l14.973,18.43l17.469,7.372l-8.733,8.601l2.495,7.373
			l13.725-8.602l4.992,6.144l-8.734,8.602l12.478,3.687l14.974,4.915l-1.249,4.915l-3.743,11.061l-8.734,7.37l-2.495,11.06
			l-8.734-2.458h-6.239l-2.495,8.601v12.287l-16.22,7.373l-6.239,6.145l-6.238,7.371l-9.982-1.229v-7.373l-8.735,6.146l-7.486-6.146
			L822.784,1089.305L822.784,1089.305z"/>
		<path id="path4177" fill="#FEFEE9" stroke="#646464" stroke-width="0.5" d="M930.094,1072.104l-14.973-6.143v-3.687l-12.479-9.828
			l3.744-9.831l11.229-13.516l1.248-17.201l8.734-4.916l3.744,4.916h11.229l3.744-3.687l21.211,2.456v-8.6l7.486-2.456l4.991-20.886
			l9.982-2.458l-6.238-11.059l11.229-15.972l13.727-6.145l-1.249-4.915l7.487-7.373l-2.496-12.287l-7.485-1.228l-7.487-13.517
			l9.982-12.284l17.47,2.458l6.239-9.828l21.212-7.373l21.21,6.145l11.23,7.371l13.726-19.656l9.982,2.456v7.372l-16.221,11.06
			l9.981,6.143v6.145l-12.477-3.687l-1.247,14.745l7.485,4.915l-8.734,2.457l6.239,19.657l6.239,8.601v3.687l-4.992,2.457v9.829
			v3.687l-13.726,6.143l4.992,12.288l-9.982,2.457l-7.486,14.743l7.486,8.602l1.247,6.145l-6.239,4.914l-2.494,9.829l4.99,9.829
			l-7.486,9.829l-4.99-3.687h-8.735l-6.239,4.915l1.249,14.745l6.238,2.456l3.744-4.915l3.743,2.457v15.974h-4.99l-8.734-7.373
			l-2.496,3.687l-9.982-9.828v-9.83h-4.992l-1.247-4.914l-9.982-2.458l6.239-4.915l-13.726-11.06l-19.965-1.228l-8.735,7.371
			h-14.973l-6.238,1.23l2.495,9.829l-11.23,2.456l-13.725-9.828l-7.486,4.914l1.247,3.687l3.744,3.687L930.094,1072.104
			L930.094,1072.104z"/>
		<path id="path2235" fill="#FEFEE9" stroke="#646464" stroke-width="0.5" d="M730.357,1137.08l5.295-19.112l10.586,5.214
			l7.06-8.688v-15.639l8.823-19.113l17.646,5.213l17.646,12.164l-5.292,17.374l10.586,1.738l5.295-19.114l21.175,13.901
			l17.647,3.475l3.529,8.688l7.058,5.214v12.162l-1.764,10.426l-8.823,13.9l-3.528,13.9l-12.353-13.9h-22.94l-17.647-5.213h-14.117
			l-15.882-3.477L730.357,1137.08L730.357,1137.08z"/>
		<path id="path3207" fill="#FEFEE9" stroke="#646464" d="M799.179,1166.619l31.766,6.95l-3.53,17.375L799.179,1166.619z"/>
		<path id="path2237" fill="#FEFEE9" stroke="#646464" d="M853.441,1114.058l2.645,5.646l4.412,7.385l2.206,13.467l17.204-7.385
			l16.322-4.346l-7.5-13.899l-7.94-13.467l-15.883,0.87L853.441,1114.058L853.441,1114.058z"/>
		<path id="path3208" fill="#FEFEE9" stroke="#646464" d="M885.646,1087.127l-1.325,11.728l7.501,9.557l2.205,5.646l4.851-0.87
			l6.617-9.99l7.501-12.597l-3.529-9.124l0.439-10.424l-7.136-8.391l-7.425,14.038l-11.912-3.042l-0.439,9.122L885.646,1087.127z"/>
		<path id="path4179" fill="#FEFEE9" stroke="#646464" stroke-width="0.5" d="M904.174,1115.797l11.027-19.982l3.971-6.081
			l-5.293-8.688l1.764-14.769l14.117,6.08l6.176-9.123l-3.088-5.213l-0.884-3.908l5.737-3.477l14.559,9.558l11.027-3.043
			l-1.325-9.122l6.617-1.738l14.558,0.434l7.941-7.385l18.97,1.303l-3.09-0.869l11.027,6.08l6.618,5.646l-5.295,4.345l9.266,3.042
			l1.765,4.345h4.852l-0.883,9.557l10.147,9.555l2.206,4.346l-0.441,11.295l3.089,7.385l10.148,10.425l-0.44,6.948l6.176,2.174
			l-3.089,2.605l0.441,5.213l12.793,9.992l6.615,21.283l6.617,21.287l1.111,7.317l-1.552,5.278l0.882,4.344l8.82,4.779l-3.528,3.039
			l-0.438,3.91l3.088,6.516l2.647,3.477l-0.882,4.345l1.764,33.446l4.412,5.648l4.852,9.555l-1.324,10.86l-9.705,5.647
			l-12.354-6.518l-10.585,0.435l-15.884-2.173l-7.939-5.213l-7.941-0.434l-9.266,5.215l-3.088-2.173h-8.823l-11.472-5.647
			l-5.734-9.991l-0.44,0.87l-7.059-0.433l-4.853-6.951l8.383-2.172l5.292-7.384l-0.88-15.203l5.735-9.557l-6.616-6.079l-1.325-9.558
			l-7.942-9.554l-3.529-7.82l-13.233-9.556l-1.765-8.688l-9.266-6.08l-3.529-16.94l-17.646-4.779l-12.793,10.861l-4.853-3.042
			l-4.853,9.991h-5.293l-11.912-6.516v-8.254h-0.44l-5.736-6.08l-8.382-8.254l7.058-3.907l-0.439-8.253L904.174,1115.797
			L904.174,1115.797z"/>
		<path id="path5150" fill="#FEFEE9" stroke="#646464" stroke-width="0.5" d="M871.447,1308.001l-12.479-20.885l-4.99-12.288
			l6.239-17.201l8.733-14.744l11.23-12.288l3.743-12.286l-4.991-9.83v-8.602l-8.733-4.914l-8.734-2.457v-8.601l-7.486-3.687
			l6.239-12.287l2.494-12.287l1.248-9.829l12.478-3.687l8.734-3.687l7.486-1.229l13.725,12.288l1.249,8.6l13.725,6.143l6.239-8.6
			l4.991,4.914l12.478-15.973l21.212,6.145l2.494,15.972l11.23,7.373l1.249,11.059l12.478,11.059l11.229,14.743l-1.248,8.602
			l9.982,8.601l-7.486,7.372l1.248,15.973l-3.743,8.602h-8.734l-4.991,2.457l-7.487-4.915l-13.725,1.228l-6.239-9.828h-6.238
			l-7.486,3.687l-3.743,12.286l-2.495,8.602l-17.47,6.143h-6.238l-12.479,7.373h-2.494l-3.743-7.373h-3.744l-3.743,4.916
			l-1.248,12.287v6.144l-7.487,8.601L871.447,1308.001L871.447,1308.001z"/>
		<path id="path6121" fill="#FEFEE9" stroke="#646464" stroke-width="0.5" d="M881.43,1310.459l3.743,12.287l16.221,6.144
			l2.495,9.828l4.99,9.83l16.222,13.516l6.239,23.343l11.229,25.802l4.991,19.658l22.461,22.113l7.486,13.517l17.469,6.144
			l19.966-14.745l-3.743-17.201l-13.726-22.115l1.249-7.371l-19.965-29.487l-1.249-19.657l12.478-6.145l3.744-14.744v-20.885
			l-12.478-8.602l-14.974-6.145l-1.248-4.914l9.982-3.686l-4.991-8.6l6.239,1.228l12.479-28.258l-7.486-3.687h-12.479l-4.992-9.829
			l-13.726,2.458l-7.486,24.571l-19.965,6.143l-2.494-2.456l-16.22,8.6l-4.993-7.371h-3.742l-3.744,3.687v23.342L881.43,1310.459
			L881.43,1310.459z"/>
		<path id="path2242" fill="#FEFEE9" stroke="#646464" stroke-width="0.5" d="M640.606,1604.1l-2.494-18.43l-7.487-9.828
			l1.248-18.431l9.982-17.2l-2.494-11.06v-17.201l8.733-9.828h4.991l-6.24-6.144l-14.973-23.343l17.47,9.828l11.229,9.828
			l-1.247-11.057l-4.991-13.517l6.238-8.602l-6.238-17.201v-18.43l-4.991-4.915l-17.47-2.458l-1.248-13.514l19.965-7.373v-20.887
			l-1.248-4.914l2.495-3.686l1.249-8.601l18.716,2.456l6.239-8.601h1.249l8.733,11.06l-1.247,12.286h6.238l7.485,11.059h7.487
			l2.495,7.373l18.718,3.687l8.733,2.457l-1.247,6.144l-4.992,1.229v6.144l-8.734,6.143l-2.496,9.829l-13.724,8.602l7.486,7.373
			v9.828l-12.478,2.457v24.572l19.964,3.686l2.495,2.456l-2.495,6.145l-12.478,12.288l-7.486-6.145l-6.239,3.687l-7.487-3.687
			l1.248,14.745l-7.486,11.057l1.249,9.83l7.485-3.686l2.496,14.744l-3.743,7.373l-3.744,17.2l-8.733,15.974l-8.735,1.228
			l-14.973,15.973h-12.478L640.606,1604.1L640.606,1604.1z"/>
		<path id="path3218" fill="#FEFEE9" stroke="#646464" stroke-width="0.5" d="M690.518,1531.612l-6.238,4.915l-2.494-9.829
			l8.733-11.06l-3.743-18.43l7.486,7.371l8.734-4.914l4.991,4.914l14.973-9.829l1.248-7.372l-19.965-6.143l-1.248-23.344
			l12.478-3.687v-8.6l-8.733-9.829l13.724-7.372l1.249-9.829l11.229-6.145l-1.248-3.687l6.238-2.456l1.249-6.145l-8.735-4.915
			l8.735-7.372l4.99-2.457l2.496,7.373h7.485l4.992-2.458l9.982,11.06l-3.744,4.915l-1.248,6.143l2.495,3.687h7.486l3.743,6.143
			l21.213,3.687l1.248,4.916l-6.239,1.228l-3.743,6.144l13.725,2.458l1.249,6.143l-11.23,2.458c0,0,2.496,7.372-2.495,7.372
			s-9.982-4.914-9.982-4.914l-3.744,4.914l-7.486-1.229l-3.743,7.372l-2.496,7.374l-8.734,3.686l-13.725,8.601l-8.734,6.145
			l-1.248,8.6l-2.495,14.745l-9.982,6.144l-4.991,11.058l-6.239,7.373L690.518,1531.612L690.518,1531.612z"/>
		<path id="path4189" fill="#FEFEE9" stroke="#646464" stroke-width="0.5" d="M732.943,1486.152l16.221-8.601l16.22-7.372
			l4.991-13.516h7.486l2.496-3.687l14.974,3.687l2.495-8.601h8.734l-1.248-7.372l-14.973-2.457l3.742-7.373l6.24,1.229l-1.249-6.144
			l-19.965-2.458l-4.991-6.143l-9.982-1.229l1.248-7.372l4.992-3.687l-11.23-13.517h-8.734l-4.991-6.144l-16.22,9.829l-19.964-3.687
			l-1.249-4.915h-4.991l-7.486-12.286h-8.734l1.248-12.288l-7.486-9.829v-14.743l11.23-12.288l1.248-6.145l11.229-6.144l2.496-6.144
			l11.229-1.228v-14.745l14.974,1.229l4.99-7.373l6.239,2.458l-1.248,29.486l17.468,7.372l9.982-2.458l6.24-3.686l7.486,4.914
			l3.743-8.6l14.974-7.373l17.47,3.687l17.469,9.829l12.479,11.059l14.973,6.144l14.974,6.144l11.229,9.829l7.486,17.201
			l-7.486,8.602l-12.478,6.143l-21.212,14.745l-11.229,11.058l-1.248,8.602l-14.973,2.457l8.733,13.515l-3.743,9.83l1.248,11.059
			l4.991,7.373l-14.973,1.228l-13.725,7.372v8.601l-2.495,8.602l-8.735-2.456l-7.486-1.23l-16.221-7.371l-8.733,4.914l-1.249,6.145
			l-14.973,6.144l-1.248-11.06L732.943,1486.152L732.943,1486.152z"/>
		<path id="path2245" fill="#FEFEE9" stroke="#646464" stroke-width="0.5" d="M735.653,1484.589l17.647,1.738l-1.765,8.689
			l17.647-5.213v-3.477l10.587-6.947l12.354,5.212l-3.53,13.9l-12.353,1.738l-12.352,17.375l5.294,13.901l-3.529,10.425
			l-17.646,3.475l-7.059,12.164l-1.766,13.899l5.295,6.95l15.882-15.639l8.822-3.476l7.058,3.476l30,1.739l1.765,12.163
			l-17.647,17.375l-5.295,10.426l12.352,6.948v10.426l-12.352,20.851l-10.587,12.163v26.063l-17.647,20.85l1.764,19.113
			l-15.881,5.214l-14.117,8.688l-15.881-3.475l-12.353-10.427l-22.94-5.212l5.294-8.688l-7.058-8.689c0,0-7.057-19.113,1.765-19.113
			c8.823,0,21.177-6.949,21.177-6.949l-12.354-5.214l-12.352-1.739l1.764-17.375l8.824-10.425l-5.296-8.688l-5.293,12.162
			l-8.823,1.739l-1.765,12.163l5.295,5.214l-8.823,10.425l-14.116-22.59l-3.53-17.374v-24.324l0,0l17.647-8.689l8.823-10.424
			l7.057,3.476l12.354-26.063l5.294-13.901l-3.529-15.637l17.646,1.738l12.354-15.639l10.586-6.949l1.766-13.9L735.653,1484.589
			L735.653,1484.589z"/>
		<path id="path3216" fill="#FEFEE9" stroke="#646464" stroke-width="0.5" d="M792.121,1628.806l3.529-17.372l-12.353-6.951
			l19.411-20.85l5.294-5.214l-3.529-13.901l-26.47,1.739l-8.822-5.212l-24.704,13.898l-3.529-8.688l1.764-17.375l22.94-5.212
			l3.529-10.426l-7.059-15.638l14.117-15.639l10.588-1.738l5.295-13.9l15.881,1.739l5.295-15.64l24.704-6.948l1.765-12.164
			l12.353,12.164l10.587,13.899l-1.766,17.376l14.117,5.212l8.823,27.801l-12.353,6.948v15.639l-10.587,20.851l-7.059,19.112
			l-3.529,10.427l3.529,24.324l-31.765,10.424L792.121,1628.806z"/>
		<path id="path4187" fill="#FEFEE9" stroke="#646464" stroke-width="0.5" d="M797.413,1637.492l17.648,8.688l8.822,8.688
			l1.765,13.901l-5.294,15.638l-8.822,12.164l-19.411-8.688l-5.296,12.162l-5.294,17.377l-12.352,5.213l3.528-19.112l7.059-13.901
			v-15.638l7.059-13.9L797.413,1637.492L797.413,1637.492z"/>
		<path id="path4190" fill="#FEFEE9" stroke="#646464" stroke-width="0.5" d="M832.706,1646.181l15.881-10.425l5.296,10.425
			l-1.767,12.165l-10.586,12.164l-8.823,8.688v-19.113L832.706,1646.181L832.706,1646.181z"/>
		<path id="path4192" fill="#FEFEE9" stroke="#646464" stroke-width="0.5" d="M852.117,1675.72l-15.881,15.639l-5.294,15.638
			l14.116,6.948l10.589-12.162l-3.531-12.164L852.117,1675.72L852.117,1675.72z"/>
		<path id="path5169" fill="#FEFEE9" stroke="#646464" stroke-width="0.5" d="M857.411,1614.908l15.883-17.376l14.116-20.85
			l1.766-31.275l-1.766-22.589l-7.059-19.114l-7.058-19.112v-19.113l-12.353-10.426l-12.354-13.899l1.766-15.639l10.588-17.375
			l15.882-8.688l7.058-8.689l24.705-1.737l5.294,19.113l10.588,38.226l17.646,20.851l12.354,15.639l7.059,10.424l-1.765,19.115
			l-5.295,5.213v22.589l-7.059,15.637l-3.528,12.166l-3.529,15.637v15.638v12.162l-12.353,8.69l-7.058,13.9l-21.177,6.949
			l-1.764,10.425l-10.588,5.215l-14.116,8.688c0,0-5.294-1.739-5.294-8.688c0-6.95-5.295-15.639-5.295-15.639l8.822-12.163
			L857.411,1614.908L857.411,1614.908z"/>
		<path id="path5171" fill="#FEFEE9" stroke="#646464" stroke-width="0.5" d="M868,1687.883l8.821-12.163l10.588,13.9l-7.058,6.95
			L868,1687.883z"/>
		<path id="path5173" fill="#FEFEE9" stroke="#646464" stroke-width="0.5" d="M982.701,1533.241l-7.058,22.589l-8.824,26.064v24.323
			l17.649,19.112v-22.588v-22.589l8.82-22.589l1.766-12.163L982.701,1533.241L982.701,1533.241z"/>
		<path id="path5175" fill="#FFFFD0" stroke="#646464" stroke-width="0.5" d="M894.469,1661.82l-5.294,13.9h17.647L894.469,1661.82z
			"/>
		<path id="path6152" fill="#FEFEE9" stroke="#646464" stroke-width="0.5" d="M980.005,1359.602l9.981-12.287l4.992-19.657
			l-9.983-12.288l-17.468-12.287l2.494-12.287l14.973-27.03l19.966,7.373l19.964,17.201l19.965-7.373l12.477,2.459l27.453,7.371
			l2.494,9.829l-2.494,12.287v9.83l-7.488,22.113l22.461-2.457h12.479l-9.982,14.746v12.286l4.991,17.201l-14.974-7.372
			l-14.973,4.916l-27.451-2.458l-14.973-9.829l-7.487,9.829c0,0-7.487,7.373-17.47,2.458
			C999.969,1379.262,982.501,1362.06,980.005,1359.602L980.005,1359.602z"/>
		<path id="path6154" fill="#FEFEE9" stroke="#646464" stroke-width="0.5" d="M1004.96,1413.663h27.452l12.477,14.744l9.984,17.201
			l-7.486,14.745l-17.471,7.372l-12.478-2.458l-2.494-22.113L1004.96,1413.663L1004.96,1413.663z"/>
		<path id="path6156" fill="#FEFEE9" stroke="#646464" stroke-width="0.5" d="M1047.385,1398.919l32.441,2.456l14.973,12.288
			l-2.494,14.744l-22.463-9.829L1047.385,1398.919L1047.385,1398.919z"/>
		<path id="path6158" fill="#FEFEE9" stroke="#646464" stroke-width="0.5" d="M1092.306,1472.638l-24.956-7.374v-19.657v-12.288
			l19.964,9.829l7.487,12.288L1092.306,1472.638z"/>
		<path id="path6160" fill="#FEFEE9" stroke="#646464" stroke-width="0.5" d="M999.969,1484.924l32.443,2.456l9.982,22.115
			l2.494,19.656l9.984,12.288l-2.494,27.03l-4.992,27.029l-17.47,12.287l-14.973,17.201l-7.488-2.457l2.496-24.572l2.495-27.027
			l2.496-24.572l-2.496-24.572L999.969,1484.924z"/>
		<path id="path7138" fill="#FEFEE9" stroke="#646464" stroke-width="0.5" d="M1107.99,1382.075l-7.06-10.426l1.767-10.427
			l10.586-19.112l-12.353,1.738l-15.882-3.474l-5.293,5.212l3.529-13.9l-1.764-12.163l3.527-10.426l-5.293-20.849l19.411,5.212
			l10.589-8.688l10.588,3.476l7.058-6.95l-5.295-15.638l-3.529-10.425v-10.426l3.529-13.9l1.765-12.164l15.883,3.476l10.587,17.374
			l10.587,20.851l3.531,15.638v13.9l12.353,17.375l-1.765,12.164l14.117,5.213l-19.413,1.738l1.766,19.114h-14.117l-10.589,6.949
			l-5.293,15.638l-12.352,17.375v12.163l-7.06-3.475v-8.688L1107.99,1382.075L1107.99,1382.075z"/>
		<path id="path2436" fill="#FEFEE9" stroke="#646464" stroke-width="0.5" d="M1095.637,1394.238l15.883,5.213l3.528,12.164
			l-5.294,1.738L1095.637,1394.238L1095.637,1394.238z"/>
		<path id="path2438" fill="#FEFEE9" stroke="#646464" stroke-width="0.5" d="M1106.226,1428.988l10.586,19.112l7.059,10.425v6.951
			l-3.528,1.738l-3.531,17.375l5.295,19.112l15.881,17.376l10.589,5.214v10.424l1.765,3.476h14.117l8.822-10.425l3.529-10.426
			v-10.424l-3.529-10.426l-28.234-46.914l-1.765-10.425L1106.226,1428.988z"/>
		<path id="path2440" fill="#FEFEE9" stroke="#646464" stroke-width="0.5" d="M1257.982,1583.63l-10.586-6.949l-3.53-20.851
			l-1.766-19.114v-6.948l-12.353-19.114l-8.821-24.325l-14.116-12.163l-10.588-15.638l-7.059-13.9v-5.213l-7.057-8.689l-8.824-6.947
			l-26.469-19.116l5.294-8.688l-12.353-12.163l1.766-10.424l5.294-20.852l17.646-6.949h7.06l1.765-17.376h14.116l12.354,3.476
			l7.058-8.688l21.176-5.211l10.586,5.211l3.529,10.426l-7.058,12.164l8.824,12.163l8.821,17.375l8.823,15.639l7.058,12.163v-13.9
			h14.116l7.059,5.212v15.64l12.353,1.737l3.528,17.375l1.766,19.114l5.295,13.901l-1.765,12.162l12.352,8.689l3.531-8.689
			l1.764-8.688l-5.294-6.951l1.765-15.638l14.116-5.212l14.116,15.638l12.353,29.539l3.53,20.849l-12.352,22.591l19.411,13.898
			l-3.53,13.901l-1.765,8.688l5.294,20.851l1.764,8.688v8.689l5.295,8.688l-3.529,10.424l3.529,17.375l10.588,20.852l-5.294,10.425
			l-5.295,6.95l5.295,12.164l-12.353,3.474l-10.588-3.474l3.53-10.426h-15.882l-10.587,10.426l-19.412,3.474l-10.587,10.425
			l-17.648,10.426l-3.529-13.9l8.824-12.163l-14.118-12.164v-15.637l-10.588-13.901l-3.529-24.325l-8.823-8.688L1257.982,1583.63
			L1257.982,1583.63z"/>
		<path id="path4385" fill="none" stroke="#000000" d="M1304.43,1423.493L1304.43,1423.493z"/>
		<path id="path4387" fill="none" stroke="#000000" d="M1286.961,1408.748L1286.961,1408.748z"/>
		<path id="path4391" fill="#FEFEE9" stroke="#646464" stroke-width="0.5" d="M1304.43,1421.034l17.468-22.113v-17.202l7.487-24.57
			l34.938-24.573l-9.982-46.688l24.954-12.288l-4.99-22.113l-12.478-31.944l4.991-19.657l-17.47-17.201l24.956-29.487
			l-29.946-66.346l-14.974,2.458l-17.47-29.486h-7.485l-9.982,9.829l9.982,41.773l4.99,27.03l-7.486,9.828v14.745l-14.973-4.915
			l-17.471,14.744l-17.469,29.485l-7.486,22.115l12.479,22.114l2.191,31.075l-3.076,7.944l-9.1,0.298v7.372l-19.965,24.571
			l14.973,12.288l-4.99,9.828l2.494,9.828l14.973,31.944l14.975,19.658l2.494-9.83l17.47,2.458l2.495,14.744L1304.43,1421.034
			L1304.43,1421.034z"/>
		<path id="path7308" fill="#FEFEE9" stroke="#646464" stroke-width="0.5" d="M1391.773,1713.448l-9.982,12.288l-17.469-7.373
			l-4.992-9.829l-14.973-22.115l7.486-9.828h12.477l4.99,9.828l17.471,2.459v-9.83l7.486-19.656l-7.486-12.287l-4.991-24.572
			l-2.496-12.288l-4.99-24.57l-4.993-17.202l4.993-24.571l14.973,4.916l14.973-7.373h24.956l14.973,9.829l22.46,12.287l12.478,27.03
			l12.479,34.4l-4.992,9.829l14.974,31.943l14.973,41.774l2.496,12.288l-2.496,27.029v17.201l-2.495,19.657l2.495,24.572
			l7.486,27.029l2.495,27.029l2.496,22.114l12.478,22.116l-12.478,4.914l-12.479,14.743l-7.485-4.914l-2.496-12.287l-7.485-17.202
			l2.494-9.829l-7.486-2.456l-7.486,4.914l-12.478,2.457l-14.974-4.915l-2.495-9.829l-9.982-24.57l-7.486-4.916l-9.983,12.286
			l-4.99,9.83l-9.982-2.456l-12.479,22.114l-7.486,2.456l-7.486,9.83l2.494,19.657l-7.486,17.201l-2.494-24.57l-7.486-19.657
			l-2.496-9.83l14.974-17.201l9.983,9.829l7.484-14.744l-9.982-19.659l-9.982-17.199l4.992-9.83l-12.477-12.287l-4.993-14.744
			l-7.486-19.658l12.479-12.286h19.963v-14.745h12.479v-7.372L1391.773,1713.448L1391.773,1713.448z"/>
		<path id="path8279" fill="none" stroke="#000000" d="M1321.898,1482.466l-9.984-9.828"/>
		<path id="path8281" fill="#FEFEE9" stroke="#646464" stroke-width="0.5" d="M1306.924,1445.606l-4.992-24.571l12.479-14.743
			l9.982-17.202l2.496-29.487l37.434-27.028l-2.495-14.745l-4.991-27.029l22.46-17.201l-4.991-19.658l-7.486-31.944v-17.201
			l-17.47-24.571l22.461-29.486l-9.982-24.572l-17.47-44.229l4.99-7.373l19.966-19.657h12.478l7.486,12.288l4.992,19.657
			l4.99-17.202l4.992-9.829l12.478,4.916l-7.487,17.201l4.992,17.201l4.991,12.288l4.991,44.229l12.478,17.203l7.486,14.743
			l-4.991,9.83l7.486,7.372l2.495,9.829l-17.47,12.288l2.496,19.656l2.495,17.202l2.495,12.288l9.982,12.285l-7.487,39.317
			l9.984,19.657l19.964,9.829l-4.992,12.287l7.487,29.486l14.973,14.744l2.496,19.657l4.991,24.572l-7.487,4.914l7.487,24.571
			l4.991,29.486l4.991,24.572v14.744l4.991,19.658l4.991,19.656v22.116l-12.478-4.915l7.486,27.027l9.983,39.316l7.486,24.572
			l-9.982,17.203l-4.992-12.29l-7.486-22.113l-7.487-24.571l-12.477-24.571l2.494-7.372l-4.99-19.658l-9.982-34.401l-9.983-9.83
			l-24.955-17.2l-32.443-7.373l-22.459,9.83l-14.975-12.288l-9.982-14.744l7.486-19.656l-2.494-19.657l-12.477-24.572
			l-14.975-22.114l-7.486,2.457l-9.982,14.744l7.486,19.657l-4.992,9.83l-9.982-12.287L1306.924,1445.606L1306.924,1445.606z"/>
		
			<path id="path11192" fill="none" stroke="#646464" stroke-width="3.125" stroke-opacity="0.9922" stroke-dasharray="25,6.25,3.125,6.25" d="
			M418.018,1788.659l-8.824-13.9l12.353-12.162l-7.059-12.165l-1.765-19.114h-19.411l-8.824-24.324l-7.059-15.637l-3.529-31.275
			l-14.117-27.8l1.765-17.374l19.411-6.95l-7.058-13.9l-8.823-17.375l-10.587-8.688l-8.823-20.851v-15.638l-1.765-12.166
			l7.059-12.162l-8.823-22.588l-14.116-19.114l8.823-15.637l-14.117-12.165l10.587-15.638l-12.352-20.852l17.647-31.274
			l-12.353-8.688l-8.824-13.9l1.765-8.689l-15.882-13.9l3.529-22.589l3.529-10.425l-7.058-12.163l15.882-13.9l10.587-10.424
			l17.646-12.165l-7.059-6.95l-10.587,6.95l-8.823-8.688l-10.587-3.476l-21.175-8.688l-1.765,10.425h-8.824l-15.882-6.948
			l-5.294-10.426l-7.058-10.426l12.349-13.896l7.058-12.165l1.765-20.85h8.822l-7.058-13.9l-24.706-17.373l-10.587-12.165
			l-7.059-10.426h-12.352v-13.901l-10.588-3.474l8.823-13.901l-10.587-5.212l10.587-15.639l-7.059-10.425l12.353-8.688
			l-3.529-24.325l5.294-6.95l10.587,8.688l19.412-12.163l12.352-6.949l-3.529-15.639l-5.294-17.375l7.059-13.899l-14.117-10.426
			l-5.294-27.799l5.294-8.689l8.822-8.688v-15.633l-7.058-15.64l-5.294-8.688l-10.587,8.688l-21.176,1.739l-10.587-8.688
			l-7.059,6.949l-24.704-20.85l-24.706-10.424l-21.176-19.114l-28.231-8.688L82.734,800l-8.824-12.165l-19.411-17.373l1.765-8.689
			l-7.056-12.164l-12.353-12.165l-7.059-15.638l8.823-6.949l3.529-20.85l12.352-3.476v-6.949l21.176-17.375l-1.765-15.638
			L61.56,641.88l15.882-12.163l10.587,1.738l10.587-5.213v13.9l10.588,10.426l14.116,8.688l10.587-8.688l-8.824-3.476l5.294-13.901
			h17.646l7.059-13.9l3.53-10.425l8.823-3.474l-8.823-10.426l8.823-12.165l-3.529-13.899l8.824-6.949l-5.293-8.689l12.353-13.9
			l17.646,8.689l10.587,5.212l7.059-8.688h15.882l19.412-5.213l21.176,10.427l10.587,3.474l12.352-13.9l21.176,15.638l10.588-1.738
			v-10.425l7.058-19.113l14.118-5.213l1.765-10.426l-24.704-3.475h-8.824l-3.528-12.164l-5.294,6.949l-15.881-15.639l-5.294-17.374
			l5.294-15.638l-8.824-12.164v-13.897l-7.058,6.949l-7.059-8.688v15.639h-7.058l-12.354,8.688h-14.117l-3.529-8.688l-10.587,3.477
			l-5.293-6.95l-14.117,3.475l-5.294-3.475l-14.116-13.901l1.764-8.688l-14.116-1.739l-7.059-12.163l3.529-3.477v-13.895h-12.352
			l-12.353-13.899l-3.529-8.688l-10.587-1.738l-5.293-12.164l-14.118-5.213v-12.162l-17.647,12.162l-7.058-6.949l-8.824,8.689
			l-7.058-3.477l-14.117-15.64l3.528-10.424l-7.059-5.213v-17.375l10.588-5.211v-12.164l17.646-12.163l3.529-10.424l-7.059-10.425
			l7.059-22.587l12.352-3.476l3.529-12.163h10.59l17.646-5.212l14.118-10.425l-8.824-10.425l8.824-17.376h10.587l14.117-15.637
			l8.824-8.688l8.823,6.951l8.824-3.475l-8.824-10.426l-1.765-13.901l-5.294-8.688l-14.118,3.476l-7.058-6.951L144.5,96.29
			l-7.059,12.163l-7.058-3.475l-1.765-15.638l12.352-13.9V61.541l17.644-19.113l3.529,19.113v13.901h17.647l1.765,10.425
			l10.587-1.738l-1.765,10.425h12.352l5.293,8.688l12.353-6.951l3.529,12.163l17.647,15.638l8.823-1.738l1.765,19.113l15.881-1.738
			v12.163v5.211h15.882l3.529,8.688l-1.765,10.425l17.647,12.164l1.764-12.164l3.529-13.901l14.117,3.476l10.587,19.113
			l12.353-5.213l14.117,3.476l5.293-8.688l-7.058-8.688l-7.058-6.95l-10.588,3.475l-1.764-8.688l3.53-6.951l-5.293-6.951
			l-5.294,5.214l-15.882-6.951l-5.294-15.637l14.117-12.164l10.587-6.95l7.058,12.163l17.646,6.951l21.176,3.475l1.765,6.951
			l-10.587,3.476l8.823,5.212l-7.058,5.212l22.94,5.213l-3.529,8.688l-14.117-1.738v6.95l14.117,15.638l1.765,10.424l-3.53,8.688
			l8.823,15.638l26.47,8.687l7.058,12.163l-8.823,3.476l22.94,8.688l10.587,12.162l17.648,3.475l10.587-17.375l5.296,10.424
			l7.058,6.951h17.647l7.059,5.213l-1.765,8.688l8.823,3.475l8.821-10.424l-8.821-5.212l1.764-12.162l14.118-6.951l10.586-1.738
			l-5.295-20.851l-8.821,12.163l-1.766-13.901l-5.294-12.162l14.117-12.163l7.057-15.638l14.119,5.213l-3.53,15.638l5.294,10.424
			l14.117-6.95l7.059,12.163l7.058,10.425l5.295,8.688l-8.822,6.951l14.115,12.163v12.163h14.117l-10.587,10.424l0,0l19.411,12.163
			l-7.059,8.688l-7.058,3.475l-3.529,15.638l-5.294,3.477l10.588,22.588l-7.059,3.475l-3.529,10.425l8.822,5.213l-3.529,5.215
			l14.116,12.163l-7.057,15.638l5.293,17.375l-8.822,8.688l1.766,27.801l-7.059,13.899l-1.765,13.901l-3.529,8.688l7.058,6.949
			l-1.765,8.688l15.881,12.164l5.295-6.95l17.647-5.213l15.882,8.688l19.411,12.163l19.412,10.426l28.234,5.213l15.882,6.95
			l12.353,3.475l17.647-3.475l3.529,15.637l17.647-3.475l12.353,3.475c0,0,3.528-8.688,19.411-8.688s24.704,0,24.704,0h12.354
			l10.587-5.213l8.822,6.948v3.476l29.902-9.051l14.974,7.371l39.93,2.458l24.956-12.287h34.938h27.452l19.965-7.372l22.46,17.2
			l12.478-7.371l22.461,9.829l19.964,7.371l12.478-7.371l12.478-4.915l14.974,7.372l14.974,4.914l9.982-9.829l14.973-4.915
			l29.947,4.915l32.441-4.915h17.47l22.46-2.455l7.486-4.915l17.471,14.743l17.469,7.371l9.982,14.746l19.964,4.915l12.478-4.915
			l2.495,9.829l29.946,17.201l-2.494,14.745l19.964,4.914v17.202l-2.495,14.744h-9.982h-19.964l-9.983,4.915l-14.973-2.458
			l-14.973,7.372l9.982,14.745l-17.469,29.487l-7.488,19.656l-7.486,12.287l2.496,14.745l-9.982,12.286l-12.479,2.458l-4.99,9.829
			l2.494,14.743l9.982,17.202l-12.477,9.829l-22.461,7.373l-17.469-7.373l-7.486,4.915l9.982,14.744l-9.982-2.457h-9.983
			l-4.991,12.288l2.496,19.657l-4.992,17.202l-12.477,14.744l-9.982-7.373l-9.984-9.828l-17.469-7.373l-4.991,9.83l7.487,17.2
			l-9.982,4.915l-12.479-7.371l-7.487-12.287l-14.973-7.372l2.495,19.657l-4.99,19.657l-17.47,12.288l-17.469-4.916l-12.478-4.915
			l-19.965-7.372l-14.973,2.458l9.982,19.657L1122.255,964l-12.478,7.371l-12.479-4.914c0,0-12.477,4.914-17.468,14.743
			c-4.992,9.829-9.982,19.658-9.982,19.658l7.485,14.744l-7.485,7.371l-2.497,27.03l-14.973-2.457l-4.99,12.286l3.967,5.345
			l7.917,3.897l3.09,10.416l-5.503,8.881l-9.949,12.761l25.436,44.704l7.486,27.028l9.982,17.202l4.991,22.113l4.991,12.288v14.743
			v19.659l9.982,19.657l7.486,12.286l14.973-2.457l-7.486-14.743l-2.495-27.03l2.495-24.57l17.47,4.914l19.964,22.114v19.657
			l2.495,17.201l4.99,24.571l9.984,19.657l14.973-9.828l4.992,7.373l17.468-9.831h12.479l19.965-27.027l-0.366-3.422l7.94-0.869
			l3.529-8.688l-0.881-11.295l-1.766-10.426v-8.688l-6.175-11.294l-7.059-12.163l7.941-23.459l15.881-26.062l21.175-15.639
			l14.117,6.95l-0.881-19.983l7.058-10.425l-14.117-65.158l9.704-12.163h7.06l7.94,15.639l7.941,15.639l14.117-2.607l6.177-10.425
			l11.47-12.163l10.588-8.688h10.588l6.177,9.554l6.176,17.377l4.411-10.426l7.059-12.164l7.058,3.476l4.411,4.344l-4.411,5.214
			l-3.528,8.688l3.528,13.899l3.529,10.426l4.411,6.948l1.765,23.458v18.244l13.235,16.507l8.822,16.508l-5.294,8.688l6.176,6.95
			l4.411,7.817l-1.764,5.214l-14.118,10.424l0.882,6.951l0.883,19.112l1.764,19.114l4.411,6.949l6.178,9.556l-4.412,26.933
			l-1.766,13.031l6.178,12.164l3.528,6.08l14.117,7.818l7.059,4.345l-4.412,6.951l2.647,20.85l4.411,16.507l14.117,12.164
			l1.765,19.113l4.412,19.113v6.081l-7.942,4.344l8.823,19.114l9.705,57.339l0.882,19.981l10.589,38.229v19.981l-7.941-2.605
			l-6.177-4.346l4.411,13.032l10.588,42.569l4.411,19.983l5.295,15.637l-8.823,16.508v18.243l-2.647,13.031l-0.881,23.458v18.244
			l1.766,16.508l6.176,25.193l1.764,12.163l2.646,19.113l0.882,17.375l10.588,19.112l3.529,7.82l-9.705,3.475l-14.998,13.895
			l-5.294-2.606l-13.234-28.668l2.646-12.164l-7.058-4.345l-8.822,8.688l-8.821,0.868l-11.472-1.738l-7.941-6.079l-7.939-25.194
			l-6.177-8.688l-5.295-2.605l-14.117,21.72l-8.822-4.346l-8.822,10.424l-4.411,13.901l-11.472,3.475l-4.411,8.689l5.293,19.983
			l2.641,15.884l-12.345,13.654l11.464,18.245l10.807,11.67l6.84,11.787l-8.815,13.03l9.7,20.475l4.41,15.146l-2.64,11.294
			l9.041,14.03l2.431,19.852l4.411,9.558l2.639,4.966"/>
		<g id="g4653">
			<path id="path5362" fill="#FEFEE9" stroke="#646464" stroke-width="0.5" d="M1257.014,1691.332l24.955-4.915l4.992,24.571
				l-7.488,22.115l-14.973,24.57l2.496-17.201l2.495-34.401L1257.014,1691.332z"/>
			<path id="path5364" fill="#FEFEE9" stroke="#646464" stroke-width="0.5" d="M1291.951,1713.448l27.451-14.744l12.479-9.828
				l12.479-2.458l17.469,29.486l19.964,9.829l7.486-2.458l4.991-12.286l12.478,17.202v7.371h-12.478l-2.495,17.201h-22.461
				l-9.983,12.288l9.983,24.571l19.965,19.658l-7.486,12.287l12.478,19.656l9.982,12.288l-4.991,17.201h-9.982l-2.495-9.829
				l-17.469,19.658l4.991,22.113l15.934,18.191l2.493,12.243l-11.932,14.27l10.942,19.657l18.462,23.107l-10.908,13.752
				l12.414,19.658l5.136,15.617l-4.806,9.73l7.188,15.951l9.982,24.572l-2.494,12.286l-7.487-7.372l-9.982-27.03l-12.478-14.744
				l-9.982-17.201l-7.486-17.201v-14.745l-42.426-49.145l-4.99-39.316v-17.201l-7.486-17.201l-14.973-19.659l-2.496-9.828
				l12.479-14.745l2.494-17.201l4.992-14.743l4.99-22.115l-2.495-27.028l-9.982,22.113l-12.478-7.371l9.982,17.2l7.486,19.658
				l-12.477,24.57l2.494,2.457l-24.956-2.457l2.497,12.289h-14.975l-2.495-12.289l7.487-22.113l4.99-19.658l-12.478-9.828
				L1291.951,1713.448L1291.951,1713.448z"/>
			<path id="path3682" fill="#FEFEE9" stroke="#FEFEE9" d="M1303.303,1761.128l24.956-4.915l4.991,24.57l-7.486,22.115
				l-14.973,24.571l2.494-17.202l2.496-34.4L1303.303,1761.128z"/>
		</g>
		<g id="g10307">
			<path id="path2273" fill="#E0E0E0" stroke="#CB9369" stroke-opacity="0" d="M23.76,1811.051
				c0.673-9.138,21.37-17.254,27.77-25.785c4.671-6.23,8.03-18.329,9.918-27.771c3.076-15.383,7.934-25.17,7.934-41.655
				c0-12.735,3.524-24.684,7.934-35.704c5.208-13.018,17.062-24.071,25.787-35.704c11.028-14.705,28.775-22.573,43.639-33.72
				c16.94-12.705,37.136-28.172,47.605-45.622c16.536-27.56,52.226-22.676,77.36-11.901c2.506,1.074,5.289,1.322,7.934,1.984
				c3.978,0.994,14.608,27.232,15.87,29.753c4.156,8.313,13.526,5.952,23.803,5.952c9.774,0,9.813-10.335,7.934-17.853
				c-1.765-7.058,15.315-3.253,21.821,0c4.503,2.251,8.281,16.563,9.917,19.835c3.657,7.312-4.969,11.922-7.934,17.854
				c-3.673,7.346,1.973,13.844,3.967,21.819c2.347,9.384,6.568,11.419,3.968,21.819c-2.025,8.104-6.118,13.971-13.886,17.854
				c-10.414,5.206-8.78,9.071-1.983,15.868c6.101,6.102,3.534,17.603,1.983,23.802c-1.739,6.955-1.257,12.823,0,17.854"/>
			<path id="path9336" fill="#E0E0E0" d="M347.103,1559.138c9.918,14.876,17.852,20.827,17.852,20.827l6.942,12.895l5.951,12.894
				l-15.87,4.96l-3.968,15.868l0.991,8.927l7.935,14.876l5.951,12.894l-14.876,22.81l-3.967,10.909l7.934,17.852l-4.959,20.829
				l14.876,15.867v23.804l-8.926,11.9l-23.804,3.968l-6.942-58.516l-10.908-137.859L347.103,1559.138L347.103,1559.138z"/>
		</g>
		<path id="path10311" fill="#D7D7D7" d="M1539.026,1636.551l-18.232,7.013l-5.611,7.014l4.207,16.833l5.611,22.439l5.611,14.025
			l-11.223,15.428l2.806,16.833l-4.209,15.427l-1.401,21.04l1.401,26.65l7.016,35.066l1.403,19.636l4.207,30.857l8.415,15.428
			l5.611,9.819l-11.222,2.805l-14.026,12.622l-8.415-1.402l-12.624-25.25l1.402-14.025l-5.61-4.208l-5.611,8.415l-19.637,1.403
			l-12.622-8.416l-4.207-12.622l-2.805-11.222l-11.221-11.221l-12.625,22.439l-8.416-4.207l-7.014,9.818l-5.611,14.025
			l-15.428,1.403v9.818l7.014,33.662l-9.818,14.025l9.818,21.04l16.832,19.636l-5.61,14.025l8.415,25.248l5.609,15.427l-4.206,7.015
			l9.818,16.833v12.622l4.206,12.623l2.807,8.415l-5.612,18.233l9.818,26.649l40.675,5.61l56.106-1.402l14.026-7.013l4.208-86.962
			l-2.805-360.47L1539.026,1636.551L1539.026,1636.551z"/>
		<path id="path12251_3_" fill-opacity="0" stroke="#000000" d="M1540.427,1632.344"/>
		<path id="path12251_1_" fill-opacity="0" stroke="#000000" d="M1515.181,1647.771"/>
		<path id="path13274" fill="none" stroke="#505050" stroke-width="1.5" d="M990.609,553.745v26.649l8.415,5.612h-12.622
			l-4.209,5.608l12.624,4.209l-5.611,5.609l-2.804,14.026l7.014,9.818l-1.404,15.428l19.637,4.209l5.61,11.221l19.637,2.804
			l9.819,9.818l-1.403,8.417l4.207,9.818l9.818-11.223l8.415,8.416v8.414l-9.818,2.806l-4.207,14.025l16.831,7.014l12.624,4.208
			l4.207,11.222l-15.429,12.624v16.83l9.819,9.819l-7.015,16.832l-16.833,8.414l4.209,4.208l11.223-4.208l7.013,5.612l1.403,8.414
			l-5.611,5.61l9.818,16.833v4.208l-9.818,1.403l5.611,7.013v8.416l-8.414,4.208l-14.026-2.806l-4.207,7.016l8.415,4.207
			l1.402,5.611l-8.415,7.014l14.025,1.404l14.026,7.013l11.222-12.623l15.429-2.804l-1.404,9.818l-14.025,8.416l9.818,9.818
			l-1.403,5.611l-12.622-4.208l-2.805,12.621l11.221,7.016l-11.221,2.804l2.805,11.223l2.804,8.414l8.417,5.612l-5.612,9.818
			l1.403,7.014l0,0l0,0v1.403"/>
		<path id="path13557" fill="none" stroke="#505050" stroke-width="1.5" d="M613.312,475.2l-14.026-11.223l-2.805,8.415l7.016,5.612
			l-12.624,5.61v22.44l8.415,11.223l1.402,9.818l-7.013,11.222l-8.417-1.402l-8.416,7.013l-1.403,12.624l-15.429,22.442l4.209,11.22
			l-5.611,8.417l7.014,7.015l-7.014,5.609l7.014,1.403v7.015l-5.611,7.01l5.611,5.611l1.403,7.013l5.611,14.025l-5.611,1.405v14.024
			l7.016,9.818l12.621-1.401v8.415l-2.803,4.207l4.207,7.014l2.804-5.61l16.832,9.818l-1.403,7.014l-7.015,1.401l7.015,11.222
			l-1.404,16.831l-1.402,11.224l-7.015-1.405l5.612,11.224l-2.806,8.414l-2.805,5.612h-5.61l-7.014,4.206l5.61,11.221v12.622
			l-11.222,12.624l14.025,11.221l2.804,7.016l-7.013,5.609l15.43,21.04v16.831l-2.805,16.832l4.207,9.819l-5.61,4.206l11.223,8.413
			l2.804,14.025v14.027l-8.416,12.622l-25.246,5.613l-11.222-1.403l-4.208,11.222l-4.208,14.026l11.223,7.014l5.61-2.804
			l7.015,12.623l-5.611,1.401l-9.818-8.415v9.819l18.232,5.611l11.223,7.013l-18.235,7.012l-14.025-1.405l-18.233-7.011
			l-25.246,9.818l-30.858-16.831l-5.61-14.025l-16.832-19.636l2.806,16.832l-7.014,5.609v1.404l-15.429-1.404l-4.207-7.014
			l-16.832-22.441l-21.039,1.405l-7.013-7.015l-19.636,1.401l-11.22,5.613v-1.405l-4.208-7.013h-7.013l-5.61-9.819l2.805-15.428
			l-8.416-9.818h-15.429l-9.818-8.416l-5.61,8.416l-14.026-2.805l-15.428,1.402l-26.65-21.038l-12.624-1.403l0,0"/>
		<path id="path13840" fill="none" stroke="#505050" stroke-width="1.5" d="M454.215,999.77l1.983,31.736l1.984,5.952l-13.885,9.919
			l3.966,9.919l20.579,19.621l15.429-5.613l5.611,7.015l12.623,12.623l5.61,23.844l12.624,12.623l-5.61,1.402l-5.611,2.806v7.013
			h18.232l14.025,11.223l1.404,14.025l11.222,18.233l-9.818-5.611l-5.611,5.611l7.013,7.013l-2.803,15.43l4.206,12.623h12.623
			l-9.818,7.014l2.806,11.222l12.622-2.805l8.416,7.015l-1.403,14.026l11.223-7.017l11.22,4.209l-11.22,25.246h-11.223
			l15.429,16.834l7.013,15.427l16.833,8.415l-5.611,16.831l12.622,7.015l-5.609,8.416l2.804,11.221l8.415,7.015l15.429-7.015
			l9.818,8.416l1.404,29.455l-19.637,4.207v15.426h12.622l11.222,5.61l-1.403,15.429l7.016,19.636l-5.612,9.818l5.612,25.247
			l-16.833-15.428l-9.818-5.611l4.208,12.623l12.624,12.623l5.61,5.61h-7.015l-9.818,11.223v16.831l-12.619,23.845l-5.61,23.843
			l9.818,14.025l4.207,23.846l-11.222,19.635l7.015,15.428l-5.611,22.44l8.415,14.025l-1.402,9.819l2.804,29.454v1.405"/>
		<path id="path14125" fill="none" stroke="#505050" stroke-width="1.5" d="M649.598,1368.715l2.976-11.9l19.834,1.984l7.934-9.918
			l-0.992-10.908l11.9-11.902l1.985-10.909l11.901-2.974l0.991-6.942h10.909l-0.993-12.893l16.861-0.993l6.941-6.942l4.961,2.977
			l-2.976,28.761l17.854,6.942l16.86-4.96l6.941,7.934l4.96-12.893l17.853-6.943l13.887,3.969l13.886,7.934l15.869,12.893
			l17.853,6.943l16.861,7.933l7.935,7.935l6.94,15.868l10.91,21.819l4.959,22.811l8.926,29.754l10.909,14.877l14.877,16.861
			l13.885,18.844l-1.983,15.869l21.819,21.818l11.901,13.887v13.885l-9.92,15.869l-0.991,15.868v36.697l2.975,20.826l0,0"/>
		<path id="path14412" fill="none" stroke="#505050" stroke-width="1.5" d="M853.154,1332.187l1.403-23.845l-5.609-16.832
			l-12.624-11.219l9.818-2.806l-7.014-11.22l9.819-7.016l9.818-14.025l-5.612-16.833l-7.014-28.052l-2.805-21.039l4.208-15.428
			l15.429-23.845l29.454-11.22l-7.014-29.455l-1.401-26.647l9.818,1.402l8.415-9.818l1.403-14.025l15.428-21.039l-1.402-12.624
			l11.221-9.818l14.025,7.014l22.441-4.208l8.415-12.623l8.417-22.442h8.416l-7.015-11.224l11.223-15.428l14.025-2.804v-7.015
			l5.611-5.61v-11.222l-8.416-2.806l-9.818-12.621l15.43-15.429l14.025,2.804l7.014-11.222l26.65-4.208h1.401"/>
		<path id="path15678_3_" fill="#3F3F3F" d="M1247.148,1516.49"/>
		<path id="path5037" fill="none" stroke="#505050" stroke-width="1.5" d="M558.251,598.382l-4.124-3.298l-21.437,2.886
			l-2.474,8.245h-6.185l-4.122-5.771l-15.664-2.476l-9.482-10.307l-4.123,7.009l-9.895-5.771l-3.708,5.357l-10.719-1.236
			l-2.886-12.367l-9.48-3.299l-12.779-2.474l-5.773,4.122l-1.235,0.825l-7.008-4.947l2.06-2.885l-10.718-13.604l-5.919-3.521
			l-4.8-9.26l4.122-11.544l-12.367-3.71l-18.963,2.063l-6.596-9.482l-12.368,3.299l-12.367-9.07l0,0l0,0l0,0"/>
	</g>
</g>
<rect x="1436.5" y="2104.927" fill="#D7D7D7" width="170" height="64"/>
</svg>
