<?xml version="1.0" encoding="UTF-8" standalone="no"?>
<!-- Created with Inkscape (http://www.inkscape.org/) -->
<svg xmlns:dc="http://purl.org/dc/elements/1.1/" xmlns:cc="http://web.resource.org/cc/" xmlns:rdf="http://www.w3.org/1999/02/22-rdf-syntax-ns#" xmlns:svg="http://www.w3.org/2000/svg" xmlns="http://www.w3.org/2000/svg" xmlns:sodipodi="http://sodipodi.sourceforge.net/DTD/sodipodi-0.dtd" xmlns:inkscape="http://www.inkscape.org/namespaces/inkscape" id="svg2" sodipodi:version="0.32" inkscape:version="0.44.1" width="496" height="676" version="1.0" sodipodi:docbase="G:\wikipedia\map\Dhaka-thana" sodipodi:docname="dhaka-city1.svg" inkscape:label="Demra">
  <metadata id="metadata7">
    <rdf:RDF>
      <cc:Work rdf:about="">
        <dc:format>image/svg+xml</dc:format>
        <dc:type rdf:resource="http://purl.org/dc/dcmitype/StillImage"/>
      </cc:Work>
    </rdf:RDF>
  </metadata>
  <defs id="defs5"/>
  <sodipodi:namedview inkscape:window-height="717" inkscape:window-width="1024" inkscape:pageshadow="2" inkscape:pageopacity="0.0" guidetolerance="10.0" gridtolerance="10.0" objecttolerance="10.0" borderopacity="1.0" bordercolor="#666666" pagecolor="#ffffff" id="base" inkscape:zoom="1" inkscape:cx="185.99609" inkscape:cy="331.64173" inkscape:window-x="-4" inkscape:window-y="-4" inkscape:current-layer="svg2"/>
  <path style="fill:#ffe6d5;fill-rule:evenodd;stroke:#12b21a;stroke-width:2;stroke-linecap:round;stroke-linejoin:miter;stroke-miterlimit:4;stroke-dasharray:4,2,1,2;stroke-opacity:0.61176473;stroke-dashoffset:0" d="M 61,51.5 C 60.554423,53.728856 61.514289,56.514289 63,58 C 65.165885,60.165885 62.654552,61.577276 65.5,63 C 68.441899,64.47095 68.815289,64.761157 69.5,67.5 C 70.21103,70.344119 72.975036,69.099858 73.5,67 C 74.099546,64.601817 75.368552,63.02579 76,60.5 C 76.228935,59.584259 72.678014,57.339007 72,57 C 70.430562,56.215281 71.847887,50.608451 72,50 C 72.267067,48.931731 80.000707,48.749646 81.5,48 C 83.179186,47.160407 84.691831,44.616337 85.5,43 C 86.414772,41.170456 89.792777,39.707223 91,38.5 C 92.494787,37.005213 96.013091,36.996727 98,36.5 C 102.12389,35.469028 105.03867,34.490333 109,33.5 C 111.60473,32.848817 112.56782,31.608046 115,31 C 117.65866,30.335335 119.78518,30 122.5,30 C 125.0849,30 127.70916,30.072711 130,29.5 C 133.26175,28.684563 136.47722,26.04555 137.5,24 C 138.69676,21.606483 140.66935,21.582663 143,21 C 145.36891,20.407774 148.93062,21.086124 151,21.5 C 154.23531,22.147063 154.28254,23.63017 155,26.5 C 155.90392,30.115683 153.67589,30.456027 151.5,31 C 146.2061,32.323475 151.54084,34.5 154,34.5 C 156.7463,34.5 160.00757,34.501893 162,35 C 163.56508,35.39127 165.15241,38.152412 166,39 C 167.7844,40.784403 168.45,43.750007 169,46.5 C 169.70647,50.032361 171,51.000589 171,55 C 171,57.5849 170.92729,60.209157 171.5,62.5 C 172.31554,65.762159 174.2564,67.256404 176,69 C 176.95243,69.952429 184.66381,69 186,69 C 188.86046,69 191.1187,68.5 194,68.5 C 196.01713,68.5 198.2573,67.5 201,67.5 C 205,67.5 209,67.5 213,67.5 C 217.93313,67.5 217.89659,67.103414 221,64 C 222.7873,62.212698 221.84548,60.327262 224.5,59 C 226.51079,57.994603 229.43801,56.890498 231,56.5 C 233.763,55.809251 236.09047,53.5 240,53.5 C 241.9235,53.5 244.18751,48.624977 244.5,48 C 245.7847,45.430602 249.0813,44.064024 250.5,43 C 252.81565,41.26326 255.55058,38.449415 257,37 C 259.38954,34.610461 260.81943,32.840287 263.5,31.5 C 267.12672,29.686641 269.60533,28.289341 271,25.5 C 272.25893,22.982149 275.28775,22.356124 277,21.5 C 278.68655,20.656726 274.33333,18.833333 273,17.5 C 271.97246,16.472462 266.08396,15.895991 270.5,17 C 273.10585,17.651462 274.33133,19.331325 275.5,20.5 C 277.72469,22.724687 280.82358,19.676419 282,18.5 C 283.75248,16.747519 284.81553,16.5 288,16.5 C 290.5,16.5 293,16.5 295.5,16.5 C 298.86869,16.5 301.0749,17.537451 304,19 C 306.71433,20.357164 308.52791,22.027906 310,23.5 C 311.63207,25.132066 313.67819,26.089097 315.5,27 C 317.73545,28.117723 321.16539,28.041349 323,28.5 C 325.729,29.182251 328.85807,28.714518 332,29.5 C 335.67559,30.418897 335.4556,30.455601 337.5,32.5 C 338.64562,33.645621 338.5,36.772352 338.5,39 C 338.5,41.666667 338.5,44.333333 338.5,47 C 338.5,49.293906 339,52.017869 339,54.5 C 339,55.860769 343.37765,57.377645 344.5,58.5 C 346.47428,60.474281 345.79262,60.914751 347.5,57.5 C 347.7849,56.93021 352.31778,54.341108 353,54 C 355.56778,52.716111 357.63017,52.369834 359,51 C 360.69795,49.302054 363.36436,47.567821 359.5,49.5 C 357.07252,50.713742 355.78837,51.711627 354.5,53 C 353.42302,54.076981 350.2458,55.254198 349,56.5 C 347.00824,58.491762 346.16453,59.335468 344.5,61 C 342.94547,62.55453 342.5,64.900574 342.5,67.5 C 342.5,68.673054 340.99836,72.006578 340.5,74 C 339.92917,76.283322 337.28137,78.140684 341,80 C 344.10113,81.550566 344.66182,80.323648 346,83 C 346.51498,84.029958 348.62946,86.629457 349.5,87.5 C 351.18793,89.187926 352.02598,91.012988 355,92.5 C 355.12704,92.563521 357.88995,97.389952 358.5,98 C 360.38131,99.881307 362.82347,101.66173 364.5,102.5 C 366.67051,103.58525 365.41475,107.32949 366.5,109.5 C 367.35903,111.21806 368,114.91155 368,117 C 368,119.83333 368,122.66667 368,125.5 C 368,129.11534 367.22251,131.77749 365,134 C 363.41978,135.58022 361.18133,136.31867 359.5,138 C 357.28191,140.21809 356.13575,140.2285 355,142.5 C 353.98682,144.52636 353.22833,145.0867 352.5,148 C 351.77642,150.89434 352.63672,153.22655 351.5,155.5 C 350.32076,157.85847 349,157.81612 349,161 C 349,164.94541 348.83587,165.33587 346.5,163 C 344.97042,161.47042 343.11679,160.11679 341.5,158.5 C 339.93881,156.93881 337.54007,159.45993 336.5,160.5 C 334.16533,162.83467 330.10074,160.96766 329,159.5 C 328.57574,158.93431 328,158.5 327.5,158 C 325.16319,155.66319 323.4934,156.5132 322.5,158.5 C 320.99831,161.50337 323.56493,164.14123 319,163 C 317.74637,162.68659 315.06135,159.06135 314,158 C 311.50581,155.50581 311.10722,155.5 307.5,155.5 C 304.891,155.5 302.33696,155.41576 300,156 C 297.81189,156.54703 296.08226,158.85444 293.5,159.5 C 291.64747,159.96313 289.03439,160 286.5,160 C 282.50833,160 277.9611,158.71853 275.5,162 C 274.43589,163.41881 271.58303,164.91697 270.5,166 C 269.16538,167.33462 271.75366,172.01464 272,173 C 272.50717,175.02867 272.5,177.37111 272.5,180 C 272.5,182.66667 272.5,185.33333 272.5,188 C 272.5,193.41199 266.83004,190.5 262.5,190.5 C 258.66667,190.5 254.83333,190.5 251,190.5 C 246.88569,190.5 242.91596,189.08404 240.5,191.5 C 239.2307,192.7693 239.30277,188.10555 238.5,186.5 C 237.52697,184.55394 236.57559,183.30236 236,181 C 235.33172,178.32686 232.57886,176.81545 232,174.5 C 231.56849,172.77395 228.95246,170.95246 228,170 C 226.73446,168.73446 225.30801,166.11602 224.5,164.5 C 223.33364,162.16728 221.63011,160.59758 219.5,159 C 218.84892,158.51169 216.1909,154.3818 215.5,153 C 214.38689,150.77378 212.93158,149.36316 212,147.5 C 210.88362,145.26725 210.17291,144.17291 208.5,142.5 C 207.14433,141.14433 203.62005,139.90501 202,139.5 C 198.69762,138.67441 195.30698,136.80698 193,134.5 C 190.67442,132.17442 189.80646,131.61292 188.5,129 C 187.4527,126.90539 185.2618,125.7618 183.5,124 C 181.24311,121.74311 180.74764,121.5 176.5,121.5 C 173.43393,121.5 170.93749,122 168,122 C 164.91825,122 161.96046,122.00659 159,122.5 C 156.50497,122.91584 153.53946,122.5 151,122.5 C 147.35029,122.5 143.83147,123.1236 141,121 C 138.61635,119.21226 138.11093,117.65273 135.5,117 C 133.17444,116.41861 129.89446,117 127.5,117 C 124.33333,117 121.16667,117 118,117 C 114.89929,117 111.44527,115.61132 109,115 C 107.23286,114.55821 105.7879,112.5 102,112.5 C 98.333333,112.5 94.666667,112.5 91,112.5 C 88.85115,112.5 85.831392,111.1657 83.5,110 C 80.798713,108.64936 78.975943,108.85696 76.5,107 C 74.732821,105.67462 73.83215,104.1643 73,102.5 C 71.379758,99.259517 76.510112,99.5 78.5,99.5 C 80.130433,99.5 80.551885,95.292459 81,93.5 C 81.855105,90.079579 80.067298,89.067298 78.5,87.5 C 76.486502,85.486502 75.532179,84.564359 74,81.5 C 72.722511,78.945021 70.5,79.298881 70.5,75 C 70.5,72.12343 71,70.54577 71,68 C 71,67.486612 65.643379,62.286759 65,61 C 63.675769,58.351539 63.084402,56.168805 62,54 C 61.598614,53.197227 61.333333,52.333333 61,51.5 z " id="Uttara"/>
  <path style="fill:#ffe6d5;fill-rule:evenodd;stroke:#12b21a;stroke-width:2;stroke-linecap:round;stroke-linejoin:miter;stroke-miterlimit:4;stroke-dasharray:4, 2, 1, 2;stroke-dashoffset:0;stroke-opacity:0.61176471" d="M 239.5,191.5 C 240.25886,192.92534 239.02283,196.90868 238.5,199 C 238.19159,200.23364 234.69944,201.80056 234,202.5 C 232.47236,204.02764 231.78762,205.21238 230.5,206.5 C 228.97236,208.02764 228.78762,209.71238 227.5,211 C 226.67638,211.82362 226.27749,215.89004 226,217 C 225.44783,219.20867 225,222.67883 225,225.5 C 225,227.9187 224.5,231.25305 224.5,234 C 224.5,236.66667 224.5,239.33333 224.5,242 C 224.5,244.5 224.5,247 224.5,249.5 C 224.5,252.19967 226.2768,252.4464 225,255 C 223.74192,257.51617 222.344,256.12398 221.5,259.5 C 220.44901,263.70395 230.16667,259.5 234.5,259.5 C 237.61252,259.5 240,257.43537 240,261.5 C 240,264.744 240.88193,267.40963 241.5,270.5 C 242.11775,273.58876 242.95161,276.75805 243.5,279.5 C 243.94348,281.71738 243.60265,284.91061 244,286.5 C 244.81928,289.77711 245.4813,290.94389 246.5,294 C 247.18428,296.05285 249.77026,298.67565 250.5,300.5 C 251.63161,303.32903 252.5,305.09153 252.5,308.5 C 252.5,313.02009 252.45228,313.52386 248.5,315.5 C 246.09951,316.70024 243.67835,317.82165 242,319.5 C 239.20523,322.29477 238.5,323.92344 238.5,328 C 238.5,331.78205 237.84038,334.14905 236.5,337.5 C 235.58042,339.79895 235.45714,342.17142 235,344 C 234.41161,346.35356 235,349.55881 235,352 C 235,355.1088 234.55772,357.26913 234,359.5 C 233.23184,362.57264 233,364.61669 233,368 C 233,372.03113 241.39445,367.69722 245,369.5 C 245.66667,369.83333 246.33333,370.16667 247,370.5 C 250.95153,372.47576 254.36969,374.43484 258.5,376.5 C 262.23829,378.36915 265.40947,380.20473 269,382 C 272.61074,383.80537 277.52954,385.5 281.5,385.5 C 285.87494,385.5 290.45586,386.5 295,386.5 C 298.46422,386.5 299.33828,385.66172 301.5,383.5 C 303.18269,381.81731 304.44188,380.98547 306.5,381.5 C 308.94682,382.1117 305.5,386.47788 305.5,389 C 305.5,392.14462 311.996,392 314.5,392 C 317.5,392 320.5,392 323.5,392 C 327.13453,392 328.31363,392.18637 330,390.5 C 331.54697,388.95303 328.08082,385.58082 327.5,385 C 324.87808,382.37808 324,381.79029 324,378 C 324,375.67092 327.33178,374.91706 329,374.5 C 330.76759,374.0581 330.77931,370.44139 331.5,369 C 332.86926,366.26149 335.6939,366.72438 336.5,363.5 C 336.96222,361.65113 340.19899,359.60201 341,358 C 342.72856,354.54287 339.34045,353.17022 337,352 C 334.34342,350.67171 337.60974,346.89026 338.5,346 C 339.92413,344.57587 341.73214,341.77976 342.5,340.5 C 344.18089,337.69852 345.86817,336.52732 346.5,334 C 347.17778,331.28887 355.22366,332 357.5,332 C 361.06873,332 367.54128,332 369.5,332 C 371.72361,332 370.17417,327.56457 371,325.5 C 372.01024,322.97439 372.91258,321.08742 375,319 C 376.6668,317.3332 378.63775,317.36225 380,316 C 382.06775,313.93225 383.66271,312.37797 385.5,311 C 388.37488,308.84384 387.74588,307.51647 388.5,304.5 C 388.95578,302.67687 391.04876,300.80496 391.5,299 C 392.09213,296.63149 392,294.01402 392,291.5 C 392,288.18268 394,288.06028 394,284 C 394,280.79827 395.42592,278.79632 396,276.5 C 396.68618,273.75528 397.46553,272.52585 399.5,271 C 401.18034,269.73974 400.5,265.99828 400.5,264 C 400.5,261.58962 401,258.25337 401,255.5 C 401,252.47171 401.5,250.04433 401.5,247 C 401.5,243.88826 401.26725,242.23275 403,240.5 C 406.04627,237.45373 406.78565,237.92824 406,234 C 405.44617,231.23083 403.72291,231.60837 404.5,228.5 C 405.08111,226.17555 404.5,222.92555 404.5,220.5 C 404.5,217.66667 404.5,214.83333 404.5,212 C 404.5,208.97055 405.02411,206.52411 403,204.5 C 401.09674,202.59674 399.80856,202.5 396.5,202.5 C 395.1508,202.5 392.38181,198.00908 392,197.5 C 390.5429,195.5572 388.41381,194.38508 387,192.5 C 385.38743,190.34991 383.96755,187.93511 383,186 C 381.98817,183.97633 380.33485,182.6697 379.5,181 C 378.45403,178.90806 376.85598,177.35598 375.5,176 C 372.56564,173.06564 372.46729,172.86917 371.5,169 C 370.76997,166.07988 370.40601,164.31203 369.5,162.5 C 367.87164,159.24327 365.50665,159.62002 363,161.5 C 360.90181,163.07364 358.56084,163.43916 357,165 C 355.09646,166.90354 353.68206,167.27176 353,170 C 352.48234,172.07065 349.95452,166.90904 349,165 C 348.55281,164.10561 348.31294,163.62588 348,163 C 345.98412,162.19365 343.46132,161.46132 342,160 C 341.85787,159.85787 338.53141,157.45812 337,159.5 C 336.18342,160.58878 330.89754,163.79508 329,160 C 328.7825,159.56499 324.32562,154.84877 323,157.5 C 322.68412,158.13177 322.11822,163.05911 320,162 C 317.51627,160.75813 317.77873,159.38936 315,158 C 312.74048,156.87024 312.61276,155.5 309,155.5 C 305.26534,155.5 302.66427,155.41786 299.5,157 C 295.41478,159.04261 291.99157,159 287,159 C 283.69729,159 278.21513,158.28487 276,160.5 C 274.73003,161.76997 272.4659,163.0682 271.5,165 C 270.54428,166.91143 270.19247,168.38493 271.5,171 C 272.83264,173.66528 272,175.84132 272,179 C 272,181.83333 272,184.66667 272,187.5 C 272,192.44107 268.34154,190 264,190 C 259.89017,190 255.05072,189.32488 251,190 C 250.62208,190.06299 239.34215,191.18429 239.5,191.5 z " id="Badda"/>
  <path style="fill:#ffe6d5;fill-rule:evenodd;stroke:#12b21a;stroke-width:2;stroke-linecap:round;stroke-linejoin:miter;stroke-miterlimit:4;stroke-dasharray:4, 2, 1, 2;stroke-dashoffset:0;stroke-opacity:0.61176471" d="M 153.5,122.5 C 153.5,122.85048 153.5,127.84367 153.5,131 C 153.5,134.85347 153.74505,135.75495 151.5,138 C 149.74027,139.75973 149.0071,143.47158 148.5,145.5 C 147.81418,148.2433 148.06927,150.72294 147.5,153 C 146.92078,155.31689 144.4351,158.2532 143.5,159.5 C 141.77221,161.80372 141,166.12391 141,169 C 141,172.5 141,176 141,179.5 C 141,182.38874 140.85604,185.42415 141.5,188 C 142.18552,190.74209 144.81711,194.26842 145.5,197 C 146.09399,199.37596 146,201.90191 146,204.5 C 146,207.55964 146.04959,210.40083 145,212.5 C 143.51879,215.46243 143.63381,218.19713 143,222 C 142.44534,225.32796 142.90506,228.87342 144.5,231 C 145.44687,232.2625 150.44348,231.5 152,231.5 C 153.53659,231.5 153.96341,228.5 155.5,228.5 C 158,228.5 155.5,233.5 155.5,236 C 155.5,238.86148 156,242.01087 156,245 C 156,248.66667 156,252.33333 156,256 C 156,260.16667 156,264.33333 156,268.5 C 156,272.18894 155.88596,275.65787 157,279 C 158.28565,282.85695 159.6851,284.24039 160.5,287.5 C 160.75937,288.53749 171.82322,288.3872 172.5,288.5 C 174.17655,288.77942 172.4802,284.85974 173.5,283.5 C 175.55079,280.76561 177.7337,280.0652 178.5,277 C 179.16771,274.32916 180.89087,272.54565 181.5,269.5 C 182.00598,266.97012 182,265.24473 182,262.5 C 182,260.22678 183.62076,258.37924 185,257 C 187.91526,254.08474 191.26148,254 195.5,254 C 197.57842,254 202.18585,256.21151 203.5,257 C 206.31759,258.69055 208.00234,255.49531 208.5,254.5 C 209.38293,252.73415 217.68387,257.78065 219,258 C 222.50179,258.58363 224,259.51325 224,255.5 C 224,253.55931 224.5,250.78013 224.5,248.5 C 224.5,245.16667 224.5,241.83333 224.5,238.5 C 224.5,234 224.5,229.5 224.5,225 C 224.5,221.35022 225.5,218.3956 225.5,215 C 225.5,211.98321 228.4316,212.77362 229,210.5 C 229.93322,206.76711 230.95507,205.2837 234,203 C 236.74768,200.93924 236.76864,197.61568 240,196 C 240.51819,195.7409 238,188.30218 238,187.5 C 238,184.49104 237.46997,180.96997 235.5,179 C 232.67879,176.17879 231.51631,173.51631 229,171 C 226.60495,168.60495 224.86151,165.22301 223.5,162.5 C 221.74051,158.98102 218.95267,157.81066 218,154 C 217.43931,151.75725 212.91553,148.41553 211.5,147 C 209.25516,144.75516 208.58964,143.08964 206.5,141 C 204.7347,139.2347 202.19616,139.34808 200.5,138.5 C 196.7046,136.6023 194.8788,135.3788 192,132.5 C 191.5,132 191,131.5 190.5,131 C 188.39124,128.89124 187.74909,127.24909 186,125.5 C 183.41987,122.91987 182.56225,123.6249 178.5,122 C 175.63169,120.85267 167.87533,122.5 165,122.5 C 162.26533,122.5 156.55392,121.88922 153.5,122.5 z " id="Cantonment" sodipodi:nodetypes="cssssssssssssssssssssssssssssssssssssssssssssssssssssc"/>
  <path style="fill:#ffe6d5;fill-rule:evenodd;stroke:#12b21a;stroke-width:2;stroke-linecap:round;stroke-linejoin:miter;stroke-miterlimit:4;stroke-dasharray:4, 2, 1, 2;stroke-dashoffset:0;stroke-opacity:0.61176471" d="M 76,106 C 76,107.12192 76,111.36016 76,114 C 76,116.5849 76.072711,119.20916 75.5,121.5 C 75.063986,123.24406 69.768423,124.68289 68.5,125 C 67.401888,125.27453 67,130.02464 67,131.5 C 67,133.71932 65.841665,136.31667 65,138 C 63.502033,140.99593 65.310026,141.84499 62,143.5 C 60.424166,144.28792 56.308271,143.5 54.5,143.5 C 51.90264,143.5 48.847289,143.53818 47,144 C 46.048517,144.23787 43.666034,148.33397 43,149 C 41.115992,150.88401 38.161615,151.33839 36.5,153 C 33.454961,156.04504 34.7906,156.5812 36.5,160 C 38.196719,163.39344 38.858107,163.51858 41.5,165.5 C 43.61332,167.08499 43,170.28009 43,173 C 43,175.32966 41.381768,176.65764 40,178.5 C 38.546757,180.43766 37.559968,183.76013 37,186 C 36.422546,188.30982 37,191.61438 37,194 C 37,196.76049 36.392634,198.57054 37,201 C 37.321564,202.28625 40.46071,204.46071 41.5,205.5 C 43.279824,207.27982 44.789878,208.15951 45.5,211 C 46.291354,214.16542 50.116047,211.03581 50.5,209.5 C 51.238225,206.5471 53.899645,206.10036 56,204 C 57.300837,202.69916 61.642598,203.5 63.5,203.5 C 64.629911,203.5 63.717156,209.63138 63.5,210.5 C 62.814305,213.24278 64.639895,212.6114 69.5,214 C 70.158008,214.188 70.417799,220.6712 70.5,221 C 71.127696,223.51079 70.799737,225.69895 71.5,228.5 C 72.17506,231.20024 72.700235,233.19906 72,236 C 71.364265,238.54294 69,237.80397 69,241.5 C 69,245.09654 71,247.75243 71,252 C 71,254.19569 71.862673,256.36267 73.5,258 C 74.938908,259.43891 75.606295,262.92518 76,264.5 C 76.514496,266.55798 72.014496,266.94202 71.5,269 C 70.955266,271.17894 70.436781,273.24712 71,275.5 C 71.817557,278.77023 74.319832,282.63966 75.5,285 C 76.874319,287.74864 82.870353,285 85,285 C 86.80529,285 92.780593,279.3597 94.5,278.5 C 95.166667,278.16667 95.833333,277.83333 96.5,277.5 C 99.542252,275.97887 102.08855,273.70572 104.5,272.5 C 107.00585,271.24708 108.75279,269.64944 112,269 C 115.52678,268.29464 119.92638,269 123.5,269 C 126.93996,269 127.89569,268.20863 129,266 C 130.08892,263.82216 131.02662,261.94677 132,260 C 133.24253,257.51494 137.4747,258.60506 140.5,258 C 144.58459,257.18308 149.7567,258 154,258 C 158.4046,258 157.99274,257.97097 157,254 C 156.35841,251.43362 156,248.94922 156,245.5 C 156,243 156,240.5 156,238 C 156,235.33333 156,232.66667 156,230 C 156,226.04164 153.09822,228.80355 152.5,230 C 152.04648,230.90704 145.6448,231 144.5,231 C 142.4727,231 143.79242,226.66967 143.5,225.5 C 142.92462,223.19847 143,221.57406 143,218.5 C 143,215.43104 143.8592,213.56321 144.5,211 C 145.16589,208.33643 145.5,206.10531 145.5,203 C 145.5,200.33333 145.5,197.66667 145.5,195 C 145.5,193.46736 141.76015,189.5203 141,188 C 139.95676,185.91353 141,180.91865 141,178.5 C 141,176 141,173.5 141,171 C 141,168.31805 141.0238,164.90479 141.5,163 C 142.1232,160.50722 144.03275,156.96725 145,156 C 147.04289,153.95711 146.82069,151.21724 147.5,148.5 C 147.95629,146.67485 148.0742,143.70318 148.5,142 C 149.20815,139.16741 150.99596,137.50674 152.5,135 C 154.00065,132.49892 152.5,131.54444 152.5,128 C 152.5,124.18104 153.23939,123.30985 150,122.5 C 146.85958,121.7149 144.79797,123.29797 142.5,121 C 140.26001,118.76001 137.79538,118.14769 134.5,116.5 C 133.27192,115.88596 129.65977,117 127.5,117 C 123.67647,117 118.40369,115.5 114.5,115.5 C 110.58426,115.5 108.34428,113.21107 105.5,112.5 C 102.93574,111.85894 102.36278,113 99,113 C 96.5,113 94,111 91.5,111 C 88.046622,111 85.795643,111.22173 83.5,109.5 C 80.729388,107.42204 80.103823,107.64153 76,106 z " id="Pallabi" sodipodi:nodetypes="csssssssssssssssssssssssssssssssssssssssssssssssssssssssssssssssssssssssssc"/>
  <path style="fill:#ffe6d5;fill-rule:evenodd;stroke:#12b21a;stroke-width:2;stroke-linecap:round;stroke-linejoin:miter;stroke-miterlimit:4;stroke-dasharray:4, 2, 1, 2;stroke-dashoffset:0;stroke-opacity:0.61176471" d="M 47.5,213.5 C 46.766406,214.94474 42.587016,216.38398 41,218.5 C 39.5795,220.394 38.663041,220.67392 37.5,223 C 36.352882,225.29424 36.153467,225.88613 35.5,228.5 C 34.952714,230.68914 37.544069,232.54407 38.5,233.5 C 39.973469,234.97347 39.5,237.56843 39.5,240 C 39.5,243 39.5,246 39.5,249 C 39.5,251.83333 39.5,254.66667 39.5,257.5 C 39.5,260.25911 39.558538,262.85123 40,265.5 C 40.444904,268.16942 43.188762,270.87752 44,272.5 C 45.128211,274.75642 46.5,277.30251 46.5,280 C 46.5,283.9541 46.687983,285.58269 44.5,288.5 C 43.29979,290.10028 40.579679,290.92032 39.5,292 C 38.552915,292.94708 39.5,299.63757 39.5,301 C 39.5,304 39.5,307 39.5,310 C 39.5,313.82838 37.305196,315.59307 35.5,318 C 34.233664,319.68845 34.556302,322.27479 34,324.5 C 33.128734,327.98507 31.5,327.21091 31.5,331.5 C 31.5,334.25402 31.38569,337.04276 32,339.5 C 32.81193,342.74772 33.795766,344.43898 31.5,347.5 C 29.534358,350.12086 28.609571,352.83218 31.5,355 C 33.144672,356.2335 34.779764,356.81994 37.5,357.5 C 41.688163,358.54704 45.597097,360.02427 49.5,361 C 52.314553,361.70364 54.42273,359.30908 55,357 C 55.590283,354.63887 59.001141,353.62471 61.5,353 C 62.299178,352.80021 63.276818,346.89273 63.5,346 C 64.090197,343.63921 65.5,343.32754 65.5,340 C 65.5,335.31451 69.0731,340.7924 69.5,342.5 C 69.976685,344.40674 71.205676,347.91135 72,349.5 C 73.166494,351.83299 77.215176,348.71393 79,348 C 81.541627,346.98335 86.753217,348 89.5,348 C 92.44491,348 94.739198,344.7608 96.5,343 C 99.567319,339.93268 99.988916,340.02217 102,336 C 103.32246,333.35507 105.78013,330.30497 109,329.5 C 113.45761,328.3856 117.69214,328.30786 120,326 C 122.50407,323.49593 125.02748,322.47939 127,321 C 129.51894,319.11079 127.25416,316.25416 125.5,314.5 C 123.63883,312.63883 123.5,309.94664 123.5,307 C 123.5,304.42862 119.92843,301.96422 118,301 C 116.21662,300.10831 113.12734,297.12734 111.5,295.5 C 109.64895,293.64895 110,291.649 110,288.5 C 110,285.96949 113,283.74817 113,280.5 C 113,277.83448 109.62382,276.12382 107.5,274 C 105.24292,271.74292 104.14902,271.35098 101.5,274 C 99.823709,275.67629 96.912675,276.58732 95,278.5 C 92.944616,280.55538 89.941325,282.26467 87,283 C 84.317068,283.67073 84.591663,285.85208 82,286.5 C 77.967805,287.50805 75.476859,283.97686 73,281.5 C 70.978539,279.47854 70.5,278.13368 70.5,275 C 70.5,272.1992 70.548404,269.90319 71.5,268 C 72.412334,266.17533 75.457878,266.16849 76,264 C 76.675342,261.29863 74.573058,258.79223 74,256.5 C 73.263993,253.55597 72,253.75634 72,250 C 72,248.26344 70.079528,245.81811 69.5,243.5 C 68.5044,239.5176 73,239.75907 73,236 C 73,233.5 71,231 71,228.5 C 71,225.83333 71,223.16667 71,220.5 C 71,217.03468 69.975749,216.47575 68,214.5 C 65.452452,211.95245 65.09956,212.89824 64,208.5 C 63.120227,204.98091 63.034567,204.38364 59.5,203.5 C 56.48409,202.74602 53.433011,204.56699 52,206 C 50.094884,207.90512 51.618232,208.84544 49,209.5 C 48.175537,209.70612 47.666667,212.66667 47.5,213.5 z " id="Mirpur" sodipodi:nodetypes="csssssssssssssssssssssssssssssssssssssssssssssssssssssssssssssc"/>
  <path style="fill:#ffe6d5;fill-rule:evenodd;stroke:#12b21a;stroke-width:2;stroke-linecap:round;stroke-linejoin:miter;stroke-miterlimit:4;stroke-dasharray:4, 2, 1, 2;stroke-dashoffset:0;stroke-opacity:0.61176471" d="M 103,334 C 104.08952,334.81714 107.60435,335.77609 110.5,336.5 C 113.08613,337.14653 115.75492,337 118.5,337 C 121.54617,337 121.06097,334.87807 122,333 C 123.1169,330.76621 128.8569,331.5 131,331.5 C 134.88648,331.5 134.16519,332.16075 135,335.5 C 135.65991,338.13964 138,338.12797 138,342 C 138,343.34557 139.62469,346.99877 140,348.5 C 140.60136,350.90545 141.32302,353.29207 142,356 C 142.78396,359.13584 144,359.56939 144,363.5 C 144,366.0849 143.92729,368.70916 144.5,371 C 145.25705,374.02819 145.73464,376.93856 146.5,380 C 147.7171,384.86839 147.8761,381.80975 149,379 C 150.1839,376.04025 151.69372,376.05105 155,375.5 C 157.65085,375.05819 154.79815,369.9037 156,367.5 C 156.51242,366.47515 162.15825,364.6367 162.5,364.5 C 163.06436,364.27425 163.76796,359.16021 164,358 C 164.61049,354.94756 164.06692,353.41077 165.5,351.5 C 166.65216,349.96379 171.66206,350.33794 173.5,348.5 C 175.2123,346.7877 178.16223,345.87833 180,344.5 C 182.25272,342.81046 182.24247,342.01506 183.5,339.5 C 184.53725,337.42551 184,334.31815 184,332 C 184,329.02002 184.5,327.50447 184.5,324.5 C 184.5,321.42669 185.5,319.07663 185.5,316 C 185.5,313.23839 186.49643,310.51428 187,308.5 C 187.74756,305.50976 188.25655,303.47381 189,300.5 C 189.6486,297.9056 189.53582,294.78507 190,292 C 190.496,289.02403 190.24808,286.00383 191.5,283.5 C 192.58683,281.32634 193.7223,279.5554 194.5,278 C 194.826,277.348 203.46758,278 204.5,278 C 204.93506,278 206.40103,272.69793 206.5,272.5 C 207.89217,269.71567 208.22563,269.09747 209,266 C 209.66666,263.33337 209.54325,261.5865 208.5,259.5 C 207.50603,257.51206 205.23744,255.93436 203.5,255.5 C 200.26789,254.69197 197.78658,254.19664 195,253.5 C 192.32815,252.83204 189.02468,252.99383 187,253.5 C 184.51516,254.12121 184.26216,256.97567 183.5,258.5 C 182.43227,260.63545 182,261.64957 182,264.5 C 182,267.49406 181.85023,269.79954 181,271.5 C 179.98895,273.5221 178.86878,274.76244 178,276.5 C 176.95655,278.5869 176.2863,280.2137 175,281.5 C 173.11457,283.38543 173.43838,284.12324 172,287 C 171.40023,288.19955 165.76079,287.6902 165,287.5 C 164.33333,287.33333 163.66667,287.16667 163,287 C 161.18009,286.54502 158.91899,282.33798 158.5,281.5 C 157.34758,279.19516 156.5,278.57268 156.5,275.5 C 156.5,273 156.5,270.5 156.5,268 C 156.5,265.5 156.5,263 156.5,260.5 C 156.5,258.19775 155.16844,256.5 152.5,256.5 C 149.66667,256.5 146.83333,256.5 144,256.5 C 141.11701,256.5 139.13469,256.68265 137.5,257.5 C 134.85315,258.82343 133.32369,258.67631 131.5,260.5 C 130.01944,261.98056 129.52304,265.35772 128,266.5 C 126.31837,267.76122 123.79039,267.5 121,267.5 C 118.5,267.5 116,267.5 113.5,267.5 C 110.47704,267.5 108.52507,269.98747 106.5,271 C 104.2004,272.1498 109.08459,273.58459 110,274.5 C 111.54464,276.04464 113,276.73674 113,280 C 113,283.21883 112.51902,283.98098 111,285.5 C 109.72015,286.77985 110.5,291.27575 110.5,293 C 110.5,294.46726 115.26312,296.88156 116.5,297.5 C 117.72907,298.11454 120.2843,301.7843 121.5,303 C 123.68902,305.18902 123.10918,305.93672 124,309.5 C 124.37117,310.98466 125.90202,313.80405 126.5,315 C 127.75418,317.50835 127.74697,319.50606 126.5,322 C 125.92899,323.14202 121.44242,324.52879 120.5,325 C 118.09024,326.20488 117.85078,328 114.5,328 C 111.28375,328 109.61844,328.19078 107,329.5 C 105.46398,330.26801 103.96184,332.39693 103,334 z " id="Kafrul" sodipodi:nodetypes="csssssssssssssssssssssssssssssssssssssssssssssssssssssssssssssssssssc"/>
  <path style="fill:#ffe6d5;fill-rule:evenodd;stroke:#12b21a;stroke-width:2;stroke-linecap:round;stroke-linejoin:miter;stroke-miterlimit:4;stroke-dasharray:4, 2, 1, 2;stroke-dashoffset:0;stroke-opacity:0.61176471" d="M 47,360 C 44.685793,361.1571 49,364.91264 49,367.5 C 49,371.31785 48.415324,371.31351 45.5,373.5 C 43.325577,375.13082 42.045118,375.93984 40.5,378 C 39.210441,379.71941 38.489069,381.02186 37.5,383 C 36.429967,385.14007 36.558654,387.38269 35.5,389.5 C 34.602221,391.29556 34.229916,393.54017 33.5,395 C 32.766197,396.46761 30.337797,398.6622 29.5,399.5 C 27.643741,401.35626 25.58194,401.95903 23.5,403 C 21.423678,404.03816 22.641476,407.85852 21,409.5 C 19.78784,410.71216 18.451485,413.69406 18,415.5 C 17.073764,419.20494 19.67246,419.91811 22,420.5 C 24.570185,421.14255 28.32706,420.5 31,420.5 C 33.767539,420.5 35.66183,422.5 39,422.5 C 42.542689,422.5 43.764141,423.38207 46,424.5 C 47.414919,425.20746 47.606829,430.10683 48.5,431 C 49.93939,432.43939 47.616421,437.26716 47.5,437.5 C 46.64678,439.20644 43.861982,441.0345 42,441.5 C 38.847878,442.28803 37.013721,441.99177 34.5,443.5 C 32.483904,444.70966 30.666024,445.9453 29.5,447.5 C 28.581175,448.7251 24.013817,448 22.5,448 C 20.077466,448 16.781743,447.5 14,447.5 C 8.6576385,447.5 13.506329,447.5 16,447.5 C 18.833333,447.5 21.666667,447.5 24.5,447.5 C 27.39964,447.5 29.507903,447.49605 31.5,446.5 C 32.191049,446.15448 35.08815,442.3237 35.5,441.5 C 36.367626,439.76475 41.050261,440 43,440 C 46.484705,440 46.466945,439.06611 47.5,437 C 48.949585,434.10083 50.740463,434.5 54,434.5 C 56.869023,434.5 58.933413,434.28329 60.5,433.5 C 61.714218,432.89289 61.663897,427.84441 62,426.5 C 62.58673,424.15308 63.187884,423 66,423 C 68.65139,423 71.206026,425.20603 72.5,426.5 C 73.817616,427.81762 75.692246,424.45194 77.5,424 C 78.258702,423.81032 80.203535,427.32412 83.5,426.5 C 86.455909,425.76102 86.571368,425.23216 89.5,424.5 C 93.371788,423.53205 95.899736,425.22493 99,426 C 100.10752,426.27688 100.5,431.5307 100.5,433 C 100.5,436.79576 100.81895,436.5 104.5,436.5 C 107,436.5 109.5,436.5 112,436.5 C 115,436.5 118,436.5 121,436.5 C 125.28699,436.5 122.16878,435.16878 120.5,433.5 C 119.52025,432.52025 118.59829,429.69657 118,428.5 C 116.98318,426.46635 114.85109,424.35109 113,422.5 C 111.53574,421.03574 110.42559,418.35117 109.5,416.5 C 108.30487,414.10975 108.10398,412.79702 110.5,411 C 112.49556,409.50333 115.31295,407.84352 117,407 C 119.58652,405.70674 120.5614,404.4386 122.5,402.5 C 125.03162,399.96838 126.5,403.05047 126.5,398 C 126.5,396.73821 123.37128,393.74257 123,393 C 122.00081,391.00162 121.45574,389.41147 120.5,387.5 C 119.68355,385.86711 117.62547,384.12547 116.5,383 C 115.14154,381.64154 114.5,379.21069 114.5,376.5 C 114.5,374.66825 112.03918,372.6567 111.5,370.5 C 110.88855,368.0542 110.07954,366.31817 109.5,364 C 108.88952,361.55808 108.11222,360.44888 107.5,358 C 106.93686,355.74742 112.699,355 114,355 C 119.22878,355 121.09853,352.2681 126,352 C 128.75636,351.84923 133.17893,351.68997 136,349 C 138.88345,346.25056 141.30036,349.10073 139.5,345.5 C 138.52037,343.54073 137.02731,341.10926 136.5,339 C 135.88603,336.54414 134.10123,335.40492 133.5,333 C 132.63261,329.53046 130.9373,329.5 127.5,329.5 C 125.53256,329.5 122.61834,332.88166 121.5,334 C 119.25602,336.24398 119.46514,336.30697 116,337 C 112.72595,337.65481 110.14257,336.32128 107.5,335 C 104.57449,333.53725 102.69781,334.80219 101.5,336 C 99.639255,337.86074 98.35526,337.78948 97,340.5 C 96.641022,341.21796 93.328069,343.17193 92.5,344 C 89.88566,346.61434 90.226341,347 86,347 C 83.333333,347 80.666667,347 78,347 C 75.055783,347 74.451417,348.38715 72,349 C 71.515778,349.12106 69.902723,345.40272 69,344.5 C 67.158483,342.65848 67.1476,341.0904 66.5,338.5 C 65.983859,336.43544 64.5,343.59282 64.5,344.5 C 64.5,346.41839 63.072818,349.35436 62.5,350.5 C 61.413919,352.67216 59.719418,353.28058 58.5,354.5 C 56.848591,356.15141 55.651409,356.34859 54,358 C 51.477689,360.52231 51.865975,360.97319 47,360 z " id="Mohammadpur" sodipodi:nodetypes="csssssssssssssssssssssssssssssssssssssssssssssssssssssssssssssssssssssssssssssc"/>
  <path style="fill:#ffe6d5;fill-rule:evenodd;stroke:#12b21a;stroke-width:2;stroke-linecap:round;stroke-linejoin:miter;stroke-miterlimit:4;stroke-dasharray:4, 2, 1, 2;stroke-dashoffset:0;stroke-opacity:0.61176471" d="M 171.5,424.5 C 171.81607,425.39748 171.41104,430.35584 171,432 C 170.49888,434.00448 170,435.51749 170,438.5 C 170,441.56259 170.05077,444.39846 169,446.5 C 167.72106,449.05788 166.92511,450.14977 166,452 C 164.76964,454.46072 163.54764,456.43648 162,458.5 C 160.24757,460.83657 158.5992,462.36773 157,464.5 C 154.83389,467.38814 156.63577,467.5 152,467.5 C 149.16667,467.5 146.33333,467.5 143.5,467.5 C 140.41751,467.5 138.71082,467.89459 136.5,469 C 134.31135,470.09433 132.58373,470.97907 130.5,471.5 C 128.98979,471.87755 128.26182,473.80955 127.5,474 C 126.10616,474.34846 123.36829,470.86829 122.5,470 C 120.6683,468.1683 119.0162,466.5081 117,465.5 C 116.01309,465.00654 116,461.61544 116,460 C 116,456.86577 115.15316,453.71171 118,453 C 121.49505,452.12624 122.44636,455.02682 125.5,453.5 C 128.99809,451.75095 128.07311,450 125.5,450 C 122.16759,450 121.68952,448.7581 121,446 C 120.41945,443.67781 120.9912,440.03521 121.5,438 C 122.04508,435.81967 119.5,432.76073 119.5,430.5 C 119.5,429.60596 117.19498,426.69498 116.5,426 C 114.41246,423.91246 114.41906,422.55875 112.5,420 C 111.25176,418.33568 110.46205,416.84818 110,415 C 109.30431,412.21722 110.63814,410.86186 112,409.5 C 113.93453,407.56547 116.45823,407.04177 118,405.5 C 120.17371,403.32629 120.8962,403.27595 124,402.5 C 128.51989,401.37003 126.65324,399.3831 128.5,404 C 129.80291,407.25727 131.69832,408.29327 132.5,411.5 C 132.89628,413.08511 135.83557,415 138,415 C 141.23809,415 142.29232,413.78076 144,412.5 C 145.89703,411.07722 148.38446,411.47111 150.5,412 C 153.31492,412.70373 155.7947,415.64735 158.5,417 C 161.3756,418.4378 162.78721,417.78721 165,420 C 167.47713,422.47713 167.37021,422.84808 171.5,424.5 z " id="Dhanmondi" sodipodi:nodetypes="csssssssssssssssssssssssssssssssssc"/>
  <path style="fill:#ffe6d5;fill-rule:evenodd;stroke:#12b21a;stroke-width:2;stroke-linecap:round;stroke-linejoin:miter;stroke-miterlimit:4;stroke-dasharray:4, 2, 1, 2;stroke-dashoffset:0;stroke-opacity:0.61176471" d="M 61.5,431.5 C 62.709477,432.54867 64.523518,435.51176 66.5,436.5 C 68.910752,437.70538 69,439.63833 69,442.5 C 69,445 69,447.5 69,450 C 69,453.61738 70.34293,455.21465 71,458.5 C 71.552746,461.26373 72.490207,463.98694 74,466 C 76.044844,468.72646 74.924069,471.06805 77.5,473 C 80.145008,474.98376 78.378975,477.09474 82,478 C 84.108591,478.52715 87.658188,477.83545 89,477.5 C 91.903722,476.77407 91.5,478.52592 91.5,481.5 C 91.5,483.4504 95.726669,484.05667 97.5,484.5 C 100.69322,485.29831 103.95619,485.9927 107,486.5 C 111.62463,487.27077 114.05537,488.27769 117.5,490 C 119.74041,491.1202 122.6442,491.41105 125,492 C 129.07728,493.01932 128.58467,493.16933 130,496 C 130.76737,497.53474 131.77027,492.4189 132,491.5 C 132.54508,489.31967 132,486.26073 132,484 C 132,480.96482 131.87141,478.74283 131,477 C 129.47626,473.95252 128.12962,473.81481 125.5,472.5 C 124.36481,471.93241 121.71443,468.21443 120.5,467 C 118.87609,465.37609 117.04634,463.68538 116.5,461.5 C 115.92139,459.18555 116.01688,456.93248 116.5,455 C 117.26909,451.92363 122.82895,454.5 126,454.5 C 129.3455,454.5 126.32934,450.32934 126,450 C 124.13172,448.13172 122.51689,448.53379 121,445.5 C 120.21208,443.92417 121,439.80827 121,438 C 121,434.87115 117.78347,436 115,436 C 111.33333,436 107.66667,436 104,436 C 99.527558,436 101.15078,434.80155 99.5,431.5 C 98.436445,429.37289 98.003901,427.0039 96.5,425.5 C 94.18172,423.18172 92.546993,422.11325 89,423 C 86.362459,423.65939 85.302171,425 82,425 C 77.568485,425 77.48297,423.61022 73.5,426 C 71.887131,426.96772 69.722868,423.22287 68.5,422 C 66.391069,419.89107 63.311479,424.18852 63,424.5 C 61.261965,426.23804 60.771669,427.85835 61.5,431.5 z " id="Hazaribagh"/>
  <path style="fill:#ffe6d5;fill-rule:evenodd;stroke:#12b21a;stroke-width:2;stroke-linecap:round;stroke-linejoin:miter;stroke-miterlimit:4;stroke-dasharray:4, 2, 1, 2;stroke-dashoffset:0;stroke-opacity:0.61176471" d="M 157,466.5 C 155.2736,468.2264 158.24455,471.74455 159.5,473 C 160.8406,474.3406 163.24965,476.4993 164,478 C 164.96383,479.92767 166.07018,481.03509 168,482 C 170.78185,483.39092 173.15867,484.244 175.5,486 C 177.29819,487.34864 179.73996,487 182.5,487 C 185.72668,487 188.0849,488.89622 190.5,489.5 C 193.72445,490.30611 193.38225,491.30888 191,492.5 C 189.28543,493.35728 188.23385,496.16538 187.5,498 C 186.26971,501.07572 185.3075,501.98063 188,504 C 189.80172,505.35129 193.8444,506.4222 195,507 C 195.4514,507.2257 196.78642,512.14568 197,513 C 197.67934,515.71737 196.86665,519.7667 196,521.5 C 195.00321,523.49358 195,528.43347 195,529 C 195,531.60875 190.33333,526.66667 188,525.5 C 185.63398,524.31699 182.3477,524.5 179,524.5 C 176.19227,524.5 173.58731,524.51746 171,524 C 167.94931,523.38986 165.10563,522.15141 162.5,521.5 C 158.74509,520.56127 157.38987,521.01982 155.5,518.5 C 153.65225,516.03633 150.17045,516.5 147,516.5 C 142.94505,516.5 140.17782,513.17782 138,511 C 137.49758,510.49758 137.60987,504.43948 137.5,504 C 137.02479,502.09915 133.50989,500.25742 132.5,499.5 C 130.80938,498.23204 130.33248,495.67007 131,493 C 131.67463,490.3015 132.0238,487.85718 132.5,485 C 132.91584,482.50497 132.5,479.53946 132.5,477 C 132.5,475.41533 128.99651,472.99651 128,472 C 125.91167,469.91167 133.75789,470.59684 136.5,469.5 C 141.26722,467.59311 145.81087,468 151,468 C 153.65067,468 154.48076,468.01154 157,466.5 z " id="Lalbagh"/>
  <path style="fill:#ffe6d5;fill-rule:evenodd;stroke:#12b21a;stroke-width:2;stroke-linecap:round;stroke-linejoin:miter;stroke-miterlimit:4;stroke-dasharray:4, 2, 1, 2;stroke-dashoffset:0;stroke-opacity:0.61176471" d="M 86,478 C 88.505549,478 86.5,482.99445 86.5,485.5 C 86.5,488.49155 87.308348,491.23339 88,494 C 88.491283,495.96513 89,498.56468 89,501.5 C 89,503.0333 91.5,505.16502 91.5,508 C 91.5,511.07684 93.270723,513.58289 94,516.5 C 94.800844,519.70338 96.145775,522.74296 97.5,525 C 98.941666,527.40278 101.94044,529.97022 104,531 C 106.38413,532.19206 106.28275,533.07069 110,534 C 113.57687,534.89422 116.67347,535.5 121,535.5 C 124.83333,535.5 128.66667,535.5 132.5,535.5 C 135.57543,535.5 137.59471,534.5 140.5,534.5 C 143.13475,534.5 144.80596,532 148.5,532 C 152.53672,532 156.85767,532.25693 160,531 C 162.72635,529.90946 165.43316,528.2401 167.5,527 C 170.61838,525.12897 169.75975,524.06494 167.5,523.5 C 165.81203,523.07801 162.75943,521.87971 161,521 C 158.26322,519.63161 155.27996,519.13998 153,518 C 150.9185,516.95925 148.34199,516.0855 146,515.5 C 142.36086,514.59022 141.65707,513.65707 139.5,511.5 C 137.1395,509.1395 137.29993,507.19971 136.5,504 C 135.87999,501.51995 133.62355,500.7471 132.5,498.5 C 131.18499,495.86997 126.48247,491.99299 124,491 C 120.05313,489.42125 116.41912,489.85147 112.5,487.5 C 107.9873,484.79238 102.11523,485.85254 97,485 C 93.885477,484.48091 91.227737,480.95547 90,478.5 C 88.7621,476.0242 85.978883,477.99155 83.5,477" id="Kamrangirchar"/>
  <path style="fill:#ffe6d5;fill-rule:evenodd;stroke:#12b21a;stroke-width:2;stroke-linecap:round;stroke-linejoin:miter;stroke-miterlimit:4;stroke-dasharray:4, 2, 1, 2;stroke-dashoffset:0;stroke-opacity:0.61176471" d="M 193.5,490.5 C 192.23289,487.96579 199.16667,490.5 202,490.5 C 205.16667,490.5 208.33333,490.5 211.5,490.5 C 214.92263,490.5 217.5,494.58923 217.5,489 C 217.5,486.64127 216.5,484.85014 216.5,482 C 216.5,479.12343 216,477.54577 216,475 C 216,471.91986 215,470.85458 215,467.5 C 215,464.83333 215,462.16667 215,459.5 C 215,456.58777 214.83965,454.67931 214,453 C 212.78172,450.56345 212.20999,450.08002 213.5,447.5 C 214.84817,444.80366 217.02403,443.97597 219,442 C 220.4301,440.5699 224.24635,437.25365 223.5,436 C 221.97064,433.43112 221.09473,430.87892 220.5,428.5 C 219.92194,426.18777 220.5,422.8793 220.5,420.5 C 220.5,417.76404 222.32271,416.38854 224,415 C 226.67957,412.78173 225.75222,409.33037 227.5,407 C 229.02744,404.96342 227.02317,403.97683 228.5,402.5 C 231.09298,399.90702 227.30181,398.4009 225.5,397.5 C 223.35694,396.42847 222.51259,395.05037 222,393 C 221.27099,390.08396 221.40789,389.40789 219.5,387.5 C 217.48902,385.48902 215.85525,385.41119 213.5,386 C 212.14715,386.33821 210.6718,389.60427 210,390.5 C 208.62571,392.33238 207.23615,394.19789 205.5,395.5 C 203.33566,397.12326 201.73912,399.26088 200.5,400.5 C 199.02939,401.97061 198.21373,403.78627 197,405 C 195.13492,406.86508 194.61421,407.88579 193,409.5 C 191.41716,411.08284 190.32156,411.83922 188,413 C 185.73863,414.13069 184.25236,414.93691 182,415.5 C 179.87671,416.03082 177.30202,417.64848 175.5,419 C 172.88265,420.96301 172,419.36163 172,424 C 172,426.4578 171.5,429.71476 171.5,432.5 C 171.5,435.30429 171.52018,437.89911 171,440.5 C 170.41908,443.40461 170.28072,445.43856 169,448 C 167.93926,450.12149 166.4163,451.1674 165.5,453 C 164.52361,454.95278 162.71289,456.28711 161.5,457.5 C 159.55847,459.44153 158.71456,459.64174 158,462.5 C 157.16801,465.82797 155.94246,467.38493 157.5,470.5 C 158.62468,472.74936 159.92603,473.94452 162,475.5 C 164.07607,477.05705 165.04224,478.04224 166.5,479.5 C 168.45462,481.45462 169.88166,481.91125 172,483.5 C 174.08729,485.06546 177.11164,485.90291 179.5,486.5 C 182.21616,487.17904 185.39565,486.34891 188,487 C 191.6523,487.91308 190.22414,490.5 196,490.5" id="Ramna" sodipodi:nodetypes="csssssssssssssssssssssssssssssssssssssssssc"/>
  <path style="fill:#ffe6d5;fill-rule:evenodd;stroke:#12b21a;stroke-width:2;stroke-linecap:round;stroke-linejoin:miter;stroke-miterlimit:4;stroke-dasharray:4, 2, 1, 2;stroke-dashoffset:0;stroke-opacity:0.61176471" d="M 183,342 C 182.87055,343.6702 183.43215,346.66077 184,349.5 C 184.57124,352.35618 185.61238,354.30619 188,355.5 C 190.72981,356.86491 195.2853,356.5 198.5,356.5 C 201.55017,356.5 202.83823,357.33456 205.5,358 C 208.28423,358.69606 211.46294,358.48147 213.5,359.5 C 215.62631,360.56316 217.62956,360.5 220.5,360.5 C 224.0734,360.5 224.18981,361.72453 225.5,365 C 226.07068,366.42669 227.50929,367.62732 229,368 C 230.80775,368.45194 222.81762,368.68238 221.5,370 C 220.25,371.25 219.25,372.75 218,374 C 216.34558,375.65442 219.05265,378.94735 217.5,380.5 C 215.88782,382.11218 214.73428,384.53145 214,386 C 213.18495,387.63011 210.95751,388.58498 210,390.5 C 209.13338,392.23323 205.67418,394.82582 204.5,396 C 202.93589,397.56411 201.1541,398.8459 200,400 C 198.47801,401.52199 197.20415,401.59169 196,404 C 195.12691,405.74617 192.95513,408.04487 192,409 C 190.59459,410.40541 188.3655,410.90862 186,411.5 C 184.10567,411.97358 180.9527,415.0473 179.5,416.5 C 177.97162,418.02838 174.78503,418.10749 173,419 C 170.29968,420.35016 172,420.18259 172,424 C 172,424.39246 163.88891,419.88891 163.5,419.5 C 161.11416,417.11416 158.20459,416.10229 156,415 C 153.91839,413.9592 152.34804,412.84804 150.5,411 C 148.61788,409.11788 145.15489,411.67256 143.5,412.5 C 141.31579,413.5921 138.48246,414.00439 136.5,414.5 C 133.16065,415.33484 132.22726,411.95452 131.5,410.5 C 130.50921,408.51842 129.43179,406.93179 128,405.5 C 126.04122,403.54122 127.49456,400.98912 126.5,399 C 125.5402,397.08041 123.37989,395.01954 123,393.5 C 122.49556,391.48225 120.75484,389.75484 119.5,388.5 C 117.71483,386.71483 116.97605,384.40418 116.5,382.5 C 115.82092,379.78367 115,379.12199 115,376 C 115,374.8549 111.39969,371.29939 111,370.5 C 109.48504,367.47009 110.65654,365.65654 108.5,363.5 C 106.84738,361.84738 109.5555,356.9445 110,356.5 C 111.91048,354.58952 113.2065,354.5 116.5,354.5 C 120.49123,354.5 122.75823,352.93544 126.5,352 C 130.94751,350.88812 137.22714,348.44543 140,349 C 142.02152,349.4043 141,353 141.5,355 C 141.98598,356.94391 144,356.95193 144,360.5 C 144,363 144,365.5 144,368 C 144,370.35421 144.63094,373.26188 145.5,375 C 146.12444,376.24889 146.54314,379.17256 147,381 C 147.4297,382.71879 149.28121,377.9297 151,377.5 C 154.35287,376.66178 155.33137,374.67451 156,372 C 156.78223,368.87106 155.72188,367.77812 157.5,366 C 159.39075,364.10925 161.58351,366.16597 162.5,362.5 C 163.21262,359.64952 163.82681,359.19278 164.5,356.5 C 165.29879,353.30484 165.76712,350.68322 168.5,350 C 170.74529,349.43868 173.56183,348.95363 175.5,347.5 C 177.37479,346.09391 178.62859,344.9357 180.5,344 C 181.45452,343.52274 182.16667,342.66667 183,342 z " id="Tejgaon" sodipodi:nodetypes="cssssssssssssssssssssssssssssssssssssssssssssssssssssc"/>
  <path style="fill:#ffe6d5;fill-rule:evenodd;stroke:#12b21a;stroke-width:2;stroke-linecap:round;stroke-linejoin:miter;stroke-miterlimit:4;stroke-dasharray:4, 2, 1, 2;stroke-dashoffset:0;stroke-opacity:0.61176471" d="M 369,331.5 C 370.93793,330.53104 369.56207,336.53104 371.5,337.5 C 373.43912,338.46956 374.51934,339.51934 376,341 C 377.22339,342.22339 381.35018,341.67509 383,342.5 C 385.63177,343.81589 385.65493,345.07747 388.5,346.5 C 389.39422,346.94711 391.46902,349.96902 393,351.5 C 395.37096,353.87096 391.95871,356.47935 396,358.5 C 397.78104,359.39052 397,363.53204 397,365.5 C 397,368.5384 395.5,370.14014 395.5,373.5 C 395.5,376.33333 395.5,379.16667 395.5,382 C 395.5,386.52697 396.50971,390.03883 397.5,394 C 398.29999,397.19997 399.73442,397.73442 402,400 C 403.23235,401.23235 407.95455,402.87273 409,403.5 C 410.4135,404.3481 409.29077,409.83694 409,411 C 408.42249,413.31005 405.45525,415.04475 404,416.5 C 402.09177,418.40823 400.02944,420.94113 399,423 C 397.86377,425.27246 393.75115,427.68664 392,429 C 390.48117,430.13912 386.54688,430.22656 385,431 C 382.93492,432.03254 381.57607,432.48098 379.5,433 C 376.83173,433.66707 372.73678,433 370,433 C 366.06811,433 362.1348,433.8511 359,431.5 C 355.81086,429.10814 353.46431,429.06633 349.5,428.5 C 345.84761,427.97823 344.42589,429.57411 342,432 C 341.16702,432.83298 340.99406,438.17458 340,439.5 C 338.72712,441.19718 336.35799,441.82101 334,443 C 331.52871,444.23564 327.68287,444.29572 324.5,443.5 C 321.34552,442.71138 319.40546,441 315.5,441 C 312.83333,441 310.16667,441 307.5,441 C 303.70086,441 302.11509,440.80755 299.5,439.5 C 296.02814,437.76407 293.45671,435.71753 290.5,433.5 C 288.1665,431.74987 284.79097,432 281.5,432 C 278.90023,432 277.58803,433.70599 276,434.5 C 272.98678,436.00661 273.91282,438.02179 270,439 C 266.99112,439.75222 262.53896,439 259.5,439 C 255.02037,439 255,440.28233 255,435.5 C 255,433.97687 251.19359,431.38718 250.5,430 C 249.34736,427.69472 248.89481,426.39481 247,424.5 C 245.00859,422.50859 242.54582,423 239.5,423 C 238.66667,423 237.83333,423 237,423 C 233.54247,423 231.24541,421 227.5,421 C 224.69018,421 221.04758,421.01189 219,420.5 C 218.22691,420.30673 221.95145,414.54855 222,414.5 C 223.79159,412.70841 225.16804,409.0799 226,407 C 226.88288,404.79281 227.48784,403.52433 228.5,401.5 C 229.46178,399.57644 226.57734,397.15467 226,396 C 225.04426,394.08852 223.04848,392.59696 222,390.5 C 220.82679,388.15359 220.2529,386.18823 217.5,385.5 C 214.63918,384.7848 216.51376,380.97249 217,380 C 217.95852,378.08296 217.8938,376.4248 218.5,374 C 219.30743,370.77029 219.14554,369.71361 222,369 C 225.22554,368.19361 228.01431,368 231.5,368 C 234.83333,368 238.16667,368 241.5,368 C 244.95331,368 247.05791,368.05791 249,370 C 250.8533,371.8533 250.31674,373 254,373 C 257.55439,373 260.36713,374.32285 262,376.5 C 263.5413,378.55507 265.52323,378.38081 268,379 C 271.12404,379.78101 272.30398,382 276.5,382 C 279.65271,382 280.19293,383.34646 282.5,384.5 C 285.68002,386.09001 289.47036,385.5 293,385.5 C 295.66667,385.5 298.33333,385.5 301,385.5 C 303.99679,385.5 303.27886,382.06972 307,383 C 307.82446,383.20612 308.66667,383.33333 309.5,383.5 C 309.99371,383.59874 306.6051,388.2898 306.5,388.5 C 305.70066,390.09867 312.68815,391 313.5,391 C 316.16667,391 318.83333,391 321.5,391 C 324.33333,391 327.16667,391 330,391 C 330.20712,391 327.5289,385.6156 327.5,385.5 C 327.11725,383.969 323.91607,382.41607 323,381.5 C 321.65156,380.15156 323.81048,375.37904 324,375 C 324.71823,373.56353 329.03675,373.46325 330,372.5 C 331.04135,371.45865 332.12202,368.0119 332.5,366.5 C 332.9579,364.6684 335.6161,361.8839 336.5,361 C 338.68815,358.81185 341,360.1837 341,356.5 C 341,355.05354 336.43398,351.73593 336,350 C 335.17906,346.71623 336.59072,345.40928 338,344 C 339.71893,342.28107 340.76628,340.73372 342,339.5 C 343.6263,337.8737 344.03112,335.97666 346,334.5 C 348.33673,332.74745 347.91305,332 352,332 C 355.33333,332 358.66667,332 362,332 C 364.44161,332 366.57877,331.98425 369,331.5 z " id="Khilgaon" sodipodi:nodetypes="cssssssssssssssssssssssssssssssssssssssssssssssssssssssssssssssssssssssssssssssc"/>
  <path style="fill:#ffe6d5;fill-rule:evenodd;stroke:#12b21a;stroke-width:2;stroke-linecap:round;stroke-linejoin:miter;stroke-miterlimit:4;stroke-dasharray:4, 2, 1, 2;stroke-dashoffset:0;stroke-opacity:0.61176471" d="M 217.5,490.5 C 218.70421,490.5 223.79317,492 227,492 C 229.5,492 232,492 234.5,492 C 237.56982,492 239.15199,493.5 242.5,493.5 C 245,493.5 247.5,493.5 250,493.5 C 252.66667,493.5 255.33333,493.5 258,493.5 C 260.72657,493.5 260.5,490.46031 260.5,488 C 260.5,485.5 260.5,483 260.5,480.5 C 260.5,477.83333 260.5,475.16667 260.5,472.5 C 260.5,470 260.5,467.5 260.5,465 C 260.5,462.5 260.5,460 260.5,457.5 C 260.5,455.50822 258.75533,453.01066 258,451.5 C 256.90846,449.31692 256.61694,446.96775 256,444.5 C 255.31221,441.74882 255.7532,439.383 255,437.5 C 253.79244,434.4811 254.15558,433.15558 252,431 C 250.45779,429.45779 250.04504,427.04504 248.5,425.5 C 246.0604,423.0604 244.42542,422.5 241,422.5 C 238.16667,422.5 235.33333,422.5 232.5,422.5 C 229.55545,422.5 227.56562,422.1414 225,421.5 C 221.65024,420.66256 220.5,420.34847 220.5,424 C 220.5,426.38846 220.59205,429.36819 221,431 C 221.44729,432.78916 221.94882,435.24412 222.5,438 C 222.64067,438.70337 219.03715,441.96285 218.5,442.5 C 216.52237,444.47763 215.17765,444.82235 213.5,446.5 C 212.1179,447.8821 213.25176,452.00705 213.5,453 C 214.05211,455.20843 215,456.74679 215,460 C 215,462.5 215,465 215,467.5 C 215,470.16667 215,472.83333 215,475.5 C 215,478.63972 215.32384,480.79535 216,483.5 C 216.58355,485.8342 216.9724,487.86202 217.5,490.5 z " id="Motijheel"/>
  <path style="fill:#ffe6d5;fill-rule:evenodd;stroke:#12b21a;stroke-width:2;stroke-linecap:round;stroke-linejoin:miter;stroke-miterlimit:4;stroke-dasharray:4, 2, 1, 2;stroke-dashoffset:0;stroke-opacity:0.61176471" d="M 340.5,438 C 340.76866,439.07463 340.5,443.85522 340.5,446.5 C 340.5,449.55059 340.9589,450.79448 341.5,453.5 C 342.04225,456.21127 345.26482,457.55928 346,460.5 C 346.6778,463.2112 345.66805,465.9426 344.5,467.5 C 343.05634,469.42489 341.52828,470.94345 340.5,473 C 339.29875,475.4025 338.53385,477.4323 337.5,479.5 C 336.28158,481.93684 332.47567,481 329.5,481 C 326.5,481 323.5,481 320.5,481 C 316.99663,481 314.77078,481.72922 312.5,484 C 310.14591,486.35409 308.56118,487.46941 306.5,488.5 C 303.99593,489.75204 304.5,491.66517 304.5,494.5 C 304.5,498.34579 303.83419,498.41709 301,497 C 298.62566,495.81283 297.47854,494.48927 295.5,493.5 C 293.92417,492.71208 289.80827,493.5 288,493.5 C 285.33333,493.5 282.66667,493.5 280,493.5 C 276.48954,493.5 275.12857,493.37143 273.5,495 C 271.23253,497.26747 271.42877,497.5 267.5,497.5 C 265,497.5 262.5,497.5 260,497.5 C 256.29221,497.5 256,497.76788 256,494 C 256,492.48687 259.61933,491.88067 260.5,491 C 261.24719,490.25281 260.5,484.68804 260.5,483.5 C 260.5,481 260.5,478.5 260.5,476 C 260.5,473.5 260.5,471 260.5,468.5 C 260.5,466 260.5,463.5 260.5,461 C 260.5,458.61154 260.40795,455.63181 260,454 C 259.4693,451.87718 257.57166,451.28666 257,449 C 256.39252,446.5701 255.5,445.72397 255.5,442.5 C 255.5,438.83906 256.16874,438.70782 259,438 C 261.5684,437.3579 265.40472,438.20236 267,439 C 270.13871,440.56935 273.48727,438.3503 274.5,437 C 276.17028,434.77296 274.97897,433.88026 278.5,433 C 281.29184,432.30204 283.65372,432 287,432 C 290.55972,432 291.21078,433.28309 293.5,435 C 295.04278,436.15709 298.37684,437.18842 300,438 C 300.86923,438.43461 301.66667,439 302.5,439.5 C 304.59313,440.75588 308.91007,440.47752 311,441 C 313.62184,441.65546 317.30008,441 320,441 C 321.61321,441 324.60503,442.52101 327,443 C 330.02025,443.60405 332.61407,443.5 336,443.5 C 337.21295,443.5 339.2194,439.02448 340.5,438 z " id="Sabujbagh"/>
  <path style="fill:#ffe6d5;fill-rule:evenodd;stroke:#12b21a;stroke-width:2;stroke-linecap:round;stroke-linejoin:miter;stroke-miterlimit:4;stroke-dasharray:4, 2, 1, 2;stroke-dashoffset:0;stroke-opacity:0.61176471" d="M 194.5,529 C 194.70158,529 198.78475,532 202,532 C 203.40525,532 206.08587,535.14647 207.5,535.5 C 210.37607,536.21902 212.73401,537.23401 214.5,539 C 216.83853,541.33853 216,538.98518 216,536 C 216,533.0706 216.68022,531.31978 218,530 C 218.89642,529.10358 218.5,523.95296 218.5,522.5 C 218.5,520 218.5,517.5 218.5,515 C 218.5,512.5 218.5,510 218.5,507.5 C 218.5,505 218.5,502.5 218.5,500 C 218.5,497.5 218.5,495 218.5,492.5 C 218.5,489.94786 214.29089,491 212,491 C 208.5169,491 206.36663,490.5611 203,490 C 200.65294,489.60882 197.88553,490 195.5,490 C 192.827,490 193.11977,489.38023 191,491.5 C 189.31728,493.18272 188,492.37092 188,496 C 188,498.87657 187.5,500.45423 187.5,503 C 187.5,505.17307 191.46341,504.96341 193,506.5 C 195.15409,508.65409 195.94679,506.28715 197,510.5 C 197.53633,512.64534 197.5,515.06641 197.5,517.5 C 197.5,520.46962 196.63464,521.23071 195.5,523.5 C 194.9114,524.67721 195.01845,527.70387 194.5,529 z " id="Kotwali"/>
  <path style="fill:#ffe6d5;fill-rule:evenodd;stroke:#12b21a;stroke-width:2;stroke-linecap:round;stroke-linejoin:miter;stroke-miterlimit:4;stroke-dasharray:4, 2, 1, 2;stroke-dashoffset:0;stroke-opacity:0.61176471" d="M 256,496 C 255.67783,496.64433 256,501.66213 256,504 C 256,504.72393 261.66947,506.29237 262.5,506.5 C 266.42107,507.48027 266.45791,506.14478 268,510 C 268.92777,512.31942 264.97986,515.54028 264.5,516.5 C 263.50796,518.48409 262.83722,519.66278 261.5,521 C 260.15515,522.34485 257.70833,524.29167 256.5,525.5 C 254.66033,527.33967 253.05675,525.77301 252.5,528 C 251.94922,530.20313 252.50908,533.53631 253,535.5 C 253.52953,537.61811 256.29621,538.68485 257,541.5 C 257.57118,543.78473 258.91226,545.32452 260,547.5 C 261.31096,550.12192 256.8001,550.59995 256,551 C 255.99465,551.00268 257,557.36467 257,558.5 C 257,561.25492 252.88601,559.8465 251.5,559.5 C 248.79748,558.82437 247.78993,557.85503 245.5,559 C 243.14545,560.17728 244.14393,562 240.5,562 C 238.97504,562 239.65702,564.81403 237.5,560.5 C 236.66688,558.83376 233.67229,557.17229 232.5,556 C 230.98124,554.48124 229.87778,552.87778 228.5,551.5 C 226.56745,549.56745 224.66885,547.66885 222.5,545.5 C 220.68809,543.68809 219.20307,542.70307 217.5,541 C 215.4728,538.9728 215.18742,537.2503 216,534 C 216.6387,531.44522 217.08861,529.82279 218,528 C 218.94175,526.11649 218.5,523.23724 218.5,521 C 218.5,518.5 218.5,516 218.5,513.5 C 218.5,510.5 218.5,507.5 218.5,504.5 C 218.5,501.54103 219,499.53651 219,497 C 219,494.5 219,494 219,491.5 C 219,490.27751 224.40042,490.4751 226.5,491 C 230.26005,491.94001 232.12688,493 236.5,493 C 239.53689,493 242.76897,492.81724 245.5,493.5 C 249.2442,494.43605 252.48461,494.24231 256,496 z " id="Sutrapur" sodipodi:nodetypes="cssssssssssssssssssssssssssssssc"/>
  <path style="fill:#ffe6d5;fill-rule:evenodd;stroke:#12b21a;stroke-width:2;stroke-linecap:round;stroke-linejoin:miter;stroke-miterlimit:4;stroke-dasharray:4, 2, 1, 2;stroke-dashoffset:0;stroke-opacity:0.61176471" d="M 404,416.5 C 404.32984,418.12042 405.5,421.25508 405.5,424 C 405.5,425.01516 409.84551,428.34551 410.5,429 C 411.88812,430.38812 414.3967,431.09917 416,431.5 C 418.5977,432.14943 421.85735,433.46434 424,434 C 426.65576,434.66394 425.37133,438.51466 425,440 C 424.6717,441.3132 422.3544,444.2912 421.5,446 C 420.41006,448.17987 420,449.19526 420,452 C 420,455.31821 419.74364,457.24364 421.5,459 C 423.30501,460.80501 425.40485,461.97621 427.5,462.5 C 428.77662,462.81916 432.60201,467.10201 433.5,468 C 436.83881,471.33881 437.83789,470.85156 439,475.5 C 439.58839,477.85356 439,481.05881 439,483.5 C 439,486.50343 438,488.55617 438,491.5 C 438,494.0849 437.92729,496.70916 438.5,499 C 439.02385,501.09539 446.64412,504.88647 448.5,506 C 452.27732,508.26639 455.82576,512.6303 460.5,514.5 C 464.24167,515.99667 468.50845,520.00845 470.5,522 C 471.84287,523.34287 473.14295,526.6906 474.5,528.5 C 476.3486,530.9648 477.54386,533.58772 478.5,535.5 C 479.92771,538.35543 482.02226,540.54452 483.5,543.5 C 485.01086,546.52172 487.5284,547.5284 484.5,544.5 C 483.45557,543.45557 481.82458,541.14915 481,539.5 C 479.91395,537.3279 478.53751,536.57502 477.5,534.5 C 476.5251,532.5502 474.93746,530.87492 474,529 C 472.5555,526.11101 471.98236,527.13823 469.5,529 C 467.88621,530.21034 465.97686,531.38079 463.5,532 C 461.19503,532.57624 457.9028,532 455.5,532 C 452.70147,532 450.26332,532.5 447.5,532.5 C 443.67714,532.5 442.70685,533.58629 441,537 C 439.80292,539.39416 438.73801,542.52397 438,544 C 437.2909,545.4182 430.88192,545.22362 429.5,545.5 C 425.9429,546.21142 423.2814,547.28895 421,549 C 418.57247,550.82065 417.30979,552.0951 415.5,553 C 412.3096,554.5952 410.66124,556.79845 408.5,559.5 C 407.22829,561.08964 404.32463,562.00653 403,563 C 401.25702,564.30723 399.55938,565.5 397,565.5 C 392.6344,565.5 391.57791,566.69156 388.5,569 C 386.75087,570.31185 384.98173,570.5 382.5,570.5 C 379,570.5 375.5,570.5 372,570.5 C 369,570.5 366,570.5 363,570.5 C 360.45594,570.5 355.43798,565.95348 353.5,564.5 C 350.12863,561.97147 345.49236,560.74618 342,559 C 338.2922,557.1461 334.86723,554.43361 331,552.5 C 328.05294,551.02647 325.20147,550.85074 322.5,549.5 C 319.12959,547.8148 316.94475,545.97238 314,544.5 C 310.11969,542.55985 306.17759,540.69626 302,540 C 299.26088,539.54348 294.0988,535.05928 291.5,533.5 C 288.56148,531.73689 287.39516,532.32097 286.5,532.5 C 286.29043,532.54191 286.5,539.33985 286.5,540 C 286.5,543.40968 285.64551,544.42724 283.5,545.5 C 281.73284,546.38358 277.04558,545.3864 275.5,545 C 273.23041,544.4326 270.87527,540.87527 269.5,539.5 C 266.98157,536.98157 264.45844,535.45844 262.5,533.5 C 260.33569,531.33569 258.95718,528.72859 256.5,527.5 C 253.51906,526.00953 253.91558,526 257.5,526 C 258.24236,526 260.79139,521.20861 261,521 C 262.56495,519.43505 263.27682,516.72318 264.5,515.5 C 266.22481,513.77519 266,512.59823 266,509.5 C 266,507.72721 261.42956,505.96478 259.5,505 C 256.47178,503.48589 256.5,502.59619 256.5,499 C 256.5,495.63381 255.87434,493.87434 258,496 C 259.47589,497.47589 262.11908,497.5 264.5,497.5 C 267.00584,497.5 270.26581,497.34684 272,497 C 274.31519,496.53696 273.68311,493.70422 276.5,493 C 279.20669,492.32333 283.263,493 286,493 C 289,493 292,493 295,493 C 297.93781,493 300.24083,495.81021 303,496.5 C 304.41228,496.85307 304.24169,491.29157 304.5,490 C 305.05041,487.24797 307.32269,486.63298 309.5,485 C 311.64193,483.39356 312.65451,482.67274 315,481.5 C 317.20901,480.3955 320.52515,481 323,481 C 326,481 329,481 332,481 C 335.54572,481 337.74413,481.52349 338.5,478.5 C 339.16474,475.84104 340.5,474.77381 340.5,471.5 C 340.5,469.8032 343.52115,466.89424 344,464.5 C 344.57516,461.6242 345.66692,460.66767 345,458 C 344.62072,456.48287 342.55337,454.55337 341.5,453.5 C 340.38708,452.38708 341,447.56918 341,445.5 C 341,442.83333 341,440.16667 341,437.5 C 341,435.98043 343.5,432.68064 343.5,429.5 C 343.5,428.93356 355.07892,428 356,428 C 357.50923,428 359,430.83333 360.5,431 C 362.15647,431.18405 362.07085,431.64251 363.5,432.5 C 366.74632,434.44779 372.33282,433.5 376,433.5 C 379.20257,433.5 382.61701,433.72075 385.5,433 C 387.71212,432.44697 390.77208,429.72792 392,428.5 C 393.90236,426.59764 396.35635,425.10774 398.5,423.5 C 401.19117,421.48162 401.92575,419.95708 404,416.5 z " id="Demra" sodipodi:nodetypes="csssssssssssssssssssssssssssssssssssssssssssssssssssssssssssssssssssssssssssssssssssssssc"/>
  <path style="fill:#ffe6d5;fill-rule:evenodd;stroke:#12b21a;stroke-width:2;stroke-linecap:round;stroke-linejoin:miter;stroke-miterlimit:4;stroke-dasharray:4, 2, 1, 2;stroke-dashoffset:0;stroke-opacity:0.61176471" d="M 241.5,563 C 242.02884,564.75261 244.05028,567.05028 246,569 C 247.88801,570.88801 248.19798,573.59731 250,576 C 251.59152,578.12203 253.232,579.732 254.5,581 C 256.37326,582.87326 256.82039,583.82039 258.5,585.5 C 260.07487,587.07487 263.48764,588.79259 265.5,590 C 266.9938,590.89628 268.25552,592.75552 269.5,594 C 271.3335,595.8335 272.53355,596.26677 275,597.5 C 277.81413,598.90707 279.79901,600.34926 282,602 C 283.65897,603.24423 286.31658,604.31658 288,606 C 292.06629,610.06629 299.8164,614.54101 302,620 C 303.49604,623.7401 304.79314,624.09486 308,626.5 C 310.6677,628.50078 313.79053,634.5929 317,637 C 318.04137,637.78102 318.57955,639.07955 319.5,640 C 321.26777,641.76777 319.5,635 319.5,632.5 C 319.5,630.57143 320.99489,628.52042 321.5,626.5 C 322.33349,623.16603 320.28604,621.92849 324,621 C 327.07581,620.23105 327,620.20024 327,616.5 C 327,613.1368 326.91735,611.58265 328.5,610 C 329.76479,608.73521 334.57572,609.21214 336,608.5 C 337.73907,607.63046 339.41899,604.58101 340.5,603.5 C 341.57582,602.42418 341.5,598.44599 341.5,596.5 C 341.5,593.77335 343.3675,593.26501 344.5,591 C 345.65413,588.69174 346.24945,585.93736 348.5,586.5 C 349.88561,586.8464 351.82628,592.30513 352,593 C 352.62983,595.51933 354.44725,596.01319 356.5,595.5 C 358.69923,594.95019 356.47241,590.01379 358.5,589 C 360.63093,587.93454 361.51682,591.5673 362,593.5 C 362.7411,596.46441 366.5,592.576 366.5,590.5 C 366.5,587.72256 368.66997,586.27337 370,584.5 C 371.93084,581.92555 371.985,581.5 376,581.5 C 377.26563,581.5 379.30841,576.69159 380,576 C 381.95174,574.04826 382.20412,572.81649 381.5,570 C 381.14186,568.56745 374.91716,569.77071 374,570 C 371.66017,570.58496 368.41396,570 366,570 C 362.99838,570 360.96123,569.97092 359,568.5 C 356.97662,566.98246 356.39884,565.69942 354,564.5 C 351.30389,563.15194 349.64395,562.07197 347.5,561 C 345.03563,559.76782 342.47004,557.47004 341,556 C 339.64065,554.64065 336.26339,555.76339 334.5,554 C 333.01428,552.51428 331.47443,551.49361 329.5,551 C 326.46902,550.24225 326.0119,550.00595 324,549 C 322.28825,548.14412 320.48187,546.99094 318.5,546 C 316.27784,544.88892 314.66733,544.2505 313,543 C 311.18663,541.63997 309.59236,541.02309 307.5,540.5 C 304.38638,539.72159 303.01631,539.88723 300.5,538 C 298.32948,536.37211 295.0518,535.5259 293,534.5 C 289.75364,532.87682 289.32758,531.6681 286,532.5 C 284.08626,532.97844 285.22418,537.39673 285.5,538.5 C 286.1432,541.07279 285.07494,543.85011 284.5,545 C 284.24414,545.51171 277.46808,545 276.5,545 C 273.94621,545 272.17441,542.25581 270.5,541 C 268.20889,539.28167 267.66845,536.66845 266,535 C 264.47236,533.47236 263.28762,532.78762 262,531.5 C 260.49088,529.99088 259.11509,528.61509 257.5,527 C 255.07927,524.57927 252.43994,527.24024 252,529 C 251.28336,531.86657 253.50399,534.00797 254.5,536 C 255.88744,538.77489 256.79644,539.18575 257.5,542 C 258.11263,544.45052 259.3235,544.294 260,547 C 260.83501,550.34004 258.1224,551.1888 256.5,552 C 255.31501,552.59249 256,557.7309 256,559 C 256,560.72611 250.28303,560 248.5,560 C 244.08784,560 242.2919,563.13198 238.5,562.5" id="Shyampur"/>
  <path style="fill:#ffe6d5;fill-rule:evenodd;stroke:#12b21a;stroke-width:2;stroke-linecap:round;stroke-linejoin:miter;stroke-miterlimit:4;stroke-dasharray:4, 2, 1, 2;stroke-dashoffset:0;stroke-opacity:0.61176471" d="M 209.5,262 C 208.28849,260.72242 207.7987,257.19481 207.5,256 C 207.034,254.13602 213.69444,255.29861 214.5,255.5 C 217.57336,256.26834 219.22146,257.11073 222,258.5 C 224.00265,259.50133 224.50805,260.5 228.5,260.5 C 231.83333,260.5 235.16667,260.5 238.5,260.5 C 238.76687,260.5 240.35002,266.90008 240.5,267.5 C 241.04515,269.68058 241.86993,272.47972 242.5,275 C 243.08352,277.33409 243,279.86027 243,282 C 243,284.73605 244.5,285.91601 244.5,289 C 244.5,291.30689 246.15081,294.86775 247,296 C 248.66312,298.21749 248.76153,300.26153 250.5,302 C 251.81465,303.31465 251.5,307.95603 251.5,310 C 251.5,314.33311 249.38478,312.11522 247,314.5 C 245.67945,315.82055 243.61778,317.69111 242,318.5 C 240.852,319.074 240.10802,324.47996 239.5,326 C 238.32577,328.93558 237.88426,331.23149 236.5,334 C 235.50653,335.98694 236,339.15778 236,341.5 C 236,344.33125 234.5,346.13707 234.5,349.5 C 234.5,352.16667 234.5,354.83333 234.5,357.5 C 234.5,360.14859 233.5,361.20405 233.5,364 C 233.5,367.47548 231.52689,367 228.5,367 C 228.02383,367 224.08598,362.58598 223.5,362 C 222.18826,360.68826 219.20425,360.5 217,360.5 C 215.05019,360.5 209.76614,358.38307 208,357.5 C 205.6936,356.3468 201.01798,357.12949 198.5,356.5 C 193.8458,355.33645 194.44709,355.5 189,355.5 C 185.92389,355.5 184.97222,352.94445 184,351 C 182.68538,348.37077 182.59131,346.45653 182,343.5 C 181.37091,340.35456 183,339.83385 183,337 C 183,334.24367 183.45734,332.71331 184,330 C 184.45711,327.71446 184,324.83948 184,322.5 C 184,320.27013 184.48678,318.0529 185,316 C 185.60279,313.58884 184.92432,310.80273 185.5,308.5 C 186.24516,305.51937 187.76613,303.93549 188.5,301 C 189.10263,298.58948 189.5,296.21082 189.5,293.5 C 189.5,290.89553 191.5,288.4509 191.5,285.5 C 191.5,282.36447 192.22953,280.54094 193.5,278 C 194.63389,275.73221 201.19956,276.5 203.5,276.5 C 206.33038,276.5 205.40052,273.39794 206,271 C 206.68435,268.26262 207.3316,266.8368 208.5,264.5 C 208.90139,263.69723 209.16667,262.83333 209.5,262 z " id="Gulshan"/>
  <path style="fill:none;fill-rule:evenodd;stroke:#00b2fa;stroke-width:1px;stroke-linecap:butt;stroke-linejoin:miter;stroke-opacity:1" d="M 275.5,248.5 C 277.77058,249.63529 279.96141,245.5 282.5,245.5 C 286.24786,245.5 288.24329,245.24329 290,247 C 291.50139,248.50139 294.31415,248.65708 296,249.5 C 296.78227,249.89113 297.15246,251.03661 297.5,251.5" id="path3687"/>
  <path style="fill:none;fill-rule:evenodd;stroke:#00b2fa;stroke-width:1px;stroke-linecap:butt;stroke-linejoin:miter;stroke-opacity:1" d="M 298,243 C 300.27547,244.13774 293.9681,246.38298 291.5,247 C 291.17662,247.08085 290.83333,247 290.5,247" id="path4574"/>
  <path style="fill:none;fill-rule:evenodd;stroke:#00b2fa;stroke-width:1.5;stroke-linecap:butt;stroke-linejoin:miter;stroke-opacity:1;stroke-miterlimit:4;stroke-dasharray:none" d="M 347.5,259 C 345.20195,259.57451 351.94065,256.6187 353,254.5 C 354.48665,251.5267 356.5,254.24417 356.5,256.5 C 356.5,256.92947 362.52048,255.5 363,255.5 C 365.08766,255.5 365.34524,257.28869 368.5,256.5 C 370.60323,255.97419 371.70763,257.35381 374,258.5 C 377.55476,260.27738 376.44901,256.5 380,256.5 C 382.64735,256.5 384.95006,256.51249 387,256 C 390.20124,255.19969 391.67157,257.31371 392.5,254 C 393.10478,251.58086 397.55052,250.86237 399,250.5 C 402.26933,249.68267 401.5,249.23605 401.5,245.5 C 401.5,243.11165 403.4039,241.88439 404,239.5 C 404.57731,237.19076 404,233.90177 404,231.5 C 404,229 404,226.5 404,224 C 404,221.02495 404.06068,217.74273 403.5,215.5 C 402.87692,213.00768 403,210.32599 403,208 C 403,205.4811 400.98499,203.98499 399.5,202.5 C 398.10649,201.10649 395.66001,200.33 394,199.5 C 392.06221,198.5311 390.51663,196.01663 389,194.5 C 386.74363,192.24363 385.32077,191.32077 383.5,189.5 C 381.45398,187.45398 380.39111,184.89111 378.5,183 C 376.09548,180.59548 375.75448,177.75448 374,176 C 372.77647,174.77647 371.87815,171.01261 371.5,169.5 C 370.88226,167.02902 371.5,163.58427 371.5,161 C 371.5,158.24378 372.84023,155.31953 374,153 C 375.41127,150.17745 376,147.22954 376,144 C 376,140.19565 376.5,136.80063 376.5,133 C 376.5,130.5 376.5,128 376.5,125.5 C 376.5,122.4304 378.95324,120.18705 379.5,118 C 379.84861,116.60554 376.04875,113.54875 375,112.5 C 373.08527,110.58527 371.58627,109.34509 371,107 C 370.64329,105.57318 369.31219,104.24877 369,103 C 368.7643,102.05719 368,101.33333 367.5,100.5 C 366.41873,98.697891 364.88976,97.889755 363.5,96.5 C 361.87758,94.877575 360.95786,93.45786 359.5,92 C 357.85371,90.35371 357.13654,88.636538 355.5,87 C 354.20479,85.704794 352.89903,82.596121 352.5,81 C 351.82353,78.294129 348.77359,77.594353 348,74.5 C 347.47484,72.399357 346.41457,70.829141 345.5,69 C 344.42228,66.844553 343.77787,65.388513 344.5,62.5 C 344.73861,61.54554 349.83236,59.333818 350.5,59 C 353.38854,57.55573 354.75931,57.180515 357,55.5 C 359.2791,53.790677 360.0282,52.242951 363,51.5 C 364.63436,51.091409 365,46.82901 365,45 C 365,42.628602 367.69122,41.808782 369,40.5 C 371.0255,38.474495 371.89345,37.213102 373,35 C 373.86117,33.277657 375.13814,31.649151 376,30.5" id="path5461"/>
  <path style="fill:none;fill-rule:evenodd;stroke:#00b2fa;stroke-width:1px;stroke-linecap:butt;stroke-linejoin:miter;stroke-opacity:1" d="M 373,297.5 C 374.07497,295.35006 369.14994,300.42503 367,301.5 C 364.47432,302.76284 365,304.37243 365,307.5 C 365,310.60242 365.02455,312.02455 366.5,313.5 C 367.98658,314.98658 369.08701,317.84805 369.5,319.5 C 369.85587,320.92347 370.55352,322.10705 371,323" id="path6348"/>
  <path style="fill:none;fill-rule:evenodd;stroke:#00b2fa;stroke-width:1px;stroke-linecap:butt;stroke-linejoin:miter;stroke-opacity:1" d="M 349.5,315 C 349.52316,315.09265 355.55488,315 357.5,315 C 359.95738,315 362.7718,314.93205 364.5,314.5 C 364.646,314.4635 364.69583,312.45104 366.5,312" id="path6350"/>
  <path style="fill:none;fill-rule:evenodd;stroke:#00b2fa;stroke-width:1px;stroke-linecap:butt;stroke-linejoin:miter;stroke-opacity:1" d="M 395,386.5 C 393.83333,386.83333 392.66667,387.16667 391.5,387.5 C 388.51749,388.35214 387.93,389.7675 385,390.5 C 382.81967,391.04508 379.76073,390.5 377.5,390.5 C 374.83333,390.5 372.16667,390.5 369.5,390.5 C 366.95485,390.5 363.77495,390.44374 362,390 C 358.57451,389.14363 357.07676,387.5307 354.5,386.5 C 352.17779,385.57112 350.94514,383.61128 348.5,383 C 347.20273,382.67568 347.31586,377.26344 347,376 C 346.85849,375.43395 343.27647,372.27647 342.5,371.5 C 341.92923,370.92923 342.14554,365.08216 342,364.5 C 341.78555,363.64222 340.82574,362.93432 340.5,362.5" id="path7237"/>
  <path style="fill:none;fill-rule:evenodd;stroke:#00b2fa;stroke-width:5;stroke-linecap:butt;stroke-linejoin:miter;stroke-miterlimit:1;stroke-dasharray:none;stroke-opacity:1" d="M 486.5,541 C 485.65314,540.78829 481.91522,535.72029 481,534.5 C 479.22841,532.13788 477.15082,530.61311 475,529 C 472.74093,527.30569 470.65895,525.8179 469.5,523.5 C 468.20637,520.91273 466.02411,519.04821 465,517 C 463.92271,514.84541 461.77843,513.77843 460,512 C 457.49486,509.49486 455.70029,507.70029 453,505 C 451.2472,503.2472 449.34724,501.58681 447,501 C 444.42662,500.35665 439.4369,497.2492 438.5,496 C 436.46097,493.28129 444.14844,488.70311 445,487 C 445.80373,485.39253 448.66057,483.67887 449.5,482 C 450.56271,479.87459 450.90818,477.62243 452.5,475.5 C 454.40751,472.95666 456.52044,470.47956 459,468 C 460.69292,466.30708 461.46696,463.63216 462,461.5" id="path19673" sodipodi:nodetypes="cssssssssssssc"/>
  <path style="fill:none;fill-rule:evenodd;stroke:#00b2fa;stroke-width:1.5;stroke-linecap:butt;stroke-linejoin:miter;stroke-opacity:1;stroke-miterlimit:4;stroke-dasharray:none" d="M 368.5,318.5 C 369.563,320.62599 370.5,322.33171 370.5,325 C 370.5,327.43089 369.91249,330.64996 370.5,333 C 371.29819,336.19276 374.08318,335.44425 376,338 C 377.79504,340.39339 379.41061,342.7053 382,344 C 383.65156,344.82578 387.99823,346.49764 389.5,348.5 C 391.78749,351.54998 393.38013,352.76026 395,356 C 395.9886,357.97719 396,360.59706 396,363.5 C 396,366.04577 395.5,367.62343 395.5,370.5 C 395.5,373.35826 396,374.96811 396,377.5 C 396,379.93089 395.41249,383.14996 396,385.5 C 396.71254,388.35015 398.89074,390.06295 399.5,392.5 C 400.05273,394.71093 399.89982,397.71985 401.5,399 C 404.07772,401.06217 406.40231,402.40231 408.5,404.5 C 410.42864,406.42864 409.88935,406.9426 409,410.5 C 408.33231,413.17074 405.54161,414.83356 405,417 C 404.15536,420.37857 405.53739,419.88319 407.5,422.5 C 409.27009,424.86012 411.16647,425.83294 412.5,428.5 C 413.15334,429.80669 414.86497,432.68248 416.5,433.5 C 420.02841,435.26421 423.18152,435.27391 422,440 C 421.44379,442.22486 420.52421,444.45158 419.5,446.5 C 418.54877,448.40245 418.5,450.67755 418.5,453.5 C 418.5,455.23195 417.79029,459.29029 419,460.5 C 420.77759,462.27759 421.27363,463.13681 424,464.5 C 425.46135,465.23068 428.5348,465.5348 430,467 C 431.29053,468.29053 432.81605,469.31605 434.5,471 C 435.33949,471.83949 439,474.10199 439,476 C 439,478.52895 438.76337,483.05348 439,484 C 438.83333,484.83333 438.66667,485.66667 438.5,486.5 C 437.98642,489.0679 437.5,490.42401 437.5,493.5 C 437.5,493.87268 437.83333,494.16667 438,494.5" id="path7239"/>
  <path style="fill:none;fill-rule:evenodd;stroke:#00b2fa;stroke-width:1px;stroke-linecap:butt;stroke-linejoin:miter;stroke-opacity:1" d="M 353,386 C 352.03368,387.80992 350.29344,390.30164 347.5,391 C 345.06221,391.60945 342.58967,391.5 340,391.5 C 337.24924,391.5 335.49616,392.00096 333.5,392.5 C 330.8503,393.16243 329.26488,392.88244 327.5,392 C 325.92417,391.21208 321.80827,392 320,392 C 317.5,392 315,392 312.5,392 C 310.11154,392 307.13181,391.90795 305.5,391.5 C 303.91006,391.10252 302.9726,389.11815 300.5,388.5 C 297.2085,387.67713 297.61851,385.2237 294,384.5 C 291.71446,384.04289 288.83948,384.5 286.5,384.5 C 283.0061,384.5 283,383.30348 283,380 C 283,376.98588 282.5518,376.4482 284.5,374.5 C 286.8884,372.1116 281.67653,369.50739 281,369 C 279.12916,367.59687 276.95789,366.11052 276.5,365.5 C 275.2917,363.88893 280.04629,367.51157 282,368 C 282.58599,368.1465 283.33488,362.66048 283.5,362 C 283.76791,360.92837 291.93285,361.5 286,361.5 C 281.84563,361.5 283.52472,359.09506 286.5,358.5 C 287.5426,358.29148 287,352.48115 287,351.5 C 287,348.5904 287.5,347.23852 287.5,344.5 C 287.5,340.62018 290.22983,344.22983 291.5,345.5 C 292.97667,346.97667 289.43393,341.86786 288.5,340 C 287.66637,338.33274 287.80856,334.73424 287.5,333.5 C 286.9012,331.1048 286.26631,329.43474 287,326.5 C 287.45538,324.67848 289.40815,323.89796 291,323.5 C 291.66667,322.66667 292.33333,321.83333 293,321 C 294.11894,319.60132 293.7427,319.93933 295.5,319.5" id="path8126"/>
  <path style="fill:none;fill-rule:evenodd;stroke:#00b2fa;stroke-width:1px;stroke-linecap:butt;stroke-linejoin:miter;stroke-opacity:1" d="M 284.5,383.5 C 286.68891,380.76386 277.50397,384 274,384 C 272.2208,384 269.52953,381.51476 267.5,380.5 C 264.96276,379.23138 261.54421,379.02211 259.5,378 C 257.5719,377.03595 255.88511,374.88511 254,373 C 252.67991,371.67991 247.63602,371.034 245.5,370.5 C 242.74387,369.81097 240.7266,368.5 237.5,368.5 C 235,368.5 232.5,368.5 230,368.5 C 226.14679,368.5 225.9152,366.4152 224,364.5 C 222.6516,363.1516 223,360.09983 223,358 C 223,355.52232 225.7839,362.39195 228,363.5 C 228.47567,363.73783 230.72267,367.22267 231.5,368 C 233.40685,369.90685 226.81588,369.5 225.5,369.5 C 221.94124,369.5 221,371.03543 221,374.5 C 221,377.32156 219.60774,378.56903 219,381 C 218.25903,383.96388 214.82446,383.70216 214,387 C 213.2682,389.92719 210.79946,392.20054 209.5,393.5 C 207.88093,395.11907 206.61076,395.77847 205.5,398 C 204.20817,400.58366 203.07954,401.34092 202,403.5 C 201.01245,405.4751 197.41117,407.58883 195.5,409.5 C 193.6973,411.3027 191.81161,412.0942 190,413 C 187.11894,414.44053 185.87276,414.22043 183.5,416 C 181.72916,417.32813 182,419.3852 182,422 C 182,423.9656 179.01473,424.5 177,424.5 C 176.33333,424.5 175.66667,424.5 175,424.5" id="path9013"/>
  <path style="fill:none;fill-rule:evenodd;stroke:#00b2fa;stroke-width:1px;stroke-linecap:butt;stroke-linejoin:miter;stroke-opacity:1" d="M 253.5,312.5 C 247.56565,312.5 262.49019,312.62745 267,311.5 C 272.69455,310.07636 274.37436,311.62821 275.5,306 C 275.90569,303.97154 278.65142,302.51144 280,301.5 C 283.07338,299.19497 284.25809,298.98382 286,295.5 C 288.10198,291.29604 289.21725,297.36898 289.5,298.5 C 290.15127,301.10507 291.06029,301.91373 293,304.5 C 294.16619,306.05492 294.62563,308.12563 296,309.5 C 297.76777,311.26777 293.26777,305.26777 291.5,303.5 C 290.10524,302.10524 289.43215,299.7286 289,298 C 288.15895,294.63579 293.56954,292.47682 296.5,291.5 C 296.81623,291.39459 296.5,290.83333 296.5,290.5" id="path9015"/>
  <path style="fill:none;fill-rule:evenodd;stroke:#00b2fa;stroke-width:1px;stroke-linecap:butt;stroke-linejoin:miter;stroke-opacity:1" d="M 290.5,285.5 C 292.11877,284.96041 285.22499,281.30625 284,281 C 283.00449,280.75112 281.5146,281 280.5,281" id="path9017"/>
  <path style="fill:none;fill-rule:evenodd;stroke:#00b2fa;stroke-width:1px;stroke-linecap:butt;stroke-linejoin:miter;stroke-opacity:1" d="M 348,390.5 C 347.92856,391.12075 348.09504,395.19007 349.5,398 C 350.58775,400.1755 351.08511,403.17022 352,405 C 353.29458,407.58916 354.40976,406.68048 353,409.5 C 352.40258,410.69483 349.89791,411.20419 349,413 C 347.59836,415.80328 349.83558,417.5411 346,418.5 C 343.47557,419.13111 342.18381,420.26475 341.5,423 C 341.09968,424.60127 343,426.85239 343,429.5 C 343,432.16667 343,434.83333 343,437.5 C 343,440.43071 340.74432,442.75568 339,444.5 C 337.5877,445.9123 335.09487,447.70256 333.5,448.5 C 330.75736,449.87132 329.35835,450 326,450 C 323.00903,450 321.93848,447.74608 321,451.5 C 320.1403,454.93879 319.96047,454.76976 317.5,456 C 316.52362,456.48819 315.41374,461.17253 315,462 C 314.17056,463.65888 308.89652,467.10348 307.5,468.5 C 306.18093,469.81907 306.56358,470.46821 304.5,471.5" id="path9904"/>
  <path style="fill:none;fill-rule:evenodd;stroke:#00b2fa;stroke-width:1.5;stroke-linecap:butt;stroke-linejoin:miter;stroke-opacity:1;stroke-miterlimit:4;stroke-dasharray:none" d="M 297.5,463 C 297.37926,463.12074 288.66705,463.76185 287,464 C 284.22593,464.3963 280.01433,464.00358 278,463.5 C 277.74049,463.43512 278,456.67734 278,456 C 278,452.6858 280.65713,452.62852 280,450 C 279.42738,447.7095 277.79885,445.6954 277.5,444.5 C 276.98869,442.45476 278.55719,448.61438 279.5,450.5 C 280.65627,452.81254 279.70088,455.09824 279,456.5 C 278.21208,458.07583 279,462.19173 279,464 C 279,466.79963 279.15235,469.1953 278,471.5 C 276.92732,473.64537 276.5,474.19374 276.5,477.5 C 276.5,480.61507 276.57557,483.62213 276,486.5 C 275.44344,489.2828 274.68393,490.81607 273,492.5 C 271.35965,494.14035 270.02624,495.46501 268.5,497.5 C 266.7493,499.83426 268,500.88877 268,496.5 C 268,493.29182 269.83618,493.83618 267,491" id="path9906"/>
  <path style="fill:none;fill-rule:evenodd;stroke:#00b2fa;stroke-width:1px;stroke-linecap:butt;stroke-linejoin:miter;stroke-opacity:1" d="M 292,523 C 289.91167,520.91167 290.82077,517.14155 289.5,514.5 C 288.35524,512.21049 288.1905,510.61901 289.5,508 C 290.8181,505.3638 293.1704,503.3296 295.5,501 C 297.86462,498.63538 298.78855,497.78855 296,495 C 294.00464,493.00464 295.4173,490.83079 296,488.5 C 296.12269,488.00926 296.77337,486.17988 297,485.5" id="path10793"/>
  <path style="fill:none;fill-rule:evenodd;stroke:#00b2fa;stroke-width:1.5;stroke-linecap:butt;stroke-linejoin:miter;stroke-opacity:1;stroke-miterlimit:4;stroke-dasharray:none" d="M 344,155.5 C 344.77621,152.39515 342.92783,150.26804 348,149 C 348.87073,148.78232 349.66667,148.33333 350.5,148 C 353.385,146.846 354.59366,145.5 359,145.5 C 361.20736,145.5 360.5,140.49524 360.5,138.5 C 360.5,135.18908 361.08574,133.91426 363,132 C 363.87398,131.12602 363,124.91237 363,123.5 C 363,119.52934 363.24667,119.74667 361,117.5 C 358.94258,115.44258 358.13805,114.55221 357.5,112 C 356.5315,108.12599 354.86271,105.86271 352.5,103.5 C 350.21152,101.21152 349.79738,99.797379 348,98 C 346.51971,96.519714 342.51666,97.258331 340,96 C 337.15746,94.578731 336.17682,91.676818 334.5,90 C 331.83107,87.331074 332,84.007408 332,80.5 C 332,78 332,75.5 332,73 C 332,71.158964 334.91699,67.083012 336,66 C 337.11748,64.882516 337.56915,62.223383 338,60.5 C 338.54508,58.31967 338,55.26073 338,53 C 338,50.5 338,48 338,45.5 C 338,42.833333 338,40.166667 338,37.5 C 338,33.169015 337.37105,32.935524 333.5,31 C 330.77431,29.637156 330.99212,29 327,29 C 322.3809,29 318.98053,27.384421 316,25 C 311.32061,21.256492 310.67166,21 303.5,21 C 301.62394,21 299.11096,18.022192 296.5,17.5 C 293.88091,16.976182 291.26289,17 288.5,17 C 285.62481,17 283.7813,19.804675 281,20.5 C 278.27383,21.181541 276.66777,21.916115 274.5,23 C 271.78547,24.357264 270.36934,25.130661 268,27.5 C 266.14942,29.350576 264.00984,30.245079 262.5,31 C 259.65747,32.421263 258.02566,35.487171 256,36.5 C 253.05657,37.971713 251.79817,37.403662 250.5,40 C 249.58104,41.837928 246.71124,44.288757 245.5,45.5 C 243.45921,47.540786 243.60905,49.043209 241,51 C 238.67398,52.744518 235.62598,53.343505 233,54 C 230.31994,54.670015 228.36147,56.069267 226.5,57 C 224.46752,58.01624 222.2263,61.773701 221,63 C 219.62713,64.372868 216.44989,65.137527 215,65.5 C 212.67858,66.080356 212.5,67.865699 212.5,70.5 C 212.5,72.745513 210.8429,68.882175 209,67.5 C 207.6154,66.461552 201.28993,67.5 199.5,67.5 C 196.42871,67.5 193.42366,67.515267 191,68 C 187.52889,68.694221 183.82311,68.669222 180.5,69.5 C 178.16841,70.082897 175.60449,70 173,70 C 171.41348,70 172.5,71.498461 172.5,67 C 172.5,64.727981 172,62.750185 172,60 C 172,57.5 172,55 172,52.5 C 172,50.059835 171.40391,47.807825 170.5,46 C 169.28565,43.571301 168.8351,42.3351 167,40.5 C 165.62853,39.128528 164.69587,37.195868 163,35.5 C 161.40182,33.901823 160.55915,31.54732 158,29.5 C 156.15648,28.025181 155.03811,26.038106 153.5,24.5 C 151.46582,22.465817 149.67392,21.534784 147,21 C 144.40037,20.480075 141.16802,21 138.5,21 C 137.29608,21 134.52234,24.977664 134,25.5 C 132.50544,26.994559 129.56309,27.484228 127.5,28 C 125.18955,28.577612 122.3089,28.047774 120.5,28.5 C 117.65646,29.210886 115.13924,30 112,30 C 108.41213,30 106.08911,31.205443 103.5,32.5 C 101.01189,33.744053 98.568871,34.215565 96,35.5 C 93.841266,36.579367 91.490497,37.509503 90,39 C 88.879342,40.120658 87.081548,47.336903 86.5,48.5 C 85.413524,50.672951 85.978813,53.91525 86.5,56 C 87.071242,58.284966 88.5,57.958623 88.5,61.5 C 88.5,64.507847 89.899233,66.096933 90,66.5 C 90.040423,66.66169 90,66.166667 90,66 C 90,64.056349 86.374369,67.625631 85,69 C 83.316048,70.683952 81.290528,71.209472 80,72.5 C 77.938542,74.561458 78.106881,75.544839 75.5,77.5 C 73.509994,78.992505 72.865761,80 70,80 C 66.937339,80 68,77.203462 68,74.5 C 68,72.062825 64.180165,70.840082 62.5,70 C 59.512249,68.506125 59.305415,67.701354 56.5,67 C 54.160168,66.415042 50.913956,67 48.5,67 C 46.40543,67 43.928974,63.928974 43,63 C 42.140688,62.140688 42,57.606919 42,56 C 42,53.5 42,51 42,48.5 C 42,44.555997 40.983299,45.362474 38.5,43.5 C 36.084968,41.688726 35.237363,40.737363 33.5,39 C 31.746176,37.246176 31.554977,35.719908 31,33.5" id="path11680"/>
  <path style="fill:none;fill-rule:evenodd;stroke:#00b2fa;stroke-width:1px;stroke-linecap:butt;stroke-linejoin:miter;stroke-opacity:1" d="M 87,46 C 85.13661,44.13661 89.5,41.135231 89.5,38.5 C 89.5,35.2131 89.228065,34.228065 87.5,32.5 C 85.838291,30.838291 85.365615,28.365615 84,27 C 82.550845,25.550845 82.534232,23.034232 81,21.5 C 79.08991,19.58991 79.355618,17.577527 80,15 C 80.663643,12.34543 82.35002,11.099918 83,8.5" id="path12567"/>
  <path style="fill:none;fill-rule:evenodd;stroke:#00b2fa;stroke-width:1.5;stroke-linecap:butt;stroke-linejoin:miter;stroke-opacity:1;stroke-miterlimit:4;stroke-dasharray:none" d="M 62.5,9 C 63.078764,6.6849455 66.684946,11.421236 69,12 C 71.651162,12.66279 68.338582,16.790355 67.5,17 C 65.244101,17.563975 62.270253,18.557437 60.5,19 C 58.307741,19.548065 57.140547,21.359453 56,22.5 C 54.284613,24.215387 59.420041,26.210021 60,26.5 C 60.87086,26.93543 63.162634,30.150537 63.5,31.5 C 63.842997,32.871989 65.235089,33.867544 66.5,34.5 C 68.238454,35.369227 63.971405,37.614382 63.5,39.5 C 62.954918,41.68033 63.5,44.73927 63.5,47 C 63.5,49.87657 64,51.45423 64,54 C 64,57.035165 64.883105,60.032418 65.5,62.5 C 66.164473,65.157893 66.30789,68.231558 67,71 C 67.641076,73.564306 66.969412,76.377648 67.5,78.5 C 68.196171,81.284683 68.5,84.164402 68.5,87.5 C 68.5,90.333333 68.5,93.166667 68.5,96 C 68.5,98.65427 68.509841,101.04921 69,103.5 C 69.485686,105.92843 69,109.02649 69,111.5 C 69,114.93375 66.765387,116.23461 65,118 C 63.106261,119.89374 61.527765,122.94447 60.5,125 C 59.406175,127.18765 57.318195,126.86361 56,129.5 C 54.267498,132.965 52.150988,129.65099 51,128.5 C 49.479084,126.97908 50.451224,123.95122 49,122.5 C 47.62552,121.12552 45.164167,120 42.5,120 C 39.593288,120 37.120505,120.06025 35,119 C 30.758239,116.87912 35.600225,118 37.5,118 C 39.763664,118 42.780023,118.94501 45,119.5 C 48.439303,120.35983 49.264072,121.02814 50.5,123.5 C 51.846506,126.19301 52.202978,126.77723 54.5,128.5 C 56.458629,129.96897 52.919872,133.08013 52.5,133.5 C 50.595305,135.4047 49.116788,137.38321 47.5,139 C 46.474542,140.02546 44.922173,140.15565 43.5,143 C 42.070596,145.85881 42.037242,146.26862 39.5,145 C 36.551311,143.52566 36.845996,143.19199 35.5,140.5 C 34.255349,138.0107 32.5,140.80805 32.5,136 C 32.5,133.5 32.5,131 32.5,128.5 C 32.5,125.84355 33.096604,131.19321 33.5,132 C 34.397527,133.79505 37.704945,132.39753 39.5,131.5 C 39.971405,131.2643 39.833333,130.5 40,130" id="path12569"/>
  <path style="fill:none;fill-rule:evenodd;stroke:#00b2fa;stroke-width:1.5;stroke-linecap:butt;stroke-linejoin:miter;stroke-opacity:1;stroke-miterlimit:4;stroke-dasharray:none" d="M 43,145 C 45.280351,143.85982 41.5,149.95049 41.5,152.5 C 41.5,156.1808 40.908318,156.27292 38,157 C 35.24487,157.68878 34.649589,159.29918 36,162 C 36.747407,163.49481 40.36418,165.48557 41.5,167 C 42.77167,168.69556 43.745389,169.74539 45,171 C 46.20971,172.20971 45.5,176.26805 45.5,178 C 45.5,179.45944 42.5,181.89695 42.5,177.5 C 42.5,176.76565 38.419367,175.5 37,175.5 C 35.269716,175.5 32.824,173.324 32,172.5 C 30.463409,170.96341 35.556349,175.02817 37.5,176 C 40.430733,177.46537 40.674689,176.84938 42,179.5 C 43.260181,182.02036 39.438974,182.74411 39,184.5 C 38.454918,186.68033 39,189.73927 39,192 C 39,195.15284 39.716571,197.19586 36.5,198 C 34.397174,198.52571 32.296111,199.55097 30.5,200 C 28.346272,200.53843 25.591664,204.90834 24.5,206 C 22.030519,208.46948 21.5,207.62058 21.5,210.5 C 21.5,212.50693 26,208.50693 26,206.5 C 26,203.92866 30.262191,202.1189 31.5,201.5 C 34.264813,200.11759 35.684465,199.73786 36.5,203 C 36.896198,204.58479 39.782107,205.78211 41,207 C 43.179172,209.17917 43.971865,210.47186 46,212.5 C 48.619517,215.11952 48.211281,216.14436 50.5,215 C 51.404582,214.54771 53.202412,211.29759 54,210.5 C 55.301564,209.19844 56.916447,206.16711 57.5,205 C 58.665721,202.66856 59.810518,201.5 63,201.5 C 65.088327,201.5 64.52333,197.47667 66,196 C 67.086929,194.91307 66.5,190.48218 66.5,188.5 C 66.5,185.61034 66.310159,183.37968 67.5,181 C 68.75077,178.49846 71.109748,177.39025 72.5,176 C 74.219127,174.28087 76.999523,174.25024 78.5,173.5 C 80.970755,172.26462 80.968155,169.96816 79.5,168.5 C 78.186154,167.18615 75.496324,166.24816 74,165.5 C 71.628236,164.31412 78.539519,163 79.5,163 C 80.661875,163 83.351525,158.14847 84,157.5 C 85.878167,155.62183 90.313489,156.55225 93,157 C 97.00834,157.66806 99.094597,157.04054 101,154.5 C 101.47476,153.86699 102.70908,158.70908 103.5,159.5 C 105.22254,161.22254 107.15571,161.5 110,161.5 C 110.83333,161.5 111.66667,161.5 112.5,161.5" id="path12571"/>
  <path style="fill:none;fill-rule:evenodd;stroke:#00b2fa;stroke-width:5;stroke-linecap:butt;stroke-linejoin:miter;stroke-opacity:1;stroke-miterlimit:4;stroke-dasharray:none" d="M 320.5,646.5 C 319.93812,645.8336 315.60934,643.21868 314,640 C 312.81673,637.63345 309.49614,635.49614 308,634 C 306.0562,632.0562 304.2463,630.2463 302.5,628.5 C 299.94675,625.94675 297.57635,624.07635 295,621.5 C 292.14836,618.64836 290.19948,617.05958 287,614.5 C 283.81335,611.95068 280.57942,608.57942 277.5,605.5 C 274.78715,602.78715 272.08652,599.93461 268.5,598.5 C 265.05977,597.12391 262.39885,593.39885 260.5,591.5 C 257.82941,588.82941 256.39306,586.89306 254,584.5 C 250.56599,581.06599 246.93499,577.93499 244,575 C 241.30289,572.30289 239.29611,570.59223 237.5,567 C 236.40224,564.80448 234.47119,563.62825 232.5,561 C 232.07574,560.43431 231.5,560 231,559.5 C 228.80822,557.30822 227.52428,556.52428 225,554 C 223.00989,552.00989 220.06684,549.75579 218,547 C 216.08018,544.44024 214.45836,542.45836 212.5,540.5 C 210.49698,538.49698 208.3617,536.68085 206,535.5 C 203.96311,534.48155 202.02979,533.2649 200.5,532.5 C 198.58542,531.54271 195.79736,529.89868 194,529 C 191.50915,527.75457 188.68006,527.13601 185.5,526.5 C 183.0767,526.01534 179.98912,526.5 177.5,526.5 C 175.28096,526.5 172.43363,527.5 169.5,527.5 C 167.17694,527.5 164.86961,528.0326 163,528.5 C 160.43687,529.14078 159.18492,530.82877 156.5,531.5 C 153.93415,532.14146 152.90907,533 150,533 C 148.05931,533 145.28013,533.5 143,533.5 C 139.99323,533.5 137.42899,535 134,535 C 130.815,535 127.511,534.74725 124.5,535.5 C 121.42046,536.26989 117.16032,535.5 114,535.5 C 110.49867,535.5 109.63937,535.63937 107.5,533.5 C 105.61221,531.61221 103.83219,529.87415 102,528.5 C 99.933316,526.94999 98.156283,524.65628 96.5,523 C 94.786561,521.28656 93.689042,518.75206 92,516.5 C 91.089272,515.2857 90.721253,511.38501 90.5,510.5 C 89.887448,508.04979 90.5,504.54429 90.5,502 C 90.5,499.24558 89.5,496.12571 89.5,493 C 89.5,489.63439 88.572909,488.64582 87.5,486.5 C 86.184132,483.86826 84.222202,481.6296 83,480 C 81.642544,478.19006 81.103363,475.91345 80.5,473.5 C 79.83348,470.83392 78.482077,467.96415 77.5,466 C 76.626803,464.25361 74.095497,463.38199 73.5,461 C 72.787807,458.15123 70.550755,456.62689 69.5,454 C 68.689117,451.97279 67.070137,450.14027 66,448 C 65.407944,446.81589 63.565174,445.79888 62.5,445" id="path13460"/>
  <path style="fill:none;fill-rule:evenodd;stroke:#00b2fa;stroke-width:1.5;stroke-linecap:butt;stroke-linejoin:miter;stroke-miterlimit:4;stroke-dasharray:none;stroke-opacity:1" d="M 252.5,586 C 252.20276,585.40552 247.70172,581.20172 246.5,580 C 244.43164,577.93164 241.78233,576.37644 240,574 C 238.64423,572.1923 235.322,570.322 233.5,568.5 C 231.19322,566.19322 228.48223,565.98223 226.5,564 C 225.4698,562.9698 221.53226,560.41935 220,559.5 C 217.30324,557.88195 214.74039,556.24039 212.5,554 C 210.54081,552.04081 208.31663,551.31663 207,550 C 204.47993,547.47993 202.89553,547.15112 199.5,548 C 196.36839,548.7829 201.57083,547.46458 203.5,546.5 C 206.70554,544.89723 208.58518,542.63827 212,541.5" id="path13462"/>
  <path style="fill:none;fill-rule:evenodd;stroke:#00b2fa;stroke-width:1px;stroke-linecap:butt;stroke-linejoin:miter;stroke-opacity:1" d="M 233,555.5 C 234.04694,554.97653 234.92353,550.30589 235.5,548 C 236.18282,545.26873 237.5,544.60089 237.5,541.5 C 237.5,540.36744 239.5,538.15205 239.5,535.5 C 239.5,532.26561 239.65819,530.28908 241,528.5 C 242.69056,526.24592 243.44906,526.5 247,526.5 C 249.5548,526.5 252.12068,526.53017 254,527 C 254.32338,527.08085 254.66667,527 255,527 C 258.44045,527 256.76495,527.73505 258.5,526" id="path14349"/>
  <path style="fill:none;fill-rule:evenodd;stroke:#00b2fa;stroke-width:1.5;stroke-linecap:butt;stroke-linejoin:miter;stroke-opacity:1;stroke-miterlimit:4;stroke-dasharray:none" d="M 14,464 C 14.685109,464.68511 15.082974,465.08297 16,466 C 17.063874,467.06387 18.655919,469 21,469 C 23.666667,469 26.333333,469 29,469 C 31.888454,469 33.813779,466.5 35.5,466.5 C 38,466.5 40.5,466.5 43,466.5 C 45.26073,466.5 48.31967,465.95492 50.5,466.5 C 52.764045,467.06601 55.391173,467.39117 57,469 C 58.460566,470.46057 59.933234,471.93323 61.5,473.5 C 63.433835,475.43383 65.875457,477.50183 66.5,480 C 67.140027,482.56011 67.852218,483.90887 68.5,486.5 C 69.05062,488.70248 69.974428,490.47443 71.5,492 C 72.969747,493.46975 74.527823,495.55565 75.5,497.5 C 76.755044,500.01009 77.993855,501.49385 80,503.5 C 81.586725,505.08672 82.147916,506.64792 84,508.5 C 85.751983,510.25198 91.977678,513.5 89.5,513.5 C 88.745385,512.74538 88.166667,511.83333 87.5,511 C 86.197765,509.37221 84.428926,508.07169 83,507 C 80.770165,505.32762 80.860581,504.18029 78.5,503 C 76.863608,502.1818 75.744892,499.48978 75,498 C 73.713271,495.42654 70.590619,497.95469 69.5,498.5 C 67.91192,499.29404 67.5,502.01187 67.5,504 C 67.5,507.55968 67.979703,508.25507 65,509 C 62.36649,509.65838 61.585655,511.15738 61,513.5" id="path14351"/>
  <path style="fill:none;fill-rule:evenodd;stroke:#00b2fa;stroke-width:3;stroke-linecap:butt;stroke-linejoin:miter;stroke-opacity:1;stroke-miterlimit:4;stroke-dasharray:none" d="M 62.5,444.5 C 61.856988,444.66075 57.84889,439.84889 56,438 C 54.522322,436.52232 53.297034,434.79703 52,433.5 C 50.366225,431.86623 48.827345,430.65469 48,429 C 46.737508,426.47502 46.175304,425.58765 44,424.5 C 41.82466,423.41233 38.415344,424 36,424 C 32.666667,424 29.333333,424 26,424 C 23.10036,424 20.992097,423.99605 19,423 C 16.924943,421.96247 16.306437,420.11287 15.5,418.5 C 14.305083,416.11017 16.636203,413.45519 17,412 C 17.420546,410.31782 20.162941,406.61608 21,405.5 C 22.510977,403.48536 24.637257,401.36274 26,400 C 27.5851,398.4149 29.671622,396.32838 31,395 C 32.572811,393.42719 33.591473,390.87804 35,389 C 36.458502,387.05533 38.233614,383.53277 39.5,381 C 40.713428,378.57314 43.377598,377.3112 45,376.5 C 47.631655,375.18417 47.998317,371.5101 48.5,368.5 C 49.107754,364.85348 46.446513,363.96791 44,362.5 C 40.47917,360.3875 37.030713,358.01536 34,356.5 C 31.021968,355.01098 30.683638,352.73455 30,350 C 29.446049,347.7842 30.012253,344.45099 30.5,342.5 C 31.178254,339.78698 31.5,338.36515 31.5,335.5 C 31.5,332.83333 31.5,330.16667 31.5,327.5 C 31.5,323.69311 31.58153,323.58153 29,321 C 28.115059,320.11506 27.126878,316.75376 26.5,315.5 C 25.993278,314.48656 25.527543,314.52754 25,314 C 23.34674,310.69348 20.627057,309.12706 19,307.5 C 17.090094,305.59009 16.5,304.9653 16.5,302 C 16.5,300 16.5,298 16.5,296" id="path15238"/>
  <path style="fill:none;fill-rule:evenodd;stroke:#00b2fa;stroke-width:2;stroke-linecap:butt;stroke-linejoin:miter;stroke-opacity:1;stroke-miterlimit:4;stroke-dasharray:none" d="M 31,328 C 31,327.00068 35.307135,322.88573 36,321.5 C 37.209854,319.08029 37.5,317.76002 37.5,314.5 C 37.5,311.84798 37.895248,309.41901 38.5,307 C 39.045082,304.81967 38.5,301.76073 38.5,299.5 C 38.5,296.60036 38.503951,294.4921 39.5,292.5 C 40.982407,289.53519 43.5,290.60975 43.5,286.5 C 43.5,283.83333 43.5,281.16667 43.5,278.5 C 43.5,275.10039 40.61386,273.65181 39,271.5 C 37.551929,269.56924 37,266.91662 37,264 C 37,261.5 37,259 37,256.5 C 37,253.10491 36.631831,250.49089 38.5,248 C 40.525148,245.2998 40.659487,243.36205 41.5,240 C 42.270555,236.91778 38.12671,238 36,238 C 32.383717,238 31,239.27457 31,234.5 C 31,231.7314 32.094778,229.31044 33,227.5 C 33.976892,225.54622 37.421735,224.0587 39.5,222.5 C 41.651094,220.88668 43.948723,220.16346 45.5,219 C 47.567881,217.44909 48.725953,215.83054 50.5,214.5" id="path16125"/>
  <path style="fill:none;fill-rule:evenodd;stroke:#00b2fa;stroke-width:1.5;stroke-linecap:butt;stroke-linejoin:miter;stroke-opacity:1;stroke-miterlimit:4;stroke-dasharray:none" d="M 73.5,454 C 75.165224,452.75108 74.455524,448.41105 73.5,446.5 C 72.211506,443.92301 70.652198,444.10879 70,441.5 C 69.186799,438.2472 70.799245,437.5 73.5,437.5 C 76.495152,437.5 78.645498,437.8545 80.5,436 C 82.293193,434.20681 82,432.55121 82,429.5 C 82,428.48936 77.601097,424.70219 77,423.5 C 75.659918,420.81984 78.700186,418.29981 79.5,417.5 C 80.874872,416.12513 81.678142,413.32186 83,412 C 84.086534,410.91347 80.036591,411 78.5,411 C 76.113696,411 83.932813,411.86563 85,414 C 86.279624,416.55925 86,421.05744 86,416 C 86,413.46289 84.848794,412.19759 84,410.5 C 83.208933,408.91787 82.91965,406.1786 82.5,404.5 C 81.951415,402.30566 79.716942,401.21694 78.5,400 C 76.2929,397.7929 74.24586,397.24586 72.5,395.5 C 70.823647,393.82365 69.528709,392.02871 68,390.5 C 66.118068,388.61807 64.72213,387.22213 63,385.5 C 60.728854,383.22885 58.853482,380.70696 57.5,378 C 56.44338,375.88676 55.5,374.72137 55.5,372 C 55.5,369.30941 53.996032,366.48413 53.5,364.5 C 52.858642,361.93457 51.315722,360.5393 50.5,358.5 C 50.054441,357.3861 46.380234,354.88023 45.5,354 C 43.622386,352.12239 42.53153,352.03153 40.5,350 C 39.473881,348.97388 40,344.91583 40,343 C 40,340.5 40,338 40,335.5 C 40,334.83333 40,334.16667 40,333.5" id="path17012"/>
  <path style="fill:none;fill-rule:evenodd;stroke:#00b2fa;stroke-width:1px;stroke-linecap:butt;stroke-linejoin:miter;stroke-opacity:1" d="M 122,490 C 122,489.05066 117.49413,484.74706 116,484 C 113.17557,482.58778 111.61979,482.08984 109.5,480.5 C 107.59146,479.0686 106.42613,476.92613 105,475.5 C 103.22146,473.72146 101.83572,472.28096 100.5,470.5 C 98.69602,468.09469 97.5,468.23073 97.5,464.5 C 97.5,462 97.5,459.5 97.5,457 C 97.5,454.57743 95.993799,452.9752 95.5,451 C 94.985884,448.94354 94.007758,446.84368 93,445.5 C 91.941077,444.0881 92.20133,439.40266 91.5,438 C 91.211256,437.42251 91.5,435.69876 91.5,435" id="path17899"/>
  <path style="fill:none;fill-rule:evenodd;stroke:#00b2fa;stroke-width:1px;stroke-linecap:butt;stroke-linejoin:miter;stroke-opacity:1" d="M 167.5,525 C 166.3051,522.61021 162.11998,525.024 159.5,524.5 C 156.64087,523.92817 154.53152,524.76576 152,523.5 C 149.52235,522.26117 149.88122,520.7797 147,521.5 C 144.43531,522.14117 142.64161,524 146.5,524 C 149.29029,524 146.49381,518.99381 146,518.5 C 144.66569,517.16569 139.26171,518 137.5,518 C 137.42761,518 135.62558,512.50233 135.5,512 C 134.98708,509.94833 133.19644,508.39288 132.5,507 C 131.17323,504.34646 129.83492,504 126.5,504 C 123.55484,504 131.11296,504 133,504 C 136.46656,504 136.12793,501.25586 135.5,500 C 134.20447,497.40895 132.20679,496.5517 130,496 C 129.67662,495.91915 129.33333,496 129,496" id="path18786"/>
</svg>