<?xml version="1.0" encoding="utf-8"?>
<!-- Generator: Adobe Illustrator 15.0.0, SVG Export Plug-In . SVG Version: 6.00 Build 0)  -->
<!DOCTYPE svg PUBLIC "-//W3C//DTD SVG 1.1//EN" "http://www.w3.org/Graphics/SVG/1.1/DTD/svg11.dtd">
<svg version="1.1" id="Layer_1" xmlns="http://www.w3.org/2000/svg" xmlns:xlink="http://www.w3.org/1999/xlink" x="0px" y="0px"
	 width="512px" height="853px" viewBox="0 0 512 853" enable-background="new 0 0 512 853" xml:space="preserve">
<path fill-rule="evenodd" clip-rule="evenodd" d="M405,252c-40.662,0-81.338,0-122,0c0,46.662,0,93.338,0,140
	c4.835,1.761,13.544,1,20,1c12.999,0,26.001,0,39,0c44.995,0,90.005,0,135,0c0,17.665,0,35.335,0,53c-64.327,0-128.673,0-193,0
	c-1.315,3.608-1,9.885-1,15c0,9.666,0,19.334,0,29c0,32.33,0,64.67,0,97c9.24,1.614,22.157,1,33,1c18.665,0,37.335,0,56,0
	c7.666,0,15.334,0,23,0c3.85-0.008,7.689-0.917,9,0c2.021,2.291,1,9.948,1,14c0,12.999,0,26.001,0,39c-40.662,0-81.338,0-122,0
	c0,58.661,0,117.339,0,176c-4.333,1.591-12.089,1-18,1c-11.666,0-23.334,0-35,0c-1.581-4.34-1-12.083-1-18c0-11.999,0-24.001,0-36
	c0-40.996,0-82.004,0-123c-40.663,0-81.337,0-122,0c0-11.999,0-24.001,0-36c0-5.91-0.594-13.67,1-18c16.995,3.067,41.073,1,60,1
	c19.237,0,43.705,2.111,61-1c0-46.662,0-93.338,0-140c-4.835-1.761-13.544-1-20-1c-12.999,0-26.001,0-39,0c-44.996,0-90.004,0-135,0
	c0-17.665,0-35.335,0-53c64.327,0,128.673,0,193,0c0.844-1.135-0.127-0.146,1-1c0-46.662,0-93.338,0-140c-40.663,0-81.337,0-122,0
	c0-11.999,0-24.001,0-36c0-5.91-0.594-13.669,1-18c12.283,2.187,29.04,1,43,1c25.664,0,51.336,0,77,0c1.492-4.094,1-11.352,1-17
	c0-10.999,0-22.001,0-33c0-37.663,0-75.337,0-113c4.333-1.59,12.088-1,18-1c11.665,0,23.335,0,35,0c1.492,4.094,1,11.352,1,17
	c0,10.999,0,22.001,0,33c0,37.663,0,75.337,0,113c8.141,2.97,26.615,1,37,1c27.331,0,54.669,0,82,0c0.579-0.417,0.146-1.633,2-1
	c0,0.333,0,0.667,0,1c2.021,2.292,1,9.948,1,14C405,225.999,405,239.001,405,252z"/>
</svg>
