<?xml version="1.0" encoding="utf-8"?>
<!-- Generator: Adobe Illustrator 15.0.0, SVG Export Plug-In . SVG Version: 6.00 Build 0)  -->
<!DOCTYPE svg PUBLIC "-//W3C//DTD SVG 1.1//EN" "http://www.w3.org/Graphics/SVG/1.1/DTD/svg11.dtd">
<svg version="1.1" id="Layer_1" xmlns="http://www.w3.org/2000/svg" xmlns:xlink="http://www.w3.org/1999/xlink" x="0px" y="0px"
	 width="256px" height="256px" viewBox="0 0 256 256" enable-background="new 0 0 256 256" xml:space="preserve">
<g>
	<g>
		<path fill-rule="evenodd" clip-rule="evenodd" fill="#080808" d="M146.455,100.08V2.679h-36.55v97.401H2.614v38.01h107.291
			v116.405h36.55V138.09h107.292v-38.01H146.455z M46.238,89.389h12.97V52.567h34.192V39.501H59.208V7.43h-12.97v32.071H12.046
			v13.066h34.192V89.389z M197.153,89.389h12.969v-38.01h34.192V39.501h-34.192V7.43h-12.969v32.071h-34.19v11.878h34.19V89.389z
			 M58.029,151.155H46.238v32.07H12.046v11.879h34.192v38.01h11.791v-38.01h35.371v-11.879H58.029V151.155z M210.122,151.155
			h-12.969v32.07h-34.19v13.067h34.19v36.821h12.969v-36.821h34.192v-13.067h-34.192V151.155z"/>
	</g>
	<g>
		<path fill="none" stroke="#000000" stroke-width="2" stroke-miterlimit="10" d="M146.455,100.08V2.679h-36.55v97.401H2.614v38.01
			h107.291v116.405h36.55V138.09h107.292v-38.01H146.455z M46.238,89.389h12.97V52.567h34.192V39.501H59.208V7.43h-12.97v32.071
			H12.046v13.066h34.192V89.389z M197.153,89.389h12.969v-38.01h34.192V39.501h-34.192V7.43h-12.969v32.071h-34.19v11.878h34.19
			V89.389z M58.029,151.155H46.238v32.07H12.046v11.879h34.192v38.01h11.791v-38.01h35.371v-11.879H58.029V151.155z
			 M210.122,151.155h-12.969v32.07h-34.19v13.067h34.19v36.821h12.969v-36.821h34.192v-13.067h-34.192V151.155z"/>
	</g>
</g>
</svg>
