<?xml version="1.0" encoding="utf-8"?>
<!-- Generator: Adobe Illustrator 15.0.0, SVG Export Plug-In . SVG Version: 6.00 Build 0)  -->
<!DOCTYPE svg PUBLIC "-//W3C//DTD SVG 1.1//EN" "http://www.w3.org/Graphics/SVG/1.1/DTD/svg11.dtd">
<svg version="1.1" id="Layer_1" xmlns="http://www.w3.org/2000/svg" xmlns:xlink="http://www.w3.org/1999/xlink" x="0px" y="0px"
	 width="1280px" height="1280px" viewBox="0 0 1280 1280" enable-background="new 0 0 1280 1280" xml:space="preserve">
<path fill-rule="evenodd" clip-rule="evenodd" d="M583,69c41.996,0,84.004,0,126,0c0,0.333,0,0.667,0,1
	c4.333,0.333,8.667,0.667,13,1c0,0.333,0,0.667,0,1c1.333,0,2.667,0,4,0c0,0.333,0,0.667,0,1c1.333,0,2.667,0,4,0
	c0,0.333,0,0.667,0,1c1.333,0,2.667,0,4,0c0,0.333,0,0.667,0,1c1.333,0,2.667,0,4,0c0,0.333,0,0.667,0,1c1.666,0,3.334,0,5,0
	c0,0.333,0,0.667,0,1c5.666,0.333,11.334,0.667,17,1c0,0.333,0,0.667,0,1c2.333,0,4.667,0,7,0c0,0.333,0,0.667,0,1c2,0,4,0,6,0
	c0,0.333,0,0.667,0,1c1.666,0,3.334,0,5,0c0,0.333,0,0.667,0,1c1.333,0,2.667,0,4,0c0,0.333,0,0.667,0,1c1.333,0,2.667,0,4,0
	c0,0.333,0,0.667,0,1c1.333,0,2.667,0,4,0c0,0.333,0,0.667,0,1c7.999,1,16.001,2,24,3c0,0.333,0,0.667,0,1
	c2.666,0.333,5.334,0.667,8,1c0,0.333,0,0.667,0,1c1,0,2,0,3,0c0,0.333,0,0.667,0,1c1.333,0,2.667,0,4,0c0,0.333,0,0.667,0,1
	c1.333,0,2.667,0,4,0c0,0.333,0,0.667,0,1c1.666,0,3.334,0,5,0c0,0.333,0,0.667,0,1c1.333,0,2.667,0,4,0c0,0.333,0,0.667,0,1
	c1.666,0,3.334,0,5,0c0,0.333,0,0.667,0,1c1,0,2,0,3,0c0,0.333,0,0.667,0,1c1.333,0,2.667,0,4,0c0,0.333,0,0.667,0,1c1,0,2,0,3,0
	c0,0.333,0,0.667,0,1c1,0,2,0,3,0c0,0.333,0,0.667,0,1c1.333,0,2.667,0,4,0c0,0.333,0,0.667,0,1c2.666,0.333,5.334,0.667,8,1
	c0,0.333,0,0.667,0,1c1.666,0,3.334,0,5,0c8.332,2.667,16.668,5.333,25,8c3.333,0.333,6.667,0.667,10,1c0,0.333,0,0.667,0,1
	c1.333,0,2.667,0,4,0c0,0.333,0,0.667,0,1c1.666,0,3.334,0,5,0c0,0.333,0,0.667,0,1c1.333,0,2.667,0,4,0c0,0.333,0,0.667,0,1
	c1.333,0,2.667,0,4,0c0,0.333,0,0.667,0,1c1.666,0,3.334,0,5,0c0,0.333,0,0.667,0,1c2.333,0,4.667,0,7,0c0,0.333,0,0.667,0,1
	c2.666,0,5.334,0,8,0c0,0.333,0,0.667,0,1c4.999,0,10,0,15,0c0,0.333,0,0.667,0,1c11.665,0,23.334,0,35,0c0-0.333,0-0.667,0-1
	c4.999,0,10,0,15,0c0-0.333,0-0.667,0-1c2.333,0,4.667,0,7,0c0-0.333,0-0.667,0-1c2.333,0,4.667,0,7,0c0-0.333,0-0.667,0-1
	c1.333,0,2.667,0,4,0c0-0.333,0-0.667,0-1c1.333,0,2.667,0,4,0c0-0.333,0-0.667,0-1c1.333,0,2.667,0,4,0c0-0.333,0-0.667,0-1
	c1.333,0,2.667,0,4,0c0-0.333,0-0.667,0-1c2,0,4,0,6,0c0-0.333,0-0.667,0-1c3.333,0,6.667,0,10,0c0-0.333,0-0.667,0-1
	c5.666,0,11.334,0,17,0c0,0.333,0,0.667,0,1c2.666,0,5.334,0,8,0c0,0.333,0,0.667,0,1c1.333,0,2.667,0,4,0c0,0.333,0,0.667,0,1
	c2,0.667,4,1.333,6,2c0.333,0.667,0.667,1.333,1,2c0.667,0,1.333,0,2,0c1.333,1.667,2.667,3.333,4,5c0.667,0.333,1.333,0.667,2,1
	c0,0.667,0,1.333,0,2c0.667,0.333,1.333,0.667,2,1c0,1,0,2,0,3c8.554,19.128-5.933,36.933-16,47c-29.997,29.664-60.003,59.336-90,89
	c-3,3.333-6,6.667-9,10c-1.333,1-2.667,2-4,3c0,0.667,0,1.333,0,2c-3.333,3-6.667,6-10,9c-1.684,2.375-1.862,5.154-4,7
	c-0.06,4.324,0.412,7.907,1,11c3.367,1.839,4.709,3.724,10,4c0-0.333,0-0.667,0-1c2-0.333,4-0.667,6-1c0.333-0.667,0.667-1.333,1-2
	c0.667,0,1.333,0,2,0c1.666-2,3.334-4,5-6c0.667,0,1.333,0,2,0c10.999-11.332,22.001-22.668,33-34
	c23.664-23.331,47.336-46.669,71-70c3-3.333,6-6.667,9-10c0.667,0,1.333,0,2,0c1-1.333,2-2.667,3-4c0.667,0,1.333,0,2,0
	c0.333-0.667,0.667-1.333,1-2c0.667,0,1.333,0,2,0c0.333-0.667,0.667-1.333,1-2c0.667,0,1.333,0,2,0c0-0.333,0-0.667,0-1
	c0.667,0,1.333,0,2,0c0-0.333,0-0.667,0-1c2-0.333,4-0.667,6-1c3.139-1.169,10.425-3.671,16-2c0,0.333,0,0.667,0,1
	c2.333,0.333,4.667,0.667,7,1c0,0.333,0,0.667,0,1c1.333,0.333,2.667,0.667,4,1c0.333,0.667,0.667,1.333,1,2
	c10.711,7.222,12.002,12.335,12,30c0,4.333,0,8.667,0,13c-0.333,0-0.667,0-1,0c0,2.333,0,4.667,0,7c-0.333,0-0.667,0-1,0
	c0,1.333,0,2.667,0,4c-0.333,0-0.667,0-1,0c0,1.333,0,2.667,0,4c-0.333,0-0.667,0-1,0c0,1.333,0,2.667,0,4c-0.333,0-0.667,0-1,0
	c0,1.333,0,2.667,0,4c-0.333,0-0.667,0-1,0c-0.333,4.333-0.667,8.667-1,13c-0.333,0-0.667,0-1,0c-0.333,8.999-0.667,18.001-1,27
	c-0.333,0-0.667,0-1,0c-1.273,4.573,0.088,21.757,1,25c0,5,0,10,0,15c0.333,0,0.667,0,1,0c0.333,8.999,0.667,18.001,1,27
	c0.333,0,0.667,0,1,0c0,2,0,4,0,6c0.333,0,0.667,0,1,0c0,1.333,0,2.667,0,4c0.333,0,0.667,0,1,0c0,1.333,0,2.667,0,4
	c0.333,0,0.667,0,1,0c0,1.333,0,2.667,0,4c0.333,0,0.667,0,1,0c0,1.333,0,2.667,0,4c0.333,0,0.667,0,1,0c0,1.667,0,3.333,0,5
	c5.996,18.666,10.807,39.597,17,58c0.667,5,1.333,10,2,15c0.333,0,0.667,0,1,0c0,1.333,0,2.667,0,4c0.333,0,0.667,0,1,0
	c0,1.333,0,2.667,0,4c0.333,0,0.667,0,1,0c0,1.333,0,2.667,0,4c0.333,0,0.667,0,1,0c0,1.333,0,2.667,0,4c0.333,0,0.667,0,1,0
	c0,1,0,2,0,3c0.333,0,0.667,0,1,0c0,1.333,0,2.667,0,4c0.333,0,0.667,0,1,0c0.667,5.666,1.333,11.334,2,17
	c2.63,8.739,4.406,18.927,7,28c0.333,10.666,0.667,21.334,1,32c0,15.332,0,30.668,0,46c-0.333,0-0.667,0-1,0
	c-0.333,9.333-0.667,18.667-1,28c0.003,31.477,1.995,57.468,2,89c-0.333,13.332-0.667,26.668-1,40c-0.333,0-0.667,0-1,0
	c-0.333,3.666-0.667,7.334-1,11c-0.333,0-0.667,0-1,0c0,1.333,0,2.667,0,4c-0.333,0-0.667,0-1,0c0,1.333,0,2.667,0,4
	c-0.333,0-0.667,0-1,0c0,1.333,0,2.667,0,4c-0.333,0-0.667,0-1,0c0,1.333,0,2.667,0,4c-0.333,0-0.667,0-1,0
	c-0.667,5.333-1.333,10.667-2,16c-0.333,0-0.667,0-1,0c0,1.333,0,2.667,0,4c-0.333,0-0.667,0-1,0c0,1.333,0,2.667,0,4
	c-0.333,0-0.667,0-1,0c0,1.333,0,2.667,0,4c-0.333,0-0.667,0-1,0c0,1,0,2,0,3c-0.333,0-0.667,0-1,0c0,1.333,0,2.667,0,4
	c-0.333,0-0.667,0-1,0c-0.667,5-1.333,10.001-2,15c-0.333,0-0.667,0-1,0c-0.333,2.666-0.667,5.334-1,8c-0.333,0-0.667,0-1,0
	c0,1,0,2,0,3c-0.333,0-0.667,0-1,0c0,1,0,2,0,3c-0.333,0-0.667,0-1,0c0,1,0,2,0,3c-0.333,0-0.667,0-1,0c0,1.333,0,2.667,0,4
	c-0.333,0-0.667,0-1,0c0,1,0,2,0,3c-0.333,0-0.667,0-1,0c0,1.333,0,2.667,0,4c-0.333,0-0.667,0-1,0c0,1.333,0,2.667,0,4
	c-0.333,0-0.667,0-1,0c0,1.333,0,2.667,0,4c-0.333,0-0.667,0-1,0c-0.333,2.333-0.667,4.667-1,7c-0.333,0-0.667,0-1,0
	c-0.333,2.333-0.667,4.667-1,7c-0.333,0-0.667,0-1,0c-1,5.666-2,11.334-3,17c-0.333,0-0.667,0-1,0c0,1.333,0,2.667,0,4
	c-0.333,0-0.667,0-1,0c0,1.333,0,2.667,0,4c-0.333,0-0.667,0-1,0c0,1.333,0,2.667,0,4c-0.333,0-0.667,0-1,0c0,1.333,0,2.667,0,4
	c-0.333,0-0.667,0-1,0c0,2,0,4,0,6c-0.333,0-0.667,0-1,0c0,2.333,0,4.667,0,7c-0.333,0-0.667,0-1,0c-0.333,6.333-0.667,12.667-1,19
	c-0.333,0-0.667,0-1,0c0,3,0,6,0,9c-0.333,0-0.667,0-1,0c0,3.666,0,7.334,0,11c-0.333,0-0.667,0-1,0c0,2.666,0,5.334,0,8
	c0.333,0,0.667,0,1,0c0,3.666,0,7.334,0,11c0.333,0,0.667,0,1,0c0,3.333,0,6.667,0,10c0.333,0,0.667,0,1,0
	c0.333,6.999,0.667,14.001,1,21c0.333,0,0.667,0,1,0c0,2.333,0,4.667,0,7c0.333,0,0.667,0,1,0c0,1.666,0,3.334,0,5
	c0.333,0,0.667,0,1,0c0,1.666,0,3.334,0,5c0.333,0,0.667,0,1,0c0,1.333,0,2.667,0,4c0.333,0,0.667,0,1,0c0,1.333,0,2.667,0,4
	c0.333,0,0.667,0,1,0c0,1.333,0,2.667,0,4c0.333,0,0.667,0,1,0c0,3.333,0,6.667,0,10c0.333,0,0.667,0,1,0c0,3.666,0,7.334,0,11
	c-0.333,0-0.667,0-1,0c0,3,0,6,0,9c-0.333,0-0.667,0-1,0c-0.333,2-0.667,4-1,6c-1.962,4.437-5.733,7.795-9,11c-0.667,1-1.333,2-2,3
	c-3,1-6,2-9,3c-23.301,8.629-44.877-16.875-56-28c-31.664-31.33-63.337-62.67-95-94c-7.932-7.933-14.747-16.323-24-23
	c-1-1.333-2-2.667-3-4c-3.643-3.256-8.177-4.904-15-5c-1.166,1.361-1.824,1.528-4,2c-1.656,3.643-2.941,5.233-3,11
	c0.333,0,0.667,0,1,0c0.333,1.666,0.667,3.334,1,5c0.667,0.333,1.333,0.667,2,1c0,0.667,0,1.333,0,2c3.666,3.333,7.334,6.667,11,10
	c0,0.667,0,1.333,0,2c10.999,10.332,22.001,20.668,33,31c20.664,20.998,41.335,42.002,62,63c0.667,0,1.333,0,2,0
	c1.666,2,3.334,4,5,6c1,0.333,2,0.667,3,1c3.333,3.666,6.667,7.334,10,11c2.666,2.333,5.334,4.667,8,7c0,0.667,0,1.333,0,2
	c0.333,0,0.667,0,1,0c0.667,1,1.333,2,2,3c1.666,1.333,3.334,2.667,5,4c0,0.667,0,1.333,0,2c1.333,1,2.667,2,4,3
	c0,0.667,0,1.333,0,2c0.667,0.333,1.333,0.667,2,1c0,0.667,0,1.333,0,2c0.667,0.333,1.333,0.667,2,1c0,0.667,0,1.333,0,2
	c0.333,0,0.667,0,1,0c0.333,2,0.667,4,1,6c1.222,3.28,3.742,11.225,2,17c-0.333,0-0.667,0-1,0c0,1.333,0,2.667,0,4
	c-0.333,0-0.667,0-1,0c0,0.667,0,1.333,0,2c-0.333,0-0.667,0-1,0c-0.667,2-1.333,4-2,6c-0.667,0.333-1.333,0.667-2,1
	c-1.333,1.666-2.667,3.334-4,5c-0.667,0-1.333,0-2,0c-0.333,0.667-0.667,1.333-1,2c-1.333,0.333-2.667,0.667-4,1
	c0,0.333,0,0.667,0,1c-2,0.333-4,0.667-6,1c0,0.333,0,0.667,0,1c-3,0-6,0-9,0c0,0.333,0,0.667,0,1c-4,0-8,0-12,0
	c0-0.333,0-0.667,0-1c-3.333,0-6.667,0-10,0c-7.373-2.097-15.828-3.895-23-6c-2.333,0-4.667,0-7,0c0-0.333,0-0.667,0-1
	c-3.333,0-6.667,0-10,0c0-0.333,0-0.667,0-1c-5.999,0-12.001,0-18,0c0-0.333,0-0.667,0-1c-5.184-1.443-28.124-0.093-32,1
	c-8.666,0.333-17.334,0.667-26,1c-10.193,2.973-21.091,5.01-31,8c-3.666,0.333-7.334,0.667-11,1c-15.034,4.825-32.362,8.813-47,14
	c-3,0.333-6,0.667-9,1c0,0.333,0,0.667,0,1c-3,0.333-6,0.667-9,1c0,0.333,0,0.667,0,1c-1,0-2,0-3,0c0,0.333,0,0.667,0,1
	c-1.333,0-2.667,0-4,0c0,0.333,0,0.667,0,1c-1.333,0-2.667,0-4,0c0,0.333,0,0.667,0,1c-2.666,0.333-5.334,0.667-8,1
	c0,0.333,0,0.667,0,1c-5.333,0.667-10.667,1.333-16,2c-8.205,2.474-17.78,4.572-26,7c-2.333,0-4.667,0-7,0c0,0.333,0,0.667,0,1
	c-4.333,0-8.667,0-13,0c0,0.333,0,0.667,0,1c-4-0.333-8-0.667-12-1c-10.666,0-21.334,0-32,0c-4.333,0-8.667,0-13,0
	c-6.661,1.854-17.671,0.999-26,1c-16.998,0-34.002,0-51,0c-30.33-0.333-60.67-0.667-91-1c0-0.333,0-0.667,0-1c-4-0.333-8-0.667-12-1
	c0-0.333,0-0.667,0-1c-1,0-2,0-3,0c0-0.333,0-0.667,0-1c-1.333,0-2.667,0-4,0c0-0.333,0-0.667,0-1c-1.333,0-2.667,0-4,0
	c0-0.333,0-0.667,0-1c-1.333,0-2.667,0-4,0c0-0.333,0-0.667,0-1c-1.333,0-2.667,0-4,0c0-0.333,0-0.667,0-1c-2,0-4,0-6,0
	c0-0.333,0-0.667,0-1c-1.667,0-3.333,0-5,0c0-0.333,0-0.667,0-1c-1.667,0-3.333,0-5,0c0-0.333,0-0.667,0-1c-1.667,0-3.333,0-5,0
	c0-0.333,0-0.667,0-1c-1,0-2,0-3,0c0-0.333,0-0.667,0-1c-1.333,0-2.667,0-4,0c0-0.333,0-0.667,0-1c-1.333,0-2.667,0-4,0
	c0-0.333,0-0.667,0-1c-1,0-2,0-3,0c0-0.333,0-0.667,0-1c-1.333,0-2.667,0-4,0c0-0.333,0-0.667,0-1c-1.667,0-3.333,0-5,0
	c0-0.333,0-0.667,0-1c-2.667-0.333-5.333-0.667-8-1c0-0.333,0-0.667,0-1c-1,0-2,0-3,0c0-0.333,0-0.667,0-1
	c-3.667-0.667-7.333-1.333-11-2c0-0.333,0-0.667,0-1c-1.333,0-2.667,0-4,0c0-0.333,0-0.667,0-1c-1.667,0-3.333,0-5,0
	c0-0.333,0-0.667,0-1c-1.333,0-2.667,0-4,0c0-0.333,0-0.667,0-1c-1.333,0-2.667,0-4,0c0-0.333,0-0.667,0-1c-1.333,0-2.667,0-4,0
	c0-0.333,0-0.667,0-1c-1.333,0-2.667,0-4,0c0-0.333,0-0.667,0-1c-1.333,0-2.667,0-4,0c-12.474-4.438-28.027-7.207-41-11
	c-7-0.333-14-0.667-21-1c-5.446-1.539-14.943,0.709-21-1c0-0.333,0-0.667,0-1c-6.041-1.698-15.349,0.593-20,1c-6,0-12,0-18,0
	c0,0.333,0,0.667,0,1c-3.333,0-6.667,0-10,0c0,0.333,0,0.667,0,1c-2.667,0-5.333,0-8,0c0,0.333,0,0.667,0,1c-1.667,0-3.333,0-5,0
	c0,0.333,0,0.667,0,1c-1.333,0-2.667,0-4,0c0,0.333,0,0.667,0,1c-1.333,0-2.667,0-4,0c0,0.333,0,0.667,0,1c-1.333,0-2.667,0-4,0
	c0,0.333,0,0.667,0,1c-5.333,0.333-10.667,0.667-16,1c0,0.333,0,0.667,0,1c-6.105,1.699-27.061-2.194-30-4c0-0.333,0-0.667,0-1
	c-1-0.333-2-0.667-3-1c-0.333-0.667-0.667-1.333-1-2c-0.667,0-1.333,0-2,0c-1-1.333-2-2.667-3-4c-0.333,0-0.667,0-1,0
	c0-0.667,0-1.333,0-2c-0.667-0.333-1.333-0.667-2-1c0-0.667,0-1.333,0-2c-4.01-7.219-5.259-15.007-2-24c0-1,0-2,0-3
	c0.333,0,0.667,0,1,0c0-1,0-2,0-3c0.333,0,0.667,0,1,0c0-0.667,0-1.333,0-2c0.667-0.333,1.333-0.667,2-1
	c0.333-1.333,0.667-2.667,1-4c1-0.667,2-1.333,3-2c0-0.667,0-1.333,0-2c1.333-1,2.667-2,4-3c0-0.667,0-1.333,0-2
	c2-1.666,4-3.334,6-5c0.667-1,1.333-2,2-3c0.333,0,0.667,0,1,0c0-0.667,0-1.333,0-2c3.333-3,6.667-6,10-9c5-5.333,10-10.667,15-16
	c17.332-16.998,34.668-34.002,52-51c6-6.333,12-12.667,18-19c0.667,0,1.333,0,2,0c0.333-0.667,0.667-1.333,1-2c0.333,0,0.667,0,1,0
	c3.333-3.666,6.667-7.334,10-11c8.881-6.423,15.386-14.386,23-22c3.333-3,6.667-6,10-9c0-0.667,0-1.333,0-2
	c0.667-0.333,1.333-0.667,2-1c0-0.667,0-1.333,0-2c0.667-0.333,1.333-0.667,2-1c0.333-3.666,0.667-7.334,1-11
	c-1.139-1.14-0.398-0.004-1-2c-1.433-0.781-4.012-2.771-5-4c-3,0-6,0-9,0c0,0.333,0,0.667,0,1c-2,0.667-4,1.333-6,2
	c-1.667,2-3.333,4-5,6c-9.609,6.956-16.747,15.746-25,24c-34.33,33.997-68.67,68.004-103,102c-6.972,6.973-12.833,14.132-21,20
	c-1,1.333-2,2.667-3,4c-0.667,0-1.333,0-2,0c-0.333,0.667-0.667,1.333-1,2c-0.667,0-1.333,0-2,0c-0.333,0.667-0.667,1.333-1,2
	c-1.333,0.333-2.667,0.667-4,1c0,0.333,0,0.667,0,1c-1.333,0.333-2.667,0.667-4,1c0,0.333,0,0.667,0,1c-1.333,0-2.667,0-4,0
	c0,0.333,0,0.667,0,1c-4.333,0.333-8.667,0.667-13,1c0-0.333,0-0.667,0-1c-1.667,0-3.333,0-5,0c0-0.333,0-0.667,0-1
	c-1.667-0.333-3.333-0.667-5-1c-0.333-0.667-0.667-1.333-1-2c-0.667,0-1.333,0-2,0c-0.667-1-1.333-2-2-3
	c-1.667-1.333-3.333-2.667-5-4c0-0.667,0-1.333,0-2c-0.333,0-0.667,0-1,0c-0.667-2-1.333-4-2-6c-0.333,0-0.667,0-1,0
	c-0.333-4-0.667-8-1-12c-0.333,0-0.667,0-1,0c0-4.666,0-9.334,0-14c0.333,0,0.667,0,1,0c0-4,0-8,0-12
	c5.546-19.239,8.994-39.766,9-65c0.002-8.611,0.956-20.074-1-27c0-4.666,0-9.334,0-14c-0.333,0-0.667,0-1,0c0-2.333,0-4.667,0-7
	c-0.333,0-0.667,0-1,0c0-2,0-4,0-6c-0.333,0-0.667,0-1,0c0-1.666,0-3.334,0-5c-1.437-4.463-3.548-10.458-5-15
	c-1-5.999-2-12.001-3-18c-0.333,0-0.667,0-1,0c0-1,0-2,0-3c-0.333,0-0.667,0-1,0c-0.333-2.333-0.667-4.667-1-7c-0.333,0-0.667,0-1,0
	c-0.333-2.666-0.667-5.334-1-8c-0.333,0-0.667,0-1,0c-0.667-4.333-1.333-8.667-2-13c-6.189-17.329-9.575-37.736-15-56
	c-0.333-4.333-0.667-8.667-1-13c-2.474-8.187-3.54-18.502-6-27c-0.333-4.666-0.667-9.334-1-14c-0.333,0-0.667,0-1,0
	c0-2.333,0-4.667,0-7c-0.333,0-0.667,0-1,0c0-2,0-4,0-6c-2.333-7.999-4.667-16.001-7-24c-0.333-11.665-0.667-23.334-1-35
	c0-32.664,0-65.336,0-98c0.333,0,0.667,0,1,0c0-2.333,0-4.667,0-7c2.55-8.523,4.463-18.272,7-27c0.333-5.666,0.667-11.334,1-17
	c0.333,0,0.667,0,1,0c0-2.333,0-4.667,0-7c0.333,0,0.667,0,1,0c0-2,0-4,0-6c0.333,0,0.667,0,1,0c0-2,0-4,0-6c0.333,0,0.667,0,1,0
	c0-1.333,0-2.667,0-4c0.333,0,0.667,0,1,0c0-1.333,0-2.667,0-4c0.333,0,0.667,0,1,0c0-1.667,0-3.333,0-5c0.333,0,0.667,0,1,0
	c1-7.666,2-15.334,3-23c0.333,0,0.667,0,1,0c0-1.333,0-2.667,0-4c0.333,0,0.667,0,1,0c0-1,0-2,0-3c0.333,0,0.667,0,1,0
	c0.333-2.333,0.667-4.667,1-7c0.333,0,0.667,0,1,0c0-1.333,0-2.667,0-4c0.333,0,0.667,0,1,0c0.333-2.667,0.667-5.333,1-8
	c0.333,0,0.667,0,1,0c0.333-2.667,0.667-5.333,1-8c0.333,0,0.667,0,1,0c0-1.333,0-2.667,0-4c0.333,0,0.667,0,1,0
	c0-1.333,0-2.667,0-4c0.333,0,0.667,0,1,0c0-1,0-2,0-3c0.333,0,0.667,0,1,0c0-1.333,0-2.667,0-4c0.333,0,0.667,0,1,0c0-1,0-2,0-3
	c0.333,0,0.667,0,1,0c0.333-3,0.667-6,1-9c2.406-7.117,4.587-15.834,7-23c0.667-4.666,1.333-9.334,2-14
	c1.453-4.54,3.576-10.536,5-15c0-1.667,0-3.333,0-5c0.333,0,0.667,0,1,0c0.667-5.666,1.333-11.334,2-17c0-3,0-6,0-9
	c2.115-7.49,1-19.799,1-29c0.001-26.499-3.268-46.767-9-67c0-4,0-8,0-12c-0.333,0-0.667,0-1,0c-0.839-3.029,0.574-7.488,1-9
	c0-3.333,0-6.667,0-10c0.333,0,0.667,0,1,0c0.333-2,0.667-4,1-6c0.333,0,0.667,0,1,0c0.333-1.333,0.667-2.667,1-4
	c0.333,0,0.667,0,1,0c0-0.667,0-1.333,0-2c1-0.667,2-1.333,3-2c0-0.667,0-1.333,0-2c0.333,0,0.667,0,1,0c0.667-1,1.333-2,2-3
	c0.667,0,1.333,0,2,0c0.667-1,1.333-2,2-3c0.667,0,1.333,0,2,0c0-0.333,0-0.667,0-1c0.667,0,1.333,0,2,0c0-0.333,0-0.667,0-1
	c1,0,2,0,3,0c0-0.333,0-0.667,0-1c5.871-1.87,14.812,0.727,18,2c1,0,2,0,3,0c0,0.333,0,0.667,0,1c0.667,0,1.333,0,2,0
	c0,0.333,0,0.667,0,1c2,0.667,4,1.333,6,2c0.333,0.667,0.667,1.333,1,2c0.667,0,1.333,0,2,0c0.667,1,1.333,2,2,3
	c0.667,0,1.333,0,2,0c1.333,1.667,2.667,3.333,4,5c0.667,0,1.333,0,2,0c3.667,4,7.333,8,11,12c30.33,29.997,60.67,60.003,91,90
	c8.247,8.247,15.368,17.085,25,24c1,1.333,2,2.667,3,4c2.543,1.693,7.783,2.886,12,3c2.247-2.5,3.836-0.96,5-5c0.333,0,0.667,0,1,0
	c0-2.667,0-5.333,0-8c-2.131-1.856-2.316-4.622-4-7c-2.667-2.333-5.333-4.667-8-7c0-0.667,0-1.333,0-2c-6.333-6-12.667-12-19-18
	c-12.666-12.999-25.334-26.001-38-39c-12.332-11.666-24.668-23.334-37-35c0-0.667,0-1.333,0-2c-1-0.667-2-1.333-3-2
	c-1.667-2-3.333-4-5-6c-5.666-5.333-11.334-10.667-17-16c0-0.667,0-1.333,0-2c-1.667-1.333-3.333-2.667-5-4c0-0.667,0-1.333,0-2
	c-1-0.667-2-1.333-3-2c0-0.667,0-1.333,0-2c-0.667-0.333-1.333-0.667-2-1c-0.333-1.333-0.667-2.667-1-4
	c-0.667-0.333-1.333-0.667-2-1c-0.333-1.667-0.667-3.333-1-5c-0.333,0-0.667,0-1,0c0-0.667,0-1.333,0-2c-0.333,0-0.667,0-1,0
	c0-1,0-2,0-3c-0.333,0-0.667,0-1,0c0-2,0-4,0-6c-3.172-11.173,6.951-23.664,14-28c3.584-2.205,26.494-6.097,34-4
	c0,0.333,0,0.667,0,1c5.333,0.333,10.667,0.667,16,1c0,0.333,0,0.667,0,1c1.333,0,2.667,0,4,0c0,0.333,0,0.667,0,1
	c1.333,0,2.667,0,4,0c0,0.333,0,0.667,0,1c1.667,0,3.333,0,5,0c0,0.333,0,0.667,0,1c1.667,0,3.333,0,5,0c0,0.333,0,0.667,0,1
	c2,0,4,0,6,0c0,0.333,0,0.667,0,1c2.667,0,5.333,0,8,0c0,0.333,0,0.667,0,1c4.666,0,9.334,0,14,0c3.874,1.065,26.862,2.464,32,1
	c0-0.333,0-0.667,0-1c5.333,0,10.667,0,16,0c0-0.333,0-0.667,0-1c2.667,0,5.333,0,8,0c0-0.333,0-0.667,0-1c2.667,0,5.333,0,8,0
	c0-0.333,0-0.667,0-1c1.667,0,3.333,0,5,0c0-0.333,0-0.667,0-1c1.667,0,3.333,0,5,0c0-0.333,0-0.667,0-1c1.333,0,2.667,0,4,0
	c0-0.333,0-0.667,0-1c1.333,0,2.667,0,4,0c0-0.333,0-0.667,0-1c1.333,0,2.667,0,4,0c0-0.333,0-0.667,0-1c1.333,0,2.667,0,4,0
	c0-0.333,0-0.667,0-1c3-0.333,6-0.667,9-1c0-0.333,0-0.667,0-1c2.667-0.333,5.333-0.667,8-1c24.085-8.625,52.076-13.227,77-21
	c2,0,4,0,6,0c0-0.333,0-0.667,0-1c1.667,0,3.333,0,5,0c0-0.333,0-0.667,0-1c2,0,4,0,6,0c0-0.333,0-0.667,0-1c2,0,4,0,6,0
	c0-0.333,0-0.667,0-1c1.333,0,2.667,0,4,0c0-0.333,0-0.667,0-1c1.333,0,2.667,0,4,0c0-0.333,0-0.667,0-1c1.333,0,2.667,0,4,0
	c0-0.333,0-0.667,0-1c1.667,0,3.333,0,5,0c0-0.333,0-0.667,0-1c2,0,4,0,6,0c0-0.333,0-0.667,0-1c2.667,0,5.333,0,8,0
	c0-0.333,0-0.667,0-1c3,0,6,0,9,0c0-0.333,0-0.667,0-1c2.333,0,4.667,0,7,0c0-0.333,0-0.667,0-1c1.667,0,3.333,0,5,0
	c0-0.333,0-0.667,0-1c3-0.333,6-0.667,9-1c0-0.333,0-0.667,0-1c1.333,0,2.667,0,4,0c0-0.333,0-0.667,0-1
	c6.666-0.667,13.334-1.333,20-2C583,69.667,583,69.333,583,69z"/>
</svg>
