<?xml version="1.0" encoding="utf-8"?>
<!-- Generator: Adobe Illustrator 15.0.0, SVG Export Plug-In . SVG Version: 6.00 Build 0)  -->
<!DOCTYPE svg PUBLIC "-//W3C//DTD SVG 1.1//EN" "http://www.w3.org/Graphics/SVG/1.1/DTD/svg11.dtd">
<svg version="1.1" id="Layer_1" xmlns="http://www.w3.org/2000/svg" xmlns:xlink="http://www.w3.org/1999/xlink" x="0px" y="0px"
	 width="1280px" height="1280px" viewBox="0 0 1280 1280" enable-background="new 0 0 1280 1280" xml:space="preserve">
<g>
	<g>
		<path fill-rule="evenodd" clip-rule="evenodd" d="M1225,585c-0.333-4-0.667-8-1-12c-0.333,0-0.667,0-1,0c0-1.333,0-2.667,0-4
			c-1.588-4.712-3.411-11.288-5-16c-0.333-2.667-0.667-5.333-1-8c-0.333,0-0.667,0-1,0c0-1,0-2,0-3c-0.333,0-0.667,0-1,0
			c0-1,0-2,0-3c-0.333,0-0.667,0-1,0c0-1,0-2,0-3c-0.333,0-0.667,0-1,0c0-1,0-2,0-3c-0.333,0-0.667,0-1,0c-0.333-2-0.667-4-1-6
			c-0.333,0-0.667,0-1,0c0-0.667,0-1.333,0-2c-0.333,0-0.667,0-1,0c0-1,0-2,0-3c-0.333,0-0.667,0-1,0c-0.333-1.333-0.667-2.667-1-4
			c-0.333,0-0.667,0-1,0c0-1,0-2,0-3c-0.333,0-0.667,0-1,0c-0.667-2-1.333-4-2-6c-0.333,0-0.667,0-1,0c0-0.667,0-1.333,0-2
			c-0.333,0-0.667,0-1,0c-0.333-1.667-0.667-3.333-1-5c-0.667-0.333-1.333-0.667-2-1c0-0.667,0-1.333,0-2c-0.333,0-0.667,0-1,0
			c0-0.667,0-1.333,0-2c-0.333,0-0.667,0-1,0c0-0.667,0-1.333,0-2c-0.333,0-0.667,0-1,0c0-0.667,0-1.333,0-2c-0.333,0-0.667,0-1,0
			c0-0.667,0-1.333,0-2c-0.667-0.333-1.333-0.667-2-1c-0.333-1.333-0.667-2.667-1-4c-0.667-0.333-1.333-0.667-2-1
			c-0.333-1.333-0.667-2.667-1-4c-0.667-0.333-1.333-0.667-2-1c0-0.667,0-1.333,0-2c-0.333,0-0.667,0-1,0c0-0.667,0-1.333,0-2
			c-0.667-0.333-1.333-0.667-2-1c0-0.667,0-1.333,0-2c-0.667-0.333-1.333-0.667-2-1c0-0.667,0-1.333,0-2
			c-0.667-0.333-1.333-0.667-2-1c0-0.667,0-1.333,0-2c-0.667-0.333-1.333-0.667-2-1c0-0.667,0-1.333,0-2c-0.333,0-0.667,0-1,0
			c-0.333-1-0.667-2-1-3c-0.667-0.333-1.333-0.667-2-1c0-0.667,0-1.333,0-2c-1-0.667-2-1.333-3-2c0-0.667,0-1.333,0-2
			c-0.667-0.333-1.333-0.667-2-1c0-0.667,0-1.333,0-2c-1-0.667-2-1.333-3-2c0-0.667,0-1.333,0-2c-0.667-0.333-1.333-0.667-2-1
			c-0.333-1-0.667-2-1-3c-0.333,0-0.667,0-1,0c0-0.667,0-1.333,0-2c-0.667-0.333-1.333-0.667-2-1c0-0.667,0-1.333,0-2
			c-0.667-0.333-1.333-0.667-2-1c-0.333-1-0.667-2-1-3c-0.333,0-0.667,0-1,0c0-0.667,0-1.333,0-2c-0.667-0.333-1.333-0.667-2-1
			c0-0.667,0-1.333,0-2c-0.667-0.333-1.333-0.667-2-1c0-0.667,0-1.333,0-2c-0.667-0.333-1.333-0.667-2-1c0-0.667,0-1.333,0-2
			c-0.667-0.333-1.333-0.667-2-1c0-0.667,0-1.333,0-2c-0.667-0.333-1.333-0.667-2-1c-0.333-1.333-0.667-2.667-1-4
			c-0.333,0-0.667,0-1,0c-0.333-1-0.667-2-1-3c-0.667-0.333-1.333-0.667-2-1c0-0.667,0-1.333,0-2c-0.667-0.333-1.333-0.667-2-1
			c-0.333-1-0.667-2-1-3c-0.333,0-0.667,0-1,0c-0.333-1.333-0.667-2.667-1-4c-0.667-0.333-1.333-0.667-2-1
			c-0.333-1.333-0.667-2.667-1-4c-0.667-0.333-1.333-0.667-2-1c-0.333-1.333-0.667-2.667-1-4c-0.667-0.333-1.333-0.667-2-1
			c0-0.667,0-1.333,0-2c-0.333,0-0.667,0-1,0c0-0.667,0-1.333,0-2c-0.333,0-0.667,0-1,0c0-0.667,0-1.333,0-2c-0.333,0-0.667,0-1,0
			c0-0.667,0-1.333,0-2c-0.333,0-0.667,0-1,0c0-0.667,0-1.333,0-2c-0.333,0-0.667,0-1,0c0-0.667,0-1.333,0-2c-0.333,0-0.667,0-1,0
			c0-0.667,0-1.333,0-2c-0.333,0-0.667,0-1,0c-0.667-2-1.333-4-2-6c-0.333,0-0.667,0-1,0c-0.333-1.667-0.667-3.333-1-5
			c-0.333,0-0.667,0-1,0c0-0.667,0-1.333,0-2c-0.333,0-0.667,0-1,0c0-1,0-2,0-3c-0.333,0-0.667,0-1,0c0-0.667,0-1.333,0-2
			c-0.333,0-0.667,0-1,0c-3.666-12.332-7.334-24.668-11-37c-1.666-10.999-3.334-22.001-5-33c-0.333,0-0.667,0-1,0
			c-0.333-2.333-0.667-4.667-1-7c-0.333,0-0.667,0-1,0c0-0.667,0-1.333,0-2c-0.333,0-0.667,0-1,0c0-1,0-2,0-3c-0.333,0-0.667,0-1,0
			c-0.333-1.333-0.667-2.667-1-4c-0.333,0-0.667,0-1,0c0-0.667,0-1.333,0-2c-0.667-0.333-1.333-0.667-2-1c0-0.667,0-1.333,0-2
			c-0.333,0-0.667,0-1,0c-1.407-1.733-2.376-2.395-3-5c-2.963-0.819-3.941-2.333-6-4c0-0.333,0-0.667,0-1
			c-1.333-0.333-2.667-0.667-4-1c-0.333-0.667-0.667-1.333-1-2c-1,0-2,0-3,0c0-0.333,0-0.667,0-1c-0.667,0-1.333,0-2,0
			c0-0.333,0-0.667,0-1c-1.666,0-3.334,0-5,0c0-0.333,0-0.667,0-1c-4.344-1.248-8.602,1.091-11,2c-1,0-2,0-3,0c0,0.333,0,0.667,0,1
			c-1.333,0.333-2.667,0.667-4,1c0,0.333,0,0.667,0,1c-0.667,0-1.333,0-2,0c-0.333,0.667-0.667,1.333-1,2c-0.667,0-1.333,0-2,0
			c-0.333,0.667-0.667,1.333-1,2c-0.667,0-1.333,0-2,0c-2.666,3-5.334,6-8,9c-0.667,0-1.333,0-2,0
			c-15.332,15.999-30.668,32.001-46,48c-1.666,1.333-3.334,2.667-5,4c-0.333,0.667-0.667,1.333-1,2c-0.667,0-1.333,0-2,0
			c-4,4.333-8,8.667-12,13c-8.572,8.573-17.785,16.021-25,26c-2,1.667-4,3.333-6,5c-5,5.333-10.001,10.667-15,16
			c-0.667,0-1.333,0-2,0c-2.666,3-5.334,6-8,9c-6.999,6.666-14.001,13.334-21,20c0,0.667,0,1.333,0,2c-0.667,0.333-1.333,0.667-2,1
			c-1.333,1.667-2.667,3.333-4,5c-3.333,3-6.667,6-10,9c-1,1.333-2,2.667-3,4c-0.667,0-1.333,0-2,0c-2,2.333-4,4.667-6,7
			c-2.863,2.025-6.741,2.426-9,5c-2.333,0-4.667,0-7,0c0-0.333,0-0.667,0-1c-0.667,0-1.333,0-2,0c0-0.333,0-0.667,0-1
			c-1-0.333-2-0.667-3-1c-0.663-3.105-3.816-7.932-2-13c0.333,0,0.667,0,1,0c0.333-1.333,0.667-2.667,1-4c0.333,0,0.667,0,1,0
			c0-0.667,0-1.333,0-2c1.333-1,2.667-2,4-3c7.964-11.095,18.478-19.479,28-29c38.996-39.33,78.004-78.67,117-118
			c9.209-9.207,19.274-17.282,27-28c1.333-1,2.667-2,4-3c0-0.667,0-1.333,0-2c0.667-0.333,1.333-0.667,2-1c0-0.667,0-1.333,0-2
			c0.667-0.333,1.333-0.667,2-1c0-0.667,0-1.333,0-2c0.333,0,0.667,0,1,0c1.422-3.118,3.682-16.649,2-22c-0.333,0-0.667,0-1,0
			c-0.976-2.758-0.613-5.731-2-8c-0.667-0.333-1.333-0.667-2-1c0-0.667,0-1.333,0-2c-0.667-0.333-1.333-0.667-2-1
			c0-0.667,0-1.333,0-2c-1.333-1-2.667-2-4-3c-0.333-0.667-0.667-1.333-1-2c-0.667,0-1.333,0-2,0c-0.667-1-1.333-2-2-3
			c-1.333-0.333-2.667-0.667-4-1c0-0.333,0-0.667,0-1c-2-0.667-4-1.333-6-2c0-0.333,0-0.667,0-1c-8.666-2-17.334-4-26-6
			c-3.666-0.333-7.334-0.667-11-1c-13.332-3.666-26.668-7.333-40-11c0-0.333,0-0.667,0-1c-0.667,0-1.333,0-2,0c0-0.333,0-0.667,0-1
			c-1,0-2,0-3,0c0-0.333,0-0.667,0-1c-1.666-0.333-3.334-0.667-5-1c0-0.333,0-0.667,0-1c-0.667,0-1.333,0-2,0c0-0.333,0-0.667,0-1
			c-1,0-2,0-3,0c0-0.333,0-0.667,0-1c-1.333-0.333-2.667-0.667-4-1c0-0.333,0-0.667,0-1c-0.667,0-1.333,0-2,0c0-0.333,0-0.667,0-1
			c-1,0-2,0-3,0c0-0.333,0-0.667,0-1c-1.333-0.333-2.667-0.667-4-1c0-0.333,0-0.667,0-1c-1.333-0.333-2.667-0.667-4-1
			c-0.333-0.667-0.667-1.333-1-2c-0.667,0-1.333,0-2,0c0-0.333,0-0.667,0-1c-0.667,0-1.333,0-2,0c0-0.333,0-0.667,0-1
			c-0.667,0-1.333,0-2,0c0-0.333,0-0.667,0-1c-0.667,0-1.333,0-2,0c-0.333-0.667-0.667-1.333-1-2c-0.667,0-1.333,0-2,0
			c0-0.333,0-0.667,0-1c-0.667,0-1.333,0-2,0c-0.333-0.667-0.667-1.333-1-2c-1.333-0.333-2.667-0.667-4-1c0-0.333,0-0.667,0-1
			c-1-0.333-2-0.667-3-1c-0.333-0.667-0.667-1.333-1-2c-0.667,0-1.333,0-2,0c-0.333-0.667-0.667-1.333-1-2c-1-0.333-2-0.667-3-1
			c0-0.333,0-0.667,0-1c-0.667,0-1.333,0-2,0c-0.333-0.667-0.667-1.333-1-2c-1.333-0.333-2.667-0.667-4-1
			c-0.333-0.667-0.667-1.333-1-2c-0.667,0-1.333,0-2,0c-0.333-0.667-0.667-1.333-1-2c-0.667,0-1.333,0-2,0
			c-0.333-0.667-0.667-1.333-1-2c-0.667,0-1.333,0-2,0c-0.333-0.667-0.667-1.333-1-2c-0.667,0-1.333,0-2,0
			c-0.333-0.667-0.667-1.333-1-2c-1-0.333-2-0.667-3-1c0-0.333,0-0.667,0-1c-0.667,0-1.333,0-2,0c-0.333-0.667-0.667-1.333-1-2
			c-0.667,0-1.333,0-2,0c-0.333-0.667-0.667-1.333-1-2c-0.667,0-1.333,0-2,0c-0.333-0.667-0.667-1.333-1-2c-0.667,0-1.333,0-2,0
			c-0.333-0.667-0.667-1.333-1-2c-0.667,0-1.333,0-2,0c-0.333-0.667-0.667-1.333-1-2c-0.667,0-1.333,0-2,0
			c-0.333-0.667-0.667-1.333-1-2c-0.667,0-1.333,0-2,0c-0.333-0.667-0.667-1.333-1-2c-1-0.333-2-0.667-3-1c0-0.333,0-0.667,0-1
			c-0.667,0-1.333,0-2,0c-0.333-0.667-0.667-1.333-1-2c-0.667,0-1.333,0-2,0c-0.333-0.667-0.667-1.333-1-2c-0.667,0-1.333,0-2,0
			c-0.333-0.667-0.667-1.333-1-2c-1.333-0.333-2.667-0.667-4-1c-0.333-0.667-0.667-1.333-1-2c-0.667,0-1.333,0-2,0
			c-0.333-0.667-0.667-1.333-1-2c-0.667,0-1.333,0-2,0c-0.333-0.667-0.667-1.333-1-2c-1.333-0.333-2.667-0.667-4-1
			c-0.333-0.667-0.667-1.333-1-2c-2-0.667-4-1.333-6-2c-0.333-0.667-0.667-1.333-1-2c-2-0.667-4-1.333-6-2c0-0.333,0-0.667,0-1
			c-0.667,0-1.333,0-2,0c0-0.333,0-0.667,0-1c-0.667,0-1.333,0-2,0c0-0.333,0-0.667,0-1c-2-0.667-4-1.333-6-2c0-0.333,0-0.667,0-1
			c-1,0-2,0-3,0c0-0.333,0-0.667,0-1c-0.667,0-1.333,0-2,0c0-0.333,0-0.667,0-1c-1.333-0.333-2.667-0.667-4-1c0-0.333,0-0.667,0-1
			c-13.665-4.333-27.335-8.667-41-13c-5.999-1-12.001-2-18-3c0-0.333,0-0.667,0-1c-1.666,0-3.334,0-5,0c0-0.333,0-0.667,0-1
			c-2,0-4,0-6,0c0-0.333,0-0.667,0-1c-3.333,0-6.667,0-10,0c0-0.333,0-0.667,0-1c-4.333,0-8.667,0-13,0c0-0.333,0-0.667,0-1
			c-5.999,0-12.001,0-18,0c-3.463-0.975-17.113-2.376-22-1c0,0.333,0,0.667,0,1c-7.333,0.333-14.667,0.667-22,1c0,0.333,0,0.667,0,1
			c-2.667,0-5.333,0-8,0c0,0.333,0,0.667,0,1c-2,0-4,0-6,0c-12.2,3.67-26.496,5.9-38,10c-1.333,0-2.667,0-4,0c0,0.333,0,0.667,0,1
			c-2,0.333-4,0.667-6,1c0,0.333,0,0.667,0,1c-0.667,0-1.333,0-2,0c0,0.333,0,0.667,0,1c-3,0.667-6,1.333-9,2c0,0.333,0,0.667,0,1
			c-0.667,0-1.333,0-2,0c0,0.333,0,0.667,0,1c-1,0-2,0-3,0c0,0.333,0,0.667,0,1c-1.333,0.333-2.667,0.667-4,1c0,0.333,0,0.667,0,1
			c-0.667,0-1.333,0-2,0c0,0.333,0,0.667,0,1c-1,0-2,0-3,0c0,0.333,0,0.667,0,1c-2,0.667-4,1.333-6,2c0,0.333,0,0.667,0,1
			c-0.667,0-1.333,0-2,0c0,0.333,0,0.667,0,1c-2,0.667-4,1.333-6,2c-0.333,0.667-0.667,1.333-1,2c-2,0.667-4,1.333-6,2
			c-0.333,0.667-0.667,1.333-1,2c-2,0.667-4,1.333-6,2c-0.333,0.667-0.667,1.333-1,2c-0.667,0-1.333,0-2,0
			c-0.333,0.667-0.667,1.333-1,2c-1.333,0.333-2.667,0.667-4,1c-0.333,0.667-0.667,1.333-1,2c-0.667,0-1.333,0-2,0
			c-0.333,0.667-0.667,1.333-1,2c-0.667,0-1.333,0-2,0c-0.333,0.667-0.667,1.333-1,2c-0.667,0-1.333,0-2,0
			c-0.333,0.667-0.667,1.333-1,2c-0.667,0-1.333,0-2,0c-0.333,0.667-0.667,1.333-1,2c-0.667,0-1.333,0-2,0
			c-0.333,0.667-0.667,1.333-1,2c-0.667,0-1.333,0-2,0c-0.333,0.667-0.667,1.333-1,2c-0.667,0-1.333,0-2,0
			c-0.333,0.667-0.667,1.333-1,2c-0.667,0-1.333,0-2,0c-0.333,0.667-0.667,1.333-1,2c-0.667,0-1.333,0-2,0c0,0.333,0,0.667,0,1
			c-1,0.333-2,0.667-3,1c-0.333,0.667-0.667,1.333-1,2c-0.667,0-1.333,0-2,0c-0.667,1-1.333,2-2,3c-0.667,0-1.333,0-2,0
			c-0.333,0.667-0.667,1.333-1,2c-0.667,0-1.333,0-2,0c-0.667,1-1.333,2-2,3c-0.667,0-1.333,0-2,0c-0.667,1-1.333,2-2,3
			c-0.667,0-1.333,0-2,0c-0.333,0.667-0.667,1.333-1,2c-0.667,0-1.333,0-2,0c-0.333,0.667-0.667,1.333-1,2c-1,0.333-2,0.667-3,1
			c0,0.333,0,0.667,0,1c-2,0.667-4,1.333-6,2c-0.333,0.667-0.667,1.333-1,2c-0.667,0-1.333,0-2,0c0,0.333,0,0.667,0,1
			c-0.667,0-1.333,0-2,0c0,0.333,0,0.667,0,1c-0.667,0-1.333,0-2,0c0,0.333,0,0.667,0,1c-1,0.333-2,0.667-3,1
			c-0.333,0.667-0.667,1.333-1,2c-1.333,0.333-2.667,0.667-4,1c-0.333,0.667-0.667,1.333-1,2c-0.667,0-1.333,0-2,0
			c0,0.333,0,0.667,0,1c-0.667,0-1.333,0-2,0c-0.333,0.667-0.667,1.333-1,2c-2,0.667-4,1.333-6,2c-0.333,0.667-0.667,1.333-1,2
			c-1.333,0.333-2.667,0.667-4,1c0,0.333,0,0.667,0,1c-0.667,0-1.333,0-2,0c0,0.333,0,0.667,0,1c-2,0.667-4,1.333-6,2
			c0,0.333,0,0.667,0,1c-1,0-2,0-3,0c0,0.333,0,0.667,0,1c-1.333,0.333-2.667,0.667-4,1c0,0.333,0,0.667,0,1
			c-10.999,3.667-22.001,7.334-33,11c-2.667,0.333-5.333,0.667-8,1c-10.902,3.689-25.06,5.293-36,9c-3.667,0.667-7.333,1.333-11,2
			c0,0.333,0,0.667,0,1c-2,0.667-4,1.333-6,2c0,0.333,0,0.667,0,1c-1.333,0.333-2.667,0.667-4,1c-0.333,0.667-0.667,1.333-1,2
			c-0.667,0-1.333,0-2,0c-0.667,1-1.333,2-2,3c-6.634,6.508-12.998,11.709-13,25c0,2.333,0,4.667,0,7
			c5.027,15.833,18.472,25.467,29,36c1.333,1.667,2.667,3.333,4,5c0.667,0.333,1.333,0.667,2,1c0,0.667,0,1.333,0,2
			c7,6.666,14,13.334,21,20c3,3.333,6,6.667,9,10c0.667,0,1.333,0,2,0c5.333,5.666,10.667,11.334,16,17c0.667,0,1.333,0,2,0
			c3.333,3.667,6.667,7.334,10,11c2,1.667,4,3.333,6,5c0,0.667,0,1.333,0,2c5,4.666,10,9.334,15,14c7,7.666,14,15.334,21,23
			c0.333,0,0.667,0,1,0c0.333,0.667,0.667,1.333,1,2c0.667,0,1.333,0,2,0c1.667,2,3.333,4,5,6c0.667,0,1.333,0,2,0
			c1,1.333,2,2.667,3,4c0.667,0,1.333,0,2,0c1.333,1.667,2.667,3.333,4,5c0.667,0,1.333,0,2,0c4,4.333,8,8.667,12,13
			c2.667,2.333,5.333,4.667,8,7c0,0.667,0,1.333,0,2c1.667,1.333,3.333,2.667,5,4c0,0.667,0,1.333,0,2c1.333,1,2.667,2,4,3
			c1.678,2.384,1.869,5.145,4,7c0.092,3.108,0.485,7.407-1,9c-0.746,3.051-1.913,4.295-5,5c-4.161,3.806-13.324-0.406-17-3
			c-3.667-4-7.333-8-11-12c-10.709-7.742-18.79-17.789-28-27c-26.331-25.664-52.669-51.336-79-77c0-0.333,0-0.667,0-1
			c-0.667-0.333-1.333-0.667-2-1c0-0.667,0-1.333,0-2c-5-4.666-10-9.334-15-14c-8.893-8.895-16.664-18.508-27-26
			c-5.666-6-11.334-12-17-18c-0.667,0-1.333,0-2,0c-0.333-0.667-0.667-1.333-1-2c-0.667,0-1.333,0-2,0c-0.333-0.667-0.667-1.333-1-2
			c-0.667,0-1.333,0-2,0c0-0.333,0-0.667,0-1c-1.333-0.333-2.667-0.667-4-1c0-0.333,0-0.667,0-1c-1.333,0-2.667,0-4,0
			c-2.447-0.797-10.038-2.178-14-1c0,0.333,0,0.667,0,1c-1.333,0-2.667,0-4,0c0,0.333,0,0.667,0,1c-0.667,0-1.333,0-2,0
			c0,0.333,0,0.667,0,1c-1,0-2,0-3,0c0,0.333,0,0.667,0,1c-1,0.333-2,0.667-3,1c-0.333,0.667-0.667,1.333-1,2c-0.667,0-1.333,0-2,0
			c-0.333,0.667-0.667,1.333-1,2c-2,1.667-4,3.333-6,5c0,0.667,0,1.333,0,2c-0.667,0.333-1.333,0.667-2,1c0,0.667,0,1.333,0,2
			c-0.667,0.333-1.333,0.667-2,1c0,0.667,0,1.333,0,2c-0.333,0-0.667,0-1,0c-0.333,1.333-0.667,2.667-1,4c-0.333,0-0.667,0-1,0
			c0,1,0,2,0,3c-0.333,0-0.667,0-1,0c0,0.667,0,1.333,0,2c-0.333,0-0.667,0-1,0c-0.333,2.667-0.667,5.333-1,8c-0.333,0-0.667,0-1,0
			c-0.333,3-0.667,6-1,9c-0.333,0-0.667,0-1,0c0,1.333,0,2.667,0,4c-0.333,0-0.667,0-1,0c0,1.667,0,3.333,0,5c-0.333,0-0.667,0-1,0
			c0,1.333,0,2.667,0,4c-0.333,0-0.667,0-1,0c0,1.333,0,2.667,0,4c-0.333,0-0.667,0-1,0c-0.667,5-1.333,10-2,15
			c-0.333,0-0.667,0-1,0c-0.333,2.667-0.667,5.333-1,8c-0.333,0-0.667,0-1,0c0,1.333,0,2.667,0,4c-0.333,0-0.667,0-1,0c0,1,0,2,0,3
			c-0.333,0-0.667,0-1,0c0,1,0,2,0,3c-0.333,0-0.667,0-1,0c0,1,0,2,0,3c-0.333,0-0.667,0-1,0c-0.333,2-0.667,4-1,6
			c-0.333,0-0.667,0-1,0c0,0.667,0,1.333,0,2c-0.333,0-0.667,0-1,0c0,1,0,2,0,3c-0.333,0-0.667,0-1,0c-0.333,1.333-0.667,2.667-1,4
			c-0.333,0-0.667,0-1,0c0,1,0,2,0,3c-0.333,0-0.667,0-1,0c0,0.667,0,1.333,0,2c-0.333,0-0.667,0-1,0c0,1,0,2,0,3
			c-0.333,0-0.667,0-1,0c-0.667,2-1.333,4-2,6c-0.333,0-0.667,0-1,0c0,0.667,0,1.333,0,2c-0.333,0-0.667,0-1,0c0,0.667,0,1.333,0,2
			c-0.333,0-0.667,0-1,0c-0.333,1.333-0.667,2.667-1,4c-0.333,0-0.667,0-1,0c0,0.667,0,1.333,0,2c-0.333,0-0.667,0-1,0
			c0,0.667,0,1.333,0,2c-0.667,0.333-1.333,0.667-2,1c-0.333,1.333-0.667,2.667-1,4c-0.667,0.333-1.333,0.667-2,1
			c-0.333,1.333-0.667,2.667-1,4c-0.667,0.333-1.333,0.667-2,1c0,0.667,0,1.333,0,2c-0.667,0.333-1.333,0.667-2,1
			c-0.333,1.333-0.667,2.667-1,4c-0.333,0-0.667,0-1,0c-0.333,1-0.667,2-1,3c-0.667,0.333-1.333,0.667-2,1c0,0.667,0,1.333,0,2
			c-0.667,0.333-1.333,0.667-2,1c0,0.667,0,1.333,0,2c-0.667,0.333-1.333,0.667-2,1c-0.333,1-0.667,2-1,3c-0.333,0-0.667,0-1,0
			c-0.333,1.333-0.667,2.667-1,4c-0.667,0.333-1.333,0.667-2,1c0,0.667,0,1.333,0,2c-0.667,0.333-1.333,0.667-2,1
			c0,0.667,0,1.333,0,2c-0.667,0.333-1.333,0.667-2,1c0,0.667,0,1.333,0,2c-0.667,0.333-1.333,0.667-2,1c0,0.667,0,1.333,0,2
			c-0.667,0.333-1.333,0.667-2,1c0,0.667,0,1.333,0,2c-0.667,0.333-1.333,0.667-2,1c0,0.667,0,1.333,0,2c-0.333,0-0.667,0-1,0
			c-0.333,1-0.667,2-1,3c-0.667,0.333-1.333,0.667-2,1c0,0.667,0,1.333,0,2c-1,0.667-2,1.333-3,2c0,0.667,0,1.333,0,2
			c-0.667,0.333-1.333,0.667-2,1c0,0.667,0,1.333,0,2c-0.667,0.333-1.333,0.667-2,1c-0.333,1-0.667,2-1,3c-0.333,0-0.667,0-1,0
			c-0.333,1.333-0.667,2.667-1,4c-0.667,0.333-1.333,0.667-2,1c-0.333,1-0.667,2-1,3c-0.333,0-0.667,0-1,0
			c-0.333,1.333-0.667,2.667-1,4c-0.667,0.333-1.333,0.667-2,1c0,0.667,0,1.333,0,2c-0.333,0-0.667,0-1,0c0,0.667,0,1.333,0,2
			c-0.667,0.333-1.333,0.667-2,1c-0.667,2-1.333,4-2,6c-0.667,0.333-1.333,0.667-2,1c0,0.667,0,1.333,0,2c-0.333,0-0.667,0-1,0
			c0,0.667,0,1.333,0,2c-0.333,0-0.667,0-1,0c0,0.667,0,1.333,0,2c-0.333,0-0.667,0-1,0c0,0.667,0,1.333,0,2c-0.333,0-0.667,0-1,0
			c-0.333,1.333-0.667,2.667-1,4c-0.667,0.333-1.333,0.667-2,1c-0.333,1.667-0.667,3.333-1,5c-0.333,0-0.667,0-1,0
			c0,0.667,0,1.333,0,2c-0.333,0-0.667,0-1,0c0,0.667,0,1.333,0,2c-0.333,0-0.667,0-1,0c-0.667,2-1.333,4-2,6c-0.333,0-0.667,0-1,0
			c0,1,0,2,0,3c-0.333,0-0.667,0-1,0c-0.333,1.333-0.667,2.667-1,4c-0.333,0-0.667,0-1,0c0,1,0,2,0,3c-0.333,0-0.667,0-1,0
			c0,0.667,0,1.333,0,2c-0.333,0-0.667,0-1,0c-0.667,3-1.333,6-2,9c-0.333,0-0.667,0-1,0c0,1,0,2,0,3c-0.333,0-0.667,0-1,0
			c0,1,0,2,0,3c-0.333,0-0.667,0-1,0c-0.333,2.333-0.667,4.667-1,7c-0.333,0-0.667,0-1,0c-0.333,2.667-0.667,5.333-1,8
			c-0.333,0-0.667,0-1,0c-0.333,2.667-0.667,5.333-1,8c-0.333,0-0.667,0-1,0c-0.333,2.667-0.667,5.333-1,8c-0.333,0-0.667,0-1,0
			c-0.333,3.667-0.667,7.334-1,11c-0.333,0-0.667,0-1,0c0,2,0,4,0,6c-0.333,0-0.667,0-1,0c0,1.667,0,3.333,0,5c-0.333,0-0.667,0-1,0
			c0,2,0,4,0,6c-0.333,0-0.667,0-1,0c0,2.333,0,4.667,0,7c-0.333,0-0.667,0-1,0c0,5.333,0,10.667,0,16c-0.333,0-0.667,0-1,0
			c0,6,0,12.001,0,18c0.333,0,0.667,0,1,0c0,5.333,0,10.667,0,16c0.333,0,0.667,0,1,0c0,2.666,0,5.334,0,8c0.333,0,0.667,0,1,0
			c0,2,0,4,0,6c1.344,4.482,2.665,11.515,4,16c0,2,0,4,0,6c0.333,0,0.667,0,1,0c0,1.666,0,3.334,0,5c0.333,0,0.667,0,1,0
			c0,1.666,0,3.334,0,5c0.333,0,0.667,0,1,0c0,1.666,0,3.334,0,5c0.333,0,0.667,0,1,0c0.333,2.666,0.667,5.334,1,8
			c0.333,0,0.667,0,1,0c0,1.333,0,2.667,0,4c0.333,0,0.667,0,1,0c0,1,0,2,0,3c0.333,0,0.667,0,1,0c0,1,0,2,0,3c0.333,0,0.667,0,1,0
			c0.333,2.333,0.667,4.667,1,7c0.333,0,0.667,0,1,0c0,0.667,0,1.333,0,2c0.333,0,0.667,0,1,0c0.667,3,1.333,6,2,9
			c0.333,0,0.667,0,1,0c0,0.667,0,1.333,0,2c0.333,0,0.667,0,1,0c0,1,0,2,0,3c0.333,0,0.667,0,1,0c0.333,1.333,0.667,2.667,1,4
			c0.333,0,0.667,0,1,0c0,1,0,2,0,3c0.333,0,0.667,0,1,0c0.667,2,1.333,4,2,6c0.333,0,0.667,0,1,0c0,0.667,0,1.333,0,2
			c0.333,0,0.667,0,1,0c0,0.667,0,1.333,0,2c0.333,0,0.667,0,1,0c0.667,2,1.333,4,2,6c0.667,0.333,1.333,0.667,2,1
			c0.667,2,1.333,4,2,6c0.667,0.333,1.333,0.667,2,1c0.667,2,1.333,4,2,6c0.333,0,0.667,0,1,0c0.333,1,0.667,2,1,3
			c0.667,0.333,1.333,0.667,2,1c0.333,1.333,0.667,2.667,1,4c0.667,0.333,1.333,0.667,2,1c0.333,1,0.667,2,1,3c0.333,0,0.667,0,1,0
			c0.333,1.333,0.667,2.667,1,4c0.667,0.333,1.333,0.667,2,1c0,0.667,0,1.333,0,2c0.667,0.333,1.333,0.667,2,1c0,0.667,0,1.333,0,2
			c0.667,0.333,1.333,0.667,2,1c0,0.667,0,1.333,0,2c0.667,0.333,1.333,0.667,2,1c0,0.667,0,1.333,0,2c0.333,0,0.667,0,1,0
			c0.333,1,0.667,2,1,3c0.667,0.333,1.333,0.667,2,1c0,0.667,0,1.333,0,2c1,0.667,2,1.333,3,2c0,0.667,0,1.333,0,2
			c0.667,0.333,1.333,0.667,2,1c0.333,1,0.667,2,1,3c0.333,0,0.667,0,1,0c0,0.667,0,1.333,0,2c1,0.667,2,1.333,3,2
			c0,0.667,0,1.333,0,2c0.667,0.333,1.333,0.667,2,1c0.333,1,0.667,2,1,3c0.333,0,0.667,0,1,0c0,0.667,0,1.333,0,2
			c0.667,0.333,1.333,0.667,2,1c0.333,1,0.667,2,1,3c0.333,0,0.667,0,1,0c0,0.667,0,1.333,0,2c0.667,0.333,1.333,0.667,2,1
			c0,0.667,0,1.333,0,2c0.667,0.333,1.333,0.667,2,1c0.333,1.333,0.667,2.667,1,4c0.667,0.333,1.333,0.667,2,1c0,0.667,0,1.333,0,2
			c0.667,0.333,1.333,0.667,2,1c0,0.667,0,1.333,0,2c0.667,0.333,1.333,0.667,2,1c0.333,1.333,0.667,2.667,1,4
			c0.667,0.333,1.333,0.667,2,1c0,0.667,0,1.333,0,2c0.667,0.333,1.333,0.667,2,1c0,0.667,0,1.333,0,2c0.333,0,0.667,0,1,0
			c0,0.667,0,1.333,0,2c0.667,0.333,1.333,0.667,2,1c0.333,1.333,0.667,2.667,1,4c0.667,0.333,1.333,0.667,2,1
			c6.666,14.665,13.334,29.335,20,44c0,1.333,0,2.667,0,4c0.333,0,0.667,0,1,0c0,1,0,2,0,3c0.333,0,0.667,0,1,0c0,1.666,0,3.334,0,5
			c0.333,0,0.667,0,1,0c0,1.333,0,2.667,0,4c0.333,0,0.667,0,1,0c0,1.333,0,2.667,0,4c0.333,0,0.667,0,1,0c0,1.333,0,2.667,0,4
			c0.333,0,0.667,0,1,0c0,1.333,0,2.667,0,4c0.333,0,0.667,0,1,0c1,7.999,2,16.001,3,24c0.333,0,0.667,0,1,0c0,1.333,0,2.667,0,4
			c0.333,0,0.667,0,1,0c0,1.333,0,2.667,0,4c0.333,0,0.667,0,1,0c0,1.333,0,2.667,0,4c0.333,0,0.667,0,1,0c0,1,0,2,0,3
			c0.333,0,0.667,0,1,0c0,1,0,2,0,3c0.333,0,0.667,0,1,0c0,0.667,0,1.333,0,2c0.333,0,0.667,0,1,0c0.333,1.666,0.667,3.334,1,5
			c0.667,0.333,1.333,0.667,2,1c0.333,1.333,0.667,2.667,1,4c1.333,1,2.667,2,4,3c0,0.667,0,1.333,0,2c0.667,0.333,1.333,0.667,2,1
			c0,0.333,0,0.667,0,1c0.667,0,1.333,0,2,0c0.667,1,1.333,2,2,3c0.667,0,1.333,0,2,0c0.333,0.667,0.667,1.333,1,2
			c0.667,0,1.333,0,2,0c0,0.333,0,0.667,0,1c1,0,2,0,3,0c0,0.333,0,0.667,0,1c1,0,2,0,3,0c0,0.333,0,0.667,0,1
			c3.413,1.07,13.789-0.137,16-1c0-0.333,0-0.667,0-1c3-1,6-2,9-3c0.667-1,1.333-2,2-3c0.667,0,1.333,0,2,0
			c7.663-5.474,14.327-14.327,21-21c21.665-21.331,43.335-42.669,65-64c0-0.667,0-1.333,0-2c0.333,0,0.667,0,1,0
			c1-1.333,2-2.667,3-4c18.332-17.998,36.668-36.002,55-54c12.833-12.836,24.977-26.354,38-39c2.282-2.216,12.503-8.743,16-6
			c7.826,0.446,14.529,9.308,10,18c-2.365,4.539-10.246,10.243-14,14c-1,1.333-2,2.667-3,4c-0.667,0.333-1.333,0.667-2,1
			c0,0.667,0,1.333,0,2c-1.667,1.333-3.333,2.667-5,4c-2.667,3-5.333,6-8,9c-0.667,0-1.333,0-2,0c-2,2.333-4,4.667-6,7
			c-10.999,10.666-22.001,21.334-33,32c-4,4.666-8,9.334-12,14c-0.667,0-1.333,0-2,0c-3.667,4-7.333,8-11,12
			c-7.999,7.666-16.001,15.334-24,23c-0.667,1-1.333,2-2,3c-0.333,0-0.667,0-1,0c0,0.667,0,1.333,0,2
			c-7.999,7.666-16.001,15.334-24,23c-2.667,3-5.333,6-8,9c-0.667,0-1.333,0-2,0c-1,1.333-2,2.667-3,4c-3.333,3-6.667,6-10,9
			c-1.667,2-3.333,4-5,6c-0.667,0.333-1.333,0.667-2,1c0,0.667,0,1.333,0,2c-2.333,2-4.667,4-7,6c0,0.667,0,1.333,0,2
			c-0.667,0.333-1.333,0.667-2,1c-0.333,1-0.667,2-1,3c-0.333,0-0.667,0-1,0c0,0.667,0,1.333,0,2c-0.667,0.333-1.333,0.667-2,1
			c-0.333,1.666-0.667,3.334-1,5c-0.333,0-0.667,0-1,0c-0.737,1.86-2.747,12.357-2,15c0.333,0,0.667,0,1,0c0,1.666,0,3.334,0,5
			c0.333,0,0.667,0,1,0c0,1,0,2,0,3c0.333,0,0.667,0,1,0c0.333,1.333,0.667,2.667,1,4c0.333,0,0.667,0,1,0
			c0.333,1.333,0.667,2.667,1,4c1.333,1,2.667,2,4,3c1.667,2,3.333,4,5,6c0.667,0,1.333,0,2,0c0.333,0.667,0.667,1.333,1,2
			c1.333,0.333,2.667,0.667,4,1c0,0.333,0,0.667,0,1c2,0.667,4,1.333,6,2c0,0.333,0,0.667,0,1c1,0,2,0,3,0c0,0.333,0,0.667,0,1
			c1,0,2,0,3,0c0,0.333,0,0.667,0,1c1.333,0,2.667,0,4,0c0,0.333,0,0.667,0,1c1.667,0,3.333,0,5,0c0,0.333,0,0.667,0,1
			c6.333,0.667,12.667,1.333,19,2c0,0.333,0,0.667,0,1c1.667,0,3.333,0,5,0c0,0.333,0,0.667,0,1c1.667,0,3.333,0,5,0
			c0,0.333,0,0.667,0,1c1.667,0,3.333,0,5,0c0,0.333,0,0.667,0,1c2,0,4,0,6,0c0,0.333,0,0.667,0,1c1.333,0,2.667,0,4,0
			c0,0.333,0,0.667,0,1c1.333,0,2.667,0,4,0c0,0.333,0,0.667,0,1c1.333,0,2.667,0,4,0c0,0.333,0,0.667,0,1c2,0.333,4,0.667,6,1
			c0,0.333,0,0.667,0,1c0.667,0,1.333,0,2,0c0,0.333,0,0.667,0,1c1,0,2,0,3,0c0,0.333,0,0.667,0,1c1,0,2,0,3,0c0,0.333,0,0.667,0,1
			c0.667,0,1.333,0,2,0c0,0.333,0,0.667,0,1c1.667,0.333,3.333,0.667,5,1c0,0.333,0,0.667,0,1c2,0.667,4,1.333,6,2
			c0,0.333,0,0.667,0,1c0.667,0,1.333,0,2,0c0,0.333,0,0.667,0,1c0.667,0,1.333,0,2,0c0,0.333,0,0.667,0,1c0.667,0,1.333,0,2,0
			c0,0.333,0,0.667,0,1c0.667,0,1.333,0,2,0c0,0.333,0,0.667,0,1c0.667,0,1.333,0,2,0c0,0.333,0,0.667,0,1c0.667,0,1.333,0,2,0
			c0.333,0.667,0.667,1.333,1,2c0.667,0,1.333,0,2,0c0,0.333,0,0.667,0,1c0.667,0,1.333,0,2,0c0,0.333,0,0.667,0,1
			c0.667,0,1.333,0,2,0c0,0.333,0,0.667,0,1c0.667,0,1.333,0,2,0c0.333,0.667,0.667,1.333,1,2c1.333,0.333,2.667,0.667,4,1
			c0.333,0.667,0.667,1.333,1,2c1.333,0.333,2.667,0.667,4,1c0.333,0.667,0.667,1.333,1,2c1,0.333,2,0.667,3,1c0,0.333,0,0.667,0,1
			c1.333,0.333,2.667,0.667,4,1c0.333,0.667,0.667,1.333,1,2c0.667,0,1.333,0,2,0c0,0.333,0,0.667,0,1c0.667,0,1.333,0,2,0
			c0.333,0.667,0.667,1.333,1,2c0.667,0,1.333,0,2,0c0.333,0.667,0.667,1.333,1,2c0.667,0,1.333,0,2,0c0.333,0.667,0.667,1.333,1,2
			c0.667,0,1.333,0,2,0c0.333,0.667,0.667,1.333,1,2c0.667,0,1.333,0,2,0c0.333,0.667,0.667,1.333,1,2c0.667,0,1.333,0,2,0
			c0.333,0.667,0.667,1.333,1,2c0.667,0,1.333,0,2,0c0.333,0.667,0.667,1.333,1,2c0.667,0,1.333,0,2,0c0.667,1,1.333,2,2,3
			c0.667,0,1.333,0,2,0c0.333,0.667,0.667,1.333,1,2c0.667,0,1.333,0,2,0c0.333,0.667,0.667,1.333,1,2c0.667,0,1.333,0,2,0
			c0,0.333,0,0.667,0,1c1,0.333,2,0.667,3,1c0.333,0.667,0.667,1.333,1,2c0.667,0,1.333,0,2,0c0.667,1,1.333,2,2,3
			c0.667,0,1.333,0,2,0c0.333,0.667,0.667,1.333,1,2c1,0.333,2,0.667,3,1c0,0.333,0,0.667,0,1c0.667,0,1.333,0,2,0
			c0.333,0.667,0.667,1.333,1,2c1,0.333,2,0.667,3,1c0,0.333,0,0.667,0,1c0.667,0,1.333,0,2,0c0.333,0.667,0.667,1.333,1,2
			c1.333,0.333,2.667,0.667,4,1c0.333,0.667,0.667,1.333,1,2c1,0.333,2,0.667,3,1c0,0.333,0,0.667,0,1c0.667,0,1.333,0,2,0
			c0,0.333,0,0.667,0,1c0.667,0,1.333,0,2,0c0.333,0.667,0.667,1.333,1,2c0.667,0,1.333,0,2,0c0,0.333,0,0.667,0,1
			c0.667,0,1.333,0,2,0c0,0.333,0,0.667,0,1c0.667,0,1.333,0,2,0c0,0.333,0,0.667,0,1c0.667,0,1.333,0,2,0
			c0.333,0.667,0.667,1.333,1,2c0.667,0,1.333,0,2,0c0,0.333,0,0.667,0,1c0.667,0,1.333,0,2,0c0,0.333,0,0.667,0,1
			c0.667,0,1.333,0,2,0c0,0.333,0,0.667,0,1c0.667,0,1.333,0,2,0c0,0.333,0,0.667,0,1c0.667,0,1.333,0,2,0c0,0.333,0,0.667,0,1
			c0.667,0,1.333,0,2,0c0,0.333,0,0.667,0,1c2,0.667,4,1.333,6,2c0,0.333,0,0.667,0,1c1,0,2,0,3,0c0,0.333,0,0.667,0,1
			c0.667,0,1.333,0,2,0c0,0.333,0,0.667,0,1c1.333,0.333,2.667,0.667,4,1c0,0.333,0,0.667,0,1c1,0,2,0,3,0c0,0.333,0,0.667,0,1
			c0.667,0,1.333,0,2,0c0,0.333,0,0.667,0,1c1,0,2,0,3,0c0,0.333,0,0.667,0,1c0.667,0,1.333,0,2,0c0,0.333,0,0.667,0,1c1,0,2,0,3,0
			c0,0.333,0,0.667,0,1c1,0,2,0,3,0c0,0.333,0,0.667,0,1c1,0,2,0,3,0c0,0.333,0,0.667,0,1c1,0,2,0,3,0c0,0.333,0,0.667,0,1
			c7.666,1.333,15.334,2.667,23,4c0,0.333,0,0.667,0,1c1,0,2,0,3,0c0,0.333,0,0.667,0,1c1.333,0,2.667,0,4,0c0,0.333,0,0.667,0,1
			c1.333,0,2.667,0,4,0c0,0.333,0,0.667,0,1c1.333,0,2.667,0,4,0c0,0.333,0,0.667,0,1c1.667,0,3.333,0,5,0c0,0.333,0,0.667,0,1
			c2,0,4,0,6,0c15.991,4.833,53.967,8.36,73,3c5.999-0.667,12.001-1.333,18-2c0-0.333,0-0.667,0-1c2,0,4,0,6,0c0-0.333,0-0.667,0-1
			c2,0,4,0,6,0c0-0.333,0-0.667,0-1c1.666,0,3.334,0,5,0c0-0.333,0-0.667,0-1c1.666,0,3.334,0,5,0c0-0.333,0-0.667,0-1
			c2.666-0.333,5.334-0.667,8-1c0-0.333,0-0.667,0-1c2.666-0.333,5.334-0.667,8-1c0-0.333,0-0.667,0-1c2.333-0.333,4.667-0.667,7-1
			c0-0.333,0-0.667,0-1c1,0,2,0,3,0c0-0.333,0-0.667,0-1c1,0,2,0,3,0c0-0.333,0-0.667,0-1c2-0.333,4-0.667,6-1c0-0.333,0-0.667,0-1
			c0.667,0,1.333,0,2,0c0-0.333,0-0.667,0-1c2-0.333,4-0.667,6-1c0-0.333,0-0.667,0-1c0.667,0,1.333,0,2,0c0-0.333,0-0.667,0-1
			c2-0.333,4-0.667,6-1c0-0.333,0-0.667,0-1c0.667,0,1.333,0,2,0c0-0.333,0-0.667,0-1c1,0,2,0,3,0c0-0.333,0-0.667,0-1
			c1.333-0.333,2.667-0.667,4-1c0-0.333,0-0.667,0-1c0.667,0,1.333,0,2,0c0-0.333,0-0.667,0-1c1,0,2,0,3,0c0-0.333,0-0.667,0-1
			c2-0.667,4-1.333,6-2c0-0.333,0-0.667,0-1c1.333-0.333,2.667-0.667,4-1c0.333-0.667,0.667-1.333,1-2c0.667,0,1.333,0,2,0
			c0-0.333,0-0.667,0-1c0.667,0,1.333,0,2,0c0-0.333,0-0.667,0-1c0.667,0,1.333,0,2,0c0-0.333,0-0.667,0-1c0.667,0,1.333,0,2,0
			c0.333-0.667,0.667-1.333,1-2c2-0.667,4-1.333,6-2c0-0.333,0-0.667,0-1c1-0.333,2-0.667,3-1c0.333-0.667,0.667-1.333,1-2
			c1.333-0.333,2.667-0.667,4-1c0-0.333,0-0.667,0-1c1-0.333,2-0.667,3-1c0.333-0.667,0.667-1.333,1-2c0.667,0,1.333,0,2,0
			c0.333-0.667,0.667-1.333,1-2c0.667,0,1.333,0,2,0c0.667-1,1.333-2,2-3c0.667,0,1.333,0,2,0c0.333-0.667,0.667-1.333,1-2
			c1-0.333,2-0.667,3-1c0-0.333,0-0.667,0-1c0.667,0,1.333,0,2,0c0.667-1,1.333-2,2-3c0.667,0,1.333,0,2,0
			c0.333-0.667,0.667-1.333,1-2c0.667,0,1.333,0,2,0c0.667-1,1.333-2,2-3c0.667,0,1.333,0,2,0c0.667-1,1.333-2,2-3
			c1-0.333,2-0.667,3-1c0.333-0.667,0.667-1.333,1-2c0.667,0,1.333,0,2,0c0.333-0.667,0.667-1.333,1-2c0.667,0,1.333,0,2,0
			c0.667-1,1.333-2,2-3c0.667,0,1.333,0,2,0c0.333-0.667,0.667-1.333,1-2c0.667,0,1.333,0,2,0c0.333-0.667,0.667-1.333,1-2
			c1-0.333,2-0.667,3-1c0-0.333,0-0.667,0-1c0.667,0,1.333,0,2,0c0.333-0.667,0.667-1.333,1-2c0.667,0,1.333,0,2,0
			c0.333-0.667,0.667-1.333,1-2c0.667,0,1.333,0,2,0c0.333-0.667,0.667-1.333,1-2c1.333-0.333,2.667-0.667,4-1
			c0.333-0.667,0.667-1.333,1-2c2-0.667,4-1.333,6-2c0.333-0.667,0.667-1.333,1-2c2-0.667,4-1.333,6-2c0-0.333,0-0.667,0-1
			c0.667,0,1.333,0,2,0c0-0.333,0-0.667,0-1c0.667,0,1.333,0,2,0c0-0.333,0-0.667,0-1c2-0.667,4-1.333,6-2c0-0.333,0-0.667,0-1
			c1,0,2,0,3,0c0-0.333,0-0.667,0-1c0.667,0,1.333,0,2,0c0-0.333,0-0.667,0-1c11.999-4,24.001-8,36-12c4.333-0.667,8.667-1.333,13-2
			c11.281-3.635,24.794-6.174,36-10c4-0.667,8-1.333,12-2c11.782-4.222,29.953-11.54,33-24c1.095-1.187,2.841-6.985,2-10
			c-0.333,0-0.667,0-1,0c0-1.666,0-3.334,0-5c-0.333,0-0.667,0-1,0c0-0.667,0-1.333,0-2c-0.333,0-0.667,0-1,0c0-1,0-2,0-3
			c-0.667-0.333-1.333-0.667-2-1c-0.333-1.333-0.667-2.667-1-4c-0.667-0.333-1.333-0.667-2-1c0-0.667,0-1.333,0-2
			c-1.333-1-2.667-2-4-3c0-0.667,0-1.333,0-2c-5-4.666-10.001-9.334-15-14c-0.667-1-1.333-2-2-3c-0.333,0-0.667,0-1,0
			c0-0.667,0-1.333,0-2c-1-0.667-2-1.333-3-2c-2.333-2.666-4.667-5.334-7-8c-1.333-1-2.667-2-4-3c-0.333-0.667-0.667-1.333-1-2
			c-0.667,0-1.333,0-2,0c-14.665-14.998-29.335-30.002-44-45c-30.997-30.664-62.003-61.336-93-92c-3.666-4-7.334-8-11-12
			c-1.666-1.333-3.334-2.667-5-4c0-0.667,0-1.333,0-2c-0.667-0.333-1.333-0.667-2-1c0-0.667,0-1.333,0-2
			c-0.667-0.333-1.333-0.667-2-1c0-1,0-2,0-3c-0.333,0-0.667,0-1,0c-0.046-5.542,1.007-10.848,4-13c0.667,0,1.333,0,2,0
			c0-0.333,0-0.667,0-1c0.667,0,1.333,0,2,0c0-0.333,0-0.667,0-1c13.725,0.076,18.199,7.2,25,14c6.666,6.333,13.334,12.667,20,19
			c0,0.667,0,1.333,0,2c0.333,0,0.667,0,1,0c1,1.333,2,2.667,3,4c4.666,4.333,9.334,8.667,14,13c1.666,2,3.334,4,5,6
			c0.667,0,1.333,0,2,0c1.666,2,3.334,4,5,6c6.038,6.035,11.981,11.922,19,17c7.666,8.332,15.334,16.668,23,25c2,1.666,4,3.334,6,5
			c0.667,1,1.333,2,2,3c0.667,0,1.333,0,2,0c4,4.333,8,8.667,12,13c8.666,8.332,17.334,16.668,26,25
			c12.548,12.939,24.866,27.796,40,38c0.333,0.667,0.667,1.333,1,2c2.701,1.708,16.269,5.713,22,4c16.447-4.915,27.319-18.327,33-34
			c0.667-4.333,1.333-8.667,2-13c2.734-8.736,4.36-19.229,7-28c0.667-6.333,1.333-12.667,2-19c3-6.999,6-14.001,9-21
			c0.333,0,0.667,0,1,0c0-0.667,0-1.333,0-2c0.333,0,0.667,0,1,0c0-1,0-2,0-3c0.333,0,0.667,0,1,0c0.667-2,1.333-4,2-6
			c0.333,0,0.667,0,1,0c0-0.667,0-1.333,0-2c0.333,0,0.667,0,1,0c0-0.667,0-1.333,0-2c0.333,0,0.667,0,1,0c0-0.667,0-1.333,0-2
			c0.333,0,0.667,0,1,0c0-0.667,0-1.333,0-2c0.333,0,0.667,0,1,0c0-0.667,0-1.333,0-2c0.333,0,0.667,0,1,0c0-0.667,0-1.333,0-2
			c0.333,0,0.667,0,1,0c0-0.667,0-1.333,0-2c0.667-0.333,1.333-0.667,2-1c0.667-2,1.333-4,2-6c0.667-0.333,1.333-0.667,2-1
			c0.333-1.333,0.667-2.667,1-4c0.667-0.333,1.333-0.667,2-1c0-0.667,0-1.333,0-2c0.667-0.333,1.333-0.667,2-1c0-0.667,0-1.333,0-2
			c0.667-0.333,1.333-0.667,2-1c0.333-1.333,0.667-2.667,1-4c0.667-0.333,1.333-0.667,2-1c0-0.667,0-1.333,0-2
			c0.667-0.333,1.333-0.667,2-1c0-0.667,0-1.333,0-2c0.667-0.333,1.333-0.667,2-1c0-0.667,0-1.333,0-2c0.667-0.333,1.333-0.667,2-1
			c0-0.667,0-1.333,0-2c0.667-0.333,1.333-0.667,2-1c0-0.667,0-1.333,0-2c0.667-0.333,1.333-0.667,2-1c0.333-1,0.667-2,1-3
			c0.333,0,0.667,0,1,0c0-0.667,0-1.333,0-2c0.667-0.333,1.333-0.667,2-1c0.333-1,0.667-2,1-3c0.333,0,0.667,0,1,0
			c0-0.667,0-1.333,0-2c0.667-0.333,1.333-0.667,2-1c0-0.667,0-1.333,0-2c0.667-0.333,1.333-0.667,2-1c0-0.667,0-1.333,0-2
			c0.667-0.333,1.333-0.667,2-1c0-0.667,0-1.333,0-2c0.667-0.333,1.333-0.667,2-1c0-0.667,0-1.333,0-2c0.667-0.333,1.333-0.667,2-1
			c0-0.667,0-1.333,0-2c0.667-0.333,1.333-0.667,2-1c0-0.667,0-1.333,0-2c0.667-0.333,1.333-0.667,2-1c0-0.667,0-1.333,0-2
			c0.667-0.333,1.333-0.667,2-1c0-0.667,0-1.333,0-2c0.667-0.333,1.333-0.667,2-1c0.333-1.333,0.667-2.667,1-4c0.333,0,0.667,0,1,0
			c0.333-1,0.667-2,1-3c0.667-0.333,1.333-0.667,2-1c0-0.667,0-1.333,0-2c0.667-0.333,1.333-0.667,2-1c0.333-1,0.667-2,1-3
			c0.333,0,0.667,0,1,0c0-0.667,0-1.333,0-2c0.333,0,0.667,0,1,0c0-0.667,0-1.333,0-2c0.667-0.333,1.333-0.667,2-1
			c0-0.667,0-1.333,0-2c0.333,0,0.667,0,1,0c0-0.667,0-1.333,0-2c0.333,0,0.667,0,1,0c0-0.667,0-1.333,0-2c0.333,0,0.667,0,1,0
			c0-0.667,0-1.333,0-2c0.667-0.333,1.333-0.667,2-1c0-0.667,0-1.333,0-2c0.333,0,0.667,0,1,0c0-0.667,0-1.333,0-2
			c0.333,0,0.667,0,1,0c0-0.667,0-1.333,0-2c0.333,0,0.667,0,1,0c0-0.667,0-1.333,0-2c0.333,0,0.667,0,1,0c0-0.667,0-1.333,0-2
			c0.333,0,0.667,0,1,0c0-0.667,0-1.333,0-2c0.333,0,0.667,0,1,0c0-0.667,0-1.333,0-2c0.333,0,0.667,0,1,0c0-0.667,0-1.333,0-2
			c0.333,0,0.667,0,1,0c0.667-2,1.333-4,2-6c0.333,0,0.667,0,1,0c0-1,0-2,0-3c0.333,0,0.667,0,1,0c0-0.667,0-1.333,0-2
			c0.333,0,0.667,0,1,0c0-1,0-2,0-3c0.333,0,0.667,0,1,0c0-0.667,0-1.333,0-2c0.333,0,0.667,0,1,0c0.667-3,1.333-6,2-9
			c0.333,0,0.667,0,1,0c0-1,0-2,0-3c0.333,0,0.667,0,1,0c0-1,0-2,0-3c0.333,0,0.667,0,1,0c0.333-2.333,0.667-4.667,1-7
			c0.333,0,0.667,0,1,0c0-1.333,0-2.667,0-4c0.333,0,0.667,0,1,0c0.333-2.666,0.667-5.334,1-8c0.333,0,0.667,0,1,0
			c0.333-2.666,0.667-5.334,1-8c0.333,0,0.667,0,1,0c0-1.666,0-3.334,0-5c0.333,0,0.667,0,1,0c0-1.666,0-3.334,0-5
			c0.333,0,0.667,0,1,0c0-2,0-4,0-6c0.333,0,0.667,0,1,0c0.333-4,0.667-8,1-12C1234.446,651.024,1231.803,608.198,1225,585z"/>
	</g>
</g>
<circle fill-rule="evenodd" clip-rule="evenodd" fill="#FFFFFF" cx="640" cy="640" r="240"/>
<circle fill-rule="evenodd" clip-rule="evenodd" cx="640" cy="640" r="210"/>
</svg>
