<?xml version="1.0" encoding="utf-8"?>
<!-- Generator: Adobe Illustrator 15.0.0, SVG Export Plug-In . SVG Version: 6.00 Build 0)  -->
<!DOCTYPE svg PUBLIC "-//W3C//DTD SVG 1.1//EN" "http://www.w3.org/Graphics/SVG/1.1/DTD/svg11.dtd">
<svg version="1.1" id="Layer_1" xmlns="http://www.w3.org/2000/svg" xmlns:xlink="http://www.w3.org/1999/xlink" x="0px" y="0px"
	 width="512px" height="512px" viewBox="0 0 512 512" enable-background="new 0 0 512 512" xml:space="preserve">
<rect fill-rule="evenodd" clip-rule="evenodd" fill="#FFFFFF" width="512" height="512"/>
<g>
	<g>
		<path fill-rule="evenodd" clip-rule="evenodd" fill="#800000" d="M423.479,186.091c0,10.849,0,21.699,0,32.547
			c-43.261,0-86.535,0-129.794,0c0-44.668,0-89.348,0-134.016c10.814,0,21.633,0,32.447,0c0-24.248,0-48.503,0-72.751
			c-47.077,0-94.168,0-141.246,0c0,24.248,0,48.503,0,72.751c10.815,0,21.633,0,32.448,0c0,44.668,0,89.348,0,134.016
			c-43.259,0-86.533,0-129.793,0c0-10.848,0-21.698,0-32.547c-25.448,0-50.902,0-76.35,0c0,47.22,0,94.454,0,141.674
			c25.447,0,50.902,0,76.35,0c0-10.848,0-21.699,0-32.547c43.26,0,86.534,0,129.793,0c0,43.391,0,86.796,0,130.188
			c-10.814,0-21.632,0-32.448,0c0,25.522,0,51.055,0,76.579c47.078,0,94.168,0,141.246,0c0-25.524,0-51.057,0-76.579
			c-10.814,0-21.633,0-32.447,0c0-43.393,0-86.798,0-130.188c43.259,0,86.533,0,129.794,0c0,10.848,0,21.699,0,32.547
			c25.447,0,50.901,0,76.349,0c0-47.22,0-94.454,0-141.674C474.38,186.091,448.926,186.091,423.479,186.091z M492.192,320.107
			c-20.359,0-40.721,0-61.08,0c0-10.848,0-21.699,0-32.547c-48.35,0-96.714,0-145.063,0c0,48.496,0,97.006,0,145.502
			c10.815,0,21.634,0,32.448,0c0,20.421,0,40.844,0,61.265c-41.988,0-83.989,0-125.976,0c0-20.421,0-40.844,0-61.265
			c10.814,0,21.633,0,32.448,0c0-48.496,0-97.006,0-145.502c-48.35,0-96.714,0-145.064,0c0,10.848,0,21.699,0,32.547
			c-20.357,0-40.722,0-61.079,0c0-42.116,0-84.243,0-126.358c20.357,0,40.722,0,61.079,0c0,10.848,0,21.699,0,32.547
			c48.35,0,96.714,0,145.064,0c0-49.773,0-99.56,0-149.332c-10.815,0-21.634,0-32.448,0c0-19.144,0-38.293,0-57.436
			c41.987,0,83.987,0,125.976,0c0,19.143,0,38.292,0,57.436c-10.814,0-21.633,0-32.448,0c0,49.771,0,99.559,0,149.332
			c48.35,0,96.714,0,145.063,0c0-10.848,0-21.699,0-32.547c20.359,0,40.721,0,61.08,0
			C492.192,235.864,492.192,277.991,492.192,320.107z M272.688,67.392c10.815,0,21.635,0,32.449,0c0-11.486,0-22.976,0-34.461
			c-33.083,0-66.174,0-99.254,0c0,11.486,0,22.976,0,34.461c10.814,0,21.633,0,32.449,0c0,57.429,0,114.876,0,172.306
			c-57.257,0-114.53,0-171.787,0c0-10.848,0-21.699,0-32.546c-11.451,0-22.905,0-34.356,0c0,33.181,0,66.372,0,99.554
			c11.451,0,22.905,0,34.356,0c0-10.848,0-21.698,0-32.547c57.257,0,114.53,0,171.787,0c0,57.43,0,114.877,0,172.307
			c-10.815,0-21.634,0-32.449,0c0,11.485,0,22.977,0,34.461c33.081,0,66.171,0,99.254,0c0-11.484,0-22.976,0-34.461
			c-10.814,0-21.634,0-32.449,0c0-57.43,0-114.877,0-172.307c57.257,0,114.529,0,171.786,0c0,10.849,0,21.699,0,32.547
			c11.45,0,22.907,0,34.358,0c0-33.183,0-66.373,0-99.554c-11.451,0-22.908,0-34.358,0c0,10.848,0,21.699,0,32.546
			c-57.257,0-114.529,0-171.786,0C272.688,182.268,272.688,124.821,272.688,67.392z M133.351,195.664c12.087,0,24.179,0,36.266,0
			c0-8.296,0-16.593,0-24.889c8.271,0,16.543,0,24.813,0c0-12.124,0-24.252,0-36.376c-8.271,0-16.543,0-24.813,0
			c0-8.295,0-16.593,0-24.888c-12.086,0-24.179,0-36.266,0c0,8.295,0,16.593,0,24.888c-8.271,0-16.543,0-24.813,0
			c0,12.124,0,24.252,0,36.376c8.271,0,16.542,0,24.813,0C133.351,179.071,133.351,187.368,133.351,195.664z M112.354,166.946
			c0-9.572,0-19.146,0-28.718c8.271,0,16.543,0,24.813,0c0-8.295,0-16.592,0-24.888c9.542,0,19.088,0,28.631,0
			c0,8.296,0,16.593,0,24.888c8.271,0,16.543,0,24.813,0c0,9.572,0,19.146,0,28.718c-8.271,0-16.543,0-24.813,0
			c0,8.295,0,16.593,0,24.888c-9.543,0-19.088,0-28.631,0c0-8.295,0-16.593,0-24.888
			C128.897,166.946,120.625,166.946,112.354,166.946z M316.589,170.775c8.271,0,16.543,0,24.814,0c0,8.296,0,16.593,0,24.889
			c12.088,0,24.177,0,36.265,0c0-8.296,0-16.593,0-24.889c8.271,0,16.544,0,24.813,0c0-12.124,0-24.252,0-36.376
			c-8.27,0-16.543,0-24.813,0c0-8.295,0-16.593,0-24.888c-12.088,0-24.177,0-36.265,0c0,8.295,0,16.593,0,24.888
			c-8.271,0-16.544,0-24.814,0C316.589,146.523,316.589,158.651,316.589,170.775z M320.406,138.228c8.271,0,16.542,0,24.813,0
			c0-8.295,0-16.592,0-24.888c9.542,0,19.087,0,28.63,0c0,8.296,0,16.593,0,24.888c8.271,0,16.544,0,24.815,0
			c0,9.572,0,19.146,0,28.718c-8.271,0-16.544,0-24.815,0c0,8.295,0,16.593,0,24.888c-9.543,0-19.088,0-28.63,0
			c0-8.295,0-16.593,0-24.888c-8.271,0-16.543,0-24.813,0C320.406,157.374,320.406,147.8,320.406,138.228z M144.803,184.176
			c4.453,0,8.908,0,13.361,0c0-8.296,0-16.592,0-24.888c8.271,0,16.542,0,24.814,0c0-4.467,0-8.935,0-13.402
			c-8.271,0-16.543,0-24.814,0c0-8.295,0-16.593,0-24.889c-4.453,0-8.908,0-13.361,0c0,8.295,0,16.593,0,24.889
			c-8.271,0-16.543,0-24.813,0c0,4.467,0,8.935,0,13.402c8.27,0,16.543,0,24.813,0C144.803,167.584,144.803,175.88,144.803,184.176z
			 M352.854,184.176c4.453,0,8.907,0,13.36,0c0-8.296,0-16.592,0-24.888c8.271,0,16.544,0,24.815,0c0-4.467,0-8.935,0-13.402
			c-8.271,0-16.544,0-24.815,0c0-8.295,0-16.593,0-24.889c-4.453,0-8.907,0-13.36,0c0,8.295,0,16.593,0,24.889
			c-8.271,0-16.543,0-24.813,0c0,4.467,0,8.935,0,13.402c8.271,0,16.543,0,24.813,0C352.854,167.584,352.854,175.88,352.854,184.176
			z M194.43,343.081c-8.271,0-16.543,0-24.813,0c0-8.296,0-16.593,0-24.889c-12.086,0-24.179,0-36.266,0c0,8.296,0,16.593,0,24.889
			c-8.271,0-16.543,0-24.813,0c0,12.123,0,24.251,0,36.376c8.271,0,16.542,0,24.813,0c0,8.296,0,16.593,0,24.889
			c12.087,0,24.179,0,36.266,0c0-8.296,0-16.593,0-24.889c8.271,0,16.543,0,24.813,0C194.43,367.332,194.43,355.204,194.43,343.081z
			 M190.612,375.628c-8.271,0-16.543,0-24.813,0c0,8.295,0,16.593,0,24.888c-9.543,0-19.088,0-28.631,0c0-8.295,0-16.593,0-24.888
			c-8.271,0-16.543,0-24.813,0c0-9.57,0-19.147,0-28.718c8.271,0,16.543,0,24.813,0c0-8.296,0-16.594,0-24.889
			c9.542,0,19.088,0,28.631,0c0,8.295,0,16.593,0,24.889c8.271,0,16.543,0,24.813,0C190.612,356.48,190.612,366.058,190.612,375.628
			z M377.668,318.192c-12.088,0-24.177,0-36.265,0c0,8.296,0,16.593,0,24.889c-8.271,0-16.544,0-24.814,0
			c0,12.123,0,24.251,0,36.376c8.271,0,16.543,0,24.814,0c0,8.296,0,16.593,0,24.889c12.088,0,24.177,0,36.265,0
			c0-8.296,0-16.593,0-24.889c8.271,0,16.544,0,24.813,0c0-12.125,0-24.253,0-36.376c-8.27,0-16.543,0-24.813,0
			C377.668,334.785,377.668,326.488,377.668,318.192z M398.665,346.91c0,9.57,0,19.147,0,28.718c-8.271,0-16.544,0-24.815,0
			c0,8.295,0,16.593,0,24.888c-9.543,0-19.088,0-28.63,0c0-8.295,0-16.593,0-24.888c-8.271,0-16.543,0-24.813,0
			c0-9.57,0-19.147,0-28.718c8.271,0,16.542,0,24.813,0c0-8.296,0-16.594,0-24.889c9.542,0,19.087,0,28.63,0
			c0,8.295,0,16.593,0,24.889C382.121,346.91,390.394,346.91,398.665,346.91z M158.164,329.68c-4.453,0-8.908,0-13.361,0
			c0,8.295,0,16.592,0,24.888c-8.271,0-16.543,0-24.813,0c0,4.468,0,8.936,0,13.402c8.27,0,16.543,0,24.813,0
			c0,8.296,0,16.593,0,24.888c4.453,0,8.908,0,13.361,0c0-8.295,0-16.592,0-24.888c8.271,0,16.542,0,24.814,0
			c0-4.467,0-8.935,0-13.402c-8.271,0-16.543,0-24.814,0C158.164,346.271,158.164,337.975,158.164,329.68z M366.215,329.68
			c-4.453,0-8.907,0-13.36,0c0,8.295,0,16.592,0,24.888c-8.271,0-16.543,0-24.813,0c0,4.468,0,8.936,0,13.402
			c8.271,0,16.543,0,24.813,0c0,8.296,0,16.593,0,24.888c4.453,0,8.907,0,13.36,0c0-8.295,0-16.592,0-24.888
			c8.271,0,16.544,0,24.815,0c0-4.467,0-8.935,0-13.402c-8.271,0-16.544,0-24.815,0C366.215,346.271,366.215,337.975,366.215,329.68
			z"/>
	</g>
</g>
</svg>
