<?xml version="1.0" encoding="utf-8"?>
<!-- Generator: Adobe Illustrator 15.0.0, SVG Export Plug-In . SVG Version: 6.00 Build 0)  -->
<!DOCTYPE svg PUBLIC "-//W3C//DTD SVG 1.1//EN" "http://www.w3.org/Graphics/SVG/1.1/DTD/svg11.dtd">
<svg version="1.1" id="Layer_1" xmlns="http://www.w3.org/2000/svg" xmlns:xlink="http://www.w3.org/1999/xlink" x="0px" y="0px"
	 width="1152px" height="1440px" viewBox="0 0 1152 1440" enable-background="new 0 0 1152 1440" xml:space="preserve">
<g>
	<path stroke="#000000" stroke-width="4.0691" d="M590.013,1409.093c0,0,509.157-224.726,545.779-780.724
		c27.563-452.134-8.109-492.735-8.109-492.735S1044.468,32.435,578.348,32.435c-477.078,0-565.975,111.323-565.975,111.323
		s-11.859,298.183,1.45,524.57C26.581,885.269,167.18,1242.616,590.013,1409.093z"/>
	<path fill="#FFFFFF" d="M129.612,425.11l-82.557,0.563l-0.044-6.307c10.85-2.231,19.983-9.337,27.37-21.314
		c6.834-11.063,10.259-22.504,10.296-34.315l13.95-7.936c0.021,3.758,0.043,6.492,0.048,8.199
		c0.046,6.033,1.351,12.566,3.924,19.612c3.27,8.854,7.313,13.273,12.132,13.237c3.086-0.022,6.678-2.104,10.783-6.225
		c-4.325-0.09-8.284-3.693-11.867-10.849c-3.007-6.248-4.522-11.808-4.561-16.699c-0.037-3.87,0.852-7.302,2.646-10.271
		c2.009-3.42,4.832-5.151,8.462-5.182c3.839-0.021,7.123,1.261,9.856,3.858c2.735,2.585,4.121,5.811,4.142,9.666
		c0.024,3.066-1.2,5.06-3.656,5.99c-1.129,0.454-3.599,0.755-7.41,0.896l0.013,2.896c-0.411,6.465,2.573,9.689,8.949,9.637
		c1.798-0.005,3.975-0.225,6.549-0.642c-2.11,6.647-5.256,12.388-9.421,17.218c-5.189,5.757-10.792,8.651-16.808,8.694
		c-8.637,0.051-15.607-6.591-20.915-19.947c-5.828,12.889-13.137,23.349-21.934,31.375l67.894-0.468l0.157,21.895l-7.903,0.052
		L129.612,425.11z"/>
	<path fill="#FFFFFF" d="M40.406,401.247c-0.24-7.359-2.126-10.979-5.644-10.863c-1.986,0.072-2.91,2.113-2.78,6.145
		c0.213,6.09,2.515,10.797,6.921,14.095C40.056,408.522,40.561,405.391,40.406,401.247 M13.745,431.114l19.978-15.873
		c-5.185-4.258-7.91-10.018-8.152-17.306c-0.125-3.745,0.705-7.308,2.5-10.68c2.014-3.813,4.757-5.793,8.238-5.902
		c3.703-0.124,6.574,1.819,8.628,5.852c1.563,3.024,2.411,6.639,2.55,10.84c0.207,5.688-0.95,10.504-3.451,14.462
		c1.825,2.44,4.157,4.128,6.986,5.06l0.271,7.674c-3.694-1.245-7.11-3.188-10.278-5.812c-5.277,5.306-12.915,13.473-22.905,24.512
		L13.745,431.114z"/>
	<path fill="#FFFFFF" d="M135.513,533.622l-81.848,5.264l-0.38-5.857l7.193-7.556c6.962,0.431,13.92,0.806,20.874,1.111
		c8.213,0.477,15.153,0.528,20.813,0.176c2.493-0.176,4.83-1.883,7.001-5.159c2.178-3.285,3.189-6.231,3.021-8.855
		c-0.309-4.771-4.936-7.616-13.884-8.532l-0.375-5.793c3.844-1.282,6.877-4.331,9.104-9.153c2.14-4.364,3.079-8.71,2.808-13.028
		c-0.256-3.979-1.861-7.535-4.808-10.659c-2.948-3.123-6.429-4.56-10.425-4.301c-6.5,0.417-10.666,4.42-12.47,11.992
		c1.899-0.616,3.063-0.938,3.527-0.959c3.174-0.208,5.887,1.039,8.101,3.737c1.979,2.368,3.079,5.257,3.298,8.646
		c0.206,3.163-0.725,5.971-2.793,8.443c-2.067,2.455-4.734,3.788-8.026,4.001c-4.428,0.288-8.128-1.582-11.128-5.607
		c-2.61-3.482-4.075-7.544-4.362-12.19c-0.499-7.711,1.93-14.361,7.286-19.938c5.359-5.601,11.913-8.635,19.648-9.133
		c6.156-0.391,11.839,1.428,17.079,5.489c5.226,4.047,8.032,9.084,8.422,15.108c0.493,7.603-2.479,15.593-8.893,23.986
		c6.592,1.869,10.095,5.965,10.514,12.329c0.396,6.354-3.46,12.64-11.59,18.862l21.713-1.395l-5.835-90.809l7.901-0.516
		l7.514,116.987l-7.895,0.515L135.513,533.622z"/>
	<path fill="#FFFFFF" d="M146.164,624.99L63.959,635.02l-0.63-6.612l3.621,0.054c9.611-1.168,18.905-5.802,27.899-13.88
		c9.946-8.773,14.359-17.731,13.253-26.874c-0.064-0.57-0.563-2.228-1.474-4.977c-3.246,5.557-6.69,8.556-10.326,8.995
		c-3.419,0.417-6.443-0.698-9.07-3.345c-2.631-2.646-4.147-5.708-4.574-9.198c-0.578-4.72,0.315-8.885,2.689-12.477
		c2.376-3.614,5.88-5.695,10.526-6.252c5.879-0.712,11.047,1.575,15.485,6.882c3.788,4.699,6.053,10.15,6.815,16.361
		c0.785,6.443-0.918,13.533-5.103,21.266c-4.025,7.244-8.942,12.828-14.74,16.751l46.738-5.688l-8.803-72.162l7.896-0.96
		l11.934,97.745l-7.865,1.298L146.164,624.99z"/>
	<polygon fill="#FFFFFF" points="151.779,661.05 71.371,674.128 78.145,661.974 150.028,650.285 147.454,634.491 155.356,633.2 
		162.121,674.846 154.227,676.121 	"/>
	<path fill="#FFFFFF" d="M171.021,765.369c-1.715-6.716-5.674-11.401-11.891-14.046c-1.773,6.907-5.328,12.641-10.651,17.153
		l20.986,15.072C171.901,776.952,172.421,770.882,171.021,765.369 M185.215,812.14l-79.684,20.29c0-3.227,1.971-7.889,5.931-14.017
		c13.165-1.654,26.141-4.104,38.909-7.344c6.386-1.629,10.862-7.492,13.453-17.58c-9.17-6.978-23.318-16.889-42.429-29.703
		l5.365-10.733l11.985,9.02l2.066-0.161c6.063-1.554,9.209-6.745,9.429-15.541l-6.15-4.104l-1.408-17.918
		c9.134,2.375,17.103,6.861,23.933,13.501c6.833,6.631,11.401,14.473,13.694,23.491c1.737,6.813,0.776,15.2-2.873,25.143
		c-3.666,9.967-8.217,17.271-13.679,21.946l26.808-6.817l6.574,25.834l-7.535,1.905L185.215,812.14z"/>
	<path fill="#FFFFFF" d="M110.266,792.259c-1.076-3.489-2.858-8.636-5.379-15.482c-2.507-6.847-4.304-12.021-5.382-15.482
		c-2.588-8.37-2.549-15.656,0.11-21.845c2.785-6.565,8.35-11.143,16.706-13.721c5.271-1.645,8.665-1.38,10.177,0.76l-0.44,4.428
		c-2.5-0.233-4.962,0-7.391,0.748c-11.243,3.507-14.477,13.006-9.668,28.53c0.946,3.036,2.499,7.229,4.675,12.564
		c2.181,5.338,3.565,8.974,4.175,10.938c2.792,9,3.788,14.764,3.013,17.271c0.837,3.079-0.045,6.978-2.633,11.698
		c-2.397,4.193-5.094,7.419-8.1,9.647C113.814,813.897,113.867,803.9,110.266,792.259"/>
	<path fill="#FFFFFF" d="M157.563,860.961c-14.735,5.128-22.637,13.955-23.693,26.507l1.21,2.448
		c1.232-2.715,2.924-4.442,5.081-5.206c2.81-0.969,5.585-0.54,8.34,1.29c2.766,1.832,4.671,4.268,5.721,7.302
		c0.981,2.814,0.771,5.599-0.646,8.329c-1.408,2.728-3.518,4.604-6.319,5.568c-4.003,1.396-7.865,0.734-11.574-1.934
		c-3.109-2.316-5.382-5.559-6.842-9.767c-3.188-9.148-2.358-17.959,2.5-26.477c4.861-8.505,11.894-14.354,21.12-17.565
		c15.336-5.336,31.302-3.886,47.877,4.37l-12.396-35.625l7.544-2.641l24.85,71.4l-7.273,2.534
		c-4.281-11.947-11.464-20.979-21.544-27.063C180.719,857.997,169.393,856.823,157.563,860.961"/>
	<path fill="#FFFFFF" d="M221.888,950.714c-8.325-9.16-17.835-17.519-28.537-25.057c-0.112,15.559-3.526,29.983-10.241,43.25
		L221.888,950.714z M240.207,951.756l-4.662,2.186l0.505,1.085c3.146,6.713,2.969,14.514-0.521,23.457
		c-3.48,8.927-8.575,14.983-15.284,18.122c-4.333,2.022-8.533,2.607-12.579,1.729c-4.515-1.025-7.763-3.652-9.742-7.889
		c-1.262-2.668-1.708-5.541-1.333-8.621c0.365-3.077,1.833-5.204,4.384-6.392c2.456-1.172,4.926-1.217,7.426-0.146
		c2.485,1.068,4.332,2.843,5.506,5.364c1.515,3.226,1.906,6.629,1.151,10.175c1.846-0.352,3.172-0.731,4-1.113
		c4.941-2.316,7.81-6.922,8.605-13.812c0.609-5.938-0.293-11.612-2.688-16.991l-59.07,27.706l-2.697-5.743
		c16.179-17.198,21.507-37.726,15.99-61.531l9.119-10.733c16.396,11.407,31.279,23.707,44.634,36.916l3.555-1.671l-29.131-62.09
		l7.185-3.355l49.928,106.438l-7.181,3.372L240.207,951.756z"/>
	<path fill="#FFFFFF" d="M268.841,1004.463l-68.739,42.254l1.072-15.498l62.984-34.381l-12.428-20.2l7.719-4.751
		c0.417,0.688,1.4,2.551,2.948,5.6c1.546,3.063,2.881,5.511,4.011,7.36c5.432,8.811,10.752,11.61,15.996,8.385
		c-0.866-18.97,3.751-31.579,13.831-37.767c3.585-2.197,7.756-2.698,12.521-1.479c4.281,1.114,7.989,3.238,11.135,6.393
		l-2.678,4.441c-2.329-0.951-4.726-1.938-7.218-2.933c-3.424-1.202-5.717-1.462-6.877-0.764c-2.329,1.438-3.217,4.78-2.659,10.015
		c0.659,8.898,0.96,13.827,0.888,14.809c-0.485,5.732-2.898,9.954-7.251,12.652c-4.371,2.668-10.221,3.047-17.535,1.114
		l8.928,14.544l-7.719,4.749L268.841,1004.463z"/>
	<path fill="#FFFFFF" d="M325.138,1077.503l-63.892,51.606l-5.88-7.302c-0.082-0.087-0.059-0.233,0.045-0.469
		c0.512-0.997,2.5-2.902,5.965-5.688c4.339-3.517,11.011-8.561,20.007-15.13c8.988-6.567,15.606-11.567,19.871-15.014
		c2.031-1.641,3.337-6.979,3.908-15.979c0.559-9.017-0.015-14.572-1.708-16.685c-1.497-1.848-3.747-2.64-6.758-2.376
		c-2.444,0.233-4.793,1.041-7.045,2.421c1.914,4.369,2.669,8.841,2.279,13.429c-0.512,4.984-2.499,8.869-5.952,11.655
		c-2.572,2.082-5.521,2.785-8.85,2.11c-3.334-0.671-6.068-2.346-8.209-5.015c-3.578-4.427-4.391-9.119-2.428-14.075
		c-8.251-0.79-14.021-3.225-17.312-7.313c-1.938-2.391-2.906-5.162-2.89-8.313c0-3.17,1.157-5.659,3.453-7.536
		c7.247-5.837,16.883-5.837,28.917,0.027c0.552-10.525-2.465-20.229-9.046-29.115l6.098-4.929c5.5,7.172,8.87,12.786,10.133,16.863
		c1.441,5.218,1.101,11.729-1.042,19.557c4.267-1.846,8.848-2.315,13.768-1.438c4.912,0.911,8.753,3.052,11.522,6.482
		c2.844,3.518,3.938,8.794,3.309,15.832c-0.175,3.052-1.146,8.693-2.881,16.92l15.211-12.286l16.382,20.275l-6.105,4.927
		L325.138,1077.503z"/>
	<path fill="#FFFFFF" d="M399.141,1138.054l-50.325,64.979l-4.561-3.52l-0.791-10.321c4.841-5.015,9.646-10.087,14.396-15.16
		c5.688-5.925,10.279-11.143,13.754-15.629c1.532-1.995,1.796-4.868,0.789-8.681c-1.017-3.781-2.555-6.479-4.616-8.094
		c-3.767-2.916-8.972-1.306-15.613,4.854l-4.575-3.549c1.598-3.739,1.343-8.049-0.776-12.917c-1.834-4.485-4.456-8.063-7.866-10.703
		c-3.144-2.433-6.869-3.576-11.149-3.433c-4.28,0.149-7.651,1.808-10.1,4.975c-3.996,5.16-3.756,10.921,0.719,17.283
		c0.692-1.918,1.187-3.049,1.464-3.401c1.948-2.521,4.678-3.723,8.179-3.594c3.095,0.091,5.999,1.188,8.705,3.286
		c2.525,1.951,4.03,4.531,4.514,7.713c0.501,3.182-0.278,6.084-2.294,8.691c-2.726,3.521-6.582,5.075-11.581,4.664
		c-4.355-0.352-8.367-1.936-12.06-4.811c-6.122-4.719-9.501-10.966-10.146-18.678c-0.643-7.711,1.416-14.631,6.165-20.774
		c3.776-4.881,8.908-7.933,15.41-9.177c6.492-1.248,12.126-0.03,16.888,3.648c6.02,4.664,10.05,12.17,12.104,22.491
		c5.745-3.694,11.144-3.607,16.162,0.293c5.029,3.899,7.192,10.938,6.479,21.127l13.363-17.257l-71.785-55.609l4.867-6.275
		l92.672,71.799l-4.869,6.271L399.141,1138.054z"/>
	<path fill="#FFFFFF" d="M482.541,1251.676c-14.03-3.841-26.479-14.337-37.35-31.461c-8.819-13.87-15.212-29.471-19.178-46.858
		l6.427-0.908c3.244,5.396,7.347,14.544,12.303,27.474c4.018,10.321,8.078,17.887,12.198,22.669
		c6.247,6.918,15.343,11.993,27.309,15.276c4.819,1.318,9.668,1.686,14.544,1.114c6.361-0.851,10.101-3.344,11.222-7.419
		c0.96-3.52-0.852-7.446-5.424-11.788c-2.903,1.084-5.71,1.262-8.453,0.499c-3.622-0.98-6.6-2.786-8.937-5.425
		c-2.718-2.99-3.612-6.188-2.682-9.589c0.798-2.946,2.731-5.104,5.788-6.451c3.052-1.35,6.037-1.611,8.969-0.821
		c2.163,0.601,4.213,1.847,6.135,3.784c4.104-1.818,6.553-4.164,7.338-7.009c2.155-7.917-1.797-13.254-11.867-16.011
		c-5.866-1.598-11.611-1.877-17.249-0.819c-6.386,1.202-11.318,3.928-14.809,8.166c4.661,2.698,6.347,6.407,5.059,11.129
		c-1.504,5.481-5.425,7.373-11.767,5.629c-3.937-1.085-6.846-3.138-8.715-6.188c-1.877-3.051-2.287-6.479-1.23-10.321
		c2.396-8.783,9.199-14.354,20.415-16.714c9.104-1.979,18.421-1.673,27.928,0.909c6.554,1.803,11.761,5.293,15.63,10.467
		c4.106,5.617,5.294,11.613,3.555,17.976c-1.685,6.145-4.652,10.938-8.922,14.384c6.049,6.965,7.934,14.613,5.653,22.973
		c-1.738,6.364-6.312,10.995-13.713,13.931C495.948,1253.024,489.233,1253.495,482.541,1251.676"/>
	<path fill="#FFFFFF" d="M608.786,1184.823c-6.937,0.439-12.257,3.518-15.979,9.205c6.465,3.036,11.434,7.625,14.923,13.753
		l18.648-18.063C620.311,1186.082,614.445,1184.439,608.786,1184.823 M657.107,1179.429l5.454,82.215
		c-3.107-0.582-7.271-3.386-12.476-8.384c0.571-13.237,0.425-26.418-0.455-39.585c-0.438-6.567-5.365-12.035-14.749-16.418
		c-8.505,7.755-20.73,19.852-36.739,36.298l-9.538-7.239l10.74-10.104l0.205-2.064c-0.412-6.247-4.896-10.292-13.438-12.11
		l-5.116,5.309l-17.719-1.937c3.979-8.621,9.854-15.717,17.616-21.273c7.771-5.556,16.311-8.65,25.606-9.265
		c7.008-0.456,15.087,2.036,24.221,7.504c9.117,5.471,15.48,11.365,19.085,17.653l-1.846-27.915l26.566-1.759l0.526,7.899
		L657.107,1179.429z"/>
	<path fill="#FFFFFF" d="M623.271,1251.366c-3.578,0.689-8.912,1.924-15.979,3.652c-7.082,1.744-12.419,2.963-15.981,3.666
		c-8.604,1.656-15.833,0.864-21.676-2.376c-6.225-3.4-10.146-9.322-11.789-17.771c-1.027-5.334-0.39-8.618,1.916-9.88l4.345,0.88
		c-0.643,2.418-0.732,4.839-0.256,7.257c2.169,11.26,11.262,15.351,27.255,12.24c3.108-0.613,7.478-1.701,13.019-3.253
		c5.559-1.585,9.354-2.583,11.351-2.963c9.294-1.789,15.131-2.154,17.534-1.113c3.165-0.47,6.946,0.836,11.392,3.958
		c3.929,2.892,6.846,5.969,8.753,9.234C645.175,1250.239,635.22,1249.068,623.271,1251.366"/>
	<path fill="#FFFFFF" d="M721.5,1160.367l-31.608,9.572c3.225,1.646,8.033,3.682,14.428,6.146
		c6.392,2.464,10.995,4.397,13.795,5.806l-18.576,23.487c14.163,1.174,27.109,4.808,38.909,10.864L721.5,1160.367z
		 M730.123,1157.728l23.926,78.995l-4.897,1.466c-0.952-0.763-2.71-3.197-5.247-7.3c-4.956-8.122-13.107-13.021-24.456-14.692
		c-9.44-1.29-19.267-0.38-29.525,2.729l-11.173-7.479c7.359-10.203,15.424-19.468,24.189-27.824
		c-10.158-2.741-20.759-3.813-31.786-3.196l-1.333-4.396l-14.718,4.456l-2.288-7.538l86.221-26.123l2.288,7.534L730.123,1157.728z"
		/>
	<path fill="#FFFFFF" d="M731.938,1251.018c-6.771,2.887-9.44,6.023-8.004,9.396c0.791,1.893,3.049,2.054,6.758,0.47
		c5.615-2.404,9.134-6.332,10.558-11.786C738.857,1248.742,735.75,1249.391,731.938,1251.018 M769.59,1265.517l-22.109-13.136
		c-2.023,6.565-6.393,11.272-13.078,14.131c-3.459,1.469-7.082,1.967-10.879,1.481c-4.309-0.515-7.154-2.403-8.531-5.643
		c-1.48-3.491-0.719-6.904,2.287-10.295c2.243-2.578,5.307-4.688,9.177-6.331c5.234-2.229,10.146-2.888,14.749-1.966
		c1.613-2.581,2.374-5.322,2.229-8.254l7.066-3.007c0.178,3.886-0.379,7.802-1.685,11.699c6.847,3.021,17.24,7.242,31.153,12.596
		L769.59,1265.517z"/>
	<path fill="#FFFFFF" d="M795.977,1097.633c-5.044-2.153-13.544-2.448-25.494-0.865c-11.245,1.467-19.676,3.621-25.261,6.452
		c-2.668,1.319-5.966,4.515-9.94,9.559c-4.31,5.601-5.909,9.529-4.78,11.759c1.938,3.842,9.502,7.857,22.684,11.992l16.872-8.489
		l3.607,7.186l-16.86,8.487l37.167,73.979l-16.773-1.068c-6.331-18.519-16.11-41.302-29.365-68.396l-19.75,9.94l-3.607-7.173
		l19.75-9.938c-4.603-1.128-9.265-2.228-13.972-3.298c-6.229-1.848-10.025-4.135-11.422-6.893
		c-2.096-4.163-0.294-10.73,5.368-19.733c5.218-8.355,10.173-13.722,14.866-16.068c7.008-3.549,16.771-5.894,29.293-7.095
		c13.354-1.352,23.236-0.587,29.672,2.314L795.977,1097.633z"/>
	<path fill="#FFFFFF" d="M881.452,1121.136c-2.198,1.788-4.704,2.551-7.538,2.301c-2.841-0.248-5.174-1.479-6.99-3.694
		c-3.096-3.799-2.684-7.316,1.274-10.569c3.341-2.729,6.511-2.289,9.485,1.35c0.864,1.056,1.599,2.375,2.214,3.944
		c1.026-3.229,0.44-6.203-1.833-8.959c-2.184-2.669-4.852-4.236-8.003-4.693c-3.155-0.467-6.042,0.384-8.667,2.523
		c-2.625,2.17-4.249,5.337-4.867,9.56c-0.512,3.665-1.025,7.331-1.523,10.965c7.256,0.56,13.094,3.533,17.507,8.915
		c4.223,5.114,5.1,10.966,2.696,17.521c-1.906,5.556-5.602,10.569-11.055,15.026c-13.255,10.895-29.851,14.06-49.762,9.5
		c-17.387-3.988-32.839-12.259-46.389-24.837l5.72-4.046c16.759,10.558,30.204,16.919,40.348,19.06
		c15.513,3.489,29.453,0.146,41.844-10.025c10.292-8.434,13.192-15.381,8.707-20.85c-1.803-2.198-4.983-3.108-9.544-2.771
		c-0.455,3.386-2.009,6.145-4.634,8.313c-2.726,2.228-5.674,3.459-8.854,3.693c-3.649,0.207-6.565-1.025-8.737-3.663
		c-1.892-2.303-2.521-5.001-1.892-8.095c0.616-3.094,2.053-5.569,4.339-7.446c2.202-1.789,5.016-3.107,8.445-3.929
		c2.316-4.868,2.17-8.886-0.438-12.082c-4.706-5.746-10.643-5.705-17.741,0.145c-9.676,7.918-14.41,17.186-14.25,27.784
		c4.824-1.891,8.752-0.995,11.788,2.714c1.786,2.198,2.404,4.633,1.815,7.328c-0.613,2.698-2.007,4.956-4.223,6.763
		c-3.077,2.532-6.509,3.62-10.275,3.269c-3.77-0.354-6.904-2.082-9.428-5.146c-5.308-6.494-5.627-14.674-0.923-24.526
		c3.678-7.712,9.191-14.588,16.579-20.646c5.895-4.82,11.627-7.418,17.229-7.768c5.996-0.222,11.1,2.242,15.336,7.4
		c1.013,1.218,2.037,2.492,3.123,3.799c0.836-6.07,2.785-10.365,5.82-12.873c4.092-3.342,8.371-4.882,12.857-4.573
		c4.486,0.323,8.416,2.551,11.816,6.687c2.536,3.093,3.707,7.008,3.518,11.757C886.143,1115.006,884.502,1118.614,881.452,1121.136
		 M860.236,1056.861l5.001,6.101l-106.338,87.231l-5.015-6.1L860.236,1056.861z"/>
	<path fill="#FFFFFF" d="M904.558,956.932c-5.454,0.557-13.021,4.397-22.725,11.554c-9.121,6.716-15.438,12.638-18.974,17.796
		c-1.67,2.465-3.036,6.834-4.076,13.151c-1.068,6.994-0.584,11.188,1.468,12.595c3.549,2.436,12.037,2.345,25.479-0.22
		l10.688-15.613l6.468,4.427l-10.704,15.603l68.438,46.767l-15.22,7.157c-14.545-13.094-34.16-28.312-58.864-45.657l-12.418,18.121
		l-6.465-4.425l12.418-18.125c-4.544,1.202-9.119,2.434-13.724,3.739c-6.288,1.35-10.701,1.161-13.238-0.586
		c-3.843-2.625-5.438-9.235-4.794-19.835c0.528-9.825,2.286-16.904,5.235-21.218c4.44-6.464,11.832-13.254,22.211-20.349
		c11.01-7.608,20.026-11.715,27.036-12.299L904.558,956.932z"/>
	<path fill="#FFFFFF" d="M946.43,951.756c-3.988,14.397-4.722,28.224-2.2,41.503c13.107-10.231,27.271-16.977,42.518-20.229
		L946.43,951.756z M937.279,936.846l72.867,38.427l-2.61,4.972c-11.61-1.085-22.77,0.851-33.484,5.835
		c-10.718,4.968-19.234,12.227-25.568,21.755l-17.447,4.313c-1.318-21.318,0.528-43.193,5.544-65.564l-3.461-1.848l-35.099,66.591
		l-7.008-3.694l47.118-89.346l7.008,3.681L937.279,936.846z"/>
	<path fill="#FFFFFF" d="M970.972,849.803l77.174,28.985l-3.28,8.724c-0.046,0.103-0.191,0.19-0.439,0.205
		c-1.115,0.072-3.753-0.69-7.904-2.243c-5.218-1.965-12.929-5.133-23.149-9.5c-10.175-4.369-17.842-7.536-22.94-9.443
		c-2.451-0.922-7.7,0.677-15.763,4.812c-8.034,4.118-12.535,7.447-13.504,9.998c-0.836,2.229-0.366,4.572,1.392,7.066
		c1.453,1.994,3.345,3.605,5.688,4.867c2.787-3.843,6.246-6.729,10.411-8.708c4.573-2.055,8.942-2.303,13.121-0.735
		c3.093,1.175,5.22,3.372,6.317,6.57c1.115,3.226,1.085,6.449-0.116,9.646c-2.007,5.337-5.746,8.385-11.229,9.117
		c3.488,7.536,4.31,13.738,2.461,18.648c-1.067,2.889-2.989,5.132-5.733,6.716c-2.738,1.599-5.495,1.862-8.281,0.82
		c-8.796-3.313-13.723-11.698-14.792-25.157c-9.396,4.853-16.259,12.358-20.568,22.521l-7.185-2.696
		c3.402-8.387,6.553-14.149,9.441-17.302c3.782-3.871,9.646-6.892,17.534-9.003c-3.725-2.728-6.422-6.42-8.137-11.11
		c-1.703-4.69-1.775-9.092-0.221-13.225c1.584-4.253,5.571-7.89,11.936-10.925c2.711-1.392,8.032-3.444,15.979-6.142l-18.501-6.95
		l9.178-24.411l7.17,2.696L970.972,849.803z"/>
	<path fill="#FFFFFF" d="M1031.992,884.329c0.408,4.018,0.85,8.079,1.351,12.14c0.674,5.059,1.743,8.885,3.191,11.466
		c4.226-5.863,10.763-11.438,19.59-16.714l-22.781-7.185L1031.992,884.329z M1043.572,914.474l-14.016,6.654
		c-2.432-10.675-4.016-17.899-4.721-21.697c-1.438-8.21-2.124-15.57-2.082-22.107l4.018-4.838l45.111,14.249
		c-2.537,2.405-6.186,5.131-10.938,8.182c-4.751,3.02-8.134,5.468-10.129,7.347C1047.562,905.412,1045.143,909.489,1043.572,914.474
		"/>
	<path fill="#FFFFFF" d="M975.986,749.142c-5.001,2.213-10.967,8.225-17.945,18.017c-6.539,9.207-10.688,16.831-12.432,22.813
		c-0.82,2.843-0.732,7.417,0.264,13.737c1.174,6.964,2.932,10.775,5.336,11.479c4.135,1.203,12.17-1.541,24.103-8.211l5.192-17.945
		l7.533,2.201l-5.189,17.943l79.668,23.119l-12.213,11.555c-17.914-7.932-41.327-16.259-70.271-24.996l-6.128,21.186l-7.536-2.185
		l6.13-21.171c-3.931,2.58-7.889,5.218-11.875,7.887c-5.571,3.284-9.825,4.486-12.787,3.637c-4.483-1.287-8.075-7.067-10.789-17.329
		c-2.581-9.499-3.139-16.771-1.67-21.804c2.17-7.533,7.082-16.303,14.732-26.285c8.078-10.673,15.38-17.388,21.874-20.131
		L975.986,749.142z"/>
	<path fill="#FFFFFF" d="M1018.213,728.117c-0.088,14.982,2.797,28.573,8.679,40.771c9.998-13.355,21.929-23.618,35.771-30.789
		L1018.213,728.117z M1005.191,716.147l80.417,18.052l-1.247,5.5c-11.377,2.009-21.555,6.817-30.54,14.425
		c-8.987,7.626-15.292,16.877-18.884,27.741l-15.85,8.706c-6.918-20.316-10.906-41.958-11.978-64.947l-3.858-0.863l-16.506,73.597
		l-7.535-1.697l22.123-98.575l7.551,1.687L1005.191,716.147z"/>
	<path fill="#FFFFFF" d="M1012.347,676.547l35.726,5.496c-9.98-18.025-16.668-33.428-20-46.204l9.902-12.728
		c10.084,11.386,25.012,18.605,44.743,21.648c5.629,0.857,12.521,0.006,20.732-2.58l-0.854,6.633
		c-15.362,2.852-30.054,3.196-44.098,1.027c-6.276-0.955-11.656-2.977-16.13-6.024c4.647,17.005,13.228,30.089,25.746,39.238
		l-12.2,10.856l-45.183-6.958l-3.432,22.257l-7.888-1.219l15.379-99.856l7.904,1.228L1012.347,676.547z"/>
	<path fill="#FFFFFF" d="M1024.689,585.5c4.368,3.806,8.197,5.883,11.464,6.237c4.854,0.536,12.066-0.249,21.673-2.337
		c9.586-2.096,16.801-2.873,21.653-2.337c8.226,0.906,14.235,2.929,17.985,6.085c4.073,3.417,6.746,9.125,8.035,17.13l-5.396,2.483
		c-0.762-9.645-3.165-14.696-7.242-15.145c-4.837-0.526-12.065,0.553-21.671,3.248c-9.601,2.697-16.813,3.784-21.666,3.241
		c-6.774-0.741-15.276-4.883-25.525-12.425l-2.744,24.938l-7.887-0.863l5.575-50.616l7.886,0.864L1024.689,585.5z"/>
	<polygon fill="#FFFFFF" points="1028.147,546.803 1109.635,553.834 1100.077,563.862 1027.226,557.564 1025.863,573.363 
		1017.977,572.672 1021.598,530.685 1029.497,531.359 	"/>
	<path fill="#FFFFFF" d="M1034.571,438.457l81.851,3.761l-0.275,5.851l-7.945,6.714c-6.88-1.188-13.737-2.317-20.613-3.396
		c-8.094-1.369-14.983-2.191-20.645-2.448c-2.491-0.125-4.998,1.349-7.534,4.385c-2.508,3.033-3.844,5.863-3.958,8.496
		c-0.221,4.793,4.072,8.154,12.841,10.042l-0.263,5.836c-3.959,0.852-7.306,3.563-10.057,8.137
		c-2.609,4.113-4.004,8.354-4.192,12.694c-0.192,4.004,1.009,7.72,3.573,11.173c2.609,3.438,5.896,5.251,9.883,5.435
		c6.496,0.299,11.057-3.227,13.694-10.58c-1.963,0.434-3.167,0.63-3.636,0.617c-3.17-0.147-5.718-1.68-7.639-4.604
		c-1.701-2.57-2.479-5.557-2.333-8.95c0.146-3.168,1.379-5.856,3.71-8.07c2.316-2.223,5.13-3.255,8.414-3.109
		c4.445,0.214,7.932,2.479,10.455,6.804c2.229,3.746,3.225,7.938,3.021,12.58c-0.351,7.719-3.506,14.059-9.441,19.007
		c-5.923,4.971-12.754,7.267-20.494,6.905c-6.159-0.279-11.599-2.726-16.364-7.353c-4.734-4.616-6.979-9.945-6.697-15.989
		c0.335-7.646,4.146-15.297,11.39-22.966c-6.286-2.579-9.293-7.058-8.999-13.458c0.29-6.379,4.794-12.229,13.515-17.55
		l-21.667-0.981l-4.179,91.169l-7.905-0.358l5.396-117.113l7.89,0.36L1034.571,438.457z"/>
	<path fill="#FFFFFF" d="M1112.219,384.644c0.059,7.221-2.949,10.856-9.047,10.916c-2.404,0.029-4.384-1.07-5.879-3.3
		c-1.526-2.221-2.288-4.588-2.315-7.109c-0.032-2.522,0.849-4.818,2.606-6.907c1.761-2.08,3.902-3.138,6.422-3.15
		c2.303-0.021,4.237,0.961,5.808,2.953C1111.384,380.033,1112.186,382.233,1112.219,384.644 M1034.014,354.229l0.352,37.292
		c5.16-7.226,8.419-11.766,9.767-13.597c3.813-4.937,7.518-9.078,11.127-12.419c3.008,3.848,8.313,12.346,15.936,25.479
		c5.53-15.046,13.577-27.502,24.18-37.354L1034.014,354.229z M1033.93,346.326l82.201-0.792l-0.28,7.905
		c-11.126,2.163-19.763,8.173-25.948,18.03c-5.602,8.819-8.399,19.23-8.399,31.186l-10.66,8.649
		c-6.772-9.338-13.53-20.174-20.231-32.467c-5.364,10.059-9.001,21.216-10.938,33.486l-5.102,0.06l0.146,16.509l-7.886,0.073
		l-0.94-98.632l7.892-0.073L1033.93,346.326z"/>
	<path fill="#FFFFFF" d="M959.918,318.473h15.263l-114.869,521.64c0,0-166.344-20.336-248.888,31.111l-17.166-17.14
		c135.63-52.648,255.277-31.917,255.277-31.917L959.918,318.473z M225.429,318.473h-15.264l114.864,521.64
		c0,0,166.328-20.336,248.894,31.111l17.151-17.14c-135.606-52.648-255.271-31.917-255.271-31.917L225.429,318.473z
		 M553.976,891.982l8.387-8.387c0,0-63.468-47.18-251.292-23.927L193.454,337.064h-16.392l121.253,545.741
		C298.315,882.806,398.826,841.313,553.976,891.982 M887.022,882.806l121.261-545.741h-16.406L874.268,859.67
		c-187.821-23.254-251.291,23.926-251.291,23.926l8.387,8.387C786.509,841.313,887.022,882.806,887.022,882.806 M860.311,840.112
		c-179.892-18.736-248.888,31.111-248.888,31.111l11.554,12.372c86.149-48.646,251.291-23.926,251.291-23.926l119.399-530.562
		h-20.834L860.311,840.112z M325.03,840.112c179.881-18.736,248.894,31.111,248.894,31.111l-11.562,12.372
		C476.206,834.949,311.07,859.67,311.07,859.67L191.671,329.109h20.834L325.03,840.112z"/>
	<path fill="none" stroke="#000000" stroke-width="4.7853" d="M959.918,318.473h15.263l-114.869,521.64
		c0,0-166.344-20.336-248.888,31.111l-17.166-17.14c135.63-52.648,255.277-31.917,255.277-31.917L959.918,318.473z M225.429,318.473
		h-15.264l114.864,521.64c0,0,166.328-20.336,248.894,31.111l17.151-17.14c-135.606-52.648-255.271-31.917-255.271-31.917
		L225.429,318.473z M553.976,891.982l8.387-8.387c0,0-63.468-47.18-251.292-23.927L193.454,337.064h-16.392l121.253,545.741
		C298.315,882.806,398.826,841.313,553.976,891.982z M887.022,882.806l121.261-545.741h-16.406L874.268,859.67
		c-187.821-23.254-251.291,23.926-251.291,23.926l8.387,8.387C786.509,841.313,887.022,882.806,887.022,882.806z M860.311,840.112
		c-179.892-18.736-248.888,31.111-248.888,31.111l11.554,12.372c86.149-48.646,251.291-23.926,251.291-23.926l119.399-530.562
		h-20.834L860.311,840.112z M325.03,840.112c179.881-18.736,248.894,31.111,248.894,31.111l-11.562,12.372
		C476.206,834.949,311.07,859.67,311.07,859.67L191.671,329.109h20.834L325.03,840.112z"/>
	<path display="none" fill="none" stroke="#F7F619" stroke-width="9.5726" d="M594.258,65.943v212.189 M533.633,72.321
		l63.818,198.637l62.281-193.851 M487.37,91.469l110.081,179.489l119.666-168.325 M447.639,124.808l149.812,146.15l159.56-131.627
		 M417.115,169.678l180.336,101.28l186.681-88.562 M398.025,218.998l197.039,51.959l201.823-43.881 M391.648,270.958h410.018"/>
	<path fill="#993333" d="M739.445,270.958c0,79.739-64.627,144.381-144.382,144.381c-79.744,0-144.39-64.642-144.39-144.381
		c0-79.743,64.646-144.398,144.39-144.398C674.818,126.559,739.445,191.214,739.445,270.958"/>
	<path display="none" fill="none" stroke="#BE0B29" stroke-width="9.5726" d="M563.512,307.286
		c4.604,39.444,29.161,68.166,29.161,68.166s42.914-43.25,11.158-120.456c-5.296-15.298-13.555-49.475-17.545-66.209
		C573.3,247.595,560.037,277.7,563.512,307.286z"/>
	<path fill="#FFFFFF" d="M594.258,854.084c135.63-52.648,255.277-31.918,255.277-31.918l113.256-516.919
		c0,0-237.697-51.041-370.117,70.205c-132.426-121.245-370.148-70.205-370.148-70.205l113.281,516.919
		c0,0,119.663-20.73,255.271,31.918H594.258z"/>
	<path fill="none" stroke="#000000" stroke-width="4.7853" d="M594.258,854.084c135.63-52.648,255.277-31.918,255.277-31.918
		l113.256-516.919c0,0-237.697-51.041-370.117,70.205c-132.426-121.245-370.148-70.205-370.148-70.205l113.281,516.919
		c0,0,119.663-20.73,255.271,31.918H594.258z"/>
	<path d="M539.307,535.478c-3.945-2.638-8.065-3.958-12.33-3.958c-8.987,0-15.182,2.396-18.583,7.183h0.82
		c3.292-0.087,5.917,0.764,7.896,2.539c1.966,1.768,2.955,3.862,2.955,6.236c0,0.47-0.051,0.969-0.162,1.512L539.307,535.478z
		 M576.619,530.084h-13.282v58.326c-1.511-0.769-4.448-2.749-8.799-5.974l1.087-29.66c0-1.298-1.144-3.274-3.43-5.925
		c-2.293-2.637-4.245-4.345-5.88-5.106l-27.613,19.667l-12.278-3.13c1.884-1.236,3.797-2.573,5.733-3.996
		c1.934-1.435,2.901-2.961,2.901-4.59c0-3.861-1.591-5.796-4.787-5.796c-1.313,0-3.219,0.388-5.687,1.155
		c-2.48,0.771-4.431,1.151-5.866,1.151c-1.422,0-2.83-0.506-4.208-1.544c-1.386-1.036-2.06-2.075-2.06-3.154
		c0-0.844,0.49-1.87,1.474-3.093c7.125-8.788,17.153-13.183,30.083-13.183c8.444,0,16.172,2.568,23.195,7.694
		c6.685,4.895,10.57,10.36,11.669,16.403c-2.41-10.307-3.605-21.565-3.605-33.794l4.36,2.304l0.484,0.568
		c0.323,3.918,3.167,5.83,8.496,5.749L576.619,530.084z"/>
	<path d="M565.506,593.615l-10.85-12.631c-2.419-2.777-9.435-4.17-21.054-4.17c-2.74,0-6.274,0.082-10.6,0.229
		c-4.332,0.16-6.984,0.232-7.977,0.232c-7.235,0-13.428-1.633-18.575-4.896c-5.146-3.269-7.725-7.396-7.725-12.389
		c0-3.841,0.321-6.979,0.979-9.448l4.604,3.24c-0.498,0.771-0.746,1.648-0.746,2.646c0,6.465,6.251,10.285,18.721,11.436
		c22.234,2.083,33.778,3.233,34.659,3.468C559.312,574.565,565.506,581.99,565.506,593.615"/>
	<path d="M662.649,555.122c0,6.854-2.9,12.639-8.723,17.343c-6.145,5.009-13.974,7.516-23.531,7.516
		c-13.487,0-24.674-5.354-33.558-16.032c-4.183-5.071-9.441-14.564-15.799-28.485l5.264,1.157c3.73,9.164,8.892,16.681,15.46,22.529
		c8.548,7.542,18.604,11.318,30.1,11.318c5.602,0,10.79-1.533,15.556-4.589c4.766-3.058,7.154-6.554,7.154-10.506
		c0-1.312-0.381-2.896-1.158-4.756c-0.98-2.323-2.126-3.476-3.461-3.476l-0.482,0.106c-3.62,3.244-7.229,5.521-10.85,6.834
		c-3.944,1.474-8.724,2.206-14.296,2.206c-5.159,0-9.501-1.04-12.989-3.123c-3.839-2.235-5.763-5.122-5.763-8.671
		c0-2.786,1.219-4.977,3.624-6.599c2.402-1.619,5.645-2.433,9.705-2.433c2.741,0,5.159,0.674,7.229,2.017
		c2.097,1.348,3.137,2.983,3.137,4.91c0,1.539-1.158,3.461-3.504,5.77l0.323,0.236c2.844-0.082,6.361-1.665,10.541-4.729
		c3.841-2.772,6.377-5.27,7.579-7.5l0.498-0.233c3.284,0.08,7.186,2.735,11.686,7.967
		C660.57,548.842,662.649,552.579,662.649,555.122 M667.517,530.082H578.24l-8.387-5.925h89.104L667.517,530.082z"/>
	<path d="M614.168,589.847c-1.861,0-3.535,0.346-5.03,1.021c-1.465,0.681-2.214,1.625-2.214,2.836c0,1.737,1.481,2.602,4.441,2.602
		c2.199,0,4.43-0.417,6.688-1.239c2.261-0.834,3.811-1.892,4.692-3.182C622.745,590.53,619.884,589.847,614.168,589.847
		 M654.968,612.463c-2.639-3.388-6.187-6.68-10.673-9.91c-4.839-3.389-9.545-5.88-14.146-7.5c-4.164,4.669-9.706,7.001-16.612,7.001
		c-3.519,0-6.627-0.695-9.367-2.082c-3.064-1.541-4.604-3.514-4.604-5.902c0-2.689,1.598-4.911,4.764-6.641
		c3.197-1.737,6.746-2.611,10.703-2.611c2.729,0,6.452,0.916,11.173,2.735l1.319-0.689c0-2.141-0.234-4.164-0.676-6.085l0.676-2.05
		c2.287,1.144,3.781,2.866,4.429,5.176c0.232,0.76,0.38,2.844,0.497,6.214c10.969,4.839,17.536,9.298,19.734,13.366
		c2.081,1.375,3.122,3.299,3.122,5.751C655.305,610.008,655.188,611.076,654.968,612.463"/>
	<path d="M711.75,573.758c0,3.788-2.479,5.681-7.402,5.681c-2.536,0-4.589-0.617-6.188-1.856c-1.584-1.23-2.375-2.776-2.375-4.646
		c0-1.392,0.791-2.566,2.375-3.533c1.6-0.959,3.373-1.452,5.351-1.452C709.01,567.951,711.75,569.888,711.75,573.758
		 M704.844,564.22l-3.284-2.3c-1.523-5.541-3.047-11.114-4.588-16.729c-1.627-6.449-2.448-12.073-2.448-16.838
		c0-5.307,2.55-7.961,7.683-7.961c2.521,0,4.486,1.23,5.922,3.692c0.971,1.762,1.468,3.727,1.468,5.882
		c0,4.619-0.615,10.335-1.802,17.182C706.81,552.853,705.826,558.539,704.844,564.22"/>
	<path d="M541.704,630.599h-14.052v59.045l-3.13-1.735c-2.531-7.337-8.394-14.902-17.609-22.702
		c-5.152,5.645-11.794,8.466-19.909,8.466c-11.092,0-21.077-4.934-29.953-14.808c-7.021-7.792-11.736-16.323-14.154-25.577
		l5.102,1.511c4.816,9.281,9.038,15.693,12.646,19.251c6.471,6.501,14.749,9.756,24.827,9.756c4.267,0,7.938-0.915,11.017-2.719
		c3.059-1.802,4.591-4.172,4.591-7.088c0-2.074-0.705-4.282-2.127-6.582c-1.648-2.844-3.722-4.229-6.237-4.149
		c-1.861,4.001-5.588,5.995-11.157,5.995c-3.283,0-6.294-0.746-9.029-2.25c-2.743-1.501-4.112-3.423-4.112-5.74
		c0-2.622,1.758-4.663,5.263-6.136c2.85-1.231,6.305-1.849,10.356-1.849c7.235,0,13.614,2.144,19.165,6.415
		c5.525,4.282,8.296,9.043,8.296,14.279c0,1.079-0.183,2.129-0.525,3.123l8.43,11.335v-37.841h-78.474l-8.227-5.925h100.626
		L541.704,630.599z"/>
	<path d="M577.508,630.416h-14.911v60.66l-7.719-6.006v-43.313c0-3.469-1.716-6.291-5.14-8.491c-3.428-2.2-7.63-3.146-12.606-2.83
		l-8.459-5.776c2.411-0.226,4.712-0.338,6.904-0.338c7.125,0,12.278,1.417,15.458,4.27c1.98,1.61,4.275,5.275,6.905,10.973
		c-2.037-7.236-3.063-15.672-3.063-25.305l3.093,1.854c0.619,2.391,1.019,3.937,1.232,4.626c0.719,1.311,1.848,2.625,3.395,3.936
		h6.716L577.508,630.416z"/>
	<path d="M633.709,670.739V630.6h-38.381c8.02,4.551,13.618,8.289,16.802,11.221c5.042,4.553,7.58,9.45,7.58,14.691v2.669
		C623.007,661.57,627.669,665.428,633.709,670.739 M656.01,630.6h-14.589v59.045l-3.43-2.661
		c-4.254-11.354-11.613-18.274-22.054-20.736v0.219c-0.114,1.146-2.008,2.296-5.688,3.469c-3.68,1.188-6.509,1.76-8.473,1.76
		c-3.96,0-7.258-0.881-9.896-2.654c-2.633-1.779-3.945-4.063-3.945-6.831c0-3.242,1.708-5.793,5.118-7.641
		c2.977-1.628,6.89-2.434,11.742-2.434c3.301,0,5.336,0.388,6.1,1.167c0-4.459-1.467-7.729-4.427-9.811
		c-1.878-1.304-5.454-2.5-10.73-3.584c-5.822-1.225-10.053-2.454-12.689-3.687c-2.089-1.003-4.563-2.844-7.429-5.548
		c-3.18-2.993-5.599-5-7.249-5.998h79.236L656.01,630.6z"/>
	<path d="M691.605,630.416h-14.911v60.66l-7.711-6.006v-43.313c0-3.469-1.729-6.291-5.16-8.491s-7.624-3.146-12.596-2.83
		l-8.459-5.776c2.405-0.226,4.706-0.338,6.906-0.338c7.125,0,12.271,1.417,15.468,4.27c1.965,1.61,4.252,5.275,6.89,10.973
		c-2.038-7.236-3.049-15.672-3.049-25.305l3.08,1.854c0.615,2.391,1.024,3.937,1.23,4.626c0.72,1.311,1.849,2.625,3.399,3.936h6.718
		L691.605,630.416z"/>
	<path d="M744.033,674.905v-44.307h-29.835c5.162,2.227,11.729,6.714,19.733,13.466c-4.502,2.992-11.024,7.63-19.572,13.927
		C727.263,661.129,737.143,666.775,744.033,674.905 M719.857,686.053c-2.42,0-4.561-0.606-6.422-1.831
		c-1.861-1.239-2.786-2.701-2.786-4.376c0-1.622,0.794-3.022,2.375-4.21c1.585-1.187,3.534-1.78,5.835-1.78
		c2.404,0,4.547,0.595,6.408,1.78c1.862,1.188,2.799,2.625,2.799,4.319c0,1.619-0.804,3.028-2.374,4.268
		C724.082,685.446,722.144,686.053,719.857,686.053 M766.654,630.599h-14.363v59.398c-3.404-2.522-7.272-6.451-11.655-11.764
		c-3.74-4.311-7.229-7.272-10.514-8.893c-5.045-2.455-12.435-3.878-22.183-4.275l-10.997-9.8
		c8.327-5.859,16.449-10.776,24.321-14.778c-3.399-2.382-8.648-3.922-15.773-4.62c-5.043-0.462-9.325-1.845-12.813-4.148
		c-3.52-2.308-6.92-4.655-10.205-7.043h76.296L766.654,630.599z"/>
	<path d="M463.641,767.656c0-1.654-1.423-3.547-4.281-5.688c-2.735,1.318-5.585,1.995-8.533,1.995c-5.271,0-7.902-1.63-7.902-4.869
		c0-1.936,0.873-3.604,2.61-5.027c1.744-1.422,3.922-2.143,6.537-2.143c2.289,0,4.252,0.836,5.889,2.508
		c3.38-2.185,5.065-4.046,5.065-5.629c0-1.409-1.43-2.64-4.266-3.754c-2.411-0.925-4.708-1.408-6.892-1.408
		c-2.963,0-7.289,1.556-12.977,4.634c-5.688,3.079-8.531,5.63-8.531,7.623c0,4.238,2.359,8.226,7.083,11.968
		c4.727,3.719,10.049,5.6,15.979,5.6c2.528,0,4.867-0.53,7.015-1.587C462.579,770.811,463.641,769.414,463.641,767.656
		 M418.265,749.142c-1.328-1.38-4.829-5.44-10.556-12.185c-2.641,0-5.447,1.613-8.399,4.824c-2.757,2.916-4.128,5.378-4.128,7.359
		c0,3.532,2.25,5.291,6.766,5.291C406.669,754.433,412.107,752.674,418.265,749.142 M478.279,731.106h-60.673
		c-0.332,0.749-0.493,1.746-0.493,2.979c0,2.286,0.99,5.217,2.955,8.81c2.301,4.12,4.714,6.203,7.229,6.203
		c0.87,0,2.624-0.939,5.255-2.758c3.503-2.436,6.294-4.133,8.372-5.133c3.942-1.832,7.776-2.739,11.501-2.739
		c5.146,0,9.632,1.099,13.465,3.284c3.836,2.184,5.741,5.059,5.741,8.576c0,3.387-2.684,6.391-8.073,9.001
		c4.43,5.146,6.645,8.913,6.645,11.289c0,2.847-1.813,5.073-5.426,6.686c-3.182,1.393-6.905,2.084-11.174,2.084
		c-9.975,0-17.709-4.442-23.186-13.328c-2.073,8.886-9.198,13.328-21.368,13.328c-13.699,0-23.838-4.987-30.411-14.955
		c-2.954-4.634-6.308-13.841-10.029-27.59l6.081,2.194c1.958,8.356,3.88,14.104,5.742,17.285c3.166,5.484,8.53,9.971,16.088,13.446
		c3.506,1.627,6.401,2.434,8.703,2.434c4.384,0,8.68-1.041,12.889-3.138c4.219-2.112,6.323-4.633,6.323-7.58
		c0-1.556-0.703-3.035-2.081-4.442l-0.637-0.233l1.479,0.233c-1.859,0.925-4.661,1.832-8.393,2.712
		c-3.729,0.896-6.692,1.319-8.886,1.319c-5.818,0-10.283-1.158-13.414-3.504c-3.131-2.317-4.684-5.572-4.684-9.705
		c0-2.831,1.231-5.952,3.702-9.354c2.478-3.401,5.358-5.863,8.659-7.405h-33.378l-8.064-5.923h111.484L478.279,731.106z"/>
	<path d="M514.859,730.914h-14.904v60.668l-7.725-6.011v-43.308c0-3.459-1.715-6.291-5.137-8.488
		c-3.433-2.186-7.632-3.137-12.611-2.831l-8.459-5.775c2.421-0.232,4.714-0.353,6.905-0.353c7.127,0,12.277,1.438,15.46,4.282
		c1.972,1.611,4.272,5.277,6.915,10.965c-2.048-7.226-3.073-15.656-3.073-25.291l3.086,1.849c0.616,2.392,1.033,3.944,1.231,4.619
		c0.725,1.317,1.845,2.64,3.406,3.942h6.716L514.859,730.914z"/>
	<path d="M590.746,731.106h-14.303v60.127l-3.057-2.889v-2.873c0.441-6.452-2.295-13.563-8.195-21.304
		c-6.671-8.769-14.318-13.138-22.952-13.138l-2.141,0.354c3.532,3.445,5.292,6.142,5.292,8.063c0,5.16-3.717,7.741-11.157,7.741
		c-10.387,0-15.585-3.549-15.585-10.645c0-3.783,1.943-6.949,5.83-9.546c3.875-2.578,8.553-3.867,14.021-3.867
		c11.371,0,21.26,6.229,29.69,18.663v-30.688h-56.042l-8.212-5.923h78.262L590.746,731.106z"/>
	<path d="M715.12,731.106h-62.557v24.206c5.923-3.151,11.802-6.305,17.622-9.472c6.92-3.533,13.342-6.155,19.264-7.857l14.324,7.535
		c-7.348,9.941-11.01,19.059-11.01,27.372c0,3.77,0.998,9.589,2.961,17.431l-5.673-1.947c-3.328-10.791-5.001-18.841-5.001-24.146
		c0-4.399,0.924-9.294,2.787-14.678c-7.463,1.834-14.118,4.766-19.983,8.769c-5.863,4.002-10.219,8.546-13.063,13.62l-11.022-7.932
		v-32.9h-9.384l-8.387-5.923h80.725L715.12,731.106z"/>
	<path d="M751.115,730.914H736.22v60.668l-7.711-6.011v-43.308c0-3.459-1.731-6.291-5.162-8.488
		c-3.432-2.186-7.626-3.137-12.609-2.831l-8.443-5.775c2.403-0.232,4.707-0.353,6.893-0.353c7.138,0,12.285,1.438,15.466,4.282
		c1.965,1.611,4.269,5.277,6.904,10.965c-2.036-7.226-3.047-15.656-3.047-25.291l3.077,1.849c0.614,2.392,1.024,3.944,1.23,4.619
		c0.706,1.317,1.85,2.64,3.402,3.942h6.714L751.115,730.914z"/>
	<path d="M810.8,727.69c5.468,0,10.221,1.115,14.208,3.314c4.019,2.184,6.011,5.162,6.011,8.942c0,6.628-2.11,11.521-6.291,14.69
		c4.795,4.31,7.185,8.254,7.185,11.803c0,5.233-2.229,9.308-6.655,12.211c-4.44,2.875-10.365,4.328-17.813,4.328
		c-22.227,0-39.849-16.73-52.896-50.186l5.585,2.097c6.79,11.873,12.357,20.172,16.744,24.879
		c8.869,9.484,18.928,14.221,30.188,14.221c4.807,0,8.972-0.88,12.461-2.669c3.944-2.023,5.923-4.646,5.923-7.902
		c0-2.008-1.643-3.868-4.911-5.571c-2.185,1.556-4.707,2.332-7.535,2.332c-2.948,0-5.379-0.645-7.301-1.905
		c-1.922-1.273-2.876-2.962-2.876-5.044c0-1.934,0.954-3.636,2.831-5.16c1.892-1.494,4.224-2.26,6.994-2.26
		c2.536,0,4.822,0.44,6.817,1.307c3.987-1.377,5.979-3.665,5.979-6.877c0-4.413-3.372-6.626-10.085-6.626
		c-4.416,0-8.946,0.79-13.563,2.359c-4.618,1.57-8.108,3.623-10.427,6.13c3.447,1.538,5.179,3.869,5.179,6.994
		c0,3.312-2.802,4.953-8.402,4.953c-7.684,0-11.521-2.856-11.521-8.563c0-5.071,3.984-9.44,11.989-13.048
		C795.743,729.276,803.132,727.69,810.8,727.69"/>
	<path display="none" fill="none" stroke="#BE0B29" stroke-width="9.5726" d="M589.476,280.522c0,0-7.646,26.999,0,58.233
		C597.115,369.985,589.476,280.522,589.476,280.522z"/>
	<path fill="none" stroke="#000000" stroke-width="7.18" d="M776.156,459.607c0,1.986-1.628,3.584-3.604,3.584
		c-1.969,0-3.581-1.598-3.581-3.584c0-1.974,1.612-3.585,3.581-3.585C774.528,456.022,776.156,457.634,776.156,459.607z"/>
	<path fill="none" stroke="#000000" stroke-width="8.9155" stroke-linecap="round" d="M875.06,420.924
		c0,0,39.088,24.726-31.901,43.872"/>
	
		<line fill="none" stroke="#000000" stroke-width="8.9155" stroke-linecap="round" x1="507.295" y1="486.973" x2="540.804" y2="468.631"/>
	
		<line fill="none" stroke="#000000" stroke-width="8.9155" stroke-linecap="round" x1="641.466" y1="486.973" x2="674.966" y2="468.631"/>
	
		<line fill="none" stroke="#000000" stroke-width="8.9155" stroke-linecap="round" x1="749.444" y1="495.483" x2="782.959" y2="477.135"/>
	
		<line fill="none" stroke="#000000" stroke-width="8.9155" stroke-linecap="round" x1="850.43" y1="394.504" x2="883.93" y2="376.162"/>
	
		<line fill="none" stroke="#000000" stroke-width="8.9155" stroke-linecap="round" x1="373.013" y1="480.036" x2="406.523" y2="461.687"/>
	
		<line fill="none" stroke="#000000" stroke-width="8.9155" stroke-linecap="round" x1="297.084" y1="386.748" x2="330.594" y2="368.408"/>
	<path fill="none" stroke="#000000" stroke-width="8.9155" stroke-linecap="round" stroke-linejoin="round" d="M741.045,374.652
		c0,0,7.608,29.53,18.353,0c10.367,30.319,16.76,0,16.76,0"/>
	<path fill="none" stroke="#000000" stroke-width="8.9155" stroke-linecap="round" stroke-linejoin="round" d="M800.875,418.526
		c0,0,31.902,20.739-30.317,20.739c-62.224,0-39.483-22.741-39.483-22.741"/>
	<path fill="none" stroke="#000000" stroke-width="8.9155" stroke-linecap="round" stroke-linejoin="round" d="M676.432,414.537
		c0,0,36.682,26.72-26.729,26.72"/>
	<path fill="none" stroke="#000000" stroke-width="8.9155" stroke-linecap="round" stroke-linejoin="round" d="M609.43,409.76
		c0,0,9.576,13.563,1.584,28.705c-7.976,15.161-35.1-11.957-35.1-11.957"/>
	<path fill="none" stroke="#000000" stroke-width="8.9155" stroke-linecap="round" stroke-linejoin="round" d="M527.263,415.339
		c0,0,24.726,18.348-11.963,18.348c0,0,11.963,8.767,11.963,12.762c0,3.986-23.135,25.532-63.029,0"/>
	<polyline fill="none" stroke="#000000" stroke-width="8.9155" stroke-linecap="round" stroke-linejoin="round" points="
		457.857,394.592 477.394,375.057 494.556,394.592 	"/>
	<polyline fill="none" stroke="#000000" stroke-width="8.9155" stroke-linecap="round" stroke-linejoin="round" points="
		346.471,387.152 366.011,367.608 383.167,387.152 	"/>
	<path fill="none" stroke="#000000" stroke-width="8.9155" stroke-linecap="round" stroke-linejoin="round" d="M405.209,420.123
		c0,0-21.536-2.396-21.536,9.575c0,11.957,15.943,11.957,15.943,11.957s-22.328,19.148-33.494-4.787l-0.402-39.923l0.402,39.923
		c0,0-11.165,8.781-22.343,8.781c-11.165,0-5.58-5.585-5.58-5.585l-1.831,10.93l5.271-0.308l-3.438-7.682
		c0,0-17.533,2.658-23.516-0.53c-5.981-3.182-3.607-44.291-3.607-44.291"/>
	<path fill="none" stroke="#000000" stroke-width="8.9155" stroke-linecap="round" d="M536.427,393.001
		c0,1.979-1.601,3.585-3.585,3.585c-1.979,0-3.59-1.605-3.59-3.585c0-1.979,1.61-3.594,3.59-3.594
		C534.827,389.407,536.427,391.023,536.427,393.001z"/>
	<path fill="none" stroke="#000000" stroke-width="8.9155" stroke-linecap="round" d="M672.444,394.592
		c0,2.206-1.788,3.985-3.989,3.985c-2.196,0-3.985-1.779-3.985-3.985c0-2.199,1.789-3.981,3.985-3.981
		C670.656,390.611,672.444,392.394,672.444,394.592z"/>
	<path fill="none" stroke="#000000" stroke-width="8.9155" stroke-linecap="round" d="M611.014,386.625
		c0,2.198-1.789,3.985-3.987,3.985c-2.199,0-3.987-1.787-3.987-3.985c0-2.214,1.788-3.996,3.987-3.996
		C609.225,382.628,611.014,384.41,611.014,386.625z"/>
</g>
</svg>
