<?xml version="1.0" encoding="utf-8"?>
<!-- Generator: Adobe Illustrator 14.0.0, SVG Export Plug-In . SVG Version: 6.00 Build 43363)  -->
<!DOCTYPE svg PUBLIC "-//W3C//DTD SVG 1.1//EN" "http://www.w3.org/Graphics/SVG/1.1/DTD/svg11.dtd">
<svg version="1.1" id="Layer_1" xmlns="http://www.w3.org/2000/svg" xmlns:xlink="http://www.w3.org/1999/xlink" x="0px" y="0px"
	 width="1152px" height="1440px" viewBox="0 0 1152 1440" enable-background="new 0 0 1152 1440" xml:space="preserve">
<g>
	<path fill="#015F2B" stroke="#000000" stroke-width="4.0691" d="M590.013,1409.093c0,0,509.157-224.725,545.78-780.723
		c27.563-452.134-8.11-492.736-8.11-492.736S1044.467,32.435,578.348,32.435c-477.078,0-565.974,111.323-565.974,111.323
		s-11.86,298.183,1.45,524.571C26.581,885.269,167.18,1242.617,590.013,1409.093z"/>
	<path fill="#FFFFFF" d="M129.612,425.11l-82.557,0.563l-0.044-6.306c10.85-2.232,19.984-9.337,27.371-21.315
		c6.834-11.062,10.258-22.504,10.295-34.315l13.951-7.936c0.021,3.758,0.043,6.492,0.048,8.2c0.045,6.033,1.35,12.566,3.923,19.612
		c3.27,8.854,7.314,13.273,12.132,13.237c3.086-0.022,6.678-2.104,10.783-6.224c-4.325-0.09-8.284-3.694-11.867-10.849
		c-3.007-6.248-4.522-11.808-4.56-16.699c-0.037-3.87,0.851-7.302,2.645-10.271c2.009-3.42,4.832-5.151,8.462-5.181
		c3.839-0.022,7.123,1.26,9.857,3.858c2.735,2.585,4.121,5.81,4.141,9.666c0.025,3.066-1.2,5.06-3.656,5.99
		c-1.129,0.454-3.599,0.755-7.41,0.896l0.012,2.895c-0.411,6.465,2.574,9.69,8.95,9.637c1.797-0.005,3.974-0.225,6.548-0.642
		c-2.11,6.648-5.255,12.388-9.42,17.218c-5.19,5.757-10.792,8.651-16.808,8.694c-8.637,0.051-15.607-6.59-20.915-19.947
		c-5.828,12.889-13.137,23.349-21.934,31.375l67.894-0.468l0.157,21.895l-7.903,0.052L129.612,425.11z"/>
	<path fill="#FFFFFF" d="M40.406,401.248c-0.24-7.36-2.126-10.98-5.644-10.864c-1.986,0.073-2.91,2.114-2.78,6.145
		c0.213,6.09,2.515,10.797,6.921,14.095C40.056,408.522,40.561,405.391,40.406,401.248 M13.745,431.114l19.977-15.873
		c-5.184-4.258-7.91-10.018-8.152-17.306c-0.125-3.745,0.705-7.308,2.5-10.68c2.014-3.813,4.757-5.793,8.238-5.902
		c3.703-0.124,6.575,1.819,8.628,5.852c1.563,3.024,2.411,6.638,2.55,10.839c0.207,5.688-0.95,10.504-3.451,14.462
		c1.825,2.441,4.157,4.128,6.986,5.06l0.271,7.674c-3.695-1.245-7.111-3.188-10.279-5.812c-5.277,5.306-12.915,13.473-22.905,24.512
		L13.745,431.114z"/>
	<path fill="#FFFFFF" d="M135.513,533.623l-81.847,5.263l-0.38-5.857l7.193-7.556c6.962,0.431,13.92,0.806,20.874,1.112
		c8.213,0.476,15.154,0.528,20.813,0.175c2.493-0.175,4.83-1.882,7.001-5.159c2.177-3.285,3.189-6.231,3.02-8.855
		c-0.308-4.772-4.935-7.617-13.884-8.533l-0.375-5.793c3.844-1.282,6.877-4.331,9.105-9.153c2.14-4.364,3.079-8.71,2.808-13.028
		c-0.256-3.979-1.862-7.535-4.808-10.659c-2.948-3.123-6.429-4.56-10.425-4.301c-6.5,0.417-10.666,4.42-12.47,11.992
		c1.9-0.616,3.064-0.938,3.528-0.959c3.174-0.208,5.886,1.039,8.1,3.737c1.979,2.369,3.079,5.257,3.298,8.646
		c0.206,3.163-0.724,5.971-2.793,8.443c-2.067,2.455-4.734,3.788-8.026,4.001c-4.428,0.288-8.128-1.582-11.128-5.607
		c-2.61-3.483-4.075-7.544-4.362-12.191c-0.499-7.711,1.929-14.361,7.286-19.938c5.359-5.601,11.913-8.635,19.648-9.133
		c6.156-0.391,11.839,1.428,17.079,5.489c5.226,4.047,8.033,9.084,8.422,15.109c0.493,7.602-2.478,15.592-8.892,23.986
		c6.591,1.869,10.094,5.965,10.513,12.329c0.396,6.355-3.46,12.64-11.59,18.862l21.713-1.394l-5.835-90.809l7.902-0.515
		l7.513,116.987l-7.894,0.515L135.513,533.623z"/>
	<path fill="#FFFFFF" d="M146.164,624.991L63.959,635.02l-0.63-6.612l3.621,0.053c9.611-1.168,18.905-5.801,27.899-13.879
		c9.947-8.774,14.36-17.732,13.253-26.874c-0.064-0.571-0.563-2.228-1.473-4.977c-3.246,5.557-6.691,8.556-10.327,8.995
		c-3.418,0.417-6.443-0.698-9.07-3.345c-2.631-2.645-4.147-5.708-4.574-9.198c-0.578-4.72,0.315-8.885,2.689-12.476
		c2.376-3.615,5.88-5.696,10.527-6.252c5.879-0.712,11.047,1.575,15.485,6.881c3.788,4.7,6.053,10.151,6.816,16.362
		c0.785,6.443-0.918,13.533-5.103,21.265c-4.025,7.245-8.942,12.829-14.74,16.751l46.738-5.688l-8.803-72.162l7.896-0.96
		l11.933,97.745l-7.865,1.298L146.164,624.991z"/>
	<polygon fill="#FFFFFF" points="151.779,661.05 71.371,674.128 78.145,661.974 150.028,650.286 147.454,634.492 155.356,633.201 
		162.121,674.846 154.227,676.122 	"/>
	<path fill="#FFFFFF" d="M171.021,765.37c-1.715-6.716-5.674-11.402-11.89-14.046c-1.774,6.907-5.329,12.64-10.652,17.153
		l20.987,15.072C171.901,776.953,172.421,770.882,171.021,765.37 M185.215,812.14l-79.684,20.29c0-3.226,1.971-7.888,5.931-14.016
		c13.165-1.655,26.14-4.105,38.909-7.344c6.386-1.629,10.862-7.492,13.453-17.58c-9.17-6.978-23.318-16.889-42.429-29.703
		l5.365-10.734l11.986,9.02l2.066-0.161c6.063-1.554,9.209-6.746,9.429-15.541l-6.15-4.104l-1.409-17.918
		c9.134,2.375,17.103,6.861,23.933,13.501c6.833,6.631,11.401,14.473,13.694,23.491c1.738,6.814,0.777,15.201-2.873,25.143
		c-3.666,9.967-8.217,17.27-13.678,21.946l26.807-6.817l6.574,25.834l-7.535,1.905L185.215,812.14z"/>
	<path fill="#FFFFFF" d="M110.266,792.259c-1.076-3.489-2.858-8.635-5.379-15.482c-2.506-6.847-4.303-12.022-5.381-15.483
		c-2.588-8.37-2.549-15.656,0.11-21.844c2.785-6.566,8.35-11.143,16.706-13.721c5.271-1.645,8.665-1.38,10.177,0.76l-0.441,4.427
		c-2.5-0.233-4.962,0-7.39,0.749c-11.243,3.506-14.477,13.005-9.668,28.53c0.946,3.036,2.499,7.228,4.675,12.564
		c2.18,5.338,3.565,8.974,4.174,10.938c2.792,9,3.788,14.763,3.013,17.271c0.837,3.079-0.045,6.978-2.633,11.698
		c-2.397,4.194-5.094,7.419-8.099,9.648C113.814,813.897,113.867,803.9,110.266,792.259"/>
	<path fill="#FFFFFF" d="M157.563,860.961c-14.735,5.128-22.637,13.956-23.693,26.507l1.21,2.448
		c1.232-2.714,2.924-4.442,5.081-5.206c2.809-0.968,5.585-0.54,8.34,1.29c2.765,1.833,4.671,4.268,5.72,7.302
		c0.982,2.815,0.771,5.599-0.645,8.329c-1.408,2.728-3.518,4.604-6.319,5.569c-4.003,1.395-7.866,0.734-11.575-1.934
		c-3.109-2.316-5.381-5.558-6.841-9.766c-3.188-9.149-2.359-17.959,2.5-26.477c4.861-8.505,11.893-14.354,21.12-17.565
		c15.336-5.336,31.301-3.886,47.877,4.37l-12.396-35.625l7.544-2.641l24.85,71.4l-7.274,2.535
		c-4.281-11.948-11.464-20.979-21.544-27.063C180.719,857.998,169.393,856.824,157.563,860.961"/>
	<path fill="#FFFFFF" d="M221.888,950.714c-8.325-9.16-17.835-17.518-28.537-25.056c-0.112,15.558-3.526,29.983-10.241,43.25
		L221.888,950.714z M240.207,951.756l-4.662,2.186l0.505,1.085c3.145,6.713,2.968,14.514-0.521,23.457
		c-3.48,8.927-8.575,14.983-15.284,18.122c-4.333,2.022-8.533,2.607-12.579,1.729c-4.515-1.025-7.763-3.652-9.742-7.888
		c-1.262-2.668-1.708-5.541-1.333-8.621c0.365-3.078,1.833-5.204,4.383-6.392c2.456-1.172,4.926-1.217,7.426-0.146
		c2.485,1.068,4.332,2.842,5.506,5.364c1.515,3.225,1.906,6.629,1.151,10.175c1.846-0.352,3.172-0.732,4-1.114
		c4.942-2.316,7.81-6.921,8.606-13.811c0.609-5.939-0.293-11.612-2.689-16.991l-59.07,27.706l-2.697-5.743
		c16.178-17.199,21.507-37.726,15.99-61.532l9.119-10.733c16.396,11.407,31.279,23.707,44.634,36.916l3.555-1.671l-29.131-62.09
		l7.184-3.355l49.928,106.438l-7.181,3.372L240.207,951.756z"/>
	<path fill="#FFFFFF" d="M268.841,1004.463l-68.74,42.254l1.073-15.498l62.984-34.381l-12.428-20.2l7.719-4.751
		c0.417,0.688,1.4,2.551,2.948,5.6c1.546,3.063,2.881,5.511,4.011,7.36c5.432,8.811,10.752,11.611,15.996,8.385
		c-0.866-18.97,3.751-31.579,13.831-37.767c3.585-2.197,7.756-2.698,12.521-1.479c4.281,1.114,7.989,3.238,11.134,6.392
		l-2.677,4.442c-2.33-0.951-4.726-1.938-7.218-2.933c-3.424-1.202-5.717-1.462-6.877-0.763c-2.329,1.438-3.217,4.78-2.659,10.014
		c0.659,8.899,0.96,13.827,0.887,14.809c-0.485,5.732-2.898,9.954-7.251,12.652c-4.371,2.668-10.22,3.047-17.535,1.114l8.928,14.544
		l-7.719,4.749L268.841,1004.463z"/>
	<path fill="#FFFFFF" d="M325.138,1077.503l-63.891,51.607l-5.88-7.302c-0.082-0.087-0.059-0.233,0.045-0.469
		c0.512-0.997,2.5-2.902,5.965-5.688c4.339-3.517,11.01-8.561,20.006-15.13c8.989-6.568,15.607-11.567,19.872-15.014
		c2.031-1.64,3.336-6.979,3.908-15.979c0.558-9.017-0.015-14.572-1.708-16.685c-1.497-1.847-3.747-2.639-6.758-2.376
		c-2.444,0.234-4.793,1.041-7.045,2.421c1.914,4.369,2.669,8.841,2.279,13.429c-0.511,4.984-2.499,8.869-5.952,11.655
		c-2.572,2.082-5.52,2.785-8.849,2.111c-3.334-0.671-6.069-2.346-8.209-5.015c-3.579-4.427-4.391-9.119-2.428-14.075
		c-8.251-0.79-14.021-3.225-17.312-7.313c-1.938-2.391-2.906-5.162-2.889-8.313c0-3.17,1.157-5.659,3.453-7.537
		c7.247-5.836,16.883-5.836,28.917,0.028c0.552-10.526-2.465-20.23-9.046-29.115l6.098-4.929c5.5,7.172,8.87,12.786,10.132,16.863
		c1.442,5.218,1.101,11.729-1.042,19.557c4.267-1.846,8.848-2.316,13.768-1.438c4.912,0.912,8.753,3.052,11.522,6.483
		c2.844,3.517,3.939,8.794,3.309,15.832c-0.175,3.051-1.146,8.693-2.881,16.92l15.211-12.287l16.382,20.276l-6.106,4.927
		L325.138,1077.503z"/>
	<path fill="#FFFFFF" d="M399.141,1138.054l-50.325,64.979l-4.56-3.52l-0.791-10.321c4.84-5.015,9.646-10.087,14.396-15.16
		c5.688-5.925,10.279-11.143,13.754-15.629c1.532-1.995,1.796-4.868,0.789-8.681c-1.017-3.781-2.555-6.479-4.616-8.093
		c-3.767-2.916-8.972-1.306-15.613,4.854l-4.576-3.549c1.598-3.739,1.343-8.049-0.776-12.917c-1.834-4.485-4.456-8.063-7.866-10.703
		c-3.144-2.432-6.869-3.576-11.15-3.432c-4.28,0.149-7.651,1.807-10.099,4.974c-3.996,5.16-3.756,10.921,0.718,17.283
		c0.693-1.918,1.187-3.048,1.464-3.401c1.949-2.521,4.678-3.723,8.179-3.594c3.095,0.091,5.999,1.189,8.705,3.286
		c2.526,1.951,4.03,4.532,4.514,7.713c0.501,3.182-0.278,6.084-2.294,8.692c-2.726,3.52-6.582,5.075-11.581,4.664
		c-4.356-0.352-8.367-1.936-12.06-4.811c-6.122-4.719-9.501-10.966-10.146-18.677c-0.643-7.711,1.416-14.631,6.165-20.775
		c3.776-4.881,8.908-7.932,15.41-9.177c6.492-1.248,12.126-0.03,16.888,3.649c6.019,4.664,10.049,12.17,12.104,22.491
		c5.745-3.694,11.144-3.607,16.162,0.293c5.03,3.899,7.193,10.938,6.48,21.127l13.363-17.257l-71.785-55.609l4.867-6.276
		l92.672,71.799l-4.869,6.272L399.141,1138.054z"/>
	<path fill="#FFFFFF" d="M482.54,1251.676c-14.03-3.841-26.478-14.337-37.349-31.461c-8.819-13.87-15.212-29.47-19.178-46.858
		l6.427-0.908c3.244,5.395,7.347,14.544,12.303,27.473c4.017,10.322,8.078,17.887,12.198,22.669
		c6.247,6.918,15.343,11.993,27.308,15.277c4.82,1.318,9.668,1.685,14.544,1.114c6.362-0.851,10.101-3.344,11.222-7.419
		c0.96-3.519-0.851-7.446-5.424-11.788c-2.903,1.084-5.71,1.262-8.453,0.499c-3.622-0.981-6.599-2.786-8.936-5.425
		c-2.718-2.99-3.613-6.187-2.682-9.589c0.798-2.946,2.732-5.103,5.788-6.451c3.052-1.35,6.037-1.611,8.969-0.821
		c2.163,0.601,4.213,1.847,6.135,3.784c4.103-1.818,6.552-4.164,7.338-7.009c2.155-7.917-1.797-13.254-11.868-16.01
		c-5.866-1.598-11.611-1.877-17.249-0.82c-6.385,1.202-11.318,3.928-14.808,8.166c4.661,2.698,6.346,6.407,5.058,11.129
		c-1.504,5.481-5.424,7.373-11.766,5.629c-3.937-1.085-6.846-3.138-8.715-6.188c-1.877-3.05-2.287-6.479-1.231-10.321
		c2.396-8.783,9.2-14.354,20.415-16.714c9.104-1.979,18.421-1.673,27.928,0.909c6.554,1.803,11.761,5.293,15.63,10.467
		c4.106,5.617,5.294,11.613,3.555,17.976c-1.685,6.144-4.653,10.938-8.922,14.383c6.049,6.965,7.933,14.614,5.653,22.973
		c-1.738,6.364-6.311,10.995-13.713,13.931C495.948,1253.024,489.233,1253.496,482.54,1251.676"/>
	<path fill="#FFFFFF" d="M608.786,1184.823c-6.937,0.439-12.257,3.517-15.979,9.205c6.465,3.036,11.434,7.625,14.923,13.753
		l18.648-18.063C620.311,1186.083,614.445,1184.439,608.786,1184.823 M657.107,1179.429l5.454,82.215
		c-3.107-0.582-7.271-3.386-12.476-8.384c0.572-13.237,0.425-26.418-0.455-39.585c-0.438-6.567-5.365-12.035-14.749-16.418
		c-8.504,7.755-20.73,19.852-36.739,36.298l-9.538-7.239l10.74-10.104l0.205-2.065c-0.412-6.247-4.896-10.292-13.438-12.11
		l-5.116,5.308l-17.719-1.936c3.98-8.621,9.854-15.717,17.616-21.274c7.771-5.555,16.311-8.65,25.607-9.264
		c7.007-0.456,15.087,2.036,24.22,7.504c9.118,5.47,15.481,11.365,19.085,17.653l-1.845-27.915l26.566-1.759l0.526,7.9
		L657.107,1179.429z"/>
	<path fill="#FFFFFF" d="M623.271,1251.367c-3.578,0.689-8.912,1.924-15.979,3.652c-7.082,1.744-12.418,2.963-15.981,3.666
		c-8.604,1.656-15.833,0.864-21.676-2.376c-6.224-3.4-10.145-9.322-11.789-17.77c-1.027-5.334-0.389-8.618,1.916-9.88l4.345,0.88
		c-0.643,2.418-0.732,4.838-0.256,7.256c2.169,11.26,11.262,15.351,27.255,12.241c3.108-0.614,7.478-1.701,13.019-3.253
		c5.558-1.585,9.354-2.583,11.35-2.963c9.294-1.789,15.131-2.154,17.534-1.113c3.165-0.47,6.947,0.836,11.392,3.958
		c3.929,2.891,6.846,5.969,8.753,9.234C645.174,1250.239,635.22,1249.068,623.271,1251.367"/>
	<path fill="#FFFFFF" d="M721.5,1160.368l-31.609,9.572c3.225,1.645,8.033,3.681,14.428,6.145
		c6.391,2.464,10.995,4.398,13.795,5.806l-18.576,23.487c14.163,1.174,27.109,4.808,38.909,10.864L721.5,1160.368z
		 M730.122,1157.728l23.926,78.995l-4.897,1.466c-0.952-0.763-2.71-3.197-5.247-7.3c-4.956-8.122-13.108-13.02-24.456-14.692
		c-9.441-1.29-19.267-0.38-29.526,2.728l-11.173-7.479c7.36-10.203,15.424-19.468,24.19-27.824
		c-10.158-2.742-20.759-3.813-31.786-3.197l-1.333-4.396l-14.718,4.456l-2.288-7.538l86.221-26.123l2.288,7.534L730.122,1157.728z"
		/>
	<path fill="#FFFFFF" d="M731.938,1251.018c-6.771,2.887-9.441,6.024-8.004,9.396c0.791,1.892,3.049,2.053,6.758,0.469
		c5.615-2.404,9.134-6.332,10.557-11.786C738.857,1248.743,735.75,1249.391,731.938,1251.018 M769.589,1265.517l-22.109-13.136
		c-2.024,6.566-6.393,11.273-13.078,14.131c-3.459,1.469-7.082,1.967-10.879,1.482c-4.309-0.515-7.154-2.404-8.531-5.643
		c-1.481-3.491-0.719-6.904,2.287-10.295c2.243-2.578,5.307-4.688,9.177-6.331c5.234-2.229,10.146-2.888,14.749-1.966
		c1.613-2.581,2.374-5.322,2.228-8.254l7.067-3.006c0.177,3.885-0.379,7.801-1.685,11.699c6.847,3.021,17.24,7.242,31.153,12.595
		L769.589,1265.517z"/>
	<path fill="#FFFFFF" d="M795.977,1097.633c-5.044-2.153-13.544-2.448-25.494-0.865c-11.245,1.467-19.676,3.621-25.261,6.452
		c-2.668,1.319-5.966,4.515-9.94,9.559c-4.31,5.6-5.909,9.529-4.78,11.758c1.938,3.842,9.501,7.858,22.683,11.993l16.872-8.49
		l3.608,7.186l-16.861,8.487l37.167,73.98l-16.773-1.069c-6.331-18.518-16.111-41.302-29.365-68.395l-19.75,9.94l-3.608-7.173
		l19.75-9.937c-4.602-1.128-9.265-2.228-13.972-3.298c-6.229-1.848-10.025-4.135-11.421-6.893
		c-2.096-4.163-0.294-10.73,5.368-19.733c5.218-8.355,10.173-13.722,14.866-16.068c7.008-3.549,16.771-5.894,29.293-7.095
		c13.354-1.352,23.236-0.587,29.672,2.314L795.977,1097.633z"/>
	<path fill="#FFFFFF" d="M881.452,1121.136c-2.199,1.788-4.705,2.551-7.538,2.301c-2.841-0.248-5.174-1.48-6.991-3.694
		c-3.095-3.799-2.683-7.317,1.275-10.57c3.341-2.728,6.511-2.289,9.485,1.35c0.864,1.055,1.599,2.375,2.214,3.944
		c1.026-3.228,0.44-6.203-1.833-8.959c-2.184-2.669-4.852-4.236-8.003-4.693c-3.155-0.467-6.042,0.384-8.667,2.523
		c-2.625,2.17-4.249,5.337-4.867,9.56c-0.512,3.665-1.025,7.331-1.524,10.965c7.256,0.559,13.094,3.533,17.507,8.915
		c4.223,5.114,5.1,10.966,2.696,17.521c-1.906,5.556-5.601,10.57-11.054,15.027c-13.255,10.894-29.851,14.059-49.762,9.5
		c-17.387-3.989-32.839-12.259-46.388-24.837l5.719-4.046c16.759,10.557,30.204,16.919,40.348,19.059
		c15.512,3.49,29.453,0.146,41.844-10.025c10.292-8.434,13.192-15.381,8.707-20.849c-1.803-2.199-4.984-3.109-9.544-2.772
		c-0.455,3.386-2.009,6.144-4.634,8.313c-2.726,2.227-5.674,3.459-8.854,3.693c-3.65,0.207-6.566-1.025-8.738-3.663
		c-1.891-2.303-2.52-5.001-1.891-8.095c0.616-3.094,2.052-5.569,4.338-7.446c2.202-1.789,5.016-3.108,8.446-3.929
		c2.316-4.868,2.17-8.886-0.438-12.082c-4.706-5.746-10.642-5.705-17.741,0.145c-9.676,7.918-14.41,17.185-14.25,27.784
		c4.824-1.891,8.752-0.996,11.788,2.713c1.786,2.199,2.404,4.633,1.816,7.329c-0.614,2.698-2.007,4.956-4.223,6.762
		c-3.077,2.533-6.509,3.62-10.276,3.269c-3.769-0.354-6.904-2.082-9.427-5.147c-5.308-6.494-5.627-14.674-0.923-24.526
		c3.678-7.712,9.191-14.588,16.579-20.645c5.895-4.821,11.627-7.419,17.229-7.768c5.996-0.222,11.099,2.242,15.335,7.4
		c1.013,1.218,2.037,2.492,3.123,3.799c0.836-6.07,2.786-10.365,5.821-12.873c4.092-3.342,8.371-4.882,12.857-4.573
		c4.486,0.323,8.416,2.551,11.817,6.686c2.536,3.093,3.707,7.008,3.517,11.757C886.143,1115.006,884.501,1118.614,881.452,1121.136
		 M860.236,1056.861l5.001,6.101l-106.338,87.231l-5.015-6.1L860.236,1056.861z"/>
	<path fill="#FFFFFF" d="M904.558,956.932c-5.454,0.557-13.021,4.398-22.724,11.554c-9.122,6.716-15.438,12.637-18.974,17.796
		c-1.67,2.465-3.036,6.834-4.076,13.151c-1.069,6.994-0.584,11.188,1.468,12.595c3.548,2.435,12.037,2.345,25.479-0.22
		l10.688-15.613l6.468,4.427l-10.704,15.602l68.438,46.767l-15.22,7.157c-14.545-13.094-34.16-28.312-58.864-45.657l-12.418,18.121
		l-6.465-4.425l12.418-18.125c-4.544,1.202-9.119,2.434-13.724,3.739c-6.288,1.35-10.701,1.161-13.238-0.586
		c-3.843-2.625-5.438-9.235-4.794-19.835c0.528-9.825,2.286-16.904,5.235-21.217c4.441-6.464,11.832-13.254,22.211-20.349
		c11.01-7.608,20.027-11.715,27.036-12.299L904.558,956.932z"/>
	<path fill="#FFFFFF" d="M946.43,951.756c-3.988,14.398-4.721,28.224-2.2,41.503c13.108-10.231,27.271-16.976,42.518-20.229
		L946.43,951.756z M937.279,936.846l72.867,38.427l-2.61,4.972c-11.611-1.085-22.77,0.85-33.485,5.835
		c-10.717,4.967-19.234,12.226-25.568,21.754l-17.447,4.313c-1.319-21.318,0.528-43.193,5.544-65.565l-3.461-1.847l-35.099,66.591
		l-7.008-3.695l47.118-89.345l7.008,3.68L937.279,936.846z"/>
	<path fill="#FFFFFF" d="M970.972,849.803l77.174,28.986l-3.28,8.723c-0.046,0.103-0.192,0.191-0.44,0.205
		c-1.115,0.073-3.753-0.69-7.904-2.243c-5.218-1.965-12.929-5.133-23.149-9.5c-10.175-4.369-17.842-7.536-22.941-9.443
		c-2.451-0.922-7.7,0.676-15.763,4.811c-8.034,4.118-12.535,7.448-13.503,9.998c-0.837,2.229-0.367,4.573,1.391,7.067
		c1.453,1.994,3.345,3.605,5.689,4.867c2.787-3.843,6.246-6.729,10.411-8.708c4.573-2.055,8.942-2.303,13.121-0.735
		c3.093,1.174,5.22,3.372,6.317,6.57c1.115,3.225,1.085,6.449-0.116,9.646c-2.007,5.337-5.746,8.385-11.23,9.118
		c3.489,7.536,4.31,13.738,2.462,18.648c-1.068,2.889-2.99,5.132-5.734,6.716c-2.738,1.598-5.495,1.862-8.281,0.82
		c-8.796-3.313-13.723-11.698-14.792-25.157c-9.396,4.852-16.259,12.358-20.568,22.52l-7.185-2.696
		c3.402-8.387,6.553-14.149,9.441-17.302c3.783-3.871,9.646-6.891,17.534-9.003c-3.724-2.727-6.421-6.42-8.136-11.11
		c-1.703-4.691-1.776-9.092-0.221-13.225c1.584-4.253,5.571-7.889,11.936-10.925c2.71-1.391,8.032-3.444,15.978-6.141l-18.501-6.95
		l9.178-24.411l7.17,2.696L970.972,849.803z"/>
	<path fill="#FFFFFF" d="M1031.992,884.33c0.408,4.017,0.849,8.079,1.35,12.139c0.674,5.059,1.744,8.885,3.192,11.466
		c4.225-5.863,10.763-11.437,19.59-16.714l-22.782-7.184L1031.992,884.33z M1043.572,914.474l-14.016,6.654
		c-2.432-10.674-4.016-17.899-4.721-21.697c-1.437-8.21-2.124-15.57-2.082-22.107l4.018-4.838l45.111,14.249
		c-2.537,2.405-6.185,5.131-10.938,8.181c-4.751,3.02-8.134,5.468-10.129,7.347C1047.562,905.413,1045.143,909.489,1043.572,914.474
		"/>
	<path fill="#FFFFFF" d="M975.986,749.142c-5.001,2.213-10.967,8.225-17.945,18.017c-6.539,9.207-10.689,16.831-12.432,22.813
		c-0.821,2.843-0.733,7.417,0.264,13.737c1.173,6.964,2.931,10.776,5.335,11.479c4.135,1.203,12.17-1.541,24.103-8.211l5.192-17.945
		l7.534,2.201l-5.19,17.943l79.668,23.119l-12.213,11.555c-17.914-7.932-41.327-16.259-70.27-24.996l-6.128,21.185l-7.536-2.184
		l6.13-21.171c-3.931,2.58-7.889,5.218-11.876,7.887c-5.571,3.284-9.825,4.486-12.786,3.636c-4.484-1.287-8.076-7.067-10.79-17.329
		c-2.581-9.499-3.138-16.771-1.67-21.803c2.17-7.534,7.082-16.303,14.733-26.286c8.078-10.672,15.38-17.387,21.874-20.13
		L975.986,749.142z"/>
	<path fill="#FFFFFF" d="M1018.212,728.118c-0.087,14.982,2.797,28.573,8.679,40.771c9.998-13.355,21.929-23.618,35.771-30.789
		L1018.212,728.118z M1005.191,716.147l80.417,18.052l-1.247,5.5c-11.377,2.009-21.555,6.817-30.54,14.425
		c-8.987,7.626-15.292,16.877-18.884,27.741l-15.85,8.706c-6.918-20.317-10.906-41.958-11.977-64.947l-3.859-0.864l-16.505,73.597
		l-7.536-1.697l22.124-98.575l7.55,1.686L1005.191,716.147z"/>
	<path fill="#FFFFFF" d="M1012.347,676.547l35.726,5.496c-9.981-18.025-16.668-33.427-20-46.204l9.902-12.727
		c10.084,11.386,25.012,18.605,44.743,21.648c5.629,0.858,12.521,0.006,20.733-2.58l-0.854,6.633
		c-15.362,2.852-30.054,3.196-44.097,1.027c-6.277-0.955-11.657-2.976-16.13-6.024c4.647,17.005,13.227,30.089,25.746,39.238
		l-12.2,10.857l-45.183-6.958l-3.432,22.257l-7.887-1.219l15.379-99.857l7.904,1.228L1012.347,676.547z"/>
	<path fill="#FFFFFF" d="M1024.689,585.5c4.368,3.806,8.197,5.883,11.464,6.238c4.854,0.536,12.066-0.249,21.673-2.337
		c9.586-2.096,16.8-2.873,21.653-2.337c8.226,0.906,14.236,2.929,17.986,6.085c4.073,3.417,6.746,9.125,8.035,17.13l-5.396,2.483
		c-0.762-9.644-3.165-14.696-7.242-15.144c-4.837-0.527-12.066,0.552-21.671,3.248c-9.601,2.697-16.812,3.784-21.666,3.241
		c-6.774-0.741-15.276-4.883-25.525-12.425l-2.744,24.938l-7.887-0.864l5.575-50.616l7.886,0.864L1024.689,585.5z"/>
	<polygon fill="#FFFFFF" points="1028.147,546.803 1109.634,553.834 1100.077,563.862 1027.226,557.564 1025.863,573.363 
		1017.977,572.672 1021.598,530.685 1029.497,531.359 	"/>
	<path fill="#FFFFFF" d="M1034.571,438.458l81.85,3.76l-0.275,5.851l-7.945,6.714c-6.88-1.188-13.738-2.318-20.614-3.396
		c-8.093-1.369-14.983-2.191-20.644-2.448c-2.491-0.125-4.998,1.349-7.534,4.385c-2.508,3.033-3.844,5.863-3.958,8.496
		c-0.221,4.793,4.072,8.154,12.841,10.042l-0.263,5.836c-3.959,0.851-7.306,3.563-10.057,8.136
		c-2.609,4.114-4.004,8.355-4.192,12.695c-0.193,4.004,1.009,7.72,3.573,11.173c2.609,3.438,5.896,5.251,9.883,5.434
		c6.496,0.299,11.056-3.226,13.694-10.58c-1.963,0.434-3.167,0.63-3.635,0.617c-3.17-0.147-5.718-1.679-7.639-4.604
		c-1.701-2.571-2.48-5.557-2.333-8.95c0.145-3.168,1.379-5.857,3.71-8.071c2.316-2.222,5.13-3.255,8.414-3.109
		c4.445,0.214,7.932,2.479,10.455,6.804c2.229,3.746,3.225,7.938,3.021,12.58c-0.351,7.719-3.506,14.058-9.442,19.007
		c-5.923,4.97-12.754,7.266-20.494,6.905c-6.159-0.279-11.598-2.726-16.364-7.353c-4.735-4.616-6.979-9.945-6.697-15.989
		c0.335-7.646,4.146-15.297,11.389-22.966c-6.286-2.579-9.293-7.057-8.999-13.458c0.29-6.379,4.794-12.229,13.515-17.55
		l-21.667-0.981l-4.179,91.169l-7.905-0.358l5.396-117.114l7.89,0.361L1034.571,438.458z"/>
	<path fill="#FFFFFF" d="M1112.218,384.644c0.059,7.221-2.949,10.856-9.047,10.916c-2.404,0.029-4.383-1.07-5.878-3.3
		c-1.527-2.22-2.289-4.588-2.316-7.109c-0.032-2.523,0.849-4.818,2.607-6.907c1.76-2.08,3.902-3.138,6.421-3.151
		c2.303-0.021,4.238,0.961,5.808,2.953C1111.383,380.034,1112.186,382.233,1112.218,384.644 M1034.014,354.229l0.352,37.292
		c5.16-7.226,8.419-11.766,9.766-13.597c3.813-4.936,7.518-9.078,11.127-12.419c3.008,3.848,8.313,12.346,15.936,25.479
		c5.53-15.046,13.577-27.502,24.179-37.355L1034.014,354.229z M1033.93,346.327l82.201-0.792l-0.28,7.905
		c-11.126,2.163-19.763,8.173-25.948,18.03c-5.602,8.82-8.4,19.231-8.4,31.186l-10.66,8.649
		c-6.772-9.338-13.53-20.174-20.231-32.467c-5.365,10.059-9.001,21.216-10.938,33.487l-5.101,0.059l0.146,16.509l-7.886,0.073
		l-0.94-98.631l7.891-0.074L1033.93,346.327z"/>
	<path fill="#FFFFFF" d="M959.918,318.473h15.262l-114.869,521.64c0,0-166.344-20.336-248.888,31.111l-17.166-17.14
		c135.63-52.648,255.278-31.917,255.278-31.917L959.918,318.473z M225.429,318.473h-15.263l114.864,521.64
		c0,0,166.328-20.336,248.893,31.111l17.152-17.14c-135.607-52.648-255.271-31.917-255.271-31.917L225.429,318.473z
		 M553.976,891.982l8.387-8.387c0,0-63.468-47.179-251.292-23.926L193.454,337.064h-16.392l121.253,545.741
		C298.315,882.806,398.826,841.313,553.976,891.982 M887.022,882.806l121.261-545.741h-16.406L874.268,859.67
		c-187.821-23.253-251.291,23.926-251.291,23.926l8.387,8.387C786.508,841.313,887.022,882.806,887.022,882.806 M860.311,840.112
		c-179.892-18.736-248.888,31.111-248.888,31.111l11.554,12.372c86.149-48.646,251.291-23.926,251.291-23.926l119.4-530.561h-20.835
		L860.311,840.112z M325.03,840.112c179.881-18.736,248.893,31.111,248.893,31.111l-11.561,12.372
		C476.206,834.95,311.07,859.67,311.07,859.67L191.671,329.109h20.834L325.03,840.112z"/>
	<path fill="none" stroke="#000000" stroke-width="4.7853" d="M959.918,318.473h15.262l-114.869,521.64
		c0,0-166.344-20.336-248.888,31.111l-17.166-17.14c135.63-52.648,255.278-31.917,255.278-31.917L959.918,318.473z M225.429,318.473
		h-15.263l114.864,521.64c0,0,166.328-20.336,248.893,31.111l17.152-17.14c-135.607-52.648-255.271-31.917-255.271-31.917
		L225.429,318.473z M553.976,891.982l8.387-8.387c0,0-63.468-47.179-251.292-23.926L193.454,337.064h-16.392l121.253,545.741
		C298.315,882.806,398.826,841.313,553.976,891.982z M887.022,882.806l121.261-545.741h-16.406L874.268,859.67
		c-187.821-23.253-251.291,23.926-251.291,23.926l8.387,8.387C786.508,841.313,887.022,882.806,887.022,882.806z M860.311,840.112
		c-179.892-18.736-248.888,31.111-248.888,31.111l11.554,12.372c86.149-48.646,251.291-23.926,251.291-23.926l119.4-530.561h-20.835
		L860.311,840.112z M325.03,840.112c179.881-18.736,248.893,31.111,248.893,31.111l-11.561,12.372
		C476.206,834.95,311.07,859.67,311.07,859.67L191.671,329.109h20.834L325.03,840.112z"/>
	<path fill="none" stroke="#F7F619" stroke-width="9.5726" d="M594.257,65.943v212.189 M533.632,72.321l63.819,198.636
		l62.281-193.85 M487.37,91.469l110.081,179.489l119.666-168.325 M447.639,124.808l149.812,146.15L757.01,139.331 M417.115,169.678
		l180.336,101.28l186.68-88.561 M398.025,218.998l197.039,51.959l201.823-43.881 M391.648,270.958h410.017"/>
	<path fill="#FFFFFF" d="M739.445,270.958c0,79.74-64.627,144.381-144.382,144.381c-79.744,0-144.39-64.641-144.39-144.381
		c0-79.743,64.646-144.398,144.39-144.398C674.818,126.559,739.445,191.214,739.445,270.958"/>
	<path fill="none" stroke="#BE0B29" stroke-width="9.5726" d="M563.512,307.287c4.605,39.444,29.161,68.166,29.161,68.166
		s42.914-43.25,11.158-120.457c-5.295-15.297-13.554-49.474-17.544-66.209C573.299,247.595,560.037,277.7,563.512,307.287z"/>
	<path fill="#FFFFFF" d="M594.257,854.084c135.63-52.648,255.278-31.917,255.278-31.917l113.256-516.919
		c0,0-237.698-51.042-370.118,70.205c-132.425-121.246-370.148-70.205-370.148-70.205l113.281,516.919
		c0,0,119.663-20.731,255.271,31.917H594.257z"/>
	<path fill="none" stroke="#000000" stroke-width="4.7853" d="M594.257,854.084c135.63-52.648,255.278-31.917,255.278-31.917
		l113.256-516.919c0,0-237.698-51.042-370.118,70.205c-132.425-121.246-370.148-70.205-370.148-70.205l113.281,516.919
		c0,0,119.663-20.731,255.271,31.917H594.257z"/>
	<path d="M539.307,535.478c-3.945-2.638-8.065-3.958-12.33-3.958c-8.987,0-15.182,2.396-18.583,7.183h0.82
		c3.292-0.087,5.917,0.763,7.896,2.539c1.966,1.767,2.955,3.862,2.955,6.236c0,0.47-0.051,0.969-0.162,1.512L539.307,535.478z
		 M576.619,530.084h-13.283v58.327c-1.51-0.769-4.448-2.749-8.798-5.974l1.087-29.66c0-1.298-1.144-3.275-3.43-5.925
		c-2.293-2.637-4.245-4.345-5.88-5.106l-27.613,19.667l-12.279-3.13c1.884-1.237,3.797-2.574,5.734-3.996
		c1.933-1.435,2.901-2.961,2.901-4.59c0-3.862-1.591-5.796-4.787-5.796c-1.313,0-3.219,0.388-5.687,1.155
		c-2.48,0.771-4.43,1.151-5.866,1.151c-1.422,0-2.83-0.505-4.208-1.543c-1.386-1.037-2.059-2.076-2.059-3.155
		c0-0.843,0.49-1.87,1.473-3.092c7.125-8.789,17.154-13.183,30.083-13.183c8.445,0,16.172,2.568,23.196,7.694
		c6.684,4.895,10.57,10.361,11.669,16.404c-2.411-10.307-3.606-21.566-3.606-33.794l4.36,2.303l0.485,0.569
		c0.323,3.918,3.167,5.83,8.496,5.749L576.619,530.084z"/>
	<path d="M565.505,593.616l-10.849-12.631c-2.419-2.778-9.435-4.17-21.054-4.17c-2.74,0-6.274,0.082-10.6,0.228
		c-4.332,0.161-6.984,0.233-7.976,0.233c-7.235,0-13.428-1.633-18.575-4.897c-5.146-3.268-7.725-7.396-7.725-12.388
		c0-3.841,0.321-6.979,0.98-9.449l4.604,3.241c-0.498,0.77-0.746,1.648-0.746,2.646c0,6.465,6.251,10.285,18.721,11.436
		c22.234,2.083,33.778,3.233,34.659,3.467C559.312,574.565,565.505,581.991,565.505,593.616"/>
	<path d="M662.649,555.123c0,6.854-2.9,12.638-8.723,17.342c-6.144,5.009-13.973,7.516-23.531,7.516
		c-13.487,0-24.674-5.353-33.558-16.032c-4.182-5.072-9.441-14.565-15.798-28.486l5.263,1.158c3.731,9.164,8.892,16.68,15.46,22.529
		c8.548,7.542,18.605,11.318,30.1,11.318c5.601,0,10.79-1.533,15.556-4.589c4.765-3.057,7.154-6.553,7.154-10.505
		c0-1.312-0.381-2.896-1.158-4.756c-0.981-2.324-2.126-3.476-3.461-3.476l-0.483,0.107c-3.62,3.244-7.229,5.521-10.849,6.834
		c-3.945,1.473-8.724,2.206-14.296,2.206c-5.159,0-9.501-1.04-12.989-3.123c-3.839-2.236-5.763-5.123-5.763-8.671
		c0-2.786,1.219-4.977,3.624-6.599c2.402-1.619,5.644-2.433,9.705-2.433c2.741,0,5.159,0.674,7.228,2.017
		c2.097,1.348,3.137,2.983,3.137,4.91c0,1.539-1.158,3.461-3.504,5.77l0.323,0.236c2.844-0.082,6.362-1.665,10.541-4.729
		c3.841-2.773,6.377-5.27,7.58-7.5l0.498-0.234c3.284,0.08,7.185,2.735,11.685,7.967C660.57,548.842,662.649,552.58,662.649,555.123
		 M667.517,530.083h-89.277l-8.387-5.925h89.104L667.517,530.083z"/>
	<path d="M614.167,589.847c-1.861,0-3.535,0.346-5.03,1.021c-1.465,0.68-2.214,1.625-2.214,2.836c0,1.737,1.482,2.601,4.442,2.601
		c2.199,0,4.429-0.417,6.687-1.239c2.261-0.834,3.811-1.892,4.693-3.182C622.745,590.53,619.883,589.847,614.167,589.847
		 M654.967,612.463c-2.638-3.387-6.186-6.679-10.673-9.91c-4.838-3.388-9.545-5.88-14.146-7.5
		c-4.164,4.669-9.706,7.001-16.612,7.001c-3.519,0-6.627-0.695-9.368-2.082c-3.064-1.541-4.604-3.514-4.604-5.902
		c0-2.69,1.598-4.911,4.764-6.641c3.197-1.737,6.746-2.611,10.703-2.611c2.729,0,6.452,0.916,11.173,2.735l1.319-0.689
		c0-2.141-0.234-4.164-0.676-6.085l0.676-2.05c2.287,1.144,3.781,2.866,4.429,5.176c0.232,0.76,0.38,2.844,0.497,6.214
		c10.968,4.838,17.536,9.297,19.734,13.366c2.081,1.375,3.122,3.299,3.122,5.751C655.305,610.008,655.188,611.077,654.967,612.463"
		/>
	<path d="M711.749,573.758c0,3.788-2.478,5.681-7.402,5.681c-2.536,0-4.589-0.617-6.188-1.856c-1.584-1.231-2.375-2.777-2.375-4.646
		c0-1.392,0.791-2.566,2.375-3.533c1.599-0.959,3.373-1.452,5.35-1.452C709.009,567.952,711.749,569.888,711.749,573.758
		 M704.844,564.22l-3.284-2.3c-1.523-5.541-3.047-11.114-4.588-16.729c-1.627-6.449-2.448-12.073-2.448-16.838
		c0-5.307,2.55-7.961,7.683-7.961c2.521,0,4.486,1.231,5.922,3.692c0.97,1.762,1.467,3.727,1.467,5.882
		c0,4.619-0.615,10.335-1.802,17.182C706.81,552.853,705.826,558.54,704.844,564.22"/>
	<path d="M541.704,630.599h-14.052v59.045l-3.13-1.735c-2.531-7.337-8.394-14.903-17.609-22.702
		c-5.153,5.644-11.794,8.465-19.91,8.465c-11.091,0-21.077-4.933-29.953-14.807c-7.021-7.792-11.736-16.324-14.154-25.577
		l5.102,1.51c4.816,9.282,9.038,15.694,12.646,19.251c6.471,6.501,14.749,9.756,24.827,9.756c4.267,0,7.939-0.915,11.017-2.718
		c3.058-1.802,4.591-4.172,4.591-7.088c0-2.075-0.705-4.283-2.127-6.582c-1.649-2.844-3.722-4.229-6.238-4.15
		c-1.861,4.001-5.587,5.995-11.157,5.995c-3.283,0-6.294-0.746-9.029-2.25c-2.743-1.501-4.112-3.423-4.112-5.74
		c0-2.622,1.757-4.663,5.262-6.136c2.85-1.231,6.305-1.848,10.357-1.848c7.235,0,13.614,2.143,19.165,6.415
		c5.525,4.282,8.296,9.043,8.296,14.279c0,1.079-0.183,2.129-0.526,3.123l8.43,11.335v-37.841h-78.474l-8.226-5.925h100.626
		L541.704,630.599z"/>
	<path d="M577.507,630.416h-14.911v60.661l-7.719-6.006v-43.313c0-3.469-1.715-6.291-5.139-8.491c-3.428-2.2-7.63-3.146-12.607-2.83
		l-8.459-5.776c2.411-0.226,4.712-0.338,6.905-0.338c7.125,0,12.278,1.417,15.458,4.269c1.98,1.611,4.275,5.276,6.905,10.973
		c-2.037-7.236-3.063-15.672-3.063-25.305l3.093,1.854c0.619,2.39,1.019,3.936,1.233,4.626c0.718,1.31,1.847,2.625,3.394,3.935
		h6.716L577.507,630.416z"/>
	<path d="M633.708,670.739V630.6h-38.38c8.019,4.551,13.618,8.289,16.801,11.221c5.042,4.553,7.58,9.45,7.58,14.691v2.669
		C623.006,661.57,627.668,665.428,633.708,670.739 M656.01,630.6h-14.589v59.045l-3.429-2.661
		c-4.254-11.355-11.614-18.274-22.054-20.736v0.218c-0.114,1.146-2.008,2.296-5.688,3.469c-3.68,1.188-6.509,1.76-8.473,1.76
		c-3.96,0-7.258-0.881-9.896-2.654c-2.632-1.78-3.945-4.063-3.945-6.832c0-3.242,1.708-5.792,5.118-7.64
		c2.977-1.628,6.89-2.434,11.742-2.434c3.301,0,5.336,0.388,6.1,1.167c0-4.459-1.467-7.729-4.427-9.81
		c-1.878-1.304-5.454-2.5-10.73-3.584c-5.822-1.225-10.053-2.454-12.69-3.687c-2.089-1.003-4.562-2.844-7.428-5.548
		c-3.18-2.993-5.599-5-7.249-5.998h79.236L656.01,630.6z"/>
	<path d="M691.605,630.416h-14.911v60.661l-7.711-6.006v-43.313c0-3.469-1.73-6.291-5.16-8.491c-3.431-2.2-7.624-3.146-12.596-2.83
		l-8.459-5.776c2.405-0.226,4.706-0.338,6.906-0.338c7.125,0,12.271,1.417,15.468,4.269c1.965,1.611,4.252,5.276,6.89,10.973
		c-2.038-7.236-3.049-15.672-3.049-25.305l3.08,1.854c0.615,2.39,1.024,3.936,1.23,4.626c0.72,1.31,1.849,2.625,3.4,3.935h6.718
		L691.605,630.416z"/>
	<path d="M744.033,674.905v-44.307h-29.835c5.162,2.227,11.729,6.714,19.733,13.466c-4.502,2.992-11.024,7.63-19.572,13.927
		C727.263,661.129,737.143,666.775,744.033,674.905 M719.857,686.053c-2.42,0-4.561-0.606-6.422-1.831
		c-1.861-1.239-2.786-2.701-2.786-4.376c0-1.622,0.794-3.022,2.375-4.21c1.585-1.186,3.534-1.78,5.835-1.78
		c2.404,0,4.547,0.595,6.408,1.78c1.862,1.188,2.799,2.625,2.799,4.32c0,1.619-0.804,3.028-2.374,4.267
		C724.081,685.446,722.144,686.053,719.857,686.053 M766.654,630.599H752.29v59.399c-3.404-2.523-7.272-6.452-11.655-11.764
		c-3.74-4.311-7.229-7.273-10.513-8.893c-5.045-2.455-12.435-3.878-22.183-4.275l-10.997-9.8
		c8.327-5.859,16.449-10.776,24.321-14.778c-3.399-2.382-8.648-3.922-15.773-4.62c-5.043-0.462-9.325-1.845-12.813-4.149
		c-3.519-2.307-6.92-4.655-10.205-7.043h76.296L766.654,630.599z"/>
	<path d="M463.641,767.657c0-1.655-1.423-3.547-4.281-5.688c-2.735,1.319-5.585,1.995-8.533,1.995c-5.272,0-7.903-1.63-7.903-4.869
		c0-1.935,0.873-3.604,2.611-5.027c1.744-1.422,3.922-2.143,6.537-2.143c2.289,0,4.252,0.836,5.888,2.508
		c3.38-2.184,5.066-4.046,5.066-5.629c0-1.409-1.43-2.639-4.266-3.754c-2.411-0.924-4.708-1.408-6.891-1.408
		c-2.963,0-7.289,1.556-12.977,4.634c-5.687,3.079-8.531,5.63-8.531,7.623c0,4.238,2.359,8.226,7.083,11.968
		c4.726,3.719,10.049,5.599,15.979,5.599c2.529,0,4.867-0.53,7.015-1.586C462.579,770.811,463.641,769.415,463.641,767.657
		 M418.265,749.142c-1.328-1.38-4.829-5.44-10.555-12.184c-2.641,0-5.448,1.613-8.4,4.824c-2.757,2.916-4.128,5.378-4.128,7.359
		c0,3.532,2.25,5.291,6.766,5.291C406.669,754.433,412.107,752.674,418.265,749.142 M478.279,731.106h-60.673
		c-0.332,0.749-0.493,1.746-0.493,2.979c0,2.287,0.99,5.217,2.955,8.81c2.301,4.12,4.714,6.203,7.229,6.203
		c0.871,0,2.624-0.939,5.255-2.758c3.503-2.435,6.294-4.133,8.372-5.132c3.943-1.833,7.777-2.74,11.501-2.74
		c5.146,0,9.632,1.099,13.465,3.284c3.836,2.184,5.741,5.059,5.741,8.577c0,3.386-2.683,6.39-8.073,9.001
		c4.43,5.146,6.645,8.913,6.645,11.289c0,2.846-1.813,5.073-5.426,6.685c-3.182,1.393-6.905,2.084-11.174,2.084
		c-9.975,0-17.709-4.442-23.186-13.328c-2.073,8.886-9.198,13.328-21.367,13.328c-13.7,0-23.838-4.987-30.412-14.955
		c-2.954-4.634-6.307-13.841-10.029-27.59l6.081,2.195c1.958,8.356,3.88,14.104,5.742,17.285c3.166,5.484,8.531,9.971,16.088,13.446
		c3.506,1.627,6.402,2.434,8.703,2.434c4.384,0,8.68-1.041,12.889-3.138c4.219-2.112,6.323-4.633,6.323-7.58
		c0-1.556-0.703-3.035-2.081-4.442l-0.637-0.234l1.479,0.234c-1.86,0.924-4.661,1.832-8.393,2.712
		c-3.729,0.895-6.692,1.319-8.885,1.319c-5.819,0-10.284-1.158-13.414-3.504c-3.131-2.317-4.684-5.572-4.684-9.705
		c0-2.831,1.231-5.952,3.702-9.354c2.478-3.401,5.359-5.863,8.659-7.405h-33.378l-8.064-5.923h111.484L478.279,731.106z"/>
	<path d="M514.859,730.915h-14.904v60.668l-7.725-6.011v-43.308c0-3.459-1.715-6.291-5.137-8.488
		c-3.432-2.186-7.632-3.137-12.611-2.831l-8.459-5.776c2.421-0.232,4.714-0.352,6.905-0.352c7.127,0,12.278,1.437,15.46,4.282
		c1.972,1.611,4.273,5.277,6.915,10.965c-2.048-7.226-3.073-15.656-3.073-25.291l3.086,1.849c0.616,2.391,1.033,3.944,1.231,4.619
		c0.725,1.317,1.845,2.639,3.407,3.942h6.715L514.859,730.915z"/>
	<path d="M590.746,731.106h-14.303v60.127l-3.057-2.889v-2.873c0.442-6.452-2.295-13.563-8.195-21.304
		c-6.671-8.768-14.318-13.137-22.952-13.137l-2.141,0.353c3.532,3.446,5.292,6.142,5.292,8.063c0,5.16-3.717,7.741-11.157,7.741
		c-10.387,0-15.585-3.549-15.585-10.645c0-3.783,1.943-6.949,5.83-9.545c3.875-2.579,8.553-3.868,14.022-3.868
		c11.371,0,21.259,6.229,29.69,18.663v-30.688h-56.042l-8.212-5.923h78.262L590.746,731.106z"/>
	<path d="M715.12,731.106h-62.557v24.206c5.923-3.151,11.802-6.305,17.622-9.472c6.92-3.533,13.342-6.155,19.264-7.857l14.324,7.535
		c-7.348,9.941-11.01,19.059-11.01,27.372c0,3.77,0.998,9.589,2.961,17.431l-5.673-1.947c-3.328-10.791-5.001-18.841-5.001-24.146
		c0-4.399,0.924-9.294,2.787-14.678c-7.462,1.834-14.118,4.766-19.983,8.769c-5.863,4.002-10.219,8.546-13.063,13.62l-11.023-7.932
		v-32.9h-9.384l-8.386-5.923h80.724L715.12,731.106z"/>
	<path d="M751.115,730.915H736.22v60.668l-7.711-6.011v-43.308c0-3.459-1.731-6.291-5.162-8.488
		c-3.432-2.186-7.626-3.137-12.609-2.831l-8.443-5.776c2.403-0.232,4.707-0.352,6.892-0.352c7.138,0,12.285,1.437,15.466,4.282
		c1.965,1.611,4.268,5.277,6.904,10.965c-2.036-7.226-3.047-15.656-3.047-25.291l3.077,1.849c0.615,2.391,1.025,3.944,1.231,4.619
		c0.706,1.317,1.849,2.639,3.402,3.942h6.714L751.115,730.915z"/>
	<path d="M810.799,727.69c5.468,0,10.221,1.115,14.208,3.314c4.019,2.184,6.011,5.162,6.011,8.943c0,6.628-2.11,11.521-6.291,14.69
		c4.795,4.31,7.185,8.254,7.185,11.803c0,5.233-2.229,9.308-6.656,12.211c-4.44,2.875-10.365,4.328-17.813,4.328
		c-22.227,0-39.849-16.73-52.896-50.186l5.585,2.097c6.79,11.873,12.358,20.172,16.744,24.879
		c8.869,9.484,18.928,14.221,30.188,14.221c4.807,0,8.972-0.88,12.461-2.669c3.944-2.024,5.923-4.647,5.923-7.903
		c0-2.007-1.643-3.868-4.911-5.571c-2.185,1.556-4.707,2.332-7.535,2.332c-2.949,0-5.38-0.644-7.301-1.905
		c-1.922-1.274-2.876-2.962-2.876-5.044c0-1.934,0.954-3.636,2.831-5.16c1.891-1.494,4.223-2.26,6.994-2.26
		c2.536,0,4.822,0.441,6.817,1.307c3.987-1.377,5.98-3.665,5.98-6.877c0-4.413-3.372-6.626-10.085-6.626
		c-4.416,0-8.946,0.79-13.563,2.359c-4.618,1.57-8.108,3.623-10.426,6.13c3.447,1.538,5.178,3.869,5.178,6.994
		c0,3.312-2.802,4.953-8.402,4.953c-7.684,0-11.521-2.856-11.521-8.562c0-5.072,3.985-9.441,11.99-13.048
		C795.743,729.276,803.131,727.69,810.799,727.69"/>
	<path fill="none" stroke="#BE0B29" stroke-width="9.5726" d="M589.476,280.522c0,0-7.645,26.999,0,58.233
		C597.115,369.985,589.476,280.522,589.476,280.522z"/>
	<path fill="none" stroke="#000000" stroke-width="7.18" d="M776.156,459.607c0,1.986-1.628,3.584-3.604,3.584
		c-1.968,0-3.581-1.598-3.581-3.584c0-1.974,1.613-3.585,3.581-3.585C774.528,456.022,776.156,457.634,776.156,459.607z"/>
	<path fill="none" stroke="#000000" stroke-width="8.9155" stroke-linecap="round" d="M875.06,420.924
		c0,0,39.088,24.726-31.901,43.872"/>
	
		<line fill="none" stroke="#000000" stroke-width="8.9155" stroke-linecap="round" x1="507.294" y1="486.973" x2="540.804" y2="468.631"/>
	
		<line fill="none" stroke="#000000" stroke-width="8.9155" stroke-linecap="round" x1="641.465" y1="486.973" x2="674.965" y2="468.631"/>
	
		<line fill="none" stroke="#000000" stroke-width="8.9155" stroke-linecap="round" x1="749.444" y1="495.483" x2="782.959" y2="477.135"/>
	
		<line fill="none" stroke="#000000" stroke-width="8.9155" stroke-linecap="round" x1="850.43" y1="394.504" x2="883.93" y2="376.163"/>
	
		<line fill="none" stroke="#000000" stroke-width="8.9155" stroke-linecap="round" x1="373.013" y1="480.037" x2="406.523" y2="461.687"/>
	
		<line fill="none" stroke="#000000" stroke-width="8.9155" stroke-linecap="round" x1="297.084" y1="386.749" x2="330.593" y2="368.409"/>
	<path fill="none" stroke="#000000" stroke-width="8.9155" stroke-linecap="round" stroke-linejoin="round" d="M741.044,374.652
		c0,0,7.609,29.53,18.353,0c10.367,30.319,16.76,0,16.76,0"/>
	<path fill="none" stroke="#000000" stroke-width="8.9155" stroke-linecap="round" stroke-linejoin="round" d="M800.874,418.526
		c0,0,31.903,20.739-30.317,20.739c-62.224,0-39.483-22.741-39.483-22.741"/>
	<path fill="none" stroke="#000000" stroke-width="8.9155" stroke-linecap="round" stroke-linejoin="round" d="M676.432,414.538
		c0,0,36.682,26.719-26.728,26.719"/>
	<path fill="none" stroke="#000000" stroke-width="8.9155" stroke-linecap="round" stroke-linejoin="round" d="M609.43,409.76
		c0,0,9.576,13.563,1.584,28.705c-7.975,15.161-35.099-11.957-35.099-11.957"/>
	<path fill="none" stroke="#000000" stroke-width="8.9155" stroke-linecap="round" stroke-linejoin="round" d="M527.263,415.339
		c0,0,24.726,18.348-11.963,18.348c0,0,11.963,8.767,11.963,12.762c0,3.986-23.135,25.532-63.029,0"/>
	<polyline fill="none" stroke="#000000" stroke-width="8.9155" stroke-linecap="round" stroke-linejoin="round" points="
		457.857,394.592 477.394,375.057 494.556,394.592 	"/>
	<polyline fill="none" stroke="#000000" stroke-width="8.9155" stroke-linecap="round" stroke-linejoin="round" points="
		346.471,387.152 366.011,367.608 383.167,387.152 	"/>
	<path fill="none" stroke="#000000" stroke-width="8.9155" stroke-linecap="round" stroke-linejoin="round" d="M405.209,420.124
		c0,0-21.536-2.396-21.536,9.575c0,11.957,15.943,11.957,15.943,11.957s-22.328,19.148-33.494-4.787l-0.403-39.923l0.403,39.923
		c0,0-11.165,8.781-22.343,8.781c-11.165,0-5.58-5.585-5.58-5.585l-1.831,10.93l5.27-0.308l-3.438-7.682
		c0,0-17.533,2.659-23.516-0.53c-5.981-3.182-3.607-44.291-3.607-44.291"/>
	<path fill="none" stroke="#000000" stroke-width="8.9155" stroke-linecap="round" d="M536.426,393.001
		c0,1.98-1.6,3.585-3.585,3.585c-1.979,0-3.59-1.605-3.59-3.585c0-1.978,1.611-3.593,3.59-3.593
		C534.827,389.408,536.426,391.023,536.426,393.001z"/>
	<path fill="none" stroke="#000000" stroke-width="8.9155" stroke-linecap="round" d="M672.444,394.592
		c0,2.206-1.788,3.986-3.989,3.986c-2.197,0-3.986-1.78-3.986-3.986c0-2.199,1.789-3.981,3.986-3.981
		C670.656,390.611,672.444,392.394,672.444,394.592z"/>
	<path fill="none" stroke="#000000" stroke-width="8.9155" stroke-linecap="round" d="M611.014,386.625
		c0,2.199-1.789,3.986-3.987,3.986c-2.199,0-3.987-1.787-3.987-3.986c0-2.213,1.788-3.996,3.987-3.996
		C609.225,382.628,611.014,384.411,611.014,386.625z"/>
</g>
</svg>
