<?xml version="1.0" encoding="utf-8"?>
<!-- Generator: Adobe Illustrator 16.0.0, SVG Export Plug-In . SVG Version: 6.00 Build 0)  -->
<!DOCTYPE svg PUBLIC "-//W3C//DTD SVG 1.1//EN" "http://www.w3.org/Graphics/SVG/1.1/DTD/svg11.dtd">
<svg version="1.1"
	 id="svg2" xmlns:dc="http://purl.org/dc/elements/1.1/" xmlns:inkscape="http://www.inkscape.org/namespaces/inkscape" xmlns:sodipodi="http://sodipodi.sourceforge.net/DTD/sodipodi-0.dtd" xmlns:svg="http://www.w3.org/2000/svg" xmlns:rdf="http://www.w3.org/1999/02/22-rdf-syntax-ns#" xmlns:cc="http://creativecommons.org/ns#" inkscape:version="0.48.4 r9939" sodipodi:docname="DFBEagle.svg"
	 xmlns="http://www.w3.org/2000/svg" xmlns:xlink="http://www.w3.org/1999/xlink" x="0px" y="0px" width="707.508px"
	 height="835.113px" viewBox="0 0 707.508 835.113" enable-background="new 0 0 707.508 835.113" xml:space="preserve">
<g>
	<g>
		<path fill="#FFFFFF" d="M19.9,490.203c0-184.079,149.766-333.845,333.844-333.845c184.088,0,333.864,149.766,333.864,333.845
			c0,184.097-149.775,333.853-333.864,333.853C169.667,824.056,19.9,674.3,19.9,490.203z"/>
	</g>
	<g>
		<path fill="#FFFFFF" d="M608.624,490.313c0,140.824-114.025,254.87-254.7,254.87c-140.653,0-254.669-114.046-254.669-254.87
			c0-140.644,114.016-254.689,254.669-254.689C494.598,235.623,608.624,349.669,608.624,490.313z"/>
		<g>
			<path fill="#231F20" d="M206.007,337.45c6.395,5.845,8.063,12.829,1.459,20.033l-3.438,3.726l-21.532-19.734l3.428-3.737
				C192.528,330.545,199.612,331.604,206.007,337.45z M210.273,332.793c-10.741-9.831-21.312-7.274-28.797,0.889l-7.603,8.283
				l30.404,27.877l7.625-8.294C219.166,353.596,220.994,342.625,210.273,332.793z"/>
			<path fill="#231F20" d="M232.735,340.806l-24.14-33.443l21.543-15.557l3.537,4.866l-16.536,11.921l5.965,8.282l9.602-6.934
				l3.497,4.876l-9.592,6.924l7.624,10.571l17.236-12.44l3.537,4.876L232.735,340.806z"/>
			<path fill="#231F20" d="M277.347,314.418c-9.332,4.116-16.845,0.22-21.422-10.192l-9.662-21.872l5.655-2.498l9.582,21.711
				c3.138,7.124,7.793,9.632,13.46,7.154c5.934-2.617,7.104-7.534,4.066-14.438l-9.741-22.092l5.635-2.497l9.722,21.981
				C289.298,302.248,286.74,310.272,277.347,314.418z"/>
			<path fill="#231F20" d="M310.241,266.718l7.223,34.431l-6.045,1.269l-7.234-34.421l-11.76,2.468l-1.249-5.945l29.596-6.204
				l1.239,5.935L310.241,266.718z"/>
			<path fill="#231F20" d="M349.169,298.461c-5.996,0.1-11.241-2.398-14.778-6.395l4.327-4.386
				c2.828,2.967,6.925,4.766,10.821,4.696c5.764-0.1,8.502-2.158,8.432-6.165c-0.059-3.178-2.508-4.746-9.441-6.665
				c-8.773-2.428-13.009-4.526-13.129-11.911c-0.13-7.114,5.795-11.58,13.389-11.729c5.615-0.099,9.882,1.889,13.609,5.346
				l-4.268,4.516c-2.668-2.608-5.635-3.856-9.691-3.787c-4.816,0.09-6.846,2.488-6.795,5.256c0.05,2.887,1.979,4.256,9.121,6.255
				c8.175,2.328,13.291,4.826,13.439,12.18C364.336,293.106,359.719,298.251,349.169,298.461z"/>
			<path fill="#231F20" d="M389.305,301.818c-10.49-1.938-15.566-11.8-13.289-24.089c2.268-12.28,10.502-19.684,20.992-17.746
				c6.605,1.219,10.521,4.696,12.4,10.121l-6.004,2.369c-1.49-3.687-3.338-5.636-7.516-6.415
				c-7.063-1.298-11.939,3.727-13.627,12.82c-1.68,9.112,1.088,15.557,8.152,16.855c4.246,0.78,7.164-0.489,9.861-3.397l4.416,4.286
				C400.866,301.079,395.45,302.948,389.305,301.818z"/>
			<path fill="#231F20" d="M435.688,316.297l7.154-16.936l-17.477-7.393l-7.164,16.935l-5.695-2.418l16.066-37.968l5.715,2.397
				l-6.514,15.368l17.475,7.393l6.504-15.357l5.695,2.407l-16.076,37.989L435.688,316.297z"/>
			<path fill="#231F20" d="M451.145,324.48l23.67-33.782l21.762,15.238l-3.447,4.936l-16.697-11.7l-5.844,8.343l9.691,6.804
				l-3.447,4.926l-9.701-6.805l-7.475,10.661l17.436,12.21l-3.467,4.916L451.145,324.48z"/>
			<path fill="#231F20" d="M518.999,345.073c-3.268,3.057-6.785,2.408-9.611-0.589l-8.225-8.793l9.674-9.063l8.223,8.774
				C521.917,338.458,522.135,342.136,518.999,345.073z M523.393,349.499c6.195-5.795,4.838-12.84-0.068-18.085l-12.381-13.199
				l-30.084,28.227l4.137,4.416l11.92-11.171l6.365,6.805l-6.307,17.145l4.887,5.196l6.523-17.675
				C513.233,354.265,518.579,354.015,523.393,349.499z"/>
			<path fill="#231F20" d="M173.084,577.061l-9.602,4.896l5.396,10.562l-5.405,2.758l-5.396-10.562l-16.316,8.354l-2.818-5.506
				l36.729-18.775l12.091,23.65l-5.396,2.768L173.084,577.061z"/>
			<path fill="#231F20" d="M167.779,636.021c-6.295-8.023-4.367-16.275,4.586-23.28l18.855-14.737l3.816,4.875l-18.715,14.638
				c-6.125,4.776-7.424,9.912-3.607,14.777c3.977,5.107,9.032,5.056,14.978,0.4l19.023-14.878l3.807,4.896L191.588,637.5
				C182.496,644.625,174.073,644.096,167.779,636.021z"/>
			<path fill="#231F20" d="M199.233,669.165c-4.556-3.938-6.795-9.273-6.774-14.618l6.164-0.39c0.13,4.076,1.979,8.173,4.926,10.73
				c4.366,3.747,7.763,4.058,10.401,1.02c2.048-2.418,1.279-5.196-2.598-11.251c-4.906-7.674-6.655-12.041-1.829-17.626
				c4.646-5.416,12.041-4.776,17.806,0.189c4.227,3.647,6.095,7.984,6.565,13.039l-6.205,0.511c-0.22-3.707-1.608-6.615-4.686-9.264
				c-3.647-3.167-6.764-2.718-8.573-0.629c-1.879,2.199-1.369,4.497,2.628,10.751c4.556,7.194,6.684,12.46,1.879,18.045
				C214.09,675.3,207.206,676.049,199.233,669.165z"/>
			<path fill="#231F20" d="M233.884,694.124c-5.196-3.047-8.363-7.894-9.292-13.169l5.985-1.479
				c0.858,4.008,3.416,7.685,6.774,9.662c4.975,2.908,8.372,2.578,10.41-0.869c1.599-2.737,0.32-5.336-4.565-10.611
				c-6.216-6.654-8.723-10.642-4.996-16.996c3.617-6.155,11.001-6.875,17.555-3.028c4.826,2.828,7.443,6.755,8.812,11.651
				l-6.015,1.619c-0.879-3.608-2.768-6.205-6.284-8.264c-4.166-2.459-7.124-1.459-8.543,0.919
				c-1.449,2.488-0.529,4.677,4.547,10.092c5.755,6.274,8.812,11.061,5.085,17.416C249.591,697.472,242.966,699.46,233.884,694.124z
				"/>
			<path fill="#231F20" d="M293.474,687.14c-0.899,2.559-3.287,4.397-7.133,3.058l-10.452-3.657l3.527-10.062l10.441,3.666
				C293.764,681.494,294.493,684.242,293.474,687.14z M295.133,706.255c1.899-5.386-0.619-9.442-3.387-11.361
				c3.327-0.39,6.315-2.107,7.674-6.055c2.317-6.544-0.849-11.651-7.624-14.018l-16.027-5.615l-13.609,38.928l15.457,5.416
				C286.121,716.526,292.386,714.168,295.133,706.255z M289.248,704.376c-1.338,3.856-4.146,5.795-9.332,3.996l-10.401-3.657
				l4.537-12.89l10.561,3.696C289.008,697.063,290.657,700.379,289.248,704.376z"/>
			<path fill="#231F20" d="M329.425,709.521l-12.6-1.737l4.557-8.883c1.468-2.877,3.556-7.364,4.268-9.054
				c0.229,1.81,1.208,6.795,1.808,9.822L329.425,709.521z M339.197,726.338l-9.264-42.905l-6.474-0.909l-20.333,38.848l6.365,0.879
				l4.716-9.232l16.337,2.248l2.108,10.173L339.197,726.338z"/>
			<path fill="#231F20" d="M354.144,726.368l-2.218-41.196l6.174-0.31l1.91,35.111l20.521-1.118l0.33,6.055L354.144,726.368z"/>
			<path fill="#231F20" d="M395.549,722.601l-9.451-40.156l6.023-1.409l8.053,34.252l20.016-4.706l1.398,5.896L395.549,722.601z"/>
			<path fill="#231F20" d="M415.674,698.521l-1.93-5.676l13.959-4.716l1.928,5.686L415.674,698.521z"/>
			<path fill="#231F20" d="M455.292,668.956c1.238,2.388,0.969,5.416-2.629,7.284l-9.83,5.145l-4.936-9.452l9.82-5.126
				C451.354,664.899,453.862,666.247,455.292,668.956z M470.387,680.806c-2.646-5.086-7.322-6.006-10.619-5.296
				c1.979-2.688,2.768-6.045,0.84-9.731c-3.229-6.164-9.104-7.345-15.479-4.018l-15.037,7.874l19.115,36.54l14.527-7.604
				C471.717,694.394,474.264,688.209,470.387,680.806z M464.993,683.823c1.889,3.596,1.389,6.974-3.467,9.532l-9.764,5.096
				l-6.334-12.11l9.922-5.196C459.487,678.997,463.014,680.076,464.993,683.823z"/>
			<path fill="#231F20" d="M502.243,673.721c-7.904,6.445-16.188,4.687-23.391-4.106l-15.148-18.516l4.797-3.926l15.027,18.384
				c4.936,6.025,10.082,7.204,14.877,3.287c5.006-4.106,4.836-9.142,0.07-14.978l-15.297-18.704l4.785-3.917l15.217,18.614
				C510.514,658.794,510.165,667.216,502.243,673.721z"/>
			<path fill="#231F20" d="M542.618,630.657l-30.475-3.397c-1.828-0.189-4.637-0.63-5.865-0.8c1.18,0.97,5.674,4.497,7.473,5.935
				l16.656,13.41l-3.746,4.677l-32.145-25.84l3.947-4.916l29.416,3.568c1.998,0.22,5.496,0.779,6.695,0.979
				c-1.199-0.961-5.816-4.606-7.613-6.047l-16.566-13.328l3.768-4.677l32.123,25.839L542.618,630.657z"/>
			<path fill="#231F20" d="M549.024,579.149c7.732,3.937,11.199,10.201,6.773,18.924l-2.318,4.507l-26.02-13.27l2.289-4.525
				C534.196,576.082,541.329,575.222,549.024,579.149z M551.911,573.524c-12.988-6.604-22.482-1.329-27.518,8.532l-5.115,10.032
				l36.76,18.734l5.105-10.032C566.049,591.19,564.86,580.139,551.911,573.524z"/>
		</g>
		<g>
			<g>
				<path fill="#999999" d="M173.514,490.332c0,99.578,80.934,180.571,180.411,180.571c99.488,0,180.451-80.993,180.451-180.571
					c0-99.477-80.961-180.43-180.451-180.43C254.447,309.902,173.514,390.855,173.514,490.332z M183.845,490.332
					c0-93.762,76.297-170.099,170.079-170.099s170.11,76.338,170.11,170.099c0,93.883-76.326,170.22-170.11,170.22
					C260.141,660.552,183.845,584.215,183.845,490.332z"/>
			</g>
		</g>
	</g>
	<path fill="#666666" d="M353.815,168.499C176.162,168.499,32.18,312.5,32.18,490.103c0,73.381,24.59,141.004,65.966,195.119
		l27.017-13.888c-39.517-49.769-63.167-112.727-63.167-181.22c0-161.147,130.632-291.789,291.819-291.789
		c161.146,0,291.808,130.642,291.808,291.789c0,68.482-23.621,131.421-63.127,181.16l27.096,13.788
		c41.316-54.075,65.836-121.649,65.836-194.959C675.428,312.5,531.428,168.499,353.815,168.499z"/>
	<path d="M142.939,691.717l-26.588,15.317c33.783,36.93,76.077,65.944,123.778,83.961l13.459-26.729
		C211.213,748.769,173.514,723.69,142.939,691.717z"/>
	<path fill="#FFCB05" d="M591.159,707.133l-26.527-15.368c-30.705,32.095-68.615,57.224-111.17,72.69l13.84,26.618
		C515.022,773.069,557.356,744.083,591.159,707.133z"/>
	<path fill="#D71920" d="M353.815,781.931c-26.988,0-53.086-3.726-77.875-10.601l-10.581,27.997
		c28.116,8.023,57.762,12.42,88.458,12.42c30.534,0,60.04-4.366,88.016-12.299l-10.65-27.967
		C406.532,778.245,380.622,781.931,353.815,781.931z"/>
	<path fill="#999999" d="M104.91,490.203c0-137.207,111.628-248.835,248.834-248.835c137.217,0,248.854,111.628,248.854,248.835
		c0,137.226-111.637,248.843-248.854,248.843C216.538,739.047,104.91,627.43,104.91,490.203z M92.9,490.203
		c0,143.84,117.013,260.854,260.844,260.854c143.85,0,260.854-117.014,260.854-260.854c0-143.822-117.004-260.835-260.854-260.835
		C209.913,229.369,92.9,346.382,92.9,490.203z"/>
	<path d="M497.934,506.579c0,0-27.436-90.984-31.883-105.572c-3.807-12.49-13.578-11.691-13.578-11.691s-3.219,0.16-29.066-0.14
		c-24.93-0.26-27.328,5.956-9.602,29.376c5.625,7.435,3.438,8.493-10.982,11.011c-14.426,2.498-21.313-11.59-22.15-17.784
		c-0.84-6.216-4.027-28.256-4.408-29.336c-0.928-2.638,5.816-4.615,9.104-2.497c6.045,3.856,5.197,5.095,5.197-6.355
		c0-11.471-15.148-10.531-15.148-10.531c-0.99-12.131-19.094-10.051-24.9-9.672c-5.805,0.399-11.63,4.616-27.097,4.616
		c-15.458,0-12.76,19.843-12.76,19.843s7.184-2.138,12.648-1.998c5.406,0.14,19.426-0.14,15.188,8.453
		c0,0-11.221-3.977-16.507-3.977s-17.965-0.12-21.132-4.736c-3.168-4.616-4.357-6.074-4.357-6.074s-3.567,14.507,4.627,15.966
		c8.192,1.459,16.646,0,20.603-0.26c3.956-0.279,11.761-0.279,13.868,0c2.109,0.26-0.14,2.498-4.236,2.778
		c-4.086,0.26-13.47-0.4-10.951,3.816c2.499,4.237,6.864,6.615,9.493,7.134c2.647,0.539,9.911-0.659,6.733,7.134l-1.778,5.196
		c-2.038,5.935-8.384,19.924-22.811,17.385c-14.428-2.479-16.597-3.537-11.001-10.951c17.735-23.44,15.357-29.655-9.592-29.396
		c-25.839,0.3-29.057,0.121-29.057,0.121s-9.772-0.8-13.578,11.69c-4.457,14.588-38.858,106.972-38.858,106.972
		s-1.539,8.934,5.965,11.432c9.852,3.258,13.06-6.275,13.06-6.275l24.959-66.145c1.859,1.158,3.687,2.298,5.536,3.378
		l-31.174,86.447c0,0-3.187,9.532,6.875,13.05c8.993,3.118,13.039-8.094,13.039-8.094l30.015-81.793
		c1.598,0.68,3.197,1.359,4.756,1.998l-31.613,90.347c0,0-2.908,9.691,6.435,12.85c9.322,3.177,13.098-7.914,13.098-7.914
		l31.374-88.807c1.869,0.5,3.717,0.96,5.526,1.379c-0.021,0.1-0.03,0.18-0.03,0.18l-15.947,53.276c0,0-2.638,9.151,6.334,12.67
		c8.993,3.517,13.909-8.453,13.909-8.453l14.607-47.021c0,0,5.996,24.48-4.576,41.566C311.55,538.255,301.199,549.666,287.64,556
		c0,0,0.36,1.958,5.286,2.279c4.926,0.38,5.275,1.619,5.985,2.478l-7.015,10.75c0,0-1.069,3.877-5.825,1.779
		c-4.757-2.119-10.731-5.296-10.731-5.296s-6.176-1.56-7.585,1.419c-1.408,2.997-1.408,2.997-1.408,2.997s-7.034,0.699-7.934,4.735
		c-0.87,4.058,0.369,4.577,0.369,4.577s3.187-2.238,4.566-1.379c1.878,1.119,0.359,4.516,2.548,5.316
		c3.937,1.418,6.814-0.78,8.913-2.68c1.379-1.278,4.756,0.161,4.916,1.221c0.179,1.059-1.409,3.855-5.455,4.396
		c-4.047,0.539-12.85,2.097-12.34,6.694c0.459,3.877,0.52,4.216,0.539,4.235c-0.049,0.08-3.297,7.056,3.348,9.673
		c0,0,1.069-4.217,2.468-4.217c1.409,0,2.627,2.459,5.106,2.459c2.468,0,4.757-2.119,6.175-6.335
		c1.389-4.235,3.857-9.871,3.857-9.871s1.759-2.099,2.818-1.759c1.059,0.36,1.598,2.298,1.239,3.519
		c-0.35,1.258-1.059,4.056-1.239,4.774c-0.17,0.681-6.145,8.095-1.399,11.631c4.745,3.497,4.227,4.915,5.445,5.775
		c1.239,0.899,6.164,2.638,7.934,1.599c0,0-2.109-3.877-2.648-4.576c-0.53-0.7-0.35-2.099,2.988-2.099
		c3.357,0,3.357-4.236,1.249-7.414c-2.119-3.156-2.848-6.215-3.537-8.272c-1.369-4.156,2.368-5.655,4.066-1.418
		c1.629,4.096,0.96,8.072,4.577,7.493c2.688-0.419,3.327-2.198,4.566-2.037c1.238,0.179,4.726,2.616,2.857,7.133
		c0,0,8.233-1.338,5.436-8.873c-1.858-4.995-4.138-2.497-2.648-7.394c1.149-3.856-2.288-6.693-6.345-6.534
		c-3.797,0.159-8.733-0.859-6.324-5.455c2.527-4.876,5.984-10.731,5.984-10.731l5.795,6.694c0,0,5.476-13.729,10.4-19.903
		c4.927-6.155,10.921-13.749,13.729-12.15c2.817,1.579,3.687,21.482,1.409,31.514c-2.288,10.031-10.571,32.053-12.5,35.051
		c-1.938,2.977,10.91-1.938,12.5-2.479c1.579-0.52,4.757-4.396,5.444,1.6c0.721,5.975,3.059,17.365,8.504,23.201l0.131-0.141
		c5.465-5.815,8.114-17.605,8.813-23.601c0.699-5.975,3.865-2.098,5.465-1.579c1.57,0.52,14.43,5.456,12.48,2.459
		c-1.93-2.978-10.201-25-12.48-35.031c-2.297-10.032-1.418-29.956,1.41-31.535c2.807-1.579,8.783,6.016,13.717,12.15
		c4.926,6.175,10.393,19.903,10.393,19.903l5.805-6.695c0,0,3.457,5.856,5.996,10.751c2.387,4.577-2.539,5.615-6.336,5.455
		c-4.066-0.16-7.504,2.678-6.334,6.514c1.469,4.897-0.799,2.419-2.648,7.415c-2.797,7.534,5.416,8.872,5.416,8.872
		c-1.867-4.536,1.619-6.953,2.859-7.133c1.238-0.161,1.879,1.619,4.576,2.038c3.617,0.56,2.957-3.417,4.586-7.494
		c1.688-4.237,5.426-2.758,4.047,1.418c-0.689,2.059-1.408,5.096-3.527,8.273c-2.107,3.156-2.107,7.394,1.24,7.394
		c3.346,0,3.527,1.399,2.996,2.099c-0.539,0.72-2.648,4.597-2.648,4.597c1.76,1.059,6.686-0.72,7.936-1.6
		c1.229-0.879,0.699-2.277,5.455-5.795c4.746-3.537-1.248-10.93-1.41-11.63c-0.189-0.719-0.898-3.517-1.238-4.756
		c-0.35-1.239,0.17-3.157,1.238-3.518c1.051-0.359,2.809,1.737,2.809,1.737s2.469,5.656,3.877,9.872
		c1.4,4.236,3.707,6.355,6.154,6.355c2.479,0,3.699-2.479,5.117-2.479c1.408,0,2.467,4.237,2.467,4.237
		c6.645-2.639,3.389-9.592,3.348-9.673c0.012-0.02,0.07-0.38,0.529-4.236c0.51-4.596-8.281-6.175-12.328-6.715
		c-4.057-0.521-5.625-3.336-5.467-4.376c0.18-1.079,3.537-2.498,4.936-1.239c2.1,1.898,4.947,4.098,8.893,2.678
		c2.209-0.779,0.68-4.177,2.559-5.314c1.389-0.839,4.576,1.398,4.576,1.398s1.221-0.539,0.361-4.576
		c-0.881-4.057-7.934-4.757-7.934-4.757s0,0-1.41-2.997c-1.418-2.978-7.563-1.399-7.563-1.399s-6.006,3.178-10.762,5.275
		c-4.736,2.118-5.795-1.759-5.795-1.759l-5.637-12.149c0.691-0.88,1.049-2.119,5.977-2.459c4.924-0.359,5.295-2.298,5.295-2.298
		c-13.568-6.334-20.434-15.667-30.994-32.753c-10.572-17.065-4.586-41.546-4.586-41.546l14.617,47.021c0,0,4.936,11.97,13.92,8.433
		c8.971-3.517,6.334-12.67,6.334-12.67l-16.297-54.594c0,0-0.01-0.02-0.031-0.12c1.789-0.459,3.607-0.979,5.445-1.539l26.908,89.545
		c0,0,3.777,11.092,13.119,7.914c9.322-3.156,6.424-12.869,6.424-12.869l-27.357-91.624c1.559-0.659,3.117-1.379,4.686-2.117
		c0.021,0.04,0.031,0.079,0.031,0.079l25.799,83.111c0,0,4.037,11.231,13.029,8.093c10.063-3.497,6.875-13.028,6.875-13.028
		l-27.207-88.388c0,0-0.01,0-0.01-0.019c1.736-1.099,3.486-2.199,5.225-3.377c0.52,0.539,0.67,1.139,0.67,1.139l20.652,66.964
		c0,0,3.197,9.513,13.07,6.235C499.473,515.512,497.934,506.579,497.934,506.579z M222.883,508.118c0,0-1.638,5.355-4.726,3.877
		c-3.057-1.479-0.77-5.895-0.77-5.895s23.77-61.149,26.149-67.104c1.688,1.239,3.397,2.438,5.076,3.596L222.883,508.118z
		 M241.918,537.055c0,0-1.519,5.396-4.616,3.996c-3.107-1.379-0.929-5.855-0.929-5.855s25.558-70.762,29.665-82.013
		c1.828,0.959,3.647,1.898,5.435,2.778L241.918,537.055z M264.459,553.48c0,0-1.449,5.416-4.556,4.036c-3.118-1.339-1-5.836-1-5.836
		s26.019-74.578,30.755-88.047c1.929,0.679,3.856,1.338,5.745,1.938L264.459,553.48z M304.935,524.364c0,0-1.198,5.455-4.386,4.236
		c-3.167-1.238-1.229-5.795-1.229-5.795s12.389-41.525,15.668-52.356c2.078,0.399,4.086,0.719,6.035,0.999L304.935,524.364z
		 M349.848,369.373c-2.499-0.12-4.757-2.638-4.757-2.638s1.329-2.499,4.637-2.379c3.298,0.14,4.757,2.379,4.757,2.379
		S352.366,369.513,349.848,369.373z M413.375,522.926c0,0,1.928,4.577-1.229,5.816c-3.178,1.198-4.396-4.237-4.396-4.237
		l-16.307-52.117c0,0-0.369-0.659,0.199-1.659c1.719-0.3,3.488-0.658,5.316-1.038C397.999,472.867,413.375,522.926,413.375,522.926z
		 M449.487,551.442c0,0,1.928,4.577-1.25,5.815c-3.178,1.239-4.387-4.236-4.387-4.236l-27.438-88.746
		c1.889-0.64,3.789-1.34,5.697-2.079C425.096,471.728,449.487,551.442,449.487,551.442z M472.176,535.596
		c0,0,1.939,4.576-1.219,5.815c-3.168,1.239-4.406-4.236-4.406-4.236l-25.84-83.452c1.799-0.938,3.598-1.938,5.416-2.957
		C447.917,456.381,472.176,535.596,472.176,535.596z M489.432,511.476c-3.146,1.238-4.395-4.236-4.395-4.236l-20.904-68.203
		c1.699-1.239,3.408-2.538,5.117-3.877c0.01,0.04,0.029,0.059,0.029,0.08c0.57,1.638,21.393,70.422,21.393,70.422
		S492.61,510.237,489.432,511.476z"/>
</g>
<g id="_761874112">
	<polygon id="polygon325" fill="#FFCB05" stroke="#FFCB05" stroke-width="2.4026" stroke-linejoin="round" points="675.428,58.217 
		675.428,58.217 634.92,87.45 650.423,134.771 610.155,105.257 569.858,134.295 585.56,87.165 545.276,58.061 595.042,58.361 
		610.351,10.809 625.645,58.325 	"/>
	<polygon id="polygon329" fill="#FFCB05" stroke="#FFCB05" stroke-width="2.4026" stroke-linejoin="round" points="482.972,134.58 
		482.972,134.58 442.877,105.325 402.76,134.563 418.034,87.381 377.94,58.127 427.742,58.096 443.014,10.916 458.15,58.145 
		507.979,58.4 467.547,87.378 	"/>
	<polygon id="polygon333" fill="#FFCB05" stroke="#FFCB05" stroke-width="2.4026" stroke-linejoin="round" points="266.289,105.327 
		226.146,134.514 226.146,134.514 241.65,87.339 201.27,58.292 251.098,58.121 266.315,10.918 281.505,58.125 331.307,58.241 
		291.164,87.427 306.643,134.661 	"/>
	<polygon id="polygon3156" fill="#FFCB05" stroke="#FFCB05" stroke-width="2.4026" stroke-linejoin="round" points="58.859,134.201 
		74.493,87.16 34.277,57.59 84.092,57.893 99.725,10.853 114.556,58.287 164.233,58.338 123.916,87.349 139,134.644 99.175,105.189 
			"/>
</g>
</svg>
