<?xml version="1.0" encoding="UTF-8"?>
<!-- Generator: Adobe Illustrator 17.0.0, SVG Export Plug-In . SVG Version: 6.00 Build 0)  -->
<!DOCTYPE svg PUBLIC "-//W3C//DTD SVG 1.1//EN" "http://www.w3.org/Graphics/SVG/1.1/DTD/svg11.dtd">
<svg version="1.1" id="svg2" xmlns:dc="http://purl.org/dc/elements/1.1/" xmlns:inkscape="http://www.inkscape.org/namespaces/inkscape" xmlns:sodipodi="http://sodipodi.sourceforge.net/DTD/sodipodi-0.dtd" xmlns:svg="http://www.w3.org/2000/svg" xmlns:rdf="http://www.w3.org/1999/02/22-rdf-syntax-ns#" xmlns:cc="http://creativecommons.org/ns#" sodipodi:docname="DFBEagle.svg" inkscape:version="0.48.4 r9939" xmlns="http://www.w3.org/2000/svg" xmlns:xlink="http://www.w3.org/1999/xlink" x="0px" y="0px" width="707.509px" height="835.113px" viewBox="0 0 707.509 835.113" enable-background="new 0 0 707.509 835.113" xml:space="preserve">
<g>
	<g>
		<path fill="#FFFFFF" d="M19.9,490.203c0-184.079,149.766-333.845,333.844-333.845c184.088,0,333.864,149.766,333.864,333.845    c0,184.097-149.776,333.853-333.864,333.853C169.667,824.056,19.9,674.3,19.9,490.203z"/>
	</g>
	<g>
		<path fill="#FFFFFF" d="M608.624,490.313c0,140.824-114.026,254.87-254.7,254.87c-140.653,0-254.669-114.046-254.669-254.87    c0-140.644,114.016-254.69,254.669-254.69C494.598,235.623,608.624,349.669,608.624,490.313z"/>
		<g>
			<path fill="#231F20" d="M206.007,337.45c6.395,5.845,8.063,12.829,1.459,20.033l-3.438,3.726l-21.532-19.734l3.428-3.737     C192.528,330.545,199.612,331.604,206.007,337.45z M210.273,332.793c-10.741-9.831-21.312-7.274-28.797,0.889l-7.603,8.283     l30.404,27.877l7.625-8.294C219.166,353.596,220.994,342.625,210.273,332.793z"/>
			<path fill="#231F20" d="M232.735,340.806l-24.14-33.443l21.543-15.557l3.537,4.866l-16.536,11.921l5.965,8.282l9.602-6.934     l3.497,4.876l-9.592,6.924l7.624,10.571l17.236-12.44l3.537,4.876L232.735,340.806z"/>
			<path fill="#231F20" d="M277.347,314.418c-9.332,4.116-16.845,0.22-21.422-10.192l-9.662-21.872l5.655-2.498l9.582,21.711     c3.138,7.124,7.793,9.632,13.46,7.154c5.934-2.617,7.104-7.534,4.066-14.438l-9.741-22.092l5.635-2.497l9.722,21.981     C289.298,302.248,286.74,310.272,277.347,314.418z"/>
			<path fill="#231F20" d="M310.241,266.718l7.223,34.431l-6.045,1.269l-7.234-34.421l-11.76,2.468l-1.249-5.945l29.596-6.204     l1.239,5.935L310.241,266.718z"/>
			<path fill="#231F20" d="M349.169,298.461c-5.996,0.1-11.241-2.398-14.778-6.395l4.327-4.386     c2.828,2.967,6.925,4.766,10.821,4.696c5.765-0.1,8.503-2.158,8.433-6.165c-0.059-3.178-2.508-4.746-9.442-6.665     c-8.773-2.428-13.009-4.526-13.129-11.911c-0.13-7.114,5.795-11.58,13.389-11.73c5.615-0.099,9.882,1.889,13.608,5.346     l-4.266,4.516c-2.668-2.608-5.636-3.856-9.692-3.787c-4.816,0.09-6.845,2.488-6.795,5.256c0.05,2.887,1.979,4.256,9.122,6.255     c8.174,2.328,13.29,4.826,13.439,12.18C364.336,293.106,359.719,298.251,349.169,298.461z"/>
			<path fill="#231F20" d="M389.305,301.818c-10.491-1.938-15.567-11.8-13.289-24.089c2.268-12.28,10.502-19.684,20.993-17.746     c6.605,1.219,10.521,4.696,12.4,10.121l-6.005,2.369c-1.489-3.687-3.338-5.636-7.514-6.415     c-7.064-1.298-11.94,3.727-13.628,12.82c-1.679,9.112,1.089,15.557,8.152,16.855c4.247,0.78,7.164-0.489,9.862-3.397l4.416,4.286     C400.866,301.079,395.45,302.948,389.305,301.818z"/>
			<path fill="#231F20" d="M435.687,316.297l7.155-16.936l-17.477-7.393l-7.163,16.935l-5.696-2.418l16.067-37.968l5.715,2.397     l-6.515,15.368l17.475,7.393l6.504-15.357l5.696,2.407l-16.077,37.989L435.687,316.297z"/>
			<path fill="#231F20" d="M451.144,324.48l23.671-33.782l21.761,15.238l-3.447,4.936l-16.696-11.7l-5.845,8.343l9.691,6.804     l-3.447,4.926l-9.701-6.805l-7.474,10.661l17.436,12.21l-3.467,4.916L451.144,324.48z"/>
			<path fill="#231F20" d="M518.998,345.073c-3.267,3.057-6.784,2.408-9.611-0.589l-8.224-8.793l9.673-9.063l8.223,8.774     C521.916,338.458,522.136,342.136,518.998,345.073z M523.394,349.499c6.195-5.795,4.836-12.84-0.07-18.085l-12.38-13.199     l-30.085,28.227l4.137,4.416l11.92-11.171l6.365,6.805l-6.305,17.145l4.885,5.196l6.525-17.675     C513.232,354.265,518.578,354.015,523.394,349.499z"/>
			<path fill="#231F20" d="M173.084,577.061l-9.602,4.896l5.396,10.562l-5.405,2.757l-5.396-10.561l-16.316,8.353l-2.818-5.506     l36.729-18.775l12.091,23.65l-5.396,2.768L173.084,577.061z"/>
			<path fill="#231F20" d="M167.779,636.022c-6.295-8.024-4.367-16.276,4.586-23.281l18.855-14.737l3.816,4.875l-18.715,14.638     c-6.125,4.776-7.424,9.912-3.607,14.777c3.977,5.107,9.032,5.056,14.978,0.4l19.023-14.878l3.807,4.896l-18.934,14.788     C182.496,644.625,174.073,644.096,167.779,636.022z"/>
			<path fill="#231F20" d="M199.233,669.165c-4.556-3.937-6.795-9.273-6.774-14.618l6.164-0.39c0.13,4.076,1.979,8.173,4.926,10.731     c4.366,3.747,7.763,4.057,10.401,1.019c2.048-2.418,1.279-5.196-2.598-11.251c-4.906-7.674-6.655-12.041-1.829-17.626     c4.646-5.416,12.041-4.776,17.806,0.19c4.227,3.647,6.095,7.984,6.565,13.039l-6.205,0.51c-0.22-3.707-1.608-6.615-4.686-9.263     c-3.647-3.167-6.764-2.718-8.573-0.629c-1.879,2.199-1.369,4.497,2.628,10.751c4.556,7.194,6.684,12.46,1.879,18.045     C214.09,675.3,207.206,676.049,199.233,669.165z"/>
			<path fill="#231F20" d="M233.884,694.124c-5.196-3.047-8.363-7.894-9.292-13.169l5.985-1.478     c0.858,4.007,3.416,7.684,6.774,9.662c4.975,2.908,8.372,2.578,10.41-0.869c1.599-2.738,0.32-5.336-4.565-10.612     c-6.216-6.654-8.723-10.641-4.996-16.996c3.617-6.155,11.001-6.875,17.555-3.028c4.826,2.828,7.443,6.755,8.812,11.651     l-6.015,1.619c-0.879-3.608-2.768-6.205-6.284-8.263c-4.166-2.459-7.124-1.459-8.543,0.919     c-1.449,2.488-0.529,4.676,4.547,10.091c5.755,6.275,8.812,11.061,5.085,17.416C249.591,697.472,242.966,699.46,233.884,694.124z     "/>
			<path fill="#231F20" d="M293.474,687.14c-0.899,2.558-3.287,4.397-7.133,3.057l-10.452-3.657l3.527-10.062l10.441,3.667     C293.764,681.494,294.493,684.242,293.474,687.14z M295.133,706.255c1.899-5.386-0.619-9.443-3.387-11.361     c3.327-0.39,6.315-2.108,7.674-6.055c2.317-6.544-0.849-11.651-7.624-14.018l-16.027-5.615l-13.609,38.928l15.457,5.416     C286.121,716.526,292.386,714.168,295.133,706.255z M289.248,704.376c-1.338,3.856-4.146,5.795-9.332,3.996l-10.401-3.657     l4.537-12.89l10.561,3.697C289.008,697.062,290.657,700.379,289.248,704.376z"/>
			<path fill="#231F20" d="M329.425,709.522l-12.6-1.738l4.557-8.883c1.468-2.877,3.556-7.364,4.267-9.053     c0.229,1.809,1.208,6.795,1.808,9.822L329.425,709.522z M339.197,726.338l-9.263-42.905l-6.474-0.91l-20.333,38.848l6.365,0.879     l4.716-9.232l16.337,2.248l2.108,10.172L339.197,726.338z"/>
			<path fill="#231F20" d="M354.144,726.368l-2.218-41.196l6.175-0.31l1.909,35.112l20.522-1.119l0.329,6.055L354.144,726.368z"/>
			<path fill="#231F20" d="M395.55,722.601l-9.452-40.157l6.024-1.409l8.053,34.252l20.014-4.706l1.399,5.895L395.55,722.601z"/>
			<path fill="#231F20" d="M415.674,698.521l-1.929-5.675l13.959-4.716l1.928,5.685L415.674,698.521z"/>
			<path fill="#231F20" d="M455.291,668.956c1.238,2.388,0.969,5.416-2.628,7.284l-9.831,5.145l-4.936-9.452l9.821-5.126     C451.354,664.899,453.862,666.247,455.291,668.956z M470.388,680.806c-2.648-5.086-7.324-6.006-10.62-5.296     c1.978-2.688,2.768-6.045,0.839-9.732c-3.227-6.164-9.103-7.344-15.477-4.017l-15.037,7.874l19.114,36.54l14.528-7.604     C471.717,694.394,474.265,688.209,470.388,680.806z M464.993,683.823c1.889,3.596,1.388,6.974-3.468,9.532l-9.762,5.096     l-6.334-12.11l9.922-5.196C459.487,678.997,463.014,680.076,464.993,683.823z"/>
			<path fill="#231F20" d="M502.242,673.721c-7.903,6.445-16.186,4.686-23.39-4.107l-15.148-18.515l4.796-3.926l15.027,18.384     c4.936,6.025,10.082,7.204,14.878,3.287c5.006-4.107,4.836-9.142,0.071-14.978l-15.298-18.704l4.786-3.917l15.217,18.614     C510.515,658.794,510.165,667.216,502.242,673.721z"/>
			<path fill="#231F20" d="M542.618,630.657l-30.475-3.397c-1.828-0.19-4.636-0.63-5.866-0.8c1.18,0.97,5.675,4.497,7.474,5.935     l16.656,13.41l-3.747,4.676l-32.143-25.839l3.947-4.916l29.416,3.568c1.998,0.22,5.495,0.779,6.695,0.979     c-1.199-0.96-5.816-4.606-7.614-6.046l-16.566-13.329l3.767-4.676l32.123,25.839L542.618,630.657z"/>
			<path fill="#231F20" d="M549.023,579.149c7.733,3.937,11.2,10.202,6.774,18.924l-2.319,4.507l-26.018-13.269l2.288-4.526     C534.196,576.082,541.329,575.222,549.023,579.149z M551.911,573.524c-12.989-6.604-22.482-1.329-27.517,8.533l-5.116,10.032     l36.759,18.734l5.107-10.032C566.049,591.19,564.86,580.139,551.911,573.524z"/>
		</g>
		<g>
			<g>
				<path fill="#999999" d="M173.514,490.332c0,99.578,80.934,180.571,180.411,180.571c99.488,0,180.451-80.993,180.451-180.571      c0-99.477-80.962-180.43-180.451-180.43C254.447,309.902,173.514,390.855,173.514,490.332z M183.845,490.332      c0-93.762,76.297-170.099,170.079-170.099s170.11,76.338,170.11,170.099c0,93.883-76.327,170.22-170.11,170.22      S183.845,584.215,183.845,490.332z"/>
			</g>
		</g>
	</g>
	<path fill="#666666" d="M353.815,168.499C176.162,168.499,32.18,312.5,32.18,490.103c0,73.38,24.59,141.003,65.966,195.119   l27.017-13.888c-39.517-49.769-63.167-112.727-63.167-181.22c0-161.147,130.632-291.789,291.819-291.789   c161.147,0,291.809,130.642,291.809,291.789c0,68.483-23.621,131.421-63.128,181.16l27.097,13.789   c41.316-54.076,65.836-121.65,65.836-194.959C675.429,312.5,531.428,168.499,353.815,168.499z"/>
	<path d="M142.939,691.717l-26.588,15.317c33.783,36.93,76.077,65.945,123.778,83.961l13.459-26.728   C211.213,748.769,173.514,723.69,142.939,691.717z"/>
	<path fill="#FFCB05" d="M591.158,707.133l-26.527-15.368c-30.705,32.094-68.614,57.223-111.169,72.69l13.839,26.618   C515.021,773.069,557.356,744.083,591.158,707.133z"/>
	<path fill="#D71920" d="M353.815,781.931c-26.988,0-53.086-3.726-77.875-10.601l-10.581,27.997   c28.116,8.024,57.762,12.42,88.457,12.42c30.535,0,60.04-4.366,88.017-12.299l-10.651-27.967   C406.531,778.245,380.622,781.931,353.815,781.931z"/>
	<path fill="#999999" d="M104.91,490.203c0-137.207,111.628-248.835,248.834-248.835c137.217,0,248.855,111.628,248.855,248.835   c0,137.226-111.637,248.843-248.855,248.843C216.538,739.047,104.91,627.43,104.91,490.203z M92.9,490.203   c0,143.84,117.013,260.854,260.844,260.854c143.851,0,260.855-117.014,260.855-260.854c0-143.822-117.004-260.835-260.855-260.835   C209.913,229.369,92.9,346.382,92.9,490.203z"/>
	<path d="M497.935,506.579c0,0-27.437-90.984-31.884-105.572c-3.807-12.49-13.578-11.691-13.578-11.691s-3.218,0.16-29.067-0.14   c-24.929-0.26-27.327,5.956-9.601,29.376c5.625,7.434,3.437,8.493-10.982,11.011c-14.427,2.498-21.312-11.59-22.151-17.785   c-0.839-6.215-4.027-28.256-4.407-29.336c-0.929-2.638,5.816-4.615,9.103-2.497c6.045,3.856,5.196,5.095,5.196-6.355   c0-11.471-15.148-10.531-15.148-10.531c-0.989-12.131-19.094-10.051-24.899-9.672c-5.805,0.399-11.63,4.616-27.097,4.616   c-15.458,0-12.76,19.843-12.76,19.843s7.184-2.138,12.649-1.998c5.406,0.14,19.425-0.14,15.188,8.453   c0,0-11.221-3.977-16.507-3.977c-5.286,0-17.965-0.12-21.132-4.736c-3.168-4.616-4.357-6.074-4.357-6.074   s-3.567,14.507,4.627,15.966c8.192,1.459,16.646,0,20.602-0.26c3.957-0.279,11.761-0.279,13.869,0   c2.109,0.26-0.14,2.498-4.237,2.778c-4.086,0.26-13.469-0.4-10.951,3.816c2.499,4.237,6.864,6.615,9.493,7.134   c2.648,0.539,9.911-0.659,6.734,7.134l-1.779,5.196c-2.038,5.935-8.383,19.924-22.81,17.385   c-14.428-2.478-16.597-3.537-11.001-10.951c17.735-23.44,15.357-29.655-9.592-29.396c-25.839,0.3-29.057,0.121-29.057,0.121   s-9.772-0.8-13.578,11.69c-4.457,14.588-38.858,106.972-38.858,106.972s-1.539,8.933,5.965,11.431   c9.852,3.258,13.06-6.275,13.06-6.275l24.959-66.145c1.859,1.159,3.687,2.298,5.536,3.378l-31.174,86.448   c0,0-3.187,9.532,6.875,13.049c8.993,3.118,13.039-8.093,13.039-8.093l30.015-81.793c1.598,0.679,3.197,1.359,4.756,1.998   l-31.613,90.346c0,0-2.908,9.692,6.435,12.85c9.322,3.177,13.098-7.914,13.098-7.914l31.374-88.807   c1.869,0.5,3.717,0.96,5.526,1.379c-0.02,0.1-0.03,0.18-0.03,0.18l-15.947,53.276c0,0-2.638,9.152,6.334,12.67   c8.993,3.517,13.909-8.453,13.909-8.453l14.608-47.021c0,0,5.996,24.48-4.577,41.566c-10.561,17.086-20.912,28.497-34.471,34.831   c0,0,0.36,1.958,5.286,2.279c4.926,0.38,5.275,1.619,5.985,2.478l-7.015,10.75c0,0-1.069,3.877-5.825,1.779   c-4.757-2.119-10.731-5.296-10.731-5.296s-6.176-1.559-7.585,1.419c-1.408,2.997-1.408,2.997-1.408,2.997s-7.034,0.7-7.934,4.736   c-0.87,4.057,0.369,4.577,0.369,4.577s3.187-2.239,4.566-1.379c1.878,1.119,0.359,4.516,2.548,5.316   c3.937,1.418,6.814-0.78,8.913-2.679c1.379-1.279,4.756,0.161,4.916,1.22c0.179,1.059-1.409,3.856-5.455,4.396   c-4.047,0.539-12.85,2.097-12.34,6.694c0.459,3.877,0.52,4.216,0.539,4.236c-0.049,0.08-3.297,7.055,3.348,9.672   c0,0,1.069-4.216,2.468-4.216c1.409,0,2.627,2.459,5.106,2.459c2.468,0,4.757-2.119,6.175-6.335   c1.389-4.236,3.857-9.871,3.857-9.871s1.759-2.099,2.818-1.759c1.059,0.36,1.598,2.298,1.239,3.518   c-0.35,1.258-1.059,4.056-1.239,4.775c-0.17,0.68-6.145,8.094-1.399,11.631c4.745,3.497,4.227,4.915,5.445,5.775   c1.239,0.899,6.164,2.638,7.934,1.599c0,0-2.109-3.877-2.648-4.577c-0.53-0.7-0.35-2.098,2.988-2.098   c3.357,0,3.357-4.236,1.249-7.414c-2.119-3.157-2.848-6.215-3.537-8.273c-1.369-4.156,2.368-5.655,4.066-1.418   c1.629,4.096,0.96,8.073,4.577,7.494c2.688-0.419,3.327-2.199,4.566-2.038c1.239,0.179,4.726,2.617,2.858,7.133   c0,0,8.233-1.338,5.435-8.873c-1.858-4.995-4.137-2.497-2.648-7.393c1.149-3.857-2.288-6.694-6.345-6.535   c-3.797,0.16-8.733-0.859-6.324-5.455c2.527-4.876,5.984-10.731,5.984-10.731l5.795,6.694c0,0,5.476-13.729,10.401-19.903   c4.926-6.155,10.921-13.749,13.729-12.15c2.818,1.579,3.687,21.482,1.409,31.513c-2.288,10.032-10.571,32.053-12.5,35.051   c-1.938,2.977,10.911-1.938,12.5-2.478c1.579-0.52,4.757-4.396,5.445,1.599c0.72,5.975,3.058,17.365,8.504,23.201l0.13-0.14   c5.466-5.816,8.114-17.606,8.813-23.601c0.7-5.974,3.866-2.097,5.466-1.579c1.569,0.52,14.429,5.456,12.479,2.459   c-1.929-2.977-10.201-25-12.479-35.031c-2.298-10.032-1.419-29.956,1.409-31.535c2.808-1.579,8.783,6.015,13.718,12.15   c4.926,6.175,10.391,19.903,10.391,19.903l5.805-6.695c0,0,3.457,5.856,5.996,10.751c2.388,4.577-2.538,5.615-6.335,5.455   c-4.066-0.16-7.504,2.678-6.334,6.514c1.468,4.897-0.799,2.419-2.648,7.415c-2.798,7.534,5.416,8.872,5.416,8.872   c-1.868-4.536,1.619-6.953,2.858-7.133c1.239-0.161,1.879,1.619,4.576,2.038c3.618,0.56,2.958-3.417,4.587-7.494   c1.688-4.237,5.426-2.758,4.047,1.418c-0.69,2.059-1.409,5.096-3.527,8.273c-2.109,3.157-2.109,7.394,1.239,7.394   c3.347,0,3.527,1.399,2.997,2.099c-0.539,0.719-2.648,4.596-2.648,4.596c1.759,1.059,6.685-0.719,7.934-1.599   c1.23-0.879,0.7-2.278,5.455-5.795c4.746-3.537-1.248-10.93-1.409-11.63c-0.189-0.719-0.898-3.517-1.239-4.756   c-0.349-1.239,0.17-3.157,1.239-3.518c1.05-0.359,2.809,1.738,2.809,1.738s2.468,5.656,3.877,9.872   c1.399,4.236,3.707,6.355,6.154,6.355c2.478,0,3.698-2.478,5.116-2.478c1.409,0,2.468,4.237,2.468,4.237   c6.644-2.639,3.388-9.592,3.348-9.673c0.01-0.019,0.07-0.38,0.529-4.236c0.51-4.596-8.282-6.175-12.329-6.715   c-4.057-0.52-5.625-3.336-5.466-4.376c0.18-1.079,3.537-2.498,4.936-1.239c2.098,1.898,4.946,4.097,8.892,2.678   c2.209-0.78,0.68-4.177,2.558-5.315c1.389-0.839,4.577,1.399,4.577,1.399s1.22-0.539,0.36-4.577   c-0.88-4.056-7.933-4.756-7.933-4.756s0,0-1.409-2.998c-1.419-2.977-7.564-1.399-7.564-1.399s-6.005,3.178-10.761,5.275   c-4.736,2.119-5.795-1.758-5.795-1.758l-5.636-12.15c0.69-0.88,1.049-2.119,5.975-2.459c4.925-0.359,5.295-2.298,5.295-2.298   c-13.568-6.334-20.432-15.667-30.994-32.753c-10.571-17.065-4.586-41.545-4.586-41.545l14.618,47.021c0,0,4.936,11.97,13.919,8.433   c8.972-3.517,6.334-12.67,6.334-12.67l-16.297-54.594c0,0-0.009-0.02-0.03-0.12c1.788-0.459,3.607-0.979,5.445-1.539l26.908,89.545   c0,0,3.777,11.091,13.119,7.914c9.323-3.157,6.425-12.869,6.425-12.869l-27.358-91.624c1.559-0.66,3.117-1.379,4.686-2.118   c0.02,0.04,0.031,0.08,0.031,0.08l25.799,83.111c0,0,4.036,11.231,13.029,8.093c10.062-3.497,6.875-13.029,6.875-13.029   l-27.208-88.387c0,0-0.01,0-0.01-0.019c1.738-1.099,3.487-2.199,5.226-3.377c0.519,0.539,0.669,1.139,0.669,1.139l20.652,66.964   c0,0,3.197,9.512,13.07,6.235C499.474,515.512,497.935,506.579,497.935,506.579z M222.883,508.118c0,0-1.638,5.356-4.726,3.877   c-3.057-1.478-0.77-5.894-0.77-5.894s23.77-61.15,26.149-67.105c1.688,1.239,3.397,2.438,5.076,3.596L222.883,508.118z    M241.918,537.055c0,0-1.519,5.395-4.616,3.996c-3.107-1.379-0.929-5.856-0.929-5.856s25.558-70.761,29.665-82.012   c1.828,0.959,3.647,1.898,5.435,2.778L241.918,537.055z M264.459,553.48c0,0-1.449,5.416-4.556,4.037c-3.118-1.339-1-5.836-1-5.836   s26.019-74.578,30.755-88.047c1.929,0.679,3.856,1.338,5.745,1.938L264.459,553.48z M304.935,524.364c0,0-1.198,5.455-4.386,4.237   c-3.167-1.239-1.229-5.795-1.229-5.795s12.389-41.526,15.668-52.357c2.078,0.4,4.086,0.719,6.035,0.999L304.935,524.364z    M349.848,369.373c-2.499-0.12-4.757-2.638-4.757-2.638s1.329-2.499,4.637-2.379c3.297,0.14,4.756,2.379,4.756,2.379   S352.366,369.513,349.848,369.373z M413.376,522.926c0,0,1.928,4.577-1.229,5.816c-3.178,1.198-4.397-4.237-4.397-4.237   l-16.307-52.117c0,0-0.369-0.659,0.2-1.659c1.719-0.3,3.488-0.659,5.316-1.039C397.998,472.867,413.376,522.926,413.376,522.926z    M449.486,551.442c0,0,1.928,4.577-1.249,5.816c-3.177,1.239-4.386-4.237-4.386-4.237l-27.438-88.746   c1.889-0.639,3.788-1.339,5.696-2.079C425.096,471.728,449.486,551.442,449.486,551.442z M472.176,535.596   c0,0,1.939,4.576-1.218,5.815c-3.168,1.239-4.407-4.236-4.407-4.236l-25.839-83.452c1.799-0.939,3.597-1.938,5.416-2.957   C447.916,456.381,472.176,535.596,472.176,535.596z M489.433,511.476c-3.148,1.238-4.396-4.237-4.396-4.237l-20.903-68.203   c1.698-1.239,3.407-2.538,5.116-3.877c0.01,0.04,0.03,0.059,0.03,0.08c0.57,1.638,21.393,70.422,21.393,70.422   S492.61,510.237,489.433,511.476z"/>
</g>
<g id="_761874112">
	<polygon id="polygon325" fill="#FFCB05" stroke="#FFCB05" stroke-width="2.4026" stroke-linejoin="round" points="672.323,187.494    672.323,187.494 622.737,181.44 601.979,226.703 592.466,177.692 543.167,171.638 586.699,147.709 576.896,98.987 613.222,133.006    656.755,108.5 635.709,153.763  "/>
	<polygon id="polygon329" fill="#FFCB05" stroke="#FFCB05" stroke-width="2.4026" stroke-linejoin="round" points="483.201,137.907    483.201,137.907 446.009,105.041 403.341,130.411 422.945,84.86 385.755,51.994 435.342,56.607 454.947,11.056 465.613,59.49    515.201,64.391 472.244,89.473  "/>
	<polygon id="polygon333" fill="#FFCB05" stroke="#FFCB05" stroke-width="2.4026" stroke-linejoin="round" points="261.21,105.041    224.02,137.907 224.02,137.907 234.975,89.473 192.019,64.391 241.606,59.49 252.273,11.056 271.877,56.607 321.465,51.994    284.274,84.86 304.167,130.411  "/>
	<polygon id="polygon3156" fill="#FFCB05" stroke="#FFCB05" stroke-width="2.4026" stroke-linejoin="round" points="35.185,187.494    71.51,153.763 50.465,108.5 93.998,132.717 130.323,98.987 120.521,147.709 164.054,171.638 114.755,177.692 105.241,226.414    84.484,181.44  "/>
</g>
</svg>